<svg xmlns="http://www.w3.org/2000/svg" viewBox="0 0 472.74 498.05">
  <defs>
    <style>
      .cls-1{fill:#000a0a}.cls-2{fill:#dce3e8}.cls-3{fill:#5e8dad}.cls-4{fill:#6aa0c3}.cls-10,.cls-11,.cls-12,.cls-13,.cls-14,.cls-15,.cls-16,.cls-17,.cls-5,.cls-6{stroke:#000}.cls-5{stroke-width:.43px}.cls-6{stroke-width:.38px}.cls-7{fill:#dceaf2}.cls-8{fill:#c3cfd8}.cls-9{fill:#d5dfe9}.cls-10{stroke-width:.46px}.cls-11{stroke-width:.41px}.cls-12{stroke-width:.53px}.cls-13{stroke-width:.47px}.cls-14{stroke-width:1.29px}.cls-15{stroke-width:.47px}.cls-16{stroke-width:.42px}.cls-17{stroke-width:.41px}.cls-18{fill:#355061}.cls-19{fill:#f5f2ee}.cls-20{fill:#f5f2ef}.cls-21{fill:#84b3d1}.cls-22{fill:#0e2f43}.cls-23{fill:#4b7591;stroke:#193341;stroke-width:.13px}.cls-24{fill:#21313d}.cls-25{fill:#253845}.cls-26{fill:#9fc8e3}
    </style>
  </defs>
  <g id="Слой_2" data-name="Слой 2">
    <g id="Слой_1-2" data-name="Слой 1">
      <path class="cls-1" d="M428.27 352c3.27-3.92 11-4.61 18.87-1.76s11.76 9.31 16.87 11.31 9.53.74 8.61 2c-3.49 4.71-6.67 7.47-14.54 10.26-8.3 2.94-12.08-.57-16-2.58s-14.95 1.43-19.37 1.63-2.87-6-1.58-10 5.26-8.6 7.14-10.86z"/>
      <path class="cls-2" d="M429.59 352.75c3-3.62 10.16-4.25 17.4-1.63s11.1 9.54 15.8 11.38 8.47.58 7.63 1.72c-3.22 4.34-6.09 6-13.35 8.62-7.65 2.71-11.13-.52-14.76-2.38s-13.78 1.32-17.85 1.51-2.65-5.52-1.46-9.22 4.86-7.92 6.59-10z"/>
      <path class="cls-1" d="M349.57 398.18c5.14-5.43 18.22-8.74 29.87-9.88s27.25-4.35 37.08-8.24 18.7-9.47 23.14-9.13.22-5.05-6.74-2.37-6.37-3.29-3.42-10.56c1.66-4.09 3.44-10.71-1.35-6.6-7.35 6.31-7.3 15.49-17.43 21.71-6.11 3.76-13.79 6-24.14 1.21s-14.24-11.46-14.24-11.46z"/>
      <path class="cls-3" d="M350.72 393.49c5-5 14.88-5.13 26.14-6.3s27.82-4 37.36-7.68 18.61-8.74 23.38-9.49c4.24-.66.8-2.93-6-.42s-6.87-4.55-3.93-11.15c1.66-3.72 4.42-8.42-.25-4.64-7.18 5.8-6.39 14.45-16.25 20.22-6 3.47-12.67 6.82-25.74 1.5-10-4.06-13.59-10.16-13.59-10.16z"/>
      <path class="cls-4" d="M383.29 376.24a24.38 24.38 0 008.27 3.7 20.67 20.67 0 009.78.81c4.1-.61 10-1.58 12.77-5.2a19.6 19.6 0 002.85-6.36 21 21 0 01-5.74 4.84c-6 3.47-12.67 6.82-25.74 1.5a35.51 35.51 0 01-3.85-1.83c-.15.85.22 1.59 1.66 2.54z"/>
      <path class="cls-5" d="M177.45 491.36c8.74 1.21 15.19-1.85 25.27-10.92 9.25-8.31 24-22.38 33.05-42.91 4-9.08-10.69-29.42-15-35.67-6.55-9.41-19.41-8.71-26.23-6.64-11.35 3.45-13.44-7.94-25.1-8.68-18.71-1.2-31.69 15.7-39.11 25.64-11.3 15.13-11.91 23.91-11.14 28.46s11.88 22.53 28.55 35.24 24 14.68 29.71 15.48z"/>
      <path class="cls-3" d="M175.16 490c8.74 1.21 16.26-.58 27.91-11.75 9.15-8.78 23.68-23.32 31.81-42.94 3.81-9.18-8.58-33-12.93-39.27-6.54-9.41-21-5.86-27.22-2.69-12.21 6.15-13.57-4.29-25.24-5-18.71-1.21-31.29 15.11-38.71 25.05-11.3 15.13-11.24 20.17-10.46 24.72s10.72 25 27.39 37.75 21.74 13.38 27.45 14.13z"/>
      <path class="cls-6" d="M119.65 436c2-12.83 13.94-31.56 23.77-32.4 4.22-.36 2.77 10.37-.71 16.81-5 9.23-7.09 12.49-7.09 12.49z"/>
      <path class="cls-7" d="M121.4 434.59c1.93-12.11 13-28.17 20.56-29.69 5.11-1 2.28 9.28 0 14.56-4 9.06-6.26 12.26-6.26 12.26z"/>
      <path d="M175.65 436.17c-20.74-17.31-47.75-21.94-54.88-7.36-7 14.26 3.27 30.78 22.79 46.69s43 21.77 53.28 9.57 4.93-27.07-21.19-48.9z"/>
      <path class="cls-8" d="M175 437c-20.32-16.92-46.68-21.56-53.56-7.43-6.73 13.82 3.35 29.93 22.46 45.49s42 21.38 52 9.57c9.86-11.63 4.67-26.3-20.9-47.63z"/>
      <path class="cls-9" d="M173.63 442c-2.08-1.7-14.23-10.38-21.17-13.63-10.49-4.91-19.37-5.65-26.64.07-4 3.18-7.35 10.67-1.27 21.69 8 14.45 21.36 24.89 28 29.22 4.26 2.78 14.82 5.78 8.53-.9-8.39-8.92-.75-20 12.08-13.72s19.14-2.36 14.63-7.85c-4.14-5.04-6.95-8.98-14.16-14.88z"/>
      <path class="cls-10" d="M159.8 250.55s-17.82-2.12-35.32 3.5S96 275 97 293.92c1.06 20.13 13.52 32.48 28.75 47.26 6.89 6.68 11.18 10.59 11.18 10.59s17.71-35.91 21.85-61.5 1.02-39.72 1.02-39.72z"/>
      <path class="cls-4" d="M165.84 253s-23.3-3.28-40.8 2.34-27.24 20.17-26.25 39.05c1 20.14 18.12 37.95 30.47 46.86a78.65 78.65 0 0014.37 8.31s12.8-33.23 16.94-58.81 5.27-37.75 5.27-37.75z"/>
      <path class="cls-3" d="M98.79 294.39c-1-18.88 8.75-33.44 26.25-39.06s40.8-2.34 40.8-2.34-.84 9.08-3.73 28c-9.72-.67-14.41-5.06-15.88-9.79-3.45-11.12-16.18-13.71-23.63-12s-18.8 10.7-21.76 23.8 2 26.07 6.36 32.88 9.76 8.23 16.12 5.09c5.67-2.81 12.49-12.68 12.49-12.68s9.13 18.91 8.81 32.45a20.42 20.42 0 01-1.92 8.4 80.7 80.7 0 01-13.44-7.9c-12.35-8.9-29.42-26.71-30.47-46.85z"/>
      <path class="cls-11" d="M227.49 75.79s34.42 42.3 65.68 70.33c22.67 20.33 74.47 17.55 90.7 85.4 19.52 81.61-2.66 160.91-41.35 193.39C307 454.75 239.06 468.24 196 443.38s-62.75-69.95-61.8-119.62C135.36 261.07 182.5 216 182.5 216l-10.31-96.73z"/>
      <path class="cls-4" d="M228 78s29.38 33.69 60.29 61.41c22.42 20.1 78.29 25.49 94.34 92.58 19.3 80.7-2.63 159.12-40.89 191.24-35.14 29.51-102.3 42.84-144.93 18.26s-62.23-69.93-61.3-115.95c.23-11.25-.55-26.12 2.22-36 4.19-15 14-28.09 20.73-39.14 13.29-21.86 27-33.22 27-33.22L173.27 121z"/>
      <path class="cls-3" d="M355.6 408.64c-.53-11.52 0-23.46 0-23.46s9.17-5.1 15.64-17.87c11.84-23.39 7-46.84-4.38-54.27-4.88-3.17 5-26 20.79-53.61 7.71 60.3-6.57 116.41-32.05 149.21z"/>
      <path class="cls-12" d="M381.29 487.68c8.9-5.75 20.44-14.87 20.82-31s-4.85-45.66-18.23-68c-6.47-10.79-16.46-24.81-25-27.74-12.85-4.41-24.13 6.6-28.88 14.17-7.9 12.6-26.1 4.53-33.38 16.64-11.93 19.89-13.74 43.53-12.8 56.88 1.71 24.48 5.36 25.68 9.39 29.72s28.06 17.09 52.61 16.78 29.66-3.71 35.47-7.45z"/>
      <path class="cls-4" d="M381.29 487.68c8.9-5.75 19-15.17 19.41-31.32s-6.33-47.36-19.7-69.7c-6.46-10.79-16.66-29.71-25.2-32.64-12.85-4.41-23.48 10.75-26.93 19-6.7 16.06-9.88-3.47-21.12 5.08-18 13.73-23.37 50.42-22.94 66.54.66 24.53 4.38 29.64 8.41 33.68s28.06 17.09 52.61 16.78 29.65-3.68 35.46-7.42z"/>
      <path class="cls-3" d="M400.7 456.36c-.39 16.15-10.51 25.57-19.41 31.32-5.81 3.74-10.94 7.11-35.47 7.42s-48.59-12.73-52.61-16.78-7.75-9.15-8.41-33.68c-.26-10 1.12-18 6.49-25.93 1.53-.71 2.82-.67 3.68.25 2.21 2.37 4.22.19 9.37-2.49s13.77-6.52 17.56.34 12.67 9.65 20.4 10 35-2.49 36.9-15.55-3.67-29.67-6.83-38c-.3-.82-.6-1.64-.88-2.46 3.55 5.52 6.84 11.34 9.5 15.78 13.38 22.42 20.09 53.63 19.71 69.78z"/>
      <path class="cls-13" d="M326.31 438.72c-3.11-7.23-9.8-22.72-19.72-18.83s.32 24.89.32 24.89z"/>
      <path class="cls-7" d="M323.94 438.18c-2.7-6.68-8.41-20.81-17-17.26s.24 22.79.24 22.79z"/>
      <path class="cls-13" d="M291 476.66c-7.48-14.78-9.41-44.17-1.79-52.2 6.67-7 12.26 5.4 14.08 13.1 3.12 13.21.09 23.15.09 23.15z"/>
      <path class="cls-7" d="M291.62 473.83c-7.05-13.94-8.66-39.33-2.76-46.85 5.64-7.2 11.94 3.42 13.66 10.68 2.94 12.46.09 21.84.09 21.84z"/>
      <path d="M342.52 432.09c-31.62-1.15-59.76 15.69-55.68 36.32 4 20.18 25.41 28.91 54.89 29.62s55.27-12 55.82-32.77c.55-20.47-15.22-31.71-55.03-33.17z"/>
      <path class="cls-8" d="M342.54 433.49c-31-1.11-58.51 15.21-54.52 35.19 3.89 19.54 24.86 28 53.71 28.65s54.12-11.69 54.66-31.75c.54-19.82-14.89-30.7-53.85-32.09z"/>
      <path class="cls-9" d="M344.93 439.71c-3.14-.07-20.6.75-29.34 3-13.19 3.29-23.95 14.62-24.37 21.29s1 16.79 14.63 23.25 41 7.79 47 7.54 10.5-5.33.63-10.2c-7.88-3.88-3.93-18.78 12.4-22.61s15.21-14 8.06-17.17-18.12-4.81-29.01-5.1z"/>
      <path class="cls-14" d="M322.65 157.65c12.79 7.29 24.5 15.39 36.7 16 9.84.46 19.24-5 30.82-9.63s26-6.49 32.26-3.38c21.83 10.89 26.05 30.36 26.84 45.36.9 16.89-2.46 24-13.35 30.65-7.81 4.75-20.5 8.37-28.66 16.37s-18.48 16.07-29.4 37.9S365 315.57 365 315.57s-21.61-23.37-33.28-60.32-9.07-97.6-9.07-97.6z"/>
      <path class="cls-4" d="M316.72 154.07c12.8 7.29 28.6 20.86 40.8 21.44 9.84.46 18.64-4.95 30.22-9.53s30.81-5.81 37-2.69c21.83 10.92 23.7 27.7 24.49 42.69.9 16.89-3.14 22-14 28.6-7.81 4.76-22.68 10-30.84 18s-17.91 17.52-28.83 39.35-12.89 31.5-12.89 31.5-28.68-23-40.36-60-5.59-109.36-5.59-109.36z"/>
      <path class="cls-3" d="M365 312.46c3.14-15.15 12.26-36.65 24.35-50.33s22.77-21.5 17.23-26.38-10.4-15.67-13.48-23c-2.18-5.18-3.44-11.69-7.53-14.14-2-1.21-5.77-1.89-7.15-3.59-2.69-2.12-.15-8.74.44-9.45 1.95-3.8 3.67-7.26 0-10.49s-30.79 9-50.34 22.2c-16.75 11.33-15.1-14.16-5.05-39 11.3 7.36 23.89 16.77 34 17.25 8.93.41 17-4 27.06-8.23 1-.43 7.24-3.6 11.83-3.88 12.52-.77 49.7 64.56 38.81 71.19-7.81 4.76-22.68 10-30.84 18s-17.91 17.52-28.83 39.35a222.18 222.18 0 00-10.79 24.63 12.18 12.18 0 01.29-4.13z"/>
      <path class="cls-15" d="M398.29 181c-7.39-2.82-15.54 1.05-17.25 6.48-1.57 5 6.67 10.27 13.68 11.48s9.52-.6 7.52-7.19a88.27 88.27 0 00-3.95-10.77z"/>
      <path class="cls-7" d="M397.79 181.85c-6.6-2.53-13.88 1-15.4 5.78-1.4 4.44 5.95 9.18 12.22 10.26s8.5-.54 6.72-6.42a79.83 79.83 0 00-3.54-9.62z"/>
      <path class="cls-16" d="M406.32 161c-11.82.72-27.67 7.14-20 15.06s19.4 4.18 19.4 4.18 10.99-19.84.6-19.24z"/>
      <path class="cls-7" d="M407.24 162.44c-11.12.48-27.59 5.9-20.24 13.27s18.34 4.11 18.34 4.11 11.66-17.82 1.9-17.38z"/>
      <path class="cls-17" d="M452.13 194.32c-5.11-20.88-22.37-36.47-38.54-34.84s-24.15 22.68-21.2 38.15c5.6 29.31 22.62 42.42 37.89 40.73s26.95-23.16 21.85-44.04z"/>
      <path class="cls-8" d="M451.78 194.6c-5-20.37-21.85-35.58-37.69-34s-23.63 22.14-20.75 37.23c5.46 28.6 22.1 41.39 37 39.72s26.42-22.55 21.44-42.95z"/>
      <path class="cls-9" d="M441.07 177.07c-8.48-10.9-17.12-15.16-26.42-14.57-6.62.42-15.71 7.82-18 16.45s-2.87 13.66.69 25.82S405 221.93 409.66 227s9.56 8.84 15.11 2.64 3-12.33 1.36-21.34c-1.55-8.52 4.56-14.16 13.27-12.33 8.11 1.72 10.17-7.97 1.67-18.9z"/>
      <path class="cls-18" d="M334.12 90.71c2.29-7.55 13.95-10.69 26-7s20 12.78 17.71 20.33-13.95 10.69-26 7-20.01-12.78-17.71-20.33z"/>
      <path class="cls-1" d="M238.39 38.26c7.54-4.65 43.57-19 69 4.08s34.62 51 35.38 77.38-1.38 47.19-6.21 59.71c-8.06 20.92-19.17 28.39-21.91 31.93l-132.93-38.11c2.34.67 56.67-134.99 56.67-134.99z"/>
      <path class="cls-4" d="M234.62 43.7c7.53-4.7 44.38-23.7 69.8-.63s34.63 51 35.38 77.37-3.73 52.74-8.56 65.25-12.72 27.65-12.72 27.65S176.46 173.31 178.8 174s55.82-130.3 55.82-130.3z"/>
      <path class="cls-3" d="M258.87 128.78c2.45-12.71 16.77-21.6 29.85-32.74s21.19-32 17.12-43.78c-3.45-10-12.42-14.63-19.87-19-22.07-5.38-45.52 6.84-51.35 10.45 0 0-7.25 17.72-16.51 40.09 17.98 28.33 39.35 52.29 40.76 44.98zM339.8 120.44a108.73 108.73 0 00-10.62-44.69c-8.29 13.45-13.88 25.83-8.14 28.37 9.23 4.09 13.22 14 12 40.63a391.38 391.38 0 01-6.28 51.45c1.56-3.45 3.11-7.08 4.43-10.51 4.88-12.51 9.37-38.91 8.61-65.25z"/>
      <path class="cls-1" d="M319.07 104.92s15.31-12.15 29.23-13 21.44.76 23.87 6.21-3.29 11.21-11.83 10.52-20.86-8.77-20.86-8.77a73.88 73.88 0 00.89 9c.63 3.28 1.2 5 2.36 10.77 0 0 9.41-4.81 15.46-2.89s12.82 1.8 20.08-5.26 8.27-19.89-2.15-26.93-21.73-3.1-36.18-7.57a59 59 0 01-23.27-13.81s-6.45 9-5.79 18.65 8.19 23.08 8.19 23.08z"/>
      <path class="cls-4" d="M319.07 104.92s15.71-14.27 29.63-15.07 23 2.32 25.43 7.77-5.38 13.43-13.93 12.74-19.5-7-19.5-7 .47 3.3.77 5.31c.58 3.87 1.18 7.69 1.4 9.43 0 0 8.84-4.6 14.9-2.69s11.63 2.43 18.89-4.64 9.06-17.66-1.37-24.71-23.13-3.53-37.58-8-21-14.82-21-14.82-8.63 9.35-8 19 10.36 22.68 10.36 22.68z"/>
      <path class="cls-3" d="M374.13 97.62c2.43 5.45-5.38 13.43-13.93 12.74s-19.5-7-19.5-7 .47 3.3.77 5.31c.58 3.87 1.18 7.69 1.4 9.43 0 0 8.84-4.6 14.9-2.69s11.63 2.43 18.89-4.64c6.56-6.39 8.67-15.68 1.28-22.61a23.63 23.63 0 001.05 2.5c2.46 5 2.2 8.29.15 10s0-11.47-20.46-13.11c-16.2-1.29-30.27 8.1-36 14.33a1.55 1.55 0 00-.19.24c5.37-4.2 16.26-11.69 26.23-12.26 13.9-.8 22.97 2.31 25.41 7.76z"/>
      <path class="cls-1" d="M193.6 54.55s9.73-24 32.62-33.16c15.08-6.06 28.62-2.28 31.76 11.49s-28.9 52.23-28.9 52.23z"/>
      <path class="cls-19" d="M196.73 53.5s9.05-22.32 30.36-30.87c14-5.63 26.65-2.12 29.57 10.7S229.75 82 229.75 82z"/>
      <path class="cls-1" d="M225 86.6c-6.29-16-.4-39.45 21.37-53.66 21.58-12.74 41.42-8.77 47.87 6 6.52 14.23-5.63 35.64-27.37 49.61C244.93 104 231.34 102.08 225 86.6z"/>
      <path class="cls-19" d="M217.29 88.16c-5.76-14.91 6.39-39.3 26.92-52.76 20.33-12.09 41.42-9.36 47.34 4.4 6 13.25-5.57 33.36-26.06 46.61-20.69 14.59-42.37 16.17-48.2 1.75z"/>
      <path class="cls-1" d="M246.32 39.69c3.43-1.2 7 .06 7.94 2.81s-1 6-4.49 7.14-7-.07-8-2.82 1.11-5.94 4.55-7.13z"/>
      <path class="cls-20" d="M250.9 44.37a1.51 1.51 0 11-1.22 2 1.67 1.67 0 011.22-2zM245.14 43.32a.85.85 0 011.1.4.92.92 0 11-1.1-.4z"/>
      <path class="cls-1" d="M231.26 32.32c2.27-1.13 4.84-.59 5.75 1.22s-.19 4.2-2.45 5.34-4.84.59-5.75-1.22.19-4.2 2.45-5.34z"/>
      <path class="cls-20" d="M234.86 35.14a1.16 1.16 0 011.59.35 1.29 1.29 0 11-1.59-.35zM230.78 34.94a.58.58 0 01.8.18.59.59 0 01-.34.74.57.57 0 01-.79-.18.58.58 0 01.33-.74z"/>
      <path class="cls-1" d="M61.59 4.27c1.9-4.2 14.18-6.7 25.06-.72s14.17 19.52 14.17 19.52L90 24.42z"/>
      <path class="cls-4" d="M61.64 4.86c1.9-4.19 13.12-6.1 24-.12s15.23 18.93 15.23 18.93L90.09 25z"/>
      <path class="cls-1" d="M58.84 19.72s-.81-6.46.45-11.21 4.32-8.8 12.64-7.42a18.86 18.86 0 0114.86 11.24c1.92 4.15 4.42 12.18 4.42 12.18s-9.08-1.66-17.75-3.37a66 66 0 00-14.62-1.42z"/>
      <path class="cls-4" d="M60.22 19.59a26.75 26.75 0 01.42-9.59c1.21-4.64 3.82-8.37 11.84-7s11.77 7.12 13.63 11.13 5.48 11.62 5.48 11.62a143.12 143.12 0 01-18-2.12 62.93 62.93 0 01-13.37-4.04z"/>
      <path class="cls-1" d="M260.34 134.15c-.12-1.42-14.26-54.66-62.11-89.54C160.07 16.79 127.5 2.75 78.66 10.19c-65.79 10-99.42 102-64.88 153.93s77.47 65 98.06 70.44 50.86 10.09 67.29 1.85 82.98-82.53 81.21-102.26z"/>
      <path class="cls-4" d="M263 142.49c-.12-1.39-19.85-61.87-66.5-95.89-37.2-27.11-69-40.8-116.58-33.54C15.81 22.83-17 112.44 16.7 163.12s75.52 63.34 95.59 68.67 57.58 11 73.59 3 78.87-73.07 77.12-92.3z"/>
      <path class="cls-21" d="M16.84 143.82c10.82 8 21.65 16.07 21.65-19.77s3.7-64.21 14.24-70.54 8.6-20.83 20.91-29.87 21.08-11.2 38.06-8.41 57.83 11.79 66.89 24 24.55 33.5 37.15 37.38a61.07 61.07 0 0013 1.93 162.19 162.19 0 00-32.22-31.94c-37.2-27.11-69-40.8-116.58-33.54-56.2 8.56-88.33 78.43-72.75 129.69 2.48-2.23 5.81-1.75 9.65 1.07z"/>
      <path class="cls-1" d="M98 9.3c3.57-8.86 25.26-13.4 45.06-1.06S169.47 48 169.47 48l-19.78 3.08z"/>
      <path class="cls-4" d="M98.1 10.55c3.57-8.84 24.16-13.11 44-.78s27.48 39.47 27.48 39.47l-19.77 3.08z"/>
      <path class="cls-1" d="M94 35s-2.7-6.67-.28-16.69S101.82-.31 117 2.39C133.46 5.32 140.59 17 144 25.7s7.82 25.53 7.82 25.53-16.59-3.3-32.44-6.72S94 35 94 35z"/>
      <path class="cls-4" d="M94.14 39.15a58.92 58.92 0 011.14-18.94c2.32-9.67 7.33-18.25 22-15.53s22.59 13.56 25.89 22 9 26.12 9 26.12a228.56 228.56 0 01-32.82-4.06 85.64 85.64 0 01-25.21-9.59z"/>
      <path class="cls-1" d="M105 38.92s.12-7.4 2.24-11c3.35-5.68 12.62-9.72 20.36-.47a47.4 47.4 0 018.66 15.2z"/>
      <path class="cls-22" d="M106.08 36.8s.3-5.34 2.06-8.58c2.54-4.67 12.83-7.95 19.46 1 5.31 7.16 6.77 12.27 6.77 12.27z"/>
      <path class="cls-1" d="M102.35 36.46s6.9-8.53 19.45-4.18a42.05 42.05 0 0119.39 14.45s-9.65-.95-20.77-3.09c-12.71-2.45-18.07-7.18-18.07-7.18z"/>
      <path class="cls-4" d="M100.34 37.73a22.09 22.09 0 0121.54-4.13c12.55 4.35 20.5 14.72 20.5 14.72a192.28 192.28 0 01-22.11-2.78c-12.71-2.45-19.93-7.81-19.93-7.81z"/>
      <path class="cls-23" d="M165.24 101.74c.84-1.56 3.11-2 5.06-.92s2.86 3.18 2 4.74-3.11 2-5.06.92-2.84-3.17-2-4.74zM206.75 114.65c.73-1.62 3-2.19 5-1.28s3.07 3 2.34 4.58-3 2.19-5 1.28-3.09-2.96-2.34-4.58zM196.89 148.26c.73-1.62 3-2.19 5-1.27s3.07 3 2.34 4.58-3 2.19-5 1.27-3.07-2.96-2.34-4.58z"/>
      <path class="cls-24" d="M41.65 39.73c-5.06 7.1-16 16.81-25.21 45.48-5 15.42-4.64 30.55-3.24 41.66-.65-11.6-.07-28.05 3.49-39.63 7.03-22.97 19.16-39.95 24.96-47.51z"/>
      <path class="cls-24" d="M39.06 56.53a25.78 25.78 0 00-8.81-2.18 27 27 0 00-8.09.5 61.77 61.77 0 017.37.16 59.09 59.09 0 019.53 1.52zM25.1 91.77a25.7 25.7 0 00-8.49-3.2 26.91 26.91 0 00-8.09-.45 60.49 60.49 0 017.3 1 58 58 0 019.28 2.65z"/>
      <path class="cls-25" d="M164.4 313.82c-18.38 7.09-22.62 40.5-9.46 74.63s38.74 56.05 57.12 49 22.61-40.5 9.45-74.63-38.73-56.08-57.11-49z"/>
      <path class="cls-26" d="M164.8 314.87c-18.07 7-22.23 39.81-9.29 73.37s38.07 55.09 56.15 48.12S233.89 396.55 221 363s-38.12-55.1-56.2-48.13z"/>
      <path class="cls-1" d="M174.78 218.69s20.12 2.26 31.45-1.4 17.16-5.8 16.19-2.9-10.23 5.28-21.06 6.21-25.64-.73-26.58-1.91zM191.37 229.7a26.25 26.25 0 0011.49 5.7c7 1.52 17.11 1.62 9.38 2.18a34.73 34.73 0 01-17-2.79c-5.53-2.36-7.6-6.34-3.87-5.09z"/>
    </g>
  </g>
</svg>
