<svg width="384" height="480" fill="none" xmlns="http://www.w3.org/2000/svg"><path d="M320 448h-64V336a32 32 0 0132-32h32v144z" fill="#FAA019"/><path d="M328 480h-64a8 8 0 01-8-8v-24h64a16 16 0 0116 16v8a8 8 0 01-8 8z" fill="#F0915A"/><path d="M192 304a80 80 0 00-80 80v32H80v48a16 16 0 0016 16h48a64 64 0 0064-64V304h-16z" fill="#FAA019"/><path d="M8 477.33h8a16 16 0 0016-16V408H8a8 8 0 00-8 8v53.33a8 8 0 008 8z" fill="#FAB991"/><path d="M144 304a80 80 0 00-80 80v24H32v56a16 16 0 0016 16h48a64 64 0 0064-64h48v32h64v-38.68A80 80 0 00320 336v-32H144z" fill="#FFD205"/><path d="M280 480h-64a8 8 0 01-8-8v-24h64a16 16 0 0116 16v8a8 8 0 01-8 8z" fill="#FAB991"/><path d="M288 336a32 32 0 100-64 32 32 0 000 64z" fill="#D7E6F0"/><path d="M256 48c-70.7 0-128 57.3-128 128s57.3 128 128 128h48a80 80 0 0080-80v-48c0-70.7-57.3-128-128-128z" fill="#FAB991"/><path d="M321.03 65.71a127.97 127.97 0 00-73.05-17.45L128.26 167.98a127.97 127.97 0 0017.46 73.05L321.02 65.71z" fill="#FFD205"/><path d="M224 176v80a40 40 0 010-80z" fill="#F0915A"/><path d="M284 200a12 12 0 100-24 12 12 0 000 24zM348 200a12 12 0 100-24 12 12 0 000 24z" fill="#463C4B"/><path d="M325.33 248c-5.89 0-10.66-4.78-10.66-10.67V208A21.33 21.33 0 01336 229.33v8c0 5.9-4.78 10.67-10.67 10.67z" fill="#F0915A"/><path d="M280 32h32v34.67h-32V32z" fill="#23AAE6"/><path d="M347.13 3.9L312 32v34.67l35.31 25.9a17.77 17.77 0 0010.5 3.43h.42c9.82 0 17.77-7.95 17.77-17.77V17.77a17.77 17.77 0 00-28.87-13.88zM244.87 3.9L280 32v34.67l-35.31 25.9a17.77 17.77 0 01-10.5 3.43h-.42A17.77 17.77 0 01216 78.23V17.77a17.77 17.77 0 0128.87-13.88z" fill="#5AD7FF"/><path d="M280 232h-16a8 8 0 010-16h16a8 8 0 010 16zM368 224a8 8 0 008 8h7.6c.26-2.63.4-5.3.4-8v-8h-8a8 8 0 00-8 8z" fill="#F0915A"/></svg>