<svg xmlns="http://www.w3.org/2000/svg" xmlns:xlink="http://www.w3.org/1999/xlink" viewBox="0 0 107.79 139.58">
  <defs>
    <linearGradient id="linear-gradient" x1="-2867.66" y1="1331.44" x2="-2856.18" y2="1331.44" gradientTransform="matrix(1.12 .63 -.54 1 3951.51 603.8)" gradientUnits="userSpaceOnUse">
      <stop offset="0" stop-color="#d9234a"/>
      <stop offset="1" stop-color="#b92149"/>
    </linearGradient>
    <linearGradient id="linear-gradient-2" x1="-2867.66" y1="1331.44" x2="-2856.18" y2="1331.44" gradientTransform="matrix(1.12 .63 -.54 1 3951.51 603.8)" gradientUnits="userSpaceOnUse">
      <stop offset="0" stop-color="#fddef0"/>
      <stop offset="0" stop-color="#fcd3e1"/>
      <stop offset="0" stop-color="#fccfdb"/>
      <stop offset=".03" stop-color="#edc7d0"/>
      <stop offset=".09" stop-color="#c6b4b4"/>
      <stop offset=".16" stop-color="#879387"/>
      <stop offset=".26" stop-color="#316749"/>
      <stop offset=".26" stop-color="#2e6647"/>
      <stop offset=".31" stop-color="#4f7d64"/>
      <stop offset=".4" stop-color="#91ac9d"/>
      <stop offset=".48" stop-color="#c1cdc7"/>
      <stop offset=".54" stop-color="#dfe2e0"/>
      <stop offset=".57" stop-color="#eaeaea"/>
      <stop offset=".62" stop-color="#e0e5e4"/>
      <stop offset=".71" stop-color="#c6d8d5"/>
      <stop offset=".82" stop-color="#9cc2bd"/>
      <stop offset=".88" stop-color="#81b4ad"/>
      <stop offset="1" stop-color="#d2e2dc"/>
      <stop offset="1" stop-color="#a8b7b2"/>
    </linearGradient>
    <linearGradient id="linear-gradient-3" x1="-2864.7" y1="1331.63" x2="-2859.74" y2="1331.63" xlink:href="#linear-gradient"/>
    <linearGradient id="linear-gradient-4" x1="-2840.2" y1="1301.81" x2="-2829.98" y2="1301.81" xlink:href="#linear-gradient"/>
    <linearGradient id="linear-gradient-5" x1="-2840.2" y1="1301.81" x2="-2829.98" y2="1301.81" xlink:href="#linear-gradient-2"/>
    <linearGradient id="linear-gradient-6" x1="-2837.56" y1="1301.98" x2="-2833.15" y2="1301.98" xlink:href="#linear-gradient"/>
    <linearGradient id="linear-gradient-7" x1="7254.45" y1="211.67" x2="7267.57" y2="211.67" gradientTransform="rotate(-6.42 2427.426 64701.335)" gradientUnits="userSpaceOnUse">
      <stop offset=".01" stop-color="#e7b146"/>
      <stop offset=".25" stop-color="#fff"/>
      <stop offset=".3" stop-color="#f9f4ee"/>
      <stop offset=".39" stop-color="#e8d8c1"/>
      <stop offset=".52" stop-color="#cdab79"/>
      <stop offset=".6" stop-color="#bc8e4c"/>
      <stop offset=".8" stop-color="#ecd7a7"/>
      <stop offset=".87" stop-color="#fcefc6"/>
      <stop offset="1" stop-color="#fff"/>
    </linearGradient>
    <linearGradient id="linear-gradient-8" x1="7254.44" y1="211.91" x2="7267.57" y2="211.91" xlink:href="#linear-gradient-7"/>
    <linearGradient id="linear-gradient-9" x1="7254.95" y1="211.91" x2="7266.68" y2="211.91" gradientTransform="rotate(-6.42 2427.426 64701.335)" gradientUnits="userSpaceOnUse">
      <stop offset=".01" stop-color="#f7ca54"/>
      <stop offset=".25" stop-color="#fff"/>
      <stop offset=".3" stop-color="#fbf5ee"/>
      <stop offset=".4" stop-color="#efdcc1"/>
      <stop offset=".54" stop-color="#ddb479"/>
      <stop offset=".6" stop-color="#d6a45d"/>
      <stop offset=".79" stop-color="#f1e3b8"/>
      <stop offset=".87" stop-color="#fdfddf"/>
      <stop offset="1" stop-color="#fff"/>
    </linearGradient>
    <linearGradient id="linear-gradient-10" x1="-4305.44" y1="-3893.42" x2="-4305.29" y2="-3885.93" gradientTransform="matrix(-.93 -.37 -.37 .93 -5374.2 2154.79)" gradientUnits="userSpaceOnUse">
      <stop offset="0" stop-color="#cec8c6"/>
      <stop offset="0" stop-color="#c8c1bc"/>
      <stop offset=".06" stop-color="#b9b2b0"/>
      <stop offset=".18" stop-color="#928c90"/>
      <stop offset=".26" stop-color="#716b74"/>
      <stop offset=".52" stop-color="#d8d8d8"/>
      <stop offset=".58" stop-color="#cac9ca"/>
      <stop offset=".7" stop-color="#a6a2a5"/>
      <stop offset=".86" stop-color="#6b646a"/>
      <stop offset=".88" stop-color="#655d64"/>
      <stop offset="1" stop-color="#b6b8b9"/>
      <stop offset="1" stop-color="#8b8f90"/>
    </linearGradient>
    <linearGradient id="linear-gradient-11" x1="-3848.5" y1="-1750.37" x2="-3846.05" y2="-1747.21" gradientTransform="matrix(-1.47 -.02 -.02 1.2 -5625.06 2126.53)" gradientUnits="userSpaceOnUse">
      <stop offset=".01" stop-color="#80502c"/>
      <stop offset=".5" stop-color="#63322c"/>
      <stop offset="1" stop-color="#372c2c"/>
    </linearGradient>
    <linearGradient id="linear-gradient-12" x1="-3847.33" y1="-1750.89" x2="-3844.94" y2="-1747.79" gradientTransform="matrix(-1.47 -.02 -.02 1.2 -5625.06 2126.53)" gradientUnits="userSpaceOnUse">
      <stop offset=".03" stop-color="#777671"/>
      <stop offset=".11" stop-color="#7f7f80"/>
      <stop offset=".22" stop-color="#90919f"/>
      <stop offset=".32" stop-color="#818491"/>
      <stop offset=".52" stop-color="#5a616d"/>
      <stop offset=".72" stop-color="#2c3742"/>
      <stop offset="1" stop-color="#606e76"/>
    </linearGradient>
    <linearGradient id="linear-gradient-13" x1="-3846.38" y1="-1751.29" x2="-3844" y2="-1748.21" xlink:href="#linear-gradient-11"/>
    <linearGradient id="linear-gradient-14" x1="-3844.33" y1="-1752.33" x2="-3841.83" y2="-1749.11" xlink:href="#linear-gradient-11"/>
    <linearGradient id="linear-gradient-15" x1="-3845.43" y1="-1751.77" x2="-3842.97" y2="-1748.59" xlink:href="#linear-gradient-12"/>
    <radialGradient id="radial-gradient" cx="-2795.54" cy="1289.22" r="4.17" gradientTransform="matrix(1.07 .63 -.51 1 3679.16 603.8)" gradientUnits="userSpaceOnUse">
      <stop offset=".01" stop-color="#c9d5d2"/>
      <stop offset=".3" stop-color="#c0cece"/>
      <stop offset=".66" stop-color="#a8b7b2"/>
      <stop offset="1" stop-color="#9bafaf"/>
    </radialGradient>
    <radialGradient id="radial-gradient-2" cx="-2835.02" cy="1301.65" r="3.6" gradientTransform="matrix(1.12 .63 -.54 1 3951.51 603.8)" xlink:href="#radial-gradient"/>
    <radialGradient id="radial-gradient-3" cx="-9179.51" cy="1523.16" r="44.68" gradientTransform="matrix(-.55 -.03 0 -.88 -4975.97 1140.05)" gradientUnits="userSpaceOnUse">
      <stop offset=".01" stop-color="#f8ee71"/>
      <stop offset=".25" stop-color="#fff"/>
      <stop offset=".31" stop-color="#fef8ee"/>
      <stop offset=".43" stop-color="#fce5c1"/>
      <stop offset=".6" stop-color="#f9c87a"/>
      <stop offset=".79" stop-color="#fdeed5"/>
      <stop offset=".87" stop-color="#fff"/>
      <stop offset="1" stop-color="#fff"/>
    </radialGradient>
    <style>
      .cls-1{fill:#223838}.cls-2{fill:#5e8dad}.cls-3{fill:#cddde9}.cls-4{fill:#c3cfd8}.cls-5{fill:#d5dfe9}.cls-6{fill:#6aa0c3}.cls-7{fill:#2c2c2c}.cls-11,.cls-12,.cls-13,.cls-14,.cls-16,.cls-17,.cls-8,.cls-9{stroke:#282828}.cls-8,.cls-9{stroke-width:.2px}.cls-8{fill:url(#linear-gradient)}.cls-9{fill:url(#linear-gradient-2)}.cls-10,.cls-15{fill:#f56024;stroke:#1a1a1a}.cls-10{stroke-width:.08px}.cls-11{stroke-width:.1px;fill:url(#radial-gradient)}.cls-12{fill:url(#linear-gradient-3)}.cls-12,.cls-13,.cls-14{stroke-width:.17px}.cls-13{fill:url(#linear-gradient-4)}.cls-14{fill:url(#linear-gradient-5)}.cls-15{stroke-width:.07px}.cls-16{stroke-width:.09px;fill:url(#radial-gradient-2)}.cls-17{stroke-width:.15px;fill:url(#linear-gradient-6)}.cls-18,.cls-25{fill:#141414}.cls-19{fill:#9f1b1d}.cls-20{fill:#80564a}.cls-21{fill:#966353}.cls-22{fill:#cb1d20}.cls-23{fill:#b91c1e}.cls-24{fill:#171414}.cls-25,.cls-29,.cls-31{stroke:#141414}.cls-25{stroke-width:.17px}.cls-26{fill:#551718}.cls-27{stroke:#272725;stroke-width:.09px;fill:url(#radial-gradient-3)}.cls-28{fill:#fdfddf}.cls-29,.cls-31{stroke-width:.09px}.cls-29{fill:url(#linear-gradient-7)}.cls-30{fill:#fff}.cls-31{fill:url(#linear-gradient-8)}.cls-32{fill:url(#linear-gradient-9)}.cls-33{fill:#643318}.cls-34{fill:#7b3d19}.cls-35{fill:#dce3e8}.cls-36{fill:#182836}.cls-37{fill:#bed3e1}.cls-38{fill:#f5f2ee}.cls-39{fill:#f5f2ef}.cls-40{fill:#253845}.cls-41{fill:#9fc8e3}.cls-42{fill:#322f18}.cls-43{fill:#3e5365}.cls-44,.cls-46{fill:#0e1821}.cls-44,.cls-46,.cls-52,.cls-53{stroke:#000}.cls-44{stroke-width:.02px}.cls-45{fill:#8fc2e3}.cls-46{stroke-width:.02px}.cls-47{fill:#21313d}.cls-48{fill:#4b7591;stroke:#193341;stroke-width:.03px}.cls-49{fill:#88151a}.cls-50{fill:#cd0f1d}.cls-51{fill:#4a4a4a;stroke:#2c2c2c;stroke-width:.06px}.cls-52,.cls-53{stroke-width:.03px}.cls-52{fill:url(#linear-gradient-10)}.cls-53{fill:#656565}.cls-54{fill:url(#linear-gradient-11)}.cls-55{fill:url(#linear-gradient-12)}.cls-56{fill:url(#linear-gradient-13)}.cls-57{fill:url(#linear-gradient-14)}.cls-58{fill:url(#linear-gradient-15)}.cls-59{fill:#6e0d0d}.cls-60{fill:#ff490d}.cls-61{fill:#ff6431}.cls-62{fill:#fa450d}.cls-63{fill:#ffb531}.cls-64{fill:#ffd98d}
    </style>
  </defs>
  <g id="Слой_2" data-name="Слой 2">
    <g id="Слой_1-2" data-name="Слой 1">
      <path class="cls-1" d="M30.84 54.6a8.74 8.74 0 004.35 5.14c2.59 1.22 7 .84 11 .58 2-.12 5.67-.88 6.42-1.86 1.12-1.47-.89-1.67-2-2.88-1.78-2 .8-5.16-1.18-6.78a31.92 31.92 0 00-9.22-4.95c-4-1.53-4.32-1.11-5.1-.84a9.77 9.77 0 00-4.38 6.12c-.73 3.44-.31 4.4.11 5.47z"/>
      <path class="cls-2" d="M30.84 54.6a8.67 8.67 0 004.44 5c2.59 1.22 7.86.75 11.89.5 1.95-.13 4.69-.63 5.44-1.61 1.12-1.47-.37-1.82-1.59-2.89-2.38-2.09 1.45-1.81.42-4-1.64-3.5-8-6.21-10.58-7.31-4-1.68-4.93-1.53-5.71-1.26a9.77 9.77 0 00-4.38 6.12c-.77 3.42-.35 4.38.07 5.45z"/>
      <path class="cls-1" d="M35.79 42.8c2.11.19 4.75.74 6 2.25 1.08 1.31-1.87 1.46-3.17 1.26a4.72 4.72 0 01-3.06-1.44z"/>
      <path class="cls-3" d="M36.14 43.18c2.4.22 4 .43 5.22 1.67s-.74 1.43-2 1.24a10.62 10.62 0 01-3.63-1.25z"/>
      <path class="cls-1" d="M41.05 53.21c1.19-4.32-.64-9.45-4.1-10.37s-5.47 1.45-6.52 5.51.34 9.13 3.67 10.7 5.44-.4 6.95-5.84z"/>
      <path class="cls-4" d="M40.82 53.11c1.16-4.23-.6-9.24-4-10.13s-5.31 1.45-6.33 5.42.24 8.82 3.46 10.34 5.41-.3 6.87-5.63z"/>
      <path class="cls-5" d="M39.74 53a21.15 21.15 0 00.45-4.3c-.12-2.08-1.6-4.39-2.67-4.93a3.42 3.42 0 00-4.22.36c-1.47 1.43-2.56 5.15-2.71 6s.53 1.85 1.63.83c.88-.82 3.16.81 3.26 3.36s1.76 3.12 2.51 2.36A8.67 8.67 0 0039.74 53z"/>
      <path class="cls-6" d="M42.9 53.69a8.12 8.12 0 00.55-3c-.05-1.43-.11-2.63-.12-3.29s.29-1.44.87-1 1.06 1.25 1.91 1.64 1.5.89.38 3.25a22.46 22.46 0 00-1.87 5.08c-.12.85-.72 1.46-2 1.14s-2.81.06-1.59-1.37 1.67-1.75 1.87-2.45z"/>
      <path class="cls-1" d="M42.05 87.42c.47.67 1.85 3 .76 4.22-1.77 1.94-3 3.73-2.8 5.28s1.08 4.68 5.26 6.89c4.46 2.35 7.74 1.23 8.94.09s.59-1.93 2.16-4.3a22.06 22.06 0 014.44-4.14 39.94 39.94 0 014.65-2.62s-9.13-4.12-14.13-4.78a79.33 79.33 0 00-9.28-.64z"/>
      <path class="cls-6" d="M42.49 87.49c.46.66 1.83 3 .75 4.22-1.72 1.89-3.18 3.62-3 5.14s1.07 4.58 5.15 6.74c4.37 2.3 7.39 1.26 8.56.15s.75-2.12 2.29-4.44a21.42 21.42 0 014.35-4 30.6 30.6 0 014.54-2.4s-8.92-4-13.82-4.67-8.82-.74-8.82-.74z"/>
      <path class="cls-2" d="M43.24 91.71c-1.72 1.89-3.18 3.62-3 5.14s1.07 4.58 5.15 6.74c4.37 2.3 7.39 1.26 8.56.15s.75-2.12 2.29-4.44a21.42 21.42 0 014.35-4 18.69 18.69 0 012.65-1.52 4.28 4.28 0 00-1.64.22 10.23 10.23 0 00-3.91 2.46 14.2 14.2 0 00-3.51 6c-.36 1.23-2.22 1.62-3.8 1.43s-1.74-1.49-1.35-3.2A2.11 2.11 0 0046.87 98c-1.18-.08-1.23-.2-.94-1.09s-.61-2.35-1.55-2.88-2 0-1.57-.67A5 5 0 0147 91.72c2.4 0 .72-1.81-1.8-3.35-.52-.32-1-.59-1.31-.83l-1.4-.05c.51.66 1.83 3.04.75 4.22z"/>
      <path class="cls-1" d="M42.51 94a5.48 5.48 0 00-2.26 1.53c0 .14-.18.77-.16.9a6.51 6.51 0 002 4.61c.52-.77 1.58-1.84 2.06-2.64 1.9-3.11.18-4.99-1.64-4.4z"/>
      <path class="cls-3" d="M42.54 94.16a3.83 3.83 0 00-2.19 1.51 3.55 3.55 0 00-.11 1.33 6 6 0 001.7 3.94c.52-.76 1.62-1.81 2.1-2.59 1.84-3.03.25-4.79-1.5-4.19z"/>
      <path class="cls-1" d="M43.78 98.86c-.69.74-1.2 1.51-1.78 2.16a11.67 11.67 0 002.18 1.91 13.9 13.9 0 001.22.75 7.76 7.76 0 001.81-3.79c.22-2.24-2.12-2.41-3.43-1.03z"/>
      <path class="cls-3" d="M43.86 99c-.69.71-1.19 1.46-1.77 2.09a10.3 10.3 0 002 1.75c.39.25.77.48 1.14.67a7.89 7.89 0 001.84-3.63c.3-2.09-1.93-2.18-3.21-.88z"/>
      <path class="cls-7" d="M4.64 117.63c2.76-10.75 12.46-14.74 21.51-13.15s14.23 8.41 12.67 19.34c-1.23 8.65-8.7 17.77-20.6 15.37C5 136.53 2.52 125.87 4.64 117.63z"/>
      <path class="cls-8" d="M20.69 121.24c1.47-5.78 5.64-9.89 9.32-9.18s5.65 6.25 4.4 12.32-5.47 10.11-9.37 9.09-5.85-6.47-4.35-12.23z"/>
      <path class="cls-9" d="M20.69 121.24c1.47-5.78 5.64-9.89 9.32-9.18s5.65 6.25 4.4 12.32-5.47 10.11-9.37 9.09-5.85-6.47-4.35-12.23z"/>
      <path class="cls-10" d="M21.11 120.86c1.47-5.78 5.41-10 8.81-9.3s5.16 6.13 3.89 12.19S28.56 133.9 25 133s-5.38-6.39-3.89-12.14z"/>
      <path class="cls-11" d="M24.33 121.85c.77-3.09 2.88-5.29 4.72-4.9s2.76 3.29 2.06 6.46c-1.12 5-2.83 5.35-4.73 4.88s-2.82-3.35-2.05-6.44z"/>
      <path class="cls-12" d="M24.28 122.14c.68-2.78 2.53-4.76 4.12-4.42s2.37 2.93 1.72 5.77-2.49 4.8-4.13 4.39-2.4-2.97-1.71-5.74z"/>
      <path class="cls-7" d="M52.83 105.77c2.5-9.28 11.28-12.72 19.47-11.35s12.88 7.26 11.47 16.7c-1.11 7.46-7.87 15.34-18.64 13.27-11.96-2.3-14.21-11.5-12.3-18.62z"/>
      <path class="cls-13" d="M67.36 108.88c1.33-5 5.11-8.53 8.43-7.91s5.12 5.39 4 10.63-5 8.73-8.48 7.85-5.31-5.6-3.95-10.57z"/>
      <path class="cls-14" d="M67.36 108.88c1.33-5 5.11-8.53 8.43-7.91s5.12 5.39 4 10.63-5 8.73-8.48 7.85-5.31-5.6-3.95-10.57z"/>
      <path class="cls-15" d="M67.74 108.56c1.33-5 4.9-8.6 8-8s4.66 5.3 3.52 10.53-4.75 8.76-8 8-4.87-5.56-3.52-10.53z"/>
      <path class="cls-16" d="M70.66 109.42c.69-2.68 2.6-4.57 4.27-4.24s2.5 2.84 1.86 5.58c-1 4.3-2.56 4.62-4.28 4.21s-2.51-2.89-1.85-5.55z"/>
      <path class="cls-17" d="M70.61 109.66c.62-2.39 2.29-4.1 3.73-3.81s2.14 2.53 1.56 5-2.26 4.14-3.74 3.8-2.16-2.59-1.55-4.99z"/>
      <path class="cls-18" d="M38.18 103.74c5.51 2.93 7.7 2.47 11.36 1.52 4.1-1.07 3.11-5.68 2.68-8.78s-.56-4.37-.56-4.37l8.64 1.42s.81 12.34-1.88 16.41-6.78 6.81-10.66 4-9.58-10.2-9.58-10.2z"/>
      <path class="cls-19" d="M38.87 104.68c3.9 2.31 7.08 1.92 11.2 1s3.1-5.5 2.67-8.59-.56-4.37-.56-4.37l8.64 1.41s.81 12.35-1.88 16.41-6.78 6.81-10.65 4-9.42-9.86-9.42-9.86z"/>
      <path class="cls-18" d="M8.5 62.92a14.25 14.25 0 01-5.25-1.26c-1.43-.61-1.95-.87-2.63.51a5 5 0 00-.44 3.67 1.55 1.55 0 002.57.59c.91-1.26 1.79-1.9 2.75-1.22a4.27 4.27 0 002.18 1c.51.01 1.53-3.27.82-3.29z"/>
      <path class="cls-20" d="M8.33 63.16a13.42 13.42 0 01-5.13-1.23c-1.42-.6-1.71-.77-2.39.61a3.25 3.25 0 00-.25 3c.57 1.3 1.35 1 1.84.34.91-1.26 2.26-1.7 3.23-1s1.54 1.41 2.05 1.39 1.32-3.09.65-3.11z"/>
      <path class="cls-18" d="M2.4 65.92c.82-1.14 3.3-3 2.11-1.62-.78.92-1.65 1.87-1.65 1.87z"/>
      <path class="cls-21" d="M5.07 64c.53-.52.17-.71-.37-.46a5.87 5.87 0 00-1.92 1.21c-.47.53-1 1.26-1.42.91a1.91 1.91 0 01-.31-2c.27-.85.63-2.18 1.27-1.84a9 9 0 002.4.84c.8.15 1.87.24 1.68.6s-.29 1.34-.53 1.24-1.18-.13-.8-.5z"/>
      <path class="cls-18" d="M15.15 69.15c2.91-.37 1.43-4.53 1.43-4.53-1-.77-7-1.91-8.15-2.07-1.45-.2-1.91 1.19-2.09 2.23-.26 1.58.66 2 2.56 2.62s5.27 1.87 6.25 1.75z"/>
      <path class="cls-22" d="M13.85 68.37c2.73-.28 2.32-3.53 2.32-3.53-.94-.7-6.23-2-7.58-2s-1.78 1.09-1.94 2c-.24 1.45.57 1.64 2.35 2.23s3.94 1.4 4.85 1.3z"/>
      <path class="cls-18" d="M24.59 65.37c2.36-.09 8.18 1 13.07 1 4.18 0 6.61.62 7.48 1.56s3.08 2.86-.48 3.06c-3.81.22-8.33 0-9.64 1.27S33 80.85 33.75 86.73c1.13 8.37 4.86 15.4 8.88 19.17s6.91 4.1 10.21 3.1 4-1.66 4.62-7.43a83 83 0 00.54-8.86l16.29-4.46a35.15 35.15 0 016.63 6.59c2.94 3.92 4.34 5.24 4 9.75s-.08 7.06-2 5S78.49 106 72.66 107c-5.07.91-7.49 1.53-7.87 6.77-.39 5.49-1.78 9-5.29 10.67s-11.56 3.75-15.78 4.4c-3.65.56-11.06-13.2-14.75-21.13-5.04-10.81-4.38-42.34-4.38-42.34z"/>
      <path class="cls-22" d="M24.51 65.91c2.36-.09 8.1 1 13 1 4.18 0 6.49.49 7.63 1.08 1.57.8 2.47 2.67-1.09 2.87-3.81.22-8-.28-9.29.94s-2.33 9.2-1.53 15.05c1.13 8.38 5.22 15.74 9.25 19.51s7.05 4.17 10.34 3.21 4.55-2.17 5.13-7.94.56-8.51.56-8.51l15.63-4.41A30.63 30.63 0 0180.5 95c2.94 3.91 4.43 4.81 4.08 9.33s.13 6.67-1.78 4.6-4.38-3.52-10.21-2.48c-5.07.92-7.94 1.78-8.32 7-.4 5.49-1.57 9-5.07 10.68s-11.24 3.44-14.89 4S32.66 115.67 29 107.74c-5.07-10.84-4.49-41.83-4.49-41.83z"/>
      <path class="cls-18" d="M9.94 100.3c-1.35 1.24-6.07 5.72-7.64 11a40.77 40.77 0 00-1.78 11c0 1.13 2.08 2.16 5.44 3.18 4.26 1.29 7.4 1.41 8.74.58s2.6-10.44 4.63-13.5 5.41-2.93 2-5.08z"/>
      <path class="cls-22" d="M10 100.71c-1.31 1.19-5.81 6.29-7.34 11.41a34.12 34.12 0 00-1.55 10.09c0 1.09 1.78 1.94 5 2.93 4.13 1.25 7.18 1.37 8.47.57s2.52-10.13 4.49-13.09 5.24-2.84 2-4.92S10 100.71 10 100.71z"/>
      <path class="cls-18" d="M18.72 82.29a17.24 17.24 0 01-1.45 8.64c-1.67 4-2.55 6.66-5.2 7.77-2.23.92 0 6.22 3 7.2 3.64 1.19 11 1.2 13-1.26s2.69-6.29 2.73-12.09a64.24 64.24 0 00-1.62-12.74z"/>
      <path class="cls-22" d="M19.06 82.31a18.05 18.05 0 01-1.4 8.63c-1.59 4-2.43 6.67-4.94 7.78-2.12.93 0 6.23 2.8 7.2 3.45 1.18 10.21.6 12.11-1.86s2.82-5.73 2.86-11.52A66.61 66.61 0 0029 79.8z"/>
      <path class="cls-23" d="M17.66 90.94c-1.59 4-2.43 6.67-4.94 7.78-2.12.93 0 6.23 2.8 7.2 3.45 1.18 10.21.6 12.11-1.86s2.82-5.73 2.86-11.52a65.31 65.31 0 00-1.43-12.38 5.25 5.25 0 00-1.21 2.73 17.23 17.23 0 011.32 3.84c.67 2.68.52 4.69.42 7.66s-1.22 6.07-4.5 7.47-6.57 1.36-8.6.07c-1.64-1-2.69-2.12-1.18-3.51s2.3-4.34 3-7.29 2.17-4.78 5.07-5.31c1.37-.25-4.34-3.51-4.34-3.51a18.05 18.05 0 01-1.38 8.63z"/>
      <path class="cls-24" d="M16.69 62c1.78-.41 9.66.42 12.31 3.79 2.85 3.63 3.57 7.72 2.1 13.16-2.35 8.73-10.31 6.92-11.94 6.48S14.91 62.42 16.69 62z"/>
      <path class="cls-22" d="M17 62.17c1.39-.62 9.24.82 11.38 3.6 2.72 3.52 3.81 6.47 2.48 12.33-1.76 7.77-6.66 8.92-11.48 6.63C18 84 15.42 62.89 17 62.17z"/>
      <path class="cls-23" d="M30.9 78.1c1.33-5.86.24-8.81-2.48-12.33-2.14-2.78-10-4.22-11.38-3.6-1.62.72.91 21.86 2.38 22.56a9.47 9.47 0 004.59 1c-.67-.43-.73-.92.39-2.24a13.94 13.94 0 003.32-7.88c.37-4 .45-5.26.14-7.12s.67-1.62 1.25-.84a10.87 10.87 0 011.59 5.22 15.41 15.41 0 01-.7 6.4 23.2 23.2 0 01-2.57 5.22.1.1 0 000 .05c1.5-1.18 2.75-3.25 3.47-6.44z"/>
      <path class="cls-25" d="M14.15 81c-1.32-3.12-1.75-5.23-1.15-12.6.31-4 1.8-6.84 5.31-6.32s8.66.42 8.49 8.18c-.14 6.42-1.61 12.91-4.8 14.6s-6.56-.79-7.85-3.86z"/>
      <path class="cls-26" d="M14.15 81c-1.32-3.12-1.75-5.23-1.15-12.6.31-4 1.8-6.84 5.31-6.32s8.66.42 8.49 8.18c-.14 6.42-1.61 12.91-4.8 14.6s-6.56-.79-7.85-3.86z"/>
      <path class="cls-27" d="M25.6 75.27c0 5.65-2.82 10.06-6.32 9.86s-6.37-5-6.38-10.61 2.81-10.07 6.32-9.87 6.36 4.96 6.38 10.62z"/>
      <path class="cls-28" d="M17.43 75.83c-.3-2.51.59-5 2.05-5.47s3 1.5 3.12 4.26c.14 2.59-.92 4.76-2.3 5s-2.59-1.43-2.87-3.79z"/>
      <path class="cls-29" d="M18.69 64.8c-3.58.55-6.1 5.56-5.63 11.19s3.76 9.76 7.34 9.21S26.5 79.65 26 74s-3.73-9.74-7.31-9.2zm1.47 19.85c-3.2.49-6.14-3.32-6.58-8.51s1.81-9.78 5-10.27 6.14 3.33 6.58 8.51-1.8 9.78-5 10.27z"/>
      <path class="cls-30" d="M15.66 69.06s3.63 1.87 4.55 3.82-.57.08-2.65-.23a7 7 0 00-3.43.46 6.66 6.66 0 01.6-2.75c.63-1.16.93-1.3.93-1.3z"/>
      <path class="cls-31" d="M18.59 65.87c-3.2.49-5.44 5.09-5 10.27s3.38 9 6.58 8.51 5.44-5.08 5-10.27-3.38-8.99-6.58-8.51zM20 84.09c-2.92.45-5.61-3-6-7.77s1.65-8.94 4.57-9.38 5.62 3 6 7.77-1.68 8.94-4.57 9.38z"/>
      <path class="cls-32" d="M18.59 65.87c-3.2.49-5.44 5.09-5 10.27s3.38 9 6.58 8.51 5.44-5.08 5-10.27-3.38-8.99-6.58-8.51zM20 84.09c-2.92.45-5.61-3-6-7.77s1.65-8.94 4.57-9.38 5.62 3 6 7.77-1.68 8.94-4.57 9.38z"/>
      <path class="cls-28" d="M17.14 81.48c-.06-1.13.39-2.09 1-2.14s1.19.9 1.22 2.06-.46 2-1.06 2-1.11-.83-1.16-1.92zM21.5 78.5c-.12-1 .21-2 .74-2s1.07.82 1.16 1.92-.25 1.91-.77 1.92-1.01-.8-1.13-1.84z"/>
      <path class="cls-23" d="M2.66 112.12a34.12 34.12 0 00-1.55 10.09c0 1.09 1.78 1.94 5 2.93 4.13 1.25 7.18 1.37 8.47.57s2.52-10.13 4.49-13.09 5.24-2.84 2-4.92l-.14-.09c-1.12-.18-2.19-.34-3.09-.54-3.94-.88-3.82.77-2.85 2.43 1.3 2.22-.83 4-2 8.25s-3 5.32-5.89 5c-3.1-.31-5.44-2.57-4.61-6.16s2-7.17 3.44-9.28a31 31 0 013.43-4 7.09 7.09 0 001.1-2.32l-.43-.27c-1.34 1.18-5.84 6.28-7.37 11.4zM64.27 113.46c.38-5.24 3.25-6.1 8.32-7 5.83-1 8.29.42 10.21 2.48s1.43-.08 1.78-4.6S83.44 98.9 80.5 95a30.63 30.63 0 00-6.36-6.28l-15.63 4.4s0 2.73-.56 8.51-1.83 7-5.13 7.94-6.32.56-10.34-3.21-8.12-11.13-9.25-19.51c-.8-5.88.22-13.86 1.53-15.08s5.48-.72 9.29-.94c1.88-.11 2.52-.68 2.46-1.32h-.11c-1.35.56-2.48.46-4.78.61S35 71.34 33.76 70s-2.25-2.7-1.76-.75a15.71 15.71 0 01.71 6.67c-.34 2.77-.93 8.66-.35 12.55S35.8 100.8 39 104.78s6.27 6.76 9.65 6.89 7.74-.32 9.47-4.48 2-10.18 3.79-11a65.63 65.63 0 0111-3.45c2.64-.42 4.24-.44 6.43 2.3s4.35 4.39 4.49 7.05.57 6.18-2 4.75-4.63-2.1-8.77-1.41-7.84-.18-9.36 4.84-1.3 9-4.27 10.83-2.84 1.82-6.62 2.65c-2.73.59-6.23 1.73-6.62 4 4-.77 10-2.26 13-3.69 3.51-1.6 4.68-5.06 5.08-10.6z"/>
      <path class="cls-18" d="M29.22 100.92a10 10 0 01-7.93 4c-3.69-.15-6-1-7.47-2.17-1.89-1.48-2-2.57-1.37-3.5.49-.7 2.75-2.12.89-1.83s-4.27 1.44-4.81 3.59a5.11 5.11 0 001.5 5.13 11.65 11.65 0 0013.44 2.3c4.53-2.14 10.32-1.6 11.53-1.31s4.39-.31.55-2.39-5.22-5.83-6.33-3.82z"/>
      <path class="cls-22" d="M29.32 101.35a9.94 9.94 0 01-7.92 3.91c-3.7-.14-6.33-1.05-7.76-2.24-2.29-1.9-2-3-1.35-4 .48-.71 2.41-1.42.56-1.13a5 5 0 00-4.11 3.64c-.37 1.82 0 4.29 1.64 5.6 3 2.35 9.06 2.8 13.74 1a22.62 22.62 0 0110.88-1c1.26.29 5.3.17 1.45-1.92s-6.02-5.87-7.13-3.86z"/>
      <path class="cls-18" d="M19.32 125.71c-.58 1.27-2.72 1-5.87.9-1.3 0 .46-10.69 4.94-15.67 4-4.4 11.2-6 16.13-4.28s7.86 7.54 9.27 11.4 3.17 6.42 5.41 6c3.93-.73 8.08 1.45 2.49 2.92s-11.17 3.72-14 .17-3.06-6.87-7.88-7.4a10.13 10.13 0 00-10.49 5.96z"/>
      <path class="cls-22" d="M19.18 125.22c-.58 1.27-2.27 1.2-5.41 1.08-1.31 0 .63-10 5-15.1S28 105.3 33 106.44c6.4 1.46 9.19 8.8 10.6 12.66s3.32 5.56 5.57 5.29a40.11 40.11 0 015-.69c2.68 0 4.09.85.7 2-5.42 1.78-14.28 4.57-17.09 1s-2.9-6.79-7.73-7.31a10.65 10.65 0 00-10.87 5.83z"/>
      <path class="cls-18" d="M34.39 73.05c.1-.64-2.08-4.67-1.42-3s.82 1.72.76 3.24a21.46 21.46 0 01-.16 2.25z"/>
      <path class="cls-23" d="M18.77 111.2c-4.37 5.08-6.31 15-5 15.1 3.14.12 4.83.19 5.41-1.08a10.65 10.65 0 0110.89-5.85c4.83.52 4.92 3.76 7.73 7.31s11.67.76 17.09-1c3.39-1.11 2-1.94-.7-2a40.11 40.11 0 00-5 .69c-2.25.27-4.15-1.43-5.57-5.29S39.4 107.9 33 106.44a19.43 19.43 0 00-1.95-.34 1.37 1.37 0 00.29.24c2.37 1.36 5 1.46 7.75 5.74s5.14 10.71 4.91 12.33-4.35.91-8.8-5.24c-2.2-3-6.37-3.2-10.47-2-5.06 1.43-6 6.33-8.07 3.3-2.79-4.09 6-12.51 6.11-12.7a16.32 16.32 0 00-4 3.43zM11.79 102.31c.94 1.56 3 2.37 6.64 3.32a11.5 11.5 0 009.2-1.57c1.81-1.38 2.45-2.16 3.62-2.6a.8.8 0 00.16-.08c-.93-.69-1.61-.9-2.09 0a9.94 9.94 0 01-7.92 3.91c-3.7-.14-6.33-1.05-7.76-2.24-2.29-1.9-2-3-1.35-4 .48-.71 2.41-1.42.56-1.13a5 5 0 00-4.11 3.64 7 7 0 000 2.59c.16-.63.26-2.52.9-3.22.91-1.03 1.2-.19 2.15 1.38z"/>
      <path class="cls-30" d="M18.23 113.91c-.93 0-.37-.77.35-1.65a13.48 13.48 0 013.36-3.17c1.12-.71-.56.62-1.63 2-1.31 1.76-1.37 2.85-2.08 2.82z"/>
      <path class="cls-18" d="M46.8 91.65c.51-1 1.88-1.84 5-3.49s11-4.72 13.25-4.73 9.59 2 11.13 3 1 1.84-1.22 3.32a42.07 42.07 0 01-11.63 5c-4.04.87-17.42-1.32-16.53-3.1z"/>
      <path class="cls-33" d="M47.86 91.43c.48-.94 1.76-1.72 4.66-3.27s10.21-4.4 12.35-4.42 8.92 1.86 10.36 2.79 1 1.71-1.12 3.08a39.31 39.31 0 01-10.84 4.71c-3.75.79-16.27-1.22-15.41-2.89z"/>
      <path class="cls-18" d="M58.16 92.87c2.28.43 4.21.49 8.36-.92s6.35-2.32 8.06-3.47.5-2.12 1.5-1.93 2.37.17 1.61 1.89a5 5 0 01-1.45 2 2.39 2.39 0 01.51 1.46c.14 1.33.17 2.46-2.07 3.52s-8.81 3.45-11.53 4.3-4 1.78-5.85 1.17c-1.17-.38-1.33-3.1-1.08-5s1.2-3.16 1.94-3.02z"/>
      <path class="cls-33" d="M58.59 93.35c2.28.44 4.32.09 8.47-1.33s5.86-2.14 7.56-3.29.7-2.12 1.69-1.93 1.75.19 1.08 1.58a6.31 6.31 0 01-1.77 2.17 1.65 1.65 0 01.82 1.4c.14 1.33.38 2.09-1.86 3.15S66 98.57 63.26 99.43s-4.14 1.65-6 1c-1.18-.38-1.26-2.69-1-4.57s1.59-2.65 2.33-2.51z"/>
      <path class="cls-18" d="M76 90.69a7.76 7.76 0 01-1.66 1c-.7.36-1.85.53-.87.17a9.86 9.86 0 002.92-2c.92-1-.39.83-.39.83zM60.76 97.85c.62-2 1.72-4.24-1.1-4.81-4-.81-12.35-3.19-12.86-1.39s.58 6.23 1.73 6.77a38.28 38.28 0 009.73 2.48c1.74.1 2.15-1.9 2.5-3.05z"/>
      <path class="cls-33" d="M60.56 97.82c.59-1.88 1.65-4-1.08-4.59-3.88-.78-11.92-3.07-12.43-1.34s.55 6 1.66 6.48a37.82 37.82 0 009.43 2.37c1.64.12 2.07-1.8 2.42-2.92z"/>
      <path class="cls-34" d="M63.07 98.9c-1.33.52-2.37 1.11-1.78-.51a11.14 11.14 0 00.82-3.67c0-.67.63-.92 2.78-1.48a47.77 47.77 0 006.37-2.42c1.84-.79 2.92-.94 3.71-1.76s.87-1.74 1.53-1.65.79.59.15 1.42a5.87 5.87 0 01-2.54 2.3c-1.6.79-2.6 1.34-1.55 1.37a8.31 8.31 0 002.66-.85c.58-.24 1 0 .74.94S76 94 74.2 94.88s-3.49 1.27-6.45 2.43-3.99 1.31-4.68 1.59zM56.68 100A57.66 57.66 0 0150 98.2a4.07 4.07 0 01-2.31-3.1c-.4-1.57-.39-2.89-.11-3.18s1-.4 3.26 0 3.64.82 5.73 1.28 3.27.44 3.6 1.31a4 4 0 01-.24 3.2c-.58 1.45-.63 2.46-1.54 2.4a16.25 16.25 0 01-1.71-.11zM57.42 91.74a37.94 37.94 0 00-5.13-1.15c-1.54-.12-1.47-1.17.44-1.73A70.44 70.44 0 0059.58 86c1.74-.77 4-2 5-1.89A44.76 44.76 0 0170 85.17a14.86 14.86 0 014 1.4c.64.5 1.62.92-.77 2s-5.67 1.79-8 2.78-3.3 1.34-4.58 1.21a20 20 0 01-3.23-.82z"/>
      <path class="cls-1" d="M60.55 97.93c1 .23 3.88 1.39 3.88 3.41 0 3.26.39 5.92 1.85 7.2s4.92 3.42 10.61 2c6.08-1.54 8.16-5.31 8.31-7.36s-1.08-2.27-1.62-5.76a27.37 27.37 0 01.62-7.51 49.48 49.48 0 012.08-6.29s-11.85 3.79-17 7.35a79.15 79.15 0 00-8.73 6.96z"/>
      <path class="cls-6" d="M60.66 97.78c1 .22 4.23 1.28 4.23 3.26 0 3.19.11 6 1.54 7.26s4.81 3.33 10.38 1.92c6-1.5 7.85-5 8-7s-1.08-2.58-1.61-6a26.29 26.29 0 01.62-7.36 37.87 37.87 0 012.17-6s-11.59 3.75-16.63 7.23a108.43 108.43 0 00-8.7 6.69z"/>
      <path class="cls-2" d="M64.89 101c0 3.19.11 6 1.54 7.26s4.81 3.33 10.38 1.92c6-1.5 7.85-5 8-7s-1.08-2.58-1.61-6a26.29 26.29 0 01.62-7.36A24.07 24.07 0 0185 86.29a5.31 5.31 0 00-1.32 1.56c-.77 1.36-1.15 2.42-1.54 5.53s1.08 7 1.77 8.42-.69 3.33-2.31 4.47-2.84.08-3.92-1.82-3-1.52-4.15-.61-1.31.84-1.77-.22-2.54-1.67-3.85-1.37-1.84 1.59-2 .68 3-3 5.26-5-10.49-.2-10.49-.2c.96.27 4.21 1.33 4.21 3.27z"/>
      <path class="cls-1" d="M66.93 104.37a8.45 8.45 0 00-.84 3.56 2.41 2.41 0 00.34.37 10.05 10.05 0 006.32 2.38c-.17-1.14-.36-2.51-.59-3.65-.88-4.4-4.04-4.7-5.23-2.66z"/>
      <path class="cls-3" d="M67.1 104.5a8.61 8.61 0 00-.78 3.49 2.15 2.15 0 00.32.35 9.07 9.07 0 005.88 2.34c-.16-1.12-.33-2.46-.55-3.58-.82-4.31-3.76-4.6-4.87-2.6z"/>
      <path class="cls-1" d="M72.66 107.26c.12 1.25.44 2.36.57 3.43a14.16 14.16 0 003.58-.47 16.15 16.15 0 001.69-.51 9.68 9.68 0 00-2.07-4.81c-1.92-2.04-4 0-3.77 2.36z"/>
      <path class="cls-3" d="M72.89 107.33c.11 1.23.4 2.31.53 3.36a12.42 12.42 0 003.29-.46 14.31 14.31 0 001.56-.5 9.66 9.66 0 00-1.91-4.73c-1.77-2-3.68 0-3.47 2.33z"/>
      <path class="cls-1" d="M101.85 84.44a3.15 3.15 0 013.05 1.13c1 1 1 2.21 1.68 2.87s1.4.81 1.16.92a5 5 0 01-3.07.41 2.78 2.78 0 01-2.26-1.55c-.41-.58-2.41-.89-3.11-1.22s0-1.07.56-1.55a7.07 7.07 0 011.99-1.01z"/>
      <path class="cls-35" d="M102 84.64a3 3 0 012.82 1c.9.91.93 2.19 1.5 2.8s1.26.7 1 .81a4.45 4.45 0 01-2.76.26 2.57 2.57 0 01-2.08-1.43c-.41-.53-2.23-.82-2.87-1.09s0-1 .52-1.44a6.75 6.75 0 011.87-.91z"/>
      <path class="cls-1" d="M86 85.31c1.23-.4 3.51.08 5.4.77a28.68 28.68 0 006.39 1.54c1.83.16 3.65 0 4.3.38s.45-.71-.84-.83-.71-.94.33-1.78c.59-.46 1.4-1.29.33-1-1.65.37-2.39 1.7-4.45 1.85a4.19 4.19 0 01-3.82-1.6 4.94 4.94 0 01-1.26-2.7z"/>
      <path class="cls-2" d="M86.52 84.72c1.19-.35 2.71.36 4.55 1a31.54 31.54 0 006.38 1.64c1.76.18 3.57.11 4.37.35s.36-.36-.88-.5-.69-1.16.3-1.89c.56-.42 1.37-.89.34-.69-1.58.31-2.16 1.62-4.15 1.72a4.49 4.49 0 01-4.09-1.67 4.41 4.41 0 01-1.26-2.47z"/>
      <path class="cls-6" d="M93 84.63a4 4 0 001 1.14 3.47 3.47 0 001.44.83 3.64 3.64 0 002.39.19 3.2 3.2 0 001-.71 3.9 3.9 0 01-1.28.28 4.49 4.49 0 01-4.09-1.67 5 5 0 01-.44-.55c-.21.11-.22.25-.02.49z"/>
      <path class="cls-1" d="M81.62 16.81a6.89 6.89 0 00-1.44-5c-1.35-1.91-1.82-5 .13-6.15s5.6 0 5.2 2.82-1.84 5.48-1.67 8c.07 1.14-2.22.33-2.22.33z"/>
      <path class="cls-6" d="M82 16.58a7 7 0 00-1.53-4.75c-1.29-1.74-1.86-4.73-.17-6s5-.41 4.76 2.32-1.57 5.54-1.3 8c.12 1.11-1.76.43-1.76.43z"/>
      <path class="cls-1" d="M68.36 12.56C83.74 8 89.49 16.65 89.45 22.31c0 4.19-1.52 12.35.07 15.05a58.54 58.54 0 016.68 19.87c1.62 14.06-1.81 19.85-4.49 26-2.95 6.81-7.91 10.07-14.5 12A44.1 44.1 0 0172 96.86c-9.09 1.53-23.66 1.92-29-7.31-5.06-8.68-4-15.1-3-21.74s5.52-13 8.16-17.36 20.2-37.89 20.2-37.89z"/>
      <path class="cls-6" d="M72.93 11.54C84.25 11 88.3 17 88.68 20.69c.41 4.11-1.28 13.88.27 16.54a47 47 0 016.43 17.2c2.1 14.15.27 19-3.55 27.8-3 6.85-8.42 12.49-17.31 14s-26.07 2.11-31.35-7C39 82 39.3 74.37 40.36 67.81s5.45-12.74 8-17 24.57-39.27 24.57-39.27z"/>
      <path class="cls-1" d="M84.26 18.7a13.41 13.41 0 002.67-5.12c.5-2.57.33-5.73 2.81-7.07s3.89-1.27 5.75 0a5.21 5.21 0 011.92 5.17c-.24 1.64-1 3-4.1 4.74a14.13 14.13 0 00-5.1 4c-.74 1-1.84 1.5-2.67.28s-1.28-2-1.28-2z"/>
      <path class="cls-6" d="M83.76 19a9.61 9.61 0 003.51-5.27c.49-2.57 0-5.38 2.54-6.76 2.34-1.25 3.71-1.57 5.57-.33s2 3.3 1.79 4.93-1.09 3.17-4.17 4.86-4.26 3.05-4.88 4.08c-1.16 1.95-2.12 2.19-2.95 1A15.41 15.41 0 0183.76 19z"/>
      <path class="cls-1" d="M85.79 18.5a34.49 34.49 0 002.44-4.56c.84-2.28 1.78-4.36 3.07-3.18 1.13 1 1.25 3.24-.78 4.89-2.36 1.9-4.27 3.7-4.27 3.7z"/>
      <path class="cls-36" d="M85.9 18.36a28 28 0 002.38-4.23c.8-2.2 1.69-4.37 2.93-3.23 1.09 1 1 3.24-1 4.83-2.27 1.84-3.88 3.46-3.88 3.46z"/>
      <path class="cls-1" d="M86.1 17.14a2.66 2.66 0 011.18 2.75c-.1 1.12-2-.24-2-.24z"/>
      <path class="cls-6" d="M85.87 17a4.07 4.07 0 011.31 3.32c-.1 1.11-2.05-.59-2.05-.59z"/>
      <path class="cls-2" d="M93.93 15a7 7 0 002.71-4.47 6.19 6.19 0 00-1.26-3.84c1.87 1.24 2 3.3 1.79 4.93s-1.09 3.12-4.17 4.81a13.41 13.41 0 00-4.36 3.33 6.24 6.24 0 01.82-1.33A20.15 20.15 0 0193.93 15z"/>
      <path class="cls-37" d="M92.35 7.23c-.66 1-.78-.57-2.68.9a6.43 6.43 0 00-2.12 3.26C87.73 9.6 88 8 89.81 7S92.72 5.65 94 6a3.87 3.87 0 00-1.65 1.23z"/>
      <path class="cls-2" d="M41.44 40.31l-.59.24z"/>
      <path class="cls-1" d="M66.46 19.26s.52-5.17 4.37-8.1c2.53-1.94 5.32-1.88 6.68.65s-2.6 11.63-2.6 11.63z"/>
      <path class="cls-38" d="M67 18.9s.48-4.81 4.06-7.55c2.36-1.8 5-1.74 6.22.61s-2.42 10.83-2.42 10.83z"/>
      <path class="cls-1" d="M74.21 23.94C72.13 21.13 72 16.26 75.3 12.4c3.4-3.57 7.39-3.79 9.44-1.23s.91 7.23-2.45 11c-3.29 4.16-6.01 4.47-8.08 1.77z"/>
      <path class="cls-38" d="M72.84 24.63c-1.93-2.63-1-8 2.19-11.64 3.19-3.38 7.36-3.9 9.25-1.52s.79 6.79-2.37 10.4c-3.12 3.89-7.16 5.28-9.07 2.76z"/>
      <path class="cls-1" d="M81.19 15.61a1.19 1.19 0 011.66.15 1.31 1.31 0 01-2.12 1.47 1.2 1.2 0 01.46-1.62z"/>
      <path class="cls-39" d="M82.32 16.29a.31.31 0 11-.12.45.33.33 0 01.12-.45zM81.16 16.38a.16.16 0 01.23 0 .18.18 0 01-.29.2.17.17 0 01.06-.2z"/>
      <path class="cls-1" d="M72.39 13a.81.81 0 011.16 0 .91.91 0 01-1.33 1.21.85.85 0 01.17-1.21z"/>
      <path class="cls-39" d="M73.23 13.4a.25.25 0 01.33 0 .25.25 0 010 .33.23.23 0 01-.32 0 .24.24 0 01-.01-.33zM72.45 13.57a.11.11 0 01.16 0 .13.13 0 010 .17.12.12 0 01-.16 0 .11.11 0 010-.17z"/>
      <path class="cls-40" d="M47.48 61.22c-4.13-.56-7.84 4.26-8.33 10.81S41.7 84.27 46 84.63s8.13-4.6 8.46-11-2.84-11.86-6.98-12.41z"/>
      <path class="cls-41" d="M47.47 61.42c-4.07-.55-7.71 4.19-8.19 10.63s2.51 12 6.74 12.38 8-4.52 8.32-10.78-2.8-11.65-6.87-12.23z"/>
      <path class="cls-1" d="M29.91 8.5S29-2 35.44 2.43C39.48 5.22 38.26 9 38.26 9s-2.26 2.1-4.71 1.53a7.72 7.72 0 01-3.64-2.03z"/>
      <path class="cls-6" d="M30.32 9.33S28.92-.9 35 2.86a8.61 8.61 0 014.09 6.7s-3.58 2.26-5.88 1.75a4.62 4.62 0 01-2.89-1.98z"/>
      <path class="cls-2" d="M37.41 8.87c-.95 1.38-2.66 1.05-3.78-.2s-1.79-3.39-2.19-1.16a22.17 22.17 0 01-.5-2.74 1.64 1.64 0 012-1.9 2.27 2.27 0 001.48-.37 7.17 7.17 0 01.64.36 8.38 8.38 0 012.54 2.41 3.19 3.19 0 01-.19 3.6z"/>
      <path class="cls-1" d="M33.64 7.89c-1-1.42-1.52-3.34-.89-4s1.81.33 2.83 1.72 1.15 2.69.45 3.22c-.45.34-1.62.17-2.39-.94z"/>
      <path class="cls-42" d="M33.79 7.73c-.88-1.24-1.34-2.91-.81-3.48s1.47.23 2.37 1.44 1 2.3.52 2.88c-.31.36-1.41.11-2.08-.84z"/>
      <path class="cls-43" d="M36.16 7.73c-.31.36-1.4.11-2.07-.84a5.25 5.25 0 01-1-2.71.27.27 0 00-.08.07c-.53.57-.07 2.24.81 3.48.67.95 1.77 1.2 2.08.84a1.27 1.27 0 00.29-.85z"/>
      <path class="cls-44" d="M34.09 6.89c.67 1 1.76 1.2 2.07.84a3.52 3.52 0 00-.81-2c-.85-1.16-1.76-1.94-2.29-1.51a5.25 5.25 0 001.03 2.67z"/>
      <path class="cls-1" d="M31.92 3.64c.68-.73 2.33.33 3.55 2 .13.18.5.71.61.89a6.33 6.33 0 00-.75-1.27c-1.49-1.85-2.86-2.45-3.53-1.72a2.18 2.18 0 00-.18 2c.06.17-.25-1.3.3-1.9z"/>
      <path class="cls-1" d="M76.58 31.63C71.75 35.12 72.06 46 62.25 49.44c-8.37 2.91-19.9 0-26.74-4.56S25.1 34.56 23.84 27.42 24 10.81 34.13 5.59c5.49-2.83 16.81-3.16 26 1 15 6.78 22.83 24 22.83 24z"/>
      <path class="cls-6" d="M75 34c-.25 4.22-.78 12.8-11 15.73-8.28 2.39-20.93-.67-27.58-5.07S25.57 34.53 24.34 27.58s1.08-17.74 11-22c5.52-2.39 15.21-2.66 24.2 1.28 15.61 6.84 24.34 26 24.34 26z"/>
      <path class="cls-45" d="M35.35 5.54c5.52-2.39 15.21-2.66 24.2 1.28a36.17 36.17 0 018.2 5.07l-.09-.06c-5.84-3.62-18.11-7.4-22.08-7.5s-13.36 5.5-12.35 7 5.6 4.62 2.34 5.55-3.57 3.64-2.66 6.85 1.4 14-2.07 12.82c-1.08-.36-2.3-.56-3.47-1a22.83 22.83 0 01-3-8C23.1 20.63 25.42 9.84 35.35 5.54z"/>
      <path class="cls-1" d="M41.77 6.24S44.66-4.4 51 2.11c4.49 4.61 1.76 8.37 1.76 8.37s-3.52 1.57-6.45.1a13.74 13.74 0 01-4.54-4.34z"/>
      <path class="cls-6" d="M41.58 7.63s2.77-11.38 9.17-5.11a9.49 9.49 0 012.88 8.87s-5.27 1.3-8-.06a12.19 12.19 0 01-4.05-3.7z"/>
      <path class="cls-2" d="M51.72 10c-1.66 1.26-3.72.31-4.72-1.47s-1.1-4.39-2.36-2c-.2.38.22-2 .29-3.22s1.58-2.09 3.11-1.46a3.22 3.22 0 002 .09c.23.19.46.39.69.62a10 10 0 012.43 3.57A3.4 3.4 0 0151.72 10z"/>
      <path class="cls-1" d="M47.32 7.66c-.78-1.93-.78-4.23.23-4.77s2.17 1 3 2.88.53 3.39-.53 3.75c-.7.23-2.1-.39-2.7-1.86z"/>
      <path class="cls-42" d="M47.56 7.54c-.69-1.69-.7-3.7.15-4.16s1.79.75 2.5 2.41.52 2.91-.33 3.39c-.51.29-1.8-.36-2.32-1.64z"/>
      <path class="cls-43" d="M50.53 8.34C50 8.63 48.74 8 48.22 6.7a5.65 5.65 0 01-.38-3.37.29.29 0 00-.13 0c-.85.46-.84 2.47-.15 4.16.52 1.28 1.81 1.93 2.32 1.64a1.44 1.44 0 00.67-.85z"/>
      <path class="cls-46" d="M48.22 6.7C48.74 8 50 8.63 50.53 8.34a3.75 3.75 0 00-.34-2.54c-.66-1.59-1.53-2.8-2.35-2.47a5.65 5.65 0 00.38 3.37z"/>
      <path class="cls-1" d="M46.59 2.34c1.1-.58 2.82 1.16 3.79 3.41.1.24.39 1 .47 1.2a7.3 7.3 0 00-.51-1.67c-1.25-2.56-2.77-3.7-3.87-3.12a2.35 2.35 0 00-.89 2.17c.01.23.12-1.51 1.01-1.99z"/>
      <path class="cls-47" d="M29.66 11.26a26.8 26.8 0 00-3.76 10.9 21.24 21.24 0 001 9.19 27.6 27.6 0 01-.9-8.76 33.71 33.71 0 013.66-11.33z"/>
      <path class="cls-47" d="M29.75 15a5.7 5.7 0 00-2-.12 6.05 6.05 0 00-1.76.43 14.65 14.65 0 011.63-.26 13.32 13.32 0 012.13-.05zM28.08 23.24a6 6 0 00-2-.36 6.17 6.17 0 00-1.81.23 14.53 14.53 0 011.66-.11 12.69 12.69 0 012.15.24z"/>
      <path class="cls-48" d="M60.46 19.08a.82.82 0 011.08-.4.81.81 0 01.63.95.84.84 0 01-1.08.4.81.81 0 01-.63-.95zM70.13 20.23a.84.84 0 011.05-.48.82.82 0 01.7.91.83.83 0 01-1 .47.81.81 0 01-.75-.9zM69.29 27.93a.83.83 0 011-.47.8.8 0 01.7.9.92.92 0 01-1.75-.43z"/>
      <path class="cls-6" d="M39.27 44.7l-.2-.23L67.13 39c-2.44.62-6.49 1.59-12.88 2.95S42.54 44 39.27 44.7z"/>
      <path class="cls-18" d="M42.37 67.13a13.2 13.2 0 005-.07c1.42-.25 2-.39 2.31 1a4.63 4.63 0 01-.31 3.42 1.45 1.45 0 01-2.46 0c-.59-1.33-1.27-2.1-2.28-1.67a4 4 0 01-2.19.48c-.44-.1-.73-3.29-.07-3.16z"/>
      <path class="cls-20" d="M42.47 67.39a12.64 12.64 0 004.93-.07c1.42-.26 1.71-.35 2.07 1.05a3 3 0 01-.34 2.75c-.77 1.07-1.43.67-1.75-.06-.59-1.33-1.74-2-2.76-1.59s-1.67 1-2.14.84-.66-3.05-.01-2.92z"/>
      <path class="cls-18" d="M47.37 71.11c-.54-1.2-2.45-3.43-1.62-1.91.54 1 1.15 2 1.15 2z"/>
      <path class="cls-21" d="M45.29 68.83c-.39-.58 0-.68.43-.35A5.68 5.68 0 0147.24 70c.33.58.71 1.36 1.13 1.12a1.73 1.73 0 00.63-1.74c-.08-.83-.15-2.11-.8-1.93a8.59 8.59 0 01-2.36.27c-.76 0-1.75-.17-1.65.19s0 1.29.25 1.24 1.13.08.85-.32z"/>
      <path class="cls-18" d="M35.6 67.19c1-1 5.56-.66 6.9-.38s1.5 1.48 1.5 2.45c0 1.49-.89 1.5-2.76 1.69-6.93.71-5.64-3.76-5.64-3.76z"/>
      <path class="cls-22" d="M33.52 67.35c1-.44 7.54-.58 8.78-.33s1.42 1.35 1.38 2.24c0 1.37-.83 1.38-2.56 1.55-6.44.65-7.6-3.46-7.6-3.46z"/>
      <path class="cls-18" d="M38.43 60.48c-.64-1.5-1.21-2.27.39-2.94a15.72 15.72 0 015.65-.94c1.11.1 2 0 1.75 1.87s-.11 2.77-2.06 3.15-4.67.52-4.92.21a6.19 6.19 0 01-.81-1.35z"/>
      <path class="cls-22" d="M38.57 60.43c-.61-1.43-1.16-2.17.37-2.82a15.13 15.13 0 015.42-.9c1.08.1 1.94 0 1.69 1.79s-.1 2.66-2 3-4.49.5-4.72.2a5.34 5.34 0 01-.76-1.27z"/>
      <path class="cls-23" d="M39.41 61.16c-.28-.49-.58-1-.79-1.49-.33-.75-.58-1.22.24-1.65a9.24 9.24 0 013-.9 8.86 8.86 0 012.79-.12c.72.14.92.12 1 1.42s-.11 2-.76 2.35a10.65 10.65 0 01-2.94.56c-1.18.16-2.25.34-2.54-.17z"/>
      <path class="cls-18" d="M37.17 67.19a11.87 11.87 0 002.08-3.44c.75-2 .92-2.73.29-3.88-.51-.93.48-1.74 1.71-1.71s2.37.76.6 2a5.53 5.53 0 00-1.62 5.24 7.71 7.71 0 001.16 2.32s-.36.66-1.88.78a2.7 2.7 0 01-2.34-1.31z"/>
      <path class="cls-22" d="M37 67.47a9 9 0 002.35-3.4c.71-2 1-3 .44-4.16-.49-.93.33-1.65 1.49-1.63s1.94.66.49 1.82a5.64 5.64 0 00-1.66 5.41A5.45 5.45 0 0041.57 68a2.72 2.72 0 01-2 .91A3.51 3.51 0 0137 67.47z"/>
      <path class="cls-22" d="M39.75 65.52a5.81 5.81 0 01.25-2.94 11 11 0 011.1-2.28c.42-.66.84-1.46.14-1.6s-1.43.12-1.37.68.36.85.25 1.55a1.6 1.6 0 010 .21A10.07 10.07 0 0137 67.47a3.51 3.51 0 002.59 1.44 2.72 2.72 0 002-.91 2.76 2.76 0 01-.35-.36 3.14 3.14 0 01-1.49-2.12z"/>
      <path class="cls-23" d="M41.75 60.1c1.45-1.16.71-1.79-.49-1.82s-2 .7-1.49 1.63a2.6 2.6 0 01.3 1.23 1.6 1.6 0 000-.21c.11-.7-.19-1-.25-1.55s.68-.82 1.37-.68.28.94-.14 1.6A11 11 0 0040 62.58a5.81 5.81 0 00-.25 2.94 3.14 3.14 0 001.47 2.12 6 6 0 01-1.13-2.13 5.64 5.64 0 011.66-5.41z"/>
      <path class="cls-1" d="M57.67 78c1.41-.22 7.83-2.25 10.3-2.48 2.88-.27 5.42 1.42 5.52.79a16.17 16.17 0 00-.86-9.15c-2.08-5.56-5-11.71-5.95-10.68-3.42 3.57-6.68 5.52-7.56 5.63-1.24.22-1.45 15.89-1.45 15.89z"/>
      <path class="cls-6" d="M58.07 77.57c1.37-.21 7.62-2.2 10-2.43 2.8-.27 6.28 2.19 6.37 1.57.62-4.1.69-7.81-.27-10.41-2-5.4-7.41-13.17-7.61-11.8-.86 5.73-7.15 7.8-8.36 7.94s-.13 15.13-.13 15.13z"/>
      <path class="cls-1" d="M47.38 75.52A6.68 6.68 0 0053 78.84a18.58 18.58 0 0012.68-5c1.67-1.66-.4-9.12-1.63-11.08-1.75-2.8-5.16-3.71-8-3.74-4.45 0-5.93 1.47-6.72 2.15s-2.52 4.22-2.79 8.29.24 5.11.84 6.06z"/>
      <path class="cls-6" d="M47.48 75.32a7 7 0 005.83 3.3 24.22 24.22 0 0010.92-3.43c.93-.61 2.57-1 3.16-1.77 1.46-1.85.27-7.27-1.16-9.08a13.25 13.25 0 00-9.69-5.12c-3.81 0-5.37.8-6.16 1.48a16.23 16.23 0 00-3.76 8.77c-.28 4.06.26 4.9.86 5.85z"/>
      <path class="cls-2" d="M62.71 76c-1.29.43-3.53 1.25-4.85.66s-.3-2.58.71-5.36a9.5 9.5 0 00-.35-6.94c-.67-1.46-.6-3.06 0-3.75.3-.35.09-.81-.36-1.22a10.59 10.59 0 00-1.33-.12c-3.81 0-5.37.8-6.16 1.48a16.23 16.23 0 00-3.76 8.77c-.28 4.06.26 4.9.86 5.85a7 7 0 005.83 3.3 24.52 24.52 0 009.76-2.75 1.48 1.48 0 00-.35.08z"/>
      <path class="cls-1" d="M51.2 60.33c1.85-1.17 5.15-1.46 6.14-.32.79.9-1.69 1.81-2.64 2.09-1.62.48-3.5-1.77-3.5-1.77z"/>
      <path class="cls-3" d="M51.53 60.42c1.75-1.1 4.84-1.33 5.69-.38s-1.66 1.54-2.55 1.81c-1.54.45-3.14-1.43-3.14-1.43z"/>
      <path class="cls-1" d="M58.11 68.71c.64-5.24-2-9.85-5.84-9.1s-5.6 4.31-6.13 9.19 1.44 9.12 5.2 9.14 5.97-2.63 6.77-9.23z"/>
      <path class="cls-4" d="M57.86 68.72c.62-5.13-2-9.64-5.66-8.91s-5.42 4.21-5.93 9 1.39 8.93 5 9 5.81-2.63 6.59-9.09z"/>
      <path class="cls-5" d="M56.69 69.14a24.44 24.44 0 00-.13-4.85c-.43-2.18-2.34-3.92-3.55-4a4.66 4.66 0 00-4.43 2.5c-1.36 2.28-2 6.82-2 7.81s.83 1.72 1.85.07c.81-1.32 3.47-.71 3.94 2s2.33 2.47 3 1.28a13.25 13.25 0 001.32-4.81z"/>
      <path class="cls-49" d="M51.56 43.8s5.89 6 7.59 6.76 3.35 1.06 4.57-.19 2.94-2.63 3-5.89-.08-5.48-.08-5.48a11 11 0 01-4 4.06 13.22 13.22 0 01-6.77 1.65 27 27 0 01-4.31-.91z"/>
      <path class="cls-30" d="M54 46.7a13.07 13.07 0 007.36-.53c1.3-.5 2-2.12 2.35-3.52a11.14 11.14 0 01-6.37 2.21 13 13 0 01-6.22-1.35c.64 1.37 1.64 2.92 2.88 3.19z"/>
      <path class="cls-1" d="M67.65 35.67l-.19.06c-.42 2-2.13 7.07-8.91 8.6a12.79 12.79 0 01-7.88-1.2l-.07-.06c-.51-.24-1-.47-1.34-.69a12.87 12.87 0 001.41 1c.25.83 1.09 3.09 3.06 3.52l.77.14c1 .91 3.28 2.91 4.57 3.9s6.53 1.46 7.65-3.9a22.32 22.32 0 00.29-8.3 8.06 8.06 0 00.64-3.07zm-16.09 8.18a11.19 11.19 0 007.74.94 13.56 13.56 0 004-1.63c-.37 1.22-1 2.52-2.12 2.94a12.49 12.49 0 01-7 .51c-1.11-.24-2.01-1.54-2.62-2.76zM66.26 46a5.22 5.22 0 01-7.74 3.89c-1.15-.89-2.35-1.89-3.29-2.75a14.14 14.14 0 006.39-.81c2-.76 2.73-3.1 3-4.15a9.07 9.07 0 002-2.47 17.26 17.26 0 01-.36 6.29z"/>
      <path class="cls-50" d="M62.7 49.8a1 1 0 01-1.29.58c-1-.29-.55-1 .18-1.89s2.7-1.19 4.25-.75a6.59 6.59 0 001.41.37s.38-.65.9-.73a4.62 4.62 0 013.36 1.53c.82 1.16 1.84 2.54 1.12 4.79s-2.44 4.13-4.45 4.2-3.94-1.1-4.33-2 .19-1.94.33-3.34a3.09 3.09 0 00-1.48-2.76z"/>
      <path d="M71 48.05c-2.69-1.85-4-.23-4-.23s-3-.84-4.65-.11c-2 .84-2 2.82-1.18 2.93a1.62 1.62 0 001.53-.56s2.11.79.77 4.26c-1.21 3.15 4.89 5.15 7.41 2.95 3.12-2.71 2.73-7.38.12-9.24zm-.47 8.69c-2.26 2-7.45.09-6.41-2.72.7-1.91.2-3-.36-3.65a2.27 2.27 0 00-1.37-.85c-.49-.09-.24.09.09.29-.41.16-.47.54-1 .46-.7-.1-.35-1.42 1.09-2.2 1.28-.69 4 0 4.52.18a2.6 2.6 0 01.77.58c.27.37.7 1 .39.17a2 2 0 00-.69-1c.49-.3 1.47-.55 3 .54 2.34 1.61 2.73 5.78-.07 8.2z"/>
      <path class="cls-51" d="M58.94 115.24s-.24-.21-.6-.58-.84-.86-1.32-1.43a8 8 0 01-2-3.41 21.29 21.29 0 01.11-5c.24-1.76-.73-1.84-1 .07a22.22 22.22 0 00-.09 5c.14 1.28 1.21 2.71 2.22 3.9a28.56 28.56 0 002 2.1z"/>
      <path class="cls-52" d="M57.62 112.19a5.4 5.4 0 011.51.59 3.79 3.79 0 00-.68-.17 3 3 0 00-2.5 2.66 2.31 2.31 0 001 2.56l-.87-.38a2.38 2.38 0 01-1-2.61c.23-1.49 1.42-2.69 2.54-2.65z"/>
      <path class="cls-53" d="M58.5 112.63a2.89 2.89 0 00-2.5 2.64c-.24 1.48.52 2.7 1.68 2.73a2.89 2.89 0 002.52-2.64c.21-1.48-.54-2.7-1.7-2.73z"/>
      <path class="cls-1" d="M54.24 103.47a2.5 2.5 0 011.82-.33 3.34 3.34 0 011.22.28 4.41 4.41 0 011.11.13 1.06 1.06 0 01.46.27 3.1 3.1 0 01.91.12c.34.13.4.3.4.3a3.06 3.06 0 011.08.27.85.85 0 01.32.35 5 5 0 011.23.47c.14.07 1.87 1-.69 1.63a5.76 5.76 0 01-3.24-.34s-.74-.05-1-.1a2.5 2.5 0 01-.65-.3 8.8 8.8 0 01-1-.21 2.91 2.91 0 01-.63-.34 1 1 0 00-.31-.11 2.81 2.81 0 01-1.09-.38 1.19 1.19 0 01-.27-1.17 1 1 0 01.33-.54z"/>
      <path class="cls-54" d="M60.81 105.27a3.29 3.29 0 01.78-.4 9 9 0 011 .37c.37.2 2 1.08-.51 1.72a4.92 4.92 0 01-2 0 1.21 1.21 0 01-.11-.3c.03-.48.24-.93.84-1.39z"/>
      <path class="cls-55" d="M59.6 104.6a3.74 3.74 0 01.63-.35 3.49 3.49 0 011 .26.6.6 0 01.28.34 2.83 2.83 0 00-.75.4c-.6.46-.87.91-.78 1.41a.86.86 0 00.11.29 5.77 5.77 0 01-1.26-.36 1.44 1.44 0 01-.22-.65c0-.48.32-.94.99-1.34z"/>
      <path class="cls-56" d="M57.92 104.17a6.57 6.57 0 01.85-.36 3.71 3.71 0 011 .13c.34.13.41.31.41.31a3.69 3.69 0 00-.6.31c-.66.46-1 .92-1 1.4a1.37 1.37 0 00.2.62 9.94 9.94 0 01-1-.1 1.74 1.74 0 01-.64-.3 1.47 1.47 0 01-.21-.65c-.01-.48.32-.92.99-1.36z"/>
      <path class="cls-57" d="M53.84 104.15a1.23 1.23 0 01.42-.7 2.49 2.49 0 011.8-.31 2.91 2.91 0 011.17.28 3.21 3.21 0 00-.48.17c-.87.42-1.2.84-1.31 1.32a1.54 1.54 0 000 .71l-.24-.06a2.81 2.81 0 01-1.09-.38 1.18 1.18 0 01-.27-1.03z"/>
      <path class="cls-58" d="M55.5 105c.11-.47.34-.85 1.14-1.26a5.07 5.07 0 01.7-.28 3.64 3.64 0 011 .11 1.3 1.3 0 01.42.23 3.51 3.51 0 00-.94.35c-.67.44-1 .91-1 1.39a1.48 1.48 0 00.19.65 6.47 6.47 0 01-.81-.15 1.78 1.78 0 01-.75-.38 1.33 1.33 0 01.05-.66z"/>
      <path class="cls-59" d="M25.81 95.06c0 .14.1 2.44-1.64 3.18s-2.37.07-2.53-1.14a2.23 2.23 0 011.7-2.4 16.53 16.53 0 012.34-.58z"/>
      <path class="cls-60" d="M25.58 95.19c0 .12.08 2.17-1.46 2.83s-2.11.06-2.26-1a2.09 2.09 0 011.55-2.19c1.19-.38 1.92-.53 1.92-.53z"/>
      <path class="cls-61" d="M22.24 97.65c.31.37.62.36 1.53.16S25 96.35 25.07 96s-.58 0-1.5.54-.69-.14-.23-.64a3.38 3.38 0 00.66-1.26l-.56.17A2.09 2.09 0 0021.86 97a3 3 0 00.38.65z"/>
      <path class="cls-62" d="M24.06 98.08c1.55-.66 1.54-2.78 1.52-2.91l-.25-.91s-2.09.51-2.95.76c-.14.5 1.25.58 1 .9-.46.49-.68 1.16.23.63s1-.1.92.22.2.82-.72 1-1.16.12-1.54-.17a1.29 1.29 0 01-.37-.69c.1 1.09.61 1.83 2.16 1.17z"/>
      <path class="cls-59" d="M25.19 94.86a2.66 2.66 0 00-1.25.88c-.34.38-.83 1-.37.32a5.74 5.74 0 011.28-1.32zM24 93.92a2.49 2.49 0 01-.23-2.09 2 2 0 011.54-1.42 1.78 1.78 0 011.75.82 2 2 0 01-.25 2.17c-.59.93-1.28 1.25-1.88 1.12a1.39 1.39 0 01-.93-.6z"/>
      <path class="cls-61" d="M24.09 93.83a2.32 2.32 0 01-.21-2 1.83 1.83 0 011.45-1.33 1.68 1.68 0 011.67.8 1.92 1.92 0 01-.24 2c-.56.88-1.21 1.18-1.77 1.06a1.36 1.36 0 01-.9-.53z"/>
      <path class="cls-62" d="M24.09 93.83a1.36 1.36 0 00.88.58c.56.12 1.21-.18 1.77-1.06a1.94 1.94 0 00.32-1.87.91.91 0 01-.27.48 7.62 7.62 0 00-1 1c-.15.24-.2-.09-.1-.43s.41-1.18.05-.72-.44.88-.69 1.09-.83.25-1-.05a1.3 1.3 0 01-.18-1v-.09a2.32 2.32 0 00.22 2.07z"/>
      <path class="cls-59" d="M25.8 94.63a3.13 3.13 0 011.71-.13 2 2 0 011.42 2.56 2.2 2.2 0 01-1.74 1.31 2.18 2.18 0 01-2.2-1 2.07 2.07 0 01-.26-1.85c.09-.42.72-.72 1.07-.89z"/>
      <path class="cls-61" d="M25.87 94.74a2.93 2.93 0 011.67-.14 1.94 1.94 0 011.28 2.34 2.18 2.18 0 01-1.65 1.31 2 2 0 01-2.06-.94 2 2 0 01-.25-1.74c.08-.39.68-.67 1.01-.83z"/>
      <path class="cls-62" d="M25.87 94.74c-.33.16-.93.44-1 .83a2 2 0 00.25 1.74 2 2 0 002.06.94 2.18 2.18 0 001.65-1.31 1.66 1.66 0 00-.13-1.34 2 2 0 01-.05 1.45 1.9 1.9 0 01-1.29.84 1.67 1.67 0 01-1.59-.42 1.21 1.21 0 01-.26-1.13c.15-.34.24-.85.76-.43s1.46 1.37 1.3.73a2.35 2.35 0 00-.68-1.33c-.32-.26-.25-.6-.13-.65a2.3 2.3 0 01.5-.1 2.7 2.7 0 00-1.39.18z"/>
      <path class="cls-59" d="M25.59 95.09a2.17 2.17 0 011 .58c.31.29.73.94.43.41a2 2 0 00-.55-.72 2.62 2.62 0 00-.63-.39zM25.85 93.82A3.42 3.42 0 0127 92.09a2.12 2.12 0 012.52 0 1.66 1.66 0 01.24 2.13 2.78 2.78 0 01-2.31 1 4.56 4.56 0 01-1.24-.29.91.91 0 01-.36-1.11z"/>
      <path class="cls-61" d="M26 93.75a3.14 3.14 0 011-1.59 2 2 0 012.35 0 1.52 1.52 0 01.22 2 2.61 2.61 0 01-2.15.94 8 8 0 01-1.12-.17c-.41-.16-.41-.99-.3-1.18z"/>
      <path class="cls-62" d="M26 93.75c-.12.19-.12 1 .35 1.14a8 8 0 001.12.17 2.61 2.61 0 002.15-.94 1.52 1.52 0 00-.14-1.88 2.28 2.28 0 01-.18 1.6 1.55 1.55 0 01-1.34.7c-.41-.05-1.08-.07-.72-.36s1.41-1.11.74-1-1.37.34-1.38 0a1.77 1.77 0 01.45-1A3.14 3.14 0 0026 93.75z"/>
      <path class="cls-59" d="M26.48 94.44c.35-.47 1.5-1 1-.88a3.14 3.14 0 00-1.26.73z"/>
      <path class="cls-61" d="M26.61 93.19c0 .35.71.14 1.38 0s-.37.69-.74 1 .31.31.72.36a1.55 1.55 0 001.34-.7 2.28 2.28 0 00.18-1.6.3.3 0 00-.08-.08 2 2 0 00-2.35 0 1.77 1.77 0 00-.45 1.02z"/>
      <path class="cls-59" d="M24.68 94.91c-1.21.27-2.7.89-3.43.32a2 2 0 01-.38-2.48 2.11 2.11 0 012.29-.46 5.39 5.39 0 011.37 1.21z"/>
      <path class="cls-61" d="M24.53 94.8c-1.12.25-2.5.83-3.18.3a1.79 1.79 0 01-.35-2.28 2 2 0 012.14-.43 5.15 5.15 0 011.26 1.11z"/>
      <path class="cls-62" d="M21.35 95.1c.68.53 2.06 0 3.18-.3l-.13-1.3a6.13 6.13 0 00-1-.94 1.35 1.35 0 01.25.72c0 .32-.19.42-1 .49-.46 0-.65 1.38-1 1.22a1.49 1.49 0 01-.81-1 2 2 0 01.05-1.07 1.81 1.81 0 00.46 2.18z"/>
      <path class="cls-59" d="M25.41 93.77a5 5 0 01.07-.93c.08-.37.38-.93.08-.37a3.09 3.09 0 00-.35 1.06z"/>
      <path class="cls-59" d="M23.66 93.81a1.37 1.37 0 011.63-1.2 1.6 1.6 0 011.44 1.6 1.37 1.37 0 01-1.63 1.21 1.6 1.6 0 01-1.44-1.61z"/>
      <path class="cls-63" d="M23.82 93.76a1.24 1.24 0 011.49-1.05 1.44 1.44 0 011.33 1.41 1.24 1.24 0 01-1.5 1 1.43 1.43 0 01-1.32-1.36z"/>
      <path class="cls-64" d="M23.82 93.76a1.43 1.43 0 001.32 1.41 1.24 1.24 0 001.5-1 1.22 1.22 0 00-.3-.85c.14.53.12 1.08-.21 1.27a1.94 1.94 0 01-1.78-.11 1.12 1.12 0 010-1.51 1.07 1.07 0 00-.53.79z"/>
      <path class="cls-59" d="M23.66 94.16a1.52 1.52 0 00-.54-.16c-.35-.06-.71 0-.35-.06a1.51 1.51 0 01.7 0h.23zM8.73 117.23c0 .15.1 2.44-1.64 3.19s-2.36.06-2.53-1.14a2.27 2.27 0 011.7-2.41 18.76 18.76 0 012.35-.58z"/>
      <path class="cls-60" d="M8.5 117.36c0 .13.09 2.17-1.46 2.83s-2.1.06-2.25-1A2.09 2.09 0 016.33 117a18.93 18.93 0 011.93-.52z"/>
      <path class="cls-61" d="M5.16 119.82c.31.37.62.37 1.54.17s1.3-1.46 1.3-1.78-.58 0-1.49.54-.7-.14-.23-.64a3.28 3.28 0 00.62-1.3l-.56.17a2.09 2.09 0 00-1.54 2.15 3 3 0 00.36.69z"/>
      <path class="cls-62" d="M7 120.26c1.55-.66 1.54-2.79 1.52-2.92l-.24-.9s-2.09.51-2.95.76c-.15.49 1.24.58 1 .89-.46.5-.68 1.17.24.64s1-.11.92.21.19.83-.72 1-1.16.13-1.54-.16a1.42 1.42 0 01-.38-.69c.02 1.11.59 1.83 2.15 1.17z"/>
      <path class="cls-59" d="M8.11 117a2.72 2.72 0 00-1.24.88c-.34.39-.84 1-.37.32a5.65 5.65 0 011.27-1.31zM6.94 116.09a2.45 2.45 0 01-.23-2.09 2 2 0 011.54-1.41 1.8 1.8 0 011.75.81 2 2 0 01-.26 2.17c-.59.94-1.28 1.26-1.87 1.13a1.33 1.33 0 01-.93-.61z"/>
      <path class="cls-61" d="M7 116a2.33 2.33 0 01-.22-2 1.88 1.88 0 011.45-1.34 1.74 1.74 0 011.66.77 1.92 1.92 0 01-.25 2c-.55.88-1.2 1.19-1.76 1.06A1.27 1.27 0 017 116z"/>
      <path class="cls-62" d="M7 116a1.27 1.27 0 00.88.57c.56.13 1.21-.18 1.76-1.06a1.94 1.94 0 00.32-1.87.9.9 0 01-.27.49 8.36 8.36 0 00-1 1c-.14.24-.2-.1-.1-.43s.41-1.19 0-.72-.43.87-.68 1.09-.84.24-1 0a1.28 1.28 0 01-.19-1v-.08c0-.08 0 0 0 0A2.33 2.33 0 007 116z"/>
      <path class="cls-59" d="M8.73 116.81a3 3 0 011.71-.14 2 2 0 011.42 2.57 2.2 2.2 0 01-1.74 1.31 2.16 2.16 0 01-2.2-1 2 2 0 01-.26-1.85c.08-.43.72-.7 1.07-.89z"/>
      <path class="cls-61" d="M8.79 116.92a2.91 2.91 0 011.68-.15 1.94 1.94 0 011.28 2.34 2.21 2.21 0 01-1.66 1.32 2 2 0 01-2.06-1 1.89 1.89 0 01-.24-1.73c.08-.34.67-.62 1-.78z"/>
      <path class="cls-62" d="M8.79 116.92c-.33.16-.92.44-1 .83a1.89 1.89 0 00.21 1.73 2 2 0 002.06 1 2.21 2.21 0 001.66-1.32 1.68 1.68 0 00-.13-1.33 2.11 2.11 0 010 1.45 1.91 1.91 0 01-1.3.83 1.68 1.68 0 01-1.58-.41 1.21 1.21 0 01-.26-1.14c.15-.34.23-.85.76-.42s1.46 1.36 1.3.73a2.38 2.38 0 00-.68-1.33c-.33-.26-.26-.61-.14-.66s.28-.06.51-.1a2.79 2.79 0 00-1.41.14z"/>
      <path class="cls-59" d="M8.52 117.27a2.21 2.21 0 011 .58c.31.29.72.93.42.41a1.93 1.93 0 00-.55-.72 2.48 2.48 0 00-.63-.4zM8.77 116a3.39 3.39 0 011.14-1.72 2.12 2.12 0 012.52 0 1.65 1.65 0 01.23 2.12 2.75 2.75 0 01-2.3 1 5 5 0 01-1.24-.29.94.94 0 01-.35-1.11z"/>
      <path class="cls-61" d="M8.94 115.93a3.19 3.19 0 011.05-1.6 2 2 0 012.35 0 1.54 1.54 0 01.22 2 2.6 2.6 0 01-2.15.93 8.26 8.26 0 01-1.13-.17c-.47-.15-.46-.98-.34-1.16z"/>
      <path class="cls-62" d="M8.94 115.93c-.12.18-.13 1 .34 1.13a8.26 8.26 0 001.13.17 2.6 2.6 0 002.15-.93 1.54 1.54 0 00-.14-1.89 2.39 2.39 0 01-.18 1.6 1.56 1.56 0 01-1.35.71c-.4-.06-1.08-.07-.71-.36s1.41-1.11.73-1-1.37.33-1.38 0a1.75 1.75 0 01.46-1 3.19 3.19 0 00-1.05 1.57z"/>
      <path class="cls-59" d="M9.41 116.61c.35-.46 1.5-1 1-.88a3.38 3.38 0 00-1.27.73z"/>
      <path class="cls-61" d="M9.53 115.37c0 .34.71.13 1.38 0s-.37.69-.73 1 .31.3.71.36a1.56 1.56 0 001.35-.71 2.39 2.39 0 00.18-1.6.3.3 0 01-.08-.08 2 2 0 00-2.35 0 1.75 1.75 0 00-.46 1.03z"/>
      <path class="cls-59" d="M7.6 117.08c-1.2.27-2.69.89-3.43.32a2 2 0 01-.37-2.47 2.13 2.13 0 012.29-.47 5.81 5.81 0 011.37 1.21z"/>
      <path class="cls-61" d="M7.46 117c-1.12.25-2.51.82-3.19.3a1.8 1.8 0 01-.35-2.3 2 2 0 012.13-.43 5.27 5.27 0 011.28 1.11z"/>
      <path class="cls-62" d="M4.27 117.28c.68.52 2.07 0 3.19-.3l-.13-1.3a6.27 6.27 0 00-1-1 1.22 1.22 0 01.25.72c0 .33-.19.42-1 .49-.45 0-.65 1.39-1 1.23a1.5 1.5 0 01-.8-1 2 2 0 010-1.06 1.81 1.81 0 00.49 2.22z"/>
      <path class="cls-59" d="M8.34 116a3.83 3.83 0 01.07-.94c.08-.37.38-.92.08-.37a3.17 3.17 0 00-.35 1.07z"/>
      <path class="cls-59" d="M6.58 116a1.38 1.38 0 011.64-1.2 1.6 1.6 0 011.44 1.6A1.39 1.39 0 018 117.59 1.61 1.61 0 016.58 116z"/>
      <path class="cls-63" d="M6.74 115.93a1.25 1.25 0 011.5-1.05 1.44 1.44 0 011.32 1.42 1.25 1.25 0 01-1.49 1 1.45 1.45 0 01-1.33-1.37z"/>
      <path class="cls-64" d="M6.74 115.93a1.45 1.45 0 001.33 1.42 1.18 1.18 0 001.2-1.91c.13.53.11 1.08-.21 1.27a1.93 1.93 0 01-1.79-.11 1.11 1.11 0 010-1.5 1.11 1.11 0 00-.53.83z"/>
      <path class="cls-59" d="M6.59 116.34a1.39 1.39 0 00-.54-.17h-.36a1.68 1.68 0 01.7 0h.24zM33.22 112.5c-.14.06-2.34.7-3.5-.8s-.65-2.28.48-2.73A2.23 2.23 0 0133 110a16.14 16.14 0 011.14 2.12z"/>
      <path class="cls-60" d="M33 112.3c-.11.06-2.08.63-3.1-.71s-.58-2 .42-2.43a2.08 2.08 0 012.51 1c.66 1.06 1 1.73 1 1.73z"/>
      <path class="cls-61" d="M29.82 109.68c-.28.4-.2.7.22 1.53s1.73.85 2.05.81-.16-.56-.9-1.31 0-.71.56-.39a3.3 3.3 0 001.42.29l-.31-.5a2.1 2.1 0 00-2.47-1 3.84 3.84 0 00-.57.57z"/>
      <path class="cls-62" d="M29.85 111.56c1 1.33 3.08.79 3.2.74l.82-.46s-1-1.9-1.47-2.67c-.52 0-.25 1.35-.63 1.15-.6-.33-1.3-.37-.56.38s.34.9 0 .94-.75.4-1.17-.43-.41-1.1-.23-1.53a1.27 1.27 0 01.58-.54h-.05c-.96.35-1.51 1.08-.49 2.42z"/>
      <path class="cls-59" d="M33.26 111.85a2.62 2.62 0 00-1.17-1c-.46-.23-1.19-.56-.4-.28a5.76 5.76 0 011.59.91zM33.87 110.47a2.5 2.5 0 012-.74 2 2 0 011.75 1.14 1.8 1.8 0 01-.35 1.9 2 2 0 01-2.17.29c-1-.34-1.53-.93-1.55-1.53a1.4 1.4 0 01.32-1.06z"/>
      <path class="cls-61" d="M34 110.53a2.35 2.35 0 011.86-.7 1.85 1.85 0 011.65 1.07 1.71 1.71 0 01-.33 1.8 1.91 1.91 0 01-2 .27c-1-.32-1.45-.88-1.47-1.45a1.29 1.29 0 01.29-.99z"/>
      <path class="cls-62" d="M34 110.53a1.29 1.29 0 00-.33 1c0 .57.47 1.13 1.47 1.45a1.93 1.93 0 001.88-.16.82.82 0 01-.53-.14 8.19 8.19 0 00-1.24-.67c-.27-.08 0-.22.39-.2s1.25.1.71-.13-1-.21-1.22-.4-.45-.75-.21-1a1.32 1.32 0 01.9-.42h.08a2.35 2.35 0 00-1.9.67z"/>
      <path class="cls-59" d="M33.62 112.38a3 3 0 01.56 1.62 2 2 0 01-2.13 2 2.25 2.25 0 01-1.28-3.74 2 2 0 011.73-.71c.43 0 .87.54 1.12.83z"/>
      <path class="cls-61" d="M33.53 112.47a2.93 2.93 0 01.57 1.59 1.94 1.94 0 01-2 1.82 2.2 2.2 0 01-1.69-1.27 2 2 0 01.4-2.23 1.91 1.91 0 011.62-.67c.45-.02.87.48 1.1.76z"/>
      <path class="cls-62" d="M33.53 112.47c-.23-.28-.65-.78-1.05-.76a1.91 1.91 0 00-1.62.67 2 2 0 00-.4 2.23 2.2 2.2 0 001.69 1.27 1.68 1.68 0 001.26-.45 2.13 2.13 0 01-1.42.31 1.89 1.89 0 01-1.13-1 1.7 1.7 0 010-1.64 1.22 1.22 0 011-.53c.37.06.88 0 .6.63s-1 1.75-.38 1.44a2.34 2.34 0 001.11-1c.18-.38.53-.4.61-.3a3.76 3.76 0 01.22.47 2.72 2.72 0 00-.49-1.34z"/>
      <path class="cls-59" d="M33.13 112.29a2.23 2.23 0 01-.32 1.12c-.2.37-.72.93-.29.51a1.9 1.9 0 00.57-.71 2.57 2.57 0 00.22-.71zM34.43 112.23a3.42 3.42 0 012 .66 2.13 2.13 0 01.63 2.45 1.66 1.66 0 01-2 .75 2.76 2.76 0 01-1.55-2 4.47 4.47 0 010-1.28.9.9 0 01.92-.58z"/>
      <path class="cls-61" d="M34.53 112.37a3.14 3.14 0 011.81.62 2 2 0 01.58 2.27 1.54 1.54 0 01-1.85.71 2.62 2.62 0 01-1.44-1.85 8.33 8.33 0 01-.11-1.13c0-.49.8-.69 1.01-.62z"/>
      <path class="cls-62" d="M34.53 112.37c-.21-.07-1 .13-1 .62a8.33 8.33 0 00.11 1.13 2.62 2.62 0 001.43 1.88 1.53 1.53 0 001.79-.61 2.3 2.3 0 01-1.59.22 1.57 1.57 0 01-1-1.12c0-.41-.2-1.07.17-.78s1.43 1.08 1.14.46-.67-1.24-.34-1.33a1.71 1.71 0 011.12.18 3.14 3.14 0 00-1.83-.65z"/>
      <path class="cls-59" d="M34 113c.54.23 1.38 1.2 1.11.78a3.33 3.33 0 00-1-1z"/>
      <path class="cls-61" d="M35.22 112.81c-.33.09.05.72.34 1.33s-.76-.18-1.14-.46-.21.37-.17.78a1.57 1.57 0 001 1.12 2.3 2.3 0 001.59-.22l.06-.1a2 2 0 00-.58-2.27 1.71 1.71 0 00-1.1-.18z"/>
      <path class="cls-59" d="M33.08 111.36c-.56-1.1-1.53-2.39-1.17-3.24a2 2 0 012.31-1 2.14 2.14 0 011 2.1 5.54 5.54 0 01-.83 1.63z"/>
      <path class="cls-61" d="M33.14 111.2c-.52-1-1.42-2.22-1.08-3a1.78 1.78 0 012.12-.9 2 2 0 011 2 5.29 5.29 0 01-.76 1.52z"/>
      <path class="cls-62" d="M32.06 108.18c-.34.8.56 2 1.08 3l1.23-.45a6.56 6.56 0 00.67-1.2 1.26 1.26 0 01-.63.42c-.32.06-.46-.08-.73-.85-.15-.43-1.5-.28-1.43-.64a1.52 1.52 0 01.75-1 2 2 0 011-.22 1.83 1.83 0 00-1.94.94z"/>
      <path class="cls-59" d="M34.36 111.79a5.1 5.1 0 01.92-.17c.38 0 1 .15.38 0a3.15 3.15 0 00-1.12-.07z"/>
      <path class="cls-59" d="M33.89 110.1a1.39 1.39 0 011.57 1.29 1.6 1.6 0 01-1.2 1.79 1.38 1.38 0 01-1.57-1.28 1.6 1.6 0 011.2-1.8z"/>
      <path class="cls-63" d="M34 110.24a1.25 1.25 0 011.39 1.19 1.44 1.44 0 01-1 1.63 1.23 1.23 0 01-1.39-1.18 1.44 1.44 0 011-1.64z"/>
      <path class="cls-64" d="M34 110.24a1.44 1.44 0 00-1 1.64 1.23 1.23 0 001.39 1.18 1.17 1.17 0 00.75-.5c-.48.27-1 .39-1.28.12a2 2 0 01-.34-1.76 1.12 1.12 0 011.45-.4 1.08 1.08 0 00-.97-.28z"/>
      <path class="cls-59" d="M33.55 110.2a1.74 1.74 0 000-.57c0-.36-.2-.69 0-.36a1.81 1.81 0 01.19.68v.23zM47.9 115.31a2.29 2.29 0 01-2.4-.55c-.79-1-.45-1.57.33-1.88a1.53 1.53 0 011.89.72 12.78 12.78 0 01.79 1.46z"/>
      <path class="cls-60" d="M47.78 115.18a2.08 2.08 0 01-2.14-.49c-.7-.92-.4-1.4.29-1.68a1.44 1.44 0 011.73.65 12.29 12.29 0 01.68 1.2z"/>
      <path class="cls-61" d="M45.56 113.37c-.19.27-.13.48.16 1s1.19.59 1.41.56-.11-.39-.62-.9 0-.49.39-.27a2.43 2.43 0 001 .2c-.06-.11-.13-.23-.21-.35A1.44 1.44 0 0046 113a2.5 2.5 0 00-.44.37z"/>
      <path class="cls-62" d="M45.59 114.66a2.15 2.15 0 002.2.51l.56-.32s-.7-1.3-1-1.83c-.35 0-.17.93-.43.79s-.9-.26-.39.26.24.62 0 .65-.52.27-.81-.3-.28-.75-.15-1A1 1 0 0146 113c-.74.24-1.12.74-.41 1.66z"/>
      <path class="cls-59" d="M47.93 114.86a1.83 1.83 0 00-.8-.68c-.31-.16-.82-.38-.28-.19a3.94 3.94 0 011.1.62zM48.36 113.91a1.7 1.7 0 011.35-.51 1.37 1.37 0 011.21.79 1.23 1.23 0 01-.25 1.3 1.38 1.38 0 01-1.49.2c-.72-.23-1-.64-1.07-1a1 1 0 01.25-.78z"/>
      <path class="cls-61" d="M48.43 114a1.61 1.61 0 011.27-.48 1.26 1.26 0 011.14.74 1.16 1.16 0 01-.23 1.23 1.3 1.3 0 01-1.41.19c-.68-.22-1-.6-1-1a.92.92 0 01.23-.68z"/>
      <path class="cls-62" d="M48.43 114a.92.92 0 00-.24.69c0 .39.33.77 1 1a1.31 1.31 0 001.3-.11.57.57 0 01-.36-.09 4.43 4.43 0 00-.86-.46c-.18-.06 0-.16.27-.14s.86.07.49-.1-.65-.14-.84-.27a.52.52 0 01-.14-.69.89.89 0 01.62-.29 1.61 1.61 0 00-1.24.46z"/>
      <path class="cls-59" d="M48.19 115.23a2.07 2.07 0 01.38 1.11 1.34 1.34 0 01-1.46 1.39 1.54 1.54 0 01-.88-2.57 1.35 1.35 0 011.18-.49c.3-.02.59.33.78.56z"/>
      <path class="cls-61" d="M48.12 115.29a2 2 0 01.39 1.09 1.34 1.34 0 01-1.34 1.26 1.51 1.51 0 01-1.16-.88 1.42 1.42 0 01.27-1.54 1.3 1.3 0 011.12-.45c.27-.02.6.33.72.52z"/>
      <path class="cls-62" d="M48.12 115.29c-.16-.19-.45-.54-.72-.52a1.3 1.3 0 00-1.12.45 1.42 1.42 0 00-.27 1.54 1.51 1.51 0 001.16.88 1.18 1.18 0 00.86-.32 1.4 1.4 0 01-1 .22 1.35 1.35 0 01-.78-.72 1.16 1.16 0 010-1.13.85.85 0 01.71-.37c.25 0 .61 0 .41.44s-.66 1.2-.26 1a1.65 1.65 0 00.77-.68c.12-.27.36-.28.41-.21a2 2 0 01.15.32 2 2 0 00-.32-.9z"/>
      <path class="cls-59" d="M47.84 115.17a1.49 1.49 0 01-.21.76c-.14.26-.5.65-.2.36a1.36 1.36 0 00.38-.49 1.91 1.91 0 00.16-.49zM48.74 115.12a2.32 2.32 0 011.34.46 1.46 1.46 0 01.43 1.68 1.13 1.13 0 01-1.37.52 1.91 1.91 0 01-1.07-1.37 3.15 3.15 0 010-.87.64.64 0 01.67-.42z"/>
      <path class="cls-61" d="M48.81 115.22a2.17 2.17 0 011.24.42 1.35 1.35 0 01.4 1.57 1 1 0 01-1.27.48 1.77 1.77 0 01-1-1.27 5.3 5.3 0 01-.08-.78c.01-.33.56-.47.71-.42z"/>
      <path class="cls-62" d="M48.81 115.22c-.15 0-.7.09-.7.42a5.3 5.3 0 00.08.78 1.77 1.77 0 001 1.27 1 1 0 001.23-.41 1.6 1.6 0 01-1.09.15 1.07 1.07 0 01-.7-.77c0-.28-.14-.74.12-.54s1 .75.78.32-.46-.85-.24-.92a1.18 1.18 0 01.77.12 2.17 2.17 0 00-1.25-.42z"/>
      <path class="cls-59" d="M48.43 115.65c.37.15 1 .82.77.53a2.18 2.18 0 00-.71-.71z"/>
      <path class="cls-61" d="M49.28 115.52c-.22.07 0 .5.24.92s-.53-.13-.78-.32-.15.26-.12.54a1.07 1.07 0 00.7.77 1.6 1.6 0 001.09-.15.25.25 0 000-.07 1.35 1.35 0 00-.4-1.57 1.18 1.18 0 00-.73-.12z"/>
      <path class="cls-59" d="M47.81 114.53c-.39-.76-1.06-1.65-.8-2.23a1.34 1.34 0 011.58-.68 1.48 1.48 0 01.71 1.45 3.83 3.83 0 01-.57 1.12z"/>
      <path class="cls-61" d="M47.85 114.41c-.35-.7-1-1.53-.74-2.07a1.24 1.24 0 011.46-.63 1.39 1.39 0 01.65 1.35 3.48 3.48 0 01-.52 1z"/>
      <path class="cls-62" d="M47.11 112.34c-.23.54.39 1.37.74 2.07l.85-.31a4.39 4.39 0 00.46-.82.88.88 0 01-.44.29c-.22 0-.31-.06-.5-.59-.1-.29-1-.19-1-.44a1.05 1.05 0 01.52-.71 1.4 1.4 0 01.72-.15 1.26 1.26 0 00-1.35.66z"/>
      <path class="cls-59" d="M48.69 114.82a3.17 3.17 0 01.64-.11c.26 0 .68.09.26 0a2 2 0 00-.77 0z"/>
      <path class="cls-59" d="M48.36 113.66a1 1 0 011.09.88 1.11 1.11 0 01-.83 1.24 1 1 0 01-1.08-.89 1.1 1.1 0 01.82-1.23z"/>
      <path class="cls-63" d="M48.43 113.76a.85.85 0 011 .81 1 1 0 01-.71 1.13.87.87 0 01-1-.82 1 1 0 01.71-1.12z"/>
      <path class="cls-64" d="M48.43 113.76a1 1 0 00-.72 1.12.87.87 0 001 .82.84.84 0 00.52-.35c-.33.19-.7.27-.88.08a1.36 1.36 0 01-.24-1.21.77.77 0 011-.27.71.71 0 00-.68-.19z"/>
      <path class="cls-59" d="M48.13 113.72a.93.93 0 000-.39c0-.24-.13-.47 0-.24a1.08 1.08 0 01.14.46v.17zM55.3 122.39a2.13 2.13 0 01-2.14-.76c-.62-1-.25-1.47.49-1.68a1.43 1.43 0 011.66.85 12.4 12.4 0 01.57 1.42z"/>
      <path class="cls-60" d="M55.2 122.25a1.86 1.86 0 01-1.91-.67c-.55-.91-.22-1.31.44-1.5a1.34 1.34 0 011.52.78 11.19 11.19 0 01.49 1.16z"/>
      <path class="cls-61" d="M53.36 120.37c-.2.23-.17.42 0 1s1 .66 1.24.65-.07-.36-.48-.88 0-.45.38-.21a1.94 1.94 0 00.87.28c0-.1-.1-.21-.15-.33a1.32 1.32 0 00-1.49-.78 2.19 2.19 0 00-.37.27z"/>
      <path class="cls-62" d="M53.25 121.55a2 2 0 002 .7l.55-.23s-.51-1.27-.74-1.79c-.32 0-.25.84-.48.68s-.79-.32-.38.2.16.6 0 .6-.5.2-.71-.36-.18-.72 0-1a.87.87 0 01.4-.3c-.79.17-1.19.59-.64 1.5z"/>
      <path class="cls-59" d="M55.37 122a1.61 1.61 0 00-.66-.7c-.27-.18-.71-.44-.23-.21a3.71 3.71 0 01.93.68zM55.86 121.16a1.56 1.56 0 011.29-.33 1.24 1.24 0 011 .84 1.13 1.13 0 01-.36 1.17 1.26 1.26 0 01-1.38 0c-.64-.29-.9-.69-.87-1.07a.84.84 0 01.32-.61z"/>
      <path class="cls-61" d="M55.92 121.2a1.45 1.45 0 011.21-.31 1.19 1.19 0 011 .8 1.09 1.09 0 01-.34 1.1 1.23 1.23 0 01-1.31 0c-.6-.28-.84-.66-.82-1a.81.81 0 01.26-.59z"/>
      <path class="cls-62" d="M55.92 121.2a.81.81 0 00-.29.6c0 .36.22.74.82 1a1.24 1.24 0 001.2 0 .56.56 0 01-.32-.12 5.06 5.06 0 00-.73-.51c-.17-.07 0-.14.26-.1s.78.15.45 0-.58-.19-.74-.33-.23-.5-.06-.65a.83.83 0 01.6-.2 1.45 1.45 0 00-1.19.31z"/>
      <path class="cls-59" d="M55.56 122.34a1.91 1.91 0 01.24 1.06 1.24 1.24 0 01-1.48 1.12 1.4 1.4 0 01-1-1 1.36 1.36 0 01.44-1.46 1.3 1.3 0 011.14-.33c.29.04.53.41.66.61z"/>
      <path class="cls-61" d="M55.5 122.39a1.81 1.81 0 01.24 1 1.23 1.23 0 01-1.35 1 1.37 1.37 0 01-1-.92 1.27 1.27 0 01.41-1.38 1.17 1.17 0 011.06-.3c.29.06.51.41.64.6z"/>
      <path class="cls-62" d="M55.5 122.39c-.13-.19-.35-.54-.61-.55a1.17 1.17 0 00-1.06.3 1.27 1.27 0 00-.41 1.38 1.37 1.37 0 001 .92 1.06 1.06 0 00.82-.2 1.32 1.32 0 01-.91.1 1.23 1.23 0 01-.64-.74 1 1 0 01.12-1 .79.79 0 01.69-.27c.23.07.55.08.33.45s-.72 1-.34.87a1.39 1.39 0 00.77-.54c.14-.23.36-.21.4-.14a1.89 1.89 0 01.11.31 1.92 1.92 0 00-.27-.89z"/>
      <path class="cls-59" d="M55.26 122.25a1.33 1.33 0 01-.28.68c-.15.22-.52.54-.22.3a1.14 1.14 0 00.41-.41 1.67 1.67 0 00.19-.43zM56.08 122.3a2.13 2.13 0 011.18.56 1.34 1.34 0 01.22 1.58 1 1 0 01-1.31.34 1.77 1.77 0 01-.83-1.36 3.07 3.07 0 01.07-.81.59.59 0 01.67-.31z"/>
      <path class="cls-61" d="M56.13 122.4a2 2 0 011.1.52 1.24 1.24 0 01.2 1.47 1 1 0 01-1.21.31 1.64 1.64 0 01-.77-1.27 5 5 0 010-.71c.04-.31.55-.38.68-.32z"/>
      <path class="cls-62" d="M56.13 122.4c-.12-.06-.64 0-.68.32a5 5 0 000 .71 1.64 1.64 0 00.77 1.27 1 1 0 001.17-.25 1.49 1.49 0 01-1 0 1 1 0 01-.56-.78c0-.26-.05-.68.17-.48s.81.79.68.38-.34-.83-.12-.87a1.08 1.08 0 01.69.2 2 2 0 00-1.12-.5z"/>
      <path class="cls-59" d="M55.75 122.75c.32.18.78.85.64.57a2.1 2.1 0 00-.57-.73z"/>
      <path class="cls-61" d="M56.54 122.72c-.22 0 0 .46.12.87s-.47-.17-.68-.38-.17.22-.17.48a1 1 0 00.56.78 1.49 1.49 0 001 0 .21.21 0 000-.06 1.24 1.24 0 00-.2-1.47 1.08 1.08 0 00-.63-.22z"/>
      <path class="cls-59" d="M55.29 121.66c-.27-.73-.79-1.61-.5-2.12a1.24 1.24 0 011.52-.45 1.34 1.34 0 01.5 1.39 3.85 3.85 0 01-.64 1z"/>
      <path class="cls-61" d="M55.35 121.56c-.26-.68-.74-1.5-.47-2a1.14 1.14 0 011.4-.42 1.27 1.27 0 01.46 1.3 3.34 3.34 0 01-.59.9z"/>
      <path class="cls-62" d="M54.88 119.59c-.27.47.21 1.29.47 2l.8-.19a4.37 4.37 0 00.51-.71.88.88 0 01-.43.22c-.21 0-.28-.08-.4-.58-.06-.29-.92-.29-.85-.51a.92.92 0 01.55-.59 1.23 1.23 0 01.67-.07 1.15 1.15 0 00-1.32.43z"/>
      <path class="cls-59" d="M56.07 122a4.06 4.06 0 01.59 0c.24 0 .61.16.24 0a2.15 2.15 0 00-.7-.12z"/>
      <path class="cls-59" d="M55.89 120.93a.87.87 0 01.9.92 1 1 0 01-.88 1A.88.88 0 0155 122a1 1 0 01.89-1.07z"/>
      <path class="cls-63" d="M55.94 121a.79.79 0 01.79.85.91.91 0 01-.77.95.79.79 0 01-.79-.84.91.91 0 01.77-.96z"/>
      <path class="cls-64" d="M55.94 121a.91.91 0 00-.77 1 .79.79 0 00.79.84.77.77 0 00.51-.26c-.32.13-.67.17-.81 0a1.23 1.23 0 01-.1-1.13.73.73 0 01.95-.15.73.73 0 00-.57-.3z"/>
      <path class="cls-59" d="M55.67 121a.85.85 0 00.06-.35c0-.23-.08-.45 0-.23a1 1 0 01.07.44v.14zM20.13 118.16a2.11 2.11 0 01-2.14-.75c-.62-1-.25-1.48.49-1.69a1.42 1.42 0 011.66.86 11.62 11.62 0 01.57 1.42z"/>
      <path class="cls-60" d="M20 118a1.85 1.85 0 01-1.9-.66c-.55-.92-.23-1.32.43-1.5a1.31 1.31 0 011.52.77c.34.72.5 1.16.5 1.16z"/>
      <path class="cls-61" d="M18.19 116.15c-.2.22-.17.42 0 1s1 .66 1.23.66-.06-.37-.47-.89 0-.45.38-.2a2.18 2.18 0 00.86.28 3.23 3.23 0 00-.15-.34 1.33 1.33 0 00-1.49-.78 2.07 2.07 0 00-.36.27z"/>
      <path class="cls-62" d="M18.08 117.33a2 2 0 002 .69l.55-.23s-.5-1.27-.74-1.78c-.32-.05-.25.83-.47.67s-.79-.32-.38.2.15.6-.06.6-.5.2-.7-.36-.19-.72 0-1a.79.79 0 01.4-.29c-.75.17-1.15.58-.6 1.5z"/>
      <path class="cls-59" d="M20.2 117.75a1.61 1.61 0 00-.66-.7c-.27-.18-.71-.44-.23-.21a3.77 3.77 0 01.94.69zM20.69 116.93a1.56 1.56 0 011.31-.33 1.26 1.26 0 011 .84 1.16 1.16 0 01-.35 1.18 1.31 1.31 0 01-1.39 0c-.64-.29-.9-.69-.87-1.07a.9.9 0 01.3-.62z"/>
      <path class="cls-61" d="M20.75 117a1.48 1.48 0 011.21-.3 1.18 1.18 0 011 .79 1.07 1.07 0 01-.34 1.1 1.19 1.19 0 01-1.3 0c-.6-.27-.85-.65-.82-1a.85.85 0 01.25-.59z"/>
      <path class="cls-62" d="M20.75 117a.85.85 0 00-.28.61c0 .36.22.74.82 1a1.22 1.22 0 001.2 0 .52.52 0 01-.33-.12 5.06 5.06 0 00-.73-.51c-.16-.07 0-.14.26-.1s.78.15.45 0-.58-.2-.74-.34-.23-.5-.06-.64a.8.8 0 01.6-.2 1.48 1.48 0 00-1.19.3z"/>
      <path class="cls-59" d="M20.4 118.12a1.88 1.88 0 01.23 1.06 1.23 1.23 0 01-1.48 1.11 1.4 1.4 0 01-1-1 1.37 1.37 0 01.44-1.46 1.31 1.31 0 011.14-.33c.27.04.53.41.67.62z"/>
      <path class="cls-61" d="M20.33 118.17a1.78 1.78 0 01.24 1 1.21 1.21 0 01-1.35 1 1.37 1.37 0 01-1-.92 1.29 1.29 0 01.41-1.38 1.25 1.25 0 011.07-.3c.3.06.5.43.63.6z"/>
      <path class="cls-62" d="M20.33 118.17c-.13-.2-.35-.54-.6-.56a1.25 1.25 0 00-1.07.3 1.29 1.29 0 00-.41 1.38 1.37 1.37 0 001 .92A1 1 0 0020 120a1.37 1.37 0 01-.91.09 1.21 1.21 0 01-.64-.74 1.1 1.1 0 01.12-1 .76.76 0 01.69-.26c.23.06.56.07.34.44s-.73 1-.35.88a1.45 1.45 0 00.77-.55c.14-.22.36-.21.41-.14a2.25 2.25 0 01.1.31 1.57 1.57 0 00-.2-.86z"/>
      <path class="cls-59" d="M20.09 118a1.39 1.39 0 01-.28.69c-.15.21-.52.53-.22.3a1.33 1.33 0 00.41-.41 1.84 1.84 0 00.19-.43zM20.91 118.07a2.21 2.21 0 011.18.56 1.34 1.34 0 01.22 1.58 1 1 0 01-1.31.34 1.77 1.77 0 01-.83-1.36 2.71 2.71 0 01.08-.8.58.58 0 01.66-.32z"/>
      <path class="cls-61" d="M21 118.17a2 2 0 011.09.52 1.26 1.26 0 01.21 1.47 1 1 0 01-1.22.31 1.61 1.61 0 01-.77-1.26 4.36 4.36 0 010-.72c.01-.31.53-.38.69-.32z"/>
      <path class="cls-62" d="M21 118.17c-.13-.06-.65 0-.68.32a4.36 4.36 0 000 .72 1.61 1.61 0 00.77 1.26 1 1 0 001.17-.25 1.5 1.5 0 01-1 0 1 1 0 01-.56-.78c0-.26-.05-.69.17-.48s.82.78.68.37-.33-.83-.12-.86a1.08 1.08 0 01.69.19 2 2 0 00-1.12-.49z"/>
      <path class="cls-59" d="M20.58 118.53c.32.17.78.84.64.56a2 2 0 00-.57-.72z"/>
      <path class="cls-61" d="M21.37 118.5c-.21 0 0 .45.12.86s-.47-.17-.68-.37-.17.22-.17.48a1 1 0 00.56.78 1.5 1.5 0 001 0l.05-.06a1.26 1.26 0 00-.21-1.47 1.08 1.08 0 00-.67-.22z"/>
      <path class="cls-59" d="M20.13 117.43c-.28-.73-.8-1.61-.51-2.12a1.24 1.24 0 011.52-.45 1.35 1.35 0 01.5 1.4 3.48 3.48 0 01-.64 1z"/>
      <path class="cls-61" d="M20.18 117.34c-.26-.69-.74-1.5-.47-2a1.15 1.15 0 011.4-.42 1.27 1.27 0 01.46 1.3 3.34 3.34 0 01-.59.9z"/>
      <path class="cls-62" d="M19.71 115.36c-.27.48.21 1.29.47 2l.8-.2a3.92 3.92 0 00.51-.71.73.73 0 01-.43.22c-.2 0-.28-.08-.4-.58-.06-.28-.92-.29-.85-.51a.94.94 0 01.55-.59 1.22 1.22 0 01.67-.06 1.15 1.15 0 00-1.32.43z"/>
      <path class="cls-59" d="M20.9 117.8a2.38 2.38 0 01.59 0c.24 0 .62.16.24 0a2 2 0 00-.7-.13z"/>
      <path class="cls-59" d="M20.72 116.7a.88.88 0 01.9.92 1 1 0 01-.88 1 .87.87 0 01-.9-.92 1 1 0 01.88-1z"/>
      <path class="cls-63" d="M20.77 116.8a.78.78 0 01.79.84.9.9 0 01-.77 1 .79.79 0 01-.79-.84.91.91 0 01.77-1z"/>
      <path class="cls-64" d="M20.77 116.8a.91.91 0 00-.77 1 .79.79 0 00.79.84.73.73 0 00.51-.26c-.32.14-.67.17-.81 0a1.2 1.2 0 01-.09-1.12.69.69 0 01.94-.15.66.66 0 00-.57-.31z"/>
      <path class="cls-59" d="M20.51 116.73a1 1 0 000-.35c0-.23-.07-.45 0-.23a1 1 0 01.08.44v.15z"/>
    </g>
  </g>
</svg>
