<svg xmlns="http://www.w3.org/2000/svg" xmlns:xlink="http://www.w3.org/1999/xlink" viewBox="0 0 139.37 137.81">
  <defs>
    <radialGradient id="radial-gradient" cx="91.44" cy="28.04" r="21.84" gradientUnits="userSpaceOnUse">
      <stop offset="0" stop-color="#ff8f8f"/>
      <stop offset="1" stop-color="#ff271f"/>
    </radialGradient>
    <radialGradient id="radial-gradient-2" cx="13.83" cy="67.13" r="3.64" gradientUnits="userSpaceOnUse">
      <stop offset="0" stop-color="#fff0da"/>
      <stop offset="1" stop-color="#d3b98a"/>
    </radialGradient>
    <radialGradient id="radial-gradient-3" cx="18.9" cy="23.57" r="70.6" xlink:href="#radial-gradient"/>
    <radialGradient id="radial-gradient-4" cx="53.51" cy="129.55" r="13.47" gradientUnits="userSpaceOnUse">
      <stop offset="0" stop-color="#cce9f8"/>
      <stop offset="1" stop-color="#9ad0f0"/>
    </radialGradient>
    <radialGradient id="radial-gradient-5" cx="18.89" cy="24" r="70.36" gradientUnits="userSpaceOnUse">
      <stop offset="0" stop-color="#a2d2ec"/>
      <stop offset="1" stop-color="#489fd6"/>
    </radialGradient>
    <radialGradient id="radial-gradient-6" cx="18.89" cy="23.57" r="70.6" xlink:href="#radial-gradient-5"/>
    <radialGradient id="radial-gradient-7" cx="124.85" cy="58.09" r="30.38" xlink:href="#radial-gradient"/>
    <radialGradient id="radial-gradient-8" cx="102.63" cy="38.71" r="27.6" xlink:href="#radial-gradient-4"/>
    <radialGradient id="radial-gradient-9" cx="98.79" cy="69.28" r="29.72" xlink:href="#radial-gradient"/>
    <radialGradient id="radial-gradient-10" cx="140.26" cy="46.52" r="38.53" xlink:href="#radial-gradient"/>
    <radialGradient id="radial-gradient-11" cx="18.94" cy="23.53" r="70.6" xlink:href="#radial-gradient-5"/>
    <radialGradient id="radial-gradient-12" cx="18.9" cy="23.56" r="70.6" xlink:href="#radial-gradient"/>
    <radialGradient id="radial-gradient-13" cx="18.91" cy="23.56" r="70.6" xlink:href="#radial-gradient"/>
    <radialGradient id="radial-gradient-14" cx="62.6" cy="90.82" r="7.62" xlink:href="#radial-gradient-2"/>
    <radialGradient id="radial-gradient-15" cx="18.91" cy="23.56" r="70.6" xlink:href="#radial-gradient-5"/>
    <radialGradient id="radial-gradient-16" cx="66.79" cy="98.34" r="51.56" xlink:href="#radial-gradient-5"/>
    <radialGradient id="radial-gradient-17" cx="53.51" cy="129.55" r="13.47" xlink:href="#radial-gradient-2"/>
    <radialGradient id="radial-gradient-18" cx="18.96" cy="23.3" r="70.73" xlink:href="#radial-gradient-5"/>
    <radialGradient id="radial-gradient-19" cx="18.9" cy="23.57" r="70.6" xlink:href="#radial-gradient-2"/>
    <radialGradient id="radial-gradient-20" cx="67.65" cy="89.07" r="4.95" xlink:href="#radial-gradient-2"/>
    <radialGradient id="radial-gradient-21" cx="18.9" cy="23.57" r="70.6" gradientUnits="userSpaceOnUse">
      <stop offset="0" stop-color="#d02724"/>
      <stop offset="1" stop-color="#c40000"/>
    </radialGradient>
    <radialGradient id="radial-gradient-22" cx="18.9" cy="23.57" r="70.6" gradientUnits="userSpaceOnUse">
      <stop offset="0" stop-color="#577384"/>
      <stop offset="1" stop-color="#204b6e"/>
    </radialGradient>
    <radialGradient id="radial-gradient-23" cx="96.59" cy="35.05" r="6.8" xlink:href="#radial-gradient-2"/>
    <radialGradient id="radial-gradient-24" cx="18.9" cy="23.56" r="70.6" gradientUnits="userSpaceOnUse">
      <stop offset="0" stop-color="#416a81"/>
      <stop offset="1" stop-color="#003f6e"/>
    </radialGradient>
    <radialGradient id="radial-gradient-25" cx="18.9" cy="23.57" r="70.59" gradientUnits="userSpaceOnUse">
      <stop offset="0" stop-color="#ff5653"/>
      <stop offset="1" stop-color="#f30d00"/>
    </radialGradient>
    <radialGradient id="radial-gradient-26" cx="18.9" cy="23.56" r="70.6" xlink:href="#radial-gradient-5"/>
    <radialGradient id="radial-gradient-27" cx="18.89" cy="23.57" r="70.56" xlink:href="#radial-gradient-24"/>
    <radialGradient id="radial-gradient-28" cx="18.89" cy="23.56" r="70.57" xlink:href="#radial-gradient-22"/>
    <radialGradient id="radial-gradient-29" cx="18.9" cy="23.56" r="70.6" xlink:href="#radial-gradient-5"/>
    <radialGradient id="radial-gradient-30" cx="18.9" cy="38.4" r="65.27" xlink:href="#radial-gradient-5"/>
    <radialGradient id="radial-gradient-31" cx="18.9" cy="23.57" r="70.6" xlink:href="#radial-gradient-24"/>
    <radialGradient id="radial-gradient-32" cx="18.9" cy="23.57" r="70.6" xlink:href="#radial-gradient"/>
    <radialGradient id="radial-gradient-33" cx="18.86" cy="23.56" r="70.64" xlink:href="#radial-gradient"/>
    <radialGradient id="radial-gradient-34" cx="18.9" cy="23.57" r="70.6" xlink:href="#radial-gradient-5"/>
    <radialGradient id="radial-gradient-82" cx="18.9" cy="23.57" r="70.6" gradientUnits="userSpaceOnUse">
      <stop offset="0" stop-color="#b9211b"/>
      <stop offset="1" stop-color="#ab0300"/>
    </radialGradient>
    <radialGradient id="radial-gradient-93" cx="18.9" cy="23.57" r="70.6" xlink:href="#radial-gradient-5"/>
    <radialGradient id="radial-gradient-94" cx="19.01" cy="23.28" r="70.75" xlink:href="#radial-gradient-5"/>
    <radialGradient id="radial-gradient-95" cx="18.94" cy="23.53" r="70.6" xlink:href="#radial-gradient-5"/>
    <radialGradient id="radial-gradient-96" cx="51.86" cy="118.23" r="17.91" xlink:href="#radial-gradient-5"/>
    <radialGradient id="radial-gradient-97" cx="18.94" cy="23.53" r="70.6" xlink:href="#radial-gradient-5"/>
    <radialGradient id="radial-gradient-98" cx="102.64" cy="38.71" r="27.6" xlink:href="#radial-gradient-4"/>
    <radialGradient id="radial-gradient-99" cx="18.9" cy="23.57" r="70.6" xlink:href="#radial-gradient-5"/>
    <radialGradient id="radial-gradient-100" cx="18.9" cy="23.56" r="70.6" xlink:href="#radial-gradient-5"/>
    <style>
      .cls-1{fill:url(#radial-gradient)}.cls-2,.cls-38,.cls-41,.cls-48{fill:#fff}.cls-3{fill:url(#radial-gradient-2)}.cls-4{fill:url(#radial-gradient-3)}.cls-5{fill:url(#radial-gradient-4)}.cls-6{fill:url(#radial-gradient-5)}.cls-7{fill:url(#radial-gradient-6)}.cls-8{fill:url(#radial-gradient-7)}.cls-9{fill:url(#radial-gradient-8)}.cls-10{fill:url(#radial-gradient-9)}.cls-11{fill:url(#radial-gradient-10)}.cls-12{fill:url(#radial-gradient-11)}.cls-13{fill:url(#radial-gradient-12)}.cls-14{fill:url(#radial-gradient-13)}.cls-15{fill:url(#radial-gradient-14)}.cls-16{fill:url(#radial-gradient-15)}.cls-17{fill:url(#radial-gradient-16)}.cls-18{fill:url(#radial-gradient-17)}.cls-19{fill:url(#radial-gradient-18)}.cls-20{fill:url(#radial-gradient-19)}.cls-21{fill:url(#radial-gradient-20)}.cls-22{fill:url(#radial-gradient-21)}.cls-23{fill:url(#radial-gradient-22)}.cls-24{fill:url(#radial-gradient-23)}.cls-25{fill:url(#radial-gradient-24)}.cls-26{fill:url(#radial-gradient-25)}.cls-27{fill:url(#radial-gradient-26)}.cls-28{fill:url(#radial-gradient-27)}.cls-29{fill:url(#radial-gradient-28)}.cls-30{fill:url(#radial-gradient-29)}.cls-31{fill:url(#radial-gradient-30)}.cls-32{fill:url(#radial-gradient-31)}.cls-33{fill:url(#radial-gradient-32)}.cls-34{fill:url(#radial-gradient-33)}.cls-35{fill:url(#radial-gradient-34)}.cls-36{fill:url(#radial-gradient-82)}.cls-37{fill:#6589a9}.cls-38{opacity:.24}.cls-39{fill:none}.cls-40{fill:url(#radial-gradient-93)}.cls-41{opacity:.42}.cls-42{fill:url(#radial-gradient-94)}.cls-43,.cls-45{fill:#305e7d}.cls-43{opacity:.45}.cls-44{fill:url(#radial-gradient-95)}.cls-45{opacity:.28}.cls-46{fill:url(#radial-gradient-96)}.cls-47{fill:url(#radial-gradient-97)}.cls-48{opacity:.52}.cls-49{fill:url(#radial-gradient-98)}.cls-50{fill:url(#radial-gradient-99)}.cls-51{fill:url(#radial-gradient-100)}
    </style>
  </defs>
  <g id="Слой_2" data-name="Слой 2">
    <g id="Слой_1-2" data-name="Слой 1">
      <path class="cls-1" d="M80.73 39.58l2.52.21a16 16 0 013.45 4.68 24.81 24.81 0 011.14 4A6.66 6.66 0 0184 50a18.11 18.11 0 01-5.88-.94 49.73 49.73 0 001.81-5.75c.44-2.19.8-3.73.8-3.73z"/>
      <path class="cls-2" d="M108.09 63.44s2.34 2.06 4 3.88 4.62 4.68 4.62 4.68a49.84 49.84 0 00-4.29 8c-1.37 3.64-3.16 10-3.16 10s-4.5-2.68-6.18-4.84-4.67-5.77-4.67-5.77a66.11 66.11 0 014-8.72 34.22 34.22 0 015.68-7.23z"/>
      <path class="cls-3" d="M13 67.13c.61-.51 2.93-2.06 4.17-1.49s.61 1.7-.83 2.78A9.39 9.39 0 0112.08 70c-.67.06-.62-.77-.26-1.44A6.67 6.67 0 0113 67.13z"/>
      <path class="cls-2" d="M43 65.57v.06a53.24 53.24 0 0014.3 4.16l1.39.2a29.39 29.39 0 006.21.28c-2.22-1.08-3.79-3.33-5.05-5.35A26.57 26.57 0 0142.83 64c.08.52.14 1 .19 1.53l-.23-.09z"/>
      <path class="cls-4" d="M42.2 65.21l.13.06-.15-1.56a10.9 10.9 0 01-4.12-4.08c-.29-.16-.58-.32-.86-.49-.64 2.86 2.8 5.07 5 6.07z"/>
      <path class="cls-5" d="M50.94 78.22c-4.57-1.39-8.36 1.83-9.58 6.09A15.31 15.31 0 0044.1 97.8c2.91 3.56 8 5.09 11.76 1.86A9.68 9.68 0 0057 98.48 17.62 17.62 0 0159.35 91a14 14 0 00-.16-2c-.71-4.55-3.64-9.37-8.25-10.78z"/>
      <path class="cls-6" d="M59.4 135.51l.9-.27z"/>
      <path class="cls-7" d="M103.58 98.94c.76.5.94 1.45 1.91 1.79a3.8 3.8 0 002.85-.19c.5-.28.4-.25 0-.48a2.31 2.31 0 01-1-1 8.27 8.27 0 00-1.48-2.74 3 3 0 00-2.51-.71c-.38.61-1.54 1.36-1.5 2.14s1.34.73 1.73 1.19z"/>
      <path class="cls-8" d="M98.1 79c2.19-5.77 5-11.49 9.48-15.86a26.93 26.93 0 00-5.49-3.66A26.33 26.33 0 0096.16 66a52.37 52.37 0 00-3.86 8.32A23.22 23.22 0 0198.1 79z"/>
      <path class="cls-9" d="M102.84 54.72c2.17 2.67 5.18 5.09 8.83 4.57a7.56 7.56 0 005-2.7 9.11 9.11 0 001.49-6.41 22.1 22.1 0 00-6.73-13.1c-2.47-2.37-5.71-3.81-9.16-3.07-3.18.67-4.75 3.67-5 6.7-.37 5.17 2.4 10.13 5.57 14.01z"/>
      <path class="cls-10" d="M83.79 61.72c-4.48.74-9.24-.73-13.38-2.37a27.13 27.13 0 01-9.73 5.33c1.5 2.26 3 4.37 5.47 5.61a24.39 24.39 0 002.72 0c-.86.19-1.73.34-2.63.47A28.14 28.14 0 0163 71c5.68 1.18 11.31 1 17.07 1.08 2.71-4.93 5.11-10.47 9.24-14.43q-.73 0-1.47-.09a23.4 23.4 0 01-7.45 8 24.55 24.55 0 003.4-3.84z"/>
      <path class="cls-11" d="M117.93 92.92l1.35.2a29 29 0 018.47 2.18 7.74 7.74 0 011.89 1.42c.35.34.69.23 1.09 0 1.69-1-.45-2.44-1.38-3-2.22-1.35-4.77-2-7-3.28l.13-.11.71.12c-.06-.28-.12-.58-.18-.88l-.71-.08a14.79 14.79 0 017.48 1.51c.74.34 1.91 1.32 2.77 1.16a1.68 1.68 0 00.89-1.77c-.22-.6-1.72-.67-2.24-.83-.75-.23-1.5-.46-2.24-.74a31 31 0 00-3.73-1.4c-1.13-.28-2.28-.42-3.44-.59h.87v-1.07h-.82a13.53 13.53 0 014.43-.32 12.59 12.59 0 013.48 1.38c1.16.61 2.23 1.41 3.41 2 1 .48 1.31-.36 1.56-1.2s.6-1.8-.63-1.68a6.93 6.93 0 01-3.79-.53 22.44 22.44 0 00-3.44-1.78c-1.52-.4-3.32.11-4.59-1a3.2 3.2 0 00.86.28 7.67 7.67 0 01.51-1.22c-.49.12-.83.25-.83.24a4.88 4.88 0 013.9-1 17.42 17.42 0 013.74 1.68 23.63 23.63 0 003.6 1.6c1 .3 1.29.26 1.71-.68a2.54 2.54 0 00.34-1.49c-.09-.42-.66-.35-1-.4a23.9 23.9 0 01-4-.79c-1.26-.4-2.31-1.22-3.59-1.58s-2.41-.4-3.59-.62a15.76 15.76 0 011.79 0l.36-.46h-.46a15.32 15.32 0 018.11.4c.81.24 2.2 1.12 3.06.79a1.8 1.8 0 00.67-1.94c-.29-.62-1.89-.48-2.45-.57-.77-.12-1.54-.24-2.31-.42-1.26-.28-2.49-.73-3.78-.89s-2.44-.06-3.66-.11a17.21 17.21 0 013.32-.26c.31-.37.6-.73.85-1-.64.21-.85.49-1.45.69a6.63 6.63 0 012.27-1.28 12.12 12.12 0 013.4-.16c.88 0 4.23.76 4.61-.5.16-.53.91-1.65.42-2.16s-1.15-.26-1.61-.2a24 24 0 00-2.51.46c-1.19.27-2.36.69-3.57.9a17 17 0 00-4.69 2 17.88 17.88 0 01-2.1.8 26.55 26.55 0 01-2.72 1c-.1 0-1.65.43-1.64.38 0-.32 1.93-.88 2.14-1-2 0-3.69-1.29-5-2.49-3.72 5.27-5.74 11.61-7.33 17.79a22.18 22.18 0 008.29 2.5z"/>
      <path class="cls-2" d="M100.26 58.73A16.15 16.15 0 0095 57.55c-1.73-.1-3.45.13-5.17.08a49.81 49.81 0 00-4.91 6.49c-1.55 2.58-2.77 5.32-4.22 7.95 3.82 0 7.48.18 11 1.92 1.58-3.73 2.81-7.56 5.44-10.73a27.51 27.51 0 014.31-4l-1.13-.51s-.01 0-.06-.02z"/>
      <path class="cls-12" d="M78.89 73c-3 0-5.94.15-8.91-.07a45 45 0 01-9.88-2c-.88 0-1.76-.12-2.64-.22a43 43 0 01-15.3-4.61 22 22 0 01-3.63-2.42A6 6 0 0136.34 61c-7-1-19.88 4.12-19.11 4.23a2.27 2.27 0 011.42 1.39 3.36 3.36 0 01-1.16 2.1c-1.44 1.4-3.77 1.82-5.72 1.91-.26 4.3 2.52 9.1 6 11.63a13.93 13.93 0 006.14 2.46 13 13 0 007.33-1.34A44.88 44.88 0 0135.53 66c-2.74 7.68-4.47 16.68-2 24.66a21.42 21.42 0 006.55 9.58 41.71 41.71 0 0010.64 7 36.64 36.64 0 01-12.84-7.41c.64 3.91 1.26 7.89.75 11.85a17 17 0 01-1.76 5.77 18.08 18.08 0 00-2.13 5.62 9.16 9.16 0 004 10.26c3.49 2.32 7.91 3.11 12 3.18h-.88c0-3.35-.47-9.43 4.19-9.84a4.25 4.25 0 014.32 2.44c.78 1.91.63 4.48.54 6.5l.45-.12a28.88 28.88 0 01-.06-7.43 4.32 4.32 0 012.45-3.66 3.84 3.84 0 013.69.84c1.66 1.36 2.23 3.58 2.57 5.6 2.12-2.52 1.39-5.64-.08-8.28a18.85 18.85 0 00-6.6-7 20.61 20.61 0 012.19 1.14c.35-.46.7-.9 1-1.34a19.11 19.11 0 01-5.2-7.36 17.55 17.55 0 01-2.37-8 8.26 8.26 0 01-5.44 2.55c-4.8.25-8.57-3.8-10.22-7.94s-1.83-9.24.36-13.22A8 8 0 0152.78 78c4.28 2.3 6.89 7.21 7.3 11.93 4.47-6 14.38-7 20.41-4.09a19.46 19.46 0 00-15.43 1.35c-5.63 3.19-8.28 10.59-6.63 16.75a11.26 11.26 0 012-7.24c.07-2 .06-4.34 1.07-6.09.84-1.48 3.37-2.75 4.59-1C66.08 87.88 68 87 69.43 87c2.4 0 3.31 2.21 4.29 4 6 .75 10.9 5.07 13.84 10.22 2.42 4.24 4.06 9.81 2.46 14.61 3.22-3.77 4.17-8.83 4-13.67A44.63 44.63 0 0093 94.15a33.53 33.53 0 00-2.42-7.79 2.53 2.53 0 011.11 1 32.48 32.48 0 003.21-10.48c-4.61-3.67-10.4-3.99-16.01-3.88z"/>
      <path class="cls-2" d="M27 89.06c1.56.27 3.21.59 4.89 1a25.08 25.08 0 01-.65-5.49 15.23 15.23 0 01-1.72.72 23.69 23.69 0 00-2.56 3.8c-.09.16-.18.31-.26.47.07-.19.16-.34.3-.5z"/>
      <path class="cls-13" d="M36.85 102.07c-.16-1.22-.33-2.43-.49-3.65A17.91 17.91 0 0132 90.63c-1.83-.42-3.63-.77-5.32-1.06a19.88 19.88 0 00-2 8v.56a28.77 28.77 0 01-1.38 8.61 6.77 6.77 0 01-1.31 2.05c-.32.37-.2.68.08 1 2.14 2.91 4.81-7.1 5.59-8.21a5 5 0 00-.28.74l1-.27c.05-.42.09-.67.11-.79a13 13 0 01-.79 7.33c-.27.69-1.11 1.83-.87 2.59.16.55 1.24.86 1.73.76.65-.14.59-1.58.7-2.07.17-.72.32-1.44.53-2.15a27.58 27.58 0 001.09-3.7c.16-1 .11-1.93.22-2.9a2.7 2.7 0 01.16.42c.36 0 .71-.06 1.07-.07 0-.38 0-.67-.06-.78a12 12 0 01.72 4.17 11.89 11.89 0 01-1.18 3.6c-.49 1.08-1.18 2.09-1.61 3.19-.34.85.65 1 1.28 1.08s1.83.49 1.64-.62a6.26 6.26 0 01.11-3.56c.43-1.16 1.34-2.14 1.57-3.38.27-1.43-.34-3 .65-4.28a4.4 4.4 0 00-.23.82 5.71 5.71 0 01.71.19l.63.24c-.19-.46-.36-.79-.36-.79h.09a7.78 7.78 0 01.56.72z"/>
      <path class="cls-14" d="M37.28 106.41c-.28.73-3.13 6.08-2.22 6.57a8.32 8.32 0 001.67.67 23.35 23.35 0 00.55-7.24z"/>
      <path class="cls-15" d="M66.37 92c-.37-1.53-1.16-2.61-2.5-2.3-2.26.52-2.7 3.26-2.48 5.88A12.87 12.87 0 0166.37 92z"/>
      <path class="cls-16" d="M101.52 99.08a5.54 5.54 0 011.35.08s.51.09.36-.1c-.44-.56-1.38-.19-1.92-.52s0-1.32.34-1.68c.14-.17 1.6-1.4.86-1.24-1.73.39-2.64 2.14-4.45 2.4a4.44 4.44 0 01-3.36-.6c.07.45.14.89.2 1.33a31.22 31.22 0 006.62.33z"/>
      <path class="cls-17" d="M73.4 92a11.59 11.59 0 00-11.07 3.54A11.75 11.75 0 0060 107.11a18.48 18.48 0 007 9.28c5.46 4 15.12 6.91 20.61 1.38 5-5.6 1-14.38-3.21-19.11a20 20 0 00-11-6.66z"/>
      <path class="cls-18" d="M54.81 127.57c-4.33-.12-4.23 6.07-4 9a27.69 27.69 0 007.65-.73c.14-2.91.54-8.16-3.65-8.27z"/>
      <path class="cls-19" d="M67.29 131.62a8.16 8.16 0 00.71-.74 8.16 8.16 0 01-.71.74z"/>
      <path class="cls-20" d="M67.46 131.05c-.28-1.81-.74-3.82-2.15-5.09a3.12 3.12 0 00-3.21-.75c-1.4.58-1.89 2.2-2.06 3.58a29.36 29.36 0 00.09 6.49 23.91 23.91 0 003.59-1.36l-.16.07.16-.07a10.76 10.76 0 003.74-2.87z"/>
      <path class="cls-21" d="M73.14 91c-.8-1.46-1.76-3.19-3.68-3.12A2.51 2.51 0 0067 90.44c0 .47 0 .9.07 1.29a14.78 14.78 0 016.07-.73z"/>
      <path class="cls-22" d="M46 56.74a7.05 7.05 0 004.7 1.57A6 6 0 0054.93 56c2.59-3.06 1.8-7.11.43-10.53-.09-.23-.19-.45-.28-.68a37.14 37.14 0 00-2.64-5c-1 1.2-2 2.38-3 3.56a17.06 17.06 0 011.66 1.74c.59-.37 1.65-1.24 2.38-.68a4.75 4.75 0 011.12 2.14 13.6 13.6 0 01.95 5.8 6.33 6.33 0 01-3.42 4.5c-1.81 1-3.36-.34-4.55-1.64A5.4 5.4 0 0146 56.74z"/>
      <path class="cls-23" d="M20.94 12.85c-.75 1.36.9 3.34 1.8 4.18.66.62 2.73 1.71 3.46.56l.05-.07a6.13 6.13 0 01-5.31-4.67z"/>
      <path class="cls-2" d="M44.48 49.14l-.66.72a9.26 9.26 0 003 2.62c1.49.7 2.67-.14 3.56-1.33 2-2.66.8-5.28-1.24-7.47-1.48 1.78-3.04 3.65-4.66 5.46z"/>
      <path class="cls-24" d="M96.73 38a9.11 9.11 0 011.55-3.24 5 5 0 00-2.64 1.65c-.58.95.26 1.46 1.09 1.59z"/>
      <path class="cls-25" d="M23.1 15.85a4.8 4.8 0 003.31 1.27c.4-1.4-.85-2.68-1.83-3.46-.75-.59-2.5-2-3.45-1.06a7.36 7.36 0 001.97 3.25z"/>
      <path class="cls-26" d="M51.9 56.27a6 6 0 003.1-3.65 10.82 10.82 0 00-.68-5.5 4.41 4.41 0 00-1-2.08c-.56-.45-1.4.11-1.88.42a4.9 4.9 0 011 4.68 6.44 6.44 0 01-3.12 3.38 2.06 2.06 0 01-1.3.12 1.54 1.54 0 01-.16 1.16c1.03 1.2 2.42 2.31 4.04 1.47z"/>
      <path class="cls-27" d="M4 26.74c-.63-.57-2-2.22-.85-3-.78.07-1.43.51-1.27 1.37a9.92 9.92 0 00.55 1.24c-.14-.42-.6-.73-.71-1.22a1.15 1.15 0 01.16-1 2.45 2.45 0 012.24-.63 4.76 4.76 0 011.42.3 17.4 17.4 0 011.1-1.51 8.45 8.45 0 00-2.31-.24c-5.63.11-2.88 5-1.29 7.21A23.34 23.34 0 014 26.74z"/>
      <path class="cls-2" d="M39.84 53.79c1.13 1 3.06 2.75 4.68 2.37a4.67 4.67 0 003.08-2.62 12.69 12.69 0 01-4.35-3.06 58.98 58.98 0 01-3.41 3.31z"/>
      <path class="cls-28" d="M4.45 25.76c.25-.51.53-1 .83-1.51-1-.36-1.83-.41-2.11.11a6.5 6.5 0 001.28 1.4z"/>
      <path class="cls-29" d="M4.13 26.41c.07-.15.14-.3.22-.45a4 4 0 01-1.26-1.39c-.09.54.34 1.25 1.04 1.84z"/>
      <path class="cls-30" d="M10.32 51.32a22.63 22.63 0 0010.54 5.56 33.22 33.22 0 006.59.77 14.38 14.38 0 007.33-1.85c4.3-2.32 7.82-6 11-9.57s6.39-7.43 10-10.8c-.78 1.1-1.71 2.29-2.81 3.66a31.48 31.48 0 013.24 5.85c1.64 4 1.76 9.14-1.46 12.43-2.54 2.59-7.12 2.09-9.67-.2-2 .73-4.47-1.64-5.84-2.91A25 25 0 0135.39 57a44.1 44.1 0 006.66 4.15l.86.4-.85-.22a19.66 19.66 0 01-3-1.17A9.8 9.8 0 0042.17 63a20.76 20.76 0 009 2.1c21.18.81 35.36-24.82 26.93-43.22-2.43-.47-4.85-1.35-7.32-1a10.4 10.4 0 013.88-.59c2.12.08 4.19.77 6.31.62 3.44-.26 6.4-3.81 5.14-7.24-1-2.82-5.29-4-7.74-2.37-1.44 1-2.42 2.47-3.79 3.53a9.56 9.56 0 01-5.21 1.79 18.77 18.77 0 004-2c-2.72-3.13-6.14-6.22-10.24-7.31A14.47 14.47 0 0052 9.32a3.6 3.6 0 011.27.39c2.29-2 5.89-2.87 8.08-.22s1.07 6.54-.19 9.18c1.21.79 1.87 1.3 1.87 1.3l-.07.17a70.93 70.93 0 00-16.11-6.81 45.08 45.08 0 00-18.78-1.69 12.33 12.33 0 013.23 5.75l-.16.13c-1.49-4.19-5.71-8.18-10.35-8.27-5-.1-4.77 6.71-4.29 10.09l-.26-.14a22.87 22.87 0 01-.45-3.37C9.35 19.42 3.88 25 3.08 32.69a22.91 22.91 0 007.24 18.63zM71.6 16.68l.08-.05s.08.06.12.35a64 64 0 005.75-3c1.13-.56 3-.78 3 1.12a3.59 3.59 0 01-2.71 3.38 25.35 25.35 0 01-3.7.05c-.87 0-1.76.1-2.64.15-.18.45-.48 1.08-1 1.23a4.51 4.51 0 001.1-3.23zM59.54 56.31a5.46 5.46 0 01-2.61 3.51 5.18 5.18 0 01-3.13.73 10.13 10.13 0 003.42-1.25 8 8 0 002.32-2.99zM19.45 11.83c.94-.65 2.32-.29 3.29.09A7.09 7.09 0 0125 13.18a2.49 2.49 0 01.43.36c1 .89 2.07 2.39 1.8 3.8-.21 1.11-1.51 1.45-2.48 1.34-1.72-.18-3-1.72-3.77-3.16-.53-1-1.27-3.27.38-3.7-.79-.16-1.78-.11-2.15.73a4 4 0 00.05 2.45c-.12-.67-.52-1.18-.47-1.92a1.64 1.64 0 01.66-1.25z"/>
      <path class="cls-31" d="M87.9 48.92c-2.91 2-6.83 1.83-10 .59a30 30 0 01-5.47 8c-.47.48-1 1-1.45 1.4 4.06 1.48 8.89 3 13.25 2.27l-.37.5.37-.51a29 29 0 003.26-5.5 10.08 10.08 0 00.41-6.72c-.29-1.3-.05-.22 0-.03z"/>
      <path class="cls-32" d="M77.24 18.07c1.43-.35 3-1.59 2.79-3.24-.26-1.82-2.68-.36-3.52.12a27.27 27.27 0 01-4.71 2.2 2.89 2.89 0 01-.16 1.26c.91-.07 1.82-.12 2.74-.15a13.67 13.67 0 002.86-.19z"/>
      <path class="cls-33" d="M82.34 38.59c.13-.11 1 .84 1.1.95a15.38 15.38 0 001.65-.17c0 .2.1.39.14.59 0-.2-.09-.39-.14-.59h.07c-.06-.28-.13-.54-.19-.8-.65-2.41-1.69-4.09-3.3-5a33 33 0 01-.53 5.78c.58.06 1.16.11 1.72.13-.05-.02-.63-.8-.52-.89z"/>
      <path class="cls-34" d="M85.62 41.77c-.14-.53-.23-1.08-.35-1.62v-.18c-.43 0-.87.05-1.3.05.64.68 1.2 1.25 1.65 1.75z"/>
      <path class="cls-35" d="M87.7 45.37c1.31 3.63 2.22 7.46.63 11.16 3.49.43 7-.28 10.41.57a22.8 22.8 0 019.19 5.07 16.81 16.81 0 005.06-1.8c-4.92 1.12-9.11-2.5-11.88-6.15-3.38-4.47-5.8-10-4.51-15.67-.64-.13-1.73-.35-1.95-1.08s.66-1.6 1.17-2A22.64 22.64 0 0088 42.93a13.76 13.76 0 01.87-2c-.89-.15-1.84-.34-2.8-.59a27 27 0 001.05 3.41 5.13 5.13 0 01.58 1.62z"/>
      <path class="cls-2" d="M60.06 9.59c-2.3-2.07-5.93-.42-7.91 1.29l.42-.48c-1.88-.47-3.69.81-4.86 2.16a53.61 53.61 0 0112.76 5.67c1.11-2.54 1.98-6.51-.41-8.64z"/>
      <path d="M71.51 18.68c.88-.05 1.77-.12 2.64-.15a25.35 25.35 0 003.7-.05 3.59 3.59 0 002.71-3.38c0-1.9-1.88-1.68-3-1.12a64 64 0 01-5.75 3c0-.29-.12-.35-.12-.35l-.08.05a4.51 4.51 0 01-1.07 3.23c.46-.15.79-.78.97-1.23zm.29-1.53A27.27 27.27 0 0076.51 15c.84-.48 3.26-1.94 3.52-.12.23 1.65-1.36 2.89-2.79 3.24a13.67 13.67 0 01-2.86.19c-.92 0-1.83.08-2.74.15a2.89 2.89 0 00.16-1.31zM53.8 60.55a5.18 5.18 0 003.13-.73 5.46 5.46 0 002.61-3.51 8 8 0 01-2.32 3 10.13 10.13 0 01-3.42 1.24zM0 24.64v.45-1.23a3.29 3.29 0 000 .78zM59.4 135.51z"/>
      <path d="M137.41 69.65c-1.77.27-3.55.56-5.3 1a17.68 17.68 0 00-4.33 1.74c-1.74.74-3.67 2-5.62 2a5.24 5.24 0 01-3.36-1.49 55.89 55.89 0 01-4.27-4.3c-1.84-1.94-3.69-3.87-5.69-5.65 4-.88 7.81-2.51 9.25-6.63 2.07-4.65.29-10.35-2.14-14.49-2.34-4-5.81-8.37-10.6-9.33-2.86-.89-5.81.43-8.37 1.62a17.47 17.47 0 00-7.67 6.09 29.6 29.6 0 01-3.54-1.28c-.71-3.14-2-5.1-4.1-5.91a28.53 28.53 0 00-2.33-11 7.46 7.46 0 006.26-2.2c1.89-2 2.63-5.3.91-7.63a7.41 7.41 0 00-3.16-2.33 6.63 6.63 0 00-4-.71c-2.29.64-3.45 3.32-5.17 4.76a30.39 30.39 0 00-7.51-6.57A5.66 5.66 0 0069 5.4a4.59 4.59 0 001.94-3c.05-.25.53-2.23.2-2.37a17.53 17.53 0 00-.39 2c-.16.85-.45 2.27-1.39 2.61a3.88 3.88 0 00-1-3.91 2.67 2.67 0 00-3.49.37 3.24 3.24 0 00-.31 3.79 3.16 3.16 0 003.69.92 5.5 5.5 0 01-2.11 1.3C60.2 4 54.64 6.13 50.05 9.64a7.9 7.9 0 00-3.23 2.67 48.53 48.53 0 00-19.55-1.42C25.09 9.06 20.94 7 18.14 8.67c-2.05 1.22-2.37 4-2.36 6.19A33 33 0 007 22c-2.14-.81-6.39-.84-6.9 1.91v1.23a12.85 12.85 0 002.64 5.44C.71 38.83 4.27 47.68 10.8 53a25.49 25.49 0 0010.63 5c4.36 1 9.1 1.39 13.22-.63.54.43 1.18.91 1.92 1.39a4.27 4.27 0 00-.27.75c-7.74.07-16.35 3.14-21.66 5.18-6 2-4.58 9.41-2 13.66a14.82 14.82 0 0015.6 7.26 18.7 18.7 0 00-3.79 6.67 28.74 28.74 0 00-.62 7.8 17.94 17.94 0 01-1.54 7.35c-.58 1.09-1.76 2.07-.47 3.13s2.88-.78 3.49-1.89a17.8 17.8 0 001.86-5.67c.34-.1.7-.2 1.07-.29a18.91 18.91 0 01-1.58 6.44c-.29.64-1 1.59-.47 2.28a3.67 3.67 0 002.19 1c.84.13.85-.65.93-1.28a20.83 20.83 0 01.53-2.34c.57-2.09 1.84-4.38 1.49-6.58h1a10.93 10.93 0 01-.13 3.61 20.53 20.53 0 01-1.36 3.54c-.38.81-1.21 1.83-1.23 2.75s1.2 1 1.84 1.13c.48.07 2 .47 2-.42a14 14 0 01-.19-2.89 14 14 0 011.37-3.47 9.77 9.77 0 00.5-3.88 16.4 16.4 0 011.8.65c.06.2.12.41.16.61s0 .48.07.72c-.05 2-1.29 4-2 5.79a6.91 6.91 0 00-.71 2.62c0 .7 1.68 1 2.21 1.11-.5 1.66-1.44 3.14-2.1 4.75a24.38 24.38 0 00-1.46 4.87c-.51 2.83-.45 6.09 1.43 8.44 1.64 2.53 4.67 3.87 7.48 4.64a34.89 34.89 0 0011.15 1 36 36 0 0010.77-2.14c3.13-1.19 6.51-3.32 6.79-7a10.23 10.23 0 00-1.45-5.49 17 17 0 00-4.85-5.81c.32-.43.65-.84 1-1.25 6 4.88 14.22 7.09 19.74 5 9-2.91 10.91-13.51 9.9-21.65 1.65.08 3.32.07 5 0 1.08 0 2.54-.23 3.56.25a3.49 3.49 0 002.88 1.57 5.48 5.48 0 002-.29c.24-.09 1.27-.41.75-.65a3 3 0 01-1.47-1.14 13 13 0 01-.63-1.71 3.27 3.27 0 00-3.5-2.3c.24-.82-1.45.15-1.68.3-.73.46-1.39 1-2.14 1.45a4.33 4.33 0 01-5.23-.38 38.91 38.91 0 00-2.43-8.32 30.54 30.54 0 003.48-10.7c2.32 2.07 4.18 4.68 6.29 7a43.12 43.12 0 005.42 5.13 18.22 18.22 0 005.26 2.88 37.74 37.74 0 007.38 1.18 32.1 32.1 0 017.78 2.55c1.18.61 2.63 2.07 3.87.79s-1.16-3.24-2.14-3.87a20 20 0 00-5.73-2.62c-.07-.29-.13-.6-.19-.91a17.17 17.17 0 013.55.7 19.65 19.65 0 013.23 1.57c.58.33 1.74 1.33 2.46 1s.94-1.62 1-2.21c.09-.87-1-1.06-1.64-1.24s-1.48-.46-2.21-.73c-2.23-.82-4.25-1.92-6.69-2V85.7a12.31 12.31 0 013.53.39 24.76 24.76 0 013.59 1.55c1 .5 1.88 1.21 2.88 1.62s1.49-.6 1.75-1.46c.18-.55.89-2.11-.1-2.3s-2.28.1-3.43-.18a13.6 13.6 0 01-3.45-1.78c-1.3-.74-2.7-.63-4.15-.69a15.57 15.57 0 01.71-1.5c2.34-.28 4.83 1.2 6.84 2.2a11.77 11.77 0 003.38 1.25c.91.15 1.08-.45 1.32-1.24.15-.51.57-1.8.08-2.26-.24-.23-1-.17-1.32-.22-.68-.09-1.36-.2-2-.35-2.28-.51-4.16-1.9-6.49-2.18l.36-.49a24.39 24.39 0 017 1 12.93 12.93 0 002.71.92c.85.08 1.09-.75 1.23-1.42s.41-1.49-.3-1.86a7 7 0 00-2.37-.5c-.8-.11-1.61-.21-2.4-.37-1.18-.24-2.33-.65-3.52-.8l1-1.28a19.16 19.16 0 015.13 0c.74.08 2.9.58 3.37-.32a7 7 0 00.68-2.45c.13-1.2-.84-1.5-1.91-1.33zM67 5.63A2.32 2.32 0 0164.58 4 2.68 2.68 0 0165.92.82c2.58-1.14 3.92 2.38 2.82 4.3a3.33 3.33 0 01-1.74.51zm36.38 90a3 3 0 012.51.71 8.27 8.27 0 011.48 2.74 2.31 2.31 0 001 1c.42.23.52.2 0 .48a3.8 3.8 0 01-2.85.19c-1-.34-1.15-1.29-1.91-1.79-.39-.46-1.7-.52-1.73-1.19s1.12-1.55 1.47-2.16zM98.06 98c1.81-.26 2.72-2 4.45-2.4.74-.16-.72 1.07-.86 1.24-.31.36-1 1.29-.34 1.68s1.48 0 1.92.52c.15.19-.32.11-.36.1a5.54 5.54 0 00-1.35-.08 31.22 31.22 0 01-6.62-.33c-.06-.44-.13-.88-.2-1.33a4.44 4.44 0 003.36.6zm4.17-64c3.45-.74 6.69.7 9.16 3.07a22.1 22.1 0 016.73 13.1 9.11 9.11 0 01-1.49 6.41 7.56 7.56 0 01-5 2.7c-3.65.52-6.66-1.9-8.83-4.57-3.17-3.88-5.94-8.84-5.57-14 .25-3.03 1.82-6.03 5-6.71zm-4 .78a9.11 9.11 0 00-1.5 3.22c-.83-.16-1.67-.67-1.09-1.59a5 5 0 012.64-1.62zM88.87 41a13.76 13.76 0 00-.87 2 22.64 22.64 0 017.82-7.47c-.51.41-1.4 1.25-1.17 2s1.31 1 1.95 1.08c-1.29 5.7 1.13 11.2 4.51 15.67 2.77 3.65 7 7.27 11.88 6.15a16.81 16.81 0 01-5.06 1.8 22.8 22.8 0 00-9.19-5.07c-3.45-.85-6.92-.14-10.41-.57 1.59-3.7.68-7.53-.63-11.16a5.13 5.13 0 00-.58-1.6 27 27 0 01-1.05-3.41c.93.19 1.93.38 2.8.58zM42.83 64a26.57 26.57 0 0017.05.89c1.26 2 2.83 4.27 5.05 5.35a29.39 29.39 0 01-6.21-.24l-1.39-.2A53.24 53.24 0 0143 65.63v-.06l-.23-.1.23.09c0-.5-.09-1.01-.17-1.56zm23.41 6.69c.9-.13 1.77-.28 2.63-.47a24.39 24.39 0 01-2.72 0c-2.49-1.24-4-3.35-5.47-5.61a27.13 27.13 0 009.73-5.33c4.14 1.64 8.9 3.11 13.38 2.37a24.55 24.55 0 01-3.41 3.79 23.4 23.4 0 007.45-8q.73.08 1.47.09c-4.13 4-6.53 9.5-9.24 14.43-5.76.04-11.39.2-17.06-.96a28.14 28.14 0 003.24-.28zM87.77 49a10.11 10.11 0 01-.28 6.63 29 29 0 01-3.26 5.5l-.37.51.37-.5c-4.36.7-9.19-.79-13.25-2.27.5-.45 1-.92 1.45-1.4a30 30 0 005.47-8c3.1 1.26 6.98 1.47 9.87-.47zM80.7 72.07c1.45-2.63 2.67-5.37 4.22-7.95a49.81 49.81 0 014.91-6.49c1.72 0 3.44-.18 5.17-.08a16.15 16.15 0 015.26 1.18s.06 0 0 0l1.13.51a27.51 27.51 0 00-4.31 4c-2.63 3.17-3.86 7-5.44 10.73-3.48-1.74-7.14-1.89-11-1.92zm4.57-31.92c.12.54.21 1.09.35 1.62-.45-.5-1-1.07-1.69-1.75.43 0 .87 0 1.3-.05.01.03.03.12.04.18zm-3.6-6.53c1.61.86 2.65 2.54 3.3 5 .06.26.13.52.19.8h-.07c0 .2.1.39.14.59 0-.2-.09-.39-.14-.59a15.38 15.38 0 01-1.65.17c-.1-.11-1-1.06-1.1-.95s.47.87.52.94c-.56 0-1.14-.07-1.72-.13a33 33 0 00.53-5.83zM83.19 40a44.68 44.68 0 013.56 5.2 26.85 26.85 0 01.89 3.24c-2.81 1.89-6.46 1.73-9.55.65a40.57 40.57 0 003-9.29c.7.1 1.41.2 2.1.2zM52.57 10.4l-.42.48c2-1.71 5.61-3.36 7.91-1.29s1.52 6.1.41 8.64a53.61 53.61 0 00-12.76-5.67c1.17-1.35 2.98-2.63 4.86-2.16zM4.31 22.12a8.45 8.45 0 012.31.24 17.4 17.4 0 00-1.1 1.51 4.76 4.76 0 00-1.42-.3 2.45 2.45 0 00-2.24.63 1.15 1.15 0 00-.16 1c.11.49.57.8.71 1.22a9.92 9.92 0 01-.55-1.24c-.16-.86.49-1.3 1.27-1.37-1.19.74.22 2.39.85 3a23.34 23.34 0 00-1 2.59c-1.55-2.32-4.3-7.17 1.33-7.28zm-1.14 2.24c.28-.52 1.12-.47 2.11-.11-.3.49-.58 1-.83 1.51a6.5 6.5 0 01-1.28-1.4zM4.35 26c-.08.15-.15.3-.22.45-.7-.59-1.15-1.3-1-1.84A4 4 0 004.35 26zm31 31a25 25 0 003.89-2.71c1.37 1.27 3.83 3.64 5.84 2.91 2.55 2.29 7.13 2.79 9.67.2 3.22-3.29 3.1-8.43 1.46-12.43A31.48 31.48 0 0053 39.09c1.1-1.37 2-2.56 2.81-3.66-3.61 3.37-6.71 7.13-10 10.8s-6.74 7.25-11 9.57a14.38 14.38 0 01-7.33 1.85 33.22 33.22 0 01-6.59-.77 22.63 22.63 0 01-10.54-5.56 22.91 22.91 0 01-7.27-18.63c.8-7.69 6.27-13.27 12.73-16.86a22.87 22.87 0 00.45 3.37l.26.14C16 16 15.76 9.15 20.81 9.25c4.64.09 8.86 4.08 10.35 8.27l.16-.13a12.33 12.33 0 00-3.23-5.75 45.08 45.08 0 0118.78 1.69A70.93 70.93 0 0163 20.14l.07-.17s-.66-.51-1.87-1.3c1.26-2.64 2.28-6.65.19-9.18s-5.79-1.8-8.08.22A3.6 3.6 0 0052 9.32a14.47 14.47 0 0111.13-2.05c4.1 1.09 7.52 4.18 10.24 7.31a18.77 18.77 0 01-4 2 9.56 9.56 0 005.21-1.79c1.37-1.06 2.35-2.55 3.79-3.53 2.45-1.67 6.71-.45 7.74 2.37 1.26 3.43-1.7 7-5.14 7.24-2.12.15-4.19-.54-6.31-.62a10.4 10.4 0 00-3.88.59c2.47-.36 4.89.52 7.32 1 8.43 18.4-5.75 44-26.93 43.22a20.76 20.76 0 01-9-2.1A9.8 9.8 0 0139 60.13a19.66 19.66 0 003 1.17l.85.22-.86-.4a44.1 44.1 0 01-6.6-4.12zM48 53.64a2.06 2.06 0 001.3-.12 6.44 6.44 0 003.12-3.38 4.9 4.9 0 00-1-4.68c.48-.31 1.32-.87 1.88-.42a4.41 4.41 0 011 2.08 10.82 10.82 0 01.68 5.5 6 6 0 01-3.09 3.65c-1.62.84-3-.31-4.08-1.47a1.54 1.54 0 00.19-1.16zm4.15 3.2a6.33 6.33 0 003.42-4.5 13.6 13.6 0 00-.95-5.8 4.75 4.75 0 00-1.12-2.14c-.73-.56-1.79.31-2.38.68a17.06 17.06 0 00-1.66-1.74c1-1.18 2-2.36 3-3.56a37.14 37.14 0 012.64 5c.09.23.19.45.28.68 1.37 3.42 2.16 7.47-.43 10.53a6 6 0 01-4.26 2.33A7.05 7.05 0 0146 56.74a5.4 5.4 0 001.61-1.54c1.16 1.3 2.71 2.6 4.52 1.64zm-1.75-5.69c-.89 1.19-2.07 2-3.56 1.33a9.26 9.26 0 01-3-2.62l.66-.72c1.62-1.81 3.18-3.68 4.68-5.46 2.02 2.19 3.19 4.81 1.22 7.47zm-2.8 2.39a4.67 4.67 0 01-3.08 2.62c-1.62.38-3.55-1.39-4.68-2.37 1.19-1 2.32-2.16 3.41-3.31a12.69 12.69 0 004.35 3.06zm-5.27 11.73l-.13-.06c-2.18-1-5.64-3.22-5-6.07.28.17.57.33.86.49a10.9 10.9 0 004.12 4.08zm-27.06.65c.19-.07 2.37-.74 2.42.54 0 .66-.66 1.26-1.11 1.64a7.33 7.33 0 01-4.87 1.72 4.57 4.57 0 013.56-3.9zm11.64 23.13a23.69 23.69 0 012.56-3.8 15.23 15.23 0 001.72-.72 25.08 25.08 0 00.65 5.47c-1.68-.37-3.33-.69-4.89-1-.09.16-.18.31-.26.47.08-.16.17-.31.26-.47zm9.61 13.14l-.63-.24a5.71 5.71 0 00-.71-.19 4.4 4.4 0 01.23-.82c-1 1.25-.38 2.85-.65 4.28-.23 1.24-1.14 2.22-1.57 3.38a6.26 6.26 0 00-.11 3.56c.19 1.11-.9.76-1.64.62s-1.62-.23-1.28-1.08c.43-1.1 1.12-2.11 1.61-3.19a11.89 11.89 0 001.18-3.6 12 12 0 00-.72-4.17c0 .11 0 .4.06.78-.36 0-.71 0-1.07.07a2.7 2.7 0 00-.16-.42c-.11 1-.06 1.94-.22 2.9a27.58 27.58 0 01-1.09 3.7c-.21.71-.36 1.43-.53 2.15-.11.49-.05 1.93-.7 2.07-.49.1-1.57-.21-1.73-.76-.24-.76.6-1.9.87-2.59a13 13 0 00.79-7.33c0 .12-.06.37-.11.79l-1 .27a5 5 0 01.28-.74c-.78 1.11-3.45 11.12-5.59 8.21-.28-.37-.4-.68-.08-1a6.77 6.77 0 001.31-2.05 28.77 28.77 0 001.34-8.69v-.56a19.88 19.88 0 012-8c1.69.29 3.49.64 5.32 1.06a17.91 17.91 0 004.37 7.79c.16 1.22.33 2.43.49 3.65a7.78 7.78 0 00-.6-.64h-.09s.24.33.43.79zM35.06 113c-.91-.49 1.94-5.84 2.22-6.57a23.35 23.35 0 01-.55 7.24 8.32 8.32 0 01-1.67-.67zm23.38 22.87a27.69 27.69 0 01-7.65.73c-.21-2.94-.31-9.13 4-9 4.21.08 3.81 5.33 3.65 8.25zm5.28-1.93a23.91 23.91 0 01-3.59 1.36 29.36 29.36 0 01-.09-6.49c.17-1.38.66-3 2.06-3.58a3.12 3.12 0 013.21.75c1.41 1.27 1.87 3.28 2.15 5.09a10.76 10.76 0 01-3.74 2.85zm3.57-2.3a6.44 6.44 0 01-.55.47 6.44 6.44 0 00.55-.47 8.16 8.16 0 00.71-.74 8.16 8.16 0 01-.71.72zm20.34-13.85c-5.49 5.53-15.15 2.57-20.61-1.38a18.48 18.48 0 01-7-9.28 11.75 11.75 0 012.31-11.55A11.59 11.59 0 0173.4 92a20 20 0 0111 6.64c4.26 4.75 8.24 13.53 3.23 19.13zM63.87 89.7c1.34-.31 2.13.77 2.5 2.3a12.87 12.87 0 00-5 3.57c-.2-2.57.24-5.35 2.5-5.87zm3.14.74a2.51 2.51 0 012.45-2.57c1.92-.07 2.88 1.66 3.68 3.12a14.78 14.78 0 00-6.06.74c-.08-.39-.08-.82-.08-1.29zm24.63-3.09a2.53 2.53 0 00-1.11-1 33.53 33.53 0 012.47 7.8 44.63 44.63 0 011 8.06c.16 4.84-.79 9.9-4 13.67 1.6-4.8 0-10.37-2.46-14.61-2.94-5.15-7.79-9.47-13.84-10.22-1-1.83-1.89-4.06-4.29-4-1.47 0-3.35.87-3.29 2.58-1.22-1.74-3.75-.47-4.59 1-1 1.75-1 4.13-1.07 6.09a11.26 11.26 0 00-2 7.24c-1.65-6.16 1-13.56 6.63-16.75a19.46 19.46 0 0115.43-1.35c-6-2.86-15.94-1.92-20.41 4.09-.41-4.72-3-9.63-7.3-11.93a8 8 0 00-11.13 3.33c-2.19 4-2 9.09-.36 13.22s5.42 8.19 10.22 7.94A8.26 8.26 0 0057 99.93a17.55 17.55 0 002.37 8 19.11 19.11 0 005.25 7.42c-.35.44-.7.88-1 1.34a20.61 20.61 0 00-2.19-1.14 18.85 18.85 0 016.6 7c1.47 2.64 2.2 5.76.08 8.28-.34-2-.91-4.24-2.57-5.6a3.84 3.84 0 00-3.69-.84 4.32 4.32 0 00-2.45 3.66 28.88 28.88 0 00.06 7.43l-.45.12c.09-2 .24-4.59-.54-6.5a4.25 4.25 0 00-4.32-2.44c-4.66.41-4.16 6.49-4.19 9.84h.88c-4.13-.07-8.55-.86-12-3.18a9.16 9.16 0 01-4-10.26 18.08 18.08 0 012.13-5.62 17 17 0 001.76-5.77c.51-4-.11-7.94-.75-11.85a36.64 36.64 0 0012.72 7.48 41.71 41.71 0 01-10.64-7 21.42 21.42 0 01-6.55-9.58c-2.45-8-.72-17 2-24.66a44.88 44.88 0 00-4.31 17.32 13 13 0 01-7.33 1.34 13.93 13.93 0 01-6.14-2.46 14.38 14.38 0 01-5.68-11.63 8.15 8.15 0 005.44-1.91 3.36 3.36 0 001.16-2.1c0-.72-.76-1.18-1.51-1.4C23 63 30.85 60.34 36.34 61a6 6 0 002.19 2.69 22 22 0 003.63 2.42 43 43 0 0015.3 4.61c.88.1 1.76.18 2.64.22a45 45 0 009.88 2c3 .22 6 .11 8.91.07 5.61-.07 11.4.25 16 3.91a32.48 32.48 0 01-3.25 10.43zM57 98.48a9.68 9.68 0 01-1.13 1.18c-3.78 3.23-8.85 1.7-11.76-1.86a15.31 15.31 0 01-2.74-13.49c1.22-4.26 5-7.48 9.58-6.09s7.53 6.23 8.24 10.78a14 14 0 01.16 2A17.62 17.62 0 0057 98.48zm35.3-24.16A52.37 52.37 0 0196.16 66a26.33 26.33 0 015.93-6.48 26.93 26.93 0 015.49 3.66C103.19 67.47 100.23 73.33 98 79a19.54 19.54 0 00-5.7-4.68zm16.86 15.52a42.59 42.59 0 01-9-8.4l-.16-.18-1.5-1.75c2.2-5.8 5.06-11.54 9.5-16 3 2.56 5.49 5.73 8.45 8.39a40.62 40.62 0 00-4.25 8.1 56.1 56.1 0 00-3.09 9.78l.4.27zm29.1-17.16c-.38 1.26-3.73.54-4.61.5a12.12 12.12 0 00-3.4.16 6.63 6.63 0 00-2.25 1.28c.6-.2.81-.48 1.45-.69-.25.32-.54.68-.85 1a17.21 17.21 0 00-3.32.26c1.22.05 2.43-.06 3.66.11s2.52.61 3.78.89c.77.18 1.54.3 2.31.42.56.09 2.16 0 2.45.57a1.8 1.8 0 01-.67 1.94c-.86.33-2.25-.55-3.06-.79a15.32 15.32 0 00-8.11-.4h.46l-.36.46a15.76 15.76 0 00-1.79 0c1.18.22 2.43.3 3.59.62s2.33 1.18 3.59 1.58a23.9 23.9 0 004 .79c.33 0 .9 0 1 .4a2.54 2.54 0 01-.34 1.49c-.42.94-.75 1-1.71.68a23.63 23.63 0 01-3.6-1.6 17.42 17.42 0 00-3.74-1.68 4.88 4.88 0 00-3.9 1s.34-.12.83-.24a7.67 7.67 0 00-.51 1.22 3.2 3.2 0 01-.86-.28c1.27 1.11 3.07.6 4.59 1a22.44 22.44 0 013.44 1.78 6.93 6.93 0 003.79.53c1.23-.12.91.76.63 1.68s-.57 1.68-1.56 1.2c-1.18-.57-2.25-1.37-3.41-2a12.59 12.59 0 00-3.48-1.38 13.53 13.53 0 00-4.43.32h.82v1.07h-.87c1.16.17 2.31.31 3.44.59a31 31 0 013.73 1.4c.74.28 1.49.51 2.24.74.52.16 2 .23 2.24.83a1.68 1.68 0 01-.89 1.77c-.86.16-2-.82-2.77-1.16a14.79 14.79 0 00-7.51-1.45l.71.08c.06.3.12.6.18.88l-.71-.12-.13.11c2.25 1.27 4.8 1.93 7 3.28.93.56 3.07 2 1.38 3-.4.23-.74.34-1.09 0a7.74 7.74 0 00-1.89-1.42 29 29 0 00-8.47-2.18l-1.35-.2a22.18 22.18 0 01-8.3-2.79c1.59-6.18 3.61-12.52 7.33-17.79 1.33 1.2 3 2.48 5 2.49-.21.08-2.12.64-2.14 1 0 0 1.54-.35 1.64-.38a26.55 26.55 0 002.72-1 17.88 17.88 0 002.1-.8 17 17 0 014.69-2c1.21-.21 2.38-.63 3.57-.9a24 24 0 012.51-.46c.46-.06 1.24-.18 1.61.2s-.24 1.86-.4 2.39z"/>
      <path d="M67.29 131.62a6.44 6.44 0 01-.55.47 6.44 6.44 0 00.55-.47zM109.56 90.1l-.4-.27zM19.17 12.55c.37-.84 1.36-.89 2.15-.73-1.65.43-.91 2.68-.38 3.7.76 1.44 2 3 3.77 3.16 1 .11 2.27-.23 2.48-1.34.27-1.41-.82-2.91-1.8-3.8a2.49 2.49 0 00-.43-.36 7.09 7.09 0 00-2.22-1.26c-1-.38-2.35-.74-3.29-.09a1.64 1.64 0 00-.66 1.27c-.05.74.35 1.25.47 1.92a4 4 0 01-.09-2.47zm7 5c-.73 1.15-2.8.06-3.46-.56-.9-.84-2.55-2.82-1.8-4.18a6.13 6.13 0 005.31 4.67zm-1.62-3.93c1 .78 2.23 2.06 1.83 3.46a4.8 4.8 0 01-3.31-1.27 7.36 7.36 0 01-2-3.25c1.01-.87 2.76.51 3.51 1.1z"/>
      <path class="cls-2" d="M43 65.57v.06a53.24 53.24 0 0014.3 4.16l1.39.2a29.39 29.39 0 006.21.28c-2.22-1.08-3.79-3.33-5.05-5.35A26.57 26.57 0 0142.83 64c.08.52.14 1 .19 1.53l-.23-.09z"/>
      <path class="cls-4" d="M42.2 65.21l.13.06-.15-1.56a10.9 10.9 0 01-4.12-4.08c-.29-.16-.58-.32-.86-.49-.64 2.86 2.8 5.07 5 6.07z"/>
      <path class="cls-5" d="M50.94 78.22c-4.57-1.39-8.36 1.83-9.58 6.09A15.31 15.31 0 0044.1 97.8c2.91 3.56 8 5.09 11.76 1.86A9.68 9.68 0 0057 98.48 17.62 17.62 0 0159.35 91a14 14 0 00-.16-2c-.71-4.55-3.64-9.37-8.25-10.78z"/>
      <path class="cls-6" d="M59.4 135.51l.9-.27z"/>
      <path class="cls-7" d="M103.58 98.94c.76.5.94 1.45 1.91 1.79a3.8 3.8 0 002.85-.19c.5-.28.4-.25 0-.48a2.31 2.31 0 01-1-1 8.27 8.27 0 00-1.48-2.74 3 3 0 00-2.51-.71c-.38.61-1.54 1.36-1.5 2.14s1.34.73 1.73 1.19z"/>
      <path class="cls-8" d="M98.1 79c2.19-5.77 5-11.49 9.48-15.86a26.93 26.93 0 00-5.49-3.66A26.33 26.33 0 0096.16 66a52.37 52.37 0 00-3.86 8.32A23.22 23.22 0 0198.1 79z"/>
      <path class="cls-9" d="M102.84 54.72c2.17 2.67 5.18 5.09 8.83 4.57a7.56 7.56 0 005-2.7 9.11 9.11 0 001.49-6.41 22.1 22.1 0 00-6.73-13.1c-2.47-2.37-5.71-3.81-9.16-3.07-3.18.67-4.75 3.67-5 6.7-.37 5.17 2.4 10.13 5.57 14.01z"/>
      <path class="cls-10" d="M83.79 61.72c-4.48.74-9.24-.73-13.38-2.37a27.13 27.13 0 01-9.73 5.33c1.5 2.26 3 4.37 5.47 5.61a24.39 24.39 0 002.72 0c-.86.19-1.73.34-2.63.47A28.14 28.14 0 0163 71c5.68 1.18 11.31 1 17.07 1.08 2.71-4.93 5.11-10.47 9.24-14.43q-.73 0-1.47-.09a23.4 23.4 0 01-7.45 8 24.55 24.55 0 003.4-3.84z"/>
      <path class="cls-11" d="M117.93 92.92l1.35.2a29 29 0 018.47 2.18 7.74 7.74 0 011.89 1.42c.35.34.69.23 1.09 0 1.69-1-.45-2.44-1.38-3-2.22-1.35-4.77-2-7-3.28l.13-.11.71.12c-.06-.28-.12-.58-.18-.88l-.71-.08a14.79 14.79 0 017.48 1.51c.74.34 1.91 1.32 2.77 1.16a1.68 1.68 0 00.89-1.77c-.22-.6-1.72-.67-2.24-.83-.75-.23-1.5-.46-2.24-.74a31 31 0 00-3.73-1.4c-1.13-.28-2.28-.42-3.44-.59h.87v-1.07h-.82a13.53 13.53 0 014.43-.32 12.59 12.59 0 013.48 1.38c1.16.61 2.23 1.41 3.41 2 1 .48 1.31-.36 1.56-1.2s.6-1.8-.63-1.68a6.93 6.93 0 01-3.79-.53 22.44 22.44 0 00-3.44-1.78c-1.52-.4-3.32.11-4.59-1a3.2 3.2 0 00.86.28 7.67 7.67 0 01.51-1.22c-.49.12-.83.25-.83.24a4.88 4.88 0 013.9-1 17.42 17.42 0 013.74 1.68 23.63 23.63 0 003.6 1.6c1 .3 1.29.26 1.71-.68a2.54 2.54 0 00.34-1.49c-.09-.42-.66-.35-1-.4a23.9 23.9 0 01-4-.79c-1.26-.4-2.31-1.22-3.59-1.58s-2.41-.4-3.59-.62a15.76 15.76 0 011.79 0l.36-.46h-.46a15.32 15.32 0 018.11.4c.81.24 2.2 1.12 3.06.79a1.8 1.8 0 00.67-1.94c-.29-.62-1.89-.48-2.45-.57-.77-.12-1.54-.24-2.31-.42-1.26-.28-2.49-.73-3.78-.89s-2.44-.06-3.66-.11a17.21 17.21 0 013.32-.26c.31-.37.6-.73.85-1-.64.21-.85.49-1.45.69a6.63 6.63 0 012.27-1.28 12.12 12.12 0 013.4-.16c.88 0 4.23.76 4.61-.5.16-.53.91-1.65.42-2.16s-1.15-.26-1.61-.2a24 24 0 00-2.51.46c-1.19.27-2.36.69-3.57.9a17 17 0 00-4.69 2 17.88 17.88 0 01-2.1.8 26.55 26.55 0 01-2.72 1c-.1 0-1.65.43-1.64.38 0-.32 1.93-.88 2.14-1-2 0-3.69-1.29-5-2.49-3.72 5.27-5.74 11.61-7.33 17.79a22.18 22.18 0 008.29 2.5z"/>
      <path class="cls-2" d="M100.26 58.73A16.15 16.15 0 0095 57.55c-1.73-.1-3.45.13-5.17.08a49.81 49.81 0 00-4.91 6.49c-1.55 2.58-2.77 5.32-4.22 7.95 3.82 0 7.48.18 11 1.92 1.58-3.73 2.81-7.56 5.44-10.73a27.51 27.51 0 014.31-4l-1.13-.51s-.01 0-.06-.02z"/>
      <path class="cls-12" d="M78.89 73c-3 0-5.94.15-8.91-.07a45 45 0 01-9.88-2c-.88 0-1.76-.12-2.64-.22a43 43 0 01-15.3-4.61 22 22 0 01-3.63-2.42A6 6 0 0136.34 61c-7-1-19.88 4.12-19.11 4.23a2.27 2.27 0 011.42 1.39 3.36 3.36 0 01-1.16 2.1c-1.44 1.4-3.77 1.82-5.72 1.91-.26 4.3 2.52 9.1 6 11.63a13.93 13.93 0 006.14 2.46 13 13 0 007.33-1.34A44.88 44.88 0 0135.53 66c-2.74 7.68-4.47 16.68-2 24.66a21.42 21.42 0 006.55 9.58 41.71 41.71 0 0010.64 7 36.64 36.64 0 01-12.84-7.41c.64 3.91 1.26 7.89.75 11.85a17 17 0 01-1.76 5.77 18.08 18.08 0 00-2.13 5.62 9.16 9.16 0 004 10.26c3.49 2.32 7.91 3.11 12 3.18h-.88c0-3.35-.47-9.43 4.19-9.84a4.25 4.25 0 014.32 2.44c.78 1.91.63 4.48.54 6.5l.45-.12a28.88 28.88 0 01-.06-7.43 4.32 4.32 0 012.45-3.66 3.84 3.84 0 013.69.84c1.66 1.36 2.23 3.58 2.57 5.6 2.12-2.52 1.39-5.64-.08-8.28a18.85 18.85 0 00-6.6-7 20.61 20.61 0 012.19 1.14c.35-.46.7-.9 1-1.34a19.11 19.11 0 01-5.2-7.36 17.55 17.55 0 01-2.37-8 8.26 8.26 0 01-5.44 2.55c-4.8.25-8.57-3.8-10.22-7.94s-1.83-9.24.36-13.22A8 8 0 0152.78 78c4.28 2.3 6.89 7.21 7.3 11.93 4.47-6 14.38-7 20.41-4.09a19.46 19.46 0 00-15.43 1.35c-5.63 3.19-8.28 10.59-6.63 16.75a11.26 11.26 0 012-7.24c.07-2 .06-4.34 1.07-6.09.84-1.48 3.37-2.75 4.59-1C66.08 87.88 68 87 69.43 87c2.4 0 3.31 2.21 4.29 4 6 .75 10.9 5.07 13.84 10.22 2.42 4.24 4.06 9.81 2.46 14.61 3.22-3.77 4.17-8.83 4-13.67A44.63 44.63 0 0093 94.15a33.53 33.53 0 00-2.42-7.79 2.53 2.53 0 011.11 1 32.48 32.48 0 003.21-10.48c-4.61-3.67-10.4-3.99-16.01-3.88z"/>
      <path class="cls-2" d="M27 89.06c1.56.27 3.21.59 4.89 1a25.08 25.08 0 01-.65-5.49 15.23 15.23 0 01-1.72.72 23.69 23.69 0 00-2.56 3.8c-.09.16-.18.31-.26.47.07-.19.16-.34.3-.5z"/>
      <path class="cls-13" d="M36.85 102.07c-.16-1.22-.33-2.43-.49-3.65A17.91 17.91 0 0132 90.63c-1.83-.42-3.63-.77-5.32-1.06a19.88 19.88 0 00-2 8v.56a28.77 28.77 0 01-1.38 8.61 6.77 6.77 0 01-1.31 2.05c-.32.37-.2.68.08 1 2.14 2.91 4.81-7.1 5.59-8.21a5 5 0 00-.28.74l1-.27c.05-.42.09-.67.11-.79a13 13 0 01-.79 7.33c-.27.69-1.11 1.83-.87 2.59.16.55 1.24.86 1.73.76.65-.14.59-1.58.7-2.07.17-.72.32-1.44.53-2.15a27.58 27.58 0 001.09-3.7c.16-1 .11-1.93.22-2.9a2.7 2.7 0 01.16.42c.36 0 .71-.06 1.07-.07 0-.38 0-.67-.06-.78a12 12 0 01.72 4.17 11.89 11.89 0 01-1.18 3.6c-.49 1.08-1.18 2.09-1.61 3.19-.34.85.65 1 1.28 1.08s1.83.49 1.64-.62a6.26 6.26 0 01.11-3.56c.43-1.16 1.34-2.14 1.57-3.38.27-1.43-.34-3 .65-4.28a4.4 4.4 0 00-.23.82 5.71 5.71 0 01.71.19l.63.24c-.19-.46-.36-.79-.36-.79h.09a7.78 7.78 0 01.56.72z"/>
      <path class="cls-14" d="M37.28 106.41c-.28.73-3.13 6.08-2.22 6.57a8.32 8.32 0 001.67.67 23.35 23.35 0 00.55-7.24z"/>
      <path class="cls-15" d="M66.37 92c-.37-1.53-1.16-2.61-2.5-2.3-2.26.52-2.7 3.26-2.48 5.88A12.87 12.87 0 0166.37 92z"/>
      <path class="cls-16" d="M101.52 99.08a5.54 5.54 0 011.35.08s.51.09.36-.1c-.44-.56-1.38-.19-1.92-.52s0-1.32.34-1.68c.14-.17 1.6-1.4.86-1.24-1.73.39-2.64 2.14-4.45 2.4a4.44 4.44 0 01-3.36-.6c.07.45.14.89.2 1.33a31.22 31.22 0 006.62.33z"/>
      <path class="cls-17" d="M73.4 92a11.59 11.59 0 00-11.07 3.54A11.75 11.75 0 0060 107.11a18.48 18.48 0 007 9.28c5.46 4 15.12 6.91 20.61 1.38 5-5.6 1-14.38-3.21-19.11a20 20 0 00-11-6.66z"/>
      <path class="cls-18" d="M54.81 127.57c-4.33-.12-4.23 6.07-4 9a27.69 27.69 0 007.65-.73c.14-2.91.54-8.16-3.65-8.27z"/>
      <path class="cls-19" d="M67.29 131.62a8.16 8.16 0 00.71-.74 8.16 8.16 0 01-.71.74z"/>
      <path class="cls-20" d="M67.46 131.05c-.28-1.81-.74-3.82-2.15-5.09a3.12 3.12 0 00-3.21-.75c-1.4.58-1.89 2.2-2.06 3.58a29.36 29.36 0 00.09 6.49 23.91 23.91 0 003.59-1.36l-.16.07.16-.07a10.76 10.76 0 003.74-2.87z"/>
      <path class="cls-21" d="M73.14 91c-.8-1.46-1.76-3.19-3.68-3.12A2.51 2.51 0 0067 90.44c0 .47 0 .9.07 1.29a14.78 14.78 0 016.07-.73z"/>
      <path class="cls-22" d="M46 56.74a7.05 7.05 0 004.7 1.57A6 6 0 0054.93 56c2.59-3.06 1.8-7.11.43-10.53-.09-.23-.19-.45-.28-.68a37.14 37.14 0 00-2.64-5c-1 1.2-2 2.38-3 3.56a17.06 17.06 0 011.66 1.74c.59-.37 1.65-1.24 2.38-.68a4.75 4.75 0 011.12 2.14 13.6 13.6 0 01.95 5.8 6.33 6.33 0 01-3.42 4.5c-1.81 1-3.36-.34-4.55-1.64A5.4 5.4 0 0146 56.74z"/>
      <path class="cls-23" d="M20.94 12.85c-.75 1.36.9 3.34 1.8 4.18.66.62 2.73 1.71 3.46.56l.05-.07a6.13 6.13 0 01-5.31-4.67z"/>
      <path class="cls-2" d="M44.48 49.14l-.66.72a9.26 9.26 0 003 2.62c1.49.7 2.67-.14 3.56-1.33 2-2.66.8-5.28-1.24-7.47-1.48 1.78-3.04 3.65-4.66 5.46z"/>
      <path class="cls-24" d="M96.73 38a9.11 9.11 0 011.55-3.24 5 5 0 00-2.64 1.65c-.58.95.26 1.46 1.09 1.59z"/>
      <path class="cls-25" d="M23.1 15.85a4.8 4.8 0 003.31 1.27c.4-1.4-.85-2.68-1.83-3.46-.75-.59-2.5-2-3.45-1.06a7.36 7.36 0 001.97 3.25z"/>
      <path class="cls-26" d="M51.9 56.27a6 6 0 003.1-3.65 10.82 10.82 0 00-.68-5.5 4.41 4.41 0 00-1-2.08c-.56-.45-1.4.11-1.88.42a4.9 4.9 0 011 4.68 6.44 6.44 0 01-3.12 3.38 2.06 2.06 0 01-1.3.12 1.54 1.54 0 01-.16 1.16c1.03 1.2 2.42 2.31 4.04 1.47z"/>
      <path class="cls-27" d="M4 26.74c-.63-.57-2-2.22-.85-3-.78.07-1.43.51-1.27 1.37a9.92 9.92 0 00.55 1.24c-.14-.42-.6-.73-.71-1.22a1.15 1.15 0 01.16-1 2.45 2.45 0 012.24-.63 4.76 4.76 0 011.42.3 17.4 17.4 0 011.1-1.51 8.45 8.45 0 00-2.31-.24c-5.63.11-2.88 5-1.29 7.21A23.34 23.34 0 014 26.74z"/>
      <path class="cls-2" d="M39.84 53.79c1.13 1 3.06 2.75 4.68 2.37a4.67 4.67 0 003.08-2.62 12.69 12.69 0 01-4.35-3.06 58.98 58.98 0 01-3.41 3.31z"/>
      <path class="cls-28" d="M4.45 25.76c.25-.51.53-1 .83-1.51-1-.36-1.83-.41-2.11.11a6.5 6.5 0 001.28 1.4z"/>
      <path class="cls-29" d="M4.13 26.41c.07-.15.14-.3.22-.45a4 4 0 01-1.26-1.39c-.09.54.34 1.25 1.04 1.84z"/>
      <path class="cls-31" d="M87.9 48.92c-2.91 2-6.83 1.83-10 .59a30 30 0 01-5.47 8c-.47.48-1 1-1.45 1.4 4.06 1.48 8.89 3 13.25 2.27l-.37.5.37-.51a29 29 0 003.26-5.5 10.08 10.08 0 00.41-6.72c-.29-1.3-.05-.22 0-.03z"/>
      <path class="cls-32" d="M77.24 18.07c1.43-.35 3-1.59 2.79-3.24-.26-1.82-2.68-.36-3.52.12a27.27 27.27 0 01-4.71 2.2 2.89 2.89 0 01-.16 1.26c.91-.07 1.82-.12 2.74-.15a13.67 13.67 0 002.86-.19z"/>
      <path class="cls-33" d="M82.34 38.59c.13-.11 1 .84 1.1.95a15.38 15.38 0 001.65-.17c0 .2.1.39.14.59 0-.2-.09-.39-.14-.59h.07c-.06-.28-.13-.54-.19-.8-.65-2.41-1.69-4.09-3.3-5a33 33 0 01-.53 5.78c.58.06 1.16.11 1.72.13-.05-.02-.63-.8-.52-.89z"/>
      <path class="cls-34" d="M85.62 41.77c-.14-.53-.23-1.08-.35-1.62v-.18c-.43 0-.87.05-1.3.05.64.68 1.2 1.25 1.65 1.75z"/>
      <path class="cls-35" d="M87.7 45.37c1.31 3.63 2.22 7.46.63 11.16 3.49.43 7-.28 10.41.57a22.8 22.8 0 019.19 5.07 16.81 16.81 0 005.06-1.8c-4.92 1.12-9.11-2.5-11.88-6.15-3.38-4.47-5.8-10-4.51-15.67-.64-.13-1.73-.35-1.95-1.08s.66-1.6 1.17-2A22.64 22.64 0 0088 42.93a13.76 13.76 0 01.87-2c-.89-.15-1.84-.34-2.8-.59a27 27 0 001.05 3.41 5.13 5.13 0 01.58 1.62z"/>
      <path class="cls-2" d="M60.06 9.59c-2.3-2.07-5.93-.42-7.91 1.29l.42-.48c-1.88-.47-3.69.81-4.86 2.16a53.61 53.61 0 0112.76 5.67c1.11-2.54 1.98-6.51-.41-8.64z"/>
      <path d="M71.51 18.68c.88-.05 1.77-.12 2.64-.15a25.35 25.35 0 003.7-.05 3.59 3.59 0 002.71-3.38c0-1.9-1.88-1.68-3-1.12a64 64 0 01-5.75 3c0-.29-.12-.35-.12-.35l-.08.05a4.51 4.51 0 01-1.07 3.23c.46-.15.79-.78.97-1.23zm.29-1.53A27.27 27.27 0 0076.51 15c.84-.48 3.26-1.94 3.52-.12.23 1.65-1.36 2.89-2.79 3.24a13.67 13.67 0 01-2.86.19c-.92 0-1.83.08-2.74.15a2.89 2.89 0 00.16-1.31zM53.8 60.55a5.18 5.18 0 003.13-.73 5.46 5.46 0 002.61-3.51 8 8 0 01-2.32 3 10.13 10.13 0 01-3.42 1.24zM0 24.64v.45-1.23a3.29 3.29 0 000 .78zM59.4 135.51z"/>
      <path d="M137.41 69.65c-1.77.27-3.55.56-5.3 1a17.68 17.68 0 00-4.33 1.74c-1.74.74-3.67 2-5.62 2a5.24 5.24 0 01-3.36-1.49 55.89 55.89 0 01-4.27-4.3c-1.84-1.94-3.69-3.87-5.69-5.65 4-.88 7.81-2.51 9.25-6.63 2.07-4.65.29-10.35-2.14-14.49-2.34-4-5.81-8.37-10.6-9.33-2.86-.89-5.81.43-8.37 1.62a17.47 17.47 0 00-7.67 6.09 29.6 29.6 0 01-3.54-1.28c-.71-3.14-2-5.1-4.1-5.91a28.53 28.53 0 00-2.33-11 7.46 7.46 0 006.26-2.2c1.89-2 2.63-5.3.91-7.63a7.41 7.41 0 00-3.16-2.33 6.63 6.63 0 00-4-.71c-2.29.64-3.45 3.32-5.17 4.76a30.39 30.39 0 00-7.51-6.57A5.66 5.66 0 0069 5.4a4.59 4.59 0 001.94-3c.05-.25.53-2.23.2-2.37a17.53 17.53 0 00-.39 2c-.16.85-.45 2.27-1.39 2.61a3.88 3.88 0 00-1-3.91 2.67 2.67 0 00-3.49.37 3.24 3.24 0 00-.31 3.79 3.16 3.16 0 003.69.92 5.5 5.5 0 01-2.11 1.3C60.2 4 54.64 6.13 50.05 9.64a7.9 7.9 0 00-3.23 2.67 48.53 48.53 0 00-19.55-1.42C25.09 9.06 20.94 7 18.14 8.67c-2.05 1.22-2.37 4-2.36 6.19A33 33 0 007 22c-2.14-.81-6.39-.84-6.9 1.91v1.23a12.85 12.85 0 002.64 5.44C.71 38.83 4.27 47.68 10.8 53a25.49 25.49 0 0010.63 5c4.36 1 9.1 1.39 13.22-.63.54.43 1.18.91 1.92 1.39a4.27 4.27 0 00-.27.75c-7.74.07-16.35 3.14-21.66 5.18-6 2-4.58 9.41-2 13.66a14.82 14.82 0 0015.6 7.26 18.7 18.7 0 00-3.79 6.67 28.74 28.74 0 00-.62 7.8 17.94 17.94 0 01-1.54 7.35c-.58 1.09-1.76 2.07-.47 3.13s2.88-.78 3.49-1.89a17.8 17.8 0 001.86-5.67c.34-.1.7-.2 1.07-.29a18.91 18.91 0 01-1.58 6.44c-.29.64-1 1.59-.47 2.28a3.67 3.67 0 002.19 1c.84.13.85-.65.93-1.28a20.83 20.83 0 01.53-2.34c.57-2.09 1.84-4.38 1.49-6.58h1a10.93 10.93 0 01-.13 3.61 20.53 20.53 0 01-1.36 3.54c-.38.81-1.21 1.83-1.23 2.75s1.2 1 1.84 1.13c.48.07 2 .47 2-.42a14 14 0 01-.19-2.89 14 14 0 011.37-3.47 9.77 9.77 0 00.5-3.88 16.4 16.4 0 011.8.65c.06.2.12.41.16.61s0 .48.07.72c-.05 2-1.29 4-2 5.79a6.91 6.91 0 00-.71 2.62c0 .7 1.68 1 2.21 1.11-.5 1.66-1.44 3.14-2.1 4.75a24.38 24.38 0 00-1.46 4.87c-.51 2.83-.45 6.09 1.43 8.44 1.64 2.53 4.67 3.87 7.48 4.64a34.89 34.89 0 0011.15 1 36 36 0 0010.77-2.14c3.13-1.19 6.51-3.32 6.79-7a10.23 10.23 0 00-1.45-5.49 17 17 0 00-4.85-5.81c.32-.43.65-.84 1-1.25 6 4.88 14.22 7.09 19.74 5 9-2.91 10.91-13.51 9.9-21.65 1.65.08 3.32.07 5 0 1.08 0 2.54-.23 3.56.25a3.49 3.49 0 002.88 1.57 5.48 5.48 0 002-.29c.24-.09 1.27-.41.75-.65a3 3 0 01-1.47-1.14 13 13 0 01-.63-1.71 3.27 3.27 0 00-3.5-2.3c.24-.82-1.45.15-1.68.3-.73.46-1.39 1-2.14 1.45a4.33 4.33 0 01-5.23-.38 38.91 38.91 0 00-2.43-8.32 30.54 30.54 0 003.48-10.7c2.32 2.07 4.18 4.68 6.29 7a43.12 43.12 0 005.42 5.13 18.22 18.22 0 005.26 2.88 37.74 37.74 0 007.38 1.18 32.1 32.1 0 017.78 2.55c1.18.61 2.63 2.07 3.87.79s-1.16-3.24-2.14-3.87a20 20 0 00-5.73-2.62c-.07-.29-.13-.6-.19-.91a17.17 17.17 0 013.55.7 19.65 19.65 0 013.23 1.57c.58.33 1.74 1.33 2.46 1s.94-1.62 1-2.21c.09-.87-1-1.06-1.64-1.24s-1.48-.46-2.21-.73c-2.23-.82-4.25-1.92-6.69-2V85.7a12.31 12.31 0 013.53.39 24.76 24.76 0 013.59 1.55c1 .5 1.88 1.21 2.88 1.62s1.49-.6 1.75-1.46c.18-.55.89-2.11-.1-2.3s-2.28.1-3.43-.18a13.6 13.6 0 01-3.45-1.78c-1.3-.74-2.7-.63-4.15-.69a15.57 15.57 0 01.71-1.5c2.34-.28 4.83 1.2 6.84 2.2a11.77 11.77 0 003.38 1.25c.91.15 1.08-.45 1.32-1.24.15-.51.57-1.8.08-2.26-.24-.23-1-.17-1.32-.22-.68-.09-1.36-.2-2-.35-2.28-.51-4.16-1.9-6.49-2.18l.36-.49a24.39 24.39 0 017 1 12.93 12.93 0 002.71.92c.85.08 1.09-.75 1.23-1.42s.41-1.49-.3-1.86a7 7 0 00-2.37-.5c-.8-.11-1.61-.21-2.4-.37-1.18-.24-2.33-.65-3.52-.8l1-1.28a19.16 19.16 0 015.13 0c.74.08 2.9.58 3.37-.32a7 7 0 00.68-2.45c.13-1.2-.84-1.5-1.91-1.33zM67 5.63A2.32 2.32 0 0164.58 4 2.68 2.68 0 0165.92.82c2.58-1.14 3.92 2.38 2.82 4.3a3.33 3.33 0 01-1.74.51zm36.38 90a3 3 0 012.51.71 8.27 8.27 0 011.48 2.74 2.31 2.31 0 001 1c.42.23.52.2 0 .48a3.8 3.8 0 01-2.85.19c-1-.34-1.15-1.29-1.91-1.79-.39-.46-1.7-.52-1.73-1.19s1.12-1.55 1.47-2.16zM98.06 98c1.81-.26 2.72-2 4.45-2.4.74-.16-.72 1.07-.86 1.24-.31.36-1 1.29-.34 1.68s1.48 0 1.92.52c.15.19-.32.11-.36.1a5.54 5.54 0 00-1.35-.08 31.22 31.22 0 01-6.62-.33c-.06-.44-.13-.88-.2-1.33a4.44 4.44 0 003.36.6zm4.17-64c3.45-.74 6.69.7 9.16 3.07a22.1 22.1 0 016.73 13.1 9.11 9.11 0 01-1.49 6.41 7.56 7.56 0 01-5 2.7c-3.65.52-6.66-1.9-8.83-4.57-3.17-3.88-5.94-8.84-5.57-14 .25-3.03 1.82-6.03 5-6.71zm-4 .78a9.11 9.11 0 00-1.5 3.22c-.83-.16-1.67-.67-1.09-1.59a5 5 0 012.64-1.62zM88.87 41a13.76 13.76 0 00-.87 2 22.64 22.64 0 017.82-7.47c-.51.41-1.4 1.25-1.17 2s1.31 1 1.95 1.08c-1.29 5.7 1.13 11.2 4.51 15.67 2.77 3.65 7 7.27 11.88 6.15a16.81 16.81 0 01-5.06 1.8 22.8 22.8 0 00-9.19-5.07c-3.45-.85-6.92-.14-10.41-.57 1.59-3.7.68-7.53-.63-11.16a5.13 5.13 0 00-.58-1.6 27 27 0 01-1.05-3.41c.93.19 1.93.38 2.8.58zM42.83 64a26.57 26.57 0 0017.05.89c1.26 2 2.83 4.27 5.05 5.35a29.39 29.39 0 01-6.21-.24l-1.39-.2A53.24 53.24 0 0143 65.63v-.06l-.23-.1.23.09c0-.5-.09-1.01-.17-1.56zm23.41 6.69c.9-.13 1.77-.28 2.63-.47a24.39 24.39 0 01-2.72 0c-2.49-1.24-4-3.35-5.47-5.61a27.13 27.13 0 009.73-5.33c4.14 1.64 8.9 3.11 13.38 2.37a24.55 24.55 0 01-3.41 3.79 23.4 23.4 0 007.45-8q.73.08 1.47.09c-4.13 4-6.53 9.5-9.24 14.43-5.76.04-11.39.2-17.06-.96a28.14 28.14 0 003.24-.28zM87.77 49a10.11 10.11 0 01-.28 6.63 29 29 0 01-3.26 5.5l-.37.51.37-.5c-4.36.7-9.19-.79-13.25-2.27.5-.45 1-.92 1.45-1.4a30 30 0 005.47-8c3.1 1.26 6.98 1.47 9.87-.47zM80.7 72.07c1.45-2.63 2.67-5.37 4.22-7.95a49.81 49.81 0 014.91-6.49c1.72 0 3.44-.18 5.17-.08a16.15 16.15 0 015.26 1.18s.06 0 0 0l1.13.51a27.51 27.51 0 00-4.31 4c-2.63 3.17-3.86 7-5.44 10.73-3.48-1.74-7.14-1.89-11-1.92zm4.57-31.92c.12.54.21 1.09.35 1.62-.45-.5-1-1.07-1.69-1.75.43 0 .87 0 1.3-.05.01.03.03.12.04.18zm-3.6-6.53c1.61.86 2.65 2.54 3.3 5 .06.26.13.52.19.8h-.07c0 .2.1.39.14.59 0-.2-.09-.39-.14-.59a15.38 15.38 0 01-1.65.17c-.1-.11-1-1.06-1.1-.95s.47.87.52.94c-.56 0-1.14-.07-1.72-.13a33 33 0 00.53-5.83zM83.19 40a44.68 44.68 0 013.56 5.2 26.85 26.85 0 01.89 3.24c-2.81 1.89-6.46 1.73-9.55.65a40.57 40.57 0 003-9.29c.7.1 1.41.2 2.1.2zM52.57 10.4l-.42.48c2-1.71 5.61-3.36 7.91-1.29s1.52 6.1.41 8.64a53.61 53.61 0 00-12.76-5.67c1.17-1.35 2.98-2.63 4.86-2.16zM4.31 22.12a8.45 8.45 0 012.31.24 17.4 17.4 0 00-1.1 1.51 4.76 4.76 0 00-1.42-.3 2.45 2.45 0 00-2.24.63 1.15 1.15 0 00-.16 1c.11.49.57.8.71 1.22a9.92 9.92 0 01-.55-1.24c-.16-.86.49-1.3 1.27-1.37-1.19.74.22 2.39.85 3a23.34 23.34 0 00-1 2.59c-1.55-2.32-4.3-7.17 1.33-7.28zm-1.14 2.24c.28-.52 1.12-.47 2.11-.11-.3.49-.58 1-.83 1.51a6.5 6.5 0 01-1.28-1.4zM4.35 26c-.08.15-.15.3-.22.45-.7-.59-1.15-1.3-1-1.84A4 4 0 004.35 26zm31 31a25 25 0 003.89-2.71c1.37 1.27 3.83 3.64 5.84 2.91 2.55 2.29 7.13 2.79 9.67.2 3.22-3.29 3.1-8.43 1.46-12.43A31.48 31.48 0 0053 39.09c1.1-1.37 2-2.56 2.81-3.66-3.61 3.37-6.71 7.13-10 10.8s-6.74 7.25-11 9.57a14.38 14.38 0 01-7.33 1.85 33.22 33.22 0 01-6.59-.77 22.63 22.63 0 01-10.54-5.56 22.91 22.91 0 01-7.27-18.63c.8-7.69 6.27-13.27 12.73-16.86a22.87 22.87 0 00.45 3.37l.26.14C16 16 15.76 9.15 20.81 9.25c4.64.09 8.86 4.08 10.35 8.27l.16-.13a12.33 12.33 0 00-3.23-5.75 45.08 45.08 0 0118.78 1.69A70.93 70.93 0 0163 20.14l.07-.17s-.66-.51-1.87-1.3c1.26-2.64 2.28-6.65.19-9.18s-5.79-1.8-8.08.22A3.6 3.6 0 0052 9.32a14.47 14.47 0 0111.13-2.05c4.1 1.09 7.52 4.18 10.24 7.31a18.77 18.77 0 01-4 2 9.56 9.56 0 005.21-1.79c1.37-1.06 2.35-2.55 3.79-3.53 2.45-1.67 6.71-.45 7.74 2.37 1.26 3.43-1.7 7-5.14 7.24-2.12.15-4.19-.54-6.31-.62a10.4 10.4 0 00-3.88.59c2.47-.36 4.89.52 7.32 1 8.43 18.4-5.75 44-26.93 43.22a20.76 20.76 0 01-9-2.1A9.8 9.8 0 0139 60.13a19.66 19.66 0 003 1.17l.85.22-.86-.4a44.1 44.1 0 01-6.6-4.12zM48 53.64a2.06 2.06 0 001.3-.12 6.44 6.44 0 003.12-3.38 4.9 4.9 0 00-1-4.68c.48-.31 1.32-.87 1.88-.42a4.41 4.41 0 011 2.08 10.82 10.82 0 01.68 5.5 6 6 0 01-3.09 3.65c-1.62.84-3-.31-4.08-1.47a1.54 1.54 0 00.19-1.16zm4.15 3.2a6.33 6.33 0 003.42-4.5 13.6 13.6 0 00-.95-5.8 4.75 4.75 0 00-1.12-2.14c-.73-.56-1.79.31-2.38.68a17.06 17.06 0 00-1.66-1.74c1-1.18 2-2.36 3-3.56a37.14 37.14 0 012.64 5c.09.23.19.45.28.68 1.37 3.42 2.16 7.47-.43 10.53a6 6 0 01-4.26 2.33A7.05 7.05 0 0146 56.74a5.4 5.4 0 001.61-1.54c1.16 1.3 2.71 2.6 4.52 1.64zm-1.75-5.69c-.89 1.19-2.07 2-3.56 1.33a9.26 9.26 0 01-3-2.62l.66-.72c1.62-1.81 3.18-3.68 4.68-5.46 2.02 2.19 3.19 4.81 1.22 7.47zm-2.8 2.39a4.67 4.67 0 01-3.08 2.62c-1.62.38-3.55-1.39-4.68-2.37 1.19-1 2.32-2.16 3.41-3.31a12.69 12.69 0 004.35 3.06zm-5.27 11.73l-.13-.06c-2.18-1-5.64-3.22-5-6.07.28.17.57.33.86.49a10.9 10.9 0 004.12 4.08zm-27.06.65c.19-.07 2.37-.74 2.42.54 0 .66-.66 1.26-1.11 1.64a7.33 7.33 0 01-4.87 1.72 4.57 4.57 0 013.56-3.9zm11.64 23.13a23.69 23.69 0 012.56-3.8 15.23 15.23 0 001.72-.72 25.08 25.08 0 00.65 5.47c-1.68-.37-3.33-.69-4.89-1-.09.16-.18.31-.26.47.08-.16.17-.31.26-.47zm9.61 13.14l-.63-.24a5.71 5.71 0 00-.71-.19 4.4 4.4 0 01.23-.82c-1 1.25-.38 2.85-.65 4.28-.23 1.24-1.14 2.22-1.57 3.38a6.26 6.26 0 00-.11 3.56c.19 1.11-.9.76-1.64.62s-1.62-.23-1.28-1.08c.43-1.1 1.12-2.11 1.61-3.19a11.89 11.89 0 001.18-3.6 12 12 0 00-.72-4.17c0 .11 0 .4.06.78-.36 0-.71 0-1.07.07a2.7 2.7 0 00-.16-.42c-.11 1-.06 1.94-.22 2.9a27.58 27.58 0 01-1.09 3.7c-.21.71-.36 1.43-.53 2.15-.11.49-.05 1.93-.7 2.07-.49.1-1.57-.21-1.73-.76-.24-.76.6-1.9.87-2.59a13 13 0 00.79-7.33c0 .12-.06.37-.11.79l-1 .27a5 5 0 01.28-.74c-.78 1.11-3.45 11.12-5.59 8.21-.28-.37-.4-.68-.08-1a6.77 6.77 0 001.31-2.05 28.77 28.77 0 001.34-8.69v-.56a19.88 19.88 0 012-8c1.69.29 3.49.64 5.32 1.06a17.91 17.91 0 004.37 7.79c.16 1.22.33 2.43.49 3.65a7.78 7.78 0 00-.6-.64h-.09s.24.33.43.79zM35.06 113c-.91-.49 1.94-5.84 2.22-6.57a23.35 23.35 0 01-.55 7.24 8.32 8.32 0 01-1.67-.67zm23.38 22.87a27.69 27.69 0 01-7.65.73c-.21-2.94-.31-9.13 4-9 4.21.08 3.81 5.33 3.65 8.25zm5.28-1.93a23.91 23.91 0 01-3.59 1.36 29.36 29.36 0 01-.09-6.49c.17-1.38.66-3 2.06-3.58a3.12 3.12 0 013.21.75c1.41 1.27 1.87 3.28 2.15 5.09a10.76 10.76 0 01-3.74 2.85zm3.57-2.3a6.44 6.44 0 01-.55.47 6.44 6.44 0 00.55-.47 8.16 8.16 0 00.71-.74 8.16 8.16 0 01-.71.72zm20.34-13.85c-5.49 5.53-15.15 2.57-20.61-1.38a18.48 18.48 0 01-7-9.28 11.75 11.75 0 012.31-11.55A11.59 11.59 0 0173.4 92a20 20 0 0111 6.64c4.26 4.75 8.24 13.53 3.23 19.13zM63.87 89.7c1.34-.31 2.13.77 2.5 2.3a12.87 12.87 0 00-5 3.57c-.2-2.57.24-5.35 2.5-5.87zm3.14.74a2.51 2.51 0 012.45-2.57c1.92-.07 2.88 1.66 3.68 3.12a14.78 14.78 0 00-6.06.74c-.08-.39-.08-.82-.08-1.29zm24.63-3.09a2.53 2.53 0 00-1.11-1 33.53 33.53 0 012.47 7.8 44.63 44.63 0 011 8.06c.16 4.84-.79 9.9-4 13.67 1.6-4.8 0-10.37-2.46-14.61-2.94-5.15-7.79-9.47-13.84-10.22-1-1.83-1.89-4.06-4.29-4-1.47 0-3.35.87-3.29 2.58-1.22-1.74-3.75-.47-4.59 1-1 1.75-1 4.13-1.07 6.09a11.26 11.26 0 00-2 7.24c-1.65-6.16 1-13.56 6.63-16.75a19.46 19.46 0 0115.43-1.35c-6-2.86-15.94-1.92-20.41 4.09-.41-4.72-3-9.63-7.3-11.93a8 8 0 00-11.13 3.33c-2.19 4-2 9.09-.36 13.22s5.42 8.19 10.22 7.94A8.26 8.26 0 0057 99.93a17.55 17.55 0 002.37 8 19.11 19.11 0 005.25 7.42c-.35.44-.7.88-1 1.34a20.61 20.61 0 00-2.19-1.14 18.85 18.85 0 016.6 7c1.47 2.64 2.2 5.76.08 8.28-.34-2-.91-4.24-2.57-5.6a3.84 3.84 0 00-3.69-.84 4.32 4.32 0 00-2.45 3.66 28.88 28.88 0 00.06 7.43l-.45.12c.09-2 .24-4.59-.54-6.5a4.25 4.25 0 00-4.32-2.44c-4.66.41-4.16 6.49-4.19 9.84h.88c-4.13-.07-8.55-.86-12-3.18a9.16 9.16 0 01-4-10.26 18.08 18.08 0 012.13-5.62 17 17 0 001.76-5.77c.51-4-.11-7.94-.75-11.85a36.64 36.64 0 0012.72 7.48 41.71 41.71 0 01-10.64-7 21.42 21.42 0 01-6.55-9.58c-2.45-8-.72-17 2-24.66a44.88 44.88 0 00-4.31 17.32 13 13 0 01-7.33 1.34 13.93 13.93 0 01-6.14-2.46 14.38 14.38 0 01-5.68-11.63 8.15 8.15 0 005.44-1.91 3.36 3.36 0 001.16-2.1c0-.72-.76-1.18-1.51-1.4C23 63 30.85 60.34 36.34 61a6 6 0 002.19 2.69 22 22 0 003.63 2.42 43 43 0 0015.3 4.61c.88.1 1.76.18 2.64.22a45 45 0 009.88 2c3 .22 6 .11 8.91.07 5.61-.07 11.4.25 16 3.91a32.48 32.48 0 01-3.25 10.43zM57 98.48a9.68 9.68 0 01-1.13 1.18c-3.78 3.23-8.85 1.7-11.76-1.86a15.31 15.31 0 01-2.74-13.49c1.22-4.26 5-7.48 9.58-6.09s7.53 6.23 8.24 10.78a14 14 0 01.16 2A17.62 17.62 0 0057 98.48zm35.3-24.16A52.37 52.37 0 0196.16 66a26.33 26.33 0 015.93-6.48 26.93 26.93 0 015.49 3.66C103.19 67.47 100.23 73.33 98 79a19.54 19.54 0 00-5.7-4.68zm16.86 15.52a42.59 42.59 0 01-9-8.4l-.16-.18-1.5-1.75c2.2-5.8 5.06-11.54 9.5-16 3 2.56 5.49 5.73 8.45 8.39a40.62 40.62 0 00-4.25 8.1 56.1 56.1 0 00-3.09 9.78l.4.27zm29.1-17.16c-.38 1.26-3.73.54-4.61.5a12.12 12.12 0 00-3.4.16 6.63 6.63 0 00-2.25 1.28c.6-.2.81-.48 1.45-.69-.25.32-.54.68-.85 1a17.21 17.21 0 00-3.32.26c1.22.05 2.43-.06 3.66.11s2.52.61 3.78.89c.77.18 1.54.3 2.31.42.56.09 2.16 0 2.45.57a1.8 1.8 0 01-.67 1.94c-.86.33-2.25-.55-3.06-.79a15.32 15.32 0 00-8.11-.4h.46l-.36.46a15.76 15.76 0 00-1.79 0c1.18.22 2.43.3 3.59.62s2.33 1.18 3.59 1.58a23.9 23.9 0 004 .79c.33 0 .9 0 1 .4a2.54 2.54 0 01-.34 1.49c-.42.94-.75 1-1.71.68a23.63 23.63 0 01-3.6-1.6 17.42 17.42 0 00-3.74-1.68 4.88 4.88 0 00-3.9 1s.34-.12.83-.24a7.67 7.67 0 00-.51 1.22 3.2 3.2 0 01-.86-.28c1.27 1.11 3.07.6 4.59 1a22.44 22.44 0 013.44 1.78 6.93 6.93 0 003.79.53c1.23-.12.91.76.63 1.68s-.57 1.68-1.56 1.2c-1.18-.57-2.25-1.37-3.41-2a12.59 12.59 0 00-3.48-1.38 13.53 13.53 0 00-4.43.32h.82v1.07h-.87c1.16.17 2.31.31 3.44.59a31 31 0 013.73 1.4c.74.28 1.49.51 2.24.74.52.16 2 .23 2.24.83a1.68 1.68 0 01-.89 1.77c-.86.16-2-.82-2.77-1.16a14.79 14.79 0 00-7.51-1.45l.71.08c.06.3.12.6.18.88l-.71-.12-.13.11c2.25 1.27 4.8 1.93 7 3.28.93.56 3.07 2 1.38 3-.4.23-.74.34-1.09 0a7.74 7.74 0 00-1.89-1.42 29 29 0 00-8.47-2.18l-1.35-.2a22.18 22.18 0 01-8.3-2.79c1.59-6.18 3.61-12.52 7.33-17.79 1.33 1.2 3 2.48 5 2.49-.21.08-2.12.64-2.14 1 0 0 1.54-.35 1.64-.38a26.55 26.55 0 002.72-1 17.88 17.88 0 002.1-.8 17 17 0 014.69-2c1.21-.21 2.38-.63 3.57-.9a24 24 0 012.51-.46c.46-.06 1.24-.18 1.61.2s-.24 1.86-.4 2.39z"/>
      <path d="M67.29 131.62a6.44 6.44 0 01-.55.47 6.44 6.44 0 00.55-.47zM109.56 90.1l-.4-.27zM19.17 12.55c.37-.84 1.36-.89 2.15-.73-1.65.43-.91 2.68-.38 3.7.76 1.44 2 3 3.77 3.16 1 .11 2.27-.23 2.48-1.34.27-1.41-.82-2.91-1.8-3.8a2.49 2.49 0 00-.43-.36 7.09 7.09 0 00-2.22-1.26c-1-.38-2.35-.74-3.29-.09a1.64 1.64 0 00-.66 1.27c-.05.74.35 1.25.47 1.92a4 4 0 01-.09-2.47zm7 5c-.73 1.15-2.8.06-3.46-.56-.9-.84-2.55-2.82-1.8-4.18a6.13 6.13 0 005.31 4.67zm-1.62-3.93c1 .78 2.23 2.06 1.83 3.46a4.8 4.8 0 01-3.31-1.27 7.36 7.36 0 01-2-3.25c1.01-.87 2.76.51 3.51 1.1z"/>
      <path class="cls-2" d="M43 65.57v.06a53.24 53.24 0 0014.3 4.16l1.39.2a29.39 29.39 0 006.21.28c-2.22-1.08-3.79-3.33-5.05-5.35A26.57 26.57 0 0142.83 64c.08.52.14 1 .19 1.53l-.23-.09z"/>
      <path class="cls-4" d="M42.2 65.21l.13.06-.15-1.56a10.9 10.9 0 01-4.12-4.08c-.29-.16-.58-.32-.86-.49-.64 2.86 2.8 5.07 5 6.07z"/>
      <path class="cls-5" d="M50.94 78.22c-4.57-1.39-8.36 1.83-9.58 6.09A15.31 15.31 0 0044.1 97.8c2.91 3.56 8 5.09 11.76 1.86A9.68 9.68 0 0057 98.48 17.62 17.62 0 0159.35 91a14 14 0 00-.16-2c-.71-4.55-3.64-9.37-8.25-10.78z"/>
      <path class="cls-6" d="M59.4 135.51l.9-.27z"/>
      <path class="cls-2" d="M103.58 98.94c.76.5.94 1.45 1.91 1.79a3.8 3.8 0 002.85-.19c.5-.28.4-.25 0-.48a2.31 2.31 0 01-1-1 8.27 8.27 0 00-1.48-2.74 3 3 0 00-2.51-.71c-.38.61-1.54 1.36-1.5 2.14s1.34.73 1.73 1.19z"/>
      <path class="cls-8" d="M98.1 79c2.19-5.77 5-11.49 9.48-15.86a26.93 26.93 0 00-5.49-3.66A26.33 26.33 0 0096.16 66a52.37 52.37 0 00-3.86 8.32A23.22 23.22 0 0198.1 79z"/>
      <path class="cls-9" d="M102.84 54.72c2.17 2.67 5.18 5.09 8.83 4.57a7.56 7.56 0 005-2.7 9.11 9.11 0 001.49-6.41 22.1 22.1 0 00-6.73-13.1c-2.47-2.37-5.71-3.81-9.16-3.07-3.18.67-4.75 3.67-5 6.7-.37 5.17 2.4 10.13 5.57 14.01z"/>
      <path class="cls-10" d="M83.79 61.72c-4.48.74-9.24-.73-13.38-2.37a27.13 27.13 0 01-9.73 5.33c1.5 2.26 3 4.37 5.47 5.61a24.39 24.39 0 002.72 0c-.86.19-1.73.34-2.63.47A28.14 28.14 0 0163 71c5.68 1.18 11.31 1 17.07 1.08 2.71-4.93 5.11-10.47 9.24-14.43q-.73 0-1.47-.09a23.4 23.4 0 01-7.45 8 24.55 24.55 0 003.4-3.84z"/>
      <path class="cls-11" d="M117.93 92.92l1.35.2a29 29 0 018.47 2.18 7.74 7.74 0 011.89 1.42c.35.34.69.23 1.09 0 1.69-1-.45-2.44-1.38-3-2.22-1.35-4.77-2-7-3.28l.13-.11.71.12c-.06-.28-.12-.58-.18-.88l-.71-.08a14.79 14.79 0 017.48 1.51c.74.34 1.91 1.32 2.77 1.16a1.68 1.68 0 00.89-1.77c-.22-.6-1.72-.67-2.24-.83-.75-.23-1.5-.46-2.24-.74a31 31 0 00-3.73-1.4c-1.13-.28-2.28-.42-3.44-.59h.87v-1.07h-.82a13.53 13.53 0 014.43-.32 12.59 12.59 0 013.48 1.38c1.16.61 2.23 1.41 3.41 2 1 .48 1.31-.36 1.56-1.2s.6-1.8-.63-1.68a6.93 6.93 0 01-3.79-.53 22.44 22.44 0 00-3.44-1.78c-1.52-.4-3.32.11-4.59-1a3.2 3.2 0 00.86.28 7.67 7.67 0 01.51-1.22c-.49.12-.83.25-.83.24a4.88 4.88 0 013.9-1 17.42 17.42 0 013.74 1.68 23.63 23.63 0 003.6 1.6c1 .3 1.29.26 1.71-.68a2.54 2.54 0 00.34-1.49c-.09-.42-.66-.35-1-.4a23.9 23.9 0 01-4-.79c-1.26-.4-2.31-1.22-3.59-1.58s-2.41-.4-3.59-.62a15.76 15.76 0 011.79 0l.36-.46h-.46a15.32 15.32 0 018.11.4c.81.24 2.2 1.12 3.06.79a1.8 1.8 0 00.67-1.94c-.29-.62-1.89-.48-2.45-.57-.77-.12-1.54-.24-2.31-.42-1.26-.28-2.49-.73-3.78-.89s-2.44-.06-3.66-.11a17.21 17.21 0 013.32-.26c.31-.37.6-.73.85-1-.64.21-.85.49-1.45.69a6.63 6.63 0 012.27-1.28 12.12 12.12 0 013.4-.16c.88 0 4.23.76 4.61-.5.16-.53.91-1.65.42-2.16s-1.15-.26-1.61-.2a24 24 0 00-2.51.46c-1.19.27-2.36.69-3.57.9a17 17 0 00-4.69 2 17.88 17.88 0 01-2.1.8 26.55 26.55 0 01-2.72 1c-.1 0-1.65.43-1.64.38 0-.32 1.93-.88 2.14-1-2 0-3.69-1.29-5-2.49-3.72 5.27-5.74 11.61-7.33 17.79a22.18 22.18 0 008.29 2.5z"/>
      <path class="cls-2" d="M100.26 58.73A16.15 16.15 0 0095 57.55c-1.73-.1-3.45.13-5.17.08a49.81 49.81 0 00-4.91 6.49c-1.55 2.58-2.77 5.32-4.22 7.95 3.82 0 7.48.18 11 1.92 1.58-3.73 2.81-7.56 5.44-10.73a27.51 27.51 0 014.31-4l-1.13-.51s-.01 0-.06-.02zM27 89.06c1.56.27 3.21.59 4.89 1a25.08 25.08 0 01-.65-5.49 15.23 15.23 0 01-1.72.72 23.69 23.69 0 00-2.56 3.8c-.09.16-.18.31-.26.47.07-.19.16-.34.3-.5z"/>
      <path class="cls-13" d="M36.85 102.07c-.16-1.22-.33-2.43-.49-3.65A17.91 17.91 0 0132 90.63c-1.83-.42-3.63-.77-5.32-1.06a19.88 19.88 0 00-2 8v.56a28.77 28.77 0 01-1.38 8.61 6.77 6.77 0 01-1.31 2.05c-.32.37-.2.68.08 1 2.14 2.91 4.81-7.1 5.59-8.21a5 5 0 00-.28.74l1-.27c.05-.42.09-.67.11-.79a13 13 0 01-.79 7.33c-.27.69-1.11 1.83-.87 2.59.16.55 1.24.86 1.73.76.65-.14.59-1.58.7-2.07.17-.72.32-1.44.53-2.15a27.58 27.58 0 001.09-3.7c.16-1 .11-1.93.22-2.9a2.7 2.7 0 01.16.42c.36 0 .71-.06 1.07-.07 0-.38 0-.67-.06-.78a12 12 0 01.72 4.17 11.89 11.89 0 01-1.18 3.6c-.49 1.08-1.18 2.09-1.61 3.19-.34.85.65 1 1.28 1.08s1.83.49 1.64-.62a6.26 6.26 0 01.11-3.56c.43-1.16 1.34-2.14 1.57-3.38.27-1.43-.34-3 .65-4.28a4.4 4.4 0 00-.23.82 5.71 5.71 0 01.71.19l.63.24c-.19-.46-.36-.79-.36-.79h.09a7.78 7.78 0 01.56.72z"/>
      <path class="cls-14" d="M37.28 106.41c-.28.73-3.13 6.08-2.22 6.57a8.32 8.32 0 001.67.67 23.35 23.35 0 00.55-7.24z"/>
      <path class="cls-15" d="M66.37 92c-.37-1.53-1.16-2.61-2.5-2.3-2.26.52-2.7 3.26-2.48 5.88A12.87 12.87 0 0166.37 92z"/>
      <path class="cls-16" d="M101.52 99.08a5.54 5.54 0 011.35.08s.51.09.36-.1c-.44-.56-1.38-.19-1.92-.52s0-1.32.34-1.68c.14-.17 1.6-1.4.86-1.24-1.73.39-2.64 2.14-4.45 2.4a4.44 4.44 0 01-3.36-.6c.07.45.14.89.2 1.33a31.22 31.22 0 006.62.33z"/>
      <path class="cls-17" d="M73.4 92a11.59 11.59 0 00-11.07 3.54A11.75 11.75 0 0060 107.11a18.48 18.48 0 007 9.28c5.46 4 15.12 6.91 20.61 1.38 5-5.6 1-14.38-3.21-19.11a20 20 0 00-11-6.66z"/>
      <path class="cls-18" d="M54.81 127.57c-4.33-.12-4.23 6.07-4 9a27.69 27.69 0 007.65-.73c.14-2.91.54-8.16-3.65-8.27z"/>
      <path class="cls-19" d="M67.29 131.62a8.16 8.16 0 00.71-.74 8.16 8.16 0 01-.71.74z"/>
      <path class="cls-20" d="M67.46 131.05c-.28-1.81-.74-3.82-2.15-5.09a3.12 3.12 0 00-3.21-.75c-1.4.58-1.89 2.2-2.06 3.58a29.36 29.36 0 00.09 6.49 23.91 23.91 0 003.59-1.36l-.16.07.16-.07a10.76 10.76 0 003.74-2.87z"/>
      <path class="cls-21" d="M73.14 91c-.8-1.46-1.76-3.19-3.68-3.12A2.51 2.51 0 0067 90.44c0 .47 0 .9.07 1.29a14.78 14.78 0 016.07-.73z"/>
      <path class="cls-36" d="M46 56.74a7.05 7.05 0 004.7 1.57A6 6 0 0054.93 56c2.59-3.06 1.8-7.11.43-10.53-.09-.23-.19-.45-.28-.68a37.14 37.14 0 00-2.64-5c-1 1.2-2 2.38-3 3.56a17.06 17.06 0 011.66 1.74c.59-.37 1.65-1.24 2.38-.68a4.75 4.75 0 011.12 2.14 13.6 13.6 0 01.95 5.8 6.33 6.33 0 01-3.42 4.5c-1.81 1-3.36-.34-4.55-1.64A5.4 5.4 0 0146 56.74z"/>
      <path class="cls-23" d="M20.94 12.85c-.75 1.36.9 3.34 1.8 4.18.66.62 2.73 1.71 3.46.56l.05-.07a6.13 6.13 0 01-5.31-4.67z"/>
      <path class="cls-2" d="M44.48 49.14l-.66.72a9.26 9.26 0 003 2.62c1.49.7 2.67-.14 3.56-1.33 2-2.66.8-5.28-1.24-7.47-1.48 1.78-3.04 3.65-4.66 5.46z"/>
      <path class="cls-24" d="M96.73 38a9.11 9.11 0 011.55-3.24 5 5 0 00-2.64 1.65c-.58.95.26 1.46 1.09 1.59z"/>
      <path class="cls-25" d="M23.1 15.85a4.8 4.8 0 003.31 1.27c.4-1.4-.85-2.68-1.83-3.46-.75-.59-2.5-2-3.45-1.06a7.36 7.36 0 001.97 3.25z"/>
      <path class="cls-26" d="M51.9 56.27a6 6 0 003.1-3.65 10.82 10.82 0 00-.68-5.5 4.41 4.41 0 00-1-2.08c-.56-.45-1.4.11-1.88.42a4.9 4.9 0 011 4.68 6.44 6.44 0 01-3.12 3.38 2.06 2.06 0 01-1.3.12 1.54 1.54 0 01-.16 1.16c1.03 1.2 2.42 2.31 4.04 1.47z"/>
      <path class="cls-27" d="M4 26.74c-.63-.57-2-2.22-.85-3-.78.07-1.43.51-1.27 1.37a9.92 9.92 0 00.55 1.24c-.14-.42-.6-.73-.71-1.22a1.15 1.15 0 01.16-1 2.45 2.45 0 012.24-.63 4.76 4.76 0 011.42.3 17.4 17.4 0 011.1-1.51 8.45 8.45 0 00-2.31-.24c-5.63.11-2.88 5-1.29 7.21A23.34 23.34 0 014 26.74z"/>
      <path class="cls-2" d="M39.84 53.79c1.13 1 3.06 2.75 4.68 2.37a4.67 4.67 0 003.08-2.62 12.69 12.69 0 01-4.35-3.06 58.98 58.98 0 01-3.41 3.31z"/>
      <path class="cls-28" d="M4.45 25.76c.25-.51.53-1 .83-1.51-1-.36-1.83-.41-2.11.11a6.5 6.5 0 001.28 1.4z"/>
      <path class="cls-29" d="M4.13 26.41c.07-.15.14-.3.22-.45a4 4 0 01-1.26-1.39c-.09.54.34 1.25 1.04 1.84z"/>
      <path class="cls-2" d="M87.9 48.92c-2.91 2-6.83 1.83-10 .59a30 30 0 01-5.47 8c-.47.48-1 1-1.45 1.4 4.06 1.48 8.89 3 13.25 2.27l-.37.5.37-.51a29 29 0 003.26-5.5 10.08 10.08 0 00.41-6.72c-.29-1.3-.05-.22 0-.03z"/>
      <path class="cls-32" d="M77.24 18.07c1.43-.35 3-1.59 2.79-3.24-.26-1.82-2.68-.36-3.52.12a27.27 27.27 0 01-4.71 2.2 2.89 2.89 0 01-.16 1.26c.91-.07 1.82-.12 2.74-.15a13.67 13.67 0 002.86-.19z"/>
      <path class="cls-2" d="M82.34 38.59c.13-.11 1 .84 1.1.95a15.38 15.38 0 001.65-.17c0 .2.1.39.14.59 0-.2-.09-.39-.14-.59h.07c-.06-.28-.13-.54-.19-.8-.65-2.41-1.69-4.09-3.3-5a33 33 0 01-.53 5.78c.58.06 1.16.11 1.72.13-.05-.02-.63-.8-.52-.89z"/>
      <path class="cls-34" d="M85.62 41.77c-.14-.53-.23-1.08-.35-1.62v-.18c-.43 0-.87.05-1.3.05.64.68 1.2 1.25 1.65 1.75z"/>
      <path class="cls-35" d="M87.7 45.37c1.31 3.63 2.22 7.46.63 11.16 3.49.43 7-.28 10.41.57a22.8 22.8 0 019.19 5.07 16.81 16.81 0 005.06-1.8c-4.92 1.12-9.11-2.5-11.88-6.15-3.38-4.47-5.8-10-4.51-15.67-.64-.13-1.73-.35-1.95-1.08s.66-1.6 1.17-2A22.64 22.64 0 0088 42.93a13.76 13.76 0 01.87-2c-.89-.15-1.84-.34-2.8-.59a27 27 0 001.05 3.41 5.13 5.13 0 01.58 1.62z"/>
      <path class="cls-2" d="M60.06 9.59c-2.3-2.07-5.93-.42-7.91 1.29l.42-.48c-1.88-.47-3.69.81-4.86 2.16a53.61 53.61 0 0112.76 5.67c1.11-2.54 1.98-6.51-.41-8.64z"/>
      <path d="M71.51 18.68c.88-.05 1.77-.12 2.64-.15a25.35 25.35 0 003.7-.05 3.59 3.59 0 002.71-3.38c0-1.9-1.88-1.68-3-1.12a64 64 0 01-5.75 3c0-.29-.12-.35-.12-.35l-.08.05a4.51 4.51 0 01-1.07 3.23c.46-.15.79-.78.97-1.23zm.29-1.53A27.27 27.27 0 0076.51 15c.84-.48 3.26-1.94 3.52-.12.23 1.65-1.36 2.89-2.79 3.24a13.67 13.67 0 01-2.86.19c-.92 0-1.83.08-2.74.15a2.89 2.89 0 00.16-1.31zM53.8 60.55a5.18 5.18 0 003.13-.73 5.46 5.46 0 002.61-3.51 8 8 0 01-2.32 3 10.13 10.13 0 01-3.42 1.24zM0 24.64v.45-1.23a3.29 3.29 0 000 .78zM59.4 135.51z"/>
      <path d="M137.41 69.65c-1.77.27-3.55.56-5.3 1a17.68 17.68 0 00-4.33 1.74c-1.74.74-3.67 2-5.62 2a5.24 5.24 0 01-3.36-1.49 55.89 55.89 0 01-4.27-4.3c-1.84-1.94-3.69-3.87-5.69-5.65 4-.88 7.81-2.51 9.25-6.63 2.07-4.65.29-10.35-2.14-14.49-2.34-4-5.81-8.37-10.6-9.33-2.86-.89-5.81.43-8.37 1.62a17.47 17.47 0 00-7.67 6.09 29.6 29.6 0 01-3.54-1.28c-.71-3.14-2-5.1-4.1-5.91a28.53 28.53 0 00-2.33-11 7.46 7.46 0 006.26-2.2c1.89-2 2.63-5.3.91-7.63a7.41 7.41 0 00-3.16-2.33 6.63 6.63 0 00-4-.71c-2.29.64-3.45 3.32-5.17 4.76a30.39 30.39 0 00-7.51-6.57A5.66 5.66 0 0069 5.4a4.59 4.59 0 001.94-3c.05-.25.53-2.23.2-2.37a17.53 17.53 0 00-.39 2c-.16.85-.45 2.27-1.39 2.61a3.88 3.88 0 00-1-3.91 2.67 2.67 0 00-3.49.37 3.24 3.24 0 00-.31 3.79 3.16 3.16 0 003.69.92 5.5 5.5 0 01-2.11 1.3C60.2 4 54.64 6.13 50.05 9.64a7.9 7.9 0 00-3.23 2.67 48.53 48.53 0 00-19.55-1.42C25.09 9.06 20.94 7 18.14 8.67c-2.05 1.22-2.37 4-2.36 6.19A33 33 0 007 22c-2.14-.81-6.39-.84-6.9 1.91v1.23a12.85 12.85 0 002.64 5.44C.71 38.83 4.27 47.68 10.8 53a25.49 25.49 0 0010.63 5c4.36 1 9.1 1.39 13.22-.63.54.43 1.18.91 1.92 1.39a4.27 4.27 0 00-.27.75c-7.74.07-16.35 3.14-21.66 5.18-6 2-4.58 9.41-2 13.66a14.82 14.82 0 0015.6 7.26 18.7 18.7 0 00-3.79 6.67 28.74 28.74 0 00-.62 7.8 17.94 17.94 0 01-1.54 7.35c-.58 1.09-1.76 2.07-.47 3.13s2.88-.78 3.49-1.89a17.8 17.8 0 001.86-5.67c.34-.1.7-.2 1.07-.29a18.91 18.91 0 01-1.58 6.44c-.29.64-1 1.59-.47 2.28a3.67 3.67 0 002.19 1c.84.13.85-.65.93-1.28a20.83 20.83 0 01.53-2.34c.57-2.09 1.84-4.38 1.49-6.58h1a10.93 10.93 0 01-.13 3.61 20.53 20.53 0 01-1.36 3.54c-.38.81-1.21 1.83-1.23 2.75s1.2 1 1.84 1.13c.48.07 2 .47 2-.42a14 14 0 01-.19-2.89 14 14 0 011.37-3.47 9.77 9.77 0 00.5-3.88 16.4 16.4 0 011.8.65c.06.2.12.41.16.61s0 .48.07.72c-.05 2-1.29 4-2 5.79a6.91 6.91 0 00-.71 2.62c0 .7 1.68 1 2.21 1.11-.5 1.66-1.44 3.14-2.1 4.75a24.38 24.38 0 00-1.46 4.87c-.51 2.83-.45 6.09 1.43 8.44 1.64 2.53 4.67 3.87 7.48 4.64a34.89 34.89 0 0011.15 1 36 36 0 0010.77-2.14c3.13-1.19 6.51-3.32 6.79-7a10.23 10.23 0 00-1.45-5.49 17 17 0 00-4.85-5.81c.32-.43.65-.84 1-1.25 6 4.88 14.22 7.09 19.74 5 9-2.91 10.91-13.51 9.9-21.65 1.65.08 3.32.07 5 0 1.08 0 2.54-.23 3.56.25a3.49 3.49 0 002.88 1.57 5.48 5.48 0 002-.29c.24-.09 1.27-.41.75-.65a3 3 0 01-1.47-1.14 13 13 0 01-.63-1.71 3.27 3.27 0 00-3.5-2.3c.24-.82-1.45.15-1.68.3-.73.46-1.39 1-2.14 1.45a4.33 4.33 0 01-5.23-.38 38.91 38.91 0 00-2.43-8.32 30.54 30.54 0 003.48-10.7c2.32 2.07 4.18 4.68 6.29 7a43.12 43.12 0 005.42 5.13 18.22 18.22 0 005.26 2.88 37.74 37.74 0 007.38 1.18 32.1 32.1 0 017.78 2.55c1.18.61 2.63 2.07 3.87.79s-1.16-3.24-2.14-3.87a20 20 0 00-5.73-2.62c-.07-.29-.13-.6-.19-.91a17.17 17.17 0 013.55.7 19.65 19.65 0 013.23 1.57c.58.33 1.74 1.33 2.46 1s.94-1.62 1-2.21c.09-.87-1-1.06-1.64-1.24s-1.48-.46-2.21-.73c-2.23-.82-4.25-1.92-6.69-2V85.7a12.31 12.31 0 013.53.39 24.76 24.76 0 013.59 1.55c1 .5 1.88 1.21 2.88 1.62s1.49-.6 1.75-1.46c.18-.55.89-2.11-.1-2.3s-2.28.1-3.43-.18a13.6 13.6 0 01-3.45-1.78c-1.3-.74-2.7-.63-4.15-.69a15.57 15.57 0 01.71-1.5c2.34-.28 4.83 1.2 6.84 2.2a11.77 11.77 0 003.38 1.25c.91.15 1.08-.45 1.32-1.24.15-.51.57-1.8.08-2.26-.24-.23-1-.17-1.32-.22-.68-.09-1.36-.2-2-.35-2.28-.51-4.16-1.9-6.49-2.18l.36-.49a24.39 24.39 0 017 1 12.93 12.93 0 002.71.92c.85.08 1.09-.75 1.23-1.42s.41-1.49-.3-1.86a7 7 0 00-2.37-.5c-.8-.11-1.61-.21-2.4-.37-1.18-.24-2.33-.65-3.52-.8l1-1.28a19.16 19.16 0 015.13 0c.74.08 2.9.58 3.37-.32a7 7 0 00.68-2.45c.13-1.2-.84-1.5-1.91-1.33zM67 5.63A2.32 2.32 0 0164.58 4 2.68 2.68 0 0165.92.82c2.58-1.14 3.92 2.38 2.82 4.3a3.33 3.33 0 01-1.74.51zm36.38 90a3 3 0 012.51.71 8.27 8.27 0 011.48 2.74 2.31 2.31 0 001 1c.42.23.52.2 0 .48a3.8 3.8 0 01-2.85.19c-1-.34-1.15-1.29-1.91-1.79-.39-.46-1.7-.52-1.73-1.19s1.12-1.55 1.47-2.16zM98.06 98c1.81-.26 2.72-2 4.45-2.4.74-.16-.72 1.07-.86 1.24-.31.36-1 1.29-.34 1.68s1.48 0 1.92.52c.15.19-.32.11-.36.1a5.54 5.54 0 00-1.35-.08 31.22 31.22 0 01-6.62-.33c-.06-.44-.13-.88-.2-1.33a4.44 4.44 0 003.36.6zm4.17-64c3.45-.74 6.69.7 9.16 3.07a22.1 22.1 0 016.73 13.1 9.11 9.11 0 01-1.49 6.41 7.56 7.56 0 01-5 2.7c-3.65.52-6.66-1.9-8.83-4.57-3.17-3.88-5.94-8.84-5.57-14 .25-3.03 1.82-6.03 5-6.71zm-4 .78a9.11 9.11 0 00-1.5 3.22c-.83-.16-1.67-.67-1.09-1.59a5 5 0 012.64-1.62zM88.87 41a13.76 13.76 0 00-.87 2 22.64 22.64 0 017.82-7.47c-.51.41-1.4 1.25-1.17 2s1.31 1 1.95 1.08c-1.29 5.7 1.13 11.2 4.51 15.67 2.77 3.65 7 7.27 11.88 6.15a16.81 16.81 0 01-5.06 1.8 22.8 22.8 0 00-9.19-5.07c-3.45-.85-6.92-.14-10.41-.57 1.59-3.7.68-7.53-.63-11.16a5.13 5.13 0 00-.58-1.6 27 27 0 01-1.05-3.41c.93.19 1.93.38 2.8.58zM42.83 64a26.57 26.57 0 0017.05.89c1.26 2 2.83 4.27 5.05 5.35a29.39 29.39 0 01-6.21-.24l-1.39-.2A53.24 53.24 0 0143 65.63v-.06l-.23-.1.23.09c0-.5-.09-1.01-.17-1.56zm23.41 6.69c.9-.13 1.77-.28 2.63-.47a24.39 24.39 0 01-2.72 0c-2.49-1.24-4-3.35-5.47-5.61a27.13 27.13 0 009.73-5.33c4.14 1.64 8.9 3.11 13.38 2.37a24.55 24.55 0 01-3.41 3.79 23.4 23.4 0 007.45-8q.73.08 1.47.09c-4.13 4-6.53 9.5-9.24 14.43-5.76.04-11.39.2-17.06-.96a28.14 28.14 0 003.24-.28zM87.77 49a10.11 10.11 0 01-.28 6.63 29 29 0 01-3.26 5.5l-.37.51.37-.5c-4.36.7-9.19-.79-13.25-2.27.5-.45 1-.92 1.45-1.4a30 30 0 005.47-8c3.1 1.26 6.98 1.47 9.87-.47zM80.7 72.07c1.45-2.63 2.67-5.37 4.22-7.95a49.81 49.81 0 014.91-6.49c1.72 0 3.44-.18 5.17-.08a16.15 16.15 0 015.26 1.18s.06 0 0 0l1.13.51a27.51 27.51 0 00-4.31 4c-2.63 3.17-3.86 7-5.44 10.73-3.48-1.74-7.14-1.89-11-1.92zm4.57-31.92c.12.54.21 1.09.35 1.62-.45-.5-1-1.07-1.69-1.75.43 0 .87 0 1.3-.05.01.03.03.12.04.18zm-3.6-6.53c1.61.86 2.65 2.54 3.3 5 .06.26.13.52.19.8h-.07c0 .2.1.39.14.59 0-.2-.09-.39-.14-.59a15.38 15.38 0 01-1.65.17c-.1-.11-1-1.06-1.1-.95s.47.87.52.94c-.56 0-1.14-.07-1.72-.13a33 33 0 00.53-5.83zM83.19 40a44.68 44.68 0 013.56 5.2 26.85 26.85 0 01.89 3.24c-2.81 1.89-6.46 1.73-9.55.65a40.57 40.57 0 003-9.29c.7.1 1.41.2 2.1.2zM52.57 10.4l-.42.48c2-1.71 5.61-3.36 7.91-1.29s1.52 6.1.41 8.64a53.61 53.61 0 00-12.76-5.67c1.17-1.35 2.98-2.63 4.86-2.16zM4.31 22.12a8.45 8.45 0 012.31.24 17.4 17.4 0 00-1.1 1.51 4.76 4.76 0 00-1.42-.3 2.45 2.45 0 00-2.24.63 1.15 1.15 0 00-.16 1c.11.49.57.8.71 1.22a9.92 9.92 0 01-.55-1.24c-.16-.86.49-1.3 1.27-1.37-1.19.74.22 2.39.85 3a23.34 23.34 0 00-1 2.59c-1.55-2.32-4.3-7.17 1.33-7.28zm-1.14 2.24c.28-.52 1.12-.47 2.11-.11-.3.49-.58 1-.83 1.51a6.5 6.5 0 01-1.28-1.4zM4.35 26c-.08.15-.15.3-.22.45-.7-.59-1.15-1.3-1-1.84A4 4 0 004.35 26zm31 31a25 25 0 003.89-2.71c1.37 1.27 3.83 3.64 5.84 2.91 2.55 2.29 7.13 2.79 9.67.2 3.22-3.29 3.1-8.43 1.46-12.43A31.48 31.48 0 0053 39.09c1.1-1.37 2-2.56 2.81-3.66-3.61 3.37-6.71 7.13-10 10.8s-6.74 7.25-11 9.57a14.38 14.38 0 01-7.33 1.85 33.22 33.22 0 01-6.59-.77 22.63 22.63 0 01-10.54-5.56 22.91 22.91 0 01-7.27-18.63c.8-7.69 6.27-13.27 12.73-16.86a22.87 22.87 0 00.45 3.37l.26.14C16 16 15.76 9.15 20.81 9.25c4.64.09 8.86 4.08 10.35 8.27l.16-.13a12.33 12.33 0 00-3.23-5.75 45.08 45.08 0 0118.78 1.69A70.93 70.93 0 0163 20.14l.07-.17s-.66-.51-1.87-1.3c1.26-2.64 2.28-6.65.19-9.18s-5.79-1.8-8.08.22A3.6 3.6 0 0052 9.32a14.47 14.47 0 0111.13-2.05c4.1 1.09 7.52 4.18 10.24 7.31a18.77 18.77 0 01-4 2 9.56 9.56 0 005.21-1.79c1.37-1.06 2.35-2.55 3.79-3.53 2.45-1.67 6.71-.45 7.74 2.37 1.26 3.43-1.7 7-5.14 7.24-2.12.15-4.19-.54-6.31-.62a10.4 10.4 0 00-3.88.59c2.47-.36 4.89.52 7.32 1 8.43 18.4-5.75 44-26.93 43.22a20.76 20.76 0 01-9-2.1A9.8 9.8 0 0139 60.13a19.66 19.66 0 003 1.17l.85.22-.86-.4a44.1 44.1 0 01-6.6-4.12zM48 53.64a2.06 2.06 0 001.3-.12 6.44 6.44 0 003.12-3.38 4.9 4.9 0 00-1-4.68c.48-.31 1.32-.87 1.88-.42a4.41 4.41 0 011 2.08 10.82 10.82 0 01.68 5.5 6 6 0 01-3.09 3.65c-1.62.84-3-.31-4.08-1.47a1.54 1.54 0 00.19-1.16zm4.15 3.2a6.33 6.33 0 003.42-4.5 13.6 13.6 0 00-.95-5.8 4.75 4.75 0 00-1.12-2.14c-.73-.56-1.79.31-2.38.68a17.06 17.06 0 00-1.66-1.74c1-1.18 2-2.36 3-3.56a37.14 37.14 0 012.64 5c.09.23.19.45.28.68 1.37 3.42 2.16 7.47-.43 10.53a6 6 0 01-4.26 2.33A7.05 7.05 0 0146 56.74a5.4 5.4 0 001.61-1.54c1.16 1.3 2.71 2.6 4.52 1.64zm-1.75-5.69c-.89 1.19-2.07 2-3.56 1.33a9.26 9.26 0 01-3-2.62l.66-.72c1.62-1.81 3.18-3.68 4.68-5.46 2.02 2.19 3.19 4.81 1.22 7.47zm-2.8 2.39a4.67 4.67 0 01-3.08 2.62c-1.62.38-3.55-1.39-4.68-2.37 1.19-1 2.32-2.16 3.41-3.31a12.69 12.69 0 004.35 3.06zm-5.27 11.73l-.13-.06c-2.18-1-5.64-3.22-5-6.07.28.17.57.33.86.49a10.9 10.9 0 004.12 4.08zm-27.06.65c.19-.07 2.37-.74 2.42.54 0 .66-.66 1.26-1.11 1.64a7.33 7.33 0 01-4.87 1.72 4.57 4.57 0 013.56-3.9zm11.64 23.13a23.69 23.69 0 012.56-3.8 15.23 15.23 0 001.72-.72 25.08 25.08 0 00.65 5.47c-1.68-.37-3.33-.69-4.89-1-.09.16-.18.31-.26.47.08-.16.17-.31.26-.47zm9.61 13.14l-.63-.24a5.71 5.71 0 00-.71-.19 4.4 4.4 0 01.23-.82c-1 1.25-.38 2.85-.65 4.28-.23 1.24-1.14 2.22-1.57 3.38a6.26 6.26 0 00-.11 3.56c.19 1.11-.9.76-1.64.62s-1.62-.23-1.28-1.08c.43-1.1 1.12-2.11 1.61-3.19a11.89 11.89 0 001.18-3.6 12 12 0 00-.72-4.17c0 .11 0 .4.06.78-.36 0-.71 0-1.07.07a2.7 2.7 0 00-.16-.42c-.11 1-.06 1.94-.22 2.9a27.58 27.58 0 01-1.09 3.7c-.21.71-.36 1.43-.53 2.15-.11.49-.05 1.93-.7 2.07-.49.1-1.57-.21-1.73-.76-.24-.76.6-1.9.87-2.59a13 13 0 00.79-7.33c0 .12-.06.37-.11.79l-1 .27a5 5 0 01.28-.74c-.78 1.11-3.45 11.12-5.59 8.21-.28-.37-.4-.68-.08-1a6.77 6.77 0 001.31-2.05 28.77 28.77 0 001.34-8.69v-.56a19.88 19.88 0 012-8c1.69.29 3.49.64 5.32 1.06a17.91 17.91 0 004.37 7.79c.16 1.22.33 2.43.49 3.65a7.78 7.78 0 00-.6-.64h-.09s.24.33.43.79zM35.06 113c-.91-.49 1.94-5.84 2.22-6.57a23.35 23.35 0 01-.55 7.24 8.32 8.32 0 01-1.67-.67zm23.38 22.87a27.69 27.69 0 01-7.65.73c-.21-2.94-.31-9.13 4-9 4.21.08 3.81 5.33 3.65 8.25zm5.28-1.93a23.91 23.91 0 01-3.59 1.36 29.36 29.36 0 01-.09-6.49c.17-1.38.66-3 2.06-3.58a3.12 3.12 0 013.21.75c1.41 1.27 1.87 3.28 2.15 5.09a10.76 10.76 0 01-3.74 2.85zm3.57-2.3a6.44 6.44 0 01-.55.47 6.44 6.44 0 00.55-.47 8.16 8.16 0 00.71-.74 8.16 8.16 0 01-.71.72zm20.34-13.85c-5.49 5.53-15.15 2.57-20.61-1.38a18.48 18.48 0 01-7-9.28 11.75 11.75 0 012.31-11.55A11.59 11.59 0 0173.4 92a20 20 0 0111 6.64c4.26 4.75 8.24 13.53 3.23 19.13zM63.87 89.7c1.34-.31 2.13.77 2.5 2.3a12.87 12.87 0 00-5 3.57c-.2-2.57.24-5.35 2.5-5.87zm3.14.74a2.51 2.51 0 012.45-2.57c1.92-.07 2.88 1.66 3.68 3.12a14.78 14.78 0 00-6.06.74c-.08-.39-.08-.82-.08-1.29zm24.63-3.09a2.53 2.53 0 00-1.11-1 33.53 33.53 0 012.47 7.8 44.63 44.63 0 011 8.06c.16 4.84-.79 9.9-4 13.67 1.6-4.8 0-10.37-2.46-14.61-2.94-5.15-7.79-9.47-13.84-10.22-1-1.83-1.89-4.06-4.29-4-1.47 0-3.35.87-3.29 2.58-1.22-1.74-3.75-.47-4.59 1-1 1.75-1 4.13-1.07 6.09a11.26 11.26 0 00-2 7.24c-1.65-6.16 1-13.56 6.63-16.75a19.46 19.46 0 0115.43-1.35c-6-2.86-15.94-1.92-20.41 4.09-.41-4.72-3-9.63-7.3-11.93a8 8 0 00-11.13 3.33c-2.19 4-2 9.09-.36 13.22s5.42 8.19 10.22 7.94A8.26 8.26 0 0057 99.93a17.55 17.55 0 002.37 8 19.11 19.11 0 005.25 7.42c-.35.44-.7.88-1 1.34a20.61 20.61 0 00-2.19-1.14 18.85 18.85 0 016.6 7c1.47 2.64 2.2 5.76.08 8.28-.34-2-.91-4.24-2.57-5.6a3.84 3.84 0 00-3.69-.84 4.32 4.32 0 00-2.45 3.66 28.88 28.88 0 00.06 7.43l-.45.12c.09-2 .24-4.59-.54-6.5a4.25 4.25 0 00-4.32-2.44c-4.66.41-4.16 6.49-4.19 9.84h.88c-4.13-.07-8.55-.86-12-3.18a9.16 9.16 0 01-4-10.26 18.08 18.08 0 012.13-5.62 17 17 0 001.76-5.77c.51-4-.11-7.94-.75-11.85a36.64 36.64 0 0012.72 7.48 41.71 41.71 0 01-10.64-7 21.42 21.42 0 01-6.55-9.58c-2.45-8-.72-17 2-24.66a44.88 44.88 0 00-4.31 17.32 13 13 0 01-7.33 1.34 13.93 13.93 0 01-6.14-2.46 14.38 14.38 0 01-5.68-11.63 8.15 8.15 0 005.44-1.91 3.36 3.36 0 001.16-2.1c0-.72-.76-1.18-1.51-1.4C23 63 30.85 60.34 36.34 61a6 6 0 002.19 2.69 22 22 0 003.63 2.42 43 43 0 0015.3 4.61c.88.1 1.76.18 2.64.22a45 45 0 009.88 2c3 .22 6 .11 8.91.07 5.61-.07 11.4.25 16 3.91a32.48 32.48 0 01-3.25 10.43zM57 98.48a9.68 9.68 0 01-1.13 1.18c-3.78 3.23-8.85 1.7-11.76-1.86a15.31 15.31 0 01-2.74-13.49c1.22-4.26 5-7.48 9.58-6.09s7.53 6.23 8.24 10.78a14 14 0 01.16 2A17.62 17.62 0 0057 98.48zm35.3-24.16A52.37 52.37 0 0196.16 66a26.33 26.33 0 015.93-6.48 26.93 26.93 0 015.49 3.66C103.19 67.47 100.23 73.33 98 79a19.54 19.54 0 00-5.7-4.68zm16.86 15.52a42.59 42.59 0 01-9-8.4l-.16-.18-1.5-1.75c2.2-5.8 5.06-11.54 9.5-16 3 2.56 5.49 5.73 8.45 8.39a40.62 40.62 0 00-4.25 8.1 56.1 56.1 0 00-3.09 9.78l.4.27zm29.1-17.16c-.38 1.26-3.73.54-4.61.5a12.12 12.12 0 00-3.4.16 6.63 6.63 0 00-2.25 1.28c.6-.2.81-.48 1.45-.69-.25.32-.54.68-.85 1a17.21 17.21 0 00-3.32.26c1.22.05 2.43-.06 3.66.11s2.52.61 3.78.89c.77.18 1.54.3 2.31.42.56.09 2.16 0 2.45.57a1.8 1.8 0 01-.67 1.94c-.86.33-2.25-.55-3.06-.79a15.32 15.32 0 00-8.11-.4h.46l-.36.46a15.76 15.76 0 00-1.79 0c1.18.22 2.43.3 3.59.62s2.33 1.18 3.59 1.58a23.9 23.9 0 004 .79c.33 0 .9 0 1 .4a2.54 2.54 0 01-.34 1.49c-.42.94-.75 1-1.71.68a23.63 23.63 0 01-3.6-1.6 17.42 17.42 0 00-3.74-1.68 4.88 4.88 0 00-3.9 1s.34-.12.83-.24a7.67 7.67 0 00-.51 1.22 3.2 3.2 0 01-.86-.28c1.27 1.11 3.07.6 4.59 1a22.44 22.44 0 013.44 1.78 6.93 6.93 0 003.79.53c1.23-.12.91.76.63 1.68s-.57 1.68-1.56 1.2c-1.18-.57-2.25-1.37-3.41-2a12.59 12.59 0 00-3.48-1.38 13.53 13.53 0 00-4.43.32h.82v1.07h-.87c1.16.17 2.31.31 3.44.59a31 31 0 013.73 1.4c.74.28 1.49.51 2.24.74.52.16 2 .23 2.24.83a1.68 1.68 0 01-.89 1.77c-.86.16-2-.82-2.77-1.16a14.79 14.79 0 00-7.51-1.45l.71.08c.06.3.12.6.18.88l-.71-.12-.13.11c2.25 1.27 4.8 1.93 7 3.28.93.56 3.07 2 1.38 3-.4.23-.74.34-1.09 0a7.74 7.74 0 00-1.89-1.42 29 29 0 00-8.47-2.18l-1.35-.2a22.18 22.18 0 01-8.3-2.79c1.59-6.18 3.61-12.52 7.33-17.79 1.33 1.2 3 2.48 5 2.49-.21.08-2.12.64-2.14 1 0 0 1.54-.35 1.64-.38a26.55 26.55 0 002.72-1 17.88 17.88 0 002.1-.8 17 17 0 014.69-2c1.21-.21 2.38-.63 3.57-.9a24 24 0 012.51-.46c.46-.06 1.24-.18 1.61.2s-.24 1.86-.4 2.39z"/>
      <path d="M67.29 131.62a6.44 6.44 0 01-.55.47 6.44 6.44 0 00.55-.47zM109.56 90.1l-.4-.27zM19.17 12.55c.37-.84 1.36-.89 2.15-.73-1.65.43-.91 2.68-.38 3.7.76 1.44 2 3 3.77 3.16 1 .11 2.27-.23 2.48-1.34.27-1.41-.82-2.91-1.8-3.8a2.49 2.49 0 00-.43-.36 7.09 7.09 0 00-2.22-1.26c-1-.38-2.35-.74-3.29-.09a1.64 1.64 0 00-.66 1.27c-.05.74.35 1.25.47 1.92a4 4 0 01-.09-2.47zm7 5c-.73 1.15-2.8.06-3.46-.56-.9-.84-2.55-2.82-1.8-4.18a6.13 6.13 0 005.31 4.67zm-1.62-3.93c1 .78 2.23 2.06 1.83 3.46a4.8 4.8 0 01-3.31-1.27 7.36 7.36 0 01-2-3.25c1.01-.87 2.76.51 3.51 1.1z"/>
      <path class="cls-37" d="M43.32 17.82c-1.12.69-1.47 1.83-.78 2.53a2.8 2.8 0 003.28 0c1.12-.71 1.46-1.84.77-2.54a2.81 2.81 0 00-3.27.01zM42.69 27c-1 .71-1.36 1.78-.69 2.39a2.73 2.73 0 003.11-.22c1-.72 1.35-1.78.69-2.38a2.72 2.72 0 00-3.11.21zM53.81 22.76c-1.13.6-1.54 1.62-.93 2.29a2.77 2.77 0 003.13.11c1.12-.6 1.53-1.62.93-2.29a2.77 2.77 0 00-3.13-.11z"/>
      <path d="M42.92 17.19c-1.3.82-1.66 2.24-.81 3.15a3.15 3.15 0 003.88.14c1.29-.84 1.65-2.25.8-3.15a3.17 3.17 0 00-3.87-.14zm2.9 3.16a2.8 2.8 0 01-3.28 0c-.69-.7-.34-1.84.78-2.53a2.81 2.81 0 013.27 0c.69.69.35 1.82-.77 2.53zM53.47 22.17c-1.3.71-1.75 2-1 2.85a3.11 3.11 0 003.7.27c1.29-.72 1.74-2 1-2.85a3.12 3.12 0 00-3.7-.27zm2.54 3a2.77 2.77 0 01-3.13-.11c-.61-.67-.2-1.69.93-2.29a2.77 2.77 0 013.13.11c.6.66.19 1.68-.94 2.28zM42.3 26.44c-1.22.85-1.53 2.18-.7 3a3 3 0 003.68-.11c1.21-.86 1.52-2.18.69-3a3.08 3.08 0 00-3.67.11zm2.81 2.73a2.73 2.73 0 01-3.11.22c-.67-.61-.36-1.68.69-2.39a2.72 2.72 0 013.11-.21c.66.6.36 1.66-.69 2.38zM60.25 14.33a1.38 1.38 0 00-2.18.27 2.22 2.22 0 00-.13 2.68 1.37 1.37 0 002.18-.28 2.23 2.23 0 00.13-2.67zm-1.7 1.82a.2.2 0 01-.31 0 .32.32 0 010-.38.19.19 0 01.3 0 .32.32 0 01.01.38zm1.14-.07a.63.63 0 010-.75.38.38 0 01.61-.06.6.6 0 010 .74.37.37 0 01-.61.07z"/>
      <path class="cls-38" d="M64.35 33.84C65.1 27.77 69 23.25 73 23.75s6.71 5.82 6 11.89-4.63 10.59-8.67 10.09-6.72-5.82-5.98-11.89z"/>
      <path class="cls-39" d="M25.39 13.54a2.49 2.49 0 00-.43-.36 7.09 7.09 0 00-2.22-1.26c-1-.38-2.35-.74-3.29-.09a1.64 1.64 0 00-.66 1.27c-.05.74.35 1.25.47 1.92a4 4 0 01-.09-2.47c.37-.84 1.36-.89 2.15-.73-1.65.43-.91 2.68-.38 3.7.76 1.44 2 3 3.77 3.16 1 .11 2.27-.23 2.48-1.34.27-1.41-.82-2.91-1.8-3.8zM57.22 59.3a10.13 10.13 0 01-3.42 1.25 5.18 5.18 0 003.13-.73 5.46 5.46 0 002.61-3.51 8 8 0 01-2.32 2.99zM77.55 14a64 64 0 01-5.75 3c0-.29-.12-.35-.12-.35l-.08.05a4.51 4.51 0 01-1.07 3.23c.5-.15.8-.78 1-1.23.88-.05 1.77-.12 2.64-.15a25.35 25.35 0 003.7-.05 3.59 3.59 0 002.71-3.38c-.01-1.92-1.9-1.7-3.03-1.12z"/>
      <path class="cls-40" d="M7.29 35.32c-1.29-4.38-.24-9.86 4.71-17-4.68 3.52-8.25 8.31-8.88 14.37a22.91 22.91 0 007.24 18.63 22.63 22.63 0 0010.54 5.56 33.22 33.22 0 006.59.77h.47c-3.69-2-10.84-6.08-13.73-8.81-3.75-3.49-5.6-8.84-6.94-13.52z"/>
      <path class="cls-41" d="M7.29 35.32c-1.29-4.38-.24-9.86 4.71-17-4.68 3.52-8.25 8.31-8.88 14.37a22.91 22.91 0 007.24 18.63 22.63 22.63 0 0010.54 5.56 33.22 33.22 0 006.59.77h.47a35.08 35.08 0 01-13.73-8.81c-3.61-3.63-5.6-8.84-6.94-13.52z"/>
      <path d="M6.93 31a28.32 28.32 0 002.84 11.73 22.28 22.28 0 005.93 7.54A28.91 28.91 0 0110.12 43a35.78 35.78 0 01-3.19-12z"/>
      <path d="M9.1 34.28a6 6 0 00-1.81 1A6.47 6.47 0 006 36.7a14.39 14.39 0 011.26-1.15 13.85 13.85 0 011.84-1.27zM12.24 42.45a6.15 6.15 0 00-1.92.82 6.3 6.3 0 00-1.43 1.22 14.69 14.69 0 011.39-1 14 14 0 011.96-1.04z"/>
      <path class="cls-39" d="M80.49 85.83a19.17 19.17 0 00-13.07-.75 7 7 0 013.62 0 19.33 19.33 0 019.45.75zM35.25 66.68v.3c.1-.31.21-.63.32-.94-.13.22-.23.43-.32.64zM60.08 89.92c-.41-4.72-3-9.63-7.3-11.93a8 8 0 00-11.13 3.33c-2.19 4-2 9.09-.36 13.22s5.42 8.19 10.22 7.94A8.26 8.26 0 0057 99.93c0 .37 0 .74.07 1.11a19.35 19.35 0 011-5c.65-1.63 3.65-8.85 8.67-10.72a13.63 13.63 0 00-6.66 4.6z"/>
      <path class="cls-42" d="M67.42 85.08a5.39 5.39 0 00-.68.22c.26-.08.45-.16.68-.22z"/>
      <path class="cls-43" d="M67.42 85.08a5.39 5.39 0 00-.68.22c.26-.08.45-.16.68-.22z"/>
      <path class="cls-44" d="M41.8 67.8c3.91 2.89 11.12 3.71 16.27 5.56s20.19 3.09 25.54 2.27 6.18 5.36 3.51 8.45 1.23 4.94 2.06 9.47-5.77.21-9.48-2.68-1-3.7-8.65-5.76a18.32 18.32 0 00-6 2.08c-5.63 3.19-8.28 10.59-6.63 16.75a11.26 11.26 0 012-7.24c.07-2 .06-4.34 1.07-6.09.84-1.48 3.37-2.75 4.59-1 0-1.73 1.92-2.61 3.35-2.61 2.4 0 3.31 2.21 4.29 4 6 .75 10.9 5.07 13.84 10.22 2.42 4.24 4.06 9.81 2.46 14.61 3.22-3.77 4.17-8.83 4-13.67A44.63 44.63 0 0093 94.15a33.53 33.53 0 00-2.42-7.79 2.53 2.53 0 011.11 1 32.48 32.48 0 003.21-10.48c-4.56-3.66-10.35-4-16-3.91-3 0-5.94.15-8.91-.07a45 45 0 01-9.88-2c-.88 0-1.76-.12-2.64-.22a43 43 0 01-15.3-4.61A23 23 0 0138.92 64a8.65 8.65 0 002.88 3.8z"/>
      <path class="cls-45" d="M44.27 68.21c3.91 2.89 7.41 3.09 13.18 4.12 5.39 1 16.89 2.27 22.25 1.45s12.77 5.56 10.09 8.65-1.44 6.57-.61 11.12-5.77.21-9.48-2.68-1-3.7-8.65-5.76a18.32 18.32 0 00-6 2.08c-5.63 3.19-8.28 10.59-6.63 16.75a11.26 11.26 0 012-7.24c.07-2 .06-4.34 1.07-6.09.84-1.48 3.37-2.75 4.59-1 0-1.73 1.92-2.61 3.35-2.61 2.4 0 3.31 2.21 4.29 4 6 .75 10.9 5.07 13.84 10.22 2.42 4.24 4.06 9.81 2.46 14.61 3.22-3.77 4.17-8.83 4-13.67A44.63 44.63 0 0093 94.15a33.53 33.53 0 00-2.42-7.79 2.53 2.53 0 011.11 1 32.48 32.48 0 003.21-10.48c-4.56-3.66-10.35-4-16-3.91-3 0-5.94.15-8.91-.07a45 45 0 01-9.88-2c-.88 0-1.76-.12-2.64-.22a43 43 0 01-15.3-4.61A23 23 0 0138.92 64c.54 1.34 3.9 3.15 5.35 4.21z"/>
      <path class="cls-46" d="M56.42 110.24c1 4.74 6.82 8.62 5.56 10.3-.61.82-9.47 2.26-13.8 7.21-2.79 3.19-8.86 2.27-10.92-.62s3.51-20.39 9.69-19.77c4.34.43-.12-1.83 3.75-.06a36.64 36.64 0 01-12.84-7.41c.64 3.91 1.26 7.89.75 11.85a17 17 0 01-1.76 5.77 18.08 18.08 0 00-2.13 5.62 9.16 9.16 0 004 10.26c3.49 2.32 7.91 3.11 12 3.18h-.88c0-3.35-.47-9.43 4.19-9.84a4.25 4.25 0 014.32 2.44c.78 1.91.63 4.48.54 6.5l.45-.12a28.88 28.88 0 01-.06-7.43 4.32 4.32 0 012.45-3.66 3.84 3.84 0 013.69.84c1.66 1.36 2.23 3.58 2.57 5.6 2.12-2.52 1.39-5.64-.08-8.28a18.85 18.85 0 00-6.6-7 20.61 20.61 0 012.19 1.14c.35-.46.7-.9 1-1.34a19.11 19.11 0 01-5.18-7.42 18.07 18.07 0 01-2.32-7c-.12 1.64-.95 7.55-.58 9.24z"/>
      <path class="cls-47" d="M31.2 83.38a44.39 44.39 0 014.05-16.7c.4-3-1.28 2.47-2.93 6.68-1.86 4.74-3.71 5.77-7.83 8.66a8.8 8.8 0 01-4.33 1.63 14.77 14.77 0 003.71 1.07 13 13 0 007.33-1.34z"/>
      <path class="cls-43" d="M31.2 83.38a44.39 44.39 0 014.05-16.7c.4-3-1.28 2.47-2.93 6.68-1.86 4.74-3.71 5.77-7.83 8.66a8.8 8.8 0 01-4.33 1.63 14.77 14.77 0 003.71 1.07 13 13 0 007.33-1.34z"/>
      <path class="cls-48" d="M62.6 98.09c2.68-4.33 8.85-5.39 13.17-5.45A17.19 17.19 0 0073.4 92a11.59 11.59 0 00-11.07 3.54A11.75 11.75 0 0060 107.11a16.05 16.05 0 001.93 4c-2.01-6.43-1.29-9.85.67-13.02z"/>
      <path class="cls-49" d="M99.27 39.58c.82-3.91 4.53-5.36 9.47-3.5a15.51 15.51 0 002.29.66 10 10 0 00-8.8-2.73c-3.18.67-4.75 3.67-5 6.7A17 17 0 0099.62 50a4.19 4.19 0 00-.14-.53c-1.48-3.92-1.03-5.98-.21-9.89z"/>
      <path class="cls-48" d="M99.27 38.76c.82-3.92 3.5-4.95 8.45-3.09a34 34 0 003.28 1.07 10 10 0 00-8.8-2.73c-3.18.67-4.75 3.67-5 6.7A17 17 0 0099.62 50a4.19 4.19 0 00-.14-.53c-1.48-3.92-1.03-6.8-.21-10.71z"/>
      <path class="cls-39" d="M57.22 59.3a10.13 10.13 0 01-3.42 1.25 5.18 5.18 0 003.13-.73 5.46 5.46 0 002.61-3.51 8 8 0 01-2.32 2.99zM25.39 13.54a2.49 2.49 0 00-.43-.36 7.09 7.09 0 00-2.22-1.26c-1-.38-2.35-.74-3.29-.09a1.64 1.64 0 00-.66 1.27c-.05.74.35 1.25.47 1.92a4 4 0 01-.09-2.47c.37-.84 1.36-.89 2.15-.73-1.65.43-.91 2.68-.38 3.7.76 1.44 2 3 3.77 3.16 1 .11 2.27-.23 2.48-1.34.27-1.41-.82-2.91-1.8-3.8zM63 20.14l.07-.17s-.28-.22-.82-.59l-.12.26zM77.55 14a64 64 0 01-5.75 3c0-.29-.12-.35-.12-.35l-.08.05a4.51 4.51 0 01-1.07 3.23c.5-.15.8-.78 1-1.23.88-.05 1.77-.12 2.64-.15a25.35 25.35 0 003.7-.05 3.59 3.59 0 002.71-3.38c-.01-1.92-1.9-1.7-3.03-1.12z"/>
      <path class="cls-50" d="M53.29 9.71c2.29-2 5.89-2.87 8.08-.22s1.07 6.54-.19 9.18c.42.28.77.51 1 .71A21.48 21.48 0 0064 12.9c.68-4.76-3-5.9-5.48-5.9A16.48 16.48 0 0052 9.32a3.6 3.6 0 011.29.39z"/>
      <path class="cls-43" d="M53.29 9.71c2.29-2 5.89-2.87 8.08-.22s1.07 6.54-.19 9.18c.42.28.77.51 1 .71A21.48 21.48 0 0064 12.9c.68-4.76-3-5.9-5.48-5.9A16.48 16.48 0 0052 9.32a3.6 3.6 0 011.29.39z"/>
      <path class="cls-51" d="M44.78 14.45c1.34.2 16.69 6.28 16.69 6.28a8.08 8.08 0 00.64-1.09 70.92 70.92 0 00-15.24-6.31c-.82-.23-1.65-.45-2.48-.65-.2.91-.17 1.68.39 1.77z"/>
    </g>
  </g>
</svg>
