<svg xmlns="http://www.w3.org/2000/svg" xmlns:xlink="http://www.w3.org/1999/xlink" viewBox="0 0 132.09 159.39">
  <defs>
    <radialGradient id="radial-gradient" cx="6.06" cy="62.93" r="11.32" gradientUnits="userSpaceOnUse">
      <stop offset="0" stop-color="#fff0da"/>
      <stop offset="1" stop-color="#d3b98a"/>
    </radialGradient>
    <radialGradient id="radial-gradient-2" cx="5.94" cy="62.7" r="10.25" xlink:href="#radial-gradient"/>
    <radialGradient id="radial-gradient-3" cx="28.08" cy="89.7" r="107.81" gradientUnits="userSpaceOnUse">
      <stop offset="0" stop-color="#cce9f8"/>
      <stop offset="1" stop-color="#9ad0f0"/>
    </radialGradient>
    <radialGradient id="radial-gradient-4" cx="5.94" cy="62.7" r="10.25" xlink:href="#radial-gradient"/>
    <radialGradient id="radial-gradient-5" cx="28.08" cy="89.7" r="107.82" gradientUnits="userSpaceOnUse">
      <stop offset="0" stop-color="#a2d2ec"/>
      <stop offset="1" stop-color="#489fd6"/>
    </radialGradient>
    <radialGradient id="radial-gradient-6" cx="31.86" cy="124.62" r="7.19" xlink:href="#radial-gradient"/>
    <radialGradient id="radial-gradient-7" cx="28.08" cy="89.7" r="107.8" xlink:href="#radial-gradient-5"/>
    <radialGradient id="radial-gradient-8" cx="39.42" cy="124.62" r="5.72" xlink:href="#radial-gradient"/>
    <radialGradient id="radial-gradient-9" cx="28.08" cy="89.68" r="107.85" xlink:href="#radial-gradient-5"/>
    <radialGradient id="radial-gradient-10" cx="32.94" cy="40.02" r="78.53" gradientUnits="userSpaceOnUse">
      <stop offset="0" stop-color="#84a372"/>
      <stop offset="1" stop-color="#4b882a"/>
    </radialGradient>
    <radialGradient id="radial-gradient-11" cx="28.08" cy="89.7" r="107.82" gradientUnits="userSpaceOnUse">
      <stop offset="0" stop-color="#7fafc9"/>
      <stop offset="1" stop-color="#257cb3"/>
    </radialGradient>
    <radialGradient id="radial-gradient-12" cx="28.08" cy="89.7" r="107.82" xlink:href="#radial-gradient-11"/>
    <radialGradient id="radial-gradient-13" cx="51.3" cy="5.46" r="56.08" gradientUnits="userSpaceOnUse">
      <stop offset="0" stop-color="#a7c695"/>
      <stop offset="1" stop-color="#6eab4d"/>
    </radialGradient>
    <radialGradient id="radial-gradient-14" cx="12.15" cy="57.3" r="11.3" xlink:href="#radial-gradient"/>
    <radialGradient id="radial-gradient-15" cx="12.15" cy="57.3" r="11.31" xlink:href="#radial-gradient"/>
    <radialGradient id="radial-gradient-16" cx="28.07" cy="89.69" r="107.75" xlink:href="#radial-gradient-5"/>
    <radialGradient id="radial-gradient-17" cx="33.48" cy="132.9" r="24.65" xlink:href="#radial-gradient-3"/>
    <radialGradient id="radial-gradient-18" cx="35.1" cy="133.99" r="24.65" xlink:href="#radial-gradient-3"/>
    <radialGradient id="radial-gradient-19" cx="35.1" cy="133.98" r="24.65" xlink:href="#radial-gradient-3"/>
    <radialGradient id="radial-gradient-20" cx="33.48" cy="132.9" r="24.65" xlink:href="#radial-gradient-3"/>
    <radialGradient id="radial-gradient-21" cx="28.08" cy="89.7" r="107.82" xlink:href="#radial-gradient-5"/>
    <radialGradient id="radial-gradient-22" cx="86.05" cy="147.3" r="10.23" xlink:href="#radial-gradient"/>
    <radialGradient id="radial-gradient-23" cx="28.08" cy="89.71" r="107.81" xlink:href="#radial-gradient-5"/>
    <radialGradient id="radial-gradient-24" cx="57.43" cy="126.42" r="4.77" xlink:href="#radial-gradient"/>
    <radialGradient id="radial-gradient-25" cx="49.5" cy="126.78" r="6.78" xlink:href="#radial-gradient"/>
    <radialGradient id="radial-gradient-26" cx="52.92" cy="136.14" r="32.64" xlink:href="#radial-gradient-3"/>
    <radialGradient id="radial-gradient-27" cx="52.93" cy="136.14" r="32.65" xlink:href="#radial-gradient-3"/>
    <radialGradient id="radial-gradient-28" cx="52.92" cy="136.17" r="32.61" xlink:href="#radial-gradient-3"/>
    <radialGradient id="radial-gradient-29" cx="52.94" cy="136.15" r="32.63" xlink:href="#radial-gradient-3"/>
    <radialGradient id="radial-gradient-30" cx="54.28" cy="137.23" r="32.64" xlink:href="#radial-gradient-3"/>
    <radialGradient id="radial-gradient-31" cx="54.27" cy="137.23" r="32.63" xlink:href="#radial-gradient-3"/>
    <radialGradient id="radial-gradient-32" cx="54.28" cy="137.23" r="32.64" xlink:href="#radial-gradient-3"/>
    <radialGradient id="radial-gradient-33" cx="54.27" cy="137.21" r="32.66" xlink:href="#radial-gradient-3"/>
    <radialGradient id="radial-gradient-34" cx="80.29" cy="146.76" r="18.36" xlink:href="#radial-gradient"/>
    <radialGradient id="radial-gradient-35" cx="28.09" cy="89.68" r="107.83" xlink:href="#radial-gradient-5"/>
    <radialGradient id="radial-gradient-36" cx="28.08" cy="89.7" r="107.81" xlink:href="#radial-gradient-5"/>
    <radialGradient id="radial-gradient-37" cx="28.08" cy="89.71" r="107.79" xlink:href="#radial-gradient-5"/>
    <radialGradient id="radial-gradient-38" cx="80.29" cy="146.77" r="18.36" xlink:href="#radial-gradient"/>
    <style>
      .cls-1{fill:url(#radial-gradient)}.cls-2{fill:url(#radial-gradient-2)}.cls-3{fill:#736947}.cls-4{fill:url(#radial-gradient-3)}.cls-5{fill:url(#radial-gradient-4)}.cls-6{fill:url(#radial-gradient-5)}.cls-7{fill:url(#radial-gradient-6)}.cls-8{fill:url(#radial-gradient-7)}.cls-9{fill:url(#radial-gradient-8)}.cls-10{fill:url(#radial-gradient-9)}.cls-11{fill:url(#radial-gradient-10)}.cls-12{fill:url(#radial-gradient-11)}.cls-13{fill:url(#radial-gradient-12)}.cls-14,.cls-46,.cls-52{fill:#fff}.cls-15{fill:url(#radial-gradient-13)}.cls-16{fill:url(#radial-gradient-14)}.cls-17{fill:url(#radial-gradient-15)}.cls-18{fill:url(#radial-gradient-16)}.cls-19{fill:url(#radial-gradient-17)}.cls-20{fill:url(#radial-gradient-18)}.cls-21{fill:url(#radial-gradient-19)}.cls-22{fill:url(#radial-gradient-20)}.cls-23{fill:#4f6e85}.cls-24{fill:url(#radial-gradient-21)}.cls-25{fill:url(#radial-gradient-22)}.cls-26{fill:url(#radial-gradient-23)}.cls-27{fill:url(#radial-gradient-24)}.cls-28{fill:url(#radial-gradient-25)}.cls-29{fill:url(#radial-gradient-26)}.cls-30{fill:none}.cls-31{fill:url(#radial-gradient-27)}.cls-32{fill:url(#radial-gradient-28)}.cls-33{fill:url(#radial-gradient-29)}.cls-34{fill:url(#radial-gradient-30)}.cls-35{fill:url(#radial-gradient-31)}.cls-36{fill:url(#radial-gradient-32)}.cls-37{fill:url(#radial-gradient-33)}.cls-38{fill:url(#radial-gradient-34)}.cls-39{fill:url(#radial-gradient-35)}.cls-40{fill:#1a4159}.cls-41{fill:#062c43}.cls-42{fill:#204b72}.cls-43{fill:#6589a9}.cls-44{fill:#223838}.cls-45{fill:url(#radial-gradient-36)}.cls-46{opacity:.5}.cls-47{fill:url(#radial-gradient-37)}.cls-48{fill:#1f323f}.cls-49,.cls-50{fill:#305e7d}.cls-49{opacity:.45}.cls-50{opacity:.34}.cls-51{fill:url(#radial-gradient-38)}.cls-52{opacity:.49}
    </style>
  </defs>
  <g id="Слой_2" data-name="Слой 2">
    <g id="Слой_1-2" data-name="Слой 1">
      <path class="cls-1" d="M12.56 67c.06-2.3-1.93-5.4-3.38-7a2.6 2.6 0 00-2.81-.55 3 3 0 00-1.28 2.27 11.33 11.33 0 002.61 6.92c1.53 1.57 4.79.76 4.86-1.64z"/>
      <path class="cls-2" d="M5.72 67a11.52 11.52 0 01-1.53-4.89c-.9.23-.93 1.41-.88 2.16C3.48 66.83 6 72 9.23 70.13c-1.81.04-2.78-1.72-3.51-3.13z"/>
      <path class="cls-3" d="M4 68.78C1.84 70.6.67 72.05 2.39 73.23c1 .68 2.61-.11 4.76-1.85A5.92 5.92 0 014 68.78z"/>
      <path class="cls-4" d="M27.61 66.35c-2.88-3-4-7.34-7.93-9.32-.4 1.31-.78 2.4-1.16 3.34.34 2.08-1.39 5-3.54 5.42A51.35 51.35 0 019 71a11.38 11.38 0 002.87 1.52 45.34 45.34 0 0011 2 26.51 26.51 0 014.74-8.17z"/>
      <path class="cls-5" d="M11.66 66.43c.07-2.3-1.83-4.66-3.28-6.28-.55-.61-1.16-1.2-2-.7a3 3 0 00-1.28 2.27 9.16 9.16 0 002.37 6.19c1.53 1.56 4.12.9 4.19-1.48z"/>
      <path class="cls-6" d="M35.79 125.48c.29 0 .59 0 .89.07-.24-2.64 2.55-3.78 4.51-2.19s2.07 4.7 2.3 6.91c.5.67 1 1.38 1.52 2.11a56.33 56.33 0 01.1-7.9c-3.17-1.91-6.8-3.15-9.43-2.28a15.83 15.83 0 00-1.72.68c1.41.12 1.72 1.44 1.83 2.6z"/>
      <path class="cls-7" d="M32.35 123.79c-1.33.71-1.86 2.45-2.12 3.82a8.72 8.72 0 015-2.12 1.89 1.89 0 00-2.88-1.7z"/>
      <path class="cls-8" d="M7.21 58.22C8 58.23 8.55 59 9 59.53a4.3 4.3 0 011.38-4.26 3.82 3.82 0 013.72-.88c.2-.58.4-1.14.6-1.69a17.6 17.6 0 00-9.43 6.43 2.75 2.75 0 00-.17.29 2.83 2.83 0 012.11-1.2z"/>
      <path class="cls-9" d="M38.12 123.49a1.87 1.87 0 00-.9 2.15 9.22 9.22 0 015.61 3.74c-.39-2.02-1.44-7.49-4.71-5.89z"/>
      <path class="cls-10" d="M47.79 152.92a15.09 15.09 0 002.7-1.21c-.53-.75-1-1.5-1.46-2.26a11.63 11.63 0 01-1.24 3.47z"/>
      <path class="cls-11" d="M98.84 23a24 24 0 007.58 5c-3-1-6.61-2.6-8.56-5.21-5.22-.95-10.35-2-15.29-2.87.2 2.08 2 4.43 3.27 5.95a24.17 24.17 0 004.22 3.86c-3.87-1.94-7.45-5.59-8.27-9.95-4.74-.87-9.3-1.64-13.61-2.18-1 2.71-.1 6.1 1 8.64.88 2 1.86 4 2.89 5.91a30.8 30.8 0 01-3.83-6.53 13.73 13.73 0 01-1-8.13c-2.64-.29-5.24-.49-7.71-.6a20.74 20.74 0 00-2.56.19c-2.61 2.29-3.65 6.6-4 9.9a57.42 57.42 0 000 9.18 30.87 30.87 0 01-.6-8.95 20.64 20.64 0 013-9.89 35 35 0 00-13 5.17 25.89 25.89 0 00-3.88 9.84 44.3 44.3 0 00-.48 6.9c-1.5-5.15.25-10.89 2.59-15.5a45.07 45.07 0 00-7.09 6.05A58.78 58.78 0 0028 37.33c-1.88 4.08-2.72 9.55 2.28 11.61 4 1.63 8.79 1.11 12.92.56a49.3 49.3 0 0014.43-3.89c3.43-1.58 6.65-3.73 10.21-5A72.4 72.4 0 0175 37.45c.29-.1 1.28-.41.61.13A34.14 34.14 0 0171.82 40c2.75.27 5.31 1.46 8.09 1.6 4.51.22 8.12-2 11.89-4.12 7.65-4.34 16-6.46 24.46-8.73 2.18-.59 3-1.26 3-1.9-2.26-.31-4.5-.93-6.74-1.38-4.52-.96-9.13-1.66-13.68-2.47z"/>
      <path class="cls-12" d="M38.26 58a5.32 5.32 0 00-2.49 2.59 31.74 31.74 0 015.87-1.31c-.86-.89-2.08-1.74-3.38-1.28z"/>
      <path class="cls-13" d="M20.05 55.79a12.09 12.09 0 014.53 4.31c1.27 2 2 3.92 4.29 4.9a19.06 19.06 0 015.77-4 15 15 0 01.89-1.8C33.59 57 30.21 54 21 52.44c-.3 1.02-.59 2.12-.95 3.35z"/>
      <path class="cls-14" d="M79.92 80.62c.61-.31 1.22-.65 1.83-1 3.41-2 8.31-6.2 7.31-10.74-1.2-5.39-8.51-4.2-12-2.33l-.32.2a15.39 15.39 0 011.8-1.24 16.53 16.53 0 011.74-.79c-1.47-2.09-4.38-2-6.55-1.22a13.3 13.3 0 00-5.1 3.35 41.85 41.85 0 0111.29 13.77z"/>
      <path class="cls-15" d="M38.77 21.26c.17-3.26 2.21-6.12 3.91-8.77a28.3 28.3 0 013.91-4.62 52.34 52.34 0 00-3.74 5.27 20.91 20.91 0 00-3.13 7.52 44.72 44.72 0 0113.36-5.49c.93-2.83 3.3-5.34 5.51-7.25a22.6 22.6 0 00-4.8 7.08 46.42 46.42 0 0111.38-.44c1.74-2.15 4.45-3.29 6.88-4.45a27.07 27.07 0 015.27-1.72c-3.95 1.39-8.14 3.22-11.12 6.25a132.66 132.66 0 0114.16 2.19c2.64-2.26 7.07-2.64 10.41-2.63-3.14.31-7.06.83-9.66 2.78 4.48.88 9.59 2 14.62 3 2.11-1.56 5.29-1.9 7.84-1.93a18.36 18.36 0 00-7.22 2.06c7.56 1.56 15.23 2.74 22.43 5.69-1.11-1.14-2.73-1.36-4-2.23-2.39-1.66-4.51-3.61-7.07-5A33 33 0 00101 16a51.75 51.75 0 01-11.39-4.56c-5.41-3.13-9.91-7.81-16.23-9a22.61 22.61 0 00-12.13 1.04c.48.26 4.33 2.2 4.22 2.47S57.61 3.13 57 2.9c-4.48-.84-9.34-.5-13.25 2-3.59 2.33-6.07 6-7.77 9.88a14.64 14.64 0 00-.5 8.89 37.94 37.94 0 013.29-2.41z"/>
      <path class="cls-16" d="M10 56.81c-1.06 2.37.82 5 2.39 6.64 2 2.08 4.51.54 5.22-1.93.67-2.28-1.34-4.2-2.7-5.74s-4.04-.85-4.91 1.03z"/>
      <path class="cls-14" d="M11.37 57.08a3.32 3.32 0 012.77-1.91A3.16 3.16 0 0010 56.81c-1.06 2.37.82 5 2.39 6.64a2.79 2.79 0 002.27 1 3.75 3.75 0 01-.92-.69c-1.55-1.66-3.43-4.31-2.37-6.68z"/>
      <path class="cls-17" d="M17.63 61.52c.67-2.28-1.34-4.2-2.7-5.74a2.4 2.4 0 00-.79-.61 3.32 3.32 0 00-2.77 1.91c-1.06 2.37.82 5 2.39 6.64a3.75 3.75 0 00.92.69 3.74 3.74 0 002.95-2.89z"/>
      <path class="cls-3" d="M23 43.62a63.79 63.79 0 019.5-13.93A42.76 42.76 0 0137.66 25a49.14 49.14 0 016.47-4.63 32.92 32.92 0 0115.44-4.06C72 16.63 84.05 19.59 96.16 22c5.44 1.07 10.93 1.85 16.35 3a49.55 49.55 0 004.95 1h.2c.03 0-8.87-2.48-9.61-2.65-4.29-1-8.6-1.86-12.9-2.77-6.81-1.45-13.62-2.88-20.48-4S60.78 14.39 54 15.66c-13.51 2.52-24.1 13.07-31.81 23.79-3.32 4.61-5.18 10.35-7 15.68a18.57 18.57 0 012.81 3.7c1.77-5.02 2.6-10.41 5-15.21z"/>
      <path class="cls-3" d="M23 43.62a63.79 63.79 0 019.5-13.93A42.76 42.76 0 0137.66 25a49.14 49.14 0 016.47-4.63 32.92 32.92 0 0115.44-4.06C72 16.63 84.05 19.59 96.16 22c5.44 1.07 10.93 1.85 16.35 3a49.55 49.55 0 004.95 1h.2c.03 0-8.87-2.48-9.61-2.65-4.29-1-8.6-1.86-12.9-2.77-6.81-1.45-13.62-2.88-20.48-4S60.78 14.39 54 15.66c-13.51 2.52-24.1 13.07-31.81 23.79-3.32 4.61-5.18 10.35-7 15.68a18.57 18.57 0 012.81 3.7c1.77-5.02 2.6-10.41 5-15.21z"/>
      <path class="cls-18" d="M12.58 66.41l.83-.79a4.1 4.1 0 01-1.05-.62 5.45 5.45 0 01.22 1.41z"/>
      <path class="cls-19" d="M45.28 135.47l-.09-.78c-1.78-3.12-3.94-7-7.58-8.19a6.59 6.59 0 00-8.22 4.29 12.29 12.29 0 00.14 5.59 35.74 35.74 0 001.57 5.73 26.94 26.94 0 005.62 8.8c1.92 2.11 4.7 3.93 7.65 3 2.53-.79 3.29-4.17 3.56-6.44a28.31 28.31 0 01-2.65-12zm-.59 17.1c-2.8 2-6.19-1.68-7-4.12.87 2 3 4.13 5.33 4s3-3 2.37-5c.91 2.05.67 4.16-.7 5.12z"/>
      <path class="cls-14" d="M38.34 152a26.94 26.94 0 01-5.62-8.8 35.74 35.74 0 01-1.57-5.73 12.43 12.43 0 01-.15-5.59 6.61 6.61 0 018.23-4.29 7.83 7.83 0 011.11.46 8.1 8.1 0 00-2.73-1.54 6.59 6.59 0 00-8.22 4.29 12.29 12.29 0 00.14 5.59 35.74 35.74 0 001.57 5.73 26.94 26.94 0 005.62 8.8 11.44 11.44 0 003.07 2.46 13.56 13.56 0 01-1.45-1.38z"/>
      <path class="cls-20" d="M44.69 152.57c1.37-1 1.61-3.07.73-5.12.64 2 .15 4.8-2.37 5s-4.46-1.95-5.33-4c.78 2.44 4.17 6.07 6.97 4.12z"/>
      <path class="cls-21" d="M46.9 136.55l-.09-.78c-1.59-2.78-3.48-6.2-6.47-7.73 2.09 1.75 3.57 4.4 4.85 6.65l.09.78a28.31 28.31 0 002.65 12c-.27 2.27-1 5.65-3.56 6.44a5.87 5.87 0 01-4.58-.54c1.75 1.42 3.92 2.33 6.2 1.62 2.53-.79 3.29-4.17 3.56-6.44a28.31 28.31 0 01-2.65-12z"/>
      <path class="cls-22" d="M44.37 153.91c2.53-.79 3.29-4.17 3.56-6.44a28.31 28.31 0 01-2.65-12l-.09-.78c-1.28-2.25-2.76-4.9-4.85-6.65a7.83 7.83 0 00-1.11-.46 6.61 6.61 0 00-8.23 4.29 12.43 12.43 0 00.15 5.59 35.74 35.74 0 001.57 5.73 26.94 26.94 0 005.62 8.8 13.56 13.56 0 001.45 1.38 5.87 5.87 0 004.58.54zm-6.65-5.46c.87 2 3 4.13 5.33 4s3-3 2.37-5c.88 2.05.64 4.16-.73 5.12-2.8 1.95-6.19-1.68-6.97-4.12z"/>
      <path class="cls-23" d="M60.44 63.56c-.95.47-.42 3-.27 3.75s1.22 3.32 2.22 2.2a2.69 2.69 0 00.28-.87c.17-1.15-.43-5.41-2.23-5.08z"/>
      <path class="cls-24" d="M117.54 129.19c-.51-9.86-7.39-17.78-14.65-23.83a16.68 16.68 0 012.78 1.34 50.44 50.44 0 01-4.86-10.65 18.08 18.08 0 01-2.66 4.28 35.29 35.29 0 002.37-11.44A36.84 36.84 0 0099 75.51 20.1 20.1 0 0095.21 78a20.57 20.57 0 015.13-3.67c1.82-.87 4.5-1.3 6.35-.27 1.53.86 1.33 2.7.06 3.73-1.58 1.29-4 .62-5.66-.24.18.88.32 1.78.51 2.66a4.4 4.4 0 013.24-.41 3.67 3.67 0 003.16-.9c1.75-1.58 2.5-4.24.37-5.87-2.47-1.89-5.93-.93-8.79-1.42a9.44 9.44 0 01-5.7-3.13 12.67 12.67 0 002.23 1.27c-1.89-2.74-4.57-5.72-7.71-7a12.3 12.3 0 00-8.52.09 4.18 4.18 0 011.16 1.56c2.34-.74 5.12-.89 7.26.51a5.36 5.36 0 012.44 4.79c-.28 4.65-4.41 8.89-8.22 11.09a18.24 18.24 0 01-2 1.09A13.58 13.58 0 0182.25 86c-3.47-7.23-8.72-14.18-15.5-18.6a7.13 7.13 0 01-2.14 4.48c1.49-3.6.72-9-3-11.06-3.28-1.83-6.56 2.07-8.2 4.45-.06-.18-.09-.29-.09-.29a22.39 22.39 0 012.06-3.22 30.56 30.56 0 00-17.72-.25c-5.68 1.63-10 6.11-12.49 11.37a25.84 25.84 0 00-1.71 17.7c1.65 5.84 6.26 10.58 11.05 14.08a35.08 35.08 0 0012.12 5.68 42.59 42.59 0 0016.58 1.2 27.46 27.46 0 01-14.38.94 55.74 55.74 0 00-2.72 17.09 7.53 7.53 0 014.27-5 12.44 12.44 0 016.4-.94c4.37.57 7.82 3.21 11 6.15a6.57 6.57 0 003.51 1.69 30 30 0 003.81.17c.44 0-.71.45-1.65.41h-2.23a7.54 7.54 0 01-1.93-.27c1 1.37 1.77 2.68 2.41 3.8-2.86-3.27-5.56-6.49-9.34-8.72-3.57-2.12-7.54-3.45-11.47-1.55 1.48.09 1.8 1.5 1.92 2.72.3 0 .62 0 .93.07-.26-2.82 2.76-4 4.8-2.24s2.1 4.89 2.33 7.19c2.47 3.32 4.79 6.84 5.72 10.94s.92 9.16-1.21 12.79A12.46 12.46 0 0072.1 152a10 10 0 01-.4 1 38.46 38.46 0 014.68-.15c-1.12-2.41-.78-5.88-.18-8.38a19.63 19.63 0 014.26-8.11 27 27 0 002.14-4.87 18 18 0 00.44-4.2 34.16 34.16 0 00-.42-5.53l.28.14a34.27 34.27 0 011.17 5.66 12.84 12.84 0 01-1 6.76 13.39 13.39 0 014.6-1.28 15.83 15.83 0 00-7.09 5.3 17.9 17.9 0 00-3.6 7.53 4.69 4.69 0 012.18-3.05 3 3 0 013.24.51c1.43 1.41 1.3 3.49 1.1 5.31.29-1.73.49-4.13 2.51-4.63a3.83 3.83 0 014.35 2c1.19 2.19.85 4.71.14 7a4.51 4.51 0 01-1.57 2.57c-.92.59-2 .26-3 .12a24 24 0 008.45-.06 22.55 22.55 0 007.68-2.39 5.39 5.39 0 002.38-6.5 28 28 0 00-2.75-6.87c-.11.4-1.49 5-1.62 5-.29-.14.31-2.47.36-2.75a21.46 21.46 0 012.39-7.57 25.5 25.5 0 013.06-4.11l.14.06a25.42 25.42 0 00-3.63 7.09l-.52 1.69c2.3 3.2 4.41 9.57 3.82 11.29 4.15-2.21 8.26-5.47 10-10a27.65 27.65 0 001.85-11.39zM63.06 69.55c-.46 1.09-1.6 2.14-2.77 1.28a5.39 5.39 0 01-1.72-4.67c.08-1.06.61-3.69 2.17-3.45a1.42 1.42 0 00-2.27.21 6.61 6.61 0 00-.69 1.35c.43-.93.65-3.11 2.15-3s2.2 2.13 2.61 3.23a6.1 6.1 0 01.52 5.05z"/>
      <path class="cls-23" d="M105.62 77.79a1.72 1.72 0 001.28-2.24c-.88-2.27-4.77-1.27-6.39-.69.23.74.43 1.47.59 2.22 1.36.53 3.06 1.15 4.52.71z"/>
      <path class="cls-14" d="M128.84 144.36a3.58 3.58 0 00-3.57-1.54c-.09.54-1.36 1.91-.94 2.41.28.34 1 0 1.42.15a1.43 1.43 0 01.88.93c1.21 1.53 3.3 1.32 4.7.07a9.3 9.3 0 01-1.47-.72 8.59 8.59 0 01-1.02-1.3z"/>
      <path class="cls-25" d="M88.87 154.76a7.5 7.5 0 001.46-4.06c.33-2.35-.48-5.89-3.43-5.91-2.68 0-2.76 3-3.08 5s-.92 4.81 1.7 5.26c1.09.21 2.48.62 3.35-.29z"/>
      <path class="cls-26" d="M125.25 145.91c-.7-.11-2.07.38-1.81-.86a18.37 18.37 0 011.31-2.53c-.83-.15-2 1.72-2.42 2.23a4.44 4.44 0 01-2.19 1.35 5.11 5.11 0 01-4.89-1.36 20.33 20.33 0 01-2.16 2.2 29.11 29.11 0 007.8.1c1.29-.21 2.55-.6 3.84-.78.27-.05 1.59-.18.52-.35z"/>
      <path class="cls-27" d="M60.25 132.06c-.4-2.12-1.51-7.85-4.93-6.18a2 2 0 00-.94 2.26 9.65 9.65 0 015.87 3.92z"/>
      <path class="cls-28" d="M49.72 126c-1.71.51-2.38 2.63-2.67 4.19a9 9 0 015.23-2.19 1.94 1.94 0 00-2.56-2z"/>
      <path class="cls-29" d="M65.36 144.39a24.23 24.23 0 00-3.54-8.28c-1.45-2.28-3-4.92-5.36-6.32a7 7 0 00-7.71.22c-2.52 1.71-3.07 4.47-2.75 7.33a30.29 30.29 0 007.85 17.28 10.67 10.67 0 004.36 3.09c7.61 2.53 8.08-8.57 7.15-13.32zm-3.15 12c-2.94 2.05-6.49-1.76-7.31-4.31.91 2.11 3.1 4.32 5.59 4.16s3.14-3.17 2.51-5.24c.7 1.67.91 4.16-.79 5.35z"/>
      <path class="cls-30" d="M57.87 155.51c-.2-.12-.39-.25-.58-.39a9.58 9.58 0 001 1.14 4.43 4.43 0 001.49.61 6.54 6.54 0 01-1.91-1.36zM63.46 156.66a4.11 4.11 0 01-2.21 1.34 3.1 3.1 0 002.31-.54 3.47 3.47 0 001.29-3.23 10.06 10.06 0 01-.57 1.29 3 3 0 01-.82 1.14z"/>
      <path class="cls-31" d="M56.25 153.12a8 8 0 001 2c.19.14.38.27.58.39a8 8 0 01-1.58-2.39z"/>
      <path class="cls-32" d="M63.46 156.66a2.72 2.72 0 01-1.62.62 4.3 4.3 0 01-2.09-.41 4.43 4.43 0 01-1.49-.61 5.65 5.65 0 003 1.71 4.11 4.11 0 002.2-1.31z"/>
      <path class="cls-14" d="M55.2 155.7a30.29 30.29 0 01-7.85-17.28c-.32-2.86.23-5.62 2.75-7.33a7 7 0 017.71-.22l.32.2a9 9 0 00-1.67-1.28 7 7 0 00-7.71.22c-2.52 1.71-3.07 4.47-2.75 7.33a30.29 30.29 0 007.85 17.28 13.42 13.42 0 002.29 2c-.32-.27-.64-.62-.94-.92z"/>
      <path class="cls-33" d="M64.28 155.49a10.06 10.06 0 00.57-1.29 6.94 6.94 0 00-.53-2.13 5.34 5.34 0 01-.04 3.42z"/>
      <path class="cls-34" d="M62.21 156.35c1.7-1.19 1.49-3.68.76-5.36.66 2.08.15 5-2.48 5.21a4.51 4.51 0 01-2.62-.69 6.54 6.54 0 001.88 1.36 3.1 3.1 0 002.46-.52z"/>
      <path class="cls-35" d="M54.9 152a8.5 8.5 0 003.36 4.22 9.58 9.58 0 01-1-1.14A7.93 7.93 0 0154.9 152z"/>
      <path class="cls-36" d="M66.71 145.47a24.23 24.23 0 00-3.54-8.28c-1.38-2.18-2.83-4.68-5-6.12a26.94 26.94 0 013.69 5 24.23 24.23 0 013.54 8.28 20.91 20.91 0 01-.51 9.81 3.47 3.47 0 01-1.29 3.23 3.1 3.1 0 01-2.31.54 5.7 5.7 0 01-3-.26 8.62 8.62 0 01-2.07-1.06 9.73 9.73 0 003.42 2.14c7.53 2.57 8-8.53 7.07-13.28z"/>
      <path class="cls-37" d="M64.28 155.49a6.61 6.61 0 01-.82 1.17 3 3 0 00.82-1.17z"/>
      <path class="cls-38" d="M82.55 150c.34-1.78.75-4.28-.78-5.67-2.15-2-4.2.86-4.59 2.8-.32 1.59-.46 4.68 1 5.79.68.52 2.43 1 3.12.29a6.5 6.5 0 001.25-3.21z"/>
      <path class="cls-39" d="M83.22 150.4c-.3 1.47-.77 4-2.63 4 .71.21 1.55.42 2.55.68l1.1.29c-1.78-.87-1.24-3.37-1.02-4.97z"/>
      <path class="cls-40" d="M43.05 152.42c-2.38.16-4.46-1.95-5.33-4 .78 2.44 4.17 6.07 7 4.12 1.37-1 1.61-3.07.73-5.12.61 2.02.12 4.83-2.4 5z"/>
      <path class="cls-14" d="M8.41 68.55a2.09 2.09 0 01-.28-.24 9.14 9.14 0 01-2.36-6.18A2.93 2.93 0 017 59.86a1.15 1.15 0 011-.15 1.23 1.23 0 00-1.58-.26 3 3 0 00-1.28 2.27 9.16 9.16 0 002.37 6.19 2.9 2.9 0 00.9.64z"/>
      <path class="cls-30" d="M7.21 58.22C8 58.23 8.55 59 9 59.53a4.3 4.3 0 011.38-4.26 3.82 3.82 0 013.72-.88c.2-.58.4-1.14.6-1.69a17.6 17.6 0 00-9.43 6.43 2.75 2.75 0 00-.17.29 2.83 2.83 0 012.11-1.2zM4 68.78C1.84 70.6.67 72.05 2.39 73.23c1 .68 2.61-.11 4.76-1.85A5.92 5.92 0 014 68.78z"/>
      <path class="cls-30" d="M5.72 67a11.52 11.52 0 01-1.53-4.89c-.9.23-.93 1.41-.88 2.16C3.48 66.83 6 72 9.23 70.13c-1.81.04-2.78-1.72-3.51-3.13zM27.61 66.35c-2.88-3-4-7.34-7.93-9.32-.4 1.31-.78 2.4-1.16 3.34.34 2.08-1.39 5-3.54 5.42A51.35 51.35 0 019 71a11.38 11.38 0 002.87 1.52 45.34 45.34 0 0011 2 26.51 26.51 0 014.74-8.17z"/>
      <path class="cls-30" d="M12.58 66.41l.83-.79a4.1 4.1 0 01-1.05-.62 5.45 5.45 0 01.22 1.41zM35.79 125.48c.29 0 .59 0 .89.07-.24-2.64 2.55-3.78 4.51-2.19s2.07 4.7 2.3 6.91c.5.67 1 1.38 1.52 2.11a56.33 56.33 0 01.1-7.9c-3.17-1.91-6.8-3.15-9.43-2.28a15.83 15.83 0 00-1.72.68c1.41.12 1.72 1.44 1.83 2.6zM79.92 80.62c.61-.31 1.22-.65 1.83-1 3.41-2 8.31-6.2 7.31-10.74-1.2-5.39-8.51-4.2-12-2.33l-.32.2a15.39 15.39 0 011.8-1.24 16.53 16.53 0 011.74-.79c-1.47-2.09-4.38-2-6.55-1.22a13.3 13.3 0 00-5.1 3.35 41.85 41.85 0 0111.29 13.77zM38.26 58a5.32 5.32 0 00-2.49 2.59 31.74 31.74 0 015.87-1.31c-.86-.89-2.08-1.74-3.38-1.28zM20.05 55.79a12.09 12.09 0 014.53 4.31c1.27 2 2 3.92 4.29 4.9a19.06 19.06 0 015.77-4 15 15 0 01.89-1.8C33.59 57 30.21 54 21 52.44c-.3 1.02-.59 2.12-.95 3.35z"/>
      <path class="cls-30" d="M38.12 123.49a1.87 1.87 0 00-.9 2.15 9.22 9.22 0 015.61 3.74c-.39-2.02-1.44-7.49-4.71-5.89zM10 56.81c-1.06 2.37.82 5 2.39 6.64 2 2.08 4.51.54 5.22-1.93.67-2.28-1.34-4.2-2.7-5.74s-4.04-.85-4.91 1.03zM23 43.62a63.79 63.79 0 019.5-13.93A42.76 42.76 0 0137.66 25a49.14 49.14 0 016.47-4.63 32.92 32.92 0 0115.44-4.06C72 16.63 84.05 19.59 96.16 22c5.44 1.07 10.93 1.85 16.35 3a49.55 49.55 0 004.95 1h.2c.03 0-8.87-2.48-9.61-2.65-4.29-1-8.6-1.86-12.9-2.77-6.81-1.45-13.62-2.88-20.48-4S60.78 14.39 54 15.66c-13.51 2.52-24.1 13.07-31.81 23.79-3.32 4.61-5.18 10.35-7 15.68a18.57 18.57 0 012.81 3.7c1.77-5.02 2.6-10.41 5-15.21z"/>
      <path class="cls-30" d="M98.84 23a24 24 0 007.58 5c-3-1-6.61-2.6-8.56-5.21-5.22-.95-10.35-2-15.29-2.87.2 2.08 2 4.43 3.27 5.95a24.17 24.17 0 004.22 3.86c-3.87-1.94-7.45-5.59-8.27-9.95-4.74-.87-9.3-1.64-13.61-2.18-1 2.71-.1 6.1 1 8.64.88 2 1.86 4 2.89 5.91a30.8 30.8 0 01-3.83-6.53 13.73 13.73 0 01-1-8.13c-2.64-.29-5.24-.49-7.71-.6a20.74 20.74 0 00-2.56.19c-2.61 2.29-3.65 6.6-4 9.9a57.42 57.42 0 000 9.18 30.87 30.87 0 01-.6-8.95 20.64 20.64 0 013-9.89 35 35 0 00-13 5.17 25.89 25.89 0 00-3.88 9.84 44.3 44.3 0 00-.48 6.9c-1.5-5.15.25-10.89 2.59-15.5a45.07 45.07 0 00-7.09 6.05A58.78 58.78 0 0028 37.33c-1.88 4.08-2.72 9.55 2.28 11.61 4 1.63 8.79 1.11 12.92.56a49.3 49.3 0 0014.43-3.89c3.43-1.58 6.65-3.73 10.21-5A72.4 72.4 0 0175 37.45c.29-.1 1.28-.41.61.13A34.14 34.14 0 0171.82 40c2.75.27 5.31 1.46 8.09 1.6 4.51.22 8.12-2 11.89-4.12 7.65-4.34 16-6.46 24.46-8.73 2.18-.59 3-1.26 3-1.9-2.26-.31-4.5-.93-6.74-1.38-4.52-.96-9.13-1.66-13.68-2.47z"/>
      <path class="cls-30" d="M38.77 21.26c.17-3.26 2.21-6.12 3.91-8.77a28.3 28.3 0 013.91-4.62 52.34 52.34 0 00-3.74 5.27 20.91 20.91 0 00-3.13 7.52 44.72 44.72 0 0113.36-5.49c.93-2.83 3.3-5.34 5.51-7.25a22.6 22.6 0 00-4.8 7.08 46.42 46.42 0 0111.38-.44c1.74-2.15 4.45-3.29 6.88-4.45a27.07 27.07 0 015.27-1.72c-3.95 1.39-8.14 3.22-11.12 6.25a132.66 132.66 0 0114.16 2.19c2.64-2.26 7.07-2.64 10.41-2.63-3.14.31-7.06.83-9.66 2.78 4.48.88 9.59 2 14.62 3 2.11-1.56 5.29-1.9 7.84-1.93a18.36 18.36 0 00-7.22 2.06c7.56 1.56 15.23 2.74 22.43 5.69-1.11-1.14-2.73-1.36-4-2.23-2.39-1.66-4.51-3.61-7.07-5A33 33 0 00101 16a51.75 51.75 0 01-11.39-4.56c-5.41-3.13-9.91-7.81-16.23-9a22.61 22.61 0 00-12.13 1.04c.48.26 4.33 2.2 4.22 2.47S57.61 3.13 57 2.9c-4.48-.84-9.34-.5-13.25 2-3.59 2.33-6.07 6-7.77 9.88a14.64 14.64 0 00-.5 8.89 37.94 37.94 0 013.29-2.41zM65.36 144.39a24.23 24.23 0 00-3.54-8.28c-1.45-2.28-3-4.92-5.36-6.32a7 7 0 00-7.71.22c-2.52 1.71-3.07 4.47-2.75 7.33a30.29 30.29 0 007.85 17.28 10.67 10.67 0 004.36 3.09c7.61 2.53 8.08-8.57 7.15-13.32zM82.55 150c.34-1.78.75-4.28-.78-5.67-2.15-2-4.2.86-4.59 2.8-.32 1.59-.46 4.68 1 5.79.68.52 2.43 1 3.12.29a6.5 6.5 0 001.25-3.21z"/>
      <path class="cls-30" d="M117.54 129.19c-.51-9.86-7.39-17.78-14.65-23.83a16.68 16.68 0 012.78 1.34 50.44 50.44 0 01-4.86-10.65 18.08 18.08 0 01-2.66 4.28 35.29 35.29 0 002.37-11.44A36.84 36.84 0 0099 75.51 20.1 20.1 0 0095.21 78a20.57 20.57 0 015.13-3.67c1.82-.87 4.5-1.3 6.35-.27 1.53.86 1.33 2.7.06 3.73-1.58 1.29-4 .62-5.66-.24.18.88.32 1.78.51 2.66a4.4 4.4 0 013.24-.41 3.67 3.67 0 003.16-.9c1.75-1.58 2.5-4.24.37-5.87-2.47-1.89-5.93-.93-8.79-1.42a9.44 9.44 0 01-5.7-3.13 12.67 12.67 0 002.23 1.27c-1.89-2.74-4.57-5.72-7.71-7a12.3 12.3 0 00-8.52.09 4.18 4.18 0 011.16 1.56c2.34-.74 5.12-.89 7.26.51a5.36 5.36 0 012.44 4.79c-.28 4.65-4.41 8.89-8.22 11.09a18.24 18.24 0 01-2 1.09A13.58 13.58 0 0182.25 86c-3.47-7.23-8.72-14.18-15.5-18.6a7.13 7.13 0 01-2.14 4.48c1.49-3.6.72-9-3-11.06-3.28-1.83-6.56 2.07-8.2 4.45-.06-.18-.09-.29-.09-.29a22.39 22.39 0 012.06-3.22 30.56 30.56 0 00-17.72-.25c-5.68 1.63-10 6.11-12.49 11.37a25.84 25.84 0 00-1.71 17.7c1.65 5.84 6.26 10.58 11.05 14.08a35.08 35.08 0 0012.12 5.68 42.59 42.59 0 0016.58 1.2 27.46 27.46 0 01-14.38.94 55.74 55.74 0 00-2.72 17.09 7.53 7.53 0 014.27-5 12.44 12.44 0 016.4-.94c4.37.57 7.82 3.21 11 6.15a6.57 6.57 0 003.51 1.69 30 30 0 003.81.17c.44 0-.71.45-1.65.41h-2.23a7.54 7.54 0 01-1.93-.27c1 1.37 1.77 2.68 2.41 3.8-2.86-3.27-5.56-6.49-9.34-8.72-3.57-2.12-7.54-3.45-11.47-1.55 1.48.09 1.8 1.5 1.92 2.72.3 0 .62 0 .93.07-.26-2.82 2.76-4 4.8-2.24s2.1 4.89 2.33 7.19c2.47 3.32 4.79 6.84 5.72 10.94s.92 9.16-1.21 12.79A12.46 12.46 0 0072.1 152a10 10 0 01-.4 1 38.46 38.46 0 014.68-.15c-1.12-2.41-.78-5.88-.18-8.38a19.63 19.63 0 014.26-8.11 27 27 0 002.14-4.87 18 18 0 00.44-4.2 34.16 34.16 0 00-.42-5.53l.28.14a34.27 34.27 0 011.17 5.66 12.84 12.84 0 01-1 6.76 13.39 13.39 0 014.6-1.28 15.83 15.83 0 00-7.09 5.3 17.9 17.9 0 00-3.6 7.53 4.69 4.69 0 012.18-3.05 3 3 0 013.24.51c1.43 1.41 1.3 3.49 1.1 5.31.29-1.73.49-4.13 2.51-4.63a3.83 3.83 0 014.35 2c1.19 2.19.85 4.71.14 7a4.51 4.51 0 01-1.57 2.57c-.92.59-2 .26-3 .12a24 24 0 008.45-.06 22.55 22.55 0 007.68-2.39 5.39 5.39 0 002.38-6.5 28 28 0 00-2.75-6.87c-.11.4-1.49 5-1.62 5-.29-.14.31-2.47.36-2.75a21.46 21.46 0 012.39-7.57 25.5 25.5 0 013.06-4.11l.14.06a25.42 25.42 0 00-3.63 7.09l-.52 1.69c2.3 3.2 4.41 9.57 3.82 11.29 4.15-2.21 8.26-5.47 10-10a27.65 27.65 0 001.85-11.39z"/>
      <path class="cls-30" d="M83.22 150.4c-.3 1.47-.77 4-2.63 4 .71.21 1.55.42 2.55.68l1.1.29c-1.78-.87-1.24-3.37-1.02-4.97z"/>
      <path class="cls-30" d="M88.87 154.76a7.5 7.5 0 001.46-4.06c.33-2.35-.48-5.89-3.43-5.91-2.68 0-2.76 3-3.08 5s-.92 4.81 1.7 5.26c1.09.21 2.48.62 3.35-.29zM125.25 145.91c-.7-.11-2.07.38-1.81-.86a18.37 18.37 0 011.31-2.53c-.83-.15-2 1.72-2.42 2.23a4.44 4.44 0 01-2.19 1.35 5.11 5.11 0 01-4.89-1.36 20.33 20.33 0 01-2.16 2.2 29.11 29.11 0 007.8.1c1.29-.21 2.55-.6 3.84-.78.27-.05 1.59-.18.52-.35zM105.62 77.79a1.72 1.72 0 001.28-2.24c-.88-2.27-4.77-1.27-6.39-.69.23.74.43 1.47.59 2.22 1.36.53 3.06 1.15 4.52.71z"/>
      <path class="cls-30" d="M128.84 144.36a3.58 3.58 0 00-3.57-1.54c-.09.54-1.36 1.91-.94 2.41.28.34 1 0 1.42.15a1.43 1.43 0 01.88.93c1.21 1.53 3.3 1.32 4.7.07a9.3 9.3 0 01-1.47-.72 8.59 8.59 0 01-1.02-1.3zM49.72 126c-1.71.51-2.38 2.63-2.67 4.19a9 9 0 015.23-2.19 1.94 1.94 0 00-2.56-2zM47.79 152.92a15.09 15.09 0 002.7-1.21c-.53-.75-1-1.5-1.46-2.26a11.63 11.63 0 01-1.24 3.47zM60.25 132.06c-.4-2.12-1.51-7.85-4.93-6.18a2 2 0 00-.94 2.26 9.65 9.65 0 015.87 3.92zM32.35 123.79c-1.33.71-1.86 2.45-2.12 3.82a8.72 8.72 0 015-2.12 1.89 1.89 0 00-2.88-1.7z"/>
      <path class="cls-30" d="M45.28 135.47l-.09-.78c-1.78-3.12-3.94-7-7.58-8.19a6.59 6.59 0 00-8.22 4.29 12.29 12.29 0 00.14 5.59 35.74 35.74 0 001.57 5.73 26.94 26.94 0 005.62 8.8c1.92 2.11 4.7 3.93 7.65 3 2.53-.79 3.29-4.17 3.56-6.44a28.31 28.31 0 01-2.65-12z"/>
      <path class="cls-41" d="M130.39 145.19c-1.13-.73-1.94-2.06-3-2.77s-2.17.19-2.1-.18c.47-2.49-3.71 2.34-4.26 2.65a4 4 0 01-2.7.64 11.28 11.28 0 01-2.38-1.66c3.46-4.82 3.63-12.16 2.65-17.78a30 30 0 00-10.6-17.71 59.81 59.81 0 01-6.13-16.18 50.53 50.53 0 00-.17-11.2c2-1.26 4.16.07 6.18-1.14a4.66 4.66 0 002.51-4.82 4.56 4.56 0 00-4.1-3.68c-2.52-.42-5 0-7.54-.66-2-3.67-5.3-7.65-9.31-9.16a15.26 15.26 0 00-10.9.54c-3.85-1.35-8.22 1.42-10.74 4.14-.38-.27-.77-.54-1.17-.8-.48-2.5-2-5.35-4.51-6.37a5.06 5.06 0 00-5.59 1.41A30.91 30.91 0 0043.3 59.1a8.79 8.79 0 00-3.14-2.16 3.12 3.12 0 00-3.57.83c-1.45-.87-3.31-2.12-3.31-2.12a23.12 23.12 0 00-6.71-3.07 28.85 28.85 0 00-5.32-1.19A38.66 38.66 0 0125 42.25c-2 10.86 14.3 9.42 20.71 8.45a50.49 50.49 0 0015.9-5.45c3.39-1.76 7-4.08 11-3.45 1.77.27 3.48.84 5.24 1.14a15.81 15.81 0 006.64-.19c3.2-.79 5.84-2.61 8.67-4.19a74.53 74.53 0 018.92-4.16 139.85 139.85 0 0115-4.71c1.57-.43 4.22-1.37 3.74-3.5a4.09 4.09 0 00-2.62-2.66 32.35 32.35 0 01-4.81-3.35 32.47 32.47 0 00-7.7-4.18c-3.32-1.2-6.73-2.12-10-3.54-5.14-2.26-9.53-5.55-14.09-8.74A21.56 21.56 0 0066 .26a22 22 0 00-5.85 1.64C54.17-.33 47 0 41.7 3.67a18.91 18.91 0 00-6.92 8.77 18.5 18.5 0 000 11.81 87.29 87.29 0 00-11.87 12.68 54.33 54.33 0 00-7.59 14.19A18.09 18.09 0 007 55c-2.23 1.8-4 3.88-4 6.91-1.6 1.58-.28 4.71.66 6.28-1.54 1-5.13 3.71-2.94 5.76 1.9 1.77 5.6-1 7.16-2.08C9.27 73.56 12 74.17 14 74.7c2.72.69 5.51 1.07 8.29 1.49a27.91 27.91 0 00-.79 13.61c.95 4.65 3.47 8.29 6.77 11.63a39.6 39.6 0 0019 10.71 61.12 61.12 0 00-2.12 11.15c-3.74-2.1-8.09-2.8-12.08-.94-3.12 1.44-4.18 4.84-4.43 8.06a19.68 19.68 0 00.38 7.17 23.68 23.68 0 002.51 7.42c2.53 4.58 7.86 12.75 14.21 9.94a17.2 17.2 0 005.26-2.58c2.73 3.74 7.13 8.76 12.35 6.44a17.54 17.54 0 006.85-3.8 49.43 49.43 0 018-.19c3.78 2.38 8.82 3 13.17 2.55a38.15 38.15 0 007.76-1.64c2.24-.7 4.47-1.53 5.81-3.59a35.62 35.62 0 007-4.19 28.12 28.12 0 007.61.22 17.93 17.93 0 003.26-.56c1-.29 2.36-1 3.44-.83 1.14 1.13 1.86 1.52 3.54 1a6.94 6.94 0 002.3-1.35c.14-.22-1.57-1.14-1.7-1.23zm-56.7-81.73c2.17-.75 5.08-.87 6.55 1.22a16.53 16.53 0 00-1.74.79 15.39 15.39 0 00-1.8 1.24l.32-.2c3.53-1.87 10.84-3.06 12 2.33 1 4.54-3.9 8.76-7.31 10.74-.61.39-1.22.73-1.83 1a41.85 41.85 0 00-11.29-13.77 13.3 13.3 0 015.1-3.35zM38.26 58c1.3-.48 2.52.37 3.38 1.28a31.74 31.74 0 00-5.87 1.31A5.32 5.32 0 0138.26 58zm-2.73 1.23a15 15 0 00-.89 1.8 19.06 19.06 0 00-5.77 4c-2.3-1-3-2.92-4.29-4.9a12.09 12.09 0 00-4.53-4.31c.36-1.23.65-2.33.92-3.35C30.21 54 33.59 57 35.53 59.25zm83.71-32.43c0 .64-.8 1.31-3 1.9-8.39 2.3-16.79 4.41-24.44 8.75-3.77 2.14-7.38 4.34-11.89 4.12-2.78-.14-5.34-1.33-8.09-1.6a34.14 34.14 0 003.76-2.39c.67-.54-.32-.23-.61-.13a72.4 72.4 0 00-7.17 3.14c-3.56 1.29-6.78 3.44-10.21 5a49.3 49.3 0 01-14.43 3.91c-4.13.55-8.95 1.07-12.92-.56-5-2.06-4.16-7.53-2.28-11.61a58.78 58.78 0 015.57-7.55 45.07 45.07 0 017.09-6.05c-2.34 4.61-4.09 10.35-2.59 15.5a44.3 44.3 0 01.48-6.9 25.89 25.89 0 013.88-9.84 35 35 0 0113-5.17 20.64 20.64 0 00-3 9.89 30.87 30.87 0 00.6 8.95A57.42 57.42 0 0153 27c.31-3.3 1.35-7.61 4-9.9a20.74 20.74 0 012.56-.19c2.47.09 5.07.31 7.76.62a13.73 13.73 0 001 8.13 30.8 30.8 0 003.83 6.53c-1-1.94-2-3.9-2.89-5.91-1.11-2.54-2-5.93-1-8.64 4.31.54 8.87 1.31 13.61 2.18.82 4.36 4.4 8 8.27 10a24.17 24.17 0 01-4.22-3.86c-1.3-1.52-3.07-3.87-3.27-5.95 4.94.91 10.07 1.92 15.29 2.87 2 2.61 5.56 4.2 8.56 5.21a24 24 0 01-7.58-5c4.55.82 9.12 1.52 13.65 2.44 2.24.45 4.48 1.07 6.74 1.38zm-83.31-12c1.7-3.85 4.18-7.55 7.77-9.88C47.61 2.4 52.47 2.06 57 2.9c.66.23 8.43 3.3 8.52 3.05s-3.74-2.21-4.22-2.47a22.61 22.61 0 0112.08-1.06c6.32 1.22 10.82 5.9 16.23 9A51.75 51.75 0 00101 16a33 33 0 016.71 2.61c2.56 1.41 4.68 3.36 7.07 5 1.27.87 2.89 1.09 4 2.23-7.2-2.95-14.87-4.13-22.43-5.69a18.36 18.36 0 017.22-2.06c-2.55 0-5.73.37-7.84 1.93-5-1.05-10.14-2.16-14.62-3 2.6-2 6.52-2.47 9.66-2.78-3.34 0-7.77.37-10.41 2.63a132.66 132.66 0 00-14.16-2.2c3-3 7.17-4.86 11.12-6.25a27.07 27.07 0 00-5.27 1.72c-2.43 1.16-5.14 2.3-6.88 4.45a46.42 46.42 0 00-11.38.41 22.6 22.6 0 014.8-7.11c-2.21 1.91-4.58 4.42-5.51 7.25a44.72 44.72 0 00-13.36 5.49 20.91 20.91 0 013.13-7.52 52.34 52.34 0 013.74-5.27 28.3 28.3 0 00-3.91 4.62c-1.68 2.68-3.74 5.54-3.91 8.8a37.94 37.94 0 00-3.34 2.43 14.64 14.64 0 01.5-8.89zM22.15 39.45C29.86 28.73 40.45 18.18 54 15.66c6.82-1.27 13.94-.28 20.71.85s13.67 2.59 20.48 4c4.3.91 8.61 1.78 12.9 2.77.74.17 9.65 2.56 9.61 2.65s-.18 0-.2 0a49.55 49.55 0 01-4.95-1.06c-5.42-1.11-10.91-1.89-16.35-3-12.15-2.28-24.2-5.24-36.63-5.56a32.92 32.92 0 00-15.44 4.06A49.14 49.14 0 0037.66 25a42.76 42.76 0 00-5.19 4.69A63.79 63.79 0 0023 43.62c-2.37 4.8-3.2 10.19-5 15.21a18.57 18.57 0 00-2.84-3.7c1.84-5.33 3.67-11.07 6.99-15.68zm-4.52 22.07c-.71 2.47-3.2 4-5.22 1.93C10.84 61.83 9 59.18 10 56.81c.85-1.88 3.48-2.67 4.91-1s3.39 3.43 2.72 5.71zm-4.22 4.1l-.83.79a5.45 5.45 0 00-.22-1.41 4.1 4.1 0 001.05.62zm-8.1-6.49a17.6 17.6 0 019.43-6.43c-.2.55-.4 1.11-.6 1.69a3.82 3.82 0 00-3.72.88A4.3 4.3 0 009 59.53c-.49-.55-1-1.3-1.83-1.31a2.83 2.83 0 00-2.07 1.2 2.75 2.75 0 01.21-.29zm-.22 2.59a3 3 0 011.28-2.27 1.23 1.23 0 011.63.26 2.65 2.65 0 011.1.85c1.45 1.62 3.36 4 3.29 6.28a2.33 2.33 0 01-3.93 1.71 2.9 2.9 0 01-1-.64 9.16 9.16 0 01-2.37-6.19zm-2.7 11.51C.67 72.05 1.84 70.6 4 68.78a5.92 5.92 0 003.13 2.6C5 73.12 3.4 73.91 2.39 73.23zm.92-8.94c-.05-.75 0-1.93.88-2.16A11.52 11.52 0 005.72 67c.73 1.39 1.7 3.15 3.51 3.11C6 72 3.48 66.83 3.31 64.29zm8.57 8.26A11.38 11.38 0 019 71a51.35 51.35 0 006-5.24c2.15-.45 3.88-3.34 3.54-5.42.38-.94.76-2 1.16-3.34 3.91 2 5.05 6.3 7.93 9.32a26.51 26.51 0 00-4.75 8.22 45.34 45.34 0 01-11-1.99zm23.8 49.65c2.63-.87 6.26.37 9.43 2.28a56.33 56.33 0 00-.1 7.9c-.51-.73-1-1.44-1.52-2.11-.23-2.21-.43-5.4-2.3-6.91s-4.75-.45-4.51 2.19c-.3 0-.6-.06-.89-.07-.11-1.16-.42-2.51-1.83-2.6a15.83 15.83 0 011.72-.68zm7.15 7.18a9.22 9.22 0 00-5.61-3.74 1.87 1.87 0 01.9-2.15c3.27-1.6 4.32 3.87 4.71 5.89zm-10.48-5.59a1.89 1.89 0 012.87 1.7 8.72 8.72 0 00-5 2.12c.27-1.37.78-3.11 2.13-3.82zm12 30.12c-2.95.93-5.73-.89-7.65-3a26.94 26.94 0 01-5.62-8.8 35.74 35.74 0 01-1.57-5.73 12.29 12.29 0 01-.14-5.59 6.59 6.59 0 018.22-4.29c3.64 1.15 5.8 5.07 7.58 8.19l.09.78a28.31 28.31 0 002.65 12c-.25 2.27-1.01 5.65-3.54 6.44zm3.42-1a11.63 11.63 0 001.23-3.46c.45.76.93 1.51 1.46 2.26a15.09 15.09 0 01-2.67 1.21zm10.42 4.79a10.67 10.67 0 01-4.36-3.09A30.29 30.29 0 0146 137.34c-.32-2.86.23-5.62 2.75-7.33a7 7 0 017.71-.22c2.4 1.4 3.91 4 5.36 6.32a24.23 24.23 0 013.54 8.28c.93 4.75.46 15.85-7.15 13.32zm-11.16-27.5c.29-1.56 1-3.68 2.67-4.19a1.94 1.94 0 012.56 2 9 9 0 00-5.21 2.2zm8.27-4.33c3.42-1.67 4.53 4.06 4.93 6.18a9.65 9.65 0 00-5.87-3.92 2 2 0 01.96-2.25zM78.19 153c-1.47-1.11-1.33-4.2-1-5.79.39-1.94 2.44-4.77 4.59-2.8 1.53 1.39 1.12 3.89.78 5.67a6.5 6.5 0 01-1.24 3.21c-.7.71-2.45.19-3.13-.29zm5 2.1c-1-.26-1.84-.47-2.55-.68 1.86 0 2.33-2.51 2.63-4-.21 1.57-.76 4.1 1 4.95zm.68-5.25c.32-2 .4-5 3.08-5 2.95 0 3.76 3.56 3.43 5.91a7.5 7.5 0 01-1.46 4.06c-.88.91-2.26.5-3.35.31-2.67-.51-2.07-3.33-1.75-5.32zm21.84.76c.59-1.72-1.52-8.09-3.82-11.29l.52-1.69a25.42 25.42 0 013.59-7.13l-.14-.06a25.5 25.5 0 00-3.06 4.11 21.46 21.46 0 00-2.39 7.57c-.05.28-.65 2.61-.36 2.75.13.07 1.51-4.55 1.62-5a28 28 0 012.75 6.87 5.39 5.39 0 01-2.38 6.5 22.55 22.55 0 01-7.68 2.39 24 24 0 01-8.45.06c1 .14 2.11.47 3-.12a4.51 4.51 0 001.57-2.57c.71-2.29 1-4.81-.14-7a3.83 3.83 0 00-4.34-2c-2 .5-2.22 2.9-2.51 4.63.2-1.82.33-3.9-1.1-5.31a3 3 0 00-3.24-.51 4.69 4.69 0 00-2.15 3.06 17.9 17.9 0 013.6-7.53 15.83 15.83 0 017.09-5.3 13.39 13.39 0 00-4.6 1.28 12.84 12.84 0 001-6.76 34.27 34.27 0 00-1.17-5.66l-.28-.14a34.16 34.16 0 01.42 5.53 18 18 0 01-.44 4.2 27 27 0 01-2.14 4.87 19.63 19.63 0 00-4.26 8.11c-.6 2.5-.94 6 .18 8.38a38.46 38.46 0 00-4.68.15 10 10 0 00.4-1 12.46 12.46 0 01-6.65 4.75c2.13-3.63 2.13-8.8 1.21-12.79s-3.25-7.62-5.72-10.94c-.23-2.3-.44-5.58-2.33-7.19s-5.06-.58-4.8 2.24c-.31 0-.63-.06-.93-.07-.12-1.22-.44-2.63-1.92-2.72 3.93-1.9 7.9-.57 11.47 1.55 3.78 2.23 6.48 5.45 9.34 8.72a46.45 46.45 0 00-2.41-3.8 7.54 7.54 0 001.93.27c.71.06 1.51 0 2.23 0 .94 0 2.09-.41 1.65-.41a30 30 0 01-3.81-.17 6.57 6.57 0 01-3.51-1.69c-3.23-2.94-6.68-5.58-11-6.15a12.44 12.44 0 00-6.4.94 7.53 7.53 0 00-4.27 5 55.74 55.74 0 012.72-17.09 27.46 27.46 0 0014.38-.94 42.59 42.59 0 01-16.58-1.2 35.08 35.08 0 01-12.12-5.68c-4.79-3.5-9.4-8.24-11-14.08a25.84 25.84 0 011.71-17.7c2.46-5.26 6.81-9.74 12.49-11.37a30.56 30.56 0 0117.72.25A22.39 22.39 0 0053.34 65s0 .11.09.29c1.64-2.38 4.92-6.28 8.2-4.45 3.7 2.07 4.47 7.46 3 11.06a7.13 7.13 0 002.14-4.48c6.78 4.42 12 11.37 15.5 18.6a13.58 13.58 0 00-1.69-4.12 18.24 18.24 0 002-1.09c3.81-2.2 7.94-6.44 8.22-11.09a5.36 5.36 0 00-2.44-4.79c-2.14-1.4-4.92-1.25-7.26-.51a4.18 4.18 0 00-1.16-1.56 12.3 12.3 0 018.52-.09c3.14 1.28 5.82 4.26 7.71 7a12.67 12.67 0 01-2.23-1.27 9.44 9.44 0 005.7 3.13c2.86.49 6.32-.47 8.79 1.42 2.13 1.63 1.38 4.29-.37 5.87a3.67 3.67 0 01-3.17.94 4.4 4.4 0 00-3.24.41c-.19-.88-.33-1.78-.51-2.66 1.64.86 4.08 1.53 5.66.24 1.27-1 1.47-2.87-.06-3.73-1.85-1-4.53-.6-6.35.27A20.57 20.57 0 0095.21 78 20.1 20.1 0 0199 75.51a36.84 36.84 0 011.51 13.38 35.29 35.29 0 01-2.37 11.44 18.08 18.08 0 002.66-4.28 50.44 50.44 0 004.86 10.65 16.68 16.68 0 00-2.78-1.34c7.26 6 14.14 14 14.65 23.83a27.65 27.65 0 01-1.83 11.42c-1.78 4.49-5.89 7.75-10.04 9.96zm-5.15-75.71c1.62-.58 5.51-1.58 6.39.69a1.72 1.72 0 01-1.28 2.24c-1.46.44-3.16-.18-4.52-.71-.21-.79-.41-1.52-.64-2.26zm24.22 71.4c-1.29.18-2.55.57-3.84.78a29.11 29.11 0 01-7.8-.1 20.33 20.33 0 002.16-2.2 5.11 5.11 0 004.89 1.36 4.44 4.44 0 002.19-1.35c.46-.51 1.59-2.38 2.42-2.23a18.37 18.37 0 00-1.31 2.53c-.26 1.24 1.11.75 1.81.86 1.02.13-.3.26-.57.31zm1.9.05a1.43 1.43 0 00-.88-.93c-.38-.14-1.14.19-1.42-.15-.42-.5.85-1.87.94-2.41a3.58 3.58 0 013.57 1.54 8.59 8.59 0 001 1.3 9.3 9.3 0 001.47.72c-1.43 1.21-3.52 1.42-4.73-.11z"/>
      <path class="cls-40" d="M83.68 56.18c-1.77-.65-4.08 0-5.72.78-1.11.51-1.66 2.52 0 2.59.89 0 1.54-.82 2.27-1.22a8 8 0 012.86-.86c.41 0 1.12 0 1.47-.27s-.7-.95-.88-1.02zM93.3 58.77c-.64.54.84 2 1.1 2.43.72 1.23 1 4.08 2.69 4s.5-2.57 0-3.44c-.61-1.07-2.51-4.06-3.79-2.99zM60.49 156.2c-2.49.16-4.68-2-5.59-4.16.82 2.55 4.37 6.36 7.31 4.31 1.7-1.19 1.49-3.68.76-5.36.66 2.08.15 5.01-2.48 5.21zM59.93 61.29c-1.5-.13-1.72 2.05-2.15 3a6.61 6.61 0 01.69-1.35 1.42 1.42 0 012.27-.21c-1.56-.24-2.09 2.39-2.17 3.45a5.39 5.39 0 001.72 4.67c1.17.86 2.31-.19 2.77-1.28a6.1 6.1 0 00-.52-5c-.41-1.15-1.21-3.16-2.61-3.28zm2.74 7.35a2.69 2.69 0 01-.28.87c-1 1.12-2.09-1.58-2.22-2.2s-.68-3.28.27-3.75c1.8-.33 2.4 3.93 2.23 5.08z"/>
      <path class="cls-42" d="M62.47 89.68a3.35 3.35 0 003.65-1.86c.76-1.42.36-2.89-.89-3.28a3.35 3.35 0 00-3.64 1.85c-.77 1.42-.37 2.89.88 3.29z"/>
      <path class="cls-43" d="M62.87 89.47a3 3 0 003-1.68c.67-1.22.4-2.42-.59-2.71a3 3 0 00-3 1.68c-.67 1.24-.4 2.42.59 2.71z"/>
      <path class="cls-42" d="M73.35 91.66A3.31 3.31 0 0076.9 90c.82-1.32.57-2.71-.56-3.11s-2.71.33-3.54 1.64-.58 2.72.55 3.13z"/>
      <path class="cls-43" d="M73.74 91.47a2.93 2.93 0 003-1.5c.72-1.12.57-2.26-.33-2.56a3 3 0 00-2.94 1.5c-.78 1.09-.63 2.27.27 2.56z"/>
      <path class="cls-42" d="M66.75 98.84a3.25 3.25 0 003.34-2c.67-1.4.27-2.76-.89-3.06a3.27 3.27 0 00-3.33 2c-.68 1.39-.28 2.76.88 3.06z"/>
      <path class="cls-43" d="M67.12 98.61a2.86 2.86 0 002.75-1.78c.6-1.19.33-2.32-.6-2.53a2.91 2.91 0 00-2.75 1.78c-.6 1.19-.33 2.33.6 2.53z"/>
      <path class="cls-40" d="M53.91 104c-.9-.24-4.48-1.46-4.91.07-.35 1.22 2 1.12 2.67 1.16a27.5 27.5 0 018.4 2.05 19.47 19.47 0 00-6.16-3.28zM54 108.06a3.4 3.4 0 01-2.35-1.26c-.81-.2-.69.94-.4 1.34.7 1 2.54.9 3.6.86a12.61 12.61 0 002-.22c.2 0 .49-.14.14-.25a18 18 0 00-2.99-.47z"/>
      <path class="cls-44" d="M80.93 69.18c1.13-.89 1.3-2.07.38-2.62a3.62 3.62 0 00-3.7.62c-1.13.9-1.3 2.07-.38 2.62a3.58 3.58 0 003.7-.62zM79 67.6c-.13-.07-.1-.24.06-.36a.48.48 0 01.51-.09c.13.07.1.24-.06.36a.48.48 0 01-.51.09zm-.4 2.12c-.25-.15-.2-.48.11-.73a1 1 0 011-.18c.25.15.2.48-.11.73a1 1 0 01-1.02.18zM75.91 66.1c1.06-.64 1.35-1.56.65-2.06a3.28 3.28 0 00-3.2.26c-1.06.64-1.35 1.56-.65 2.06a3.28 3.28 0 003.2-.26zm-1.45-1.38c-.1-.07 0-.19.1-.28a.44.44 0 01.44 0c.1.06 0 .19-.09.28a.46.46 0 01-.45 0zm-.6 1.66c-.2-.14-.11-.39.18-.57a.93.93 0 01.9-.08c.19.13.1.39-.19.57a.91.91 0 01-.89.08z"/>
      <path class="cls-30" d="M59.93 61.29c-1.5-.13-1.72 2.05-2.15 3a6.61 6.61 0 01.69-1.35 1.42 1.42 0 012.27-.21c-1.56-.24-2.09 2.39-2.17 3.45a5.39 5.39 0 001.72 4.67c1.17.86 2.31-.19 2.77-1.28a6.1 6.1 0 00-.52-5c-.41-1.15-1.21-3.16-2.61-3.28zM51 112.82a27.19 27.19 0 0012.19-1.28 40 40 0 01-13.53-.54 2.5 2.5 0 011.34 1.82z"/>
      <path class="cls-45" d="M23.48 90.58c1.65 5.84 6.26 10.58 11.05 14.08a35.08 35.08 0 0012.12 5.68c1 .26 2 .48 3 .68-3.78-2.16-10-5.4-14.56-15.65s-.54-19.71.54-26.46-6.21 4.59-8.1 8.37-2.7-.81-2.35-4.4a25.84 25.84 0 00-1.7 17.7z"/>
      <path class="cls-46" d="M23.48 90.58c1.65 5.84 6.26 10.58 11.05 14.08a35.08 35.08 0 0012.12 5.68c1 .26 2 .48 3 .68-3.78-2.16-14-6.48-18.61-16.73s.27-19.71 2.7-24.3c3.2-6-5.67 6.75-7.56 10.53s-1.35-4-1-7.64a25.84 25.84 0 00-1.7 17.7z"/>
      <path class="cls-47" d="M51 112.82c-.74-.08-1.47-.2-2.19-.34-.27.86-.52 1.73-.76 2.6 2.18-.08 3.11-1.18 2.95-2.26z"/>
      <path class="cls-48" d="M35.16 67.47q.27-.37.48-.72-.21.33-.48.72z"/>
      <path class="cls-48" d="M29.1 83.86a13.54 13.54 0 012.22.17 5.87 5.87 0 00-2.06-.34h-.17a10.33 10.33 0 01.13-1.69 33.77 33.77 0 013.34-10.07c1.21-.2 2.36-.33 3.37-.4a14.56 14.56 0 00-3.25.18 45.53 45.53 0 012.48-4.25 47.59 47.59 0 00-2.87 4.31h-.15a16.6 16.6 0 00-3.28.93c.93-.25 1.95-.48 3-.68h.26A29.74 29.74 0 0029 81.48a17.35 17.35 0 00-.22 2.23 5.53 5.53 0 00-1.32.25 10.74 10.74 0 011.32-.1A19 19 0 0031 93a26.76 26.76 0 01-1.9-9.18z"/>
      <path class="cls-30" d="M105.85 130.44c-.15.19-.32.38-.48.57a2.62 2.62 0 01.09.33c.2-.3.37-.58.53-.84zM59.93 61.29c-1.5-.13-1.72 2.05-2.15 3a6.61 6.61 0 01.69-1.35 1.42 1.42 0 012.27-.21c-1.56-.24-2.09 2.39-2.17 3.45a5.39 5.39 0 001.72 4.67c1.17.86 2.31-.19 2.77-1.28a6.1 6.1 0 00-.52-5c-.41-1.15-1.21-3.16-2.61-3.28z"/>
      <path class="cls-49" d="M110.71 140.2c-3 1.34-4.59-3-5.13-8.11a6.56 6.56 0 00-.12-.75 21.34 21.34 0 00-3.1 6.25l-.52 1.69c2.3 3.2 4.41 9.57 3.82 11.29 4.15-2.21 8.26-5.47 10-10a27.29 27.29 0 001.82-8.45c0 .07 0 .14-.07.2-1.84 5.44-3.73 6.52-6.7 7.88z"/>
      <path class="cls-30" d="M106 130.5l-.14-.06a25.5 25.5 0 00-3.06 4.11l-.15.31c1-1.4 2.06-2.55 2.82-3.52.19-.34.36-.58.53-.84zM59.93 61.29c-1.5-.13-1.72 2.05-2.15 3a6.61 6.61 0 01.69-1.35 1.42 1.42 0 012.27-.21c-1.56-.24-2.09 2.39-2.17 3.45a5.39 5.39 0 001.72 4.67c1.17.86 2.31-.19 2.77-1.28a6.1 6.1 0 00-.52-5c-.41-1.15-1.21-3.16-2.61-3.28zM78.34 141.88a22.75 22.75 0 012.24-3.54 15.83 15.83 0 017.09-5.3 13.39 13.39 0 00-4.6 1.28 12.84 12.84 0 001-6.76 34.27 34.27 0 00-1.17-5.66l-.28-.14a34.16 34.16 0 01.42 5.53 18 18 0 01-.44 4.2 27 27 0 01-2.14 4.87 19.63 19.63 0 00-4.26 8.11l-.09.41a8.61 8.61 0 011.66-2.53 4.32 4.32 0 01.57-.47z"/>
      <path class="cls-50" d="M79.16 142.82a3 3 0 013.24.51c1.43 1.41 1.3 3.49 1.1 5.31.29-1.73.49-4.13 2.51-4.63a3.83 3.83 0 014.35 2c1.19 2.19.85 4.71.14 7a4.51 4.51 0 01-1.57 2.57c-.92.59-2 .26-3 .12a24 24 0 008.45-.06 22.55 22.55 0 007.68-2.39 5.39 5.39 0 002.38-6.5 28 28 0 00-2.75-6.87c-.11.4-1.49 5-1.62 5-.29-.14.31-2.47.36-2.75a21.28 21.28 0 012.24-7.26c-.3-1.82-3.23 6.28-4 9.12-2.43 9.58-5.75 10-6.34 6.2-.68-4.32-3.65-9-5.54-8s-2.56 1.76-3.64.4-2.84-2.42-4.86-.4a12.42 12.42 0 00-1.29 3.68 4.69 4.69 0 012.16-3.05z"/>
      <path class="cls-14" d="M86.9 144.79c-2.68 0-2.76 3-3.08 5a9.88 9.88 0 00-.19 3.54c.28-1.3.73-4.14 1-5.06a3.39 3.39 0 014.68-2.27 3 3 0 00-2.41-1.21z"/>
      <path class="cls-51" d="M79.39 145.46c-1.31.71-1.89 2.69-2.19 5.83a3 3 0 001 1.67c.68.52 2.43 1 3.12.29a6.5 6.5 0 001.23-3.25c.3-1.56.65-3.68-.3-5.11a3.89 3.89 0 00-2.86.57z"/>
      <path class="cls-14" d="M77.18 147.17a9.86 9.86 0 000 4.12c.3-3.14.88-5.12 2.19-5.83a3.89 3.89 0 012.86-.53 3.16 3.16 0 00-.48-.56c-2.13-1.97-4.18.86-4.57 2.8z"/>
      <path class="cls-52" d="M50.22 4.65a33.91 33.91 0 0112.69 3.24c3.11 1.48 4.87.54 5.41-1.49s6.48-3.64 13.09.68a19.29 19.29 0 004.88 2.23c-4.07-2.81-7.92-5.93-12.91-6.89a22.61 22.61 0 00-12.13 1.06c.48.26 4.33 2.2 4.22 2.47S57.61 3.13 57 2.9c-4.48-.84-9.34-.5-13.25 2-3.59 2.33-6.07 6-7.77 9.88 3.31-5.14 9.11-10.4 14.24-10.13z"/>
    </g>
  </g>
</svg>
