<svg xmlns="http://www.w3.org/2000/svg" viewBox="0 0 512 512"><path d="M458.28 61.22a7.5 7.5 0 01-5.3-12.8L466.2 35.2a83.59 83.59 0 0135.7-21.11 7.5 7.5 0 114.17 14.4A68.53 68.53 0 00476.8 45.8l-13.22 13.22a7.48 7.48 0 01-5.3 2.2z" fill="#495059"/><circle cx="264.39" cy="52.15" r="52.15" fill="#f5d7b7"/><circle cx="264.39" cy="52.15" r="52.15" opacity=".1"/><circle cx="459.85" cy="247.61" r="52.15" fill="#f5d7b7"/><circle cx="459.85" cy="247.61" r="52.15" opacity=".1"/><circle cx="100.47" cy="411.53" r="100.47" fill="#38648c"/><path d="M171.5 482.57c39.24-39.23 39.24-102.84 0-142.08s-102.84-39.23-142.07 0a99.97 99.97 0 00-28.12 55c8.18 5.8 19.6 11.45 35.1 17.44 13.07 5.05 29.05 10.3 47.14 15.52 5.21 18.09 10.47 34.07 15.52 47.15 6 15.49 11.63 26.91 17.45 35.1a100 100 0 0054.99-28.13z" opacity=".1"/><ellipse transform="rotate(-45 358.58 153.42)" cx="358.58" cy="153.41" rx="153.98" ry="150.61" fill="#f5d7b7"/><g fill="#f28b74"><ellipse transform="rotate(-45 293.93 100.61)" cx="293.93" cy="100.61" rx="24.41" ry="30.65"/><ellipse transform="rotate(135 411.4 218.08)" cx="411.4" cy="218.08" rx="24.41" ry="30.65"/></g><g fill="#495059"><path d="M335.66 112.27a7.5 7.5 0 01-5.3-12.8 7.04 7.04 0 002.07-5.01c0-1.9-.74-3.67-2.08-5.01a7.04 7.04 0 00-5-2.08c-1.9 0-3.68.74-5.02 2.08a7.5 7.5 0 11-10.6-10.61 21.94 21.94 0 0115.61-6.47c5.9 0 11.45 2.3 15.62 6.47a21.94 21.94 0 016.47 15.62c0 5.9-2.3 11.44-6.47 15.61a7.47 7.47 0 01-5.3 2.2zM427.86 204.47a7.5 7.5 0 01-5.3-12.8c1.33-1.34 2.07-3.12 2.07-5.01s-.74-3.67-2.08-5.01a7.1 7.1 0 00-10.02 0 7.5 7.5 0 01-10.6-10.61 22.11 22.11 0 0131.23 0c4.17 4.17 6.47 9.72 6.47 15.62s-2.3 11.44-6.47 15.62a7.48 7.48 0 01-5.3 2.2zM368.91 171.1a28.02 28.02 0 01-27.95-29.94 7.5 7.5 0 0114.97 1.03 13.03 13.03 0 0013.88 13.88 7.51 7.51 0 011.03 14.97c-.64.04-1.28.06-1.93.06z"/></g><path d="M317.67 7.63a155.97 155.97 0 00-65.59 39.29c-60.13 60.13-61.2 156.56-2.38 215.38 34.1 34.1 80.85 48.07 125.83 42.07-95.98-31.88-125.38-192.16-57.86-296.74z" opacity=".05"/><path d="M130.18 220.87c61.32.73 199.9 15.33 279.68 56.98A27.74 27.74 0 01423 312.22c-12.51 33.34-45.53 82.6-75.76 112.23a76.18 76.18 0 01-57.62 21.58C205.3 441.23 19.26 398.4 5.7 370.65-8.06 342.46 35.2 269.93 86.88 234a74.24 74.24 0 0143.3-13.12z" fill="#76b7eb"/><path d="M130.18 220.87c61.32.73 199.9 15.33 279.68 56.98A27.74 27.74 0 01423 312.22c-12.51 33.34-45.53 82.6-75.76 112.23a76.18 76.18 0 01-57.62 21.58C205.3 441.23 19.26 398.4 5.7 370.65-8.06 342.46 35.2 269.93 86.88 234a74.24 74.24 0 0143.3-13.12z" opacity=".1"/><path d="M86.88 233.99c-13.25 9.21-25.94 20.83-37.26 33.48 5.23 38.55 14.23 84.91 25.2 128.5.74 2.97 1.5 5.9 2.25 8.8 64.9 19.87 158 37.98 211.48 41.19 2.3-2.95 4.5-5.93 6.6-8.94A94.58 94.58 0 00312 381.56c-.32-26.67-3.85-81.7-14.22-140.88-64.02-13.76-130.19-19.37-167.6-19.81a74.26 74.26 0 00-43.3 13.12z" opacity=".1"/><path d="M291.13 381.82c-.73-61.32-15.33-199.9-56.98-279.68A27.74 27.74 0 00199.78 89c-33.34 12.51-82.6 45.53-112.23 75.76a76.18 76.18 0 00-21.58 57.62c4.8 84.32 47.62 270.36 75.38 283.92 28.19 13.76 100.72-29.49 136.66-81.18a74.26 74.26 0 0013.12-43.3z" fill="#76b7eb"/><g opacity=".1"><path d="M115.31 322.72a7.5 7.5 0 01-7.34-6.03c-.64-3.2-3.63-22.72-3.63-26.5a7.5 7.5 0 0115-.05c.08 2.48 2.58 19.84 3.33 23.6a7.5 7.5 0 01-7.36 8.98zm4.03-32.54h.01zM196.94 186.43a7.52 7.52 0 01-7.12-9.9c.55-1.64 2.04-4.77 5.39-11.63.92-1.9 1.8-3.69 2.12-4.4a7.5 7.5 0 1113.66 6.2c-.4.9-1.24 2.61-2.3 4.78-1.47 3-4.2 8.6-4.65 9.84a7.47 7.47 0 01-7.1 5.11zM231.83 332.56a7.46 7.46 0 01-3.76-1.02c-3.66-2.13-13.9-7.98-17.23-9.5a7.5 7.5 0 116.22-13.65c4.6 2.1 17.13 9.36 18.55 10.18a7.5 7.5 0 01-3.78 13.99zM180.44 458.32a7.5 7.5 0 01-7.5-7.5c0-4.13-1.08-19.71-1.6-27.2-.16-2.4-.29-4.22-.33-5.01a7.5 7.5 0 1114.97-.9l.33 4.87c.8 11.42 1.63 23.95 1.63 28.25a7.5 7.5 0 01-7.5 7.5zM328.57 327.64a7.5 7.5 0 01-2.49-14.58c2.88-1 9.62-5.05 14.08-7.72 6.53-3.92 8.7-5.17 10.84-5.6a7.5 7.5 0 013.69 14.52c-1.12.53-4.4 2.5-6.82 3.94-5.86 3.52-12.5 7.5-16.8 9.01a7.5 7.5 0 01-2.5.43zm25.38-13.2z"/></g></svg>