<svg width="126" height="116" viewBox="0 0 126 116" fill="none" xmlns="http://www.w3.org/2000/svg">
<path d="M97.415 21.0096C97.975 18.1742 91.4471 6.86765 82.1251 13.0849C78.8104 5.09179 62.7562 9.75605 63.1288 20.8067C55.4927 22.881 52.8726 36.2408 62.2863 40.5081C61.6219 49.4503 71.3341 59.0988 80.0607 57.4104C88.7883 55.7214 97.6955 50.5789 101.478 44.3488C105.259 38.1183 106.739 26.3698 97.415 21.0096ZM83.9319 14.7476C85.9057 12.3947 88.6907 13.7252 91.588 16.0331C94.476 18.3343 96.3773 20.7295 94.4064 23.0874C92.442 25.4348 88.0932 25.9573 85.2008 23.6532C82.3096 21.3512 81.9713 17.0969 83.9319 14.7476ZM70.8647 13.2176C74.5406 11.0953 77.8937 10.0199 79.5457 12.8811C81.1993 15.7453 79.896 20.3782 76.2231 22.4987C72.543 24.6235 67.8802 23.4351 66.2265 20.5709C64.5746 17.7097 67.1846 15.3423 70.8647 13.2176ZM60.1566 30.8702C60.2239 27.1526 60.9714 24.1355 64.0279 24.0972C67.0796 24.0604 70.1173 27.0315 70.053 30.7446C69.9744 34.4593 66.8186 37.5066 63.7686 37.5464C60.709 37.5865 60.0838 34.5855 60.1566 30.8702ZM71.2098 50.8792C68.9728 51.9502 67.4389 50.0257 66.1745 47.3483C64.9028 44.6752 64.3801 42.2644 66.6125 41.1853C68.8488 40.1107 72.1463 41.1813 73.4149 43.8589C74.6828 46.5423 73.445 49.8025 71.2098 50.8792ZM77.7497 43.1802C78.5703 45.8546 77.6672 48.5687 75.7273 49.6887C76.8879 48.1288 77.2867 45.8354 76.5923 43.5571C75.8908 41.2857 74.2804 39.6392 72.4603 39.0411C74.6777 38.8125 76.9283 40.509 77.7497 43.1802ZM73.8286 32.6577C73.5137 34.4122 72.3627 35.7342 71.1535 35.863C72.113 35.273 72.9084 34.0601 73.1831 32.56C73.4574 31.064 73.1248 29.6886 72.4267 28.861C73.5271 29.3241 74.1466 30.9013 73.8286 32.6577ZM71.5707 25.7795C73.3395 26.5047 75.6986 26.3199 77.836 25.0859C79.9672 23.8554 81.3044 21.9102 81.5611 20.0115C82.1961 22.0742 80.9339 24.6536 78.4233 26.1031C75.9158 27.5508 73.0436 27.3584 71.5707 25.7795ZM83.3471 24.2718C83.4891 25.4205 84.4679 26.5084 86.1139 27.0666C87.7549 27.6185 89.6131 27.5023 91.0304 26.8792C89.8136 28.008 87.5453 28.4103 85.6146 27.7598C83.6883 27.1028 82.7755 25.6201 83.3471 24.2718ZM91.4707 36.2272C89.567 34.1807 89.2225 31.3825 90.5298 29.5774C90.136 31.4497 90.7598 33.6658 92.3741 35.4103C93.994 37.1501 96.1805 37.9482 98.1084 37.7318C96.1808 38.8514 93.3743 38.2736 91.4707 36.2272ZM101.286 28.9366C102.573 31.604 103.112 34.0094 100.877 35.0949C98.6464 36.1812 95.3501 35.1151 94.0607 32.4495C92.78 29.7775 94.0083 26.5081 96.2393 25.4218C98.4666 24.3484 100.006 26.2615 101.286 28.9366Z" fill="#747d8c"/>
<path d="M44.5873 62.7234C35.2046 56.8747 23.136 68.4472 28.402 75.3137C18.3597 80.2764 24.8876 91.583 27.62 92.5175C27.6017 103.273 38.5134 107.866 45.8018 107.705C53.0879 107.543 61.9951 102.401 67.8211 95.6886C73.6429 88.9762 70.1438 75.7419 62.0716 71.8438C63.0807 61.5588 50.2022 57.1459 44.5873 62.7234ZM46.9896 65.146C48.5526 62.5186 51.5387 63.3788 54.7903 65.1815C58.0457 66.9739 60.3285 69.0192 58.7656 71.6467C57.2061 74.2681 52.9856 75.4835 49.7328 73.6882C46.4844 71.8864 45.4318 67.7705 46.9896 65.146ZM34.1497 65.6281C37.8299 63.5033 41.1834 62.4264 42.8359 65.2886C44.4896 68.1528 43.1883 72.7845 39.5082 74.9092C35.8312 77.0321 31.1721 75.843 29.5178 72.9778C27.8653 70.1156 30.4748 67.7498 34.1497 65.6281ZM26.2258 84.9817C25.6737 81.3198 25.9129 78.2433 28.9395 77.7092C31.956 77.1863 35.4743 79.6047 36.018 83.2593C36.5667 86.9178 33.9404 90.4212 30.9247 90.9503C27.8994 91.477 26.7716 88.6352 26.2258 84.9817ZM38.0901 102.557C36.0291 103.947 34.2182 102.277 32.5505 99.833C30.873 97.3861 29.9893 95.0968 32.0342 93.7051C34.0911 92.3171 37.5339 92.8856 39.2081 95.3317C40.873 97.7833 40.1464 101.168 38.0901 102.557ZM43.7736 94.9782C44.5929 97.648 43.6927 100.367 41.7579 101.482C42.9124 99.9183 43.3114 97.6275 42.614 95.3537C41.9103 93.0808 40.3058 91.4349 38.4858 90.8395C40.701 90.6094 42.9517 92.3085 43.7736 94.9782ZM39.3687 85.6729C38.9677 87.6696 37.4837 89.4351 35.8998 89.9233C37.1492 89.0095 38.1789 87.4582 38.5203 85.7592C38.8621 84.056 38.4092 82.6618 37.4834 81.9657C38.9342 82.1449 39.7627 83.6736 39.3687 85.6729ZM41.5311 78.6146C39.0215 80.0635 36.1545 79.868 34.6853 78.2884C36.4561 79.0124 38.8122 78.8294 40.9444 77.5984C43.0807 76.3649 44.4211 74.4179 44.6757 72.5204C45.3059 74.5844 44.0354 77.1687 41.5311 78.6146ZM46.9195 74.8007C47.2867 75.8233 48.3109 76.7954 49.7436 77.3058C51.1822 77.8168 52.6265 77.7352 53.6189 77.1997C52.9044 78.1828 51.1845 78.517 49.5075 77.9125C47.8227 77.3111 46.7666 75.986 46.9195 74.8007ZM56.656 86.5704C54.7524 84.524 54.4077 81.7231 55.7136 79.9202C55.3225 81.7949 55.9421 84.0134 57.5606 85.7555C59.1854 87.4966 61.3732 88.2993 63.3032 88.0722C61.364 89.1958 58.5614 88.6198 56.656 86.5704ZM66.0492 78.6324C67.7357 81.0661 68.6344 83.3574 66.5877 84.7581C64.5392 86.1533 61.0975 85.5962 59.406 83.1587C57.7216 80.7238 58.4425 77.3292 60.4908 75.9314C62.5462 74.5336 64.3689 76.1925 66.0492 78.6324Z" fill="#747d8c"/>
</svg>
