<svg height="48" viewBox="0 0 128 128" width="48" xmlns="http://www.w3.org/2000/svg" xmlns:xlink="http://www.w3.org/1999/xlink"><path d="m122.45 64a58.452 58.452 0 0 1 -53.442 58.234q-.076.006-.15.006a1.75 1.75 0 0 1 -.146-3.493 54.95 54.95 0 1 0 -59.662-54.747 55.578 55.578 0 0 0 .592 8.075 1.75 1.75 0 0 1 -3.463.51 58.481 58.481 0 0 1 57.821-67.035 58.516 58.516 0 0 1 58.45 58.45zm-110.222 18.453a1.749 1.749 0 1 0 -3.3 1.174 57.8 57.8 0 0 0 8.047 15.073 1.75 1.75 0 0 0 2.81-2.086 54.351 54.351 0 0 1 -7.557-14.161zm45.8 36.177a54.5 54.5 0 0 1 -31.088-14.062 1.75 1.75 0 1 0 -2.36 2.584 57.976 57.976 0 0 0 33.072 14.958 1.75 1.75 0 0 0 .376-3.48zm-23.668-29.15a6.767 6.767 0 0 1 -6.75-6.75v-37.46a6.758 6.758 0 0 1 6.75-6.75h59.28a6.758 6.758 0 0 1 6.75 6.75v37.46a6.767 6.767 0 0 1 -6.75 6.75zm59.788-3.549-18.707-17.449-10.365 8.08a1.752 1.752 0 0 1 -2.152 0l-10.365-8.08-18.707 17.449c.415.069 59.814.076 60.296 0zm-62.911-2.347 18.526-17.284-18.653-14.538c.054 32.768-.118 30.921.127 31.822zm65.653-31.822-18.653 14.538 18.526 17.284c.245-.899.073.97.127-31.822zm0-4.435v-2.054a3.253 3.253 0 0 0 -3.25-3.25h-59.276a3.253 3.253 0 0 0 -3.25 3.25v2.054l32.886 25.636z" fill="#51a1ff"/></svg>