<svg width="27" height="36" fill="none" xmlns="http://www.w3.org/2000/svg"><path d="M13.47 35.48c-4.26 0-7.44-1.18-9.55-3.55C1.84 29.56.7 26.46.52 22.62c-.04-.87-.06-2.34-.06-4.42 0-2.11.02-3.62.05-4.51.16-3.78 1.31-6.85 3.46-9.22C6.1 2.1 9.27.92 13.47.92c4.22 0 7.4 1.18 9.55 3.55 2.15 2.37 3.28 5.44 3.41 9.22.06.9.1 2.4.1 4.51 0 2.08-.04 3.55-.1 4.42-.16 3.84-1.3 6.94-3.4 9.3-2.09 2.38-5.27 3.56-9.56 3.56zm0-5.52c2.02 0 3.52-.66 4.51-1.97 1-1.34 1.52-3.21 1.59-5.61.06-1.86.1-3.27.1-4.23 0-1.05-.04-2.45-.1-4.17-.07-2.37-.6-4.23-1.59-5.57-.99-1.35-2.5-2.02-4.5-2.02s-3.5.67-4.52 2.02c-1 1.34-1.52 3.2-1.59 5.57a127 127 0 00-.04 4.17c0 1.89.01 3.3.04 4.23.07 2.4.6 4.27 1.59 5.61 1.02 1.31 2.53 1.97 4.51 1.97z" fill="#56D4AE"/></svg>