<svg width="350" height="308" fill="none" xmlns="http://www.w3.org/2000/svg"><rect y="181" width="350" height="126" rx="53" fill="#4AD3FF"/><path d="M205.95.16a7.43 7.43 0 00-4.21 2.22c-1.37 1.37-2.02 2.6-2.63 4.84-.53 1.99-.58 6.66-.1 8.45 1.14 4.19 3.42 6.38 7.46 7.2l.53.11-.49.79c-2.8 4.58-4.92 10.73-6.53 18.91-.57 3-1.1 5.07-1.54 6.25-.64 1.68-.7 1.77-1.51 2.15-.94.4-3.32.52-5.19.22-.93-.15-.95-.15-1.25.41-.17.32-.3.97-.3 1.44 0 .71.1.97.54 1.42.36.36.75.54 1.09.54.72 0 2.36-.5 3.44-1.04.49-.25.94-.45.98-.45.05 0-.23.56-.62 1.25a4.27 4.27 0 01-1.21 1.51c-.28.15-1.36.45-2.4.7-4.39.99-7.47 2.65-10.73 5.79a31.25 31.25 0 00-7.52 11.44c-1.2 3.05-1.88 7.16-1.88 11.55-.02 4.79.75 8.28 2.56 11.96 3.24 6.57 9.15 11.13 17.47 13.48 2.35.66 3.45 1.25 6.56 3.6a34.89 34.89 0 007.7 4.7c2 .95 2.45 1.23 2.28 1.42-.3.36-.56.34-3.67-.3-6.03-1.23-12.87-3.14-14.85-4.15-.4-.2-1.27-.76-1.88-1.21-3.34-2.5-8.64-4.15-12.59-3.93-5.87.36-9.3 3.66-11.08 10.7-1.15 4.63-1.5 9.1-.96 12.22.9 5.23 3.91 8.45 9.11 9.75 2.26.58 6.77.7 10.24.27l2.69-.32 2.18 1.16c1.62.86 2.18 1.25 2.18 1.51 0 .28-.13.36-.73.36-2.27 0-7.21 1.98-9.8 3.94a29.47 29.47 0 00-5.2 5.25c-1.05 1.39-1.13 1.44-2.13 1.67-1.7.35-4.93.26-6.57-.2-5-1.41-7.6-1.82-10.05-1.6-5.03.47-7.44 2.58-8.56 7.48-1.08 4.73-1.04 7.25.13 11.06.41 1.35 1.01 3 1.34 3.65 1.46 2.88 4.37 6.58 7.76 9.87 5.5 5.33 10.52 7.85 15.6 7.85 2.12 0 3.68-.37 5.72-1.37 1.32-.65 1.95-1.14 3.97-3.06 4.23-4.1 7.14-5.93 9.96-6.32l.97-.13 1.82 1.85a41.35 41.35 0 0022.53 11.85c2.63.45 7.92.6 11.1.3l1.6-.15.48 1a11.34 11.34 0 005.37 5.36c1.83.86 3.21 1.16 5.78 1.27 3.85.17 8.12-.56 13.97-2.38 2.91-.91 3.08-.93 5.3-.93 1.26 0 3.1-.13 4.06-.3 2.26-.37 5.62-1.5 7.82-2.6.95-.47 2.98-1.42 4.55-2.1 5.37-2.33 7.08-3.3 8.96-5.1a4.78 4.78 0 011.96-1.28c2.47-.7 5.2-3.03 6.7-5.7 2.07-3.67 3.62-9.65 4.14-15.82.33-4.28-.02-8.32-1.05-11.53-.24-.8-.39-1.51-.31-1.57.07-.08.78-.66 1.6-1.3 1.23-.96 1.55-1.34 1.98-2.29.7-1.57 1.4-3.85 1.88-6.15.6-2.77.6-7.27 0-10.2-1.6-8.17-6.3-15.6-14.56-23.05a46.26 46.26 0 01-2.99-2.8c0-.08.82-.8 1.83-1.58.99-.8 2.82-2.48 4.06-3.72a37.26 37.26 0 0011.1-23.38c.28-2.88.11-8.28-.32-10.1-.43-1.73-.4-2 .17-4.98.28-1.42.63-3.61.8-4.86.41-3.14.56-10.36.28-13.37-.2-2.05-.37-3.23-1.08-7.27l-.1-.58 2.9-.22c3.19-.25 4.25-.49 6.19-1.46 4.32-2.17 7.87-6.24 9.21-10.62.5-1.62.8-5.18.56-6.73-.33-2.11-1.66-4.4-3.67-6.39a4.78 4.78 0 00-2.24-1.5 10.4 10.4 0 00-4.6-.09c-1.24.36-2.93 1.52-5.04 3.4-1.1.98-2.39 2.02-2.9 2.3-1.19.7-3.72 1.2-6.8 1.37l-2.44.13-.99-1.24c-3.32-4.18-10.76-8.26-20.06-10.95a93.32 93.32 0 00-21.45-3.5c-1.53-.05-3.17-.1-3.64-.14-1.49-.12-8.4.22-10.9.54a72.1 72.1 0 00-9.48 1.87c-3.9 1.12-7.92.15-10.66-2.62a21.08 21.08 0 01-2.22-2.79c-1.25-1.86-2.15-2.61-3.49-2.9a11.91 11.91 0 00-3.99-.01z" fill="#FC7CB2"/><path d="M44.94 284.69c-2.04 0-3.58-.17-4.6-.49a2.08 2.08 0 01-1.35-1.05 6.2 6.2 0 01-.29-2.11c-.06-1.35-.1-3.24-.1-5.67 0-1.92.07-4.54.2-7.87l.1-7.68a149.36 149.36 0 000-10.85l-.2-11.9c0-6.14-.06-10.75-.19-13.82-.06-1.73-.1-4.3-.1-7.69 0-1.21.2-2.01.58-2.4.45-.38 1.31-.6 2.6-.67l3.35-.1c2.7-.18 5.32-.28 7.88-.28.96 0 1.85.32 2.68.96.45.38.68.9.68 1.53 0 .7-.36 1.25-1.06 1.64a7.5 7.5 0 01-3.36.86c-4.16 0-6.62.13-7.4.39-.7.25-1.05.9-1.05 1.91v2.3l.1 4.04c.13 3.58.19 6.27.19 8.06 0 2.24-.03 3.94-.1 5.1-.06.38-.1.73-.1 1.05a21.1 21.1 0 01.2 3.36c3.4-.2 6.08.51 8.06 2.11 1.92 1.6 3.59 4.26 5 7.97a32.48 32.48 0 012.1 11.62c0 1.21-.02 2.1-.09 2.68a23.2 23.2 0 01-3.45 9.99 15.86 15.86 0 01-4.8 4.7c-.32.2-.84.51-1.54.96-.7.39-1.38.7-2.02.96-.64.26-1.28.38-1.92.38zm-.57-5.67a9.4 9.4 0 005.37-2.69 10.35 10.35 0 002.98-5.66c.58-2.05.86-4.35.86-6.91 0-2.88-.35-5.73-1.05-8.55a10.91 10.91 0 00-1.25-2.97 28.2 28.2 0 00-1.82-2.7c-.58-.82-1-1.43-1.25-1.81-.7-.26-1.41-.39-2.11-.39l-2.4.1c.12 3.97.25 9.98.38 18.05l.29 13.53zm27.96 6.24a9.43 9.43 0 01-3.17-.48c-1.09-.32-1.63-1.21-1.63-2.69v-55.77c0-1.1-.2-2.72-.58-4.9a23.14 23.14 0 01-.67-4.9v-.28a21.63 21.63 0 012.4-3.46c.9 0 2.08-.13 3.55-.38 1.34-.26 2.53-.39 3.55-.39a5.3 5.3 0 012.98.96c.96.58 1.44 1.28 1.44 2.12 0 1.91-1.47 2.88-4.42 2.88h-1.34a8.27 8.27 0 00-2.4 0c0 2.17.13 4.8.38 7.87l.2 2.69.19 5.28c0 1.21-.1 3.07-.3 5.56l-.18 5.38 1.34-.29a11.5 11.5 0 013.17-.58c.7 0 1.34.3 1.92.87.57.51.86 1.12.86 1.82a3.3 3.3 0 01-.77 2.12 2.1 2.1 0 01-1.72.86l-1.16-.1h-1.24c-.96 0-1.64.23-2.02.68v29.66l5.38-.29c3.64 0 5.47.83 5.47 2.5v.38a4.47 4.47 0 01-2.11 1.92 11.1 11.1 0 01-2.98.87l-3.17.1h-2.97zm24.8-.57c-.65 0-1.13-.17-1.45-.49-.25-.38-.44-.99-.57-1.82-.2-1.86-.26-3.52-.2-5 .2-2.17.3-5.46.3-9.88 0-3.97-.1-7.9-.3-11.8-.12-3.97-.19-6.98-.19-9.03a11.78 11.78 0 00-.28-2.78l-.3-2.98c-.12-2.05-.25-5.19-.38-9.4l-.19-4.62a362.9 362.9 0 00-.48-9.12c-.13-1.4.03-2.43.48-3.07.45-.64 1.38-1.09 2.79-1.34.44-.13 1.4-.36 2.88-.68 1.47-.38 2.84-.57 4.13-.57.57 0 1.02.03 1.34.1.64.06 1.12.28 1.44.67.38.38.57.86.57 1.44.07.57-.06 1.18-.38 1.82a2.4 2.4 0 01-1.25 1.15c-.19.07-.54.1-1.05.1-.39 0-.8-.03-1.25-.1a8.27 8.27 0 00-3.36.2 1.2 1.2 0 00-.96.67c-.13.32-.23.83-.29 1.53-.06 2.24.1 5.54.48 9.9.38 3.83.58 6.68.58 8.53-.07 1.22.03 2.98.28 5.28l.2 2.3c.12 2.06.25 5.58.38 10.57a1368.34 1368.34 0 01.38 18.14c0 3.27.04 5.7.1 7.3.06.9-.13 1.6-.58 2.11-.38.45-1.08.7-2.1.77l-.78.1zm26 .57a9.43 9.43 0 01-3.16-.48c-1.09-.32-1.63-1.21-1.63-2.69v-55.77c0-1.1-.2-2.72-.58-4.9a23.14 23.14 0 01-.67-4.9v-.28a21.63 21.63 0 012.4-3.46c.9 0 2.08-.13 3.55-.38 1.35-.26 2.53-.39 3.55-.39a5.3 5.3 0 012.98.96c.96.58 1.44 1.28 1.44 2.12 0 1.91-1.47 2.88-4.42 2.88h-1.34a8.27 8.27 0 00-2.4 0c0 2.17.13 4.8.38 7.87l.2 2.69.19 5.28c0 1.21-.1 3.07-.29 5.56l-.2 5.38 1.35-.29a11.5 11.5 0 013.17-.58c.7 0 1.34.3 1.92.87.58.51.86 1.12.86 1.82a3.3 3.3 0 01-.76 2.12 2.1 2.1 0 01-1.73.86l-1.15-.1h-1.25c-.96 0-1.63.23-2.02.68v29.66l5.38-.29c3.65 0 5.47.83 5.47 2.5v.38a4.47 4.47 0 01-2.11 1.92 11.1 11.1 0 01-2.98.87l-3.17.1h-2.97zm48.9 1.92c-.64 0-1.15-.32-1.53-.96a5.47 5.47 0 01-.58-2.78l-.1-14.21c-.06-1.22-.1-3.23-.1-6.05a946.9 946.9 0 01-.18-20.16v-4.9c-.58 3.08-1.57 7.4-2.98 12.97a175.9 175.9 0 00-2.97 14.2v.58l-.3 1.82c-.12 1.41-.44 2.85-.95 4.32-.64 1.54-1.63 2.3-2.98 2.3-2.3 0-3.46-3-3.46-9.02 0-3.33-.35-6.88-1.05-10.65a159.5 159.5 0 00-3.17-14.11l-2.88-10.76-.2 11.52c0 3.46.17 10.05.49 19.78l.2 6.53.18 13.15c0 1.34-.48 2.56-1.44 3.65-1.6 0-2.72-.48-3.36-1.44-.57-1.03-.86-2.5-.86-4.42l.2-7.87c.18-3.46.28-6.05.28-7.78l-.2-18.52-.19-18.63c0-2.75.07-6.88.2-12.38l2.59-1.54c.51.06 1.02.45 1.53 1.15.52.64 1.1 1.7 1.73 3.17 1.6 3.97 3.68 11.9 6.24 23.8.39 1.67.64 3.05.77 4.14.77 3.7 1.31 6.52 1.63 8.44l1.44 7.4.68-3.17 1.82-7.87c1.02-4.61 1.85-8.64 2.5-12.1.7-3.46 1.37-7.2 2.01-11.23.7-4.8 1.15-8.8 1.34-12v-.58c.13-.83.52-1.47 1.16-1.92.64-.5 1.4-.77 2.3-.77a2 2 0 011.54.77c.44.51.67 1.06.67 1.63 0 7.69.29 19.17.86 34.47.32 7.49.55 14.81.68 21.98.12 3.27.19 7.4.19 12.39 0 1.47-.39 2.78-1.16 3.93-.76 1.16-1.63 1.73-2.59 1.73zm28.43.2c-1.73 0-3.3-.58-4.7-1.74a14.64 14.64 0 01-3.65-4.7c-1.86-3.45-3.23-8.2-4.13-14.2-.64-4.17-1.12-8.97-1.44-14.4l-.1-5.1v-5.18c-.06-1.66-.1-3.68-.1-6.05 0-3.84.17-7.23.49-10.17a38 38 0 011.92-9.12c1.02-2.63 2.5-4.48 4.41-5.57a9.5 9.5 0 0111.52 3.26A24.9 24.9 0 01209 224.5a67.2 67.2 0 011.73 12.87c.26 4.54.39 8.83.39 12.86v5.47c0 1.1-.16 3.14-.48 6.15a57.63 57.63 0 00-.39 6.05v.38c-.38 1.8-.57 3.9-.57 6.34 0 1.79-.39 3.64-1.16 5.56a13.7 13.7 0 01-3.26 4.9c-1.4 1.54-3 2.3-4.8 2.3zm.2-5.29c1.27 0 2.36-1.18 3.26-3.55a32.84 32.84 0 001.63-7.68c.38-3.07.7-6.53.96-10.37.13-1.66.2-3.8.2-6.43l-.1-8.83a156.5 156.5 0 00-1.16-12.96 43.61 43.61 0 00-2.88-11.71 10.22 10.22 0 00-2.4-3.75 4.45 4.45 0 00-3.07-1.34c-1.6 0-2.78 1.25-3.55 3.74a35.6 35.6 0 00-1.92 8.64c-.38 3.4-.6 6.63-.67 9.7l-.1 3.17a54 54 0 00-.1 3.65v.38c0 4.29.45 9.57 1.35 15.84 1.02 8.51 2.53 14.56 4.51 18.14 1.28 2.24 2.63 3.36 4.03 3.36zm28.55 3.27c-.96 0-1.73-.45-2.3-1.35a7.25 7.25 0 01-.77-3.45c0-2.12.13-4.7.38-7.78l.2-2.5.19-5.08c0-2.24-.23-7.24-.68-14.98-.44-7.74-.67-12.73-.67-14.97v-1.06c.07-.58.1-1.44.1-2.6.06-1.27.1-2.84.1-4.7 0-4.67-.33-7.64-.97-8.92-.38 0-1.21.1-2.5.28l-2.68.2c-.83 0-1.57-.23-2.2-.68a2.36 2.36 0 01-.97-1.92c0-.76.77-1.44 2.3-2.01 2.25-.77 6.05-1.31 11.43-1.63 2.18-.13 3.49-.2 3.94-.2.76 0 1.47.26 2.1.77.65.51.97 1.15.97 1.92s-.29 1.4-.87 1.92c-.5.45-1.18.67-2.01.67l-1.73-.1c-.51-.06-1.09-.09-1.73-.09h-.96c.45 4.35.67 8.29.67 11.8l-.1 6.15a189.18 189.18 0 00.29 17.28c.33 5.31.49 9 .49 11.04 0 2.44.12 5.31.38 8.64.26 3.4.38 6.28.38 8.64 0 3.14-.92 4.7-2.78 4.7zm21.67.28c-.96 0-1.82-.41-2.6-1.24a3.65 3.65 0 01-1.05-2.79c.2-3.26.29-6.59.29-9.98a695 695 0 00-.2-13.44c-.06-2.75-.28-6.88-.66-12.38l-.3-4.7c-.12-2.12-.22-3.98-.28-5.58-.07-1.09-.1-2.72-.1-4.9l.1-9.78c0-.58-.07-1.38-.2-2.4l-.09-2.21c0-1.03.26-1.83.77-2.4a2.99 2.99 0 012.2-.87c1.86 0 2.92.87 3.18 2.6.25 1.92.38 3.36.38 4.31 0 1.16-.1 2.3-.29 3.46a48.43 48.43 0 00-.48 6.43l.1 2.88c.25 5.9.38 11.3.38 16.23v11.42c0 1.99.06 4.96.2 8.93l.57.1 1.15-3.75a722.22 722.22 0 015.47-17.66c.9-2.5 1.86-6.37 2.88-11.62.45-2.3.87-4.16 1.25-5.57l4.8-17.28c.45-.83 1-1.44 1.63-1.82a2.82 2.82 0 011.92-.58c.77.2 1.5.74 2.21 1.63.7.84 1.02 1.67.96 2.5a68.85 68.85 0 01-.57 7c-.58 8-.9 13.03-.96 15.08-.26 8.58-.39 15-.39 19.3 0 2.05.16 5.28.48 9.7.32 4.35.51 7.23.58 8.63l.38 4.8c.06 1.35-.25 2.4-.96 3.17a3.6 3.6 0 01-2.78 1.15c-.7 0-1.31-.22-1.83-.67a3.08 3.08 0 01-.86-2.01v-.87l.1-19.3v-3.45c-.13-3.33-.26-8.45-.39-15.36v-10.27c-.06-.07-.22-.1-.48-.1-.38.06-.96 1.54-1.73 4.42-.7 2.81-1.37 5.66-2.01 8.54-.64 2.82-1.06 4.6-1.25 5.38a81.67 81.67 0 01-1.06 4.7 605.81 605.81 0 00-4.32 15.27 131.11 131.11 0 00-2.68 12.28c-.39 2.05-1.54 3.07-3.46 3.07zm54.05.68c-1.67 0-3.1-.64-4.32-1.92a7.6 7.6 0 01-1.92-4.7c-.39-2.7-.64-7.01-.77-12.97l-.2-5.95c0-1.66-.5-3.26-1.53-4.8a5.68 5.68 0 00-3.94-2.78c.45 13.3.68 23.17.68 29.56 0 1.8-.64 2.7-1.92 2.7a3.4 3.4 0 01-1.54-.4c-1.22-.57-1.73-1.5-1.54-2.77.52-3.78.77-7.53.77-11.24 0-2.69-.1-5.5-.29-8.44-.06-1.41-.1-3.56-.1-6.44a722.74 722.74 0 00-.96-27.94c-.18-3.2-.66-7.29-1.43-12.28-.07-.26-.1-.64-.1-1.15 0-1.99.83-3.14 2.5-3.46.96-.2 1.73.1 2.3.87.64.7 1 1.63 1.06 2.78a142.97 142.97 0 01.29 5.57l.1 3.16c.12 3.72.18 6.44.18 8.16v17.1a61.32 61.32 0 002.12-6.25 117.2 117.2 0 001.92-7.2c.19-1.02.38-2.27.57-3.74l.58-3.36c.45-4.1 1.02-7.4 1.73-9.89.83-2.94 2.4-5.09 4.7-6.43a4.98 4.98 0 012.4-.87c.45 0 1.06.16 1.82.48 1.03.45 1.54 1.41 1.54 2.88 0 1.1-.67 1.8-2.02 2.12-2.56.44-4.22 2.14-4.99 5.09-.45 1.79-.86 3.74-1.25 5.85a34.27 34.27 0 01-1.15 5.47c-1.09 3.33-1.7 6.02-1.82 8.07a28.2 28.2 0 01-.87 4.6 8.16 8.16 0 01-1.82 3.27c1.6.25 2.98 1.38 4.13 3.36s1.89 4.57 2.2 7.77c.26 2.25.68 7.1 1.25 14.6l.2 2.1c.19 1.6.96 2.5 2.3 2.7 1.02.32 1.76.73 2.2 1.25.46.44.68 1.08.68 1.91 0 1.03-.35 1.86-1.06 2.5-.7.7-1.6 1.06-2.68 1.06z" fill="#fff"/></svg>