<svg height="48" viewBox="0 0 128 128" width="48" xmlns="http://www.w3.org/2000/svg"><path d="M122.45 64a58.45 58.45 0 01-53.44 58.23l-.15.01a1.75 1.75 0 01-.15-3.5A54.95 54.95 0 109.05 64a55.58 55.58 0 00.6 8.08 1.75 1.75 0 01-3.47.5A58.48 58.48 0 0164 5.56 58.52 58.52 0 01122.45 64zM12.23 82.45a1.75 1.75 0 10-3.3 1.18 57.8 57.8 0 008.05 15.07 1.75 1.75 0 002.8-2.09 54.35 54.35 0 01-7.55-14.16zm45.8 36.18a54.5 54.5 0 01-31.09-14.06 1.75 1.75 0 10-2.36 2.58 57.98 57.98 0 0033.07 14.96 1.75 1.75 0 00.38-3.48zM34.36 89.48a6.77 6.77 0 01-6.75-6.75V45.27a6.76 6.76 0 016.75-6.75h59.28a6.76 6.76 0 016.75 6.75v37.46a6.77 6.77 0 01-6.75 6.75zm59.79-3.55l-18.7-17.45-10.37 8.08a1.75 1.75 0 01-2.16 0l-10.36-8.08-18.7 17.45c.4.07 59.8.08 60.29 0zm-62.91-2.35L49.76 66.3 31.11 51.76c.05 32.77-.12 30.92.13 31.82zm65.65-31.82L78.24 66.3l18.52 17.28c.25-.9.08.97.13-31.82zm0-4.43v-2.06a3.25 3.25 0 00-3.25-3.25H34.36a3.25 3.25 0 00-3.25 3.25v2.06L64 72.96z" fill="#51a1ff"/></svg>