<svg xmlns="http://www.w3.org/2000/svg" xmlns:xlink="http://www.w3.org/1999/xlink" viewBox="0 0 122.3 118.25">
  <defs>
    <radialGradient id="radial-gradient" cx="34.8" cy="35.17" r="122.5" gradientUnits="userSpaceOnUse">
      <stop offset="0" stop-color="#a2d2ec"/>
      <stop offset="1" stop-color="#489fd6"/>
    </radialGradient>
    <radialGradient id="radial-gradient-2" cx="34.8" cy="35.16" r="122.48" gradientUnits="userSpaceOnUse">
      <stop offset="0" stop-color="#77a5bd"/>
      <stop offset="1" stop-color="#2074a9"/>
    </radialGradient>
    <radialGradient id="radial-gradient-3" cx="34.8" cy="35.16" r="122.48" xlink:href="#radial-gradient"/>
    <radialGradient id="radial-gradient-4" cx="62.22" cy="76.27" r="14.25" gradientUnits="userSpaceOnUse">
      <stop offset="0" stop-color="#fff0da"/>
      <stop offset="1" stop-color="#d3b98a"/>
    </radialGradient>
    <radialGradient id="radial-gradient-6" cx="63.89" cy="76.15" r="14.25" xlink:href="#radial-gradient-4"/>
    <radialGradient id="radial-gradient-7" cx="62.22" cy="76.27" r="14.25" xlink:href="#radial-gradient-4"/>
    <radialGradient id="radial-gradient-8" cx="34.8" cy="35.16" r="122.47" gradientUnits="userSpaceOnUse">
      <stop offset="0" stop-color="#fdfdfd"/>
      <stop offset="1" stop-color="#fbfbfb"/>
    </radialGradient>
    <radialGradient id="radial-gradient-9" cx="109.68" cy="80.32" r="8.15" xlink:href="#radial-gradient-4"/>
    <radialGradient id="radial-gradient-10" cx="34.8" cy="35.18" r="122.45" xlink:href="#radial-gradient"/>
    <radialGradient id="radial-gradient-11" cx="61.11" cy="69.03" r="15.35" xlink:href="#radial-gradient-4"/>
    <radialGradient id="radial-gradient-13" cx="61.11" cy="69.03" r="15.35" xlink:href="#radial-gradient-4"/>
    <radialGradient id="radial-gradient-14" cx="34.8" cy="35.16" r="122.48" gradientUnits="userSpaceOnUse">
      <stop offset="0" stop-color="#90c5df"/>
      <stop offset="1" stop-color="#2f8cc9"/>
    </radialGradient>
    <radialGradient id="radial-gradient-15" cx="11.5" cy="76.03" r="6.66" xlink:href="#radial-gradient-4"/>
    <radialGradient id="radial-gradient-16" cx="15.23" cy="75.07" r="7.54" xlink:href="#radial-gradient-4"/>
    <radialGradient id="radial-gradient-17" cx="34.8" cy="35.17" r="122.47" xlink:href="#radial-gradient"/>
    <radialGradient id="radial-gradient-18" cx="34.8" cy="35.16" r="122.48" gradientUnits="userSpaceOnUse">
      <stop offset="0" stop-color="#fff"/>
      <stop offset="1" stop-color="#def1fb"/>
    </radialGradient>
    <radialGradient id="radial-gradient-19" cx="34.8" cy="35.16" r="122.48" gradientUnits="userSpaceOnUse">
      <stop offset="0" stop-color="#fff"/>
      <stop offset="1" stop-color="#e2f4fe"/>
    </radialGradient>
    <radialGradient id="radial-gradient-20" cx="34.8" cy="35.16" r="122.47" xlink:href="#radial-gradient"/>
    <radialGradient id="radial-gradient-21" cx="114.22" cy="90.26" r="34.64" gradientUnits="userSpaceOnUse">
      <stop offset="0" stop-color="#cce9f8"/>
      <stop offset="1" stop-color="#9ad0f0"/>
    </radialGradient>
    <radialGradient id="radial-gradient-23" cx="16.9" cy="87.63" r="26.65" xlink:href="#radial-gradient-21"/>
    <radialGradient id="radial-gradient-24" cx="16.9" cy="87.63" r="26.65" xlink:href="#radial-gradient-21"/>
    <radialGradient id="radial-gradient-25" cx="34.8" cy="35.16" r="122.48" xlink:href="#radial-gradient"/>
    <radialGradient id="radial-gradient-26" cx="34.8" cy="35.16" r="122.49" xlink:href="#radial-gradient-4"/>
    <radialGradient id="radial-gradient-27" cx="34.8" cy="35.17" r="122.44" xlink:href="#radial-gradient-4"/>
    <radialGradient id="radial-gradient-28" cx="34.8" cy="35.17" r="122.46" xlink:href="#radial-gradient"/>
    <radialGradient id="radial-gradient-29" cx="41.23" cy="70.22" r="12.77" xlink:href="#radial-gradient-4"/>
    <radialGradient id="radial-gradient-31" cx="41.23" cy="70.22" r="12.77" xlink:href="#radial-gradient-4"/>
    <radialGradient id="radial-gradient-32" cx="34.8" cy="35.16" r="122.48" xlink:href="#radial-gradient-14"/>
    <radialGradient id="radial-gradient-33" cx="34.8" cy="35.16" r="122.49" xlink:href="#radial-gradient"/>
    <radialGradient id="radial-gradient-34" cx="34.8" cy="35.16" r="122.48" xlink:href="#radial-gradient"/>
    <radialGradient id="radial-gradient-35" cx="34.8" cy="35.16" r="122.48" xlink:href="#radial-gradient"/>
    <style>
      .cls-1,.cls-25,.cls-27,.cls-45,.cls-6{fill:#fff}.cls-2{fill:url(#radial-gradient)}.cls-3{fill:url(#radial-gradient-2)}.cls-4{fill:url(#radial-gradient-3)}.cls-5{fill:url(#radial-gradient-4)}.cls-6{opacity:.49}.cls-7{fill:url(#radial-gradient-6)}.cls-8{fill:url(#radial-gradient-7)}.cls-9{fill:#41586d}.cls-10{fill:#5c7e9c}.cls-11{fill:url(#radial-gradient-8)}.cls-12{fill:url(#radial-gradient-9)}.cls-13{fill:url(#radial-gradient-10)}.cls-14{fill:url(#radial-gradient-11)}.cls-15{fill:url(#radial-gradient-13)}.cls-16{fill:url(#radial-gradient-14)}.cls-17{fill:#388dac}.cls-18{fill:url(#radial-gradient-15)}.cls-19{fill:url(#radial-gradient-16)}.cls-20{fill:url(#radial-gradient-17)}.cls-21{fill:url(#radial-gradient-18)}.cls-22{fill:url(#radial-gradient-19)}.cls-23{fill:url(#radial-gradient-20)}.cls-24{fill:url(#radial-gradient-21)}.cls-25{opacity:.26}.cls-26{fill:url(#radial-gradient-23)}.cls-27{opacity:.52}.cls-28{fill:url(#radial-gradient-24)}.cls-29{fill:url(#radial-gradient-25)}.cls-30{fill:url(#radial-gradient-26)}.cls-31{fill:url(#radial-gradient-27)}.cls-32{fill:url(#radial-gradient-28)}.cls-33{fill:url(#radial-gradient-29)}.cls-34{fill:url(#radial-gradient-31)}.cls-35{fill:#1b1b1b}.cls-36{fill:#204b72}.cls-37{fill:#6589a9}.cls-38{fill:none}.cls-39{fill:#b3b3b3;opacity:.15}.cls-40{fill:#ccc;opacity:.41}.cls-41{fill:#466685}.cls-42{fill:#2d718a}.cls-42,.cls-47{opacity:.29}.cls-43{fill:url(#radial-gradient-32)}.cls-44{fill:url(#radial-gradient-33)}.cls-45{opacity:.2}.cls-46{fill:url(#radial-gradient-34)}.cls-47,.cls-48{fill:#205161}.cls-49{fill:url(#radial-gradient-35)}.cls-50{fill:#1f323f}
    </style>
  </defs>
  <g id="Слой_2" data-name="Слой 2">
    <g id="Слой_1-2" data-name="Слой 1">
      <path class="cls-1" d="M62 22.19c-.54.55.05 1.13.59.58s-.07-1.13-.59-.58z"/>
      <path class="cls-1" d="M59.71 23.12c1.66-2.27 5.41-2.2 4.52.85 3.06-3.29 7.12-10.21 2.17-13.79C63 7.73 57.88 10 55 12.32l-.85.81a16.82 16.82 0 011.94-2 17.15 17.15 0 011.94-1.34c-2.08-.73-4.37 0-6.22 1A15.11 15.11 0 0047.76 14a42.79 42.79 0 0111.95 9.12z"/>
      <path class="cls-1" d="M59.71 23.12c1.66-2.27 5.41-2.2 4.52.85 3.06-3.29 7.12-10.21 2.17-13.79C63 7.73 57.88 10 55 12.32l-.85.81a16.82 16.82 0 011.94-2 17.15 17.15 0 011.94-1.34c-2.08-.73-4.37 0-6.22 1A15.11 15.11 0 0047.76 14a42.79 42.79 0 0111.95 9.12z"/>
      <path class="cls-2" d="M14 9.79a24 24 0 00-1.33 2.75 36.37 36.37 0 019.2-3.35C19.45 5.89 16 6.2 14 9.79z"/>
      <path class="cls-3" d="M54.49 7.73A23.79 23.79 0 0160.26 4c-1.61-1.63-3.63-3.09-5.49-2.7-3.7.76-2.77 4.7-.28 6.43z"/>
      <path class="cls-4" d="M24.29 50.59a15.87 15.87 0 017.65-.16c2.44.66 4.83-.57 7.27-1.31A54.64 54.64 0 0158.71 47c6.18.55 12.31 2.34 18.36 3.63 3.46.8 6.87 1.65 10.34.33-.64-2.16-1.3-4-1.92-5.64a14 14 0 01-1.26 2.82l-.65 1.11c4.12-9.42 2.59-23.12-1.9-32.15a18.35 18.35 0 00-3.33 3.2c2.27-4.32 7.87-8.57 12.76-6 2.1 1.12.29 3.69-1.08 4.53-1.94 1.21-4.52.49-6.52-.15.43 1.19.9 2.36 1.31 3.56 2.41-2 5.81-.73 7.67-3.41 1.36-2 1.41-4.64-.78-6-2.61-1.65-5.94-.28-8.76-.26a13.08 13.08 0 01-7.81-2.68c.66.26 1.33.49 2 .7-6.57-6.91-14.53-8.41-22.06-2 2-.26 3.17.83 5 .13A9.86 9.86 0 0163.82 8a6.2 6.2 0 015.87 4.17c1.66 5.06-2.57 10.43-6.13 13.51-.32.31-.64.59-1 .86.72.93 1.4 1.89 2 2.88-3.22-3-5.76-6.54-9.15-9.39a41.36 41.36 0 00-11.27-6.87c-.05 1.6-.2 3.21-.41 4.8-.23-3.5 0-11.11-5-11.4-4.17-.25-8.4 4-11.23 6.62a27.67 27.67 0 013.2-3.56C19.21 8.56 7.42 14 3.34 25.26 0 34.55 1.11 46.8 8.72 53.77a48.54 48.54 0 0010.63 7.53 38 38 0 004.69 2c2.66.93 2.35.43 4.5-1.19-2.38-1.67-11.27-10.11-4.25-11.52zm10.11-39.4c1.45-3.29 6.83-4 6.34.69-.22 2.12-5.06 7.61-6.89 4.12a3 3 0 004.82 1.86 2.32 2.32 0 00.3-.22 3.3 3.3 0 01-.3.22 3.76 3.76 0 01-3.17.75c-2.97-.91-2.23-5.42-1.1-7.42z"/>
      <path class="cls-5" d="M62.38 78.89c4 1.75 12.37-3.59 7.31-7.09-1.25-.86-5.25.48-7 1.17-2.23.89-2.46 5.03-.31 5.92z"/>
      <path class="cls-5" d="M62.38 78.89c4 1.75 12.37-3.59 7.31-7.09-1.25-.86-5.25.48-7 1.17-2.23.89-2.46 5.03-.31 5.92z"/>
      <path class="cls-6" d="M64.37 72.85a24.4 24.4 0 014.41-1.31c-1.7-.14-4.65.86-6.08 1.43-2.24.89-2.47 5-.32 5.92a5.26 5.26 0 003.1.21 4.15 4.15 0 01-1.43-.32c-2.15-.95-1.92-5.04.32-5.93z"/>
      <path class="cls-7" d="M71.36 71.68a3.85 3.85 0 00-2.58-.14 1.81 1.81 0 01.91.26c3.93 2.72-.28 6.56-4.21 7.3 4.21.27 10.38-4.3 5.88-7.42z"/>
      <path class="cls-8" d="M69.69 71.8a1.81 1.81 0 00-.91-.26 24.4 24.4 0 00-4.41 1.31c-2.24.89-2.47 5-.32 5.93a4.15 4.15 0 001.43.32c3.93-.74 8.14-4.58 4.21-7.3z"/>
      <path class="cls-9" d="M36.73 15.88c1.26-1.12 2.57-6-.24-6A4.4 4.4 0 0035 11.87c-.54 1.4-1.15 5.05 1.73 4.01z"/>
      <path class="cls-10" d="M37.48 15.51c2.39-1.55 3.29-7.33-.4-5.9h-.1c2.54.49 1.57 4.61.5 5.9z"/>
      <path class="cls-11" d="M108.4 66.12c.31-.13 1.24-1.83 1.72-2.35.69-.75.75.92 2.32-1.91.19-.34 1.21-2.81.55-3a13.6 13.6 0 01-1.79 1.64c-1 .24-2 0-3 .64-1.49 1-1.89 2-1 3.53.45.82.95 1.55 1.2 1.45z"/>
      <path class="cls-9" d="M87.4 18.87c1.23-.05 3.44-.66 3.71-2.15.66-3.69-6-3-8.31-.35 1.03 2.13 2.06 2.63 4.6 2.5z"/>
      <path class="cls-12" d="M106.81 84a10 10 0 017.19-2.84 4.43 4.43 0 00-1.34-2.33c-3.04-2.68-5.27 3.06-5.85 5.17z"/>
      <path class="cls-13" d="M64.19 71.72a6 6 0 01-4.19-.65 1.26 1.26 0 01-.49-.67c.12 1.39.3 2.79.44 4.18.18-2.06 2.66-2.47 4.24-2.86z"/>
      <path class="cls-14" d="M69.35 68.8c3.69-5-6.76-5.64-9.23-1.78-3.22 5.03 7.02 4.79 9.23 1.78z"/>
      <path class="cls-14" d="M69.35 68.8c3.69-5-6.76-5.64-9.23-1.78-3.22 5.03 7.02 4.79 9.23 1.78z"/>
      <path class="cls-6" d="M61.91 66.48a5 5 0 012.28-1.78 6.11 6.11 0 00-4.07 2.3c-2.61 4.08 3.62 4.69 7.25 3.18-3.52.73-7.68-.24-5.46-3.7z"/>
      <path class="cls-15" d="M69.35 68.8c2.52-3.4-1.54-4.79-5.16-4.1a5 5 0 00-2.28 1.78c-2.22 3.46 1.94 4.43 5.46 3.72a4.73 4.73 0 001.98-1.4z"/>
      <path class="cls-16" d="M89.71 62.57c.9-.14 1.46-.25 1.46-.25-4.22 2.42-9.63 2.52-14.38 2.15a12.12 12.12 0 013.79 3.85A16.55 16.55 0 0066 63.83c2.29-.19 4.87.84 4.62 3.58-.22 2.39-2.76 3.39-4.74 3.93 1.88-.4 4.1-1 5.46 1 1.26 1.82.72 3.91-1.92 5.86-2.41 1.78-5.82 2.6-7.8 1.13a4.82 4.82 0 01-1.49-3c.81 5.18 3.65 11.38 7.6 15 4.59 4.15 10.09-1.64 12.74-5.43l.36-.07c-.58.06-5.16 1.39-5.57.84-.26-.34 5.79-2 5.91-2 3.17-.4 6.77.13 9.32 2.2v.06c-.69-.18-1.39-.35-2.09-.5.73 3.38 1.14 6.39 1.8 9.78.36 1.87.46 4.35 2.2 5.29 1.06.58 2.1 1.19 3.1 1.87a24.68 24.68 0 016.86-15.13c1.15-1.23 2.38-2.39 3.63-3.51.25-.94.5-1.88.83-2.8.63-1.8 1.62-3.88 3.55-4.59-6.06.18-10.21 3.31-15 6.49a34.15 34.15 0 017.55-5.74c1.88-1.11.89-2.26.15-3.89a28.13 28.13 0 00-1.8-3.33 58.52 58.52 0 00-9.57-11.54 12.42 12.42 0 01-1.99 3.24z"/>
      <path class="cls-17" d="M109 68.35c.12-.51 1.31-3.48 1-3.82-.15-.18-1.42 3.41-2.1 2.1-.14-.26-1.68-2.52-1.43-2.66-.63.37 1.1 3.28 1 5.56a4.64 4.64 0 01-1.53 3.3c-1.48 1.39-.78 1.33-.23 3.22a29.34 29.34 0 003.29-7.7z"/>
      <path class="cls-18" d="M13.66 76.36c-1.21-2-3.06 0-3.4 1.5a8.11 8.11 0 00-.19 1.47 7 7 0 013.59-2.97z"/>
      <path class="cls-19" d="M14.82 76.09a6.37 6.37 0 014.76 1.3c-.58-2.32-4.83-5.14-4.76-1.3z"/>
      <path class="cls-20" d="M95.05 109.16a22.93 22.93 0 002.67 2.1 10.72 10.72 0 01-1.52-3c-.32.23-.83.74-1.15.9z"/>
      <path class="cls-21" d="M91.48 101.9a17.69 17.69 0 01.1 1.93c-1.36-5.9-3-11.61-4-17.6a29.85 29.85 0 00-3.92-.55c-3 .1-3.46 2.31-5.45 4.41-2.26 2.4-5.09 4.67-8.61 3.58a27.13 27.13 0 01-5.67 5.14 31.92 31.92 0 005-5.39c-4.94-2.19-8.44-10.28-9.67-15.16C58.14 74 56.21 66.51 60.89 64c6.31-3.4 12.44-1 19.13-.64 2.56.16 8 .58 9.48-1.75a16.54 16.54 0 002.22-6.72c.1-.81.66-3.68-.43-4.07-.91-.33-2.67 1.55-3.44 2a8.6 8.6 0 01-3.26.92c-6.08.61-11.9-2.53-17.71-3.87-12.16-2.87-25.66-1.26-37.13 3.7a7.85 7.85 0 012.06-1c-2.24-.39-5.21-1-7.37-.08-3.28 1.41 4 8 5 9.08a24.58 24.58 0 01-.73-3.09c.39 1 .8 1.89 1.18 2.84a19 19 0 0115.23-1.4c5.35 1.8 3.59 7.56 2.88 12.08-1.13 7.49-7.55 22.41-16.74 14-1.14 3.51-2.69 6.89-3.74 10.43s-.23 7.19-1.28 10.42a16.22 16.22 0 01-.31-3.26c-1.64 1.36-6.48 4.82-2.83 6.56a31.1 31.1 0 007.11 2.24c6.65 1.41 13.46 2.69 20.2 3.52 7.41.9 15 1.35 22.36 0 6.16-1.08 11.61-3.75 17.09-6.66-1.63 2.21.55.74 1.85.32a14.35 14.35 0 002.59-1.09c4.7-2.48.09-5-2.82-6.58zM41.24 53.05a41.54 41.54 0 0129.55.95 19.71 19.71 0 012.36 1.1c-.77-.39-1.56-.76-2.36-1.1a41.45 41.45 0 00-15.24-2.72c-5.67-.01-11.09.58-14.31 1.77z"/>
      <path class="cls-22" d="M91.48 101.9a17.69 17.69 0 01.1 1.93c-1.36-5.9-3-11.61-4-17.6a29.85 29.85 0 00-3.92-.55c-3 .1-3.46 2.31-5.45 4.41-2.26 2.4-5.09 4.67-8.61 3.58a27.13 27.13 0 01-5.67 5.14 31.92 31.92 0 005-5.39c-4.94-2.19-8.44-10.28-9.67-15.16C58.14 74 56.21 66.51 60.89 64c6.31-3.4 12.44-1 19.13-.64 2.56.16 8 .58 9.48-1.75a16.54 16.54 0 002.22-6.72c.1-.81.66-3.68-.43-4.07-.91-.33-2.67 1.55-3.44 2a8.6 8.6 0 01-3.26.92c-6.08.61-11.9-2.53-17.71-3.87-12.16-2.87-25.66-1.26-37.13 3.7a7.85 7.85 0 012.06-1c-2.24-.39-5.21-1-7.37-.08-3.28 1.41 4 8 5 9.08a24.58 24.58 0 01-.73-3.09c.39 1 .8 1.89 1.18 2.84a19 19 0 0115.23-1.4c5.35 1.8 3.59 7.56 2.88 12.08-1.13 7.49-7.55 22.41-16.74 14-1.14 3.51-2.69 6.89-3.74 10.43s-.23 7.19-1.28 10.42a16.22 16.22 0 01-.31-3.26c-1.64 1.36-6.48 4.82-2.83 6.56a31.1 31.1 0 007.11 2.24c6.65 1.41 13.46 2.69 20.2 3.52 7.41.9 15 1.35 22.36 0 6.16-1.08 11.61-3.75 17.09-6.66-1.63 2.21.55.74 1.85.32a14.35 14.35 0 002.59-1.09c4.7-2.48.09-5-2.82-6.58zM41.24 53.05a41.54 41.54 0 0129.55.95 19.71 19.71 0 012.36 1.1c-.77-.39-1.56-.76-2.36-1.1a41.45 41.45 0 00-15.24-2.72c-5.67-.01-11.09.58-14.31 1.77z"/>
      <path class="cls-23" d="M14.1 76.23c0 .06.16 0 .2-.06a3.09 3.09 0 00.1-.81c.14-1.16.86-2.72 3.07-1.54s2.69 3.66 4 5.65c2.8 4.32 5.38 9.36 6.39 14.44.64-1.88 1.37-3.74 2.05-5.61.94-2.6.93-2.63-.86-4.6a17.17 17.17 0 01-4.39-7.76C22 74 19 72.93 16.47 73.27a7.89 7.89 0 00-3.9 1.52 2.73 2.73 0 011.53 1.44z"/>
      <path class="cls-24" d="M116 82.24c-3.64-1.28-7 .81-9.62 3.19-3.62 3.29-10 11.79-9.86 17.63a20.44 20.44 0 001.07 5.13 5.19 5.19 0 003.07 2.68c3 .76 6-.83 8.44-2.57 5.49-4 10.86-11.16 11.75-18a7.64 7.64 0 00-4.85-8.06z"/>
      <path class="cls-24" d="M116 82.24c-3.64-1.28-7 .81-9.62 3.19-3.62 3.29-10 11.79-9.86 17.63a20.44 20.44 0 001.07 5.13 5.19 5.19 0 003.07 2.68c3 .76 6-.83 8.44-2.57 5.49-4 10.86-11.16 11.75-18a7.64 7.64 0 00-4.85-8.06z"/>
      <path class="cls-25" d="M107.3 86.21c2.61-2.38 5.9-3.52 9.54-2.23 1.43.5 3.07 2.44 3.92 3.66A7.57 7.57 0 00116 82c-3.64-1.28-7 .81-9.62 3.19-3.62 3.29-10 11.79-9.86 17.63A20.44 20.44 0 0097.6 108a5.4 5.4 0 00.72 1.1 34.81 34.81 0 01-.72-4.24c-.19-5.86 6.08-15.37 9.7-18.65z"/>
      <path class="cls-26" d="M26 102.83c.11-3.4 1.47-6.33.77-9.7a36.5 36.5 0 00-3.48-9.19c-2.31-4.56-7.82-10.83-12.44-4.52-3.41 4.65-.85 13.2 1 18.09 1.49 4 4.34 10 8.61 11.74a1.74 1.74 0 01.25-1.28c1.09-2.11 3.44-3.66 5.29-5.14z"/>
      <path class="cls-27" d="M13.44 81.56c2.22-3 4.66-3.15 6.84-1.94-2.69-2.92-6.29-4.55-9.47-.2-3.41 4.65-.85 13.2 1 18.09 1.39 3.72 4 9.22 7.74 11.33a29.52 29.52 0 01-5.12-9.19c-1.85-4.89-4.43-13.43-.99-18.09z"/>
      <path class="cls-28" d="M20.65 108c1.15-2.11 3.5-3.66 5.31-5.14.11-3.4 1.47-6.33.77-9.7a36.5 36.5 0 00-3.48-9.19 19.62 19.62 0 00-3-4.32c-2.18-1.21-4.62-1.1-6.84 1.94-3.41 4.66-.86 13.2 1 18.09a29.52 29.52 0 005.12 9.19 6.82 6.82 0 00.87.41 1.74 1.74 0 01.25-1.28z"/>
      <path class="cls-29" d="M33.79 86.25c6.53 4.62 11.93-8 13.17-13.47-1.13 3.79-6.55 3.1-9.25.32-1.42-1.46-2.06-4.17-.33-5.7 1.2-1.06 3-.52 4.4-.23-1.88-.51-4.27-1.45-4.44-3.71-.18-2.46 2.23-3.48 4.33-3.3-4.84-.93-11.44.81-14.2 5.17-4.79 7.5-.15 16.35 6.32 20.92z"/>
      <path class="cls-30" d="M38.74 62.32c-1.55 3.7 7.24 6.44 8 3s-6.56-6.42-8-3z"/>
      <path class="cls-6" d="M40.65 62.56A2.66 2.66 0 0143.13 61c-1.8-.53-3.72-.27-4.39 1.29-1.07 2.55 2.78 4.65 5.54 4.56-2.28-.58-4.46-2.3-3.63-4.29z"/>
      <path class="cls-31" d="M46.78 65.28c.45-1.93-1.52-3.64-3.65-4.25a2.66 2.66 0 00-2.48 1.53c-.83 2 1.33 3.71 3.63 4.32 1.24-.04 2.25-.52 2.5-1.6z"/>
      <path class="cls-32" d="M47.34 70.2c.13-1.32.29-2.64.41-4-.56 1.92-2.78 1.56-4.37 1.29 1.51.41 3.81.8 3.96 2.71z"/>
      <path class="cls-33" d="M37.58 68.72c-2.39 4.86 7.69 8.21 8.47 4 .58-3.17-.16-3.79-3.11-4.66-1.63-.51-4.37-1.35-5.36.66z"/>
      <path class="cls-33" d="M37.58 68.72c-2.39 4.86 7.69 8.21 8.47 4 .58-3.17-.16-3.79-3.11-4.66-1.63-.51-4.37-1.35-5.36.66z"/>
      <path class="cls-6" d="M39 68.64a2.13 2.13 0 011.44-1.17 2.59 2.59 0 00-2.87 1.25c-1.81 3.67 3.5 6.48 6.54 5.81-2.99-.24-6.64-2.75-5.11-5.89z"/>
      <path class="cls-34" d="M46.05 72.69c.58-3.17-.16-3.79-3.11-4.66a13.68 13.68 0 00-2.49-.56A2.13 2.13 0 0039 68.64c-1.54 3.14 2.11 5.65 5.11 5.89a2.28 2.28 0 001.94-1.84z"/>
      <path class="cls-35" d="M115.52 77.06c-2-.81-7.43-.73-9.06-.38-.31.06-.24-.15-.14-.33a35.24 35.24 0 002.4-5.37c.67-2.06.9-3.52 1.69-5.68.58-1.59.94-1.18 1.77-2.1 1-1.23 1.78-3.42 1.16-5-.09-.24-.35 0-1 .69A4.63 4.63 0 01111 60c-1.18.46-1.31.12-2.59.51-.41.12-2.06 1.26-2.12 2.23 0 .45-.6.08-.6.24 0 3.42 3.32 7.36-1.05 10.09a37.87 37.87 0 00-12.59-14.68c.89-2.54 1.64-6.06 1-8.73-.52-2-3.45.23-4.34.73-1-2.67-1.74-5.4-2.43-8.14a36.89 36.89 0 00.2-13c-.32-1.91-1.9-5.14-.36-6.47 1.76-1.52 3.47-.78 5.34-1.69 2.8-1.37 3.61-5.24 2.19-7.87-2.06-3.81-6.78-1.87-10.1-1.72-1.92.09-3.52.15-4.82-1.31a28.22 28.22 0 00-4.84-4.29c-4-2.78-8.34-4-13-2.18C59.27 1.31 54.77-1.49 52 .93c-1.3 1.13-1 3-.39 4.37.72 1.67 2.64 2.56 1.29 3.91a14.61 14.61 0 00-4.27 2.6c-2.06 1.78-1.78 1.68-4.4.65 0-2.09 0-4.72-1.55-6.35-2.2-2.32-6.07-.84-8.31.6-1.63 1-3.05 2.15-5.05 2a23 23 0 00-6.19.3c-1.63-3.13-4.43-5.83-7.74-2.89-2.62 2.32-2.48 6-5.23 7.9-5.58 3.86-8.8 10.31-9.8 16.9C-2.25 48 9.8 61.29 26 65a15.6 15.6 0 00-1.53 10c-4-2.9-9.67-4.49-13.43-.29S8.27 85.67 9 90.92a34.06 34.06 0 005.83 14.83c2.65 3.69 8 6 12.19 7.32a122.65 122.65 0 0036.67 5.18A50.15 50.15 0 0079.32 116a28.85 28.85 0 006.53-3.13c2.59-1.71 5.26-2 8.12-3.17 12 13.21 30.2-12.41 28.17-24.31-.6-3.59-1.14-6.1-6.62-8.33zm4.09 7.21a7.59 7.59 0 00-4.43-3c2.07-2.88 4.7.55 4.43 3zm-4.14-6.19a10.67 10.67 0 012.79 1.58c-1.11-.66-1.77-.06-2.38.35s-1.16 1.26-1.4 1.19 0-.33-.09-.5a4.46 4.46 0 00-2.2-3.33 11.6 11.6 0 013.28.71zm-2.85.75a4.43 4.43 0 011.38 2.33 10 10 0 00-7.19 2.84c.58-2.11 2.81-7.85 5.81-5.17zm-4.37-17.7c.9-.6 2-.4 3-.64a13.6 13.6 0 001.75-1.64c.66.2-.36 2.67-.55 3-1.57 2.83-1.63 1.16-2.32 1.91-.48.52-1.41 2.22-1.72 2.35s-.75-.63-1.2-1.46c-.85-1.52-.45-2.52 1.04-3.52zM106 72.83a4.64 4.64 0 001.53-3.3c.1-2.28-1.63-5.19-1-5.56-.25.14 1.29 2.4 1.43 2.66.68 1.31 2-2.28 2.1-2.1.28.34-.91 3.31-1 3.82a29.34 29.34 0 01-3.26 7.7c-.62-1.89-1.32-1.83.2-3.22zm-4.7-2a28.13 28.13 0 011.8 3.33c.74 1.63 1.73 2.78-.15 3.89a34.15 34.15 0 00-7.55 5.74c4.84-3.18 9-6.31 15-6.49-1.93.71-2.92 2.79-3.55 4.59-.33.92-.58 1.86-.83 2.8-1.25 1.12-2.48 2.28-3.63 3.51a24.68 24.68 0 00-6.86 15.13c-1-.68-2-1.29-3.1-1.87-1.74-.94-1.84-3.42-2.2-5.29-.66-3.39-1.07-6.4-1.8-9.78.7.15 1.4.32 2.09.5v-.06c-2.55-2.07-6.15-2.6-9.32-2.2-.12 0-6.17 1.62-5.91 2 .41.55 5-.78 5.57-.84l-.36.07c-2.65 3.79-8.15 9.58-12.74 5.43-3.95-3.58-6.79-9.78-7.6-15a4.82 4.82 0 001.49 3c2 1.47 5.39.65 7.8-1.13 2.64-2 3.18-4 1.92-5.86-1.36-2-3.58-1.4-5.46-1 2-.54 4.52-1.54 4.74-3.93.25-2.74-2.33-3.77-4.62-3.58a16.55 16.55 0 0114.54 4.49 12.12 12.12 0 00-3.79-3.85c4.75.37 10.16.27 14.38-2.15 0 0-.56.11-1.46.25a12.42 12.42 0 002-3.25 58.52 58.52 0 019.56 11.58zm-41.3.24a6 6 0 004.17.65c-1.58.39-4.06.8-4.22 2.86-.14-1.39-.32-2.79-.44-4.18a1.26 1.26 0 00.49.67zm.1-4c2.47-3.86 12.92-3.21 9.23 1.78-2.19 2.96-12.43 3.2-9.21-1.85zm9.57 4.78c5.06 3.5-3.34 8.84-7.31 7.09-2.15-.94-1.92-5 .32-5.92 1.76-.74 5.76-2.08 7.01-1.22zM54.77 1.3c1.86-.39 3.88 1.07 5.49 2.7a23.79 23.79 0 00-5.77 3.72C52 6 51.07 2.06 54.77 1.3zm-2.93 9.43c1.85-1 4.14-1.71 6.22-1a17.15 17.15 0 00-1.94 1.34 16.82 16.82 0 00-1.94 2l.85-.81C57.88 10 63 7.73 66.4 10.18c4.95 3.58.89 10.5-2.17 13.79.89-3-2.86-3.12-4.52-.85a42.79 42.79 0 00-12-9.09 15.11 15.11 0 014.13-3.3zm10.73 12c-.54.55-1.13 0-.59-.58s1.13.07.59.62zM14 9.79c2-3.59 5.43-3.9 7.87-.6a36.37 36.37 0 00-9.2 3.35A24 24 0 0114 9.79zm10 53.52a38 38 0 01-4.69-2 48.54 48.54 0 01-10.59-7.54C1.11 46.8 0 34.55 3.34 25.26 7.42 14 19.21 8.56 30.76 9.6a27.67 27.67 0 00-3.2 3.56c2.83-2.58 7.06-6.87 11.23-6.62 5 .29 4.75 7.9 5 11.4.21-1.59.36-3.2.41-4.8A41.36 41.36 0 0155.48 20c3.39 2.85 5.93 6.41 9.15 9.39-.62-1-1.3-1.95-2-2.88.31-.27.63-.55 1-.86 3.56-3.08 7.79-8.45 6.13-13.51A6.2 6.2 0 0063.82 8a9.86 9.86 0 00-3.82.77c-1.78.7-3-.39-5-.13 7.53-6.42 15.49-4.92 22.06 2-.68-.21-1.35-.44-2-.7a13.08 13.08 0 007.81 2.68c2.82 0 6.15-1.39 8.76.26 2.19 1.38 2.14 4.06.78 6-1.86 2.68-5.26 1.4-7.67 3.41-.41-1.2-.88-2.37-1.31-3.56 1.78 1.24 4.43 1.08 6.52.15 1.7-.74 3.18-3.41 1.08-4.53-4.89-2.61-10.49 1.64-12.76 6a18.35 18.35 0 013.33-3.2c4.49 9 6 22.73 1.9 32.15l.65-1.11a14 14 0 001.26-2.82c.62 1.6 1.28 3.48 1.92 5.64-3.47 1.32-6.88.47-10.34-.33-5.99-1.3-12.1-3.09-18.28-3.68a54.64 54.64 0 00-19.5 2.08c-2.44.74-4.83 2-7.27 1.31a15.87 15.87 0 00-7.65.16c-7 1.42 1.87 9.85 4.25 11.53-2.15 1.66-1.84 2.16-4.54 1.23zm58.8-46.94c1.44-2 9-3.34 8.31.35-.27 1.49-2.48 2.1-3.71 2.15-2.54.13-3.57-.37-4.6-2.5zm-55.33 49c2.76-4.36 9.36-6.1 14.2-5.17-2.1-.18-4.51.84-4.33 3.3.17 2.26 2.56 3.2 4.44 3.71-1.37-.29-3.2-.83-4.4.23-1.73 1.53-1.09 4.24.33 5.7 2.7 2.78 8.12 3.47 9.25-.32.07-.32.13-.63.18-.9a5.51 5.51 0 01-.18.9c-1.24 5.49-6.64 18.09-13.17 13.47s-11.11-13.46-6.32-20.96zm15.91 2.2c1.59.27 3.81.63 4.37-1.29-.12 1.32-.28 2.64-.41 4-.15-1.99-2.45-2.38-3.96-2.75zm2.67 5.16c-.78 4.24-10.86.89-8.47-4 1-2 3.73-1.17 5.36-.69 2.95.86 3.69 1.48 3.11 4.65zm.73-7.41c-.8 3.48-9.59.74-8-3 1.4-3.42 8.83-.61 8 2.96zm-30.31 8c2.53-.39 5.53.68 8.17 2.62A17.17 17.17 0 0029 83.7c1.79 2 1.8 2 .86 4.6-.68 1.87-1.41 3.73-2.05 5.61-1-5.08-3.59-10.12-6.39-14.44-1.29-2-1.7-4.41-4-5.65s-2.93.38-3.07 1.54a3.09 3.09 0 01-.1.81c0 .11-.16.12-.2.06a2.73 2.73 0 00-1.53-1.44 7.89 7.89 0 013.95-1.52zm3.11 4.12a6.37 6.37 0 00-4.76-1.3c-.07-3.89 4.18-1.07 4.76 1.25zm-9.32.47c.34-1.48 2.19-3.47 3.4-1.5a7 7 0 00-3.59 3 8.11 8.11 0 01.19-1.55zm10.14 31.34c-4.27-1.69-7.12-7.74-8.61-11.74-1.83-4.89-4.39-13.44-1-18.09 4.62-6.31 10.13 0 12.44 4.52a36.5 36.5 0 013.48 9.19c.7 3.37-.66 6.3-.77 9.7-1.81 1.48-4.16 3-5.31 5.14a1.74 1.74 0 00-.23 1.28zm73.93-.76a14.35 14.35 0 01-2.59 1.09c-1.3.42-3.48 1.89-1.85-.32-5.48 2.91-10.93 5.58-17.09 6.66-7.39 1.3-14.95.85-22.36 0-6.74-.83-13.55-2.11-20.2-3.52a31.1 31.1 0 01-7.11-2.24c-3.65-1.74 1.19-5.2 2.83-6.56a16.22 16.22 0 00.31 3.26c1.05-3.23.27-7 1.28-10.42s2.6-6.92 3.74-10.43C40.48 94.36 46.9 79.44 48 72c.68-4.47 2.44-10.23-2.86-12.11a19 19 0 00-15.23 1.4c-.38-1-.79-1.89-1.18-2.84a24.58 24.58 0 00.73 3.09c-1-1.06-8.28-7.67-5-9.08 2.16-.92 5.13-.31 7.37.08a7.85 7.85 0 00-2.06 1c11.47-5 25-6.55 37.13-3.75 5.81 1.34 11.63 4.48 17.71 3.87a8.6 8.6 0 003.26-.92c.77-.41 2.53-2.29 3.44-2 1.09.39.53 3.26.43 4.07a16.54 16.54 0 01-2.24 6.79c-1.44 2.33-6.92 1.91-9.48 1.75-6.69-.35-12.82-2.76-19.13.65-4.68 2.52-2.75 10-1.68 14.27 1.23 4.88 4.73 13 9.67 15.16a31.92 31.92 0 01-5 5.39 27.13 27.13 0 005.67-5.14c3.52 1.09 6.35-1.18 8.61-3.58 2-2.1 2.5-4.31 5.45-4.41a29.85 29.85 0 013.92.55c1 6 2.69 11.7 4 17.6a17.69 17.69 0 00-.1-1.93c2.96 1.57 7.57 4.09 2.9 6.58zm.72.67c.32-.18.83-.67 1.15-.85a10.72 10.72 0 001.52 3 22.93 22.93 0 01-2.67-2.15zm25.81-18.9c-.89 6.88-6.26 14.07-11.75 18-2.4 1.74-5.39 3.33-8.44 2.57a5.19 5.19 0 01-3.07-2.68 20.44 20.44 0 01-1.07-5.13c-.19-5.84 6.24-14.34 9.86-17.63 2.62-2.38 6-4.47 9.62-3.19a7.64 7.64 0 014.85 8.06zm.29-2.34a8.75 8.75 0 00-1-2.83 6.78 6.78 0 00-.29-3.63 10 10 0 011.29 6.46z"/>
      <path class="cls-35" d="M47 72.78a5.51 5.51 0 00.18-.9c-.09.27-.18.58-.18.9zM41.24 53.05c3.22-1.19 8.64-1.78 14.31-1.79A41.45 41.45 0 0170.79 54a41.54 41.54 0 00-29.55-.95zM70.79 54c.8.34 1.59.71 2.36 1.1a19.71 19.71 0 00-2.36-1.1zM35.5 18.6a3.76 3.76 0 003.17-.75A3 3 0 0133.85 16c1.83 3.5 6.67-2 6.89-4.11.49-4.7-4.89-4-6.34-.69-1.13 1.99-1.87 6.5 1.1 7.4zm1.58-9c3.69-1.43 2.79 4.35.4 5.9 1.07-1.29 2-5.41-.5-5.86zm-2 2.26a4.4 4.4 0 011.45-1.95c2.81 0 1.5 4.84.24 6-2.92 1.01-2.31-2.64-1.77-4.04zM38.67 17.85a3.3 3.3 0 00.3-.22 2.32 2.32 0 01-.3.22z"/>
      <path class="cls-36" d="M46.79 34.19a3.31 3.31 0 003.61-1.83c.74-1.4.35-2.85-.89-3.24A3.32 3.32 0 0045.92 31c-.76 1.35-.37 2.8.87 3.19z"/>
      <path class="cls-37" d="M47.19 34a2.91 2.91 0 003-1.65c.65-1.2.39-2.39-.59-2.67a2.93 2.93 0 00-3 1.65c-.66 1.17-.4 2.38.59 2.67z"/>
      <path class="cls-36" d="M57.53 36.15A3.27 3.27 0 0061 34.52c.81-1.3.57-2.67-.55-3.07A3.27 3.27 0 0057 33.07c-.83 1.3-.59 2.68.53 3.08z"/>
      <path class="cls-37" d="M57.91 36c.89.3 2.19-.37 2.91-1.48s.57-2.23-.32-2.52a2.9 2.9 0 00-2.9 1.47c-.72 1.07-.6 2.2.31 2.53z"/>
      <path class="cls-36" d="M51 43.23a3.19 3.19 0 003.29-2c.66-1.38.27-2.72-.88-3a3.21 3.21 0 00-3.29 2c-.65 1.36-.26 2.71.88 3z"/>
      <path class="cls-37" d="M51.38 43a2.83 2.83 0 002.72-1.76c.58-1.17.32-2.28-.6-2.49a2.84 2.84 0 00-2.71 1.76c-.59 1.18-.33 2.3.59 2.49z"/>
      <path class="cls-38" d="M70.79 54a41.54 41.54 0 00-29.55-.93c3.22-1.19 8.64-1.78 14.31-1.79A41.45 41.45 0 0170.79 54zM70.79 54c.8.34 1.59.71 2.36 1.1a19.71 19.71 0 00-2.36-1.1zM29.09 60h.31c-.21-.52-.43-1-.64-1.54.08.47.24 1.02.33 1.54z"/>
      <path class="cls-39" d="M83.21 90.26c4.53-3.82-2.62 15.26-9.06 18.13s-21.71 1.66-28.63-.24-11-.24-13.83-2.86-3.82-6.21-1.19-10.74 8.34-2.86 13.59-8.11 9.4-21.59 4.26-26.51c-5.61-5.37-18.59.87-18.41 1.31 4.85-2.19 10.24-3.17 15.23-1.4 5.3 1.88 3.54 7.64 2.83 12.16-1.13 7.49-7.55 22.41-16.74 14-1.14 3.51-2.69 6.89-3.74 10.43s-.23 7.19-1.28 10.42a16.22 16.22 0 01-.31-3.26c-1.64 1.36-6.48 4.82-2.83 6.56a31.1 31.1 0 007.11 2.24c6.65 1.41 13.46 2.69 20.2 3.52 7.41.9 15 1.35 22.36 0 6.16-1.08 11.61-3.75 17.09-6.66-1.63 2.21.55.74 1.85.32a14.35 14.35 0 002.59-1.09c4.69-2.54.06-5-2.85-6.59a17.69 17.69 0 01.1 1.93c-1.36-5.9-3-11.61-4-17.6a29.85 29.85 0 00-3.92-.55c-3 .1-3.46 2.31-5.45 4.41-2.26 2.4-5.09 4.67-8.61 3.58-.42.52-.9 1-1.4 1.57 4.54 3.62 10.51-1.16 15.04-4.97z"/>
      <path class="cls-40" d="M57.45 77.14c1 5.44 5.8 14 10.28 17.76.4-.48.79-1 1.15-1.48-4.94-2.19-8.44-10.28-9.67-15.16-1-4.1-2.87-11.25 1.23-14-5.44 2.4-3.95 7.87-2.99 12.88z"/>
      <path class="cls-38" d="M76.36 10.75c0-.14-.09-.28-.14-.42-.37-.12-.73-.26-1.09-.4a13.83 13.83 0 001.23.82zM35.5 18.6a3.76 3.76 0 003.17-.75A3 3 0 0133.85 16c1.83 3.5 6.67-2 6.89-4.11.49-4.7-4.89-4-6.34-.69-1.13 1.99-1.87 6.5 1.1 7.4zM79 19.56l-.09-.2c-.2.32-.39.64-.56 1 .2-.3.42-.55.65-.8z"/>
      <path class="cls-41" d="M77.14 10.63c-.42-.44-.84-.86-1.27-1.26l.35 1z"/>
      <path class="cls-42" d="M39.21 49.12A54.64 54.64 0 0158.71 47c6.18.55 12.31 2.34 18.36 3.63 3.46.8 6.87 1.65 10.34.33-.64-2.16-1.3-4-1.92-5.64a14 14 0 01-1.26 2.82l-.65 1.11c4.12-9.42 2.59-23.12-1.9-32.15A18.23 18.23 0 0079 19.56c.05.11.06.26.16.34 5.73 4.29 7.16 13.12 6 19.08s-6 9.66-11.21 8.94-18.65-3.06-25.8-1.39-11.38 3.33-8.94 2.59z"/>
      <path class="cls-43" d="M91.69 59.32a12.42 12.42 0 01-2 3.25c.9-.14 1.46-.25 1.46-.25-4.22 2.42-9.63 2.52-14.38 2.15a12.12 12.12 0 013.79 3.85A16.55 16.55 0 0066 63.83c2.29-.19 4.87.84 4.62 3.58-.22 2.39-2.76 3.39-4.74 3.93 1.88-.4 4.1-1 5.46 1 1.26 1.82.72 3.91-1.92 5.86-2.41 1.78-5.82 2.6-7.8 1.13a4.82 4.82 0 01-1.49-3c.81 5.18 3.65 11.38 7.6 15 4.59 4.15 10.09-1.64 12.74-5.43l.36-.07c-.58.06-5.16 1.39-5.57.84-.26-.34 5.79-2 5.91-2 3.17-.4 6.77.13 9.32 2.2v.06c-.69-.18-1.39-.35-2.09-.5.73 3.38 1.14 6.39 1.8 9.78.36 1.87.46 4.35 2.2 5.29 1.06.58 2.1 1.19 3.1 1.87a24.68 24.68 0 016.86-15.13c.44-.48.91-1 1.38-1.41a1.76 1.76 0 00-.3.1c-3.81 1.67-6.2 5.48-9.78 5.25s-1.19-6.68-2.86-8.11-7.63-1.67-12.64-1.2-6.2 4.3-8.11 4.54-2.86-3.1 1-8.35 3.11-5 1.91-7.4 1.2-4.29 5.49-2.62 7.39 1.19 4.77-1-.24-2.62 3.1-2.62 6.58-1.63 7.13-4.42c-.58-.54-1.17-1.12-1.76-1.68z"/>
      <path class="cls-42" d="M91.69 59.32a12.42 12.42 0 01-2 3.25c.9-.14 1.46-.25 1.46-.25-4.22 2.42-9.63 2.52-14.38 2.15a12.12 12.12 0 013.79 3.85A16.55 16.55 0 0066 63.83c2.29-.19 4.87.84 4.62 3.58-.22 2.39-2.76 3.39-4.74 3.93 1.88-.4 4.1-1 5.46 1 1.26 1.82.72 3.91-1.92 5.86-2.41 1.78-5.82 2.6-7.8 1.13a4.82 4.82 0 01-1.49-3c.81 5.18 3.65 11.38 7.6 15 4.59 4.15 10.09-1.64 12.74-5.43l.36-.07c-.58.06-5.16 1.39-5.57.84-.26-.34 5.79-2 5.91-2 3.17-.4 6.77.13 9.32 2.2v.06c-.69-.18-1.39-.35-2.09-.5.73 3.38 1.14 6.39 1.8 9.78.36 1.87.46 4.35 2.2 5.29 1.06.58 2.1 1.19 3.1 1.87a24.68 24.68 0 016.86-15.13c.44-.48.91-1 1.38-1.41a1.76 1.76 0 00-.3.1c-3.81 1.67-6.2 5.48-9.78 5.25s-1.19-6.68-2.86-8.11-7.63-1.67-12.64-1.2-6.2 4.3-8.11 4.54-2.86-3.1 1-8.35 3.11-5 1.91-7.4 1.2-4.29 5.49-2.62 7.39 1.19 4.77-1-.24-2.62 3.1-2.62 6.58-1.63 7.13-4.42c-.58-.54-1.17-1.12-1.76-1.68z"/>
      <path class="cls-38" d="M34.4 11.19c-1.13 2-1.87 6.51 1.1 7.41a3.76 3.76 0 003.17-.75A3 3 0 0133.85 16c1.83 3.5 6.67-2 6.89-4.11.49-4.71-4.89-3.99-6.34-.7z"/>
      <path class="cls-27" d="M5 33.73c.07-11 9.3-21.23 18.36-23.85l.1-.07c-8.89 1.33-16.89 6.57-20.1 15.45C0 34.55 1.11 46.8 8.72 53.77a48.54 48.54 0 0010.63 7.53l1.25.61a49.22 49.22 0 01-7.51-6.32C9.51 52 4.9 46.05 5 33.73z"/>
      <path class="cls-44" d="M32.79 61.13a11.21 11.21 0 00-5.32 4.2c-4.79 7.5-.15 16.35 6.32 20.92l.26.18a39.37 39.37 0 01-5.46-9.05c-2.78-6.38 0-12.06 4.2-16.25z"/>
      <path class="cls-27" d="M32.79 61.13a11.21 11.21 0 00-5.32 4.2c-4.79 7.5-.15 16.35 6.32 20.92l.26.18a39.37 39.37 0 01-5.46-9.05c-2.78-6.38 0-12.06 4.2-16.25z"/>
      <path class="cls-45" d="M70 34.44c2.1-4.83 6.59-7.53 10-6s4.58 6.56 2.48 11.42-6.59 7.53-10 6-4.55-6.59-2.48-11.42z"/>
      <path class="cls-38" d="M64.63 29.43a.83.83 0 00-.08-.12zM34.4 11.19c-1.13 2-1.87 6.51 1.1 7.41a3.76 3.76 0 003.17-.75A3 3 0 0133.85 16c1.83 3.5 6.67-2 6.89-4.11.49-4.71-4.89-3.99-6.34-.7z"/>
      <path class="cls-46" d="M60 8.77A9.86 9.86 0 0163.82 8a6.2 6.2 0 015.87 4.17c1.66 5.06-2.57 10.43-6.13 13.51-.32.31-.64.59-1 .86.69.89 1.34 1.81 1.94 2.76a5.57 5.57 0 001.72-2.14c2-3.7 3.46-5.48 4.54-8.11.63-1.55 3.69-8.7-1.91-11.68a9.2 9.2 0 00-10 .71 1.37 1.37 0 00-1.07-1.31h-.14a20.37 20.37 0 00-2.59 1.88c2-.27 3.2.82 4.95.12z"/>
      <path class="cls-47" d="M60 8.77A9.86 9.86 0 0163.82 8a6.2 6.2 0 015.87 4.17c1.66 5.06-2.57 10.43-6.13 13.51-.32.31-.64.59-1 .86A27.17 27.17 0 0164.13 29a16.45 16.45 0 002.74-3 31.19 31.19 0 004.17-7c.64-1.55 1.79-7.63-1.19-10.37-4.67-4.3-11-.48-11-.48a1.37 1.37 0 00-1.07-1.31h-.14a20.37 20.37 0 00-2.59 1.88c2-.34 3.2.75 4.95.05z"/>
      <path class="cls-48" d="M58.87 8a1.33 1.33 0 00-.48-1 1 1 0 00-.69-.24A2.05 2.05 0 0158.87 8zM69.88 8.54a8 8 0 00-7.32-1.83 7.83 7.83 0 016.61 2c3 2.74 2.75 7.38 1.56 10.66a34.5 34.5 0 01-2.8 5.18 24.26 24.26 0 003-5c1.15-2.62 1.93-8.27-1.05-11.01z"/>
      <path class="cls-49" d="M46.72 18.71c3 1.78 16.45 10.49 16.45 10.49a1 1 0 001.35.12c-3.17-2.95-5.69-6.47-9-9.28a42.42 42.42 0 00-9.75-6.23c-.84 2.03-.54 4 .95 4.9z"/>
      <path class="cls-50" d="M9.67 19.86c-1.13 2.36-4 5.92-4.89 14.5A23 23 0 006.82 46C5.74 42.87 4.71 38.34 5 34.89a40.65 40.65 0 014.67-15.03z"/>
      <path class="cls-50" d="M10.07 24.66A10.24 10.24 0 007 24.8a10.65 10.65 0 00-2.62.81A24.41 24.41 0 016.83 25a23 23 0 013.24-.34z"/>
    </g>
  </g>
</svg>
