<svg width="324" height="421" viewBox="0 0 384 481" fill="none" xmlns="http://www.w3.org/2000/svg"><path d="M320 448.94h-64V336.97a32 32 0 0132-31.99h32v143.96z" fill="#23AAE6"/><path d="M328 480.93h-64a8 8 0 01-8-8v-24h64a16 16 0 0116 16v8a8 8 0 01-8 8z" fill="#F0915A"/><path d="M192 304.98c-44.18 0-80 35.8-80 79.98v31.99H80v47.98a16 16 0 0016 16h48c35.35 0 64-28.65 64-63.98V304.98h-16z" fill="#23AAE6"/><path d="M8 478.26h8a16 16 0 0016-16v-53.31H8a8 8 0 00-8 8v53.31a8 8 0 008 8z" fill="#FAB991"/><path d="M144 304.98c-44.18 0-80 35.8-80 79.98v23.99H32v55.98a16 16 0 0016 16h48c35.35 0 64-28.65 64-63.98h48v31.99h64v-38.67a79.98 79.98 0 0048-73.3v-31.99H144z" fill="#5AD7FF"/><path d="M280 480.93h-64a8 8 0 01-8-8v-24h64a16 16 0 0116 16v8a8 8 0 01-8 8z" fill="#FAB991"/><path d="M288 336.97a32 32 0 10.01-63.99 32 32 0 00-.01 63.99z" fill="#FFD205"/><path d="M256 49.06c-70.7 0-128 57.29-128 127.96 0 70.67 57.3 127.96 128 127.96h48c44.18 0 80-35.8 80-79.98v-47.98c0-70.67-57.3-127.96-128-127.96z" fill="#FAB991"/><path d="M224 177.02v79.97a40 40 0 110-79.97z" fill="#F0915A"/><path d="M284 201.01a12 12 0 100-24 12 12 0 000 24zM348 201.01a12 12 0 100-24 12 12 0 000 24z" fill="#463C4B"/><path d="M325.33 249c-5.89 0-10.66-4.78-10.66-10.67v-29.32A21.33 21.33 0 01336 230.34v8c0 5.88-4.78 10.66-10.67 10.66zM280 233h-16a8 8 0 110-16h16a8 8 0 110 16zM368 225a8 8 0 008 8h7.6c.26-2.63.4-5.3.4-8v-8h-8a8 8 0 00-8 8z" fill="#F0915A"/><path d="M297.19 95.71H288a4 4 0 110-8h9.19A50.86 50.86 0 00348 36.91c0-15.43-12.56-27.99-28-27.99-11.03 0-20 8.97-20 20 0 6.61 5.38 12 12 12a4 4 0 110 8c-11.03 0-20-8.98-20-20 0-15.44 12.56-28 28-28 19.85 0 36 16.15 36 36a58.87 58.87 0 01-58.81 58.8z" fill="#463C4B"/></svg>