<svg width="1775" height="1397" viewBox="0 0 1775 1397" fill="none" xmlns="http://www.w3.org/2000/svg">
<path d="M1341.9 1323.39C1374.14 1346.57 1405.91 1368.55 1432.78 1396.88C1447.4 1396.67 1461.95 1396.1 1476.57 1394.81C1523.64 1390.66 1576.04 1383.83 1619.18 1363.31C1662.34 1342.78 1675.3 1296.02 1697.1 1257.25C1729.8 1199.1 1734.83 1139.11 1737.98 1073.76C1739.74 1037.28 1737.92 1000.63 1740.87 964.216C1744.61 918.102 1757.49 874.363 1767.92 829.542C1775.25 798.078 1778.91 769.817 1767.08 739.118C1749.07 692.341 1730.31 645.81 1712.25 599.034C1689.23 539.418 1664.89 479.595 1631.45 424.92C1616.34 400.215 1599.94 378.768 1575.89 362.393C1552.55 346.494 1527.87 332.525 1504.95 315.979C1483.71 300.647 1468.91 281.197 1451.2 262.35C1430.02 239.816 1402 222.784 1376.53 205.594C1350.99 188.363 1324.4 172.7 1297.41 157.857C1232.9 122.377 1163.83 87.6837 1091.79 71.1612C1005.92 51.466 912.525 63.709 826.532 75.971C759.281 85.5605 688.681 99.6865 620.433 94.9696C572.536 91.6592 536.476 67.4719 494.898 46.5111C443.451 20.5749 387.343 2.72798 329.442 1.41948C305.477 0.877914 278.172 -0.294624 254.409 4.54584C236.117 8.27201 217.942 16.8953 200.3 22.823C172.116 32.2927 143.373 39.7824 117.09 54.0865C76.9713 75.9212 54.0847 107.758 27.6287 143.308C17.1037 157.451 3.39785 179.816 1.41541 197.658C-3.69655 243.666 10.9078 293.594 30.5145 334.376C50.3465 375.627 85.5406 411.205 113.724 446.804C131.524 469.289 157.026 483.698 174.327 506.446C184.461 519.77 185.596 533.881 191.041 549.253C201.063 577.551 221.586 595.643 239.138 618.874C245.936 627.871 249.393 640.191 257.295 648.093C266.984 657.782 280.53 664.518 291.685 672.383C331.708 700.6 374.329 724.447 412.651 755.351C428.365 768.024 435.592 784.023 447.522 799.601C458.056 813.357 472.274 823.637 484.798 835.434C527.174 875.354 563.449 915.832 580.993 972.513C586.594 990.608 589.588 1009.99 596.625 1027.58C602.382 1041.98 613.441 1054.63 623.319 1066.3C674.806 1127.15 739.716 1168.91 818.115 1186.31C909.381 1206.56 1005.15 1194 1096.84 1211.56C1185.79 1228.59 1268.85 1270.87 1341.9 1323.39Z" fill="#4AD3FF" fill-opacity="0.27"/>
</svg>
