<svg width="1102" height="811" viewBox="0 0 1102 811" fill="none" xmlns="http://www.w3.org/2000/svg">
<path d="M1102 0H0L3 3L4.5 5L7 8L13.5 16L22 25L29.5 32L39 40L44.5 45L51.5 51L56.5 56L61.5 61L67 67L72.5 74L77.5 83L80 90L83 100L85.5 109L89 119L94 129L97.5 135L102 142L105.5 147L115 159L119 164L126.5 173L132.5 180L135.5 184L137.5 187L141.5 194L143.5 198L145 201L148 206L151.5 211L154.5 214L159 218L163 221L172 227L178.5 231L193 241L205 249L218.5 258L232.5 267L248 277L258.5 284L266 289L276 296L280.5 299L287.5 304L295.5 310L299.5 313L304 316.5L314 325L318 329L323 335L326 339L331.5 347L335.5 353L341 361L348.5 370L364 385L380.5 400L390 409L399 418L404 423L411 430L418.5 438L422.5 443L428.5 450L433.5 456L439 463L443 469L446.5 474L451.5 482L458 493L461 498L463.5 503L467 510L472 522L475 531L479 543L481.5 553L484 563L486 571L488.5 580L490.5 586L493 593L497 601L501 608L505.5 614L508.5 618L511 621L515 626L518.5 630L523.5 636L529 642L536.5 650L545.5 659L550.5 664L556 669L560.5 673L567.5 679L573.5 684L582.5 691L589.5 696L598 702L606 707L617.5 714L628.5 720L640.5 726L649.5 730L660 734.5L672 739L677.5 741L693.5 746L699 747.5L703 748.5L709 750L716 751.5L718 752L726 753.5L734 755L746 757L767 759.5L781.5 761L788 761.5L811 763L831 764L847 764.5L863 765L883 765.5L899 766.5L907.5 767L917 767.5L931.5 768.5L943 769.5L957 771L973 773L986 775L1001 778L1014 781L1022 783L1029.5 785L1033 786L1036.5 787L1040 788L1043.5 789L1045 789.5L1050 791L1053 792L1056 793L1059 794L1062 795L1065 796L1068 797L1070.5 798L1072 798.5L1076 800L1080 801.5L1084 803L1086.5 804L1089 805L1091.5 806L1094 807L1096.5 808L1099 809L1101 810L1102 810.5V0Z" fill="#A8D0FF" fill-opacity="0.27"/>
</svg>
