<svg width="877" height="842" viewBox="0 0 877 842" fill="none" xmlns="http://www.w3.org/2000/svg">
<path d="M307.412 -150.092L562.861 -161.536C568.172 -165.235 578.696 -169.559 582.947 -169.75C592.408 -170.173 599.621 -158.784 609.98 -158.161C616.249 -157.784 619.432 -151.391 626.934 -151.606C636.704 -151.886 646.338 -150.647 656.113 -151.085C662.645 -151.377 668.065 -147.618 674.39 -146.723C683.583 -145.422 693.021 -144.599 702.272 -143.4C747.245 -137.576 792.341 -137.643 836.52 -126.355C855.028 -121.625 880.779 -111.916 891.355 -95.0845C897.612 -85.1258 896.164 -68.6206 895.694 -57.1841C894.678 -32.4393 887.818 -9.35442 881.021 14.3803C870.231 52.0561 925.655 83.8668 911.662 120.447C892.51 170.515 915.97 220.843 943.369 263.583C955.624 282.699 968.034 301.462 984.771 316.991C1007.27 337.863 1031.8 356.521 1053.84 377.897C1085.3 408.422 1023.04 438.194 1050.26 472.469C1072.96 501.046 1074.09 526.802 1070.53 561.973C1066.77 599.076 1059.11 631.742 1040.15 664.005C1014.07 708.404 961.216 734.818 918.637 761.08C864.163 794.679 804.665 809.326 741.131 810.174C705.59 810.649 671.657 802.577 636.719 796.973C596.439 790.511 556.252 783.632 516.793 773.088C490.348 766.022 470.287 743.936 455.658 721.377C432.168 685.156 439.118 640.834 433.25 599.868C426.904 555.575 420.191 508.71 400.622 467.947C379.963 424.912 347.153 376.183 305.291 351.331C250.832 319 189.307 301.211 134.608 269.276C109.829 254.81 83.2903 243.544 60.1496 226.289C39.2244 210.686 24.7654 185.764 17.4009 160.954C8.29018 130.261 14.3104 92.2064 24.5757 62.602C36.3899 28.5308 53.2465 -1.52043 76.1184 -29.5092C100.385 -59.2043 139.476 -77.0323 170.746 -98.6619C213.254 -128.064 255.147 -147.75 307.412 -150.092Z" fill="#00C1FF" fill-opacity="0.13"/>
</svg>
