<svg height="48" viewBox="0 0 128 128" width="48" xmlns="http://www.w3.org/2000/svg" xmlns:xlink="http://www.w3.org/1999/xlink"><path d="m121.208 89.346-31.861 31.861a11.771 11.771 0 0 1 -16.615 0l-65.939-65.94a11.769 11.769 0 0 1 0-16.613l31.86-31.862a11.773 11.773 0 0 1 16.615 0l2.59 2.591a1.75 1.75 0 1 1 -2.476 2.474l-2.59-2.59a8.265 8.265 0 0 0 -11.666 0l-31.858 31.86a8.264 8.264 0 0 0 0 11.665l65.939 65.94a8.268 8.268 0 0 0 11.667 0l31.858-31.858a8.265 8.265 0 0 0 0-11.666l-6.71-6.71a1.75 1.75 0 1 1 2.475-2.474l6.71 6.709a11.77 11.77 0 0 1 .001 16.613zm-16.985-28.646a1.749 1.749 0 1 0 2.474-2.474l-21.82-21.826a1.749 1.749 0 0 0 -2.477 2.477zm-29.623-29.623a1.75 1.75 0 1 0 2.477-2.477l-11.42-11.417a1.749 1.749 0 0 0 -2.474 2.474zm30.32 46.228-27.62 27.617a4.756 4.756 0 0 1 -6.717 0l-47.608-47.612a4.746 4.746 0 0 1 0-6.717l27.618-27.618a4.755 4.755 0 0 1 6.717 0l47.612 47.612a4.747 4.747 0 0 1 0 6.718zm-2.475-4.244-47.61-47.611a1.251 1.251 0 0 0 -1.768 0l-27.617 27.618a1.249 1.249 0 0 0 0 1.768l47.611 47.612a1.254 1.254 0 0 0 1.769 0l27.617-27.618a1.251 1.251 0 0 0 0-1.769zm-1.405 19.814a5.773 5.773 0 1 1 -8.164 0 5.781 5.781 0 0 1 8.164.001zm-2.475 2.475a2.273 2.273 0 1 0 0 3.215 2.277 2.277 0 0 0 0-3.215zm-57.332-72.229a1.75 1.75 0 0 0 -2.474-2.475l-18.114 18.113a1.75 1.75 0 1 0 2.475 2.474zm47.127 1.634c7.432 2.358 12.27 7.2 14.789 14.8a1.75 1.75 0 0 0 3.322-1.1c-2.856-8.622-8.594-14.355-17.053-17.039a1.75 1.75 0 1 0 -1.058 3.336zm2.784-11.875c12 3.809 19.814 11.624 23.88 23.894a1.75 1.75 0 1 0 3.322-1.1c-4.381-13.225-13.178-22.016-26.146-26.13a1.75 1.75 0 0 0 -1.058 3.336zm-53.1 91.75c-7.432-2.358-12.27-7.2-14.789-14.8a1.75 1.75 0 0 0 -3.322 1.1c2.856 8.622 8.594 14.355 17.053 17.039a1.712 1.712 0 0 0 .529.083 1.751 1.751 0 0 0 .529-3.419zm-2.783 11.875c-12-3.809-19.816-11.624-23.881-23.894a1.75 1.75 0 0 0 -3.322 1.1c4.381 13.225 13.177 22.016 26.144 26.13a1.75 1.75 0 0 0 1.059-3.336z" fill="#51a1ff"/></svg>