<svg height="48" viewBox="0 0 128 128" width="48" xmlns="http://www.w3.org/2000/svg"><path d="M121.2 89.35L89.36 121.2a11.77 11.77 0 01-16.62 0L6.8 55.27a11.77 11.77 0 010-16.62L38.65 6.8a11.77 11.77 0 0116.62 0l2.59 2.6a1.75 1.75 0 11-2.48 2.47l-2.59-2.6a8.27 8.27 0 00-11.66 0L9.27 41.14a8.26 8.26 0 000 11.66l65.94 65.94a8.27 8.27 0 0011.66 0l31.86-31.86a8.27 8.27 0 000-11.66l-6.7-6.71a1.75 1.75 0 112.47-2.48l6.7 6.71a11.77 11.77 0 010 16.62zM104.23 60.7a1.75 1.75 0 102.48-2.47L84.88 36.4a1.75 1.75 0 00-2.48 2.48zM74.6 31.08a1.75 1.75 0 102.48-2.48L65.66 17.18a1.75 1.75 0 00-2.48 2.48zm30.32 46.23L77.3 104.92a4.76 4.76 0 01-6.72 0l-47.6-47.61a4.75 4.75 0 010-6.72l27.61-27.61a4.75 4.75 0 016.72 0l47.61 47.6a4.75 4.75 0 010 6.73zm-2.48-4.25l-47.6-47.61a1.25 1.25 0 00-1.77 0L25.45 53.07a1.25 1.25 0 000 1.77l47.61 47.6a1.25 1.25 0 001.77 0l27.62-27.61a1.25 1.25 0 000-1.77zm-1.4 19.82a5.77 5.77 0 11-8.16 0 5.78 5.78 0 018.16 0zm-2.48 2.47a2.27 2.27 0 100 3.21 2.28 2.28 0 000-3.21zM41.23 23.12a1.75 1.75 0 00-2.47-2.47l-18.11 18.1a1.75 1.75 0 102.47 2.48zm47.13 1.63c7.43 2.36 12.27 7.2 14.79 14.8a1.75 1.75 0 003.32-1.1c-2.85-8.62-8.6-14.35-17.05-17.03a1.75 1.75 0 10-1.06 3.33zm2.78-11.87c12 3.8 19.82 11.62 23.88 23.9a1.75 1.75 0 103.33-1.1c-4.38-13.23-13.18-22.02-26.15-26.14a1.75 1.75 0 00-1.06 3.34zm-53.1 91.75c-7.43-2.36-12.27-7.2-14.78-14.8a1.75 1.75 0 00-3.33 1.1c2.86 8.62 8.6 14.35 17.06 17.04a1.71 1.71 0 00.53.08 1.75 1.75 0 00.52-3.42zm-2.78 11.88c-12-3.81-19.81-11.63-23.88-23.9a1.75 1.75 0 00-3.32 1.1c4.38 13.23 13.18 22.02 26.14 26.13a1.75 1.75 0 001.06-3.34z" fill="#51a1ff"/></svg>