<svg xmlns="http://www.w3.org/2000/svg" viewBox="0 0 557.35 507.61">
  <defs>
    <style>
      .cls-1{fill:#520000}.cls-2,.cls-6{fill:none}.cls-2{stroke:#520000;stroke-width:1.74px}.cls-3{fill:#ffc35f}.cls-4{fill:#fbb241}.cls-5{fill:#ffe1aa}.cls-10,.cls-7{fill:#560000}.cls-7{stroke:#560000;stroke-width:1.89px}.cls-8{fill:#da2a2a}.cls-9{fill:#bc2323}.cls-11{fill:#fbb}.cls-12,.cls-15{fill:#353e13}.cls-12{stroke:#353e13;stroke-width:1.69px}.cls-13{fill:#97a853}.cls-14{fill:#839147}.cls-16{fill:#e1e8c7}.cls-17{fill:#000a0a}.cls-18{fill:#dce3e8}.cls-19{fill:#5e8dad}.cls-20{fill:#6aa0c3}.cls-21,.cls-22,.cls-26,.cls-27,.cls-28,.cls-29,.cls-30,.cls-31,.cls-32,.cls-33,.cls-36{stroke:#000}.cls-21{stroke-width:.39px}.cls-22{stroke-width:.35px}.cls-23{fill:#cddde9}.cls-24{fill:#c3cfd8}.cls-25{fill:#d5dfe9}.cls-26{stroke-width:.37px}.cls-27{stroke-width:.48px}.cls-28{stroke-width:.43px}.cls-29{stroke-width:1.17px}.cls-30{stroke-width:.42px}.cls-31{stroke-width:.38px}.cls-32{stroke-width:.37px}.cls-33{stroke-width:.28px}.cls-34{fill:#84b3d1}.cls-35{fill:#355061}.cls-36{stroke-width:.35px}.cls-37{fill:#0e2f43}.cls-38{fill:#4b7591;stroke:#193341;stroke-width:.12px}.cls-39{fill:#21313d}.cls-40{fill:#253845}.cls-41{fill:#9fc8e3}
    </style>
  </defs>
  <g id="Слой_2" data-name="Слой 2">
    <g id="_1" data-name="1">
      <path class="cls-1" d="M243 75.08c19.59-13.31 36.79-24.16 48.85 18 9.22 32.24 42.36 120.58 57.8 169.25s15.85 87.41-4.8 88-17.1-5.59-84.12 11.44-100.61 39-125.56 61-43-.1-77.05-58c-37-62.94-54.9-141.35-56.86-168.64-2.47-34.4 6.87-56 44.46-39 13.72 6.2 64.78-14.23 102.88-27.54 40.4-14.1 68.86-37.16 94.4-54.51z"/>
      <path class="cls-2" d="M243 75.08c19.59-13.31 36.79-24.16 48.85 18 9.22 32.24 42.36 120.58 57.8 169.25s15.85 87.41-4.8 88-17.1-5.59-84.12 11.44-100.61 39-125.56 61-43-.1-77.05-58c-37-62.94-54.9-141.35-56.86-168.64-2.47-34.4 6.87-56 44.46-39 13.72 6.2 64.78-14.23 102.88-27.54 40.4-14.1 68.86-37.16 94.4-54.51z"/>
      <path class="cls-3" d="M242 78c19.25-13.08 36.15-23.74 48 17.69 9.06 31.69 41.62 118.49 56.8 166.32s15.58 85.89-4.72 86.49-16.8-5.49-82.66 11.23-98.87 38.34-123.39 60-42.22-.12-75.71-57C23.94 300.86 6.39 223.81 4.47 197 2 163.19 8.58 142.44 45.52 159.15c13.47 6.1 66.29-14.49 103.74-27.57C188.94 117.72 216.94 95.06 242 78z"/>
      <path class="cls-4" d="M342.1 348.51c-20.3.6-16.8-5.49-82.66 11.23s-98.87 38.34-123.39 60-42.22-.12-75.71-57C23.94 300.86 6.39 223.81 4.47 197 2 163.19 8.58 142.44 45.52 159.15c7.88 3.56 29.21-2 53-9.84-3.5 2.63-5.32 5.3-4.42 8.46 3 10.54 25 27.91-4.86 23.86S59 167.37 44.55 183.48s-18.19 27.88-8 61.67 9.64 29.14 26.2 72.85 13.76 56.1 37.81 69.14 31.18 14.88 57.27-4.94 19.41-42.68 49.77-43.33 56.65-10.17 86.79-8.18 57.56.14 51.34-22.49-14-57.65-13.79-84.62c0-1.69.07-3.46.18-5.26 5.59 16.1 10.74 31.23 14.7 43.7 15.18 47.82 15.58 85.89-4.72 86.49z"/>
      <path class="cls-1" d="M47.8 157.45c9.29 5.42 33 17.52 17 10.85s-28.62-13.38-28.62-13.38z"/>
      <path class="cls-5" d="M49.88 258.39a29.73 29.73 0 01-17.12-4.74 25 25 0 01-11.4-22.83 35.87 35.87 0 018.1-20.18c7.34-9.11 22-22.76 30.42-16.75s-5.22 7.54-5.22 7.54c-11.22.26-15.34 3.34-21.85 11.42a31.83 31.83 0 00-7.18 17.87 21.49 21.49 0 009.8 19.62 25.51 25.51 0 0014.7 4.07 23.09 23.09 0 0017.27-8.48 19.6 19.6 0 004.42-11 13.1 13.1 0 00-6-12 15.35 15.35 0 00-9-2.48 13.83 13.83 0 00-10.39 5.1 11.74 11.74 0 00-2.67 6.64 7.78 7.78 0 003.54 7.09 9.16 9.16 0 005.32 1.46 8 8 0 006-2.94 6.85 6.85 0 001.58-3.8 4.34 4.34 0 00-2-4 5.18 5.18 0 00-3-.82c-6.49 1.79.21 8.32-5.71 8.88a5.67 5.67 0 01-2.49-5.17 7.8 7.8 0 011.74-4.35 9.15 9.15 0 016.81-3.34 9.32 9.32 0 015.37 1.5 7.88 7.88 0 013.58 7.17A11 11 0 0162 240a12.86 12.86 0 01-9.61 4.72 13.43 13.43 0 01-7.72-2.14 11.33 11.33 0 01-5.15-10.3 16 16 0 013.6-8.95 18.71 18.71 0 0114-6.88 19.82 19.82 0 0111.39 3.15 16.72 16.72 0 017.58 15.2 23.69 23.69 0 01-5.36 13.33 27.87 27.87 0 01-20.85 10.26zM268.53 143.63a33.55 33.55 0 01-14 12.08c-8.82 4.1-19.25 4.43-27.95 0A31.58 31.58 0 01212 140.92c-4.53-9.71-9.3-27.25 1.08-31.68s4.23 7.34 4.23 7.34c-6 9.28-5.37 13.89-1.36 22.5a27.46 27.46 0 0037 13.09 28.72 28.72 0 0012-10.37 18.06 18.06 0 001.58-17.56 17.26 17.26 0 00-8-8.1 16.89 16.89 0 00-14.67 0 17.44 17.44 0 00-7.34 6.33 10.89 10.89 0 00-1 10.58 10.33 10.33 0 004.8 4.87 10 10 0 008.68 0 10.36 10.36 0 004.35-3.75 6.28 6.28 0 00.55-6.11 6 6 0 00-2.77-2.81 5.54 5.54 0 00-4.85 0 5.72 5.72 0 00-2.42 2.08c-1.92 6 8 3.21 5.22 8.28a7.32 7.32 0 01-6.33 0 6.83 6.83 0 01-3.14-3.19 7.15 7.15 0 01.62-6.92 10.52 10.52 0 014.4-3.79 10.16 10.16 0 018.78 0 9.57 9.57 0 014.44 4.52A10 10 0 01257 136a15 15 0 01-6.32 5.45 14.56 14.56 0 01-12.61 0 14 14 0 01-6.47-6.57 14.69 14.69 0 011.28-14.25 22.22 22.22 0 019.32-8 21.44 21.44 0 0118.6 0 20.77 20.77 0 019.64 9.79c2.99 6.4 2.56 14.3-1.91 21.21zM153.81 396.71a33.53 33.53 0 01-14 12.08c-8.82 4.1-19.26 4.44-28 0A31.5 31.5 0 0197.25 394c-4.53-9.72-9.29-27.25 1.08-31.69s4.23 7.35 4.23 7.35c-6 9.28-5.37 13.88-1.35 22.5a28 28 0 0012.92 13.13c7.48 3.78 16.43 3.49 24-.05a28.65 28.65 0 0012-10.36 18.08 18.08 0 001.57-17.56 17.17 17.17 0 00-8-8.1 16.86 16.86 0 00-14.66 0 17.53 17.53 0 00-7.35 6.33 10.89 10.89 0 00-1 10.58 10.31 10.31 0 004.8 4.88 10 10 0 008.68 0 10.44 10.44 0 004.35-3.76 6.29 6.29 0 00.54-6.1 5.89 5.89 0 00-2.77-2.81 5.55 5.55 0 00-4.84 0 5.78 5.78 0 00-2.43 2.09c-1.92 6 8 3.21 5.22 8.28a7.35 7.35 0 01-6.33 0 6.89 6.89 0 01-3.14-3.2 7.13 7.13 0 01.63-6.92 10.46 10.46 0 014.4-3.79 10.12 10.12 0 018.78 0 9.64 9.64 0 014.44 4.51 10.06 10.06 0 01-.88 9.78 15.18 15.18 0 01-6.32 5.45 14.56 14.56 0 01-12.61 0 14 14 0 01-6.48-6.57 14.7 14.7 0 011.29-14.25 22.23 22.23 0 019.32-8 21.47 21.47 0 0118.6 0 20.87 20.87 0 019.64 9.8c3.13 6.38 2.69 14.28-1.77 21.19zM165.39 272.61a29.66 29.66 0 01-16.1-9.64 27.8 27.8 0 01-4.65-27.58 42.5 42.5 0 0114.54-19.53c10.35-7.83 29.6-18.59 36.38-9.88s-7.7 6.71-7.7 6.71c-11.59-2.71-16.74-.5-25.93 6.44a37.58 37.58 0 00-12.87 17.29 23.85 23.85 0 004 23.7 25.47 25.47 0 0013.83 8.29 24.67 24.67 0 0020.32-4.52 23 23 0 007.94-10.66 14.54 14.54 0 00-2.43-14.46 15.48 15.48 0 00-8.45-5.06 14.86 14.86 0 00-12.27 2.71 14 14 0 00-4.78 6.42 8.59 8.59 0 001.44 8.56 9.23 9.23 0 005 3 8.6 8.6 0 007.07-1.57 8.05 8.05 0 002.76-3.71 4.81 4.81 0 00-.81-4.78 5.09 5.09 0 00-2.78-1.67c-7.2.19-2.35 9-8.6 8a6.28 6.28 0 01-1-6.24 9.26 9.26 0 013.13-4.21 9.75 9.75 0 018-1.77 9.35 9.35 0 015.05 3 8.71 8.71 0 011.46 8.66 12.92 12.92 0 01-4.42 6 13.77 13.77 0 01-11.32 2.51 13.4 13.4 0 01-7.26-4.36 12.52 12.52 0 01-2.09-12.44 18.85 18.85 0 016.44-8.66 20 20 0 0116.48-3.65 19.68 19.68 0 0110.71 6.42 18.46 18.46 0 013.1 18.35 28 28 0 01-9.6 12.89 29.86 29.86 0 01-24.59 5.44z"/>
      <path class="cls-6" d="M42.72 346.85a23.81 23.81 0 01-4-23.69c.21-.61.47-1.21.72-1.81C44.39 332.71 49.89 344 56 355a25.38 25.38 0 01-13.28-8.15z"/>
      <path class="cls-3" d="M312.83 168a6 6 0 00-.53 5.83 5.78 5.78 0 005.35 3.29c.22.66.46 1.31.69 2a8.14 8.14 0 01-5.43-.62 8.78 8.78 0 01-4.05-4.12 9.15 9.15 0 01.8-8.91 14.58 14.58 0 012.76-3.14c.5 1.45 1 2.89 1.53 4.34a8.62 8.62 0 00-1.12 1.33z"/>
      <path class="cls-5" d="M301.29 193.46A26.64 26.64 0 01289 181c-3.81-8.19-7.83-23 .91-26.71s3.57 6.19 3.57 6.19c-5 7.82-4.53 11.7-1.14 19a23.52 23.52 0 0010.89 11.07 23.25 23.25 0 0019.28.36c.36 1 .72 2.06 1.09 3.09a27 27 0 01-22.31-.54zM312.3 173.82a6 6 0 01.53-5.83 8.62 8.62 0 011.12-1.36q1.83 5.2 3.7 10.48a5.78 5.78 0 01-5.35-3.29z"/>
      <path class="cls-5" d="M309.66 165.43a9.15 9.15 0 00-.8 8.91 8.78 8.78 0 004.05 4.12 8.14 8.14 0 005.43.62c.36 1 .73 2.07 1.1 3.11a12 12 0 01-8.46-.75 11.78 11.78 0 01-5.45-5.54 12.34 12.34 0 011.08-12 18.33 18.33 0 014.65-4.88c.38 1.09.77 2.18 1.16 3.28a14.58 14.58 0 00-2.76 3.13zM56.54 355.15a24.69 24.69 0 0020.33-4.52A23.14 23.14 0 0084.81 340a14.54 14.54 0 00-2.44-14.47 15.54 15.54 0 00-8.44-5.06 14.88 14.88 0 00-12.25 2.72 14 14 0 00-4.78 6.42 8.62 8.62 0 001.45 8.56 9.13 9.13 0 005 3 8.62 8.62 0 007.06-1.57 8.13 8.13 0 002.77-3.71 4.85 4.85 0 00-.81-4.79 5.1 5.1 0 00-2.79-1.66c-7.2.18-2.35 9-8.59 8a6.31 6.31 0 01-1.06-6.24 9.15 9.15 0 013.14-4.2 9.73 9.73 0 018-1.77 9.32 9.32 0 015.06 3 8.73 8.73 0 011.46 8.66 13 13 0 01-4.42 5.94 13.78 13.78 0 01-11.32 2.51 13.45 13.45 0 01-7.27-4.34 12.54 12.54 0 01-2.09-12.44 18.83 18.83 0 016.45-8.66 20 20 0 0116.48-3.65 19.61 19.61 0 0110.71 6.41A18.47 18.47 0 0189.22 341a28 28 0 01-9.6 12.9 30.19 30.19 0 01-20.87 6c-.94-1.64-1.88-3.29-2.8-4.95zM48.85 302.6c10.34-7.83 29.6-18.59 36.37-9.88s-7.69 6.71-7.69 6.71c-11.59-2.71-16.75-.51-25.93 6.44a37.72 37.72 0 00-12.15 15.48c-.79-1.8-1.55-3.6-2.31-5.4a43.24 43.24 0 0111.71-13.35zM273.79 222.65a28.25 28.25 0 0116.38 3.14A23.38 23.38 0 01302.7 246a32.48 32.48 0 01-5.9 19.17c-6.11 8.91-18.67 22.53-27 17.59s4.27-7.32 4.27-7.32c10.46-1 14-4.16 19.46-12.07a28.88 28.88 0 005.22-17A20.11 20.11 0 00287.94 229a24.25 24.25 0 00-14.06-2.69 21.36 21.36 0 00-15.42 9 17.71 17.71 0 00-3.22 10.47 12.24 12.24 0 006.57 10.6 14.74 14.74 0 008.59 1.64 12.82 12.82 0 009.29-5.44 10.68 10.68 0 001.94-6.31 7.24 7.24 0 00-3.89-6.27 8.75 8.75 0 00-5.09-1 7.45 7.45 0 00-5.36 3.14 6.17 6.17 0 00-1.12 3.64 4.07 4.07 0 002.17 3.51 4.88 4.88 0 002.84.54c5.91-2.11-.88-7.64 4.6-8.58a5.3 5.3 0 012.84 4.57 7.09 7.09 0 01-1.28 4.14 8.47 8.47 0 01-6.07 3.56 9 9 0 01-5.14-1 7.38 7.38 0 01-3.95-6.35 9.88 9.88 0 011.8-5.83 11.89 11.89 0 018.59-5 12.76 12.76 0 017.39 1.41 10.55 10.55 0 015.65 9.12 14.37 14.37 0 01-2.61 8.49 17.33 17.33 0 01-12.51 7.34 18.83 18.83 0 01-10.9-2.09 15.58 15.58 0 01-8.34-13.44 21.5 21.5 0 013.9-12.67 25.85 25.85 0 0118.64-10.85zM232.42 352.68A31.78 31.78 0 01218 362.3c-8.59 2.79-18.14 1.88-25.48-3.24a28.75 28.75 0 01-11.29-15.54c-2.81-9.59-4.78-26.5 5.29-29.42s2.85 7.34 2.85 7.34c-6.72 7.95-6.78 12.32-4.29 20.83a25.42 25.42 0 0010 13.76c6.31 4.41 14.5 5.18 21.9 2.78a27.1 27.1 0 0012.37-8.27 17.45 17.45 0 003.82-16.19 15.63 15.63 0 00-6.17-8.49 15.16 15.16 0 00-13.37-1.69 16.47 16.47 0 00-7.54 5 10.55 10.55 0 00-2.29 9.83 9.44 9.44 0 003.72 5.11 9 9 0 007.91 1 9.76 9.76 0 004.47-3 6.09 6.09 0 001.33-5.63 5.52 5.52 0 00-2.15-2.95 5 5 0 00-4.42-.55 5.36 5.36 0 00-2.49 1.66c-2.57 5.39 6.85 3.92 3.64 8.32a6.53 6.53 0 01-5.77-.73 6.22 6.22 0 01-2.44-3.34 7 7 0 011.51-6.39 10 10 0 014.53-3 9.07 9.07 0 018 1 8.74 8.74 0 013.43 4.73 9.75 9.75 0 01-2.13 9 14.36 14.36 0 01-6.5 4.34 13.05 13.05 0 01-11.44-1.46 12.77 12.77 0 01-5-6.89 14.19 14.19 0 013.1-13.14 21 21 0 019.58-6.4 19.26 19.26 0 0117 2.15 19 19 0 017.46 10.27c1.77 6.33.29 13.65-4.72 19.58z"/>
      <path class="cls-6" d="M318.77 352.77a24.72 24.72 0 01-20.33 4.51 26.49 26.49 0 01-9.77-4.49c18.88-4.07 28.08-4.93 34.93-4.88a23.92 23.92 0 01-4.83 4.86z"/>
      <path class="cls-5" d="M326.71 342.1a14.57 14.57 0 00-2.44-14.46 15.53 15.53 0 00-8.44-5.07 14.89 14.89 0 00-12.25 2.73 14 14 0 00-4.78 6.42 8.62 8.62 0 001.45 8.56 9.2 9.2 0 005 3 8.56 8.56 0 007.07-1.58 8 8 0 002.76-3.71 4.76 4.76 0 00-.81-4.77 5.07 5.07 0 00-2.78-1.68c-7.2.19-2.35 9-8.59 8a6.29 6.29 0 01-1.05-6.24 9.07 9.07 0 013.13-4.21 9.78 9.78 0 018-1.78 9.36 9.36 0 015 3 8.71 8.71 0 011.46 8.66 12.91 12.91 0 01-4.43 5.94 13.75 13.75 0 01-11.31 2.51 13.34 13.34 0 01-7.26-4.36 12.5 12.5 0 01-2.1-12.43 18.81 18.81 0 016.44-8.66 20 20 0 0116.49-3.66 19.68 19.68 0 0110.73 6.48 18.52 18.52 0 013.1 18.35 26.68 26.68 0 01-2.39 5c-1.64-.1-3.32-.17-5.14-.19a22.23 22.23 0 003.14-5.85z"/>
      <path class="cls-5" d="M276.2 324.27a42.52 42.52 0 0114.55-19.53c10.34-7.84 29.59-18.59 36.37-9.89s-7.69 6.71-7.69 6.71c-11.59-2.71-16.75-.5-25.93 6.44a37.57 37.57 0 00-12.88 17.3 23.67 23.67 0 008.05 27.49c-1.8.39-3.71.82-5.69 1.27a26.05 26.05 0 01-2.12-2.22 27.79 27.79 0 01-4.66-27.57zM158.49 169.28a21.93 21.93 0 01-4.1 12.85 26.31 26.31 0 01-19.06 11 28.73 28.73 0 01-16.67-3.35c-7.49-4.16-18.68-13-13.6-19.78s6.21 2.83 6.21 2.83c.1 8 2.61 10.58 9.25 14.28a25.58 25.58 0 0014.76 3 22.61 22.61 0 0016.39-9.41 18.88 18.88 0 003.52-11 13 13 0 00-6.86-11.35 15.75 15.75 0 00-9.12-1.83 13.79 13.79 0 00-10 5.74 11.51 11.51 0 00-2.15 6.75 7.84 7.84 0 004.13 6.83 9.51 9.51 0 005.49 1.1 8.16 8.16 0 005.92-3.4 6.84 6.84 0 001.27-4 4.53 4.53 0 00-2.39-3.94 5.47 5.47 0 00-3.17-.64 4.53 4.53 0 00-3.3 1.9 3.65 3.65 0 00-.71 2.22c1.41 4.44 6.9-1.16 7.31 3a6 6 0 01-4.32 2.48 6.19 6.19 0 01-3.59-.73 5.15 5.15 0 01-2.71-4.47 7 7 0 011.29-4 8.32 8.32 0 016-3.45 8.88 8.88 0 015.07 1 7.29 7.29 0 013.82 6.32 9.83 9.83 0 01-1.85 5.79 11.86 11.86 0 01-8.6 4.94 12.81 12.81 0 01-7.39-1.48 10.56 10.56 0 01-5.57-9.21 14.64 14.64 0 012.72-8.55 17.54 17.54 0 0112.69-7.29 19.14 19.14 0 0111 2.22 15.76 15.76 0 018.32 13.63z"/>
      <path class="cls-7" d="M486.11 376.7c21.55-27.51 47.1-61.36 60.92-70.16 24.6-15.66-1.69-54.69-49.94-101.15-20.91-20.12-96-72.06-124.69-93s-35.4-17.7-76.81 29.45-68 80.53-88.76 109.56c-23.27 32.58-79.53 9.41.12 91S381 498.64 406.56 506c18 5.16 31.34-19 38-48.29 5.77-25.38 24.44-59.16 41.55-81.01z"/>
      <path class="cls-8" d="M484.66 375.81c21.28-27.16 45.65-62.32 59.34-70.95 23.12-14.57-.86-52.32-48.5-98.18-20.64-19.88-94.83-71.15-123.11-91.87s-35-17.43-75.83 29.13-69.28 82.68-89.75 111.34c-23 32.17-73.34 8.07 5.3 88.6s168.77 152.32 194 159.55c17.79 5.1 30.94-18.73 37.52-47.68 5.7-25.01 24.13-58.36 41.03-79.94z"/>
      <path class="cls-9" d="M544 304.86c-13.69 8.63-38.06 43.79-59.34 70.95-16.9 21.58-35.33 54.93-41 79.94-6.58 28.95-19.73 52.78-37.52 47.68-25.24-7.23-115.37-79-194-159.55s-28.27-56.43-5.3-88.6c16.43-23 38-50.82 67-85-6.99 10.72-13.1 20.28-17.99 27.72-13.63 20.79-32.58 35.08-19.34 36.27s39.16 2.44 4.13 19.75-50.08 40.9-39.47 61 84.14 83.56 120.07 115 73.53 63.49 93.37 41 27.88-24.67 36.38-61.55 44-61.8 57.3-77.51-4.71-15.25 11.39-23.9 16.94-4.15 29.12-16.49c1.18-1.21 2.56-2.49 4.05-3.78.3 7.27-2.48 13.06-8.85 17.07z"/>
      <path class="cls-10" d="M186.72 271.53c17.52-8.65 51.7-35.93 34.23-24.64-10.4 6.72-13.37 9.59-22.13 14.62z"/>
      <path class="cls-11" d="M509.48 268c4.4-14.85 1.9-28.66-11.46-24.44s-27.86 8-26.55 16.28c1.74 11.04 33.61 23.02 38.01 8.16zM486.53 205.68c-14-12.14-29.16-15.25-28.95 3.23s-.41 38.16 8.61 40.27c11.98 2.82 34.37-31.36 20.34-43.5zM421.62 270.47c2.34 14.45 10.14 25.14 19.77 16s20.42-18.39 15.9-24.89c-6-8.66-38.02-5.58-35.67 8.89zM469.08 302.7c14.64-.07 26.41-6.11 18.87-17s-15-23-22.11-19.59c-9.46 4.54-11.39 36.66 3.24 36.59zM431.27 248.83c9.19 4.17 26 6.16 25.73-.83s-7.23-18.73-13.22-25.16c-10.1-10.84-18.1-.65-21.61 4.35-5.12 7.28-.09 17.46 9.1 21.64zM390 138.22c-.47-3 1.52-5.32 4.82-7.25 7.71 5.5 16.23 11.58 25 17.87-7.66 6.35-28.5-2.45-29.82-10.62zM385.55 129.15c-3.25-.76-5-4.22-6-9.14l11.31 8.12a7.77 7.77 0 01-5.31 1.02zM378 139.66c3.84 5.52-5.32 13.35-13.49 21.11s-14.78-1.3-16.77-13.55 25.18-14.89 30.26-7.56zM385.25 143.48c6.05-2.93 12.37 7.34 18.76 16.62s-3.59 14.39-16 14.45-10.78-27.18-2.76-31.07zM377.76 128.15c.24 5.93-14 4.24-21.83.7s-12.06-12.18-7.72-18.35a22.59 22.59 0 016.23-6.4c5.22 1.88 10.92 5.55 17.95 10.71l.21.15c2.82 4.62 5.01 9.63 5.16 13.19zM288.45 352.15c-4.44 14.84-36.28 2.78-38-8.24-1.29-8.31 13.22-12 26.59-16.23s15.85 9.63 11.41 24.47zM265.64 289.76c14 12.17-8.46 46.28-20.44 43.45-9-2.13-8.35-21.81-8.52-40.29s14.95-15.33 28.96-3.16zM236.28 345.57c3 4.37-.86 10-6.65 15.92q-8.82-8.72-17.52-17.61l-1.37-1.42c9.26-3.03 21.99-2.02 25.54 3.11zM244.82 350.1c7.13-3.43 14.55 8.69 22.06 19.64 6.22 9.06-.77 14.72-11.64 16.44q-8.94-8.42-17.88-17.11c.1-8.27 2.92-16.78 7.46-18.97zM222.86 306.82c6 6.44 12.89 18.2 13.16 25.19s-16.56 5-25.73.77-14.2-14.39-9.06-21.66c3.52-4.99 11.54-15.12 21.63-4.3zM304.52 176c-12.5-4.05-24.27-2.22-21 9.2s6.22 23.8 13.28 22.8c9.39-1.22 20.2-28 7.72-32zM257.56 194.37c-10.59 11.64-13 25.17 2.69 25.38s27.06.69 28.24-9.73c.77-6.87-20.34-27.3-30.93-15.65zM304.75 250.52c12.3-1.69 21.54-8.07 14-16.43s-15.16-17.71-20.77-14c-7.48 4.91-5.52 32.12 6.77 30.43zM333.08 211c.25-12.42-4.62-22.53-14.06-16.36s-19.84 12.17-17.02 18.29c3.64 8.12 30.83 10.43 31.08-1.93zM286.6 241.88c3.74-7.71 5.78-21.93-.16-21.84s-16 5.74-21.6 10.68c-9.42 8.35-.94 15.34 3.22 18.42 6.07 4.49 14.81.44 18.54-7.26zM397.66 372.5c11.92-5.53 19.29-14.89 9.1-21s-20.76-13.23-25.26-7.73c-6.03 7.29 4.25 34.28 16.16 28.73zM419.54 327.06c-.16-15.74-7.62-27.27-19.24-16.76s-20.3 17.9-14.06 26.34c4.1 5.57 33.47 6.16 33.3-9.58zM346.75 318c-7.86 9.61-10.28 20.57.95 21.55s23.16 2.65 24.75-3.88c2.13-8.67-17.83-27.24-25.7-17.67zM352.93 366.31c8.27 9.26 18.72 13.36 21.43 2.42s6.23-22.46 0-25.06c-8.2-3.44-29.69 13.38-21.43 22.64zM365.94 312c2.5 8.19 10.69 20 15 15.89s7.85-15.11 8.56-22.53c1.22-12.52-9.75-11.88-14.9-11.31-7.53.86-11.18 9.78-8.66 17.95zM492.68 333.12c4.86-5.94 14.34-1.08 20.38 5.54-4.15 5.35-8.41 11-12.68 16.61-2.22-.18-4.5-.4-6.76-.6-11.23-.98-8.81-11.94-.94-21.55zM511.86 327.1c-2.51-8.18 1.14-17.1 8.64-17.94 3.85-.43 11-.89 13.78 4.14-5.57 5.75-11.93 13.47-18.64 22a38.26 38.26 0 01-3.78-8.2zM434.15 433.1c-7.17-11-17.47-17-22.09-6s-10.15 22.39-4.07 26.1c8.07 4.91 33.33-9.1 26.16-20.1zM381.26 413.67c-15.56 2.39-25.88 10.45-13.83 20.47s24.43 21.24 30.75 16.57c8.4-6.2-1.36-39.44-16.92-37.04zM387.44 491.22c10.62 6.42 21.81 7.26 21.2-4s-.66-23.31-7.35-24c-8.88-.82-24.47 21.57-13.85 28zM434.35 478.26c8-9.49 10.57-20.42-.64-21.56s-23.12-3-24.81 3.52c-2.24 8.64 17.45 27.53 25.45 18.04zM378.76 473.08c7.75-3.64 18.28-13.42 13.61-17.08s-16.08-5.62-23.52-5.28c-12.56.57-10.37 11.33-9.08 16.35 1.9 7.31 11.23 9.65 18.99 6.01z"/>
      <path class="cls-12" d="M476.07 174.44c-1.48-31.22-3.95-69.07.27-83 7.51-24.75-33.11-36.86-92.95-41.68-25.93-2.09-107.18 4.51-138.86 6.2s-34.32 7.84-34.79 63.86 1 94.18 3.9 126c3.28 35.69-48.38 51.5 53.25 62.83s209.25 9.58 230.84.18c15.22-6.63 10.14-30.85-2.48-54.9-10.9-20.77-18-54.69-19.18-79.49z"/>
      <path class="cls-13" d="M474.57 174.65c-1.46-30.82-5.5-68.92-1.27-82.63 7.15-23.16-31.16-35.69-90.24-40.45C357.46 49.5 277.24 56 246 57.69s-33.88 7.74-34.35 63.05 1.39 96.37 4.27 127.77c3.24 35.24-45 47.07 55.37 58.26s203.37 9.84 224.69.56c15-6.54 10-30.46-2.45-54.2-10.79-20.51-17.8-54-18.96-78.48z"/>
      <path class="cls-14" d="M473.3 92c-4.23 13.71-.19 51.81 1.27 82.63 1.16 24.48 8.17 58 18.93 78.48 12.5 23.76 17.5 47.68 2.5 54.22-21.32 9.28-124.35 10.63-224.69-.56s-52.13-23-55.37-58.26c-2.31-25.2-4-56.64-4.29-96.65 1.53 11.28 3 21.39 4.05 29.31 2.92 22.09-1.58 42.69 8.09 36s28-20.47 14.34 11.32-10 56.62 8.89 64.49 105.85 10.16 148.57 11.59 86.92 2.3 87.24-24.45 4.48-32.83-11.33-63.14-6.31-67.61-6.47-86-12.11-7.87-6.26-23 9-12.45 10.09-27.87c.1-1.51.28-3.17.54-4.91 4.37 4.86 5.87 10.43 3.9 16.8z"/>
      <path class="cls-15" d="M211.78 271.11c6.81-15.89 14-54.09 8.79-36.4-3.12 10.52-3.46 14.19-6.45 22.63z"/>
      <path class="cls-16" d="M428.38 86.07c-5.69-12.76-15.46-20.9-22-10.42s-14.21 21.29-8.47 26.28c7.58 6.65 36.17-3.1 30.47-15.86zM376.4 56c-16.6-.46-28.66 5.95-17.72 18.6s22 26.62 29.37 23C397.8 92.69 393 56.41 376.4 56zM370.3 137.48c10 8.66 21.56 11.64 22.73-.13s3.09-24.27-3.77-26.22c-9.12-2.57-29 17.69-18.96 26.35zM421.29 132.91c9.88-8.33 14.32-19.16 2.82-22.46s-23.61-7.46-26.43-1c-3.68 8.49 13.74 31.78 23.61 23.46zM364.18 117.05c8.67-2.31 21.23-10.46 16.95-15.13s-15.84-8.86-23.65-9.92c-13.19-1.79-12.65 9.78-12.11 15.23.79 7.93 10.15 12.13 18.81 9.82zM271.59 63.9c-2.07-1.82-2.07-4.53-1-7.74 8.44-.55 17.76-1.18 27.39-1.79-1.47 8.75-20.73 14.45-26.39 9.53zM263.27 60.17c-2.65 1.31-5.87-.09-9.41-2.93l12.41-.79a6.72 6.72 0 01-3 3.72zM264.29 71.7c5.82 1.65 4.2 12.25 3.2 22.23s-10.77 7.46-19.28.12 8.35-24.54 16.08-22.35zM271.44 70.24c2.38-5.44 12.66-1.92 22.42.88s6 12-2.4 19-23.19-12.65-20.02-19.88zM257.4 63.89c3.63 4-7 10.87-14.37 12.83s-15.3-1.6-16-8.33a20.19 20.19 0 01.49-7.94c4.63-1.65 10.64-2.34 18.42-2.76h.23c4.64 1.59 9.05 3.82 11.23 6.2zM327.82 269.3c5.66 12.77-22.95 22.45-30.56 15.79-5.73-5 1.93-15.79 8.53-26.26s16.36-2.3 22.03 10.47zM275.9 239.07c16.6.49 21.31 36.78 11.55 41.6-7.36 3.63-18.41-10.36-29.32-23s1.16-19.1 17.77-18.6zM288.63 294.27c4.6 1.31 5.23 7.37 4.79 14.77q-11.06-1-22.16-2.27l-1.76-.2c4.5-7.35 13.72-13.84 19.13-12.3zM297.06 292.57c2.83-6.41 14.93-2.23 26.43 1.09 9.5 2.75 8.07 10.62 1.71 18q-11-.76-22.11-1.72c-4.76-5.81-7.83-13.29-6.03-17.37zM256.89 275.07c7.81 1.07 19.37 5.29 23.63 10s-8.31 12.8-17 15.09-18-1.93-18.79-9.85c-.51-5.48-1.03-17.05 12.16-15.24zM235.73 138.38c-10.84 4.28-17.74 12.2-8.83 18.23s18.1 12.95 22.34 8.31c5.62-6.17-2.68-30.81-13.51-26.54zM214.67 177.68c-.37 14 5.92 24.74 16.66 16s18.74-14.82 13.44-22.7c-3.49-5.17-29.77-7.35-30.1 6.7zM279.46 189.8c7.35-8.12 9.87-17.76-.14-19.26s-20.62-3.66-22.26 2.06c-2.18 7.61 15.05 25.33 22.4 17.2zM275.52 146.41c-7.08-8.72-16.29-13-19.08-3.36s-6.31 19.68-.85 22.35c7.25 3.52 27.02-10.27 19.93-18.99zM262.11 194.09c-2-7.44-8.9-18.42-12.87-15s-7.51 13-8.39 19.61c-1.5 11.09 8.33 11.13 13 10.91 6.69-.33 10.24-8.08 8.26-15.52zM413.7 221.59c4.83-10.58 4.36-21.22-6.11-19.68s-21.77 2.58-21.63 9c.17 8.4 22.91 21.24 27.74 10.68zM402 177.78c-9.31-10.79-21.1-14.54-22.83-.7s-3.29 23.86 5.87 26.17c5.96 1.53 26.24-14.68 16.96-25.47zM347.38 212.73c.29 11.09 5.05 20 13.23 14.36s17.24-11.27 14.51-16.69c-3.63-7.19-28.03-8.76-27.74 2.33zM379.78 242.61c11 1.73 20.48-1.35 15.93-10.45s-8.91-19.06-14.63-17.34c-7.58 2.27-12.31 26.06-1.3 27.79zM356.86 197.71c6.48 4.24 18.92 7.78 19.43 2.51s-3.52-14.89-7.37-20.42c-6.49-9.34-13.55-2.69-16.7.62-4.59 4.82-1.85 13.05 4.64 17.29zM455.05 140.6c-.18-6.86 9.09-8.87 17-7.71.32 6.05.72 12.35 1.13 18.66-1.61 1.13-3.29 2.27-4.93 3.41-8.14 5.68-12.91-3.27-13.2-14.36zM464.53 125.58c-6.49-4.24-9.23-12.47-4.64-17.29 2.36-2.48 6.9-6.82 11.76-4.94-.41 7.13-.21 16.06.25 25.79a36 36 0 01-7.37-3.56zM473.83 242.84c-11.29-3.55-21.76-1.86-18.49 8.33s6.21 21.22 12.5 20.35c8.36-1.16 17.28-25.13 5.99-28.68zM426.64 259.33c-9.14 10.46-11.42 21.87 2.6 22s29 .87 30.52-5.94c2.06-9.06-23.97-26.52-33.12-16.06zM476.16 309.45c10.95-1.57 19-7.32 12-14.75s-14.07-15.74-19-12.41c-6.48 4.42-3.96 28.71 7 27.16zM500.37 274c-.13-11.09-4.77-20.1-13-14.54s-17.41 11-14.75 16.47c3.49 7.18 27.88 9.07 27.75-1.93zM459.68 301.83c3.12-6.91 4.54-19.63-.76-19.51s-14.18 5.2-19 9.65c-8.18 7.5-.4 13.71 3.41 16.44 5.52 3.98 13.23.31 16.35-6.58z"/>
      <path class="cls-17" d="M138.37 465.05c-3.47.9-6.24 5.64-6.78 11.49s2.4 10.29 2.14 14.14-2.39 6.29-1.32 6.08c4-.81 6.76-2 10.89-6.18 4.37-4.41 3.27-7.87 3.17-11s5.4-9.1 6.85-11.85-2.95-3.62-5.89-4-7.05.8-9.06 1.32z"/>
      <path class="cls-18" d="M138.45 466.12c-3.2.83-5.75 5.19-6.26 10.59s2.75 9.93 2.51 13.48-2.18 5.57-1.19 5.37c3.72-.75 5.68-2.06 9.49-5.91 4-4.06 3-7.25 2.92-10.11s5-8.38 6.32-10.92-2.72-3.34-5.44-3.7-6.5.72-8.35 1.2z"/>
      <path class="cls-17" d="M191.4 428.79c-5 1.65-11 9-15.25 16.06s-11 16-16.38 21.14-11.64 9.07-12.77 12-3.27-1.38.52-5-.18-5-5.69-5.34c-3.11-.17-7.86-1-3.8-2.84 6.22-2.79 12.05 0 19.06-4.59 4.22-2.76 7.93-7 8-15s-3-12.51-3-12.51z"/>
      <path class="cls-19" d="M188.07 428.12c-4.68 1.71-7.73 7.94-11.86 14.75s-10.91 16.51-16.1 21.49-11.15 9.23-13.06 12c-1.7 2.51-2.11-.37 1.52-3.91s-.83-5.75-5.93-5.85c-2.86-.06-6.68.29-2.88-1.56 5.85-2.82 11.13.28 17.76-4.27 4-2.75 8.15-6 8.68-15.94.41-7.57-2.39-11.71-2.39-11.71z"/>
      <path class="cls-20" d="M167.31 443.69a17.18 17.18 0 01-.12 6.37 14.53 14.53 0 01-2.43 6.47c-1.61 2.43-4 5.89-7.14 6.57a13.74 13.74 0 01-4.91-.09 14.8 14.8 0 004.81-2.2c4-2.75 8.15-6 8.68-15.94a25.05 25.05 0 000-3c.58.13.94.61 1.11 1.82z"/>
      <path class="cls-21" d="M102.25 447.15c6.81 4.2 13.27 4 24.93.17 10.7-3.53 28-9.83 43-23.54 6.65-6.07 1.87-28.29.54-35-2-10.18-12.92-14.29-19.33-15.06-10.67-1.27-8.25-11.47-17.64-16.34-15.07-7.81-32 1.47-41.77 7-14.88 8.42-18.59 15.48-19.6 19.54s1.64 23 10.83 39.61 14.6 20.89 19.04 23.62z"/>
      <path class="cls-19" d="M100.84 445.23c6.8 4.19 13.69 5.45 27.42.42 10.78-3.94 28.12-10.7 42-24 6.49-6.22 4.91-30.5 3.58-37.27-2-10.18-15.24-12.49-21.59-12.15-12.36.66-9.68-8.5-19.09-13.37-15.07-7.81-31.44 1.14-41.22 6.68-14.85 8.46-16.64 12.62-17.65 16.68s-.24 24.66 8.95 41.27 13.15 19 17.6 21.74z"/>
      <path class="cls-22" d="M74.51 380.19C80.88 370.3 97.57 359.11 106 362c3.63 1.24-1.48 9.61-6.71 13.68-7.49 5.83-10.43 7.77-10.43 7.77z"/>
      <path class="cls-23" d="M76.47 379.67c6-9.33 21-18.61 27.87-17.12 4.6 1-1.5 8.52-5.35 12.06-6.6 6.05-9.65 7.88-9.65 7.88z"/>
      <path d="M120.87 400.75c-10.89-21.9-31.59-35.58-42.82-26.1-11 9.29-8.5 26.71 1.89 47s27.71 33.72 40.68 27.35c12.82-6.28 13.96-20.68.25-48.25z"/>
      <path class="cls-24" d="M120 401.21c-10.68-21.42-30.84-34.87-41.7-25.67-10.61 9-8.13 26 2.05 45.9s27.06 33 39.63 26.88c12.43-6.08 13.48-20.12.02-47.11z"/>
      <path class="cls-25" d="M117.06 404.87c-1.11-2.17-8-13.79-12.59-19-6.9-7.89-14-11.74-22.1-9.65-4.52 1.16-10 6.17-9 17.52 1.34 14.88 8.64 28.41 12.58 34.44 2.52 3.85 10.18 10.19 7.4 2.35-3.71-10.45 6.66-16.84 15-7s16.74 5 15-1.17c-1.56-5.71-2.45-9.99-6.29-17.49z"/>
      <path class="cls-26" d="M177.72 242.75a81.86 81.86 0 00-28-8.74c-15.16-1.56-28.59 5.9-34.06 19.67-5.83 14.68-.42 27.44 6.3 42.82 3 6.95 5 11.11 5 11.11s25.3-20 36.89-36.89 13.87-27.97 13.87-27.97z"/>
      <path class="cls-20" d="M181.51 246.41s-16.65-9.75-31.81-11.31-27.37 5.72-32.84 19.49c-5.83 14.68 1.28 32.81 7.74 43.09a62.69 62.69 0 008.19 10.49s20.69-19.62 32.27-36.53 16.45-25.23 16.45-25.23z"/>
      <path class="cls-19" d="M116.86 254.59c5.47-13.77 17.67-21.05 32.84-19.49s31.81 11.31 31.81 11.31-3.63 6.2-12.07 18.76c-7.17-3.57-13-8.59-12.54-12.43 1-9-4.11-14.51-10.34-15.64s-17.82 1.63-24.39 10-7 19.22-6 25.44 4.71 9 10.6 8.75c5.23-.19 10.15-4.1 10.15-4.1s4.23 15.42-.47 25a15.85 15.85 0 01-4.23 5.38 65.27 65.27 0 01-7.62-9.9c-6.46-10.27-13.6-28.4-7.74-43.08z"/>
      <path class="cls-26" d="M295.15 120.87s13.12 47.61 28.85 82.23c11.39 25.12 55.35 41.69 44.08 103.85-13.55 74.76-60.83 132.43-104.74 145.26C223 464 161.76 450.44 135.08 414.12s-26.54-80.84-7.65-121.68c23.83-51.53 79.34-71.74 79.34-71.74l26.7-84z"/>
      <path class="cls-20" d="M294.72 122.88s12.08 38.64 27.61 72.88c11.26 24.83 55.62 49.66 44.49 111.12-13.41 73.94-60.16 131-103.58 143.65-39.89 11.66-100.42-1.75-126.8-37.67s-26.11-80.64-8.58-118.45c4.29-9.25 9.06-21.86 15-29.07 8.94-10.91 21.86-18.19 31.44-24.9 19-13.28 34.5-17.7 34.5-17.7l25-84.17z"/>
      <path class="cls-19" d="M280.08 443.48c3.77-9.74 8.52-19.46 8.52-19.46s9.45-.88 19.47-9.11c18.35-15.08 22.88-36.29 16.14-46.59-2.88-4.41 13.63-19.68 36.78-36.87-15.55 52.82-47.83 94.13-80.91 112.03z"/>
      <path class="cls-27" d="M216.15 497.2c9.18 2.81 22.23 5.45 33.63-3.72s28.76-30 36.4-52.35c3.69-10.78 7.54-25.88 4.58-33.5-4.46-11.47-18.66-12.84-26.67-11.7-13.34 1.89-18.39-15.41-31-13.37-20.74 3.37-38.15 15.93-46.84 24.38-15.93 15.48-14.63 18.71-15.07 23.85s4.58 29.4 19.13 46.21 19.86 18.37 25.84 20.2z"/>
      <path class="cls-20" d="M216.15 497.2c9.18 2.81 21.61 4.29 33-4.87s29.06-32.05 36.71-54.36c3.68-10.78 10.81-28.88 7.85-36.5-4.46-11.47-21.16-10-28.88-7.53-15 4.74-3.37-8.87-15.86-11.64-20-4.46-48.53 13.29-59.43 23-16.58 14.79-18 20.35-18.39 25.49s4.58 29.4 19.13 46.21 19.89 18.37 25.87 20.2z"/>
      <path class="cls-19" d="M249.16 492.33c-11.4 9.16-23.83 7.68-33 4.87-6-1.83-11.31-3.41-25.86-20.2s-19.58-41.06-19.13-46.21 1.81-10.7 18.39-25.49c6.75-6 13.11-9.74 21.73-10.66 1.39.64 2.11 1.56 2 2.7-.35 2.9 2.34 3 7.19 5s12.56 5.71 10 12.34.73 14.41 5 20 22.16 22.75 32.32 16.44 18.38-19.87 22.27-26.89c.38-.69.77-1.38 1.18-2.05-1.75 5.68-3.85 11.35-5.36 15.79-7.67 22.31-25.33 45.19-36.73 54.36z"/>
      <path class="cls-28" d="M217.89 430.56c3.2-6.38 10-20.05 1.51-24.65s-17 14.77-17 14.77z"/>
      <path class="cls-23" d="M216.89 428.6c3-5.76 9.48-18 2-21.81s-15.63 13.48-15.63 13.48z"/>
      <path class="cls-28" d="M171 428.32c5.85-13.81 25.05-32.32 35.06-31.74 8.77.5 3.44 11.63-.84 17.4a43.78 43.78 0 01-15.95 13.59z"/>
      <path class="cls-23" d="M173.34 427.07c5.52-13 22.15-29 30.8-29.28 8.28-.3 4.62 10.26.59 15.7a41.41 41.41 0 01-15.06 12.82z"/>
      <path d="M232 437.9c-17.67-22.55-45.77-32.18-57.66-17.3-11.63 14.54-5.15 34.47 11.59 55.28s40.63 31.2 55.29 19.47c14.42-11.58 12.99-29.06-9.22-57.45z"/>
      <path class="cls-24" d="M231 438.73c-17.32-22.06-44.71-31.59-56.2-17.16-11.25 14.11-4.84 33.55 11.56 53.9s39.71 30.61 53.91 19.27c14.03-11.21 12.54-28.24-9.27-56.01z"/>
      <path class="cls-25" d="M228.1 444c-1.79-2.22-12.56-13.82-19.2-18.56-10-7.18-24.14-8-29-4.4s-11 10.53-7.54 23.72 18.58 32.91 22.23 36.89 9.82 4.15 7.43-5.52c-1.92-7.72 10.69-13.69 22.88-4.63s18.55 2.36 16.59-4.45-7.21-15.34-13.39-23.05z"/>
      <path class="cls-29" d="M344.21 223.4c8 10.7 14.7 21.69 24.61 26.61 8 4 17.79 2.83 29.05 3.25s23.95 4.1 28 8.95c14.12 17 10.53 34.68 5.73 47.39-5.41 14.34-10.79 19-22.24 20.55-8.21 1.09-20-.53-29.72 3.13s-21.18 6.59-38.19 20.71-19.67 15.76-19.67 15.76-9.4-27.25-5.61-62.14 28.04-84.21 28.04-84.21z"/>
      <path class="cls-20" d="M340.6 218.28c8 10.7 16.11 27.71 26 32.63 8 4 17.26 2.7 28.52 3.11s27.66 6.42 31.69 11.26c14.12 17 9.56 31.61 4.76 44.32-5.41 14.34-10.61 17.07-22.06 18.6-8.2 1.1-22.45 0-32.13 3.69s-21.22 8-38.23 22.12S317 375.42 317 375.42 301.6 345.9 305.39 311s35.21-92.72 35.21-92.72z"/>
      <path class="cls-19" d="M322.94 367.18c8.12-11.41 23.52-25.91 38.53-32.84s26.7-9.53 23.89-15.6-2.91-16.78-2.79-24c.07-5.09 1.4-10.94-1.1-14.46-1.24-1.75-4.09-3.68-4.62-5.59-1.45-2.74 3.06-7.3 3.81-7.67 3-2.44 5.69-4.69 3.84-8.69s-28.8-3.79-49.83.06c-18 3.3-7.35-17.24 10-34.19 6.69 10.22 13.7 22.6 21.9 26.68 7.25 3.6 15.55 2.89 25.43 3 1 0 7.31-.35 11.21 1.09C414 259 421 326.67 409.52 328.2c-8.2 1.1-22.45 0-32.13 3.69s-21.22 8-38.23 22.12a199.93 199.93 0 00-17.92 16.49 11.14 11.14 0 011.7-3.32z"/>
      <path class="cls-30" d="M398.42 270.29c-5.1-5-13.26-4.78-16.66-.91-3.1 3.54 1.79 10.95 7.16 14.5s8.11 3 8.85-3.21a79.71 79.71 0 00.65-10.38z"/>
      <path class="cls-23" d="M397.69 270.84c-4.56-4.5-11.85-4.27-14.87-.82-2.78 3.17 1.58 9.78 6.39 13s7.24 2.65 7.9-2.87a71.09 71.09 0 00.58-9.31z"/>
      <path class="cls-31" d="M412.34 256.69c-10-3.71-25.54-4.16-22 5.21s14.57 10.53 14.57 10.53 16.28-12.43 7.43-15.74z"/>
      <path class="cls-23" d="M412.59 258.2c-9.39-3.66-25-5.17-21.61 3.62s13.7 10.09 13.7 10.09 16.17-10.51 7.91-13.71z"/>
      <path class="cls-32" d="M438.19 301c3.38-19.17-5.25-38.39-19.26-42.92s-28.28 10-31.47 23.9c-6 26.34 3.3 43.41 16.58 47.56s30.78-9.39 34.15-28.54z"/>
      <path class="cls-24" d="M437.8 301.09c3.29-18.71-5.15-37.47-18.87-41.91s-27.65 9.75-30.76 23.31c-5.89 25.7 3.24 42.36 16.23 46.42s30.11-9.12 33.4-27.82z"/>
      <path class="cls-25" d="M435.31 282.65c-3.06-12.13-8.67-18.81-16.6-21.71-5.63-2.06-15.87.76-20.95 7.07s-7.36 10.27-8.84 21.66.12 17 2.16 22.94 4.7 10.82 11.56 7.7 7-9.14 8.9-17.2c1.82-7.63 8.94-10.08 15.49-5.39 6.11 4.38 11.35-2.94 8.28-15.07z"/>
      <path class="cls-33" d="M323.59 101.3c-6.64-12.94-17.68-19.06-28-14.44-14.26 6.39-17.56 20.86-10.91 33.8s22.67 18.58 32.73 13.42 12.83-19.85 6.18-32.78z"/>
      <path class="cls-19" d="M323.61 102.54c-6.61-12.94-17.88-19.27-28.2-14.65-14.27 6.39-17.37 21.08-10.73 34s21.32 26 31.39 20.84 14.18-27.25 7.54-40.19z"/>
      <path class="cls-34" d="M310.18 119.41a47.47 47.47 0 00-4.69-15.24c-3.94-7.06-9.26-10.74-12.7-10.71-3.12 0-6.45 2.69-9.15 7.21-.76 1.28-1.69 4.93-2.18 5.71.77-7.72 5.32-14.62 14-18.49a16.58 16.58 0 0111-1c4.36 6.22 9.7 17.18 9.92 23.51.15 4.67 2.26 19.08 3.79 29a13.57 13.57 0 01-4 3.3 10.85 10.85 0 01-5.74 1.13 2.13 2.13 0 01-.27-1.34c.4-3.85.75-17.4.02-23.08z"/>
      <path class="cls-33" d="M311.35 138.75c3.06-10.81.36-30.89-3.74-40.21-3.23-7.35-4.1-9.21-6.57-13.11 11-.67 24.55 7.62 29.95 19.9 8.37 19-.29 33.51-15.07 41.1a28.93 28.93 0 01-7.7 2.68c1.25-3.71 2.31-7.47 3.13-10.36z"/>
      <path class="cls-19" d="M311 140.5c3.88-10.45 2.68-29.25-2.06-41.23a62 62 0 00-6.5-13c11.07.39 22.78 9 28.14 20.63 7.3 15.89.21 30.9-15.89 40.12a49.56 49.56 0 01-10.42 4.1c4.79-5.24 5.73-7.92 6.73-10.62z"/>
      <path d="M302.7 88.45c-1.44-2.39-2.53-3.79-3.44-5.25-1.4-2.26-3.65-5.59-.94-2.13s5 6.84 5 6.84z"/>
      <path class="cls-35" d="M378.11 172.08c4.65-5.42 15.46-3.78 24.13 3.67s11.94 17.89 7.28 23.31-15.46 3.78-24.14-3.67-11.93-17.89-7.27-23.31z"/>
      <path class="cls-17" d="M317.86 93.73c7.94-1.11 43 .14 55.67 28.51s10.12 54.92 1.15 77-18.34 38.62-26.9 47.24C333.47 260.92 321.53 263.07 318 265l-96.29-80c1.68 1.4 96.15-91.27 96.15-91.27z"/>
      <path class="cls-20" d="M312.74 96.86c7.95-1.12 45.46-3.45 58.11 24.91s10.11 54.92 1.14 77-22.31 42.36-30.87 51-20.63 18.29-20.63 18.29S217.31 183.12 219 184.53s93.74-87.67 93.74-87.67z"/>
      <path class="cls-19" d="M301.85 176.23c6.66-9.64 21.78-11.79 36.68-16.26s29.22-18.8 30.14-30.06c.78-9.54-5-16.65-9.55-23C342.79 94.4 318.9 96 312.74 96.86c0 0-12.46 12-28.29 27.23 4.55 30.04 13.55 57.68 17.4 52.14zM372 198.8a98.53 98.53 0 007.48-40.92c-11.78 8.14-20.93 16.36-17.09 20.57 6.16 6.74 5.87 16.38-4.82 38.06a353 353 0 01-23.95 40.37c2.55-2.3 5.16-4.74 7.51-7.1 8.55-8.62 21.87-28.86 30.87-50.98z"/>
      <path class="cls-17" d="M360.45 178.38s17.12-4.49 28.95-.08 17.5 8.44 17.53 13.84-6.8 8.1-13.64 4.41-14.1-14.87-14.1-14.87a68.56 68.56 0 00-2.55 7.81c-.67 2.95-.82 4.57-2 9.78 0 0 9.55-.55 13.87 3.24s10 6.17 18.56 3 14.1-13.47 8-23.1-16.86-10.55-27.2-19.54a53.42 53.42 0 01-14.26-19.93s-8.61 5.06-11.52 13.3-1.64 22.14-1.64 22.14z"/>
      <path class="cls-20" d="M360.45 178.38s18.23-6.1 30.06-1.69 18.22 10.3 18.25 15.7-9.35 9.17-16.19 5.49S379 184.93 379 184.93s-.82 2.91-1.3 4.69c-.92 3.42-1.82 6.79-2.27 8.32 0 0 9-.6 13.34 3.2s8.76 6.25 17.34 3 13.95-11.35 7.88-21-17.9-11.35-28.24-20.35a36.56 36.56 0 01-12-20s-10.56 4.6-13.51 12.81.21 22.78.21 22.78z"/>
      <path class="cls-19" d="M408.76 192.39c0 5.41-9.35 9.17-16.19 5.49S379 184.93 379 184.93s-.82 2.91-1.3 4.69c-.92 3.42-1.82 6.79-2.27 8.32 0 0 9-.6 13.34 3.2s8.76 6.25 17.34 3c7.77-2.91 12.9-9.85 9.31-18.28a22.16 22.16 0 00-.05 2.45c.24 5-1.19 7.68-3.53 8.38s4.14-9.53-12.18-18.32c-13-7-28.05-4.32-35.09-1.25l-.25.13c6-1.52 17.75-3.76 26.22-.6 11.8 4.45 18.19 10.35 18.22 15.74z"/>
      <path class="cls-36" d="M346.33 110.38c-8.33-16.25-22.23-23.94-35.2-18.14-17.92 8-22.06 26.22-13.71 42.47s28.49 23.35 41.13 16.86 16.12-24.93 7.78-41.19z"/>
      <path class="cls-19" d="M346.34 111.94c-8.35-16.25-22.46-24.21-35.43-18.4-17.92 8-21.82 26.49-13.47 42.74s26.79 32.69 39.43 26.19 17.82-34.27 9.47-50.53z"/>
      <path class="cls-34" d="M329.48 133.14a60 60 0 00-5.9-19.15c-4.95-8.87-11.63-13.49-16-13.45-3.91 0-8.11 3.38-11.49 9-1 1.61-2.13 6.19-2.74 7.18 1-9.7 6.68-18.38 17.52-23.23a20.87 20.87 0 0113.82-1.25c5.47 7.82 12.19 21.59 12.45 29.54.2 5.88 2.85 24 4.77 36.49a16.87 16.87 0 01-5.08 4.15 13.59 13.59 0 01-7.21 1.42 2.71 2.71 0 01-.34-1.68c.72-4.86 1.11-21.88.2-29.02z"/>
      <path class="cls-36" d="M330.94 157.45c3.85-13.59.45-38.81-4.7-50.53-4.05-9.24-5.14-11.58-8.26-16.47 13.8-.84 30.86 9.57 37.64 25 10.52 23.92-.36 42.1-18.94 51.64a35.78 35.78 0 01-9.67 3.36c1.57-4.65 2.91-9.38 3.93-13z"/>
      <path class="cls-19" d="M330.5 159.64c4.87-13.13 3.35-36.76-2.6-51.8-2.81-7.09-5.22-12.08-8.16-16.28 13.91.49 28.62 11.26 35.35 25.93 9.17 20 .27 38.83-20 50.4A61.12 61.12 0 01322 173c6.06-6.6 7.24-10 8.5-13.36z"/>
      <path d="M320.08 94.24c-1.81-3-3.18-4.76-4.33-6.6-1.75-2.83-4.59-7-1.17-2.67s6.25 8.59 6.25 8.59z"/>
      <path class="cls-17" d="M183.67 1.13c3.1-2.78 14.19-.39 21 8.54S209.34 31 209.34 31l-9.43-2.81z"/>
      <path class="cls-20" d="M183.49 1.64c3.1-2.78 13.1-.28 19.94 8.65s5.73 21.24 5.73 21.24l-9.43-2.81z"/>
      <path class="cls-17" d="M175.76 12.94s1.68-5.65 4.45-9.13 6.79-5.72 13.18-1.55A17.14 17.14 0 01201.63 17c.07 4.14-.79 11.71-.79 11.71s-6.91-4.69-13.48-9.27a60.21 60.21 0 00-11.6-6.5z"/>
      <path class="cls-20" d="M177 13.34a24.3 24.3 0 013.86-7.85c2.67-3.35 6.2-5.5 12.34-1.43s7.17 10.19 7.24 14.18.31 11.63.31 11.63a129.83 129.83 0 01-14.1-8.29 56.57 56.57 0 01-9.65-8.24z"/>
      <path class="cls-17" d="M301.12 181.22c.42-1.23 8.09-50.51-18.88-96.87-21.49-37-43.38-60.46-86.58-72.09-58.2-15.65-119.57 48.3-109.87 104s40.55 82.08 55.63 94.12 39.55 25.7 56.17 24.85 97.81-37.01 103.53-54.01z"/>
      <path class="cls-20" d="M300.3 189.11c.41-1.2 6.09-58.53-20.2-103.72-21-36-42.29-58.95-84.42-70.29C139-.16 79.12 62.19 88.57 116.47s39.54 80 54.23 91.76 43.73 30.09 59.94 29.26 91.98-31.8 97.56-48.38z"/>
      <path class="cls-34" d="M95.72 100.52c6 10.6 12.1 21.21 25.15-8.5s26.47-51.89 37.51-53.29 14.72-14.14 28.22-17.15 21.56-1.61 34.61 6.89 43.65 30.85 46.72 44.26 8.15 36.72 17.18 44.52a55.32 55.32 0 0010.1 6.35 146.63 146.63 0 00-15.11-38.21c-21-36-42.29-58.95-84.42-70.29C146 1.73 93.88 48 88.11 96.12c2.89-.95 5.46.62 7.61 4.4z"/>
      <path class="cls-17" d="M212 18.57c6.18-6 25.82-1.9 37.74 15.54s7.39 42.56 7.39 42.56L239.65 72z"/>
      <path class="cls-20" d="M211.64 19.65c6.19-6 24.81-2.08 36.73 15.36s8.41 42.74 8.41 42.74l-17.52-4.66z"/>
      <path class="cls-17" d="M199.35 38.38s.2-6.51 5.85-13.94 13.49-12.44 25.11-4.66c12.55 8.41 14.21 20.69 13.88 29.14s-2.82 24-2.82 24-12.55-8.78-24.45-17.39-17.57-17.15-17.57-17.15z"/>
      <path class="cls-20" d="M197.94 41.9a53.18 53.18 0 017.85-15.28c5.45-7.16 12.73-12.46 23.87-4.86s13.8 19.47 13.48 27.63-2 24.94-2 24.94A207.47 207.47 0 01215.37 59a77.15 77.15 0 01-17.43-17.1z"/>
      <path class="cls-17" d="M207.05 45.69s2.79-6.1 5.86-8.3c4.84-3.49 14-3.46 17.05 7a43 43 0 011.64 15.75z"/>
      <path class="cls-37" d="M208.7 44.32s2.19-4.32 4.84-6.32c3.8-3 13.53-1.92 15.76 7.92 1.79 7.87 1.14 12.63 1.14 12.63z"/>
      <path class="cls-17" d="M205.73 42.67s8.83-4.55 17.65 3.62a38.15 38.15 0 0110.81 19.05s-7.66-4.34-16.1-10.14c-9.64-6.66-12.36-12.53-12.36-12.53z"/>
      <path class="cls-20" d="M203.6 43a20 20 0 0119.4 4.41c8.82 8.18 11.63 19.68 11.63 19.68a174.53 174.53 0 01-17.32-10.37C207.63 50.06 203.6 43 203.6 43z"/>
      <path class="cls-38" d="M234.08 119.7c1.27-1 3.3-.5 4.53 1.09s1.21 3.67-.06 4.66-3.29.5-4.53-1.09-1.21-3.67.06-4.66zM263.79 145.52c1.2-1.07 3.25-.73 4.6.76s1.46 3.58.27 4.66-3.25.73-4.6-.76-1.46-3.58-.27-4.66zM243.37 169.8c1.2-1.08 3.26-.74 4.6.76s1.47 3.58.27 4.65-3.25.74-4.6-.76-1.46-3.57-.27-4.65z"/>
      <path class="cls-17" d="M161.71 194.85S175 207.45 185.2 211s15.56 5.18 13.28 6.74-10.28-1.77-18.61-7-18.13-14.53-18.16-15.89zM170.66 213.36a23.72 23.72 0 007.45 8.91c5.29 3.83 13.6 7.58 7 5.23A31.52 31.52 0 01172 219c-3.71-4-4-8-1.34-5.64z"/>
      <path class="cls-39" d="M154.22 23.26c-6.79 4-19.39 8.12-37.47 28.53-9.73 11-15 23.63-17.87 33.35 3.69-9.85 10.16-23.27 17.33-31.58 14.2-16.48 30.44-26.14 38.01-30.3z"/>
      <path class="cls-39" d="M145.94 36.25a23.11 23.11 0 00-6.51-5 24.33 24.33 0 00-6.88-2.53 56.48 56.48 0 016 2.82 52.38 52.38 0 017.39 4.71zM121.54 60.38a23.21 23.21 0 00-5.88-5.75 24.32 24.32 0 00-6.54-3.32 53.22 53.22 0 015.68 3.51 52.44 52.44 0 016.74 5.56z"/>
      <path class="cls-19" d="M173.11 212c1.39-1.64 5.76-.22 9.76 3.16s6.12 7.46 4.73 9.1-5.75.21-9.75-3.17-6.12-7.49-4.74-9.09z"/>
      <path class="cls-40" d="M156.12 295.22c-17.82-.82-33.51 25.34-35 58.42s11.69 60.58 29.51 61.4 33.5-25.34 35-58.42-11.69-60.62-29.51-61.4z"/>
      <path class="cls-41" d="M156.07 296.23c-17.52-.8-32.94 24.91-34.43 57.44s11.49 59.55 29 60.36 32.93-24.91 34.43-57.44-11.48-59.59-29-60.36z"/>
    </g>
  </g>
</svg>
