<svg xmlns="http://www.w3.org/2000/svg" xmlns:xlink="http://www.w3.org/1999/xlink" viewBox="0 0 122.36 120.56">
  <defs>
    <radialGradient id="radial-gradient" cx="35.06" cy="92.98" r="22.94" gradientUnits="userSpaceOnUse">
      <stop offset="0" stop-color="#ffd9a1"/>
      <stop offset=".1" stop-color="#f8c17e"/>
      <stop offset=".23" stop-color="#f0a757"/>
      <stop offset=".37" stop-color="#e99138"/>
      <stop offset=".51" stop-color="#e4801f"/>
      <stop offset=".65" stop-color="#e1740e"/>
      <stop offset=".81" stop-color="#df6d03"/>
      <stop offset="1" stop-color="#de6b00"/>
    </radialGradient>
    <radialGradient id="radial-gradient-2" cx="13.48" cy="87.95" r="8.6" gradientUnits="userSpaceOnUse">
      <stop offset="0" stop-color="#da5555"/>
      <stop offset=".35" stop-color="#d03232"/>
      <stop offset=".77" stop-color="#c50e0e"/>
      <stop offset="1" stop-color="#c10000"/>
    </radialGradient>
    <radialGradient id="radial-gradient-3" cx="24.48" cy="93.02" r="6.6" gradientUnits="userSpaceOnUse">
      <stop offset="0" stop-color="#ff9696"/>
      <stop offset=".08" stop-color="#fd8b8b"/>
      <stop offset=".51" stop-color="#f35050"/>
      <stop offset=".83" stop-color="#ed2c2c"/>
      <stop offset="1" stop-color="#eb1e1e"/>
    </radialGradient>
    <radialGradient id="radial-gradient-4" cx="25.33" cy="40.96" r="66.65" gradientUnits="userSpaceOnUse">
      <stop offset="0" stop-color="#ffdada"/>
      <stop offset=".16" stop-color="#ffc0c0"/>
      <stop offset=".55" stop-color="#ff8585"/>
      <stop offset=".85" stop-color="#ff6161"/>
      <stop offset="1" stop-color="#ff5353"/>
    </radialGradient>
    <radialGradient id="radial-gradient-5" cx="25.33" cy="40.95" r="66.66" gradientUnits="userSpaceOnUse">
      <stop offset="0" stop-color="#c95b5b"/>
      <stop offset=".33" stop-color="#bf3b3b"/>
      <stop offset=".77" stop-color="#b41717"/>
      <stop offset="1" stop-color="#b00909"/>
    </radialGradient>
    <radialGradient id="radial-gradient-6" cx="21.37" cy="80.75" r="9.94" gradientUnits="userSpaceOnUse">
      <stop offset="0" stop-color="#ff504d"/>
      <stop offset=".3" stop-color="#f23632"/>
      <stop offset=".76" stop-color="#e0120e"/>
      <stop offset="1" stop-color="#d90400"/>
    </radialGradient>
    <radialGradient id="radial-gradient-7" cx="25.33" cy="40.96" r="66.66" xlink:href="#radial-gradient-4"/>
    <radialGradient id="radial-gradient-8" cx="25.95" cy="61.59" r="3.7" gradientUnits="userSpaceOnUse">
      <stop offset="0" stop-color="#fff0da"/>
      <stop offset=".15" stop-color="#f9e3c3"/>
      <stop offset=".55" stop-color="#ebc488"/>
      <stop offset=".84" stop-color="#e1b064"/>
      <stop offset="1" stop-color="#dea856"/>
    </radialGradient>
    <radialGradient id="radial-gradient-9" cx="25.33" cy="40.96" r="66.65" xlink:href="#radial-gradient-4"/>
    <radialGradient id="radial-gradient-10" cx="25.33" cy="40.93" r="66.69" xlink:href="#radial-gradient-4"/>
    <radialGradient id="radial-gradient-11" cx="47.53" cy="78.13" r="4.69" gradientUnits="userSpaceOnUse">
      <stop offset="0" stop-color="#f8f9d6"/>
      <stop offset="1" stop-color="#e5a158"/>
    </radialGradient>
    <radialGradient id="radial-gradient-12" cx="25.33" cy="40.97" r="66.64" xlink:href="#radial-gradient-4"/>
    <radialGradient id="radial-gradient-13" cx="25.33" cy="40.96" r="66.65" gradientUnits="userSpaceOnUse">
      <stop offset="0" stop-color="#a6cfe8"/>
      <stop offset="1" stop-color="#4f99cf"/>
    </radialGradient>
    <radialGradient id="radial-gradient-14" cx="25.33" cy="40.95" r="66.67" xlink:href="#radial-gradient-4"/>
    <radialGradient id="radial-gradient-15" cx="25.33" cy="40.96" r="66.65" xlink:href="#radial-gradient-13"/>
    <radialGradient id="radial-gradient-16" cx="25.33" cy="40.96" r="66.65" gradientUnits="userSpaceOnUse">
      <stop offset="0" stop-color="#7da6bf"/>
      <stop offset="1" stop-color="#2670a6"/>
    </radialGradient>
    <radialGradient id="radial-gradient-17" cx="69.55" cy="18.54" r="16.94" gradientUnits="userSpaceOnUse">
      <stop offset="0" stop-color="#95bed7"/>
      <stop offset="1" stop-color="#3e88be"/>
    </radialGradient>
    <radialGradient id="radial-gradient-18" cx="25.33" cy="40.96" r="66.64" xlink:href="#radial-gradient-4"/>
    <radialGradient id="radial-gradient-19" cx="75.91" cy="13.16" r="18.34" xlink:href="#radial-gradient-13"/>
    <radialGradient id="radial-gradient-20" cx="25.33" cy="40.95" r="66.67" xlink:href="#radial-gradient-4"/>
    <radialGradient id="radial-gradient-21" cx="25.33" cy="40.96" r="66.64" xlink:href="#radial-gradient-8"/>
    <radialGradient id="radial-gradient-22" cx="25.33" cy="40.96" r="66.64" xlink:href="#radial-gradient-4"/>
    <radialGradient id="radial-gradient-23" cx="25.33" cy="40.96" r="66.65" xlink:href="#radial-gradient-6"/>
    <radialGradient id="radial-gradient-24" cx="33.6" cy="79.28" r="8.58" xlink:href="#radial-gradient-6"/>
    <radialGradient id="radial-gradient-25" cx="34.99" cy="86.81" r="10.73" xlink:href="#radial-gradient-11"/>
    <radialGradient id="radial-gradient-26" cx="19.57" cy="64.77" r="5.65" gradientUnits="userSpaceOnUse">
      <stop offset="0" stop-color="#cde3f2"/>
      <stop offset="1" stop-color="#9cc3e4"/>
    </radialGradient>
    <radialGradient id="radial-gradient-27" cx="53" cy="66.07" r="17.84" xlink:href="#radial-gradient-11"/>
    <radialGradient id="radial-gradient-28" cx="56.1" cy="72.96" r="9.59" xlink:href="#radial-gradient-8"/>
    <radialGradient id="radial-gradient-29" cx="25.33" cy="40.96" r="66.65" xlink:href="#radial-gradient-13"/>
    <radialGradient id="radial-gradient-30" cx="55.06" cy="80.12" r="9.43" gradientUnits="userSpaceOnUse">
      <stop offset="0" stop-color="#fff0da"/>
      <stop offset="1" stop-color="#d3b98a"/>
    </radialGradient>
    <radialGradient id="radial-gradient-31" cx="25.33" cy="39.76" r="67.12" xlink:href="#radial-gradient-17"/>
    <radialGradient id="radial-gradient-32" cx="25.34" cy="40.95" r="66.65" xlink:href="#radial-gradient-13"/>
    <radialGradient id="radial-gradient-33" cx="25.33" cy="40.97" r="66.64" gradientUnits="userSpaceOnUse">
      <stop offset="0" stop-color="#86afc8"/>
      <stop offset="1" stop-color="#2f79af"/>
    </radialGradient>
    <radialGradient id="radial-gradient-34" cx="12.5" cy="108.86" r="22.19" gradientUnits="userSpaceOnUse">
      <stop offset="0" stop-color="#f27a7a"/>
      <stop offset=".09" stop-color="#f06d6d"/>
      <stop offset=".52" stop-color="#e53232"/>
      <stop offset=".83" stop-color="#de0e0e"/>
      <stop offset="1" stop-color="#db0000"/>
    </radialGradient>
    <radialGradient id="radial-gradient-35" cx="4.79" cy="80.36" r="4.15" xlink:href="#radial-gradient-8"/>
    <radialGradient id="radial-gradient-36" cx="25.33" cy="40.95" r="66.65" xlink:href="#radial-gradient-34"/>
    <radialGradient id="radial-gradient-37" cx="25.33" cy="40.98" r="66.62" xlink:href="#radial-gradient-34"/>
    <radialGradient id="radial-gradient-38" cx="31.94" cy="107" r="42.05" xlink:href="#radial-gradient-26"/>
    <radialGradient id="radial-gradient-39" cx="3.32" cy="86.08" r="9.84" xlink:href="#radial-gradient-26"/>
    <radialGradient id="radial-gradient-40" cx="31.15" cy="87.21" r="10" xlink:href="#radial-gradient-3"/>
    <radialGradient id="radial-gradient-41" cx="25.33" cy="40.96" r="66.65" xlink:href="#radial-gradient-4"/>
    <radialGradient id="radial-gradient-42" cx="25.33" cy="40.96" r="66.65" xlink:href="#radial-gradient-13"/>
    <radialGradient id="radial-gradient-43" cx="25.33" cy="40.96" r="66.65" xlink:href="#radial-gradient-13"/>
    <radialGradient id="radial-gradient-44" cx="25.33" cy="40.96" r="66.65" xlink:href="#radial-gradient-13"/>
    <radialGradient id="radial-gradient-45" cx="25.33" cy="40.96" r="66.65" xlink:href="#radial-gradient-13"/>
    <radialGradient id="radial-gradient-46" cx="25.33" cy="40.96" r="66.65" xlink:href="#radial-gradient-13"/>
    <radialGradient id="radial-gradient-47" cx="25.33" cy="40.96" r="66.65" xlink:href="#radial-gradient-13"/>
    <radialGradient id="radial-gradient-48" cx="25.34" cy="40.96" r="66.64" xlink:href="#radial-gradient-13"/>
    <radialGradient id="radial-gradient-49" cx="25.33" cy="40.96" r="66.65" xlink:href="#radial-gradient-13"/>
    <radialGradient id="radial-gradient-50" cx="25.34" cy="40.96" r="66.64" xlink:href="#radial-gradient-13"/>
    <radialGradient id="radial-gradient-51" cx="25.33" cy="40.96" r="66.65" xlink:href="#radial-gradient-13"/>
    <radialGradient id="radial-gradient-52" cx="25.33" cy="40.96" r="66.65" xlink:href="#radial-gradient-13"/>
    <radialGradient id="radial-gradient-53" cx="75.91" cy="13.16" r="18.34" xlink:href="#radial-gradient-13"/>
    <radialGradient id="radial-gradient-54" cx="25.33" cy="40.96" r="66.64" xlink:href="#radial-gradient-13"/>
    <radialGradient id="radial-gradient-55" cx="35.06" cy="92.98" r="22.94" xlink:href="#radial-gradient"/>
    <radialGradient id="radial-gradient-56" cx="35.06" cy="92.98" r="22.94" xlink:href="#radial-gradient"/>
    <radialGradient id="radial-gradient-57" cx="56.1" cy="72.96" r="9.59" xlink:href="#radial-gradient-8"/>
    <style>
      .cls-1{fill:url(#radial-gradient)}.cls-2{fill:url(#radial-gradient-2)}.cls-3{fill:url(#radial-gradient-3)}.cls-4{fill:url(#radial-gradient-4)}.cls-5{fill:url(#radial-gradient-5)}.cls-6{fill:url(#radial-gradient-6)}.cls-7{fill:url(#radial-gradient-7)}.cls-8{fill:#ffdd8d}.cls-9{fill:url(#radial-gradient-8)}.cls-10{fill:url(#radial-gradient-9)}.cls-11{fill:url(#radial-gradient-10)}.cls-12{fill:url(#radial-gradient-11)}.cls-13{fill:url(#radial-gradient-12)}.cls-14{fill:url(#radial-gradient-13)}.cls-15{fill:url(#radial-gradient-14)}.cls-16{fill:#1a4159}.cls-17{fill:url(#radial-gradient-15)}.cls-18{fill:url(#radial-gradient-16)}.cls-19{fill:url(#radial-gradient-17)}.cls-20{fill:url(#radial-gradient-18)}.cls-21{fill:url(#radial-gradient-19)}.cls-22{fill:#d69040}.cls-23{fill:url(#radial-gradient-20)}.cls-24{fill:url(#radial-gradient-21)}.cls-25{fill:#efa039}.cls-26{fill:url(#radial-gradient-22)}.cls-27{fill:url(#radial-gradient-23)}.cls-28{fill:url(#radial-gradient-24)}.cls-29{fill:url(#radial-gradient-25)}.cls-30{fill:url(#radial-gradient-26)}.cls-31{fill:url(#radial-gradient-27)}.cls-32{fill:url(#radial-gradient-28)}.cls-33{fill:url(#radial-gradient-29)}.cls-34{fill:#a10000}.cls-35,.cls-53,.cls-54,.cls-55,.cls-59,.cls-60,.cls-61,.cls-63,.cls-81,.cls-83,.cls-86,.cls-88{fill:#fff}.cls-36{fill:#dce3e8}.cls-37{fill:url(#radial-gradient-30)}.cls-38{fill:url(#radial-gradient-31)}.cls-39{fill:#355061}.cls-40{fill:url(#radial-gradient-32)}.cls-41{fill:url(#radial-gradient-33)}.cls-42{fill:#ffe0da}.cls-43{fill:url(#radial-gradient-34)}.cls-44{fill:url(#radial-gradient-35)}.cls-45{fill:url(#radial-gradient-36)}.cls-46{fill:url(#radial-gradient-37)}.cls-47{fill:url(#radial-gradient-38)}.cls-48{fill:url(#radial-gradient-39)}.cls-49{fill:#3e5e73}.cls-50{fill:#1b1b1b}.cls-51{stroke:#0d0d0d;stroke-width:.24px;fill:url(#radial-gradient-40)}.cls-52{fill:url(#radial-gradient-41)}.cls-53{opacity:.6}.cls-54{opacity:.47}.cls-55{opacity:.54}.cls-56{fill:none}.cls-57{fill:#ac1313}.cls-58{fill:#e02626}.cls-59{opacity:.68}.cls-60{opacity:.44}.cls-61{opacity:.63}.cls-62{fill:#6589a9}.cls-63{opacity:.36}.cls-64{fill:#21313d}.cls-65{fill:url(#radial-gradient-42)}.cls-66{fill:url(#radial-gradient-43)}.cls-67,.cls-70,.cls-74,.cls-79{fill:#44667d}.cls-67{opacity:.35}.cls-68{fill:url(#radial-gradient-44)}.cls-69{fill:url(#radial-gradient-45)}.cls-70{opacity:.2}.cls-71{fill:url(#radial-gradient-46)}.cls-72{fill:url(#radial-gradient-47)}.cls-73{fill:url(#radial-gradient-48)}.cls-74{opacity:.29}.cls-75{fill:url(#radial-gradient-49)}.cls-76{fill:url(#radial-gradient-50)}.cls-77{fill:url(#radial-gradient-51)}.cls-78{fill:url(#radial-gradient-52)}.cls-79{opacity:.38}.cls-80{fill:url(#radial-gradient-53)}.cls-81{opacity:.09}.cls-82{fill:url(#radial-gradient-54)}.cls-83{opacity:.53}.cls-84{fill:url(#radial-gradient-55)}.cls-85{fill:url(#radial-gradient-56)}.cls-86{opacity:.43}.cls-87{fill:url(#radial-gradient-57)}.cls-88{opacity:.69}
    </style>
  </defs>
  <g id="Слой_2" data-name="Слой 2">
    <g id="Слой_1-2" data-name="Слой 1">
      <path class="cls-1" d="M33.36 99.7h.94c7 .13 14.64-4.46 15.46-12a8.45 8.45 0 01-2 1.35 29.39 29.39 0 01-9.88 2.61 38.62 38.62 0 01-10.79-.21 2.69 2.69 0 00-.8 2.5c.33 1 1.63 1.53 2.44 2C30.26 97 32.56 98 33.36 99.7z"/>
      <path class="cls-2" d="M8.82 90.65a14.23 14.23 0 004.84 1 63.14 63.14 0 007.28.16 10.45 10.45 0 01-1.15-3.69 1.86 1.86 0 01.6-1.88c-1.49.22-3 .46-4.45.74a29.59 29.59 0 00-6.48 1.72c-.92.42-2.08 1.3-.64 1.95z"/>
      <path class="cls-3" d="M28.6 103.49a3.41 3.41 0 003.82-2.78c.33-2.07-2.5-3.46-3.92-4.33-.82-.51-2-1.07-2.44-2a3 3 0 01.44-2.64 4.69 4.69 0 011.74-1.63c.45-.25 2-.66 1-1.32a2.59 2.59 0 00-2.07-.24c-1.17.35-1.76 1.78-2.17 2.82a10.27 10.27 0 00-.69 4.19v.41a7.58 7.58 0 001.35 4.78c.46.82 1.75 2.85 2.94 2.74z"/>
      <path class="cls-4" d="M21.42 75.79a10.88 10.88 0 011.52-1.92 27.58 27.58 0 01-4.72-.39c-.81-.15-3-.49-3-1.56s2-1.68 2.78-1.94a25.17 25.17 0 013.84-.89A39.85 39.85 0 0132 68.68c1.2.12 7.06 1.11 3.79 3 1 0 2.27.28 2.6 1.34.82-.35 2.31-1 2.11-2.08-.14-.77-.92-1.25-1.58-1.54-2.7-1.24-6.06-1.25-9-1.21a74.76 74.76 0 00-10.59.81c-2.19.34-5.41.71-6.89 2.6a.18.18 0 000 .07l-.24.42c-1.59 3.65 7.44 3.68 9.22 3.7z"/>
      <path class="cls-5" d="M35.22 69.51a14.51 14.51 0 00-4.85-.8h-2.28a38.18 38.18 0 00-7.91.87c-.73.16-5.15 1.14-4.33 2.53.37.64 1.42.86 2.07 1a23.6 23.6 0 005.31.49 3 3 0 012.44-1c.3 0 1.55.27 1.39.82a29.18 29.18 0 005.56-1c.6-.29.64-.68 1.8-.7 1.42 0 2.44-1.55.8-2.21z"/>
      <path class="cls-6" d="M20.87 78.2a6 6 0 00-.19 3.8 5.37 5.37 0 001.41 3 15.06 15.06 0 011.57-.75c.89-1.31 1.5-2.62.55-4.06-.79-1.21-1.89-2.16-1.59-3.74.23-1.19 1.2-2.81 2.61-2.74.14 0 1.43-.17.76-.47a2.31 2.31 0 00-1.91.38 5.69 5.69 0 00-.84.62l-.4.37a11 11 0 00-1.97 3.59z"/>
      <path class="cls-7" d="M12.36 76.43a5.15 5.15 0 001.12.79 10.37 10.37 0 002.47.93 20.74 20.74 0 004.07.61 8 8 0 01.73-1.76c.1-.21.21-.43.33-.65-3-.11-6.57-.35-9.18-1.94a4.76 4.76 0 01.46 2.02z"/>
      <path class="cls-8" d="M24.62 91a10.4 10.4 0 01-4.06-1.87c.09.35.19.7.31 1a13.69 13.69 0 002.83 4.79 13 13 0 01.92-3.92z"/>
      <path class="cls-9" d="M27.87 61.48a5.82 5.82 0 00-4.12.35l-.45.17a11.56 11.56 0 014.54 1.49c.52-.59 1.06-1.61.03-2.01z"/>
      <path class="cls-10" d="M38.54 73.84c-.08 1-1.14 2-1.62 2.83a7.21 7.21 0 003.61-2.56 2.48 2.48 0 00.3-1.47 8.49 8.49 0 01-2.29 1.2z"/>
      <path class="cls-11" d="M31.59 81.53a56 56 0 01-6.2.7 2.59 2.59 0 01-.23 1.14l-.16.33a34.81 34.81 0 017.58-1.56 8.93 8.93 0 01-.99-.61z"/>
      <path class="cls-12" d="M43.05 82.48c.76.16 1.57.35 2.32.54a17.94 17.94 0 016-5.5c.06-.49.11-1 .18-1.46a25.87 25.87 0 01.45-2.82c-3.55 2.43-6.94 5.35-8.95 9.24z"/>
      <path class="cls-13" d="M41.54 77.59A5.41 5.41 0 0139.67 76a15.85 15.85 0 01-3.15 1.54 3.07 3.07 0 000 2.55A15.87 15.87 0 0039.24 79a7.61 7.61 0 001.39-.92c.14-.13.39-.49.6-.46s-1.59 1.47-1.8 1.58a17 17 0 01-2.73 1.1c.33.59.77 1.1 1.11 1.68 1.51.06 3 .21 4.52.38q.44-.78.93-1.53c.18-.29.38-.58.6-.89a11.24 11.24 0 00-2.32-2.35z"/>
      <path class="cls-14" d="M53.3 93a29.78 29.78 0 01-2.15-13.29 8.11 8.11 0 00-3 4.3 10 10 0 011 .47A2.58 2.58 0 0150.71 87a10.91 10.91 0 01-1.38 4.87c0 .15.05.3.07.45a7.85 7.85 0 003.9.68z"/>
      <path class="cls-15" d="M31.28 81.29c-1.11-.93-.94-1.66-.34-2.29-1.81.34-3.64.58-5.48.75l-.88.07a6 6 0 01.8 2.11 58.76 58.76 0 005.9-.64z"/>
      <path class="cls-16" d="M28.94 5.92c-.75.33-.65 1.61-.58 2.26a16.31 16.31 0 012.33-1c-.29-.43-1.03-1.58-1.75-1.26z"/>
      <path class="cls-17" d="M29.28 5.3c-1-.81-1.93-.61-2.24.65-.06.24-.39 1.67-.16 1.87-.37-.33 0-2 .12-2.44a1.27 1.27 0 011-.91c1.32-.11 2.43 1.72 3 2.65.75-.23 1.52-.4 2.29-.56a11.65 11.65 0 00-1.89-2.25c-5.07-5-6.25 1.41-6.49 6.13a18.64 18.64 0 013.17-2.12c-.08-.7-.28-3.55 1.2-3.02z"/>
      <path class="cls-18" d="M28.16 63.69a17 17 0 014.38 3.81c4 .22 6.52 1 7.81 2a2.69 2.69 0 01.83.88c.75-3.13 1.68-6.14 2.59-8.8A29.22 29.22 0 0134.63 59a67.94 67.94 0 00-6.69 1.56c2.35.18 1.3 1.98.22 3.13z"/>
      <path class="cls-19" d="M74.39 28.39a20.24 20.24 0 002.21-1.28 21.35 21.35 0 002.46-1.76c-2.3-2.8-4.63-5.58-7.09-8.24-2-2.1-4-4.34-6.82-5.32a16 16 0 00-2.61 2.5 40.87 40.87 0 0111.85 14.1z"/>
      <path class="cls-20" d="M12.91 87.41A77.69 77.69 0 0120.63 86a7.14 7.14 0 01.86-.66 10.12 10.12 0 01-1.25-3.06 25.93 25.93 0 01-4.47-.58c-.39-.09-3.63-.93-3.41-1.64 0-.06 1.43.74 1.58.8a11.24 11.24 0 001.73.55 25.21 25.21 0 004.5.59 8.83 8.83 0 01-.26-2.23 16.46 16.46 0 01-6.33-1.8A3.5 3.5 0 0112.17 80a11.37 11.37 0 00-2 2.55 20.4 20.4 0 00-2.36 6.93c1.06-1.3 3.6-1.7 5.1-2.07z"/>
      <path class="cls-21" d="M74.14 17a58 58 0 015.61 7.72c2.63-2.42 5.69-6.7 3.71-10.39S76 11.25 72.7 12.81a15.24 15.24 0 012.24-1.31c-1.42-2.29-4.42-2.23-6.69-1.4a9.77 9.77 0 00-.94.39A29.4 29.4 0 0174.14 17z"/>
      <path class="cls-22" d="M51.24 78.71l.06-.71c-2 1.31-4.25 2.85-5.38 5.07.61.16 1.27.43 1.86.65.13-2.17 1.86-3.72 3.46-5.01z"/>
      <path class="cls-23" d="M32.49 72.86a39.12 39.12 0 01-6.29.91 3.43 3.43 0 00-2.83 2 54.59 54.59 0 0010-1.16c1.16-.26 1.92-.51 2.12-.57a.77.77 0 00-.4-.14c-.22 0-1.75.34-1.51-.08s-.8-.77-1.09-.96z"/>
      <path class="cls-24" d="M11.8 79.32a3.2 3.2 0 00-2.19 1.32l.72.13c.47-.5 1.03-.91 1.47-1.45z"/>
      <path class="cls-25" d="M36.27 88.76a39.43 39.43 0 004.06-.48c1.1-.19 6.34-1 5.83-2.64-.19-.63-1.45-1.13-3.39-1.46a37.74 37.74 0 00-8-.33h-.67L33 84a31 31 0 00-7.14 1.3 5.5 5.5 0 00-1.92 1c-1.39 1.25 1.61 2 2.5 2.18a3.18 3.18 0 013.44.42 47.44 47.44 0 006.39-.14z"/>
      <path class="cls-26" d="M24 78.78a65 65 0 008.56-1 21.79 21.79 0 002.11-1.73c.39-.34 1-.79 1-1.35a57 57 0 01-9.08 1.5c-1.15.1-2.27.16-3.37.17a3.77 3.77 0 00.78 2.41z"/>
      <path class="cls-27" d="M10.28 76.72c.29.68.87.89 1.29.32 1-1.31-.52-2.73-.09-4.05.15-.44 1.45-2.44.2-1.42a4.81 4.81 0 00-1.36 2.1 5 5 0 00-.25 2 2 2 0 00.21 1.05z"/>
      <path class="cls-28" d="M34.94 71.89c-.16 0-.88.1-1 .13-.73.21-.78.45-1.27.64a6.6 6.6 0 011.46.21c.47.22-.28.67.51.64s1.59-.06 1.55.85a3.32 3.32 0 01-.94 1.79A13.15 13.15 0 0133.36 78a10.06 10.06 0 00-1.61 1.2c-1 1.14 1.07 2.38 1.9 2.82 1.13-.02 2.26-.09 3.35-.02a5.49 5.49 0 00-1.26-1.65c-2-1.9 1.83-4.25 1.9-6.17.1-1.69-1.39-2.38-2.7-2.29z"/>
      <path class="cls-29" d="M43.47 83.05c-.71-.1-1-.14-1.76-.22a47.81 47.81 0 00-10.56.17 25.19 25.19 0 00-8.73 2.29c-.78.41-1.82 1-2 2-.33 1.92 3.2 2.72 4.52 3a4.65 4.65 0 011.12-1.64c-.89-.18-2.58-.45-3-1.4-.34-.74.72-1.34 1.24-1.63a19.46 19.46 0 016.26-1.78 34 34 0 0113.37.31c.81.2 2.54.58 2.8 1.55s-1.72 1.67-2.39 1.9a31 31 0 01-7.66 1.4 48.74 48.74 0 01-6.62.11c.45.88-2.38 1.31-2.18 1.66a47 47 0 009.78 0 29.78 29.78 0 009.14-2.07c1-.46 3.39-1.6 2.61-3.12-.61-1.2-2.37-1.69-3.55-2a22.63 22.63 0 00-2.39-.53z"/>
      <path class="cls-30" d="M31.33 67.45c-2.18-2.4-5.27-4.45-8.62-4.45A7.24 7.24 0 0016 67.43a7.13 7.13 0 00-.43 1.65 53.42 53.42 0 0115.76-1.63z"/>
      <path class="cls-31" d="M65.29 68a26.54 26.54 0 00-3.09 0 8.22 8.22 0 00-3.06 1.16A23.1 23.1 0 0166.52 71c3.75-1.09 5.45-1.22 5.58-1.49.39-.84-6.28-1.51-6.81-1.51z"/>
      <path class="cls-22" d="M67.82 71.61a27.77 27.77 0 014 1.33 5.89 5.89 0 00.56-2.94c-1 .29-2.77.63-5.21 1.3.22.1.44.21.65.31z"/>
      <path class="cls-32" d="M53.52 72.57a4.18 4.18 0 00-.25 2.85c.16.86 1.75 1.08 2.43 1.19 1.68.26 4.08.44 5.65-.4s2.29-2.42 1.34-4a4.23 4.23 0 00-3.22-1.56c-1.7-.14-5.01.24-5.95 1.92z"/>
      <path class="cls-33" d="M108.51 96.17a25.93 25.93 0 003.95-13.11A27.08 27.08 0 00108.88 68 54 54 0 0097.7 54.84a14.49 14.49 0 012.87 1.54 56.32 56.32 0 01-5.22-12.25 27.58 27.58 0 01-2 4.17 38.76 38.76 0 002-12 39.58 39.58 0 00-1.51-12.95A16.88 16.88 0 0090 25.87c2.68-2.93 6.21-5.09 10.34-4.27 2 .39 3.33 2 1.64 3.77s-4.22 1-6.06.11a14 14 0 01.65 3.32 3.93 3.93 0 012.69-.95c1.28.13 2.34.47 3.55-.24a4.25 4.25 0 00.54-7c-2.34-2-5.66-1.1-8.44-1.49a9.5 9.5 0 01-6.24-3.4 10.12 10.12 0 002.31 1.46c-1.83-2.85-4.46-6-7.59-7.42a11.76 11.76 0 00-8.84 0 4.41 4.41 0 011.09 1.47c3.84-1.55 8.24-.46 9.63 3.75 1.33 4-2.07 8.3-4.94 10.72.48.93.65 1.54.4 1.66l-1-1.2a21.16 21.16 0 01-2.1 1.46 21.61 21.61 0 01-2.8 1.6c.6 1.2 1.15 2.43 1.63 3.69a5.37 5.37 0 01.44 1.41 54.7 54.7 0 00-9-13.8 45.11 45.11 0 00-14.12-10.28 18.48 18.48 0 01.12 4.36A20.24 20.24 0 0051 6.32c-1-1.66-2.59-3.86-4.75-4-1.67-.1-3 1.21-4 2.44a24.3 24.3 0 00-3.34 6.75l-.17-.42a37.25 37.25 0 011.38-4 30.11 30.11 0 00-8.74 1.43c-5.13 1.73-9 5.85-11.45 10.59-4.08 8-4.75 18.86.58 26.45a38.64 38.64 0 0011.85 11 38.37 38.37 0 0014.67 4.75c-.42.1-.83.22-1.25.28a77.2 77.2 0 00-3.94 10.81 2.62 2.62 0 01-.56 2.18c-.17.72-.32 1.45-.46 2.18a25.78 25.78 0 013.36 2.72 28.06 28.06 0 018-7.07c.91-2.51 3.78-3.34 6.21-3.3a11.51 11.51 0 013.86-1.51 23.94 23.94 0 013.88 0 31.46 31.46 0 014.21.53A7.13 7.13 0 0173 69c1.17.34.16 3.71-.2 4.38 2.41 1.07 5.3.79 7.84.47a40.56 40.56 0 005-.94s0 .08-.06.21a35.5 35.5 0 01-6.79 1.69 12.41 12.41 0 01-3.65 0 34.7 34.7 0 01-4.38-1.38 11.29 11.29 0 013.48 5 17.5 17.5 0 00-13.48-7.82 4.74 4.74 0 013.37 1.83 3.22 3.22 0 01-.26 3.75c-1.32 1.43-3.08 1.62-4.93 1.68 2 0 4.41 0 5.09 2.24a4.43 4.43 0 01-2.59 5.26 10 10 0 01-6.91.29c-2.21-.63-2.31-2.16-2.33-4.2a26.37 26.37 0 001.24 8.73A24.9 24.9 0 0057 98a5.1 5.1 0 005.82 2 23 23 0 006.65-3.65 24.32 24.32 0 01-3.33-1c-.14 0-1.36-.54-.72-.7a9.82 9.82 0 013.33.09 17.72 17.72 0 012.79.58c2 .64 6 2.34 8.3 3.33-1.61-.33-6.9-1.42-9.41-2.14h-.08a21.61 21.61 0 01-5.24 4c-1.44.84-3 1.63-4.75 1.23-3.36-.74-5.36-4.86-6.6-7.66a31.09 31.09 0 01-3.34-.26 12.22 12.22 0 01-1.72-.9c-.09.15-.19.3-.29.45a17.12 17.12 0 01-5 4.85A27 27 0 0146 109c.07 3.1-.3 6.59-1.91 9.31a49.93 49.93 0 0015.81-9.11c-.4 2-2 3.36-3.6 4.57 6.93 2.65 14.16 2.16 21.32.78 6.34-1.22 13.14-3 18.58-6.59a44.1 44.1 0 0012.31-11.79zM43.94 7.26a4.05 4.05 0 01.64-1.68 1.48 1.48 0 012.11-.36c2 1.25 3.13 4.4 3.63 6.54.5 1.68 1.06 4.26-.12 5.81-.88 1.15-2.21.39-3-.49-1.37-1.6-1.73-4.08-1.85-6.08-.05-1-.06-5.5 2-4.6a.56.56 0 01.05-.08c-1.43-1.6-2.71-.91-3.25 1A10.11 10.11 0 0143.8 9a8.52 8.52 0 00.14-1.74zM35.6 47.33c-.05.16-.08 1.61-.21 1.61-.4 0-.45-1.85-.18-2.12s.45-.3.64-.21-.21.62-.25.72zm19.06 19.88a7.34 7.34 0 01-3.72.29c-.23 0-2.16-.59-1.75-1.13s1.81.26 2.17.34a10.54 10.54 0 003.27.08s.94-.07.91 0-.71.36-.88.42zm9.75-21.39a7 7 0 01.75 2.74 12.25 12.25 0 010 3.87 14.06 14.06 0 01-2.6 5.79c-2.25 3.09-5.86 7.1-9.9 7.68-2.14.31-3.3-1.05-3.78-3a19 19 0 00-2.44-5.25 19.45 19.45 0 00-4-4.61 21 21 0 01-4-4.13 11.56 11.56 0 01-2.22-1c.55-.28 2 .15 2.54.22l3.15.33a8.4 8.4 0 012.14.11 48.84 48.84 0 0012.22-1.47 37.41 37.41 0 005.11-1.49A39.62 39.62 0 0066 43c1.38-.8.46 1.73-1.59 2.82zm4.34-1.41c-.29 0-.86-1.24-1-1.43s-.7-.4-.77-.62.5-.31.63-.27c.49.16 1.25 2.31 1.14 2.32z"/>
      <path class="cls-34" d="M52.59 52.37c-3 .73-6.63 1.44-9.61.38 2.71 1.93 5.88 5.11 6.15 8.63 3.12 1.86 8 .65 10.78-1.35a16.74 16.74 0 004.19-6.52c.51-1.81.65-4.49-.35-6.18a39.4 39.4 0 01-11.16 5.04z"/>
      <path class="cls-35" d="M49.58 62.08a5.48 5.48 0 002.34 2.14c1.46.66 3.81-.24 6.59-2.8-2.62 1.16-6.23 1.94-8.93.66z"/>
      <path class="cls-36" d="M119.54 111.44a7.62 7.62 0 01-1-2.15c-.64-1.53-2.32-3.21-4.12-3.07-.43.74-2.52 2.3-2.15 3.27.19.5 1 .34 1.44.48a1.78 1.78 0 011.08 1.08c1.32 1.73 3.8 2.88 5.86 1.63.22-.12-1-1.11-1.11-1.24z"/>
      <path class="cls-37" d="M53.94 78.87c-1 .78-.79 2-.79 3.13a2.36 2.36 0 001.27 2.5c2.29 1 5.81.88 7.6-1a3.35 3.35 0 00.7-3.36 2.41 2.41 0 00-2.3-1.62 24 24 0 00-3.79-.11c-.77.01-2.05-.06-2.69.46z"/>
      <path class="cls-38" d="M114 110.56a2.73 2.73 0 00-1-.29c-.51-.06-1.3 0-1.33-.74a2.51 2.51 0 01.79-1.64c.14-.17 1.54-1.37 1.39-1.53-.67-.7-3.64 2.15-4.19 2.44-2.83 1.53-5.86.13-7.66-2.27-.12-.17-.23-.33-.33-.49a29.41 29.41 0 01-3.63 2.39c2.59.85 4.6 2 7.29 2.49a29.28 29.28 0 004.77-.13 14 14 0 013.72.09c.41.12.64-.07.18-.32z"/>
      <path class="cls-35" d="M52.15 52a39.16 39.16 0 0011.23-5.05c-.71-.44-1.87 0-2.59.16-2 .5-4 1-6 1.48a43.05 43.05 0 01-13.54.75c-.39 0-.79 0-1.18-.08-.25.17.33 1 1.93 2.57.17.17.34.33.5.5 2.98 1.11 6.71.37 9.65-.33z"/>
      <path class="cls-39" d="M101.82 24c-.47-2.65-4.76-1.84-6.48-1.31A22.09 22.09 0 0196 25c1.27.55 6.38 2.21 5.82-1z"/>
      <path class="cls-40" d="M52.41 79.68c.58-2 3.15-1.79 4.79-1.81-1.24-.08-2.9-.2-3.9-1a1.6 1.6 0 01-.46-1.12c-.17 1.25-.29 2.61-.43 3.93z"/>
      <path class="cls-41" d="M8 80.54a9.55 9.55 0 011.19 0 4.41 4.41 0 012.4-2.29 10.91 10.91 0 00-2.49 0 8.72 8.72 0 00-1.88.41c.66.34.68 1.28.78 1.88z"/>
      <path class="cls-42" d="M9.8 106.58a84.66 84.66 0 0010.32-.31c1.72-.14 1.78-2.64 1.86-4a22.61 22.61 0 00-.23-4.72 8.57 8.57 0 00-1.19-3.76c-.72-1-2.28-.5-3.33-.48a55.42 55.42 0 01-9.81-.46c0 .24 0 .46-.07.67a19.76 19.76 0 000 3.44 23.27 23.27 0 002.45 9.62zm1.77-12.41c.22.14-.52 1.08-.57 1.41a4.56 4.56 0 001.12 3.5 2.58 2.58 0 01.88-2.15 2.44 2.44 0 012.42.17 5 5 0 012.07 5.51c-.76 2.43-3.77 1.78-5.34.54a2.52 2.52 0 01-1.15-2.69 1.35 1.35 0 011-1 4.47 4.47 0 01-1.68-3.37c-.07-.7 0-2.73 1.25-1.92z"/>
      <path class="cls-43" d="M23.59 95.83A17.34 17.34 0 0121.06 92a55.63 55.63 0 01-8.85-.35c-1.13-.14-3.85-.29-4.48-1.5v.35a9.1 9.1 0 00-.32 2.16 1.5 1.5 0 000-.22 49.1 49.1 0 008.9.54c1 0 2 0 3-.07.78 0 1.26 0 1.7.69a12.29 12.29 0 011.26 5.14 22.21 22.21 0 01-.06 5.28 6 6 0 01-.54 1.9c-.43.79-1.25.68-2 .74a79.19 79.19 0 01-9.37.25c1.8 3.29 4.14 6.62 7.84 7.83a27 27 0 0011.58.7l1.21-.16c-4.49-5.51-7.59-12.28-7.34-19.45z"/>
      <path class="cls-44" d="M7.34 80.57c-.25-1.28-1-1.35-2.17-1-1.48.43-2.33 2.09-2.78 3.33a6.87 6.87 0 014.95-2.33z"/>
      <path class="cls-45" d="M12.53 99.71c-2.46 1-.06 3.58 1.49 4.09a2.54 2.54 0 003.4-3.07 4.79 4.79 0 00-2.12-3.13 2.31 2.31 0 00-2-.24c-.78.31-.87 1.28-.8 2a2.38 2.38 0 00.03.35z"/>
      <path class="cls-46" d="M12.12 99.43v-.29a4 4 0 01-1.21-4c.07-.17.59-.6.58-.74 0-.41-.78-.13-.85.17a4.54 4.54 0 001.48 4.86z"/>
      <path class="cls-47" d="M42.53 98.74a16.9 16.9 0 01-9 2.06 4.71 4.71 0 01-4.22 3.5c-2.21.09-3.68-2.55-4.55-4.23A31.41 31.41 0 0030 112.59c2.46 3.35 6.29 8 11 6.5 3.17-1 3.85-5.6 4-8.39a23.06 23.06 0 00-2.47-11.96z"/>
      <path class="cls-48" d="M5.91 95c0-4.49.86-9.42 3.56-13.14a7.31 7.31 0 00-7.55 3.36c-1.46 2.41-1 5.39-.54 8A32.69 32.69 0 009.3 109.4a14.68 14.68 0 002.39 2.16A25.28 25.28 0 017.25 104a24.86 24.86 0 01-1.34-9z"/>
      <path class="cls-16" d="M47.82 13.67a5.72 5.72 0 001.08 2.18c.39.44.75.4 1.2.63.95-2.47-.36-6.24-1.75-8.33a2.62 2.62 0 00-.82-.86 15.1 15.1 0 00.29 6.38z"/>
      <path class="cls-49" d="M47.2 13.57a13.49 13.49 0 01-.12-6.41c-1.17 0-1.32 2-1.36 2.78a14.66 14.66 0 00.52 4.32c.35 1.3 2 4.64 3.56 2.75v.12l.08-.12c-1.56-.01-2.36-2.29-2.68-3.44z"/>
      <path class="cls-50" d="M68.21 6.05c.91.33 2.16-.32 2.92-.77a36.92 36.92 0 015-2c1.64-.69-.46-1-1.23-.94a15.73 15.73 0 00-5.83 2.21c-.24.17-1.78 1.18-.86 1.5zM89.28 7.92a34.66 34.66 0 013.14 4c1.1 1.32.94-.87.64-1.55a12.27 12.27 0 00-3.94-4.83c-.37-.25-1.25-.64-1.25.14a3.61 3.61 0 001.41 2.24zM44.13 7.28c.54-1.9 1.82-2.59 3.25-1a.56.56 0 00-.05.08c-2-.9-2 3.63-2 4.6.12 2 .48 4.51 1.87 6.11.77.88 2.1 1.64 3 .49 1.18-1.55.62-4.13.12-5.81-.5-2.14-1.67-5.29-3.63-6.54a1.48 1.48 0 00-2.11.36 4.05 4.05 0 00-.64 1.68A8.52 8.52 0 0143.8 9a10.11 10.11 0 00.33-1.72zm5.62 9.85v-.12c-1.53 1.89-3.21-1.45-3.56-2.75a14.66 14.66 0 01-.52-4.32c0-.8.19-2.78 1.36-2.78a13.49 13.49 0 00.12 6.41c.32 1.15 1.12 3.4 2.63 3.44zm-2.22-9.84a2.62 2.62 0 01.82.86c1.39 2.09 2.7 5.86 1.75 8.33-.45-.23-.81-.19-1.2-.63a5.72 5.72 0 01-1.08-2.18 15.1 15.1 0 01-.29-6.38zM12 99.5a1.35 1.35 0 00-1 1 2.52 2.52 0 001.18 2.69c1.57 1.24 4.58 1.89 5.34-.54a5 5 0 00-2.07-5.51 2.44 2.44 0 00-2.45-.21 2.58 2.58 0 00-.88 2.15 4.56 4.56 0 01-1.12-3.5c.05-.33.79-1.27.57-1.41-1.25-.81-1.32 1.22-1.28 2A4.47 4.47 0 0012 99.5zm1.32-2.14a2.31 2.31 0 012 .24 4.79 4.79 0 012.12 3.13A2.54 2.54 0 0114 103.8c-1.55-.51-3.95-3.06-1.49-4.09a2.38 2.38 0 010-.35c-.09-.72 0-1.69.78-2zm-2.65-2.82c.07-.3.82-.58.85-.17 0 .14-.51.57-.58.74a4 4 0 001.21 4v.29a4.54 4.54 0 01-1.51-4.86zM66 43a39.62 39.62 0 01-4.64 2.68 37.41 37.41 0 01-5.11 1.49 48.84 48.84 0 01-12.22 1.47 14.48 14.48 0 00-2.14-.11l-3.15-.33c-.59-.07-2-.5-2.54-.22a11.56 11.56 0 002.22 1 21 21 0 004 4.13 19.45 19.45 0 014 4.61 19 19 0 012.44 5.25c.48 1.92 1.64 3.28 3.78 3 4-.58 7.65-4.59 9.9-7.68a14.06 14.06 0 002.6-5.79 12.25 12.25 0 000-3.87 7 7 0 00-.75-2.74C66.46 44.73 67.38 42.2 66 43zm-24 8.82c-1.6-1.53-2.18-2.4-1.93-2.57.39 0 .79.07 1.18.08a43.05 43.05 0 0013.54-.75c2-.44 4-1 6-1.48.72-.18 1.88-.6 2.59-.16A39.16 39.16 0 0152.15 52c-2.94.71-6.67 1.45-9.61.33-.16-.18-.33-.33-.54-.51zm9.88 12.4a5.48 5.48 0 01-2.34-2.14c2.7 1.28 6.31.5 8.93-.66-2.74 2.58-5.09 3.46-6.55 2.8zM64.1 53.51A16.74 16.74 0 0159.91 60c-2.8 2-7.66 3.21-10.78 1.35-.27-3.52-3.44-6.7-6.15-8.63 3 1.06 6.64.35 9.61-.38a39.4 39.4 0 0011.16-5c1 1.66.86 4.36.35 6.17zM67.57 42.09c-.13 0-.73 0-.63.27s.6.45.77.62.75 1.45 1 1.43c.15-.01-.61-2.16-1.14-2.32zM35.21 46.82c-.27.27-.22 2.11.18 2.12.13 0 .16-1.45.21-1.61s.41-.63.25-.72-.51.08-.64.21zM54.63 66.79a10.54 10.54 0 01-3.27-.08c-.36-.08-1.88-.74-2.17-.34s1.52 1.1 1.75 1.13a7.34 7.34 0 003.72-.29c.17-.06.79-.19.88-.4s-.89-.02-.91-.02z"/>
      <path class="cls-25" d="M36.61 85.81a22 22 0 018.19 1.35c.92-.39 1.56-.89 1.36-1.52s-1.45-1.13-3.39-1.46a37.74 37.74 0 00-8-.33h-.67L33 84a31 31 0 00-7.14 1.3 5.5 5.5 0 00-1.92 1c-1.39 1.25 1.61 2 2.5 2.18a1.64 1.64 0 01.33-.14c1.29-1.5 5.23-2.53 9.84-2.53z"/>
      <path class="cls-51" d="M29.85 88.82a47.44 47.44 0 006.42-.06 39.43 39.43 0 004.06-.48 22 22 0 004.47-1.12 22 22 0 00-8.19-1.35c-4.63 0-8.55 1-9.87 2.45a3.17 3.17 0 013.11.56z"/>
      <path class="cls-35" d="M15 100.33c-.43-.81-.43-1.66 0-1.89s1.13.24 1.56 1 .44 1.66 0 1.89-1.09-.19-1.56-1z"/>
      <path class="cls-52" d="M40.54 70.93c-.14-.77-.92-1.25-1.58-1.54-2.7-1.24-6.06-1.25-9-1.21a74.76 74.76 0 00-10.63.82 21.71 21.71 0 00-4.61 1c-1 1-1.28 1.79-.86 2.54.66 1.14 2.29 2 4.57 2.12a20.28 20.28 0 013.37.51 9.9 9.9 0 011.14-1.36 27.58 27.58 0 01-4.72-.39c-.81-.15-3-.49-3-1.56s2-1.68 2.78-1.94a25.17 25.17 0 013.84-.89A39.85 39.85 0 0132 68.68c1.2.12 7.06 1.11 3.79 3 1 0 2.27.28 2.6 1.34.86-.36 2.35-.97 2.15-2.09z"/>
      <path class="cls-53" d="M12.87 73.09c-.43-.75.24-1.72 1.85-3a5.44 5.44 0 00-2.28 1.58.18.18 0 000 .07l-.24.42c-1.52 3.58 7.51 3.61 9.29 3.63.12-.19.25-.38.38-.56a42.09 42.09 0 01-4.53-.13c-2.34-.16-3.82-.87-4.47-2.01z"/>
      <path class="cls-54" d="M17 77.67c1.41.13-1.16-.73-2.38-1.22s1.35-.2 3.93-.22a15.54 15.54 0 01-6.67-1.8 4.76 4.76 0 01.46 2 5.15 5.15 0 001.12.79 10.37 10.37 0 002.47.93 21.16 21.16 0 003.8.59 10 10 0 00-2.11-.52c-1.76-.22-2-.67-.62-.55z"/>
      <path class="cls-55" d="M14.33 80.42a23.5 23.5 0 00-3.48 6.3C9.69 90.45 9.63 93.51 9.32 92s.12-3.61.86-6 4.64-7 4.15-5.58z"/>
      <path class="cls-56" d="M23.28 73.54l3.08-.79a3.64 3.64 0 00-.69-.15 3.06 3.06 0 00-2.39.94z"/>
      <path class="cls-57" d="M27.56 72.43l-1.2.32c.4.13.79.34.7.67a29.18 29.18 0 005.56-1c.6-.29.64-.68 1.8-.7 1.42 0 2.44-1.57.8-2.23a14.51 14.51 0 00-4.85-.8h-2.28c-.79 0-1.46 0-2.19.08.62.22 1.16.42 1.66.58 2.61.8 4.24 1.94 0 3.08z"/>
      <path class="cls-58" d="M23.28 73.54h-.17.12a.1.1 0 01.05 0z"/>
      <path class="cls-50" d="M121.42 112.44a5.71 5.71 0 01-1.24-1.26c-.85-.89-1-2.47-1.59-3.54a3.83 3.83 0 00-3.93-1.86c.61-1.41-.63-.86-1.2-.59-1.22.58-3.06 2-4.28 2.69a4 4 0 01-3.37.43c-1.24-.38-2.51-1.92-3.3-2.92a29.09 29.09 0 008.85-11.48 37.49 37.49 0 002.55-10.21c.9-9.48-3.88-18.54-10.57-25-1.58-2.72-3.12-5.46-4.5-8.28a34.13 34.13 0 01-2.64-9.09 40.68 40.68 0 00.43-11.37 3.7 3.7 0 012.56-1.48c1.13.05 2.13.49 3.28.22 2.24-.53 3.45-3.16 3.25-5.29a5.35 5.35 0 00-4-4.83c-2.81-.63-5.69.29-8.52-.52a28.18 28.18 0 00-4.41-5.56 14.9 14.9 0 00-6.1-4.12 3.88 3.88 0 01-.4-1.29 1.88 1.88 0 003.49-1.32c-.43-2.21-3-1.67-3.61.12-.29-.49.07-1.25.29-1.7.12-.24.73-1 .65-1.29 0 0-.92 1.29-1 1.44a5.9 5.9 0 00-.37 2.47 5.35 5.35 0 00.15 1.37 14.52 14.52 0 00-8.24 1c-2.28-1.18-5.13-.34-7.24.82-.84-.4-2.24-.88-3-.09s0 1.38.8 1.59a17.35 17.35 0 00-2.3 2.33A54.84 54.84 0 0053.55 9a16.5 16.5 0 00-3.4-6.82C49.19 1.09 47.88-.06 46.3 0c-2.84.12-4.61 3.65-5.63 5.87a31.8 31.8 0 00-6.41.51 9.7 9.7 0 00-4.65-5.29c-1.2-.61-2.6-.8-3.6.26a7.68 7.68 0 00-1.58 4.11 31.45 31.45 0 00-.28 5.66c-6.58 6.06-9.37 16-8.48 24.74A22.88 22.88 0 0020.41 48 38.47 38.47 0 0033 58.22a35 35 0 00-11 3c-1.8.77-4.24 1.7-5.47 3.33a8.46 8.46 0 00-2.49 5 7.52 7.52 0 00-2.5 1.45 6.45 6.45 0 00-1.93 5.9 10.19 10.19 0 00-8.45 5.43 11 11 0 00-1.09 4.11 24 24 0 00.52 7.27 29.5 29.5 0 004.35 11.43c2.07 3.42 4.67 7.22 8.67 8.45a13.06 13.06 0 006.88 3 35.86 35.86 0 0011.42 0 10.65 10.65 0 006.87 3.71c3.87 1.23 11.5-2.3 16.4-5.75 6.21 2.52 12.94 2.4 19.49 1.45a71.28 71.28 0 0022-6.84 46.07 46.07 0 009.58 2.55 17.7 17.7 0 004.54-.08c.74-.1 1.49-.2 2.23-.25.58 0 1.15.21 1.67.19a6 6 0 001.26 1.44 6.61 6.61 0 003.61.83 7.64 7.64 0 002.77-1c.27-.14-.6-.23-.91-.4zM82.68 5.58c.86-1.12 2.91-1.32 2.86.58 0 2.12-2.61 2.2-3.25.36a2 2 0 01.39-.94zM68.25 10.1c2.27-.83 5.27-.89 6.69 1.4a15.24 15.24 0 00-2.24 1.31c3.27-1.56 8.69-2.29 10.76 1.54s-1.08 8-3.71 10.39A58 58 0 0074.14 17a29.4 29.4 0 00-6.83-6.53 9.77 9.77 0 01.94-.37zm-3.1 1.69C67.93 12.77 70 15 72 17.11c2.46 2.66 4.79 5.44 7.09 8.24a21.35 21.35 0 01-2.46 1.76 20.24 20.24 0 01-2.21 1.28 40.87 40.87 0 00-11.85-14.1 16 16 0 012.58-2.5zM31.4 4.31a11.65 11.65 0 011.91 2.25c-.77.16-1.54.33-2.29.56-.57-.93-1.68-2.76-3-2.65a1.27 1.27 0 00-1 .91c-.15.42-.49 2.11-.12 2.44-.23-.2.1-1.63.16-1.87.31-1.26 1.25-1.46 2.24-.65-1.48-.53-1.29 2.32-1.2 3a18.64 18.64 0 00-3.17 2.12c.22-4.7 1.4-11.16 6.47-6.11zm-.71 2.91a16.31 16.31 0 00-2.33 1c-.07-.65-.17-1.93.58-2.26s1.46.79 1.75 1.26zM34.63 59a29.22 29.22 0 009.14 2.6c-.91 2.66-1.84 5.67-2.59 8.8a2.69 2.69 0 00-.83-.88c-1.29-1-3.8-1.8-7.81-2a17 17 0 00-4.38-3.81c1.08-1.15 2.13-2.95-.22-3.13A67.94 67.94 0 0134.63 59zM10.2 82.56a11.37 11.37 0 012-2.55 3.5 3.5 0 001.41-2.07 16.46 16.46 0 006.33 1.8 8.83 8.83 0 00.23 2.26 25.21 25.21 0 01-4.5-.59 11.24 11.24 0 01-1.73-.55c-.15-.06-1.56-.86-1.58-.8-.22.71 3 1.55 3.41 1.64a25.93 25.93 0 004.47.58 10.12 10.12 0 001.25 3.06 7.14 7.14 0 00-.86.66 77.69 77.69 0 00-7.72 1.44c-1.5.37-4 .77-5.07 2.08a20.4 20.4 0 012.36-6.96zm-.59-1.92a3.2 3.2 0 012.19-1.32c-.44.54-1 1-1.47 1.45zm26.17-.33A5.49 5.49 0 0137 82c-1.13 0-2.26 0-3.39.09-.83-.44-2.88-1.68-1.9-2.82A10.06 10.06 0 0133.36 78a13.15 13.15 0 001.85-1.88 3.32 3.32 0 00.94-1.79c0-.91-.88-.88-1.55-.85s0-.42-.51-.64a6.6 6.6 0 00-1.46-.21c.49-.19.54-.43 1.27-.64.16 0 .88-.12 1-.13 1.31-.09 2.8.6 2.74 2.25-.03 1.95-3.82 4.3-1.86 6.2zm13.63 5.26c.78 1.52-1.57 2.66-2.61 3.12a29.78 29.78 0 01-9.14 2.07 47 47 0 01-9.78 0c-.2-.35 2.63-.78 2.18-1.66a48.74 48.74 0 006.62-.1 31 31 0 007.65-1.4c.67-.23 2.67-.86 2.39-1.9s-2-1.35-2.8-1.55a34 34 0 00-13.37-.31 19.46 19.46 0 00-6.26 1.78c-.52.29-1.58.89-1.24 1.63.44 1 2.13 1.22 3 1.4A4.65 4.65 0 0025 90.27c-1.32-.28-4.85-1.08-4.52-3 .17-1 1.21-1.57 2-2A25.19 25.19 0 0131.15 83a47.81 47.81 0 0110.56-.17c.73.08 1 .12 1.76.22a22.63 22.63 0 012.39.51c1.14.32 2.94.81 3.55 2.01zm-3.49-2.46c1.13-2.22 3.35-3.76 5.38-5.07l-.06.67c-1.6 1.26-3.33 2.84-3.46 5.05-.59-.22-1.25-.49-1.86-.65zm-16.07 5.71a3.18 3.18 0 00-3.44-.42c-.89-.17-3.89-.93-2.5-2.18a5.5 5.5 0 011.92-1A31 31 0 0133 84l1.11-.07h.67a37.74 37.74 0 018 .33c1.94.33 3.2.83 3.39 1.46.51 1.65-4.73 2.45-5.83 2.64a39.43 39.43 0 01-4.06.48 47.44 47.44 0 01-6.43-.02zM35 73.89a.77.77 0 01.4.14c-.2.06-1 .31-2.12.57a54.59 54.59 0 01-9.95 1.16 3.43 3.43 0 012.83-2 39.12 39.12 0 006.29-.91c.29.19 1.37.4 1 1s1.37.02 1.55.04zm-8.4 2.34a57 57 0 009.08-1.5c-.07.56-.66 1-1 1.35a21.79 21.79 0 01-2.11 1.73 65 65 0 01-8.56 1 3.77 3.77 0 01-.73-2.38c1.05-.04 2.17-.1 3.32-.2zm-1.14 3.52c1.84-.17 3.67-.41 5.48-.75-.6.63-.77 1.36.34 2.29a58.76 58.76 0 01-5.9.64 6 6 0 00-.8-2.11zm-.3 3.62a2.59 2.59 0 00.23-1.14 56 56 0 006.2-.7 8.93 8.93 0 001 .61A34.81 34.81 0 0025 83.7zm9.26-11.63c-1.16 0-1.2.41-1.8.7a29.18 29.18 0 01-5.56 1c.16-.55-1.09-.79-1.39-.82a3 3 0 00-2.44 1 23.6 23.6 0 01-5.31-.49c-.65-.15-1.7-.37-2.07-1-.82-1.39 3.6-2.37 4.33-2.53a38.18 38.18 0 017.91-.87h2.28a14.51 14.51 0 014.85.8c1.64.64.62 2.19-.8 2.21zm-11.18 2.45a5.69 5.69 0 01.84-.62 2.31 2.31 0 011.92-.38c.67.3-.62.47-.76.47-1.41-.07-2.38 1.55-2.61 2.74-.3 1.58.8 2.53 1.59 3.74.95 1.44.34 2.75-.55 4.06a15.06 15.06 0 00-1.57.75 5.37 5.37 0 01-1.41-3 6 6 0 01.19-3.79 11 11 0 012-3.64zM20.75 77a8 8 0 00-.75 1.76 20.74 20.74 0 01-4-.61 10.37 10.37 0 01-2.47-.93 5.15 5.15 0 01-1.12-.79 4.76 4.76 0 00-.46-2c2.61 1.59 6.2 1.83 9.18 1.94-.13.22-.28.44-.38.63zM9.46 88.7a29.59 29.59 0 016.48-1.76c1.48-.28 3-.52 4.45-.74a1.86 1.86 0 00-.6 1.88 10.45 10.45 0 001.15 3.69 63.14 63.14 0 01-7.28-.16 14.23 14.23 0 01-4.84-1c-1.44-.61-.28-1.49.64-1.91zm11.41 1.44c-.12-.33-.22-.68-.31-1A10.4 10.4 0 0024.62 91a13 13 0 00-.92 4 13.69 13.69 0 01-2.83-4.86zM24.25 96v-.41a10.27 10.27 0 01.75-4.23c.41-1 1-2.47 2.17-2.82a2.59 2.59 0 012.07.24c1.06.66-.52 1.07-1 1.32a4.69 4.69 0 00-1.74 1.63 3 3 0 00-.44 2.64c.41.94 1.62 1.5 2.44 2 1.42.87 4.25 2.26 3.92 4.33a3.41 3.41 0 01-3.82 2.78c-1.19.11-2.48-1.92-3-2.75A7.58 7.58 0 0124.25 96zm4.45 0c-.81-.48-2.11-1-2.44-2a2.69 2.69 0 01.8-2.5 38.62 38.62 0 0010.79.21 29.39 29.39 0 009.88-2.61 8.45 8.45 0 002-1.35c-.82 7.52-8.44 12.11-15.46 12h-.94C32.56 98 30.26 97 28.7 96zm22-9.08a2.58 2.58 0 00-1.55-2.43 10 10 0 00-1-.47 8.11 8.11 0 013-4.3A29.78 29.78 0 0053.3 93a7.85 7.85 0 01-3.9-.77c0-.15 0-.3-.07-.45A10.91 10.91 0 0050.71 87zm.83-10.89c-.07.48-.12 1-.18 1.46a17.94 17.94 0 00-6 5.5c-.75-.19-1.56-.38-2.32-.54 2-3.89 5.4-6.81 9-9.24a25.87 25.87 0 00-.49 2.85zm-8.28 4.77q-.49.75-.93 1.53c-1.5-.17-3-.32-4.52-.38-.34-.58-.78-1.09-1.11-1.68a17 17 0 002.73-1.12c.21-.11 2.12-1.53 1.8-1.58s-.46.33-.6.46a7.61 7.61 0 01-1.39.92 15.87 15.87 0 01-2.67 1.08 3.07 3.07 0 010-2.55A15.85 15.85 0 0039.67 76a5.41 5.41 0 001.87 1.62 11.24 11.24 0 012.32 2.35c-.22.28-.42.57-.6.86zm-2.73-6.72a7.21 7.21 0 01-3.61 2.56c.48-.87 1.54-1.81 1.62-2.83a8.49 8.49 0 002.29-1.2 2.48 2.48 0 01-.29 1.5zM23.75 61.83a5.82 5.82 0 014.12-.35c1 .4.49 1.42 0 2A11.56 11.56 0 0023.3 62zM16 67.43A7.24 7.24 0 0122.71 63c3.35 0 6.44 2.08 8.62 4.48a53.42 53.42 0 00-15.73 1.6 7.13 7.13 0 01.4-1.65zm-3.64 4.28a.18.18 0 010-.07c1.48-1.89 4.7-2.26 6.89-2.6A74.76 74.76 0 0130 68.18c2.9 0 6.26 0 9 1.21.66.29 1.44.77 1.58 1.54.2 1.12-1.29 1.73-2.11 2.08-.33-1.06-1.62-1.36-2.6-1.34 3.27-1.88-2.59-2.87-3.79-3a39.85 39.85 0 00-10.23.41A25.17 25.17 0 0018 70c-.79.26-2.84.85-2.78 1.94s2.22 1.41 3 1.56a27.58 27.58 0 004.72.39 10.88 10.88 0 00-1.52 1.92c-1.78 0-10.81-.05-9.29-3.63l.24-.42zm-2.07 2a4.81 4.81 0 011.36-2.1c1.25-1 0 1-.2 1.42-.43 1.32 1.07 2.74.09 4.05-.42.57-1 .36-1.29-.32a2 2 0 01-.21-1 5 5 0 01.28-2.09zM9.06 78.3a10.91 10.91 0 012.49 0 4.41 4.41 0 00-2.4 2.29 9.55 9.55 0 00-1.19 0c-.06-.6-.08-1.59-.78-1.83a8.72 8.72 0 011.88-.46zm-3.89 1.27c1.14-.35 1.92-.28 2.17 1a6.87 6.87 0 00-4.95 2.33c.45-1.24 1.3-2.9 2.78-3.33zM9.3 109.4a32.69 32.69 0 01-7.92-16.2c-.49-2.63-.92-5.61.54-8a7.31 7.31 0 017.55-3.36C6.77 85.54 6 90.47 5.91 95a24.86 24.86 0 001.34 9 25.28 25.28 0 004.44 7.54 14.68 14.68 0 01-2.39-2.14zm-2-15.87c0-.21 0-.43.07-.67a55.42 55.42 0 009.81.46c1.05 0 2.61-.5 3.33.48a8.57 8.57 0 011.19 3.76 22.61 22.61 0 01.23 4.72c-.08 1.35-.14 3.85-1.86 4a84.66 84.66 0 01-10.32.31A23.27 23.27 0 017.37 97a19.76 19.76 0 01-.02-3.47zm22.28 21.94a27 27 0 01-11.58-.7c-3.7-1.21-6-4.54-7.84-7.83a79.19 79.19 0 009.37-.25c.79-.06 1.61 0 2-.74a6 6 0 00.54-1.9 22.21 22.21 0 00.06-5.28A12.29 12.29 0 0021 93.63c-.44-.73-.92-.72-1.7-.69-1 0-2 .06-3 .07a49.1 49.1 0 01-8.9-.54 1.5 1.5 0 010 .22 9.1 9.1 0 01.32-2.16v-.35c.63 1.21 3.35 1.36 4.48 1.5a55.63 55.63 0 008.85.35 17.34 17.34 0 002.53 3.8c-.25 7.19 2.85 13.94 7.25 19.48zM41 119.09c-4.75 1.51-8.58-3.15-11-6.5a31.41 31.41 0 01-5.22-12.52c.87 1.68 2.34 4.32 4.55 4.23a4.71 4.71 0 004.22-3.5 16.9 16.9 0 009-2.06 23.06 23.06 0 012.49 12c-.2 2.75-.88 7.34-4.04 8.35zm55.22-11.18c-5.44 3.61-12.24 5.37-18.58 6.59-7.16 1.38-14.39 1.87-21.32-.78 1.57-1.21 3.2-2.54 3.6-4.57a49.93 49.93 0 01-15.81 9.11c1.61-2.72 2-6.21 1.91-9.31a27 27 0 00-2.6-10.73 17.12 17.12 0 005-4.85c.1-.15.2-.3.29-.45a12.22 12.22 0 001.72.9 31.09 31.09 0 003.34.26c1.23 2.8 3.23 6.92 6.6 7.68 1.71.4 3.31-.39 4.75-1.23a21.61 21.61 0 005.24-4h.08c2.51.72 7.8 1.81 9.41 2.14-2.27-1-6.27-2.69-8.3-3.33a17.72 17.72 0 00-2.79-.58 9.82 9.82 0 00-3.33-.09c-.64.16.58.65.72.7a24.32 24.32 0 003.33 1 23 23 0 01-6.67 3.63A5.1 5.1 0 0157 98a24.9 24.9 0 01-3.5-7.81 26.37 26.37 0 01-1.24-8.73c0 2 .12 3.57 2.33 4.2a10 10 0 006.91-.29 4.43 4.43 0 002.59-5.26C63.4 77.86 61 77.94 59 77.89c1.85-.06 3.61-.25 4.93-1.68a3.22 3.22 0 00.26-3.75 4.74 4.74 0 00-3.37-1.83 17.5 17.5 0 0113.48 7.82 11.29 11.29 0 00-3.48-5 34.7 34.7 0 004.38 1.38 12.41 12.41 0 003.65 0 35.5 35.5 0 006.79-1.69c0-.13.06-.21.06-.21a40.56 40.56 0 01-5 .94c-2.54.32-5.43.6-7.84-.47.36-.67 1.37-4 .2-4.38a7.13 7.13 0 00-2.63-.89 31.46 31.46 0 00-4.21-.53 23.94 23.94 0 00-3.88 0 11.51 11.51 0 00-3.86 1.51c-2.43 0-5.3.79-6.21 3.3a28.06 28.06 0 00-8 7.07 25.78 25.78 0 00-3.36-2.72c.14-.73.29-1.46.46-2.18a2.62 2.62 0 00.56-2.18 77.2 77.2 0 013.94-10.81c.42-.06.83-.18 1.25-.28a38.37 38.37 0 01-14.67-4.75 38.64 38.64 0 01-11.85-11C15.21 38 15.88 27.08 20 19.1c2.41-4.74 6.32-8.86 11.45-10.59a30.11 30.11 0 018.74-1.43 37.25 37.25 0 00-1.38 4l.17.42a24.3 24.3 0 013.34-6.75c.94-1.23 2.29-2.54 4-2.44 2.16.13 3.72 2.33 4.75 4a20.24 20.24 0 012.83 8.29 18.48 18.48 0 00-.12-4.36A45.11 45.11 0 0167.9 20.51a54.7 54.7 0 019 13.8 5.37 5.37 0 00-.44-1.41c-.48-1.26-1-2.49-1.63-3.69a21.61 21.61 0 002.8-1.6 21.16 21.16 0 002.1-1.46l1 1.2c.25-.12.08-.73-.4-1.66C83.15 23.27 86.55 19 85.22 15c-1.39-4.21-5.79-5.3-9.63-3.75a4.41 4.41 0 00-1.09-1.5 11.76 11.76 0 018.84 0c3.13 1.45 5.76 4.57 7.59 7.42a10.12 10.12 0 01-2.31-1.46 9.5 9.5 0 006.24 3.4c2.78.39 6.1-.48 8.44 1.49a4.25 4.25 0 01-.54 7c-1.21.71-2.27.37-3.55.24a3.93 3.93 0 00-2.69.95 14 14 0 00-.65-3.32c1.84.92 4.45 1.52 6.06-.11s.32-3.38-1.64-3.77c-4.13-.82-7.66 1.34-10.34 4.27a16.88 16.88 0 013.87-2.56 39.58 39.58 0 011.51 13 38.76 38.76 0 01-2 12 27.58 27.58 0 002-4.17 56.32 56.32 0 005.22 12.25 14.49 14.49 0 00-2.87-1.54A54 54 0 01108.88 68a27.08 27.08 0 013.58 15.11 25.93 25.93 0 01-3.95 13.11 44.1 44.1 0 01-12.3 11.69zM72.1 69.53c-.13.27-1.83.4-5.58 1.49a23.1 23.1 0 00-7.38-1.9A8.22 8.22 0 0162.2 68a26.54 26.54 0 013.09 0c.53 0 7.2.67 6.81 1.53zm.28.48a5.89 5.89 0 01-.56 2.93 27.77 27.77 0 00-4-1.33c-.21-.1-.43-.21-.65-.3 2.44-.67 4.2-1.01 5.21-1.31zm-12.91.68a4.23 4.23 0 013.22 1.56c1 1.54.11 3.17-1.34 4s-4 .66-5.65.4c-.68-.11-2.27-.33-2.43-1.19a4.18 4.18 0 01.25-2.85c.94-1.72 4.25-2.1 5.95-1.92zm1 7.81a2.41 2.41 0 012.3 1.62 3.35 3.35 0 01-.7 3.36c-1.79 1.9-5.31 2.07-7.6 1A2.36 2.36 0 0153.15 82c0-1.11-.17-2.35.79-3.13.64-.52 1.92-.45 2.69-.48a24 24 0 013.79.11zm-7.17-1.67c1 .84 2.66 1 3.9 1-1.64 0-4.21-.16-4.79 1.81.14-1.32.26-2.65.43-4a1.6 1.6 0 00.46 1.19zm42-54.13c1.72-.53 6-1.34 6.48 1.31.56 3.2-4.55 1.54-5.85.94a22.09 22.09 0 00-.59-2.25zm18.49 88.18a14 14 0 00-3.72-.09 26.16 26.16 0 01-4.6 0c-2.7-.44-4.87-1.47-7.46-2.32a29.41 29.41 0 003.63-2.39c.1.16.21.32.33.49 1.8 2.4 4.83 3.8 7.66 2.27.55-.29 3.52-3.14 4.19-2.44.15.16-1.25 1.36-1.39 1.53a2.51 2.51 0 00-.79 1.64c0 .7.82.68 1.33.74a2.73 2.73 0 011 .29c.49.21.26.4-.14.28zm6.84 1.8c-2.06 1.25-4.54.1-5.86-1.63a1.78 1.78 0 00-1.08-1.08c-.4-.14-1.25 0-1.44-.48-.37-1 1.72-2.53 2.15-3.27 1.8-.14 3.48 1.54 4.12 3.07a7.62 7.62 0 001 2.15c.13.13 1.35 1.12 1.15 1.24z"/>
      <path class="cls-59" d="M11 73.09c-.16 1.38-.32 1.46-.16 2.28s-.65 1.3-.65-.16.91-2.86.81-2.12z"/>
      <path class="cls-60" d="M21.45 78.22A19.35 19.35 0 0022.1 83c.16.82-.73.82-1.22-2.12-.24-1.41.65-3.39.57-2.66z"/>
      <path class="cls-61" d="M24.94 95.35a27.85 27.85 0 001.82 5.52c.36.93-.53 1.11-1.73-2.24-.6-1.63-.18-4.16-.09-3.28z"/>
      <path class="cls-50" d="M56.44 36.65a3.54 3.54 0 003.14 2.62c1.57.17 2.69-.72 2.52-2a3.53 3.53 0 00-3.1-2.61c-1.6-.18-2.73.71-2.56 1.99z"/>
      <path class="cls-62" d="M56.79 36.93A3.09 3.09 0 0059.52 39c1.34.17 2.29-.51 2.13-1.51a3.12 3.12 0 00-2.72-2.11c-1.34-.13-2.3.55-2.14 1.55z"/>
      <path class="cls-50" d="M57.62 24.17a3.5 3.5 0 002.47 3.26c1.49.53 2.78-.09 2.9-1.36a3.51 3.51 0 00-2.46-3.26c-1.48-.53-2.79.08-2.91 1.36z"/>
      <path class="cls-62" d="M57.9 24.52a3.09 3.09 0 002.17 2.68c1.28.47 2.36 0 2.43-1a3.12 3.12 0 00-2.17-2.68c-1.27-.45-2.33-.01-2.43 1z"/>
      <path class="cls-50" d="M66.88 31.17a3.5 3.5 0 002.47 3.26c1.48.53 2.78-.09 2.9-1.36a3.52 3.52 0 00-2.46-3.26c-1.49-.54-2.79.08-2.91 1.36z"/>
      <path class="cls-62" d="M67.15 31.52a3.1 3.1 0 002.18 2.68c1.27.47 2.35 0 2.42-1a3.11 3.11 0 00-2.17-2.68c-1.27-.45-2.36-.01-2.43 1z"/>
      <path class="cls-56" d="M35.21 46.82c-.27.27-.22 2.11.18 2.12.13 0 .16-1.45.21-1.61s.41-.63.25-.72-.51.08-.64.21zM44.58 5.58a4.05 4.05 0 00-.64 1.68A8.52 8.52 0 0143.8 9a10.11 10.11 0 00.33-1.69c.54-1.9 1.82-2.59 3.25-1a.56.56 0 00-.05.08c-2-.9-2 3.63-2 4.6.12 2 .48 4.51 1.87 6.11.77.88 2.1 1.64 3 .49 1.18-1.55.62-4.13.12-5.81-.5-2.14-1.67-5.29-3.63-6.54a1.68 1.68 0 00-1.06-.28c-.38.41-.76.66-1.05.62zM54.63 66.79a10.54 10.54 0 01-3.27-.08c-.36-.08-1.88-.74-2.17-.34s1.52 1.1 1.75 1.13a7.34 7.34 0 003.72-.29c.17-.06.79-.19.88-.4s-.89-.02-.91-.02zM40.15 7.08a37.25 37.25 0 00-1.38 4l.17.42a29.07 29.07 0 012.19-5c-.33.16-.67.35-1 .55zM66 43a39.62 39.62 0 01-4.64 2.68 37.41 37.41 0 01-5.11 1.49 48.84 48.84 0 01-12.22 1.47 8.4 8.4 0 00-2.14-.11l-3.15-.33c-.59-.07-2-.5-2.54-.22a11.56 11.56 0 002.22 1 21 21 0 004 4.13 19.45 19.45 0 014 4.61 19 19 0 012.44 5.25c.48 1.92 1.64 3.28 3.78 3 4-.58 7.65-4.59 9.9-7.68a14.06 14.06 0 002.6-5.79 12.25 12.25 0 000-3.87 7 7 0 00-.75-2.74C66.46 44.73 67.38 42.2 66 43zM67.57 42.09c-.13 0-.73 0-.63.27s.6.45.77.62.75 1.45 1 1.43c.15-.01-.61-2.16-1.14-2.32z"/>
      <path class="cls-63" d="M27.48 32.48c-2.2-6.36-1.47-15.81 2.69-20.71 1.48-1.73 6.28-5.3 9-2.44.33-.82.65-1.47 1-2.25a29.84 29.84 0 00-8.69 1.43c-5.13 1.73-9 5.85-11.45 10.59-4.08 8-4.75 18.86.58 26.45.33.46 2.54 1.61 5.47.63 3.68-1.25 3.6-7.34 1.4-13.7z"/>
      <path class="cls-64" d="M24.79 15.67a30.38 30.38 0 00-4.52 11.79 25.1 25.1 0 00.45 10.22 33 33 0 01-.34-9.68 38.41 38.41 0 014.41-12.33z"/>
      <path class="cls-64" d="M24.67 19.83a6 6 0 00-2.1-.27 5.84 5.84 0 00-1.85.36 14.26 14.26 0 011.71-.18 13.3 13.3 0 012.24.09zM22.46 28.81a5.59 5.59 0 00-2.05-.53 6 6 0 00-1.89.12 14.48 14.48 0 011.72 0 11.67 11.67 0 012.22.41z"/>
      <path class="cls-56" d="M54.63 66.79a10.54 10.54 0 01-3.27-.08c-.36-.08-1.88-.74-2.17-.34s1.52 1.1 1.75 1.13a7.34 7.34 0 003.72-.29c.17-.06.79-.19.88-.4s-.89-.02-.91-.02zM44.13 7.28c.54-1.9 1.82-2.59 3.25-1a.56.56 0 00-.05.08c-2-.9-2 3.63-2 4.6.12 2 .48 4.51 1.87 6.11.77.88 2.1 1.64 3 .49 1.18-1.55.62-4.13.12-5.81-.5-2.14-1.67-5.29-3.63-6.54a1.48 1.48 0 00-2.11.36 4.05 4.05 0 00-.64 1.68A8.52 8.52 0 0143.8 9a10.11 10.11 0 00.33-1.72zM76.88 34.31a5.37 5.37 0 00-.44-1.41c-.15-.4-.32-.8-.48-1.2l-.28.15q.63 1.22 1.2 2.46zM35.21 46.82c-.27.27-.22 2.11.18 2.12.13 0 .16-1.45.21-1.61s.41-.63.25-.72-.51.08-.64.21zM66 43a39.62 39.62 0 01-4.64 2.68 37.41 37.41 0 01-5.11 1.49 48.84 48.84 0 01-12.22 1.47 8.4 8.4 0 00-2.14-.11l-3.15-.33c-.59-.07-2-.5-2.54-.22a11.56 11.56 0 002.22 1 21 21 0 004 4.13 19.45 19.45 0 014 4.61 19 19 0 012.44 5.25c.48 1.92 1.64 3.28 3.78 3 4-.58 7.65-4.59 9.9-7.68a14.06 14.06 0 002.6-5.79 12.25 12.25 0 000-3.87 7 7 0 00-.75-2.74C66.46 44.73 67.38 42.2 66 43zM67.57 42.09c-.13 0-.73 0-.63.27s.6.45.77.62.75 1.45 1 1.43c.15-.01-.61-2.16-1.14-2.32z"/>
      <path class="cls-65" d="M59.28 17.32C62 19.76 74 32.73 74 32.73s.72-.35 1.73-.88a53.81 53.81 0 00-7.83-11.34 41.84 41.84 0 00-8.78-7.32c-.89 1.55-.99 3.08.16 4.13z"/>
      <path class="cls-66" d="M74.5 9.75a4.41 4.41 0 011.09 1.47c3.84-1.55 8.24-.46 9.63 3.75 1.33 4-2.07 8.3-4.94 10.72.48.93.65 1.54.4 1.66l-1-1.2a21.16 21.16 0 01-2.1 1.46 21.61 21.61 0 01-2.8 1.6c.41.82.79 1.65 1.15 2.49a33.43 33.43 0 005.82-3.62c4-3.77 6.71-12.22 4.47-16.41a13.47 13.47 0 00-2.91-1.9 11.76 11.76 0 00-8.81-.02z"/>
      <path class="cls-67" d="M74.5 9.75a4.41 4.41 0 011.09 1.47c3.84-1.55 8.24-.46 9.63 3.75 1.33 4-2.07 8.3-4.94 10.72.48.93.65 1.54.4 1.66l-1-1.2a21.16 21.16 0 01-2.1 1.46 21.61 21.61 0 01-2.8 1.6c.41.82.79 1.65 1.15 2.49.2-3.38 5.5-1.59 6.31-2.89 1.22-1.95 6.6-10.27 4.16-15.65-.91-.77-1.66-2.21-2.69-2.69a12.9 12.9 0 00-9.21-.72z"/>
      <path class="cls-56" d="M67.71 43c.18.19.75 1.45 1 1.43.11 0-.65-2.16-1.18-2.32-.13 0-.73 0-.63.27s.64.43.81.62zM44.13 7.28c.54-1.9 1.82-2.59 3.25-1a.56.56 0 00-.05.08c-2-.9-2 3.63-2 4.6.12 2 .48 4.51 1.87 6.11.77.88 2.1 1.64 3 .49 1.18-1.55.62-4.13.12-5.81-.5-2.14-1.67-5.29-3.63-6.54a1.48 1.48 0 00-2.11.36 4.05 4.05 0 00-.64 1.68A8.52 8.52 0 0143.8 9a10.11 10.11 0 00.33-1.72zM35.21 46.82c-.27.27-.22 2.11.18 2.12.13 0 .16-1.45.21-1.61s.41-.63.25-.72-.51.08-.64.21zM78.84 74.8a35.5 35.5 0 006.79-1.69c0-.13.06-.21.06-.21a40.56 40.56 0 01-5 .94 20 20 0 01-5.83.12c.13.29.25.59.37.89a12.2 12.2 0 003.61-.05zM73 69a7.13 7.13 0 00-2.63-.89c-.62-.12-1.24-.22-1.87-.3A12.56 12.56 0 0172.38 70a11.56 11.56 0 011.08 1.38c.21-1.07.23-2.2-.46-2.38zM52.64 65.9c4-.58 7.65-4.59 9.9-7.68a14.06 14.06 0 002.6-5.79 12.25 12.25 0 000-3.87 7 7 0 00-.75-2.74c2-1.09 3-3.62 1.61-2.84a39.62 39.62 0 01-4.64 2.68 37.41 37.41 0 01-5.11 1.49 48.84 48.84 0 01-12.22 1.47 8.4 8.4 0 00-2.14-.11l-3.15-.33c-.59-.07-2-.5-2.54-.22a11.56 11.56 0 002.22 1 21 21 0 004 4.13 19.45 19.45 0 014 4.61 19 19 0 012.44 5.25c.48 1.9 1.64 3.26 3.78 2.95zM49.19 66.37c-.37.49 1.19 1 1.65 1.11a5.34 5.34 0 01.79-.71l-.27-.06c-.36-.08-1.88-.71-2.17-.34z"/>
      <path class="cls-68" d="M72.84 73.37a8.61 8.61 0 002 .59 16.8 16.8 0 00-1.39-2.57 8.78 8.78 0 01-.61 1.98z"/>
      <path class="cls-69" d="M107 78.71c-.49 8.81-11.5 18.59-17.37 19.81s-4.89 2-10.52-1.46-19.34-6.61-17.39-4.16-.48 7.58-2.44 2.93-5.87-7.33-1.47-8.07 10-4.89 9.3-8.56.73-6.36 2.44-3.91 8.56 11.74 7.58 6.6a40.17 40.17 0 00-1.91-7 34.7 34.7 0 01-4.38-1.38 11.29 11.29 0 013.48 5 17.5 17.5 0 00-13.48-7.82 4.74 4.74 0 013.37 1.83 3.22 3.22 0 01-.26 3.75c-1.32 1.43-3.08 1.62-4.93 1.68 2 0 4.41 0 5.09 2.24a4.43 4.43 0 01-2.59 5.26 10 10 0 01-6.91.29c-2.21-.63-2.31-2.16-2.33-4.2a26.37 26.37 0 001.24 8.73A24.9 24.9 0 0057 98a5.1 5.1 0 005.82 2 23 23 0 006.65-3.65 24.32 24.32 0 01-3.33-1c-.14 0-1.36-.54-.72-.7a9.82 9.82 0 013.33.09 17.72 17.72 0 012.79.58c2 .64 6 2.34 8.3 3.33-1.61-.33-6.9-1.42-9.41-2.14h-.08a21.61 21.61 0 01-5.24 4c-1.44.84-3 1.63-4.75 1.23-3.36-.74-5.36-4.86-6.6-7.66a31.09 31.09 0 01-3.34-.26 12.22 12.22 0 01-1.72-.9c-.09.15-.19.3-.29.45a17.12 17.12 0 01-5 4.85A27 27 0 0146 109c.07 3.1-.3 6.59-1.91 9.31a49.93 49.93 0 0015.81-9.11c-.4 2-2 3.36-3.6 4.57 6.93 2.65 14.16 2.16 21.32.78 6.34-1.22 13.14-3 18.58-6.59a44.1 44.1 0 0012.3-11.74 25.93 25.93 0 003.95-13.11A27.08 27.08 0 00108.88 68 54 54 0 0097.7 54.84c3.16 5.04 9.76 15.07 9.3 23.87z"/>
      <path class="cls-70" d="M109.18 76.75c-.49 8.81-4.14 18.48-9.3 21.53-5.38 3.18-15.16 2.2-20.79-1.22s-19.32-6.61-17.37-4.16-.48 7.58-2.44 2.93-5.87-7.33-1.47-8.07 10-4.89 9.3-8.56.73-6.36 2.44-3.91 9.71 8.53 7.26 3.91c-2-3.83 2-2.69 3.67-4.65a15.65 15.65 0 01-6.12.09c-1.45-.39-2.11-.72-3.55-1.17a11.29 11.29 0 013.48 5 17.5 17.5 0 00-13.48-7.82 4.74 4.74 0 013.37 1.83 3.22 3.22 0 01-.26 3.75c-1.32 1.43-3.08 1.62-4.93 1.68 2 0 4.41 0 5.09 2.24a4.43 4.43 0 01-2.59 5.26 10 10 0 01-6.91.29c-2.21-.63-2.31-2.16-2.33-4.2a26.37 26.37 0 001.24 8.73A24.9 24.9 0 0057 98a5.1 5.1 0 005.82 2 23 23 0 006.65-3.65 24.32 24.32 0 01-3.33-1c-.14 0-1.36-.54-.72-.7a9.82 9.82 0 013.33.09 17.72 17.72 0 012.79.58c2 .64 6 2.34 8.3 3.33-1.61-.33-6.9-1.42-9.41-2.14h-.08a21.61 21.61 0 01-5.24 4c-1.44.84-3 1.63-4.75 1.23-3.36-.74-5.36-4.86-6.6-7.66a31.09 31.09 0 01-3.34-.26 12.22 12.22 0 01-1.72-.9c-.09.15-.19.3-.29.45a17.12 17.12 0 01-5 4.85A27 27 0 0146 109c.07 3.1-.3 6.59-1.91 9.31a49.93 49.93 0 0015.81-9.11c-.4 2-2 3.36-3.6 4.57 6.93 2.65 14.16 2.16 21.32.78 6.34-1.22 13.14-3 18.58-6.59a44.1 44.1 0 0012.3-11.74 25.93 25.93 0 003.95-13.11A27.08 27.08 0 00108.88 68 54 54 0 0097.7 54.84c3.16 5.04 11.97 13.16 11.48 21.91z"/>
      <path class="cls-71" d="M44.21 79.46a28.06 28.06 0 018-7.07c.91-2.51 3.78-3.34 6.21-3.3a11.51 11.51 0 013.86-1.51 23.94 23.94 0 013.88 0c.78.05 1.57.13 2.34.23-4.92-2.07-13-3.92-16.91-1a11.15 11.15 0 003 0s.94-.07.91 0-.71.34-.88.4a7.34 7.34 0 01-3.72.29h-.1a5.26 5.26 0 00-1.1 1.94c-1.12 3.56-4.34 5.8-7.7 8.13a13.35 13.35 0 012.21 1.89z"/>
      <path class="cls-72" d="M97.7 54.84a14.49 14.49 0 012.87 1.54c-.85-1.49-1.62-3-2.33-4.52-1.33.26-1.69 1.14-.54 2.98z"/>
      <path class="cls-56" d="M97.7 54.84l.53.47c0-.09 0-.18-.07-.28zM44.13 7.28c.54-1.9 1.82-2.59 3.25-1a.56.56 0 00-.05.08c-2-.9-2 3.63-2 4.6.12 2 .48 4.51 1.87 6.11.77.88 2.1 1.64 3 .49 1.18-1.55.62-4.13.12-5.81-.5-2.14-1.67-5.29-3.63-6.54a1.48 1.48 0 00-2.11.36 4.05 4.05 0 00-.64 1.68A8.52 8.52 0 0143.8 9a10.11 10.11 0 00.33-1.72zM100.05 21.56a9.19 9.19 0 00-5.92 1 16.89 16.89 0 015.92-1zM93.34 48.3c.15-.25.3-.52.45-.79l-.14-.16c-.1.31-.2.65-.31.95zM90.8 25c-.29.28-.57.58-.85.88.27-.24.55-.46.83-.69a1.37 1.37 0 01.02-.19zM66 43a39.62 39.62 0 01-4.64 2.68 37.41 37.41 0 01-5.11 1.49 48.84 48.84 0 01-12.22 1.47 8.4 8.4 0 00-2.14-.11l-3.15-.33c-.59-.07-2-.5-2.54-.22a11.56 11.56 0 002.22 1 21 21 0 004 4.13 19.45 19.45 0 014 4.61 19 19 0 012.44 5.25c.48 1.92 1.64 3.28 3.78 3 4-.58 7.65-4.59 9.9-7.68a14.06 14.06 0 002.6-5.79 12.25 12.25 0 000-3.87 7 7 0 00-.75-2.74C66.46 44.73 67.38 42.2 66 43zM67.57 42.09c-.13 0-.73 0-.63.27s.6.45.77.62.75 1.45 1 1.43c.15-.01-.61-2.16-1.14-2.32zM35.21 46.82c-.27.27-.22 2.11.18 2.12.13 0 .16-1.45.21-1.61s.41-.63.25-.72-.51.08-.64.21zM54.63 66.79a10.54 10.54 0 01-3.27-.08c-.36-.08-1.88-.74-2.17-.34s1.52 1.1 1.75 1.13a7.34 7.34 0 003.72-.29c.17-.06.79-.19.88-.4s-.89-.02-.91-.02z"/>
      <path class="cls-73" d="M102.82 22.21a6.09 6.09 0 00-2.77-.65h.24c2 .39 3.33 2 1.64 3.77s-4.22 1-6.06.11a14 14 0 01.65 3.32 3.93 3.93 0 012.69-.95c1.28.13 2.34.47 3.55-.24a4.21 4.21 0 002.12-3.78 8.8 8.8 0 00-2.06-1.58z"/>
      <path class="cls-74" d="M102.82 22.21a6.09 6.09 0 00-2.77-.65h.24c2 .39 3.33 2 1.64 3.77s-4.22 1-6.06.11a14 14 0 01.65 3.32 3.93 3.93 0 012.69-.95c1.28.13 2.34.47 3.55-.24a4.21 4.21 0 002.12-3.78 8.8 8.8 0 00-2.06-1.58z"/>
      <path class="cls-75" d="M91.08 24.41a2.12 2.12 0 00-.28.58 14.47 14.47 0 013.33-2.44 6.25 6.25 0 00-3.05 1.86z"/>
      <path class="cls-76" d="M93.82 23.31a17.61 17.61 0 00-3 1.87c0 .91 2.09.84 2.5 6.08a151.25 151.25 0 010 15.65l.37.44a39.1 39.1 0 001.68-11.09 39.58 39.58 0 00-1.55-12.95z"/>
      <path class="cls-74" d="M93.82 23.31a17.61 17.61 0 00-3 1.87c0 .91 2.09.84 2.5 6.08a151.25 151.25 0 010 15.65l.37.44a39.1 39.1 0 001.68-11.09 39.58 39.58 0 00-1.55-12.95z"/>
      <path class="cls-77" d="M95.35 44.13a27.54 27.54 0 01-1.56 3.38l2.42 2.83a13.92 13.92 0 012 4.69 15.8 15.8 0 012.41 1.35 56.32 56.32 0 01-5.27-12.25z"/>
      <path class="cls-74" d="M95.35 44.13a27.54 27.54 0 01-1.56 3.38l2.42 2.83a13.92 13.92 0 012 4.69 15.8 15.8 0 012.41 1.35 56.32 56.32 0 01-5.27-12.25z"/>
      <path class="cls-56" d="M35.21 46.82c-.27.27-.22 2.11.18 2.12.13 0 .16-1.45.21-1.61s.41-.63.25-.72-.51.08-.64.21zM44.13 7.28c.54-1.9 1.82-2.59 3.25-1a.56.56 0 00-.05.08c-2-.9-2 3.63-2 4.6.12 2 .48 4.51 1.87 6.11.77.88 2.1 1.64 3 .49 1.18-1.55.62-4.13.12-5.81-.5-2.14-1.67-5.29-3.63-6.54a1.48 1.48 0 00-2.11.36 4.05 4.05 0 00-.64 1.68A8.52 8.52 0 0143.8 9a10.11 10.11 0 00.33-1.72zM85.63 73.11c0-.13.06-.21.06-.21-.64.17-1.28.31-1.93.44a1.82 1.82 0 01.44.24zM60.37 101.76c1.71.4 3.31-.39 4.75-1.23a21.61 21.61 0 005.24-4h.08c2.51.72 7.8 1.81 9.41 2.14-2.27-1-6.27-2.69-8.3-3.33a17.72 17.72 0 00-2.79-.58 9.82 9.82 0 00-3.33-.09c-.64.16.58.65.72.7a24.32 24.32 0 003.33 1 23 23 0 01-6.67 3.63A5.1 5.1 0 0157 98a15.81 15.81 0 01-1.76-3l-.83.45c1.28 2.61 3.14 5.64 5.96 6.31zM67.57 42.09c-.13 0-.73 0-.63.27s.6.45.77.62.75 1.45 1 1.43c.15-.01-.61-2.16-1.14-2.32zM66 43a39.62 39.62 0 01-4.64 2.68 37.41 37.41 0 01-5.11 1.49 48.84 48.84 0 01-12.22 1.47 8.4 8.4 0 00-2.14-.11l-3.15-.33c-.59-.07-2-.5-2.54-.22a11.56 11.56 0 002.22 1 21 21 0 004 4.13 19.45 19.45 0 014 4.61 19 19 0 012.44 5.25c.48 1.92 1.64 3.28 3.78 3 4-.58 7.65-4.59 9.9-7.68a14.06 14.06 0 002.6-5.79 12.25 12.25 0 000-3.87 7 7 0 00-.75-2.74C66.46 44.73 67.38 42.2 66 43z"/>
      <path class="cls-78" d="M41.31 74.56c-.17.72-.32 1.45-.46 2.18a25.78 25.78 0 013.36 2.72 28.06 28.06 0 018-7.07c.91-2.51 3.78-3.34 6.21-3.3a11.51 11.51 0 013.86-1.51 23.94 23.94 0 013.88 0 31.46 31.46 0 014.21.53A7.13 7.13 0 0173 69c1.17.34.16 3.71-.2 4.38 2.41 1.07 5.3.79 7.84.47 1-.13 2.06-.3 3.08-.5s-5.87-4.4-8.81-6.11-12-2.7-13.94-2a106.87 106.87 0 00-12.72 6.85c-1.68 1.26-3.91 0-5.12-3.83-.47 1.36-.9 2.72-1.28 4.1a2.62 2.62 0 01-.54 2.2z"/>
      <path class="cls-79" d="M41.31 74.56c-.17.72-.32 1.45-.46 2.18a25.78 25.78 0 013.36 2.72 28.06 28.06 0 018-7.07c.91-2.51 3.78-3.34 6.21-3.3a11.51 11.51 0 013.86-1.51 23.94 23.94 0 013.88 0 31.46 31.46 0 014.21.53A7.13 7.13 0 0173 69c1.17.34.16 3.71-.2 4.38 2.41 1.07 5.3.79 7.84.47-2.4-.48-5.83-.1-5.58-2 .29-2.27 4.52-4.63-7.26-5.46a25.26 25.26 0 00-14.68 3.26 80.08 80.08 0 00-8 5.22c-3.26 1.79-2.92-3.88-3.3-2.5a2.62 2.62 0 01-.51 2.19z"/>
      <path class="cls-56" d="M54.63 66.79a10.54 10.54 0 01-3.27-.08c-.36-.08-1.88-.74-2.17-.34s1.52 1.1 1.75 1.13a7.34 7.34 0 003.72-.29c.17-.06.79-.19.88-.4s-.89-.02-.91-.02z"/>
      <path class="cls-80" d="M83.46 14.35a5.4 5.4 0 00-4.38-2.75 5.35 5.35 0 01.82 8.15c-.82.82-1.52 1.47-2.1 2 .68 1 1.34 2 1.94 3 2.64-2.43 5.7-6.75 3.72-10.4z"/>
      <path class="cls-74" d="M83.46 14.35a5.4 5.4 0 00-4.38-2.75c5.75 1.75 5.06 6.93 2.61 9.38-.82.81-1.51 2.36-3.89.75.68 1 1.34 2 1.94 3 2.64-2.41 5.7-6.73 3.72-10.38z"/>
      <path class="cls-81" d="M77.59 38.34c2.61-5 7.48-7.69 10.87-5.93s4 7.27 1.43 12.31-7.48 7.69-10.89 5.93-4-7.27-1.41-12.31z"/>
      <path class="cls-56" d="M54.63 66.79a10.54 10.54 0 01-3.27-.08c-.36-.08-1.88-.74-2.17-.34s1.52 1.1 1.75 1.13a7.34 7.34 0 003.72-.29c.17-.06.79-.19.88-.4s-.89-.02-.91-.02zM35.21 46.82c-.27.27-.22 2.11.18 2.12.13 0 .16-1.45.21-1.61s.41-.63.25-.72-.51.08-.64.21zM38.85 10.83l-.08.27.17.42c.21-.59.43-1.19.66-1.79l-.3.49a2.76 2.76 0 01-.45.61zM44.13 7.28c.54-1.9 1.82-2.59 3.25-1a.56.56 0 00-.05.08c-2-.9-2 3.63-2 4.6.12 2 .48 4.51 1.87 6.11.77.88 2.1 1.64 3 .49 1.18-1.55.62-4.13.12-5.81-.5-2.14-1.67-5.29-3.63-6.54a1.48 1.48 0 00-2.11.36 4.05 4.05 0 00-.64 1.68A8.52 8.52 0 0143.8 9a10.11 10.11 0 00.33-1.72zM66 43a39.62 39.62 0 01-4.64 2.68 37.41 37.41 0 01-5.11 1.49 48.84 48.84 0 01-12.22 1.47 8.4 8.4 0 00-2.14-.11l-3.15-.33c-.59-.07-2-.5-2.54-.22a11.56 11.56 0 002.22 1 21 21 0 004 4.13 19.45 19.45 0 014 4.61 19 19 0 012.44 5.25c.48 1.92 1.64 3.28 3.78 3 4-.58 7.65-4.59 9.9-7.68a14.06 14.06 0 002.6-5.79 12.25 12.25 0 000-3.87 7 7 0 00-.75-2.74C66.46 44.73 67.38 42.2 66 43zM67.57 42.09c-.13 0-.73 0-.63.27s.6.45.77.62.75 1.45 1 1.43c.15-.01-.61-2.16-1.14-2.32z"/>
      <path class="cls-82" d="M46.24 2.33c-1.67-.1-3 1.21-4 2.44a21.2 21.2 0 00-2.68 5c1.75-2.77 3.59-5.61 5.29-6.15a5.31 5.31 0 015.87 2.53 7.35 7.35 0 00.75 1L51 6.32c-1-1.66-2.6-3.86-4.76-3.99z"/>
      <path class="cls-63" d="M46.24 2.33c-1.67-.1-3 1.21-4 2.44a21.2 21.2 0 00-2.68 5c1.75-2.77 3.59-5.61 5.29-6.15a5.31 5.31 0 015.87 2.53 7.35 7.35 0 00.75 1L51 6.32c-1-1.66-2.6-3.86-4.76-3.99z"/>
      <path class="cls-83" d="M21.2 87.6c-.24-1.47 3.35-3.34 6.69-4a3.87 3.87 0 00.68-.23 20.6 20.6 0 00-6.15 1.92c-.78.41-1.82 1-2 2-.33 1.92 3.2 2.72 4.52 3l.06-.12c-1.6-.7-3.57-1.17-3.8-2.57z"/>
      <path class="cls-84" d="M49.76 87.77a8.45 8.45 0 01-2 1.35A23.81 23.81 0 0142.35 91c-7.05 2.4-9.7 4.79-8.1 6.23a20.24 20.24 0 003.31 2.26c5.95-1.1 11.5-5.36 12.2-11.72z"/>
      <path class="cls-85" d="M42.35 91a41.36 41.36 0 01-4.5.74 38.62 38.62 0 01-10.79-.21 2.69 2.69 0 00-.8 2.5c.33 1 1.63 1.53 2.44 2 1.56.92 3.86 1.93 4.66 3.67h.94a17.15 17.15 0 003.26-.27 20.24 20.24 0 01-3.31-2.26c-1.6-1.39 1.05-3.78 8.1-6.17z"/>
      <path class="cls-86" d="M42.35 91a41.36 41.36 0 01-4.5.74 38.62 38.62 0 01-10.79-.21 2.69 2.69 0 00-.8 2.5c.33 1 1.63 1.53 2.44 2 1.56.92 3.86 1.93 4.66 3.67h.94a17.15 17.15 0 003.26-.27 27 27 0 01-4.13-2.26c-1.6-1.39.33-3.54 8.92-6.17z"/>
      <path class="cls-87" d="M59.47 70.69c-1.7-.18-5 .2-5.95 1.88a3.11 3.11 0 00-.38 1.43 5.67 5.67 0 012.47-2.38 10.17 10.17 0 016.2.16 1.71 1.71 0 00.61.11 4.69 4.69 0 00-2.95-1.2z"/>
      <path class="cls-88" d="M59.47 70.69c-1.7-.18-5 .2-5.95 1.88a3.11 3.11 0 00-.38 1.43 5.67 5.67 0 012.47-2.38 10.17 10.17 0 016.2.16 1.71 1.71 0 00.61.11 4.69 4.69 0 00-2.95-1.2z"/>
    </g>
  </g>
</svg>
