<svg xmlns="http://www.w3.org/2000/svg" xmlns:xlink="http://www.w3.org/1999/xlink" viewBox="0 0 206.42 159.25">
  <defs>
    <radialGradient id="radial-gradient" cx="-35.81" cy="-64.88" r="63.5" gradientTransform="matrix(1.05 -.01 .01 1.06 179.83 174.69)" gradientUnits="userSpaceOnUse">
      <stop offset="0" stop-color="#a6cfe8"/>
      <stop offset="1" stop-color="#4f99cf"/>
    </radialGradient>
    <radialGradient id="radial-gradient-2" cx="-35.82" cy="-64.9" r="63.47" gradientTransform="matrix(1.05 -.01 .01 1.06 179.83 174.69)" gradientUnits="userSpaceOnUse">
      <stop offset="0" stop-color="#8eb8d2"/>
      <stop offset="1" stop-color="#3681b8"/>
    </radialGradient>
    <radialGradient id="radial-gradient-3" cx="-76.34" cy="-44.66" r="4.2" gradientTransform="matrix(1.05 -.01 .01 1.06 179.83 174.69)" gradientUnits="userSpaceOnUse">
      <stop offset="0" stop-color="#fff0da"/>
      <stop offset="1" stop-color="#d3b98a"/>
    </radialGradient>
    <radialGradient id="radial-gradient-4" cx="-35.81" cy="-64.9" r="63.48" xlink:href="#radial-gradient"/>
    <radialGradient id="radial-gradient-5" cx="-35.75" cy="-64.89" r="63.54" xlink:href="#radial-gradient"/>
    <radialGradient id="radial-gradient-6" cx="-79.64" cy="-40.52" r="20.25" gradientTransform="matrix(1.05 -.01 .01 1.06 179.83 174.69)" gradientUnits="userSpaceOnUse">
      <stop offset="0" stop-color="#cde3f2"/>
      <stop offset="1" stop-color="#9cc3e4"/>
    </radialGradient>
    <radialGradient id="radial-gradient-7" cx="-81.37" cy="-43.43" r="3.06" xlink:href="#radial-gradient-3"/>
    <radialGradient id="radial-gradient-8" cx="-35.81" cy="-64.9" r="63.48" xlink:href="#radial-gradient-2"/>
    <radialGradient id="radial-gradient-9" cx="-35.82" cy="-64.9" r="63.49" xlink:href="#radial-gradient"/>
    <radialGradient id="radial-gradient-10" cx="-71.75" cy="-91.26" r="49.57" gradientTransform="matrix(1.05 -.01 .01 1.06 179.83 174.69)" gradientUnits="userSpaceOnUse">
      <stop offset="0" stop-color="#9edbff"/>
      <stop offset="1" stop-color="#4f99cf"/>
    </radialGradient>
    <radialGradient id="radial-gradient-11" cx="-79.64" cy="-40.52" r="20.25" xlink:href="#radial-gradient-6"/>
    <radialGradient id="radial-gradient-12" cx="-65.97" cy="-44.86" r="4.15" xlink:href="#radial-gradient-3"/>
    <radialGradient id="radial-gradient-13" cx="-60.84" cy="-46.1" r="6.86" xlink:href="#radial-gradient-3"/>
    <radialGradient id="radial-gradient-14" cx="-35.81" cy="-64.89" r="63.48" xlink:href="#radial-gradient"/>
    <radialGradient id="radial-gradient-15" cx="-35.82" cy="-64.9" r="63.47" xlink:href="#radial-gradient"/>
    <radialGradient id="radial-gradient-16" cx="-35.81" cy="-64.9" r="63.48" xlink:href="#radial-gradient"/>
    <radialGradient id="radial-gradient-17" cx="-35.81" cy="-64.91" r="63.48" xlink:href="#radial-gradient"/>
    <radialGradient id="radial-gradient-18" cx="-71.74" cy="-91.26" r="49.57" xlink:href="#radial-gradient"/>
    <radialGradient id="radial-gradient-19" cx="-71.71" cy="-91.28" r="49.55" xlink:href="#radial-gradient"/>
    <radialGradient id="radial-gradient-20" cx="-71.75" cy="-91.26" r="49.57" xlink:href="#radial-gradient"/>
    <radialGradient id="radial-gradient-21" cx="-71.63" cy="-91.25" r="49.47" xlink:href="#radial-gradient"/>
    <radialGradient id="radial-gradient-22" cx="-71.75" cy="-91.26" r="49.58" xlink:href="#radial-gradient"/>
    <radialGradient id="radial-gradient-23" cx="-71.75" cy="-91.26" r="49.58" xlink:href="#radial-gradient"/>
    <radialGradient id="radial-gradient-24" cx="-71.75" cy="-91.21" r="49.52" xlink:href="#radial-gradient"/>
    <radialGradient id="radial-gradient-25" cx="-71.75" cy="-91.27" r="49.58" xlink:href="#radial-gradient-10"/>
    <linearGradient id="linear-gradient" x1="25.11" y1="200.53" x2="49.32" y2="60.65" gradientTransform="rotate(-.44 -2765.814 -3740.091)" gradientUnits="userSpaceOnUse">
      <stop offset=".01" stop-color="#f8ecd6"/>
      <stop offset=".5" stop-color="#fae3b5"/>
      <stop offset=".99" stop-color="#c4a05a"/>
    </linearGradient>
    <linearGradient id="linear-gradient-2" x1="20.61" y1="-43.03" x2="20.61" y2="44.66" gradientTransform="rotate(-.44 -2765.814 -3740.091)" gradientUnits="userSpaceOnUse">
      <stop offset=".01" stop-color="#fffffb"/>
      <stop offset=".26" stop-color="#fffff9"/>
      <stop offset=".39" stop-color="#fffff1"/>
      <stop offset=".49" stop-color="#ffffe3"/>
      <stop offset=".58" stop-color="#ffffd0"/>
      <stop offset=".63" stop-color="#ffffc4"/>
      <stop offset=".71" stop-color="#fdfbbf"/>
      <stop offset=".81" stop-color="#f9efb1"/>
      <stop offset=".91" stop-color="#f1db99"/>
      <stop offset="1" stop-color="#e8c57f"/>
    </linearGradient>
    <linearGradient id="linear-gradient-3" x1="172.67" y1="129.02" x2="157.97" y2="125.92" gradientTransform="rotate(-.44 -2765.814 -3740.091)" gradientUnits="userSpaceOnUse">
      <stop offset=".01" stop-color="#e0e0e0"/>
      <stop offset=".25" stop-color="#9fd5e3"/>
      <stop offset=".25" stop-color="#9ed5e3"/>
      <stop offset=".53" stop-color="#86c2d1"/>
      <stop offset=".78" stop-color="#77b6c7"/>
      <stop offset=".99" stop-color="#72b2c3"/>
    </linearGradient>
    <linearGradient id="linear-gradient-4" x1="112.79" y1="102.46" x2="133.24" y2="121.26" gradientTransform="rotate(-.44 -2765.814 -3740.091)" gradientUnits="userSpaceOnUse">
      <stop offset=".01" stop-color="#fff"/>
      <stop offset=".49" stop-color="#eef8fa"/>
      <stop offset=".99" stop-color="#90c3cf"/>
    </linearGradient>
    <linearGradient id="linear-gradient-5" x1="148.55" y1="122.15" x2="128.01" y2="106.34" gradientTransform="rotate(-.44 -2765.814 -3740.091)" gradientUnits="userSpaceOnUse">
      <stop offset=".01" stop-color="#fff"/>
      <stop offset=".25" stop-color="#c1ecf6"/>
      <stop offset=".29" stop-color="#bce8f2"/>
      <stop offset=".55" stop-color="#a4d4df"/>
      <stop offset=".79" stop-color="#95c7d3"/>
      <stop offset=".99" stop-color="#90c3cf"/>
    </linearGradient>
    <linearGradient id="linear-gradient-6" x1="156.92" y1="149.43" x2="152.53" y2="131.87" xlink:href="#linear-gradient-3"/>
    <style>
      .cls-1{fill:url(#linear-gradient)}.cls-2{fill:url(#linear-gradient-2)}.cls-3,.cls-39,.cls-8{fill:#fff}.cls-3{opacity:.55}.cls-4{fill:#b87b04;opacity:.28}.cls-5{fill:url(#radial-gradient)}.cls-6{fill:url(#radial-gradient-2)}.cls-7{fill:url(#radial-gradient-3)}.cls-9{fill:url(#radial-gradient-4)}.cls-10{fill:url(#radial-gradient-5)}.cls-11{fill:url(#radial-gradient-6)}.cls-12{fill:url(#radial-gradient-7)}.cls-13{fill:url(#radial-gradient-8)}.cls-14{fill:url(#linear-gradient-3)}.cls-15{fill:url(#linear-gradient-4)}.cls-16{fill:#1a4159}.cls-17{fill:url(#linear-gradient-5)}.cls-18{fill:url(#radial-gradient-9)}.cls-19{fill:url(#radial-gradient-10)}.cls-20{fill:url(#linear-gradient-6)}.cls-21{fill:url(#radial-gradient-11)}.cls-22{fill:url(#radial-gradient-12)}.cls-23{fill:url(#radial-gradient-13)}.cls-24{fill:url(#radial-gradient-14)}.cls-25{fill:url(#radial-gradient-15)}.cls-26{fill:url(#radial-gradient-16)}.cls-27{fill:url(#radial-gradient-17)}.cls-28{fill:none}.cls-29{fill:#1b1b1b}.cls-30{fill:#6589a9}.cls-31{fill:url(#radial-gradient-18)}.cls-32{fill:#355061;opacity:.18}.cls-33{fill:url(#radial-gradient-19)}.cls-34{fill:url(#radial-gradient-20)}.cls-35{fill:url(#radial-gradient-21)}.cls-36{fill:url(#radial-gradient-22)}.cls-37{fill:url(#radial-gradient-23)}.cls-38{fill:url(#radial-gradient-24)}.cls-39{opacity:.39}.cls-40{fill:#21313d}.cls-41{fill:#608ca6}.cls-42{fill:url(#radial-gradient-25)}
    </style>
  </defs>
  <g id="Слой_2" data-name="Слой 2">
    <g id="Слой_1-2" data-name="Слой 1">
      <path class="cls-1" d="M108.17 86.33c1.92.85 8 3.86 9.6 4.71.54-1.36 2-5.18 2.46-6.71 5.52-20.22 6.63-53.6-2.44-68.81C109.3 1.3 100.2-.82 92.61 4.77a24.73 24.73 0 00-4.15 4.36C84.1 15 84 20.35 86.06 23.49c1.46 2.24 4.54 5.42 8.17 6 3.89.65 7.33-.37 5.75 1-3.07 2.71-5.35 4-16 2.87s-34-4.19-43.55-4.21a115.89 115.89 0 00-20.91 1.64 44.14 44.14 0 017.06 15.86c.7 3.08.28 7.56.43 10.57 1.56.12 4.12-.7 6.09-1.12 5.41-1.14 4-.68 8.25-1 6.27-.4-2.56 3.47-5.89 4.17a34.43 34.43 0 00-7.69 2.93c0 10.5-2.56 20.5-4.77 33.21-3.73 20.64-9.81 30.35-13.48 37.12-3.9 7.09-1.49 6.49 1.16 6.1 7.35-1.06 21.5-2.91 47.11 4 10.28 2.74 18.73 5.62 27.67 6.6.18-.68-1.07-1.64-1.46-2.14-1.11-1.43-3.93-5.42-2.27-4.64s-.27-6.92 1.21-5.12 3.71 6.82 6.44 9.37c.82.75 2.83 2.7 4.25 3.82a131 131 0 0015.33.27c3.88-.07 11.52-2.06 11.52-2.06-3.91-5.06-3.77-3.2-9.26-15-4.71-10.32-5.17-16.38 3.25-37.33-.5-.51-2.53-1.89-3.85-3.08-2.77-2.32-6.17-8.64-2.45-6.99z"/>
      <path class="cls-2" d="M39.3 28.29c9.45 0 31.7 2.6 42.17 3.69s13.68.94 15.86-.6c1.71-1.23-.38-.2-4.1-1.22s-6.6-4.32-8-6.51c-2-3-2.61-9.1 1.69-14.84l.24-.32c4.08-5.49 7.3-6.72 7.3-6.72s-.26 0-.78.07a95.64 95.64 0 00-11.11 2c-8 1.88-14 2.43-24 4.29S32.11 10.16 23 8s-13.53.1-18.34 4.67a11.17 11.17 0 00-2.32 12.8c1.81 3.33 5.28 6.93 7.34 7.7.75.28 2.69-1.37 6.92-2.77l.39-.12c.47-.13 1.08-.28 1.81-.43a108.09 108.09 0 0120.5-1.56z"/>
      <path d="M111.79 90c1.8 1.09 5 2.81 6.6 3.65.54-1.36.91-2.48 1.52-4 8.1-20.28 10.35-55.08-.8-75.08-6.71-12-13.28-16-21.22-14.22a87.48 87.48 0 00-14.14 2.12C75.64 4.4 69.21 5.16 59 7.08S31.56 8.8 22.33 6.64 8.48 7 3.6 11.68s-3.69 12-2.65 14C2.76 29.1 7.79 34 9.87 34.83c.77.28 2.5-1.84 6.79-3.28.25-.09.57-.18.95-.28A59.11 59.11 0 0125 49.3a53.7 53.7 0 011.25 9.12 18.85 18.85 0 005.36-.25c5.41-1.15 2.46-.72 6.66-1.41s-.26.82-3.6 1.52a40.82 40.82 0 00-8.34 3.19c0 10.5-2.66 21.1-4.89 33.81-3.74 20.64-10.37 31.43-14 38.2-3.91 7.09-1.74 8.14.88 7.56 7.43-1.67 24.09-3.06 49.71 3.89 10.29 2.74 20.13 5.17 29.07 6.15a4 4 0 00-.54-2.57c-1.12-1.43-4.93-5.42-3.27-4.64s-.64-4.16.85-2.37 1.59 3.87 4.32 6.42c.82.76 2.7 3 4.12 4.1a153.77 153.77 0 0016.68.41c3.88-.07 14.74-2.77 14.74-2.77-3.92-5.06-4.84-4.53-10.34-16.32-4.72-10.32-5.8-16.68 2.61-37.63a23.51 23.51 0 00-2.88-2.13c-3.22-1.9-5.96-6.23-1.6-3.58zM17 30.28l-.39.12c-4.23 1.4-6.17 3.05-6.92 2.77-2.06-.77-5.53-4.37-7.34-7.7a11.17 11.17 0 012.32-12.8C9.47 8.1 13.92 5.91 23 8s25.46 2 35.54.12 16-2.41 24-4.29a95.64 95.64 0 0111.11-2c.52-.06.78-.07.78-.07S91.24 3 87.11 8.49l-.24.32c-4.3 5.74-3.71 11.79-1.69 14.84 1.45 2.19 4.34 5.49 8 6.51s5.81 0 4.1 1.22c-2.18 1.54-5.34 1.67-15.86.6s-32.67-3.65-42.12-3.69a108.09 108.09 0 00-20.5 1.56c-.73.15-1.34.3-1.8.43zm93.63 63.2c1.32 1.19 3.35 2.57 3.85 3.08-8.42 21-8 27-3.25 37.33 5.49 11.79 5.35 9.93 9.26 15 0 0-7.64 2-11.52 2.06a131 131 0 01-15.33-.27c-1.42-1.12-3.43-3.07-4.25-3.82-2.73-2.55-4.95-7.57-6.44-9.37s.45 5.89-1.21 5.12 1.16 3.21 2.27 4.64c.39.5 1.64 1.46 1.46 2.14-8.94-1-17.39-3.86-27.67-6.6-25.61-6.95-39.76-5.1-47.11-4-2.65.39-5.06 1-1.16-6.1 3.67-6.77 9.75-16.48 13.48-37.12 2.21-12.71 4.79-22.71 4.77-33.21a34.43 34.43 0 017.69-2.93c3.33-.7 12.16-4.57 5.89-4.17-4.25.28-2.84-.18-8.25 1-2 .42-4.53 1.24-6.09 1.12-.15-3 .27-7.49-.43-10.57a44.14 44.14 0 00-7.06-15.86 115.89 115.89 0 0120.91-1.64c9.58 0 32.95 3.11 43.55 4.21s12.93-.16 16-2.87c1.58-1.4-1.86-.38-5.75-1-3.63-.62-6.71-3.8-8.17-6-2-3.14-2-8.47 2.4-14.36a24.73 24.73 0 014.15-4.36c7.58-5.75 16.68-3.63 25.17 10.59 9.07 15.21 8 48.59 2.44 68.81-.42 1.53-1.92 5.35-2.46 6.71-1.59-.85-7.68-3.86-9.6-4.71-3.72-1.65-.32 4.67 2.45 7.15z"/>
      <path class="cls-3" d="M14.88 10C19 8.69 26.74 13.1 46.1 12.42S73 10.6 79.43 8.4a77 77 0 0013.7-6.5 99.93 99.93 0 00-10.56 2c-8 1.88-14 2.43-24 4.29S32.11 10.16 23 8s-13.53.1-18.34 4.67a11.17 11.17 0 00-2.32 12.8c1.81 3.33 5.28 6.93 7.34 7.7C.41 17.6 4.14 13.27 14.88 10z"/>
      <path class="cls-4" d="M96.32 150.37a90.59 90.59 0 0012.64.57c3.88-.07 11.52-2.06 11.52-2.06-3.91-5.06-3.77-3.2-9.26-15-4.71-10.32-5.17-16.38 3.25-37.33-.5-.51-2.53-1.89-3.85-3.08-2.77-2.48-6.17-8.8-2.45-7.15 1.92.85 8 3.86 9.6 4.71.54-1.36 2-5.18 2.46-6.71 5.52-20.22 6.63-53.6-2.44-68.81C109.3 1.3 100.2-.82 92.61 4.77a24.73 24.73 0 00-4.15 4.36C84.1 15 84 20.35 86.06 23.49c1.46 2.24 4.54 5.42 8.17 6 3.89.65 7.33-.37 5.75 1-3.07 2.71-5.35 4-16 2.87s-34-4.19-43.55-4.21a115.89 115.89 0 00-20.91 1.64 44.3 44.3 0 013.27 5.41c15.12-2.21 51.37.14 71 1.08C125.78 38.88 121 62.1 110 59.74c-10.73-2.29-22.48 10.83-24.8 17.95-3.37 10.39.73 21.39 12.65 27.75 10.42 5.55 10.53 20.16 3.41 19.23-10.14-1.33-11.28 5.65-11 10.94.25 3.95 4.64 13.65 6.06 14.76z"/>
      <path class="cls-5" d="M99.73 58.7c-1.49.51-2.26 2.32-2.66 4a26 26 0 017.47-1.84c-1.13-1.73-2.74-2.86-4.81-2.16z"/>
      <path class="cls-6" d="M104.62 131.68c.52.66 1 1.38 1.45 2.07a42.63 42.63 0 010-5.76 14.67 14.67 0 00-4.56-1.33c1.71 1.2 2.49 3.06 3.11 5.02z"/>
      <path class="cls-7" d="M98.29 129a7.49 7.49 0 015.15 1.53 10.16 10.16 0 00-2-3c-1.39-1.05-2.76-.2-3.15 1.47z"/>
      <path class="cls-8" d="M142.18 82.66c.4-.21.8-.43 1.2-.67 3.38-1.86 7.89-5.57 7.58-10-.35-5-6.62-5.2-10.15-4l.24-.14a16 16 0 011.75-.74c-1.29-2.37-4.32-2.39-6.57-1.67a12.94 12.94 0 00-5.08 3.15 37.48 37.48 0 0111.03 14.07zM138 70.57c1.24-.73 2.68-.76 3.22 0s0 1.86-1.28 2.6-2.68.76-3.21.06.06-1.92 1.27-2.66zm-5.31-.72c-.43-.6 0-1.57 1-2.16s2.09-.58 2.52 0 0 1.56-.95 2.15-2.11.6-2.55.01z"/>
      <path class="cls-9" d="M97.89 129a4.2 4.2 0 011.18-2.27 9 9 0 00-3.19 1 2.08 2.08 0 012.01 1.27z"/>
      <path class="cls-10" d="M92.94 130.32a2.92 2.92 0 00-.55 2.55 7.42 7.42 0 01.47-.83z"/>
      <path class="cls-11" d="M110.17 147.74a30.69 30.69 0 01-4-12.71c-1.5-2.39-3-4.72-5.92-5.45a6.2 6.2 0 00-6.15 2c-1.66 2-1.49 4.6-1.14 7a30 30 0 002.1 7.75 26.31 26.31 0 003.59 5.81c1.41 1.75 3 3.54 5.29 4.08 4.93 1.17 6.19-4.6 6.3-8.35-.01-.02-.04-.07-.07-.13z"/>
      <path class="cls-12" d="M97 129.18a1.89 1.89 0 00-2.33-.68c-1.1.42-1.28 1.68-1.14 2.73a6.94 6.94 0 013.47-2.05z"/>
      <path class="cls-8" d="M174.38 92.56c-1.6-.18 1.18 1 2.46 1.71a6.31 6.31 0 00-2.34-1.69z"/>
      <path class="cls-13" d="M108.56 156.07a14.31 14.31 0 005-3.1 27.8 27.8 0 01-2.69-3.84c-.24 2.73-1.03 5.39-2.31 6.94z"/>
      <path class="cls-14" d="M181 91a9.81 9.81 0 00-1.17 1.24 3.75 3.75 0 01-.56.79c-.72.53-2.33-.07-3.09-.2a21.52 21.52 0 015.31 9.1c1 3.52 1.64 7 4 9.91a25.34 25.34 0 007.28 5.77 28.88 28.88 0 009.77 3.52 12.42 12.42 0 01-6-2.92 13.43 13.43 0 01-3.14-3.82c-1-2.2-.77-4.75-.42-7.09a10.14 10.14 0 01.69-2.77c-1.8.32-4 .9-5.79.57-1.2-.21 1.61-1.49 1.69-1.53 1-.47 1.95-.92 2.91-1.4.24-.12 1-.39 1-.74a22.24 22.24 0 00-.59-7.18 7.4 7.4 0 00-4.7-5.48c-2.71-.67-5.19.37-7.19 2.23z"/>
      <path class="cls-8" d="M168.74 88.5a35.47 35.47 0 00-5.43 4.35 57 57 0 00-8.59 10.43c.27 0 .53 0 .79.08a60.39 60.39 0 019.4-11.25 31.16 31.16 0 014.4-3.46c.9-.57 1.82-1.1 2.73-1.62l1.45-.83c.15-.08.61-.47.74-.46-.72 0-1.93.81-2.58 1.12a29.71 29.71 0 00-2.91 1.64z"/>
      <path class="cls-15" d="M160.15 81.13c-.41-.08-1.15.68-1.52.87a5.5 5.5 0 01-2.19.45c-1.12.06-.69 2.12-.65 2.91s.08 1.69.1 2.53a4.67 4.67 0 01-.11 1.75c-.17.37-1.31-2-1.39-2.19s-1.22-2.72-1.4-2.53a17.06 17.06 0 00-1.72 2.5c-.53.77-1.35 1.46-1.45 2.43-.24 2.31.94 4.78 1.52 7 .45 1.71-1.31.37-1.83-.12a9.55 9.55 0 01-2.6-3.77c-.08-.21-.63 1.39-.68 1.55a41 41 0 01-1.44 3.88 5.06 5.06 0 00-.35 3.9c.45 1.18 1.13 2.25 1.57 3.44a17 17 0 018.29-2.41A60.34 60.34 0 01162.56 93a30.08 30.08 0 0110.24-7h-.31a14.1 14.1 0 01-7.39-2.45c-.37-.26-.92-1.12-1.26-.45-.16.29-.8 2.74-1.08 2.56-.69-.46-1-2-1.37-2.71-.22-.52-.62-1.71-1.24-1.82z"/>
      <path class="cls-16" d="M166.7 75.47c-1-2.24-4.76-.54-6 .48.2.47.38.93.54 1.39a9 9 0 003.5.19c.89-.17 2.5-.85 1.96-2.06z"/>
      <path class="cls-17" d="M162.55 100.75c-.51-.27-.64-.47-.17-.57 2.07-.43 4.66.51 6.71.87a11.43 11.43 0 002.6.27c.71 0 .77-.61 1-1.22a10.61 10.61 0 013.65-5c.45-.37-.29-.53-.57-.67a12.68 12.68 0 01-1.53-.85c-.49-.33-1.56-.92-1.66-1.61s2.44 0 2.77 0a15.26 15.26 0 002.76.44c.71 0 .82-.41 1.21-.9a11 11 0 012.13-1.95c2.49-1.78 6.63-2.71 9.16-.41-1.4-2.72-4.56-3.58-7.35-3.26-1.75.2-3.46.59-5.2.86a8.54 8.54 0 01-4.14-.62c-1.57 1.14-3.38 1.9-5 3a40.6 40.6 0 00-5 4.2 58.76 58.76 0 00-8.1 10 12.11 12.11 0 018 5.29c.53-.27 1-.57 1.56-.89s1-.68 1.51-1a30.73 30.73 0 003.88-3.42c-2.68-.66-5.71-1.25-8.22-2.56z"/>
      <path class="cls-18" d="M165.91 108.77l-.13-.25c-.3.21-.61.41-.93.62a22 22 0 011.93 1.25q-.45-.81-.87-1.62z"/>
      <path class="cls-8" d="M145.43 126.61l.14.08c-1.37.29-1.81.89-2.23 2.18a22.33 22.33 0 00-.88 4.13c0 .28-.26 1.06.22.84a8.89 8.89 0 002-1.46 11.76 11.76 0 002-2.14 2.43 2.43 0 00.11-2.3c.1.17.23.34.37.53.09-.58.25-1.62.48-2.92-.45-.28-.9-.58-1.34-.89-.12.46-.23.82-.33 1.09a3.59 3.59 0 01.72-.58c-.38.18-.95 1.1-1.26 1.44z"/>
      <path class="cls-19" d="M164.65 109.27l-.31.19a23.85 23.85 0 012.45 6.22c-2.7-5.2-6.75-10.7-13.15-10.39a18.38 18.38 0 00-10.33 4.3 5.71 5.71 0 00-1.91 6.56c1.42 3.77 5.17 6.52 8.42 8.57a43.56 43.56 0 006 3.21 34.3 34.3 0 005.15 1.46 16 16 0 01-5.69-.46 60 60 0 008.46 9.79c-4-1.56-9.13-7.45-10.78-10.52a29.42 29.42 0 01-4.74-2.29c-.19 1.13-.29 2.31-.55 3.43.49 1.27-1.35 2.56-2.16 3.24a18 18 0 01-3.33 2.37c-.67.34-.54 0-.47-.68a27.06 27.06 0 01.62-3.9c.27-1.13.84-4.24 2.54-3.94a4.8 4.8 0 001-2.05c-3.4-2.42-7.2-5.7-6.59-10.39.44-3.36 2.91-6.14 5.72-7.77-.68-2.12-2.35-4.13-1.76-6.46a34.93 34.93 0 012.53-5.91 10.19 10.19 0 011.2-2.23c.38-.44.5.68.6.93a10.45 10.45 0 001.49 2.45c.09.11.82 1 1 .61s-.1-.93-.19-1.26c-.18-.68-.36-1.37-.52-2.06a6.23 6.23 0 01-.13-3.26 9.19 9.19 0 011.78-2.41c.62-.79 1.24-1.58 1.87-2.36.16-.21.59-1 .84-.61a7.8 7.8 0 01.59 1.5 19.32 19.32 0 00.66 1.85c.1.24.31.57.38.12a18.51 18.51 0 000-3.72c0-.93-.1-1.39.85-1.55a11.15 11.15 0 003.67-1.24c.48-.26.6-.44 1 0a16.91 16.91 0 011 1.69 25.74 25.74 0 00-1.61-5.91 13.61 13.61 0 00-2.3 3 11.4 11.4 0 013.66-4.8c1.33-.85 4.26-1.72 5.53-.29 1.12 1.26.06 3.44-1.45 3.66a17.29 17.29 0 01-4.13 0c.19.66.47 1.28.7 1.92a2.31 2.31 0 011.78-.68c1.2 0 2.24.39 3.4-.15 2-1 3-3.79 1.09-5.38-2.45-2.07-5.61-.75-8.44-.78a5.87 5.87 0 01-4.89-2.67 9.63 9.63 0 002.34 1.29c-1.82-2.51-4.25-5.21-7.2-6.29a12.2 12.2 0 00-7.76.08 4.24 4.24 0 011.1 1.59C147.44 65.83 153 67 153 72c.06 4.56-4.44 8.31-8 10.26a21.15 21.15 0 01-2.46 1.29 25 25 0 011.54 4.84c-3-7.37-7.75-14.53-14.19-19.23a9 9 0 01-1.14 4.24 14 14 0 00-.7-8c-.81-2.06-2.14-4.51-4.26-5.42-3.89-1.67-7.55 3.22-9.34 6l-.11-.36a23.53 23.53 0 012-3.09 31.74 31.74 0 00-12.62-.35 19.32 19.32 0 00-10.54 4.94A25.84 25.84 0 0085.56 84a21.83 21.83 0 002.6 12.34 35.52 35.52 0 0021 15.63 41.47 41.47 0 0015.46 1.5c-4.65 1.46-9.6 1.07-14.28 0a65.07 65.07 0 00-3.39 17.36c1.08-5.3 6.21-7.92 11.23-7.3 5.8.73 10.66 4.56 13.68 9.49a14 14 0 003.65.87 10.33 10.33 0 011.7.49c-.34.38-2.3-.16-2.77-.22a13.63 13.63 0 00-2-.17c.23.41.45.81.64 1.19-2.18-2.33-4.05-5-6.65-6.89a17.77 17.77 0 00-8.39-3.43c1.77 1.22 2.57 3 3.28 5 4 2.89 5.82 7.34 6.72 12.08a26.59 26.59 0 01.43 7.91c-.28 2.59-.9 5.53-2.59 7.57a14.21 14.21 0 007.15-5.31 9 9 0 01-.85 1.77c4.82-.29 9.54 1.06 14.26 1.85 5 .84 10.17 1.29 15.06-.43 5.11-1.79 10.46-5 13.23-9.83s3.42-11.21 2.48-16.56a18.3 18.3 0 00-3.64-9.17 51.77 51.77 0 00-1.71-2.5 49.39 49.39 0 00-3.7-4.55c-1.16-1.14-2.3-2.3-3.51-3.42zm-40-36.7c-1 .81-2.11.22-2.8-.66-1.19-1.51-1.14-3.72-.81-5.52.21-1.19 1.35-4.57 3.08-3-.5-.82-1.4-1.78-2.44-1.27s-1.27 1.45-1.74 2.28c.49-.86.52-1.82 1.44-2.43a1.67 1.67 0 012 .09c1.53 1.13 2 3.51 2.3 5.28a5.71 5.71 0 01.09.89c.15 1.38.1 3.36-1.1 4.34z"/>
      <path class="cls-8" d="M203.93 121.55a9.46 9.46 0 01-3.33-.47 37 37 0 01-10.71-4.77 17.82 17.82 0 01-7.49-9.82c-1.22-4-2-8.43-4.9-11.54 0 .14-.15.28-.35.46 4.28 5.42 4 13.26 8.71 18.41a24.73 24.73 0 008.33 5.55 29.84 29.84 0 008.23 2.38c.26 0 1.64.25 1.76-.18.01-.07-.18-.02-.25-.02z"/>
      <path class="cls-20" d="M184.5 112.81c-3.86-5.12-3.44-12.33-7.51-17.27a11.31 11.31 0 00-3.19 3.88c-.35.72-.57 2.31-1.48 2.47a11.36 11.36 0 01-3.58-.23c-1.27-.2-2.53-.44-3.79-.68l-.08.14c2.42.66 4.86 1.26 7.3 1.87a27.1 27.1 0 01-3.1 3c3.15 1.58 5.38 5.24 7 8.3a23.67 23.67 0 011 2.43c0 .11.63 1.56.73 1.22a21.94 21.94 0 012.4-5.06c.17-.28 1.71-2.56 1.45-1.06-.3 1.77-.69 3.52-1 5.27-.15.7-1 2.9-.23 3.39a10.81 10.81 0 005.41 1.09 10.9 10.9 0 01.56-3c.27-.64.51.71.54.85A5.19 5.19 0 00188 122c.66.63 2.33.37 3.17.36 2.17 0 4.33-.19 6.49-.37 1.05-.09 2-.14 2.93-.17a26.41 26.41 0 01-8-2.83c-2.95-1.62-6.05-3.49-8.09-6.18z"/>
      <path class="cls-21" d="M126.22 138.72a14.93 14.93 0 00-3.84-6.44 16.52 16.52 0 00-6.94-4.08 6.8 6.8 0 00-6.38 2.61c-1.78 2.28-1.44 5.33-1 8a30.35 30.35 0 007.25 15.41 10 10 0 005.46 3.54 4.9 4.9 0 005.56-2.86c2.4-4.84 1.49-11.22-.11-16.18z"/>
      <path class="cls-16" d="M123.37 63.8a6.81 6.81 0 00-.86 5c.3 1.14.81 2.64 1.89 3.26a4 4 0 001-2.89c0-1.54-.2-3.7-1.2-4.92z"/>
      <path class="cls-22" d="M110.13 127.11a2.76 2.76 0 00-1 2.9l.09-.11a7.63 7.63 0 013.75-2.17 2.11 2.11 0 00-2.84-.62z"/>
      <path class="cls-8" d="M183.58 149.05c.21.38.92.11 1.26.22a1.37 1.37 0 01.84.74c.79.74 1.44 1.63 2.64 1.5a3.23 3.23 0 001.52-.47c.09-.06.81-.61.78-.68s-.81-.12-1-.15a1.9 1.9 0 01-1.22-.62c-.63-.79-.83-1.8-1.72-2.39a3 3 0 00-2.11-.5c-.2.54-1.37 1.69-.99 2.35z"/>
      <path class="cls-23" d="M120.19 129.21a11.39 11.39 0 00-2.18-3.28c-1.61-1.2-3.13-.22-3.55 1.62a10.6 10.6 0 015.73 1.66z"/>
      <path class="cls-24" d="M108 131.81a7.46 7.46 0 01.51-.92 8.11 8.11 0 01.12-1.7 3.69 3.69 0 00-.63 2.62z"/>
      <path class="cls-25" d="M114 127.49a4.26 4.26 0 01.51-1.43 5 5 0 01.8-1.09 10.24 10.24 0 00-3.53 1.06 2.32 2.32 0 012.22 1.46z"/>
      <path class="cls-26" d="M123 63.81c-1.78.65-1.81 4.11-1.66 5.6.1 1.06 1.09 3.61 2.56 3l.18-.09c-2.59-1.97-2.59-5.92-1.08-8.51z"/>
      <path class="cls-27" d="M175.2 148.6a15.28 15.28 0 01-1.7 1.92 32.91 32.91 0 005.78.31 20.6 20.6 0 003.12-.46 17.12 17.12 0 002.67-.38c.16-.33-1.52-.24-1.6-.24a.58.58 0 01-.63-.63 19.81 19.81 0 011.28-2.45c-.34-.39-1.76 1.19-1.94 1.41a4.62 4.62 0 01-6.65.77c-.12-.08-.22-.17-.33-.25z"/>
      <path class="cls-28" d="M135.29 68.46c-.26.16-.38.43-.26.6a.56.56 0 00.7 0c.27-.17.38-.44.26-.6a.53.53 0 00-.7 0zM137.8 71.77c-.17.1-.25.27-.17.36s.27.1.44 0 .25-.26.17-.36-.24-.1-.44 0z"/>
      <path d="M141.24 70.52c-.54-.71-2-.68-3.22 0s-1.81 1.9-1.27 2.61 2 .67 3.21-.06 1.81-1.85 1.28-2.55zm-3.17 1.61c-.17.1-.37.1-.44 0s0-.26.17-.36.37-.1.44 0 0 .23-.17.36zm2.54 0c-.34.21-.74.21-.89 0s0-.52.35-.72.73-.21.88 0 .05.59-.34.74zM137 67.68c-.44-.58-1.6-.56-2.6 0s-1.47 1.57-1 2.15 1.59.57 2.6 0 1.45-1.57 1-2.15zM134.45 69c-.13.08-.29.08-.35 0s0-.21.13-.3a.31.31 0 01.37 0c.06.1-.01.23-.15.3zm2.06 0c-.27.17-.6.17-.72 0s0-.44.28-.61.6-.17.72 0 0 .48-.28.61zM158.13 68.63c.57-.89 0-2.65-.34-3.53-.22-.63-1.55-3.39-2.42-1.95-.71 1.18 1.06 2.57 1.53 3.55.1.21.9 2.45 1.23 1.93zM143.6 62.36c1.19 0 2.3-.51 3.51-.21.6.14 2.32-.38 1.53-1.28s-2.76-.21-3.62.14c-.19.07-2.28 1.32-1.42 1.35z"/>
      <path d="M205.29 121.15a18.21 18.21 0 01-6.7-2.44 16.3 16.3 0 01-3.9-3.83c-1.46-2.1-1.31-4.57-1.05-7a23.27 23.27 0 01.77-4.24c-.57.12-5 1.29-5.17.89 0 0 3.41-1.23 3.77-1.39 1.14-.5 1.19-.82 1.25-2a27.62 27.62 0 00-.21-6 13 13 0 00-2.9-6.08 8.41 8.41 0 00-3.43-3.16 9.36 9.36 0 00-4.7-.35c-1.42.17-2.82.51-4.25.63a7.84 7.84 0 01-2.11-.06c-.73-.13-1.4-.49-2.11-.61h-.23a2.61 2.61 0 00-.55 0 17.71 17.71 0 01-7.68-2.28c-.77-.49-1.38-1.2-2.12-1.7-.54-.37-.42 3.07-1.36 2.08a24.55 24.55 0 00-.39-2.67c0 .06.05.11.08.18.7-1.75 2.79-.95 4.2-1.28a4.34 4.34 0 003.5-3.66c.17-2.4-2-4-4.15-4.29-2.49-.37-4.87.68-7.38 0-1.78-2.62-4.19-5.33-7.07-6.69v-1.23c.52.56.61 1.17 1.55 1.17a1.59 1.59 0 001.39-1.45c.17-1.69-2-1.44-2.77-.61a4.27 4.27 0 011.08-1.51 4.54 4.54 0 00.58-.58c.06-.09.23-.57.25-.58-.33.21-.55.64-.85.9a7.66 7.66 0 00-.92.88 6.46 6.46 0 00-1 2.75 13.66 13.66 0 00-9-.09c-3.7-2.16-8.61.73-11.23 3.39l-.77-.57a14.72 14.72 0 00-2.6-6.35 6.89 6.89 0 00-3.6-3c-2.55-.68-4.87 1.27-6.43 3.07a31.18 31.18 0 00-11.8-.71c-1.24-2.11-3.3-4-5.88-3.24s-3.31 3.6-3.72 5.84c-7.27 4.09-11.3 12.82-12 21a24.18 24.18 0 001.82 12c2 4.43 5.84 8.2 9.72 11a38.66 38.66 0 0013.55 6 62.49 62.49 0 00-2.79 13.58c-4.19-2-10-2.29-13.08 1.81-2.37 3.14-2.22 5.68-1.16 11.34a28.79 28.79 0 004.17 10.12c2 2.86 4.77 6.47 8.3 7.28 3.51 1.17 7.64-1.47 9.55-4 1.94 2.31 4.25 4.89 7.29 5.59 3.06 1 6.54-.58 8.92-2.68a50.71 50.71 0 0110.3.55 94.45 94.45 0 0011.35 1.58 27.59 27.59 0 0011-1.79 32 32 0 0010-5.44 29.77 29.77 0 006.8.24 27.64 27.64 0 003.39-.6 15.3 15.3 0 012.6-.22c.78.78 1.48 1.55 2.69 1.42a4.37 4.37 0 001.95-.75c.14-.1 1.27-.86 1.23-1s-1.1-.26-1.25-.3a2.41 2.41 0 01-1.47-1c-.92-1.41-2.09-2.76-3.94-2.67.21-1.11-1.4.15-1.67.38a25.93 25.93 0 01-2.23 2 3.28 3.28 0 01-5-1.08 27.69 27.69 0 002.58-7.81 31.79 31.79 0 00.63-9.38c-.63-6.9-4.59-12.87-9.5-17.51l-2.49-5.22.79-.61c2 .6 3.55 2.33 4.79 3.93a29.29 29.29 0 013.3 5.38c.44.93.78 1.92 1.23 2.85 0 .07.37.85.54.65a6.76 6.76 0 00.61-1.67 33.46 33.46 0 011.44-3.17c.09-.17.64-1.46.89-1.44a25.89 25.89 0 00-.92 3.3c-.19.91-.72 2.47-.45 3.42.36 1.25 2.22 1.56 3.27 1.77s2.23.39 3.36.51a5.6 5.6 0 01.36-1.62c.27-.61.81 1.42 1 1.69.77 1 3 .58 4 .51 3-.2 6-.5 9-.72 1.41-.1 2.83-.18 4.24-.33a4.83 4.83 0 001.73-.32c.62-.38-.76-.68-.83-.7zm-53.51-57.87c.71-1.09 2.83-.61 2.24.84s-3.02.37-2.24-.84zm41.14 31a22.24 22.24 0 01.59 7.18c0 .35-.8.62-1 .74-1 .48-1.95.93-2.91 1.4-.08 0-2.89 1.32-1.69 1.53 1.82.33 4-.25 5.79-.57a10.14 10.14 0 00-.69 2.77c-.35 2.34-.62 4.89.42 7.09a13.43 13.43 0 003.14 3.82 12.42 12.42 0 006 2.92 28.88 28.88 0 01-9.77-3.52 25.34 25.34 0 01-7.28-5.77c-2.38-2.92-3-6.39-4-9.91a21.52 21.52 0 00-5.31-9.1c.76.13 2.37.73 3.09.2a3.75 3.75 0 00.56-.79A9.81 9.81 0 01181 91c2-1.85 4.5-2.89 7.24-2.23a7.4 7.4 0 014.68 5.47zm-16.08 0c-1.28-.72-4.06-1.89-2.46-1.71h.12a6.31 6.31 0 012.34 1.7zm-2.61-8.53c-.13 0-.59.38-.74.46L172 87c-.91.52-1.83 1-2.73 1.62a31.16 31.16 0 00-4.4 3.46 60.39 60.39 0 00-9.4 11.25c-.26 0-.52-.06-.79-.08a57 57 0 018.59-10.43 35.47 35.47 0 015.43-4.35 29.71 29.71 0 012.91-1.64c.69-.28 1.9-1.13 2.62-1.09zm-11.47-.11c.28.18.92-2.27 1.08-2.56.34-.67.89.19 1.26.45a14.1 14.1 0 007.39 2.47h.31a30.08 30.08 0 00-10.24 7 60.34 60.34 0 00-8.26 10.24 17 17 0 00-8.29 2.41c-.44-1.19-1.12-2.26-1.57-3.44a5.06 5.06 0 01.35-3.9 41 41 0 001.44-3.88c.05-.16.6-1.76.68-1.55a9.55 9.55 0 002.6 3.77c.52.49 2.28 1.83 1.83.12-.58-2.17-1.76-4.64-1.52-7 .1-1 .92-1.66 1.45-2.43a17.06 17.06 0 011.72-2.5c.18-.19 1.31 2.34 1.4 2.53s1.22 2.56 1.39 2.19a4.67 4.67 0 00.11-1.75c0-.84-.07-1.69-.1-2.53s-.47-2.85.65-2.91a5.5 5.5 0 002.19-.45c.37-.19 1.11-1 1.52-.87.62.11 1 1.3 1.24 1.79.34.81.68 2.33 1.37 2.79zm-26.53-20.12c2.25-.72 5.28-.7 6.57 1.67a16 16 0 00-1.75.74l-.24.14c3.53-1.25 9.8-1.1 10.15 4 .31 4.4-4.2 8.11-7.58 10-.4.24-.8.46-1.2.67a37.48 37.48 0 00-11-14 12.94 12.94 0 015.05-3.22zm-36.5-6.82c2.07-.71 3.68.43 4.81 2.14a26 26 0 00-7.47 1.84c.4-1.68 1.17-3.47 2.66-3.98zM106 128a42.63 42.63 0 000 5.76c-.48-.69-.93-1.41-1.45-2.07-.66-2-1.4-3.82-3.14-5A14.67 14.67 0 01106 128zm-4.56-.44a10.16 10.16 0 012 3 7.49 7.49 0 00-5.15-1.56c.39-1.67 1.76-2.52 3.19-1.45zm-2.41-.86a4.2 4.2 0 00-1.14 2.3 2.08 2.08 0 00-2-1.31 9 9 0 013.18-1zm-4.45 1.81a1.89 1.89 0 012.33.68 6.94 6.94 0 00-3.47 2c-.1-1.01.08-2.27 1.18-2.69zm-1.68 1.82l-.04 1.67a7.42 7.42 0 00-.47.83 2.92 2.92 0 01.55-2.51zm11 25.93c-2.25-.54-3.88-2.33-5.29-4.08a26.31 26.31 0 01-3.59-5.81 30 30 0 01-2.1-7.75c-.35-2.38-.52-5 1.14-7a6.2 6.2 0 016.15-2c2.88.73 4.42 3.06 5.92 5.45a30.69 30.69 0 004 12.71c0 .06.06.11.08.16-.07 3.71-1.33 9.48-6.21 8.31zm4.61-.18c1.28-1.55 2.07-4.21 2.35-6.94a27.8 27.8 0 002.74 3.86 14.31 14.31 0 01-5.04 3.07zm12.22 1.7a10 10 0 01-5.46-3.54 30.35 30.35 0 01-7.25-15.41c-.45-2.68-.79-5.73 1-8a6.8 6.8 0 016.38-2.61 16.52 16.52 0 016.94 4.08 14.93 14.93 0 013.84 6.44c1.6 5 2.51 11.34.12 16.19a4.9 4.9 0 01-5.52 2.84zm-12.32-26.88a7.46 7.46 0 00-.51.92 3.69 3.69 0 01.63-2.62 8.11 8.11 0 00-.07 1.69zm6.08-4.83a4.26 4.26 0 00-.51 1.43 2.32 2.32 0 00-2.22-1.46 10.24 10.24 0 013.53-1.06 5 5 0 00-.75 1.08zm3.47-.13a11.39 11.39 0 012.18 3.28 10.6 10.6 0 00-5.73-1.66c.47-1.85 1.99-2.83 3.59-1.63zm-5 1.8a7.63 7.63 0 00-3.75 2.17l-.09.11a2.76 2.76 0 011-2.9 2.11 2.11 0 012.88.61zm71.63 19a3 3 0 012.11.5c.89.59 1.09 1.6 1.72 2.39a1.9 1.9 0 001.22.62c.14 0 .87 0 1 .15s-.69.62-.78.68a3.23 3.23 0 01-1.52.47c-1.2.13-1.85-.76-2.64-1.5a1.37 1.37 0 00-.84-.74c-.34-.11-1.05.16-1.26-.22-.4-.7.77-1.85 1.02-2.39zm-4.6 3a4.72 4.72 0 002.16-1.58c.18-.22 1.6-1.8 1.94-1.41a19.81 19.81 0 00-1.28 2.45.58.58 0 00.63.63c.08 0 1.76-.09 1.6.24a17.12 17.12 0 01-2.67.38 20.6 20.6 0 01-3.12.46 32.91 32.91 0 01-5.78-.31 15.28 15.28 0 001.7-1.92c.11.08.21.17.33.25a4.75 4.75 0 004.5.73zm-11.89-36.89a49.39 49.39 0 013.7 4.55c.58.79 1.14 1.62 1.71 2.5a18.3 18.3 0 013.64 9.17c.94 5.35.25 11.79-2.48 16.56s-8.12 8-13.23 9.83c-4.89 1.72-10 1.27-15.06.43-4.72-.79-9.44-2.14-14.26-1.85a9 9 0 00.85-1.77 14.21 14.21 0 01-7.15 5.31c1.69-2 2.31-5 2.59-7.57A26.59 26.59 0 00128 142c-.9-4.74-2.75-9.19-6.72-12.08-.71-2-1.51-3.78-3.28-5a17.77 17.77 0 018.39 3.43c2.6 1.89 4.47 4.56 6.65 6.89-.19-.38-.41-.78-.64-1.19a13.63 13.63 0 012 .17c.47.06 2.43.6 2.77.22a10.33 10.33 0 00-1.7-.49 14 14 0 01-3.65-.87c-3-4.93-7.88-8.76-13.68-9.49-5-.62-10.15 2-11.23 7.3a65.07 65.07 0 013.39-17.36c4.68 1 9.63 1.41 14.28 0a41.47 41.47 0 01-15.46-1.5 35.52 35.52 0 01-21-15.63A21.83 21.83 0 0185.56 84a25.84 25.84 0 017.61-16.91 19.32 19.32 0 0110.54-4.94 31.74 31.74 0 0112.62.35 23.53 23.53 0 00-2 3.09l.11.36c1.79-2.75 5.45-7.64 9.34-6 2.12.91 3.45 3.36 4.26 5.42a14 14 0 01.7 8 9 9 0 001.14-4.24c6.44 4.7 11.17 11.86 14.19 19.23a25 25 0 00-1.54-4.84 21.15 21.15 0 002.47-1.25c3.56-2 8.06-5.7 8-10.26-.06-5-5.59-6.18-9.43-5.08a4.24 4.24 0 00-1.1-1.59 12.2 12.2 0 017.76-.08c3 1.08 5.38 3.78 7.2 6.29a9.63 9.63 0 01-2.34-1.29 5.87 5.87 0 004.91 2.67c2.83 0 6-1.29 8.44.78 1.87 1.59 1 4.43-1.09 5.38-1.16.54-2.2.18-3.4.15a2.31 2.31 0 00-1.78.68c-.23-.64-.51-1.26-.7-1.92a17.29 17.29 0 004.13 0c1.51-.22 2.57-2.4 1.45-3.66-1.27-1.43-4.2-.56-5.53.29a11.4 11.4 0 00-3.66 4.8 13.61 13.61 0 012.3-3 25.74 25.74 0 011.61 5.91 16.91 16.91 0 00-1-1.69c-.37-.49-.49-.31-1 0a11.15 11.15 0 01-3.67 1.24c-1 .16-.88.62-.85 1.55a18.51 18.51 0 010 3.72c-.07.45-.28.12-.38-.12a19.32 19.32 0 01-.66-1.85 7.8 7.8 0 00-.59-1.5c-.25-.41-.68.4-.84.61-.63.78-1.25 1.57-1.87 2.36a9.19 9.19 0 00-1.72 2.34 6.23 6.23 0 00.13 3.26c.16.69.34 1.38.52 2.06.09.33.33.9.19 1.26s-.88-.5-1-.61a10.45 10.45 0 01-1.46-2.45c-.1-.25-.22-1.37-.6-.93a10.19 10.19 0 00-1.2 2.23 34.93 34.93 0 00-2.53 5.91c-.59 2.33 1.08 4.34 1.76 6.46-2.81 1.63-5.28 4.41-5.72 7.77-.61 4.69 3.19 8 6.59 10.39a4.8 4.8 0 01-1 2.05c-1.7-.3-2.27 2.81-2.54 3.94a27.06 27.06 0 00-.62 3.9c-.07.7-.2 1 .47.68a18 18 0 003.33-2.37c.81-.68 2.65-2 2.16-3.24.26-1.12.36-2.3.55-3.43a29.42 29.42 0 004.78 2.32c1.65 3.07 6.76 9 10.78 10.52a60 60 0 01-8.46-9.79 16 16 0 005.69.46 34.3 34.3 0 01-5.15-1.46 43.56 43.56 0 01-6-3.21c-3.25-2-7-4.8-8.42-8.57a5.71 5.71 0 011.91-6.56 18.38 18.38 0 0110.33-4.3c6.4-.31 10.45 5.19 13.15 10.39a23.85 23.85 0 00-2.45-6.22l.31-.19c1.17 1.12 2.31 2.28 3.44 3.5zm-6.89-35.43c-.16-.46-.34-.92-.54-1.39 1.24-1 5-2.72 6-.48.54 1.21-1.07 1.89-2 2.06a9 9 0 01-3.43-.27zM146 125.75c.1-.27.21-.63.33-1.09.44.31.89.61 1.34.89-.23 1.3-.39 2.34-.48 2.92-.14-.19-.27-.36-.37-.53a2.43 2.43 0 01-.11 2.3 11.76 11.76 0 01-2 2.14 8.89 8.89 0 01-2 1.46c-.48.22-.25-.56-.22-.84a22.33 22.33 0 01.88-4.13c.42-1.29.86-1.89 2.23-2.18l-.14-.08c.31-.34.88-1.26 1.27-1.44a3.59 3.59 0 00-.73.58zm18.87-16.61c.32-.21.63-.41.93-.62l.13.25q.42.81.87 1.62a22 22 0 00-1.95-1.25zm2.08-2.37c-.49.36-1 .71-1.51 1s-1 .62-1.56.89a12.11 12.11 0 00-8-5.29 58.76 58.76 0 018.1-10 40.6 40.6 0 015-4.2c1.59-1.11 3.4-1.87 5-3a8.54 8.54 0 004.14.62c1.74-.27 3.45-.66 5.2-.86 2.79-.32 5.95.54 7.35 3.26-2.53-2.3-6.67-1.37-9.16.41a11 11 0 00-2.13 1.95c-.39.49-.5.9-1.21.9a15.26 15.26 0 01-2.76-.44c-.33-.06-2.86-.67-2.77 0s1.17 1.28 1.66 1.61a12.68 12.68 0 001.53.85c.28.14 1 .3.57.67a10.61 10.61 0 00-3.65 5c-.21.61-.27 1.17-1 1.22a11.43 11.43 0 01-2.6-.27c-2.05-.36-4.64-1.3-6.71-.87-.47.1-.34.3.17.57 2.51 1.31 5.54 1.9 8.26 2.6a30.73 30.73 0 01-3.94 3.38zM197.63 122c-2.16.18-4.32.34-6.49.37-.84 0-2.51.27-3.17-.36a5.19 5.19 0 01-1.08-2.52c0-.14-.27-1.49-.54-.85a10.9 10.9 0 00-.56 3 10.81 10.81 0 01-5.41-1.09c-.8-.49.08-2.69.23-3.39.36-1.75.75-3.5 1-5.27.26-1.5-1.28.78-1.45 1.06a21.94 21.94 0 00-2.4 5.06c-.1.34-.68-1.11-.73-1.22a23.67 23.67 0 00-1-2.43c-1.59-3.06-3.82-6.72-7-8.3a27.1 27.1 0 003.1-3c-2.44-.61-4.88-1.21-7.3-1.87l.17-.19c1.26.24 2.52.48 3.79.68a11.36 11.36 0 003.58.23c.91-.16 1.13-1.75 1.48-2.47a11.31 11.31 0 013.15-3.9c4.07 4.94 3.65 12.15 7.51 17.27 2 2.69 5.14 4.56 8.05 6.15a26.41 26.41 0 008 2.83c-.89.03-1.88.08-2.93.21zm4.79-.21a29.84 29.84 0 01-8.23-2.38 24.73 24.73 0 01-8.33-5.55c-4.74-5.15-4.43-13-8.71-18.41.2-.18.33-.32.35-.46 2.92 3.11 3.68 7.58 4.9 11.54a17.82 17.82 0 007.49 9.82 37 37 0 0010.71 4.77 9.46 9.46 0 003.33.47h.25c-.12.41-1.5.19-1.76.16z"/>
      <path d="M125.69 67.3c-.28-1.77-.77-4.15-2.3-5.28a1.67 1.67 0 00-2-.09c-.92.61-1 1.57-1.44 2.43.47-.83.83-1.82 1.74-2.28s1.94.45 2.44 1.27c-1.73-1.53-2.87 1.85-3.08 3-.33 1.8-.38 4 .81 5.52.69.88 1.82 1.47 2.8.66 1.2-1 1.25-3 1.11-4.38a5.71 5.71 0 00-.08-.85zm-1.84 5.1c-1.47.62-2.46-1.93-2.56-3-.15-1.49-.12-5 1.66-5.6-1.46 2.59-1.46 6.54 1.08 8.5zm1.55-3.25a4 4 0 01-1 2.89c-1.08-.62-1.59-2.12-1.89-3.26a6.81 6.81 0 01.86-5l.83.43c1 1.24 1.22 3.4 1.2 4.94z"/>
      <path class="cls-29" d="M129 93.47a3 3 0 002.15 2.75c1.27.41 2.35-.14 2.42-1.24a3 3 0 00-2.14-2.74c-1.22-.42-2.31.13-2.43 1.23z"/>
      <path class="cls-30" d="M129.28 93.77a2.65 2.65 0 001.89 2.23c1.09.37 2 0 2-.9a2.66 2.66 0 00-1.89-2.24c-1.05-.36-1.96.04-2 .91z"/>
      <path class="cls-29" d="M132.15 83.21a3 3 0 001.49 3.17c1.13.7 2.31.41 2.63-.64a3 3 0 00-1.48-3.17c-1.13-.7-2.32-.42-2.64.64z"/>
      <path class="cls-30" d="M132.32 83.56a2.67 2.67 0 001.34 2.62c1 .61 1.94.43 2.17-.4a2.7 2.7 0 00-1.33-2.63c-.97-.61-1.95-.43-2.18.41z"/>
      <path class="cls-29" d="M138.6 90.69a3 3 0 001.49 3.17c1.14.7 2.31.41 2.63-.64a3 3 0 00-1.48-3.16c-1.13-.71-2.32-.42-2.64.63z"/>
      <path class="cls-30" d="M138.77 91a2.69 2.69 0 001.34 2.63c1 .61 1.94.43 2.17-.41a2.69 2.69 0 00-1.28-2.58c-1-.64-2-.44-2.23.36z"/>
      <path d="M129.53 108.08s-4.7-1.92-7.45-1.57-4.16.6-3.87-.17 1.74-1.51 4.31-1.1 6.82 2.44 7.01 2.84zM121 109.37a5.71 5.71 0 003 .91c1.69 0 3.94-.63 2.27 0a6.41 6.41 0 01-4 .29c-1.38-.3-2.17-1.32-1.27-1.2zM142.23 132.43c.09-.76.56-3.43-.09-2.08a8.6 8.6 0 00-1 4.63 7.44 7.44 0 01-.44 3c-.18.91 1.61 5 2.75 4.17s.27-4-.43-5.77a9.56 9.56 0 01-.79-3.95z"/>
      <path class="cls-28" d="M125.78 68.19a5.71 5.71 0 00-.09-.89c-.28-1.77-.77-4.15-2.3-5.28a1.67 1.67 0 00-2-.09c-.92.61-1 1.57-1.44 2.43.47-.83.83-1.82 1.74-2.28s1.94.45 2.44 1.27c-1.73-1.53-2.87 1.85-3.08 3-.33 1.8-.38 4 .81 5.52.69.88 1.82 1.47 2.8.66 1.21-.94 1.26-2.92 1.12-4.34zM149.06 95a10.45 10.45 0 01-1.46-2.45c-.1-.25-.22-1.37-.6-.93a10.19 10.19 0 00-1.2 2.23 34.93 34.93 0 00-2.53 5.91 6.2 6.2 0 00.8 4.21 57.6 57.6 0 015.62-8.34 3.64 3.64 0 01-.63-.63zM159.78 80.61a11.15 11.15 0 01-3.67 1.24c-1 .16-.88.62-.85 1.55a18.51 18.51 0 010 3.72c-.07.45-.28.12-.38-.12a19.32 19.32 0 01-.66-1.85 7.8 7.8 0 00-.59-1.5c-.25-.41-.68.4-.84.61-.63.78-1.25 1.57-1.87 2.36a9.19 9.19 0 00-1.73 2.38 6.23 6.23 0 00.13 3.26c.16.69.34 1.38.52 2.06a5.61 5.61 0 01.22.82c3.21-4.1 7.24-8.77 11.42-13.34a11.51 11.51 0 00-.73-1.17c-.37-.46-.49-.28-.97-.02z"/>
      <path class="cls-28" d="M161.48 78a19.84 19.84 0 003.45.11l2.58-2.71a1.78 1.78 0 00-.45-1c-1.27-1.43-4.2-.56-5.53.29a11.4 11.4 0 00-3.66 4.8 13.61 13.61 0 012.3-3 25.25 25.25 0 011.49 5.19c.73-.8 1.47-1.6 2.21-2.38a2.22 2.22 0 00-1.69.67c-.18-.69-.51-1.31-.7-1.97zM139.31 114c-.61 4.69 3.19 8 6.59 10.39a4.8 4.8 0 01-1 2.05c-1.7-.3-2.27 2.81-2.54 3.94a27.06 27.06 0 00-.62 3.9c-.07.7-.2 1 .47.68a18 18 0 003.33-2.37c.81-.68 2.65-2 2.16-3.24.26-1.12.36-2.3.55-3.43a29.42 29.42 0 004.75 2.28c1.65 3.07 6.76 9 10.78 10.52a60 60 0 01-8.46-9.79 16 16 0 005.69.46 34.3 34.3 0 01-5.15-1.46 43.56 43.56 0 01-6-3.21c-3.25-2-7-4.8-8.42-8.57a5.71 5.71 0 011.91-6.56 18.43 18.43 0 012.59-1.83l-.3.07c-1.29.32-2 .15-2.32-.4a10.39 10.39 0 00-4.01 6.57zM118 124.94a17.77 17.77 0 018.39 3.43c2.6 1.89 4.47 4.56 6.65 6.89-.19-.38-.41-.78-.64-1.19a13.63 13.63 0 012 .17c.47.06 2.43.6 2.77.22a10.33 10.33 0 00-1.7-.49 14 14 0 01-3.65-.87c-3-4.93-7.88-8.76-13.68-9.49a11.28 11.28 0 00-5.81.78c1 .27 2.62 1.2 5.11 2.1a20.41 20.41 0 013 1.32 7.27 7.27 0 00-2.44-2.87z"/>
      <path class="cls-31" d="M161.48 78c.19.66.47 1.28.7 1.92a2.22 2.22 0 011.69-.67l1.06-1.14a19.84 19.84 0 01-3.45-.11z"/>
      <path class="cls-32" d="M165.61 78a2.47 2.47 0 001.9-2.64l-2.58 2.71a5.23 5.23 0 00.68-.07z"/>
      <path class="cls-33" d="M150 95.61a.91.91 0 000-.44c-.13.15-.25.31-.37.46.21.1.37.13.37-.02z"/>
      <path class="cls-32" d="M150 95.61a.91.91 0 000-.44c-.13.15-.25.31-.37.46.21.1.37.13.37-.02z"/>
      <path class="cls-34" d="M162.76 111.89c1.69 4.6 1.55 13 3.59 9.83s4.5-5.28 6.23 5.19-.67 20.13-8.08 23.75-16.9 3.06-21.24 2-7.08-7.49-10.35-3.48-2.52-5.64-3.8-10.45a17.47 17.47 0 00-8.7-11 18.6 18.6 0 01.88 2.13c4 2.89 5.82 7.34 6.72 12.08a26.59 26.59 0 01.43 7.91c-.28 2.59-.9 5.53-2.59 7.57a14.21 14.21 0 007.15-5.31 9 9 0 01-.85 1.77c4.82-.29 9.54 1.06 14.26 1.85 5 .84 10.17 1.29 15.06-.43 5.11-1.79 10.46-5 13.23-9.83s3.42-11.21 2.48-16.56a18.3 18.3 0 00-3.64-9.17 51.77 51.77 0 00-1.71-2.5 49.39 49.39 0 00-3.7-4.55 57.445 57.445 0 00-3.48-3.5l-.31.19a23.85 23.85 0 012.45 6.22c-2.7-5.2-6.75-10.7-13.15-10.39a17.85 17.85 0 00-7.74 2.47c8.71-1.97 15.2-.33 16.86 4.21z"/>
      <path class="cls-32" d="M171.43 122.51c2.79.47 3.91 5.13 3.82 8.57-.29 10.61-3.34 16-10.75 19.58s-16.9 3.06-21.24 2-7.08-7.49-10.35-3.48-2.52-5.64-3.8-10.45a17.47 17.47 0 00-8.7-11 18.6 18.6 0 01.88 2.13c4 2.89 5.82 7.34 6.72 12.08a26.59 26.59 0 01.43 7.91c-.28 2.59-.9 5.53-2.59 7.57a14.21 14.21 0 007.15-5.31 9 9 0 01-.85 1.77c4.82-.29 9.54 1.06 14.26 1.85 5 .84 10.17 1.29 15.06-.43 5.11-1.79 10.46-5 13.23-9.83s3.42-11.21 2.48-16.56a18.3 18.3 0 00-3.64-9.17 51.77 51.77 0 00-1.71-2.5 49.39 49.39 0 00-3.7-4.55 57.445 57.445 0 00-3.48-3.5l-.31.19a23.85 23.85 0 012.45 6.22c6.13 3 3.21 6.67 4.64 6.91z"/>
      <path class="cls-35" d="M161.78 82.35l-.12-.72-.18.2z"/>
      <path class="cls-32" d="M161.78 82.35l-.12-.72-.18.2z"/>
      <path class="cls-36" d="M167.51 75.4a2.47 2.47 0 01-1.9 2.64 5.23 5.23 0 01-.68.07l-1.06 1.14h.13c1.2 0 2.24.39 3.4-.15 1.9-.88 2.83-3.4 1.45-5z"/>
      <path class="cls-37" d="M143.28 107.43a14.39 14.39 0 011.75-1.21 19 19 0 00-1-2.25c-.77 1.6-1.03 2.8-.75 3.46z"/>
      <path class="cls-32" d="M143.28 107.43a14.39 14.39 0 011.75-1.21 19 19 0 00-1-2.25c-.77 1.6-1.03 2.8-.75 3.46z"/>
      <path class="cls-38" d="M111.34 124.88a9.4 9.4 0 011-.49c-.62-.19-.95-.08-1 .49z"/>
      <path class="cls-32" d="M111.34 124.88a9.4 9.4 0 011-.49c-.62-.19-.95-.08-1 .49z"/>
      <path class="cls-39" d="M143.18 115.6c-1.26-2.61 3.45-7.31 8-8.44 4.33-1.08 8.88 1.11 8.91 4.75s-3.52 8.42-8.19 8.45-7.14-1.48-8.72-4.76z"/>
      <path class="cls-28" d="M125.69 67.3c-.28-1.77-.77-4.15-2.3-5.28a1.67 1.67 0 00-2-.09c-.92.61-1 1.57-1.44 2.43.47-.83.83-1.82 1.74-2.28s1.94.45 2.44 1.27c-1.73-1.53-2.87 1.85-3.08 3-.33 1.8-.38 4 .81 5.52.69.88 1.82 1.47 2.8.66 1.2-1 1.25-3 1.11-4.38a5.71 5.71 0 00-.08-.85z"/>
      <path class="cls-39" d="M90.75 92.32a29.74 29.74 0 013.39-19.1c3.81-6.25 8.18-10.12 17-11.45a34 34 0 00-7.47.41 19.32 19.32 0 00-10.54 4.94A25.84 25.84 0 0085.56 84a21.83 21.83 0 002.6 12.34 34.41 34.41 0 009.61 10.25c.03-.67-6.24-9.75-7.02-14.27z"/>
      <path class="cls-40" d="M96.94 68.91c-1.23 1.94-4 4.65-6 12.36a26.22 26.22 0 00-.31 11.07A34 34 0 0191 81.8a40.59 40.59 0 015.94-12.89z"/>
      <path class="cls-40" d="M96.48 73.39a6.46 6.46 0 00-2.33-.47 7.09 7.09 0 00-2.1.24A17.07 17.07 0 0194 73.1a15.21 15.21 0 012.48.29zM93.29 82.89a6.54 6.54 0 00-2.29-.73 6.88 6.88 0 00-2.12 0 14.92 14.92 0 011.92.18 14 14 0 012.49.55z"/>
      <path class="cls-41" d="M124.27 147.85c1 2.08.94 4.27-.36 5.5-1.74 1.67-5.07 1-7.42-1.56a8.26 8.26 0 01-1.07-1.42 8.51 8.51 0 001.45 2.12c2.35 2.54 5.68 3.24 7.43 1.57 1.44-1.38 1.36-3.94-.03-6.21zM107 147c.79 2.06.66 4.26-.49 5.55-1.54 1.74-4.37 1.14-6.3-1.33a8.48 8.48 0 01-.87-1.39 7.84 7.84 0 001.18 2.08c1.93 2.47 4.75 3.07 6.3 1.33 1.26-1.45 1.27-4.02.18-6.24z"/>
      <path class="cls-28" d="M125.69 67.3c-.28-1.77-.77-4.15-2.3-5.28a1.67 1.67 0 00-2-.09c-.92.61-1 1.57-1.44 2.43.47-.83.83-1.82 1.74-2.28s1.94.45 2.44 1.27c-1.73-1.53-2.87 1.85-3.08 3-.33 1.8-.38 4 .81 5.52.69.88 1.82 1.47 2.8.66 1.2-1 1.25-3 1.11-4.38a5.71 5.71 0 00-.08-.85zM163.77 138.72c-.52-.45-1.05-.95-1.59-1.49-.1 0-.66-.11-1.52-.35a13.74 13.74 0 003.11 1.84z"/>
      <path class="cls-42" d="M153.64 105.29c-.48 0-1 .08-1.46.16a39 39 0 0110.26 3.8c-2.3-2.44-5.17-4.13-8.8-3.96z"/>
      <path class="cls-32" d="M145.9 124.38a4.8 4.8 0 01-1 2.05c-1.7-.3-2.27 2.81-2.54 3.94a27.06 27.06 0 00-.62 3.9c-.07.7-.2 1 .47.68a18 18 0 003.33-2.37c.81-.68 2.65-2 2.16-3.24.26-1.12.36-2.3.55-3.43a29.42 29.42 0 004.75 2.29 32.15 32.15 0 007.67 8.68c.86.24 1.42.33 1.52.35a65.42 65.42 0 01-6.87-8.3 16 16 0 005.69.46 34.3 34.3 0 01-5.15-1.46 43.56 43.56 0 01-6-3.21c-3.25-2-7-4.8-8.42-8.57a5.71 5.71 0 011.91-6.56 18.84 18.84 0 018.87-4.14 7.25 7.25 0 00-4.88.48 20.82 20.82 0 00-8 8.68c-.29 4.39 3.31 7.46 6.56 9.77zM164.91 110.55c-.83-.46-1.66-.89-2.47-1.3a28.76 28.76 0 014.35 6.43 24.65 24.65 0 00-1.88-5.13z"/>
      <path class="cls-32" d="M143.11 123.35c3.35 2.61-.37 2-1.49 7.17s2.16 14.85 3.26 10.44c1.49-6 3.17-12.67 7.64-8.57a20.44 20.44 0 008.14 4.49 32.15 32.15 0 01-7.66-8.68 29.42 29.42 0 01-4.74-2.29c-.19 1.13-.29 2.31-.55 3.43.49 1.27-1.35 2.56-2.16 3.24a18 18 0 01-3.33 2.37c-.67.34-.54 0-.47-.68a27.06 27.06 0 01.62-3.9c.27-1.13.84-4.24 2.54-3.94a4.8 4.8 0 001-2.05c-3.25-2.31-6.85-5.41-6.63-9.77-.92 2.59 2.18 7.46 3.83 8.74z"/>
    </g>
  </g>
</svg>
