<svg xmlns="http://www.w3.org/2000/svg" viewBox="0 0 97.55 112.26">
  <defs>
    <radialGradient id="radial-gradient" cx="-1818.6" cy="1477.1" r="23.97" gradientTransform="matrix(-.77 .64 .64 .77 -2258.64 79.2)" gradientUnits="userSpaceOnUse">
      <stop offset="0" stop-color="#f08361"/>
      <stop offset=".42" stop-color="#ef683a"/>
      <stop offset=".58" stop-color="#e45e32"/>
      <stop offset="1" stop-color="#c8451f"/>
    </radialGradient>
    <style>
      .cls-1{fill:#2b414f}.cls-2{fill:#6aa0c3}.cls-3{fill:#5e8dad}.cls-4{fill:#322f18}.cls-5{fill:#3e5365}.cls-24,.cls-6{fill:#0e1821;stroke:#000}.cls-6{stroke-width:.02px}.cls-7{fill:#cddde9}.cls-8{fill:#c3cfd8}.cls-9{fill:#d5dfe9}.cls-10{fill:#dce3e8}.cls-11{fill:#2b0000}.cls-12{fill:#001d1d}.cls-13{fill:#332b2b}.cls-14{fill:#850101}.cls-15{fill:#750000}.cls-16{fill:#1d0000}.cls-17{fill:#e9f0f6}.cls-18{fill:#182836}.cls-19{fill:#bed3e1}.cls-20{fill:#f5f2ee}.cls-21{fill:#223838}.cls-22{fill:#f5f2ef}.cls-23{fill:#8fc2e3}.cls-24{stroke-width:.02px}.cls-25{fill:#4b7591;stroke:#193341;stroke-width:.03px}.cls-26{fill:#253845}.cls-27{fill:#9fc8e3}.cls-28{stroke:#080808;stroke-width:.23px;fill:url(#radial-gradient)}.cls-29{fill:#21313d}
    </style>
  </defs>
  <g id="Слой_2" data-name="Слой 2">
    <g id="Слой_1-2" data-name="Слой 1">
      <path class="cls-1" d="M67 10.08s3.4-14.16-5.9-8.19c-4.73 3-2.37 5.7-2.37 5.7s2.1 2.33 4.67 1.95a5.28 5.28 0 013.6.54z"/>
      <path class="cls-2" d="M66.81 8.57s2.29-10.39-4.25-7a8.93 8.93 0 00-4.74 6.55s3.46 2.62 5.85 2.27a4.72 4.72 0 003.14-1.82z"/>
      <path class="cls-3" d="M59.62 7.52c.84 1.5 2.62 1.3 3.86.1s2.11-3.33 2.33-1a21 21 0 00.75-2.77 1.68 1.68 0 00-1.84-2.11 2.32 2.32 0 01-1.47-.51c-.22.09-.45.2-.69.32a8.47 8.47 0 00-2.83 2.27 3.26 3.26 0 00-.11 3.7z"/>
      <path class="cls-1" d="M63.54 6.82c1.14-1.38 1.83-3.3 1.25-4s-1.88.18-3 1.53S60.35 7 61 7.58c.46.42 1.67.29 2.54-.76z"/>
      <path class="cls-4" d="M63.4 6.65c1-1.21 1.62-2.88 1.12-3.52S63 3.25 62 4.42s-1.24 2.28-.76 2.92c.26.39 1.4.23 2.16-.69z"/>
      <path class="cls-5" d="M61 6.45c.29.39 1.42.23 2.18-.69a5.58 5.58 0 001.28-2.7.23.23 0 01.07.07c.5.64-.12 2.31-1.12 3.52-.76.92-1.9 1.08-2.18.69a1.34 1.34 0 01-.24-.9z"/>
      <path class="cls-6" d="M63.17 5.76c-.76.92-1.89 1.08-2.18.69a3.72 3.72 0 011-2c1-1.12 2-1.85 2.47-1.36a5.58 5.58 0 01-1.29 2.67z"/>
      <path class="cls-1" d="M65.65 2.6c-.62-.81-2.4.14-3.78 1.74-.15.17-.57.69-.7.86A7 7 0 0162 4c1.68-1.77 3.12-2.28 3.75-1.48a2.27 2.27 0 010 2.07c-.02.15.41-1.33-.1-1.99zM69.62 52.3c-.1 1.54-.16 4.11-2 5.79s-5.85 2.36-9.28 3.2c-1.66.4-5 .46-5.87-.16-1.32-.94.29-1.62.87-2.9 1-2.13-2-4.08-.8-5.93a31.72 31.72 0 016.34-6.93c2.95-2.3 4.58-2.12 5.31-2.1s2.53 1.8 4 4.47 1.49 3.56 1.43 4.56z"/>
      <path class="cls-3" d="M69.62 52.3a7.53 7.53 0 01-2.4 5.27c-1.84 1.68-6.36 2.65-9.79 3.49-1.66.4-4.08.69-5 .07-1.32-.94-.17-1.61.56-2.81 1.44-2.36-1.68-1.13-1.4-3.21.45-3.33 5-7.21 6.91-8.8 2.88-2.42 3.7-2.54 4.42-2.52a8.54 8.54 0 015.27 4c1.56 2.62 1.49 3.51 1.43 4.51z"/>
      <path class="cls-1" d="M62.38 43.78c-1.71.7-3.77 1.84-4.4 3.41-.55 1.37 1.94.73 3 .23a4.07 4.07 0 002.17-2z"/>
      <path class="cls-7" d="M62.18 44.19c-1.94.8-3.26 1.4-3.91 2.73s1 1 2 .52a9.22 9.22 0 002.7-2z"/>
      <path class="cls-1" d="M60.55 53.94c-2.24-3.44-2.06-8.4.71-10.14s5.2-.22 7.23 3 2.22 8-.26 10.31-4.87 1.16-7.68-3.17z"/>
      <path class="cls-8" d="M60.9 53.64c-2.09-3.21-1.94-7.83.62-9.43s4.81-.17 6.71 2.86 2.12 7.39-.16 9.48-4.55 1.14-7.17-2.91z"/>
      <path class="cls-9" d="M61.77 53.27a18.36 18.36 0 01-1.52-3.45 6 6 0 01.93-4.82 3 3 0 013.62-.79c1.61.8 3.5 3.61 3.84 4.28s0 1.67-1.14 1.1c-1-.45-2.42 1.49-1.83 3.63s-.65 3-1.48 2.61a7.54 7.54 0 01-2.42-2.56z"/>
      <path class="cls-1" d="M78.54 70.8c-.94-1-3.78-3-6.16-2.81-2.6.17-4.85 3.32-6.4 3.44a19.14 19.14 0 01-3.36-.2l-2 20.93s3.43-3.76 6.43-4.27 7.78 0 9.57-.47c3.18-.84 3.14-3 3.62-4.56s2.16-8.01-1.7-12.06z"/>
      <path class="cls-2" d="M77.28 70.47A6.79 6.79 0 0071.39 69c-2.54.61-3.53 2.71-5.09 2.83a13.19 13.19 0 01-3.68-.64l-2 20.93s3.11-3.94 6.1-4.45 7.28-.25 9.09-.67c3.18-.84 4-2.55 4.44-4.09s2.1-7.91-2.97-12.44z"/>
      <path class="cls-3" d="M71.61 68.71a6.41 6.41 0 015.68 1.57c5.07 4.54 3.44 11 3 12.58S79 86 75.81 86.87c-1.79.47-6.08.32-9.08.84a4.14 4.14 0 00-.73.19c0-2 .36-2.4.8-2.41s0 0 .79.52a8.39 8.39 0 003.23.77c.67 0 .46-1.28-.32-3a11.47 11.47 0 01-.82-4.46 16.44 16.44 0 01-.09-4.39c.24-1.25.08-1.23-.5-2.22-.21-.36-.71-.35-1.13-.13s-1.6 1.58-2.61 5.21C64.73 80 64 75.7 63.78 71.54a9.34 9.34 0 002.52.33c1.56-.12 2.77-2.55 5.31-3.16z"/>
      <path class="cls-1" d="M71.32 73.64c-.9-.61-2.82-1.94-1.75-2.92s3.63.94 3.63.94z"/>
      <path class="cls-7" d="M71.36 73.35c-.84-.54-2.61-1.71-1.66-2.55s3.33.86 3.33.86z"/>
      <path class="cls-1" d="M77.58 70.71c-1.65-1.5-4.25-2.38-5.7-1.78-1.26.52.16 1.7 1.12 2.23a7.44 7.44 0 003.13.94z"/>
      <path class="cls-7" d="M77.58 70.71c-1.55-1.42-4-2.14-5.34-1.73s-.09 1.59.81 2.09A7.05 7.05 0 0076 72z"/>
      <path class="cls-1" d="M69.86 79c-.53-5.17 2-10 5.52-9.66s5.62 3.18 5.89 8.56c.31 6.16-1.59 9.36-5.07 9.75s-5.66-2.11-6.34-8.65z"/>
      <path class="cls-8" d="M70.27 79.15c-.5-5 2-9.66 5.32-9.32s4.92 3.59 5.32 8.23-1.41 8.94-4.75 9.29-5.27-1.94-5.89-8.2z"/>
      <path class="cls-9" d="M71.33 79.44a26.55 26.55 0 01.2-4.77c.43-2.18 2.21-4.09 3.32-4.25a3.68 3.68 0 014 2c1.22 2.1 1.71 6.5 1.73 7.46s-.78 1.78-1.69.26c-.73-1.21-3.18-.35-3.65 2.34s-2.15 2.66-2.76 1.52a12.49 12.49 0 01-1.15-4.56z"/>
      <path class="cls-1" d="M13.06 94.33c-.76-.13-1.73.55-2.36 1.64s-.45 2.21-.85 2.93-1 1-.8 1.07a4 4 0 002.68-.24 2.47 2.47 0 001.61-1.85c.26-.61 1.87-1.29 2.4-1.69s-.25-1-.79-1.3a5.88 5.88 0 00-1.89-.56z"/>
      <path class="cls-10" d="M13 94.55c-.7-.13-1.59.5-2.18 1.5s-.35 2.18-.71 2.85-.93.89-.72.93a3.52 3.52 0 002.39-.3 2.28 2.28 0 001.48-1.71c.23-.56 1.72-1.19 2.21-1.56s-.23-.89-.73-1.2a5.43 5.43 0 00-1.74-.51z"/>
      <path class="cls-1" d="M26.68 92c-1.12-.12-2.53 1-4 2a30.1 30.1 0 01-5.85 2.81c-1.52.51-2.77.36-3.25.84s-.52-.56.55-.93.41-1-.64-1.55c-.59-.31-1.44-.89-.48-.89 1.46 0 2.35.85 4.13.58a3.56 3.56 0 002.86-2.3 5 5 0 00.64-2.41z"/>
      <path class="cls-3" d="M26.09 91.56c-1.07-.08-2.22.86-3.64 1.82a26.88 26.88 0 01-5.08 2.75 34.75 34.75 0 00-3.63 1.18c-.56.34-.38-.26.65-.63s.35-1.19-.64-1.66c-.55-.27-1.33-.54-.42-.56 1.4 0 2.15 1 3.86.75a3.81 3.81 0 003.12-2.33 4.33 4.33 0 00.59-2.49z"/>
      <path class="cls-2" d="M20.64 92.75A3.92 3.92 0 0120 94a3.15 3.15 0 01-1 1 3 3 0 01-2 .64 3 3 0 01-.95-.45 3.34 3.34 0 001.14 0 3.81 3.81 0 003.12-2.33 4.36 4.36 0 00.27-.59c.1.11.13.23.06.48z"/>
      <path class="cls-1" d="M57.09 94.75s5.83-1.62 7.8-4.29a7.44 7.44 0 001.71-4.86l-5.93.85z"/>
      <path class="cls-2" d="M57 94.37s5.72-2.06 7.69-4.73a9.43 9.43 0 002-4.7l-6.15 1.14z"/>
      <path class="cls-1" d="M44.33 99.29c-.84.31-3.51 1.53-3.3 3.28.35 2.84.64 5.49-.48 6.76s-4.45 3.46-9.51 2.81c-5.41-.69-7.77-4.08-8.12-5.85s.69-2.45.78-5.53a18.78 18.78 0 00-.94-6c-.64-1.93-4.48-8.54-4.48-8.54s12.64 5.33 17.46 7.88a84.41 84.41 0 018.59 5.19z"/>
      <path class="cls-2" d="M43.9 99.08c-.82.29-3.51 1.56-3.3 3.28.34 2.77.55 5.22-.55 6.47s-3.8 3.41-8.75 2.77c-5.29-.68-7.3-3.5-7.65-5.22s.67-2.36.76-5.38a21.82 21.82 0 00-1-6.4A25.68 25.68 0 0021 90s10 1.65 14.66 4.15a92.2 92.2 0 018.24 4.93z"/>
      <path class="cls-3" d="M40.6 102.36c.34 2.77.55 5.22-.55 6.47s-3.8 3.41-8.75 2.77c-5.29-.68-7.3-3.5-7.65-5.22s.67-2.36.76-5.38a23.64 23.64 0 00-1.15-6.54 27.72 27.72 0 00-1.68-3.21c.7.84 1.82 1.63 2.19 2.14.81 1.1.49 1.48 1.16 4.14s-.19 6.17-.63 7.5.95 2.82 2.46 3.64 2.47-.23 3.19-2a2.27 2.27 0 013.52-1c1.09.67 1.22.58 1.5-.39s2-1.72 3.17-1.59 1.76 1.19 1.8.38-.52-2.61-2.66-4.09.49-1.98 3.72-1.81l1.68.08c.8.51 1.26.83 1.26.83-.86.29-3.55 1.56-3.34 3.28z"/>
      <path class="cls-1" d="M39.2 105.47a7.4 7.4 0 011.1 3 2.8 2.8 0 01-.25.35 8.64 8.64 0 01-5.2 2.74c0-1 0-2.22.12-3.24.29-3.9 3.03-4.5 4.23-2.85z"/>
      <path class="cls-7" d="M39.06 105.6a7.52 7.52 0 011 3 2.08 2.08 0 01-.24.34A7.81 7.81 0 0135 111.6c0-1 0-2.18.09-3.17.3-3.88 2.8-4.43 3.97-2.83z"/>
      <path class="cls-1" d="M34.56 108.58c0 1.1-.12 2.1-.12 3a12.76 12.76 0 01-3.14 0 15.17 15.17 0 01-1.51-.27 8.44 8.44 0 011.27-4.39c1.44-1.92 3.45-.4 3.5 1.66z"/>
      <path class="cls-7" d="M34.37 108.68c0 1.07-.09 2-.09 3a10.48 10.48 0 01-2.89-.05 13.38 13.38 0 01-1.4-.27 8.46 8.46 0 011.15-4.28c1.31-1.96 3.17-.42 3.23 1.6z"/>
      <path class="cls-1" d="M13.67 31.44c-1.3-.66-2-1.64-2.82-3.52s-3.29-3.94-5-3-2.7 4.37-.47 5.38 5.25 1.34 7 2.65c.81.55 1.29-1.51 1.29-1.51z"/>
      <path class="cls-2" d="M13.32 31.61a6.1 6.1 0 01-2.79-3.36c-.68-1.76-2.62-3.59-4.32-2.94s-2.63 3.46-.51 4.58 4.82 1.47 6.5 2.82c.74.6 1.12-1.1 1.12-1.1z"/>
      <path class="cls-3" d="M59.53 93.31c.16-.31.31-.59.42-.82a7 7 0 012.16-2.31 3.59 3.59 0 002.11-.45c.82-.5 1.58-2.06 2.18-3.16a12.11 12.11 0 01-1.67 3.07c-1.11 1.5-3.4 2.81-5.2 3.67z"/>
      <path class="cls-1" d="M27.61 22.23C13.58 21.12 10 30 11.17 35.11c.86 3.8 3.92 10.51 3.1 13.28s-3.09 12.24-2 20.12c1.58 11.87 5.11 16.75 8.64 21.84S33.7 100.43 41.76 100 62.27 97.15 65 87.7c2.57-8.88.58-14.87-1.69-20.69s-8.06-11.45-11.19-14.88-24.51-29.9-24.51-29.9z"/>
      <path class="cls-2" d="M23.59 22.39c-9.69 1.71-11.93 8-11.51 11.42.47 3.82 3.85 12.36 3.06 15.09a46.21 46.21 0 00-2 16.89c1 13.28 4 17 8.54 24.56 4.89 8.06 9.62 9.69 17.44 9.29S61 98.1 64.68 87.18c.54-1.6 1.42-3.19 1.53-4.83.1-1.27-.52-2.44-.64-3.67a44.93 44.93 0 00-3.2-11.6c-2.21-5.75-7.15-10.5-10.19-13.89s-28.59-30.8-28.59-30.8z"/>
      <path class="cls-3" d="M54.15 58.88c-1.62-.76-5.75-.82-7.75-.67s-2.31-.86-2.31-.86a58.11 58.11 0 016-5.69c.72.65 1.27 1.18 1.58 1.53 3 3.39 8 7.34 10.22 13.09a56.28 56.28 0 012.73 10.42 58.28 58.28 0 00-4.42-11.52c-1.58-2.66-4.42-5.55-6.05-6.3z"/>
      <path class="cls-11" d="M37.18 38.49s.73 3 2.09 7.64c1.28 4.27 4.83 6.51 7 6.81s6.75-1.06 7.42-4.77c.27-1.56 2.07-5.85-.15-9.34s-16.36-.34-16.36-.34z"/>
      <path class="cls-12" d="M41.55 44.45a3.7 3.7 0 01-1.55-2.8c0-1 .27-2.64 1.25-2.57s.86 1.43.74 2.3c-.15 1.19.52 1.3.85 1.07s.81-.76.2-1.32-1.04-1.83-.45-2.43 1.19.17 1.59 1.82S45 43 44 43.8s-1.87.92-2.45.65z"/>
      <path class="cls-13" d="M40.59 44.47a17.74 17.74 0 002.3 5.53 4.39 4.39 0 003.63 1.81c1.46.08 3.37-.72 3.82-1.76a5.94 5.94 0 00.08-4.39c-.66-1.63-4-1.8-5.71-1.71s-4.13-.28-4.12.52z"/>
      <path class="cls-1" d="M42.41 43.28a3.81 3.81 0 001.89-1.21c.4-.45 2-.8 4 .92s2.36 2.61 2.37 4.37-.23 3.17-2.24 3.54-3.81.34-5.49-2-2.38-4.12-2.18-4.65.77-.78 1.65-.97z"/>
      <path class="cls-14" d="M42.48 43.36a3.86 3.86 0 001.88-1.18c.39-.44 2-.8 3.92.88s2.32 2.54 2.33 4.26-.24 3.09-2.24 3.46-3.77.34-5.44-2-2.34-4-2.15-4.54.82-.69 1.7-.88z"/>
      <path class="cls-15" d="M48.28 43.06c-1.89-1.68-3.53-1.32-3.92-.88a4.22 4.22 0 01-1 .83A7.05 7.05 0 0146 44.34 10.73 10.73 0 0150 50a3.84 3.84 0 00.67-2.68c-.07-1.72-.5-2.59-2.39-4.26z"/>
      <path class="cls-16" d="M44.66 43.5a10.23 10.23 0 012.53 1.87 9.16 9.16 0 011.44 1.78A10.09 10.09 0 0046.75 45a12.55 12.55 0 00-2.09-1.5z"/>
      <path class="cls-1" d="M57.61 39.92s-.2 6-2.55 10.29c-3.05 5.57-7.55 8.47-10.77 8.23s-7.29-4.19-8.7-7.38S33.7 39.3 33.7 39.3l4.6.51a29.66 29.66 0 002.53 7.62c1.85 3.59 4.46 4.69 7.68 4.18 1.88-.29 3.4-2.52 3.74-4.91s.53-6.57.53-6.57z"/>
      <path class="cls-2" d="M57.32 39.63s-.46 6.16-2.81 10.44c-3 5.57-7.64 8.56-10.87 8.32a11 11 0 01-8.4-6c-1.42-3.19-3.59-13.59-3.59-13.59l6.41.68a26.62 26.62 0 002.36 7.77c1.85 3.58 4.65 5.32 7.88 4.81a5.84 5.84 0 004.34-4.72 55.15 55.15 0 00.14-7.19z"/>
      <path class="cls-3" d="M46.79 56.42a4.23 4.23 0 01-3.53-1.16c-1.43-1.22.21-1.42.89-1.06a7.26 7.26 0 003.36.29c1.39-.11 2-.63 2.22-1.17s-2.43-.24-4.11-.7a8 8 0 01-4.68-3.23 27.9 27.9 0 01-2.59-5.52 25.78 25.78 0 00-2.14-4.44h1.85a26.62 26.62 0 002.36 7.77c1.85 3.58 4.65 5.32 7.88 4.81a5.84 5.84 0 004.34-4.72 55.15 55.15 0 00.14-7.19l4.54-.5s-.46 6.16-2.81 10.44c-2.6 4.75-6.31 7.61-9.35 8.21.48-.19.76-.51 1.38-.76.92-.33 1.19-1.19.25-1.07z"/>
      <path class="cls-1" d="M55 41.06s0 4.53-1.44 5.46-4.17.8-4.19-.48c0-.91-.18-5.07-.18-5.07z"/>
      <path class="cls-17" d="M54.88 41.27s0 4.25-1.41 5.14-4 .76-4-.44c0-.86-.17-4.78-.17-4.78z"/>
      <path class="cls-1" d="M50.19 41.41S50.49 46 48.9 47a5.14 5.14 0 01-5-.46c-1.09-1-1.45-2.34-1.46-4.61a8.36 8.36 0 01.29-2.53z"/>
      <path class="cls-17" d="M49.92 41.21s.58 4.31-1.1 5.61c-1.08.83-3.78.56-4.84-.44s-1.39-2.26-1.41-4.45a8.17 8.17 0 01.28-2.45z"/>
      <path class="cls-1" d="M39.94 66.39c-1 .78-5.67 3.66-7.27 5.11-1.86 1.7-2.63 4.4-3.08 4.09a14.08 14.08 0 01-5.37-6c-2.34-4.62-4.6-10.13-3.36-10.15a15.22 15.22 0 007.76-2c.87-.64 11.32 8.95 11.32 8.95z"/>
      <path class="cls-2" d="M39.44 66.39c-.95.76-5.88 3.61-7.44 5-1.81 1.65-2.28 5.35-2.73 5-3-2-5.41-4.18-6.52-6.35-2.28-4.48-4.09-12.57-3.1-11.89 4.18 2.83 9.19 0 10-.69s9.79 8.93 9.79 8.93z"/>
      <path class="cls-1" d="M44.53 58c.39 1.46.54 4.27-1.17 6.16a16.4 16.4 0 01-10.8 5c-2 .1-5.6-5.65-6.14-7.61a8.63 8.63 0 012.12-7.63C31.12 51 33.11 51.21 34 51.1s4.18.88 7 3.11 3.27 2.85 3.53 3.79z"/>
      <path class="cls-2" d="M44.2 58.24a6.11 6.11 0 01-1.3 5.7 20.9 20.9 0 01-8.61 5c-.93.24-2.16 1.05-3 1-2-.16-4.82-4.14-5.15-6.13a11.65 11.65 0 012.41-9.28c2.2-2.49 3.66-3 4.56-3.1A14.18 14.18 0 0141 54.21c2.73 2.23 3 3.08 3.2 4.03z"/>
      <path class="cls-3" d="M35.67 68.43c1-.58 2.88-1.54 3.28-2.74S37.47 64 35.09 63a8.29 8.29 0 01-4.24-4.33 3.37 3.37 0 00-2.41-2.21c-.4 0-.57-.43-.58-1a10.29 10.29 0 01.71-.93c2.2-2.49 3.66-3 4.56-3.1A14.18 14.18 0 0141 54.21c2.77 2.23 3 3.08 3.24 4a6.11 6.11 0 01-1.3 5.7 21.09 21.09 0 01-7.49 4.67 1.46 1.46 0 01.22-.15z"/>
      <path class="cls-1" d="M32.41 51.75c-1.84.5-4 2.46-3.81 3.78.12 1 2.16 0 2.89-.47 1.26-.76.92-3.31.92-3.31z"/>
      <path class="cls-7" d="M32.27 52c-1.73.47-3.68 2.32-3.58 3.44s2-.16 2.66-.58c1.19-.69.92-2.86.92-2.86z"/>
      <path class="cls-1" d="M33.63 61.28c-3.84-2.77-5.27-7.35-2.48-9.42s6.22-1.09 9.76 1.54 5.15 6.5 2.89 9-5.33 2.37-10.17-1.12z"/>
      <path class="cls-8" d="M33.89 61c-3.66-2.64-5-7-2.4-8.93s5.88-1 9.25 1.5 4.9 6.18 2.78 8.54-5.03 2.23-9.63-1.11z"/>
      <path class="cls-9" d="M34.84 60.51a20.59 20.59 0 01-3-3c-1.15-1.56-1.14-3.83-.46-4.64a4 4 0 014.2-1.37c2.25.47 5.52 2.77 6.18 3.33s.62 1.55-1 1.23c-1.32-.25-2.49 1.81-1 3.71s.22 3-.95 2.7a11.44 11.44 0 01-3.97-1.96z"/>
      <path class="cls-1" d="M15.24 34.46a12.42 12.42 0 01-5.22-1c-2.16-1.11-4.35-3-6.72-2S.17 33.52 0 35.57a4.84 4.84 0 002.67 4.34c1.33.77 2.77 1.09 5.76-.24a13.05 13.05 0 015.81-1.39c1.14 0 2.13-.46 1.72-1.76s-.72-2.06-.72-2.06z"/>
      <path class="cls-2" d="M15.35 34.36a8.43 8.43 0 01-5.51-.45c-2-1.06-3.68-2.94-6-1.93-2.12.91-3.08 1.67-3.23 3.62A4.19 4.19 0 003 39.5c1.26.73 2.76 1 5.6-.27S13 38 14.06 38.12c2 .26 2.65-.27 2.25-1.5a14 14 0 00-.96-2.26z"/>
      <path class="cls-1" d="M13.9 35.47a30.54 30.54 0 01-4.44-.81c-2-.66-4-1.14-3.84.38.1 1.32 1.56 2.61 3.78 2.11 2.58-.58 4.84-.91 4.84-.91z"/>
      <path class="cls-18" d="M13.75 35.47a24.49 24.49 0 01-4.18-.67c-1.95-.64-3.92-1.22-3.81.25.1 1.28 1.72 2.42 3.86 1.94 2.49-.55 4.46-.78 4.46-.78z"/>
      <path class="cls-1" d="M12.8 34.94a2.34 2.34 0 001.26 2.3c.82.54.89-1.48.89-1.48z"/>
      <path class="cls-2" d="M12.85 34.72a3.58 3.58 0 001.58 2.69c.82.54.69-1.71.69-1.71z"/>
      <path class="cls-3" d="M7.11 39.12a6.21 6.21 0 01-4.53-.57 5.55 5.55 0 01-2-2.95A4.19 4.19 0 003 39.5c1.26.73 2.76 1 5.6-.27a11.81 11.81 0 014.63-1.17 5.83 5.83 0 00-1.36-.16 17.46 17.46 0 00-4.76 1.22z"/>
      <path class="cls-19" d="M2.63 33.84c1.06.1 0-.83 2.06-1.34a5.56 5.56 0 013.38.32C6.74 32 5.45 31.28 3.83 32S1.35 33.24.91 34.27a3.52 3.52 0 011.72-.43z"/>
      <path class="cls-3" d="M54.75 45.5l.55.1z"/>
      <path class="cls-1" d="M47.39 55.3a9.2 9.2 0 002.72-1.3 4.69 4.69 0 01-5.94 1 6.11 6.11 0 003.22.3zM32 23.71s-3.19-3.23-7.39-3.1c-2.77.08-4.61 1.66-4.14 4.12s8.13 6.48 8.13 6.48z"/>
      <path class="cls-20" d="M31.39 23.76a10.41 10.41 0 00-6.88-2.89c-2.58.08-4.29 1.55-3.86 3.85s7.57 6 7.57 6z"/>
      <path class="cls-1" d="M29.29 31.16c-.13-3.06-2.68-6.46-7.06-7.24-4.25-.55-7.06 1.51-7 4.37s3.36 5.42 7.72 6.16c4.45.97 6.43-.31 6.34-3.29z"/>
      <path class="cls-20" d="M30.6 30.87c-.14-2.84-3.73-6-7.87-6.7-4-.53-7.1 1.41-7.06 4.07S18.86 33.29 23 34c4.21.92 7.69-.36 7.6-3.13z"/>
      <path class="cls-21" d="M21.66 24.36a1 1 0 10.15 1.87 1 1 0 10-.15-1.87z"/>
      <path class="cls-22" d="M21.27 25.45a.26.26 0 10.33.24.29.29 0 00-.33-.24zM22.1 24.87a.15.15 0 00-.1.13.14.14 0 00.17.12.14.14 0 00.14-.14.15.15 0 00-.21-.11z"/>
      <path class="cls-21" d="M24.62 21.07a.7.7 0 00-.81.6.73.73 0 00.75.7.72.72 0 00.81-.6.73.73 0 00-.75-.7z"/>
      <path class="cls-22" d="M24.25 21.78A.2.2 0 0024 22a.22.22 0 00.21.2.19.19 0 00.22-.17.22.22 0 00-.18-.25zM24.87 21.46a.12.12 0 00-.11.09.1.1 0 00.11.09.1.1 0 00.11-.08.11.11 0 00-.11-.1z"/>
      <path class="cls-1" d="M24.94 37.81c4.77 2 7.25 2.8 16.69 3.37 7.69.46 17.36 1.68 22.29-3.5a23.37 23.37 0 006.88-17.55C70.51 13.79 67.48 6 57.88 3.46 52.68 2.1 43 4 36 9.3 24.63 18 21.31 34.2 21.31 34.2z"/>
      <path class="cls-2" d="M23.8 39.27c4.63 2 8.75.87 17.94 1.42 7.48.45 16.9 1.63 21.69-3.4s7.27-10.76 7-16.93S66.08 5.42 56.84 3.65c-5.13-1-13.4.65-20.26 5.74C24.66 18.23 21 36.26 21 36.26z"/>
      <path class="cls-23" d="M56.84 3.65c-5.13-1-13.4.65-20.26 5.74a31.89 31.89 0 00-6 5.91l.07-.07C34.93 11 44.59 5.43 47.94 4.59s12.38 2.12 11.8 3.58-3.85 5-.91 5.19 3.75 2.44 3.58 5.36 1.49 12.2 4.21 10.55c.85-.51 1.84-.92 2.76-1.49a20.19 20.19 0 001-7.42c-.26-6.17-4.3-14.94-13.54-16.71z"/>
      <path class="cls-1" d="M51.53 4.81S47-4.58 42.93 2.88c-2.92 5.28.12 8.24.12 8.24s3.28.73 5.48-1.27a13.52 13.52 0 003-5.04z"/>
      <path class="cls-2" d="M52 6.08S47.43-4 43.21 3.22a10 10 0 00-.74 8.94s4.72.11 6.76-1.74A11.91 11.91 0 0052 6.08z"/>
      <path class="cls-3" d="M43.83 10.48c1.64.8 3.18-.52 3.68-2.4s.09-4.36 1.6-2.42c.25.32-.55-1.79-.86-3A1.76 1.76 0 0045.34 2a2.69 2.69 0 01-1.67.51c-.15.22-.31.46-.46.73a10.06 10.06 0 00-1.37 3.86 3.3 3.3 0 001.99 3.38z"/>
      <path class="cls-1" d="M47.11 7.32c.29-2-.16-4.14-1.11-4.44s-1.66 1.39-2 3.34.2 3.31 1.16 3.41c.65.07 1.72-.8 1.95-2.31z"/>
      <path class="cls-4" d="M46.88 7.25c.25-1.73-.12-3.62-.93-3.87s-1.37 1.08-1.65 2.8.12 2.84.93 3.11c.48.17 1.45-.72 1.65-2.04z"/>
      <path class="cls-5" d="M44.51 8.64c.49.17 1.45-.72 1.65-2a5.93 5.93 0 00-.33-3.24h.12c.81.25 1.18 2.14.93 3.87-.2 1.32-1.17 2.21-1.65 2a1.24 1.24 0 01-.73-.66z"/>
      <path class="cls-24" d="M46.16 6.6c-.2 1.32-1.16 2.21-1.65 2a3.88 3.88 0 01-.2-2.45c.27-1.64.78-2.93 1.53-2.82a5.93 5.93 0 01.32 3.27z"/>
      <path class="cls-1" d="M46.7 2.17c-1-.32-2.17 1.68-2.56 4 0 .24-.14 1-.16 1.22a7.68 7.68 0 01.11-1.68c.57-2.67 1.63-4.07 2.68-3.75.56.18 1 .88 1.17 1.85.06.19-.39-1.38-1.24-1.64z"/>
      <path class="cls-25" d="M38.17 20a.72.72 0 00-1-.14.64.64 0 10.64 1.14.71.71 0 00.36-1zM30.19 22.88a.8.8 0 00-1.4.7.72.72 0 001 .21.71.71 0 00.4-.91zM32.38 29.3a.8.8 0 10-.42.91.71.71 0 00.42-.91z"/>
      <path class="cls-26" d="M54 67.37c3.38-1.32 7.48 2.32 9.19 8.18s.29 11.63-3.3 12.8-7.79-2.57-9.34-8.29.06-11.37 3.45-12.69z"/>
      <path class="cls-27" d="M54.05 67.55c3.34-1.3 7.37 2.28 9.05 8s.27 11.45-3.25 12.62-7.66-2.52-9.18-8.17.04-11.16 3.38-12.45z"/>
      <path class="cls-28" d="M68.24 58.16a16.53 16.53 0 102-23.29 16.52 16.52 0 00-2 23.29z"/>
      <path class="cls-29" d="M63.24 9a21.47 21.47 0 013.89 8.4 17 17 0 010 7.42 22 22 0 000-7.06A26.94 26.94 0 0063.24 9z"/>
      <path class="cls-29" d="M63.46 12a4.78 4.78 0 011.62-.26 5.13 5.13 0 011.45.2 11.14 11.14 0 00-1.33-.07 11.53 11.53 0 00-1.74.13zM65.47 18.42a5.33 5.33 0 013-.41 10.51 10.51 0 00-1.33.08 10.82 10.82 0 00-1.67.33z"/>
    </g>
  </g>
</svg>
