<svg xmlns="http://www.w3.org/2000/svg" xmlns:xlink="http://www.w3.org/1999/xlink" viewBox="0 0 125.21 113.93">
  <defs>
    <radialGradient id="radial-gradient" cx="39.89" cy="33.02" r="71.38" gradientTransform="matrix(-1 0 0 1 121.21 0)" gradientUnits="userSpaceOnUse">
      <stop offset="0" stop-color="#9edbff"/>
      <stop offset="1" stop-color="#4f99cf"/>
    </radialGradient>
    <radialGradient id="radial-gradient-2" cx="34.56" cy="77.01" r="16.35" gradientTransform="matrix(-1 0 0 1 121.21 0)" gradientUnits="userSpaceOnUse">
      <stop offset="0" stop-color="#fff0da"/>
      <stop offset="1" stop-color="#d3b98a"/>
    </radialGradient>
    <radialGradient id="radial-gradient-3" cx="46.18" cy="94.15" r="21.38" gradientTransform="matrix(-1 0 0 1 121.21 0)" gradientUnits="userSpaceOnUse">
      <stop offset="0" stop-color="#ff999f"/>
      <stop offset="1" stop-color="red"/>
    </radialGradient>
    <radialGradient id="radial-gradient-4" cx="57.79" cy="83.48" r="14.76" xlink:href="#radial-gradient-2"/>
    <radialGradient id="radial-gradient-5" cx="52.27" cy="79.87" r="11.59" xlink:href="#radial-gradient-2"/>
    <radialGradient id="radial-gradient-6" cx="39.89" cy="33.02" r="71.38" gradientTransform="matrix(-1 0 0 1 121.21 0)" gradientUnits="userSpaceOnUse">
      <stop offset="0" stop-color="#7fb8d9"/>
      <stop offset="1" stop-color="#357aac"/>
    </radialGradient>
    <radialGradient id="radial-gradient-7" cx="39.89" cy="33.02" r="71.38" xlink:href="#radial-gradient-6"/>
    <radialGradient id="radial-gradient-8" cx="27.71" cy="74.34" r="13.51" xlink:href="#radial-gradient-2"/>
    <radialGradient id="radial-gradient-9" cx="39.88" cy="33.02" r="71.38" xlink:href="#radial-gradient"/>
    <radialGradient id="radial-gradient-10" cx="39.89" cy="33.02" r="71.38" xlink:href="#radial-gradient"/>
    <radialGradient id="radial-gradient-11" cx="40.65" cy="86.72" r="15.32" xlink:href="#radial-gradient-3"/>
    <radialGradient id="radial-gradient-12" cx="39.89" cy="33.02" r="71.38" xlink:href="#radial-gradient-3"/>
    <radialGradient id="radial-gradient-13" cx="39.89" cy="33.02" r="71.38" gradientTransform="matrix(-1 0 0 1 121.21 0)" gradientUnits="userSpaceOnUse">
      <stop offset="0" stop-color="#ffc39f"/>
      <stop offset="1" stop-color="#ff770f"/>
    </radialGradient>
    <radialGradient id="radial-gradient-14" cx="15.55" cy="103.18" r="14.77" xlink:href="#radial-gradient-3"/>
    <radialGradient id="radial-gradient-15" cx="-11.81" cy="87.96" fx="6.566" fy="59.013" r="39.2" gradientTransform="matrix(-1 0 0 1 121.21 0)" gradientUnits="userSpaceOnUse">
      <stop offset="0" stop-color="#ffcabb"/>
      <stop offset="1" stop-color="#ff8554"/>
    </radialGradient>
    <radialGradient id="radial-gradient-16" cx="39.89" cy="33.02" r="71.38" xlink:href="#radial-gradient"/>
    <radialGradient id="radial-gradient-17" cx="39.9" cy="33.02" r="71.37" xlink:href="#radial-gradient"/>
    <radialGradient id="radial-gradient-18" cx="39.89" cy="33.02" r="71.38" xlink:href="#radial-gradient"/>
    <radialGradient id="radial-gradient-19" cx="39.89" cy="33.02" r="71.38" xlink:href="#radial-gradient"/>
    <radialGradient id="radial-gradient-20" cx="39.89" cy="33.02" r="71.38" xlink:href="#radial-gradient"/>
    <radialGradient id="radial-gradient-21" cx="39.89" cy="33.02" r="71.38" xlink:href="#radial-gradient"/>
    <radialGradient id="radial-gradient-22" cx="39.9" cy="33.02" r="71.37" xlink:href="#radial-gradient"/>
    <radialGradient id="radial-gradient-23" cx="39.9" cy="33.02" r="71.38" xlink:href="#radial-gradient"/>
    <radialGradient id="radial-gradient-24" cx="39.88" cy="33.02" r="71.39" xlink:href="#radial-gradient"/>
    <style>
      .cls-1{fill:url(#radial-gradient)}.cls-2,.cls-30{fill:#355061}.cls-2{opacity:.18}.cls-3{fill:url(#radial-gradient-2)}.cls-4{fill:url(#radial-gradient-3)}.cls-5{fill:url(#radial-gradient-4)}.cls-6{fill:url(#radial-gradient-5)}.cls-7{fill:url(#radial-gradient-6)}.cls-8{fill:url(#radial-gradient-7)}.cls-9{fill:url(#radial-gradient-8)}.cls-10,.cls-26,.cls-28,.cls-36{fill:#fff}.cls-11{fill:url(#radial-gradient-9)}.cls-12{fill:url(#radial-gradient-10)}.cls-13{fill:#1a4159}.cls-14{fill:url(#radial-gradient-11)}.cls-15{fill:url(#radial-gradient-12)}.cls-16{fill:url(#radial-gradient-13)}.cls-17{fill:#466d85}.cls-18{fill:#6589a9}.cls-19{fill:#1b1b1b}.cls-20{fill:none}.cls-21{fill:url(#radial-gradient-14)}.cls-22{fill:url(#radial-gradient-15)}.cls-23{fill:url(#radial-gradient-16)}.cls-24{fill:url(#radial-gradient-17)}.cls-25{fill:url(#radial-gradient-18)}.cls-26{opacity:.42}.cls-27{fill:#595650}.cls-28{opacity:.15}.cls-29{fill:url(#radial-gradient-19)}.cls-30{opacity:.31}.cls-31{fill:url(#radial-gradient-20)}.cls-32{fill:url(#radial-gradient-21)}.cls-33{fill:url(#radial-gradient-22)}.cls-34{fill:url(#radial-gradient-23)}.cls-35{fill:url(#radial-gradient-24)}.cls-36{opacity:.39}
    </style>
  </defs>
  <g id="Слой_2" data-name="Слой 2">
    <g id="Слой_1-2" data-name="Слой 1">
      <path class="cls-1" d="M82.3 85.47a23.73 23.73 0 003.45-.47 19.93 19.93 0 006-2c-1.19.13-1.72-.26-2-1.44a19.09 19.09 0 01-.4-4.13c.06-1.77 1.07-5.71 3.66-4.89a20.41 20.41 0 00-5.88-6.06c-3.2 2.76-7.45 4.28-11.48 5.37a41.17 41.17 0 01-12.25 1.4 23.34 23.34 0 014.6 3.56 10.56 10.56 0 012.93 4.33A43.07 43.07 0 0176.79 83a46.75 46.75 0 015.51 2.47zm.82-1.18a8.66 8.66 0 01-1.52-4 8.19 8.19 0 01-.1-3.55 3.58 3.58 0 012.62-2.51c2.89-.61 4.87 1.85 5.16 4.5a9.46 9.46 0 01-.46 4.16A3.25 3.25 0 0186 84.88c-1.06.12-2.17.27-2.88-.59z"/>
      <path class="cls-2" d="M82.3 85.47a23.73 23.73 0 003.45-.47 19.93 19.93 0 006-2c-1.19.13-1.72-.26-2-1.44a19.09 19.09 0 01-.4-4.13c.06-1.77 1.07-5.71 3.66-4.89a20.41 20.41 0 00-5.88-6.06c-3.2 2.76-7.45 4.28-11.48 5.37a41.17 41.17 0 01-12.25 1.4 23.34 23.34 0 014.6 3.56 10.56 10.56 0 012.93 4.33A43.07 43.07 0 0176.79 83a46.75 46.75 0 015.51 2.47zm.82-1.18a8.66 8.66 0 01-1.52-4 8.19 8.19 0 01-.1-3.55 3.58 3.58 0 012.62-2.51c2.89-.61 4.87 1.85 5.16 4.5a9.46 9.46 0 01-.46 4.16A3.25 3.25 0 0186 84.88c-1.06.12-2.17.27-2.88-.59z"/>
      <path class="cls-3" d="M86.22 74.84c2.41.8 2.67 4.21 2.37 6.28a3.35 3.35 0 01-1.35 2.67 5 5 0 01-2.69.45c-.91 0-1.38-1.56-1.6-2.24a14.06 14.06 0 01-.61-3.59c-.09-2.17 1.47-4.36 3.88-3.57z"/>
      <path class="cls-4" d="M70.17 87.62a27.57 27.57 0 018.74 2.26 7.74 7.74 0 013 2.34 6.3 6.3 0 01.93 3.58 14.65 14.65 0 01-10.43 6 51.4 51.4 0 01-10.88-.16 13.43 13.43 0 01.25-8.63c.65-.24 1.29-.5 1.9-.77 2.41-1.03 5.03-2.39 6.49-4.62z"/>
      <path class="cls-5" d="M62.72 90.87c-1 .37-1.8.58-2.61-.24a10.13 10.13 0 01-2.58-6 3.35 3.35 0 013.4-3.47c2.46 0 3.68 2.84 4 4.9a8.94 8.94 0 01.07 2.32 3.08 3.08 0 01-2.28 2.49z"/>
      <path class="cls-6" d="M66 84.56a7.89 7.89 0 01.17-5.64A1.52 1.52 0 0168 78a8.42 8.42 0 012.48 4.74A6.31 6.31 0 0168.84 88c-1.84.72-2.39-2.14-2.84-3.44z"/>
      <path class="cls-7" d="M82 25.17a.28.28 0 000-.09c2.51-1.69 5.77-2.75 7.76-.34 1.33 1.61.34 4.37-.49 6.07A38.2 38.2 0 0082 25.17z"/>
      <path class="cls-8" d="M50.52 12.68a18.67 18.67 0 00-2.93-2.63c2-1.2 4.62-2.28 6.4-1.32 2.92 1.57 1.53 4.47-.85 5.58a10.31 10.31 0 00-2.62-1.63z"/>
      <path class="cls-9" d="M90.33 81.2a11.64 11.64 0 01-.22-3.58 8 8 0 011.17-3.46 1.55 1.55 0 012.09-.63c1.19 2 1.83 4 1.13 6.31a5.15 5.15 0 01-1.83 2.57l-.56.39c-1.11.2-1.56-.57-1.78-1.6z"/>
      <path class="cls-10" d="M40.1 26.19a18.23 18.23 0 01-2.62-7.54A7.8 7.8 0 0138.74 13c3.63-4.52 9.73.26 12 3.72a12.43 12.43 0 00-.84-1.67 14.2 14.2 0 00-1.2-1.6c1.94-.26 3.78 1 5.08 2.27A13.56 13.56 0 0157 21.57a45.58 45.58 0 00-15.55 6.78 20.38 20.38 0 01-1.35-2.16z"/>
      <path class="cls-11" d="M70.73 84.3a7.42 7.42 0 00-.79-4.06 6.45 6.45 0 01.79 4.06z"/>
      <path class="cls-12" d="M10.18 61.54c-2.89 7.23-3.93 15.34-4.33 23.07l20.42-2A27.11 27.11 0 0122 73.28l.11-.34A26.77 26.77 0 0027 81.72c2.85 3.58 6.22 7.07 10.41 9.07a6.46 6.46 0 01-.08-2.32 7.64 7.64 0 003.66 4.44 13.48 13.48 0 006.41 1.35 35 35 0 0013.4-2.16c-1.75-.27-2.88-2.95-3.45-4.35s-1.2-3.1-.58-4.65a4 4 0 015-2.31c2 .69 3.19 2.86 3.59 4.82.27 1.32.58 3.36-.27 4.55a23.27 23.27 0 002.77-1.65c-1.22.21-1.58-1.06-1.93-2a21.67 21.67 0 01-1.08-3.43c-.35-1.83-.29-5.8 2.34-6a21.51 21.51 0 00-6.48-4 17 17 0 00-7.52-.79c-4.78.45-9.68 2.36-12.8 6.12a15.64 15.64 0 0111.4-7.34 76.87 76.87 0 01-19.54-9.5c3.75 1.29 7.07 3.44 10.63 5.15A69.25 69.25 0 0053.73 71a17.66 17.66 0 018.18 1.5 36.74 36.74 0 0013.49-1.8c4.4-1.39 8.74-3.22 11.91-6.68 4.88-5.35 7-13.11 6.19-20.22a22.47 22.47 0 00-2.87-9c-2-3.46-5.19-6-8.47-8.26a22.69 22.69 0 010 2.66l-.3.27c-.13-3.47-.82-9.9-5.26-10.62-2.6-.42-5.38 1.24-7.31 2.8a14.42 14.42 0 00-4.57 6.47 9.43 9.43 0 012.51-6.17 47.91 47.91 0 00-15.75 2.51 61.45 61.45 0 00-6.85 2.79c-1.17.57-2.33 1.17-3.46 1.82s-2.32 1.51-3.56 2.12c.67-.56 1.61-1.29 2.79-2.12a20.57 20.57 0 01-2-3c-2.12-3.55-4-8.73-2.1-12.77A5.78 5.78 0 0141 10a8.83 8.83 0 016.8 2.6 2.82 2.82 0 011.5-.23 12.34 12.34 0 00-8.36-4.25c-3.35-.1-7 1.36-9.82 3a11.29 11.29 0 001.63-.12c-2.66 1.37-5.84.94-8.51-.15s-5.71-3-8.46-1.33c-2.3 1.4-1.53 4.81.46 6.09a12.09 12.09 0 003.07 1.09 3.07 3.07 0 012.07 2.44c0 .14.2-.14.26-.24a20.22 20.22 0 011.92-2.34c-1.73 0-3.92-.05-5.45-1-2.33-1.39-2.76-3.62-.85-4.49 2.08-1 4.83.22 7 2.34a18.55 18.55 0 013.24 5.94c-.09 0-1.26-2.56-2.11-3.69-5.89 6-11.69 14.14-10.62 23a19.26 19.26 0 001.75 6.48c.88 1.95 2.1 3.71 3 5.67-.43-.5-.85-1-1.25-1.54a34.3 34.3 0 00-8.09 12.27zM70.31 25.1a6.89 6.89 0 01.57-.77C72.11 22.9 74 20.91 76 20.86a1.88 1.88 0 011.82 1.25 3.63 3.63 0 01.18 1.43 8.31 8.31 0 00-.26 1.38 6.4 6.4 0 01.07-1.15 3.77 3.77 0 00-.37-1.77c-.62-1.15-2-.82-3-.33 2.23-.38 1.7 2.87 1.3 4.06-.58 1.75-1.62 3.74-3.29 4.65-1.07.58-2.68.84-3.38-.4-.86-1.57.31-3.64 1.24-4.88z"/>
      <path class="cls-13" d="M19.54 15.7c-1.31-.33-3.16-1.49-2.69-3.11.4-1.39 2.11-1.25 3.17-.86A11.58 11.58 0 0124.89 15c-.33.33-.64.67-.95 1a16.64 16.64 0 01-4.4-.3zM74.8 22.39a8.24 8.24 0 01-2.46 5.55 8.1 8.1 0 01-2.49 1.68c-.61.26-.46-1.47-.38-1.84a7.83 7.83 0 011.71-3.07c.72-.86 2.28-2.82 3.62-2.32z"/>
      <path class="cls-14" d="M82.52 91.57a10.63 10.63 0 00-3.66-2.42 29.57 29.57 0 00-8.38-2.06 8.5 8.5 0 00.68-4.9 41.18 41.18 0 0110.92 4.26c1.53.94 3.57 2.27 3.83 4.22s-1.21 3.51-2.18 4.94c-.08-1.53-.12-2.84-1.21-4.04z"/>
      <path class="cls-15" d="M52.71 101.68c2.55.32 5.11.57 7.67.77 1 .08 2.1.16 3.15.21a8.35 8.35 0 002.23 0c3.48.2 7.15.27 10.51-.77a14 14 0 006.92-5v-.08a3.07 3.07 0 01.88-1.14 17.47 17.47 0 002.24-3.64 7.9 7.9 0 01-.18 3.33l-.47-.19-.14.07c.58.32 2 .95 2.16 1.7.07.45-1.08.67-1 1.31 0 .31.37.44.42.7s-.81.21-.91.22h-2.56a2.46 2.46 0 01-.57-1.17 2.49 2.49 0 00.39 2c-.31.34-.64.67-1 1a15.38 15.38 0 01-9.69 4 86.6 86.6 0 01-11.5-.27 105.85 105.85 0 01-12.68-1.59c-2.5-.49-6.84-1.22-7.74-4.09-.31-1-.57-1.8-.72-2.54 2.45 4.1 8.26 4.62 12.59 5.17z"/>
      <path class="cls-16" d="M50.1 95.28a42.74 42.74 0 0010.53-1.83 14.86 14.86 0 00-.3 8 86.84 86.84 0 01-12.24-1.48 13.75 13.75 0 01-5.34-2 6.4 6.4 0 01-2.65-3.61 11.2 11.2 0 004.64 1 47.91 47.91 0 005.36-.08z"/>
      <path class="cls-17" d="M75.19 22.63c.71.66.47 1.93.25 2.74a10.18 10.18 0 01-1.67 3.34c-.61.82-2.84 2.57-3.86 1.4 2.77-1.63 5.15-4.11 5.28-7.48z"/>
      <path d="M92.65 82.42zM81.6 80.33a8.66 8.66 0 001.52 4c.71.86 1.82.73 2.83.59a3.25 3.25 0 002.87-1.95 9.46 9.46 0 00.46-4.16c-.29-2.65-2.27-5.11-5.16-4.5a3.58 3.58 0 00-2.62 2.51 8.19 8.19 0 00.1 3.51zm4.62-5.49c2.41.8 2.67 4.21 2.37 6.28a3.35 3.35 0 01-1.35 2.67 5 5 0 01-2.69.45c-.91 0-1.38-1.56-1.6-2.24a14.06 14.06 0 01-.61-3.59c-.09-2.17 1.47-4.36 3.88-3.57zM70.31 25.1c-.93 1.24-2.1 3.31-1.22 4.87.7 1.24 2.31 1 3.38.4 1.67-.91 2.71-2.9 3.29-4.65.4-1.19.93-4.44-1.3-4.06 1-.49 2.36-.82 3 .33a3.77 3.77 0 01.36 1.78 6.4 6.4 0 00-.07 1.15 8.31 8.31 0 01.25-1.38 3.63 3.63 0 00-.16-1.43A1.88 1.88 0 0076 20.86c-2.05.05-3.9 2-5.13 3.47a6.89 6.89 0 00-.56.77zm-.4 5c2.77-1.63 5.15-4.11 5.28-7.48.71.66.47 1.93.25 2.74a10.18 10.18 0 01-1.67 3.34c-.61.83-2.84 2.58-3.86 1.41zm-.44-2.33a7.83 7.83 0 011.71-3.07c.72-.86 2.28-2.82 3.62-2.32a8.24 8.24 0 01-2.46 5.55 8.1 8.1 0 01-2.49 1.68c-.61.27-.46-1.46-.38-1.83z"/>
      <path class="cls-18" d="M41.13 37.49c-1.15.8-2.35.76-2.69-.09s.32-2.19 1.46-3 2.35-.77 2.69.08-.32 2.21-1.46 3.01zM48.68 38.22c1.14-.81 2.34-.77 2.68.08s-.31 2.2-1.46 3-2.34.76-2.68-.09.32-2.21 1.46-2.99zM39.52 45.45c1.14-.8 2.35-.76 2.69.09s-.32 2.19-1.47 3-2.34.76-2.68-.09.32-2.19 1.46-3z"/>
      <path class="cls-19" d="M42.77 34.1c-.46-1.07-1.93-1.19-3.27-.26s-2 2.52-1.59 3.59 1.92 1.19 3.26.27 2.07-2.53 1.6-3.6zm-1.64 3.39c-1.15.8-2.35.76-2.69-.09s.32-2.19 1.46-3 2.35-.77 2.69.08-.32 2.21-1.46 3.01zM46.68 41.24c.46 1.06 1.92 1.18 3.27.27s2.05-2.51 1.6-3.6-1.93-1.19-3.28-.26-2.05 2.52-1.59 3.59zm2-3c1.14-.81 2.34-.77 2.68.08s-.31 2.2-1.46 3-2.34.76-2.68-.09.32-2.23 1.46-3.01zM37.53 48.47c.46 1.07 1.92 1.19 3.26.27s2.07-2.53 1.6-3.6-1.93-1.19-3.27-.26-2.06 2.53-1.59 3.59zm2-3c1.14-.8 2.35-.76 2.69.09s-.32 2.19-1.47 3-2.34.76-2.68-.09.31-2.21 1.45-3.02z"/>
      <path class="cls-20" d="M92.67 82.41zM76.79 83a43.07 43.07 0 00-5.86-1.9A10.56 10.56 0 0068 76.81a23.34 23.34 0 00-4.57-3.53 41.17 41.17 0 0012.25-1.4c4-1.09 8.28-2.61 11.48-5.37A20.41 20.41 0 0193 72.57c-2.59-.82-3.6 3.12-3.66 4.89a19.09 19.09 0 00.4 4.13c.23 1.18.76 1.57 2 1.44a19.93 19.93 0 01-6 2 23.73 23.73 0 01-3.45.44 46.75 46.75 0 00-5.5-2.47zM82 25.17a.28.28 0 000-.09c2.51-1.69 5.77-2.75 7.76-.34 1.33 1.61.34 4.37-.49 6.07A38.2 38.2 0 0082 25.17zM50.52 12.68a18.67 18.67 0 00-2.93-2.63c2-1.2 4.62-2.28 6.4-1.32 2.92 1.57 1.53 4.47-.85 5.58a10.31 10.31 0 00-2.62-1.63zM37.4 5.32a3.2 3.2 0 01.4-4 2.47 2.47 0 013.47.06 4.09 4.09 0 01.4 4.35c-1.25.83-3.32.92-4.27-.41zM40.1 26.19a18.23 18.23 0 01-2.62-7.54A7.8 7.8 0 0138.74 13c3.63-4.52 9.73.26 12 3.72a12.43 12.43 0 00-.84-1.67 14.2 14.2 0 00-1.2-1.6c1.94-.26 3.78 1 5.08 2.27A13.56 13.56 0 0157 21.57a45.58 45.58 0 00-15.55 6.78 20.38 20.38 0 01-1.35-2.16zM87 99.07a2.92 2.92 0 01-.85.12h-2.56a2.46 2.46 0 01-.53-1.19 2.49 2.49 0 00.39 2c-.31.34-.64.67-1 1a15.38 15.38 0 01-9.69 4 86.6 86.6 0 01-11.5-.27 105.85 105.85 0 01-12.68-1.59c-2.5-.49-6.84-1.22-7.74-4.09-.31-1-.57-1.8-.72-2.54 2.45 4.15 8.26 4.67 12.59 5.22 2.55.32 5.11.57 7.67.77 1 .08 2.1.16 3.15.21a8.35 8.35 0 002.23 0c3.48.2 7.15.27 10.51-.77a14 14 0 006.92-5v-.08a3.07 3.07 0 01.88-1.14 17.47 17.47 0 002.24-3.64 7.9 7.9 0 01-.18 3.33l-.47-.19-.14.07c.58.32 2 .95 2.16 1.7.07.45-1.08.67-1 1.31a.37.37 0 00.1.25c-.03.16.09.32.22.52zM70.73 84.3a7.42 7.42 0 00-.79-4.06 6.45 6.45 0 01.79 4.06z"/>
      <path class="cls-20" d="M90.33 81.2a11.64 11.64 0 01-.22-3.58 8 8 0 011.17-3.46 1.55 1.55 0 012.09-.63c1.19 2 1.83 4 1.13 6.31a5.15 5.15 0 01-1.83 2.57l-.56.39c-1.11.2-1.56-.57-1.78-1.6zM18.25 49.23c.4.53.82 1 1.25 1.54-.88-2-2.1-3.72-3-5.67a19.26 19.26 0 01-1.75-6.48c-1.07-8.82 4.73-17 10.62-23 .85 1.13 2 3.72 2.11 3.69a18.55 18.55 0 00-3.24-5.94c-2.17-2.12-4.92-3.3-7-2.34-1.91.87-1.48 3.1.85 4.49 1.53.91 3.72 1 5.45 1a20.22 20.22 0 00-1.92 2.34c-.06.1-.24.38-.26.24a3.07 3.07 0 00-2.07-2.44 12.09 12.09 0 01-3.07-1.09c-2-1.28-2.76-4.69-.46-6.09 2.75-1.68 5.89.29 8.46 1.33s5.85 1.52 8.51.15a11.29 11.29 0 01-1.63.18C34 9.48 37.59 8 40.94 8.12a12.34 12.34 0 018.36 4.25 2.82 2.82 0 00-1.5.23A8.83 8.83 0 0041 10a5.78 5.78 0 00-4.68 3.25c-1.87 4 0 9.22 2.1 12.77a20.57 20.57 0 002 3c-1.18.83-2.12 1.56-2.79 2.12 1.24-.61 2.37-1.42 3.56-2.12s2.29-1.25 3.46-1.82a61.45 61.45 0 016.85-2.79 47.91 47.91 0 0115.75-2.51 9.43 9.43 0 00-2.51 6.17 14.42 14.42 0 014.57-6.47c1.93-1.56 4.71-3.22 7.31-2.8 4.44.72 5.13 7.15 5.26 10.62l.3-.27a22.69 22.69 0 000-2.66c3.28 2.24 6.44 4.8 8.47 8.26a22.47 22.47 0 012.87 9c.77 7.11-1.31 14.87-6.19 20.22-3.17 3.46-7.51 5.29-11.91 6.68a36.74 36.74 0 01-13.49 1.77 17.66 17.66 0 00-8.2-1.42 69.25 69.25 0 01-10.85-4.18c-3.56-1.71-6.88-3.86-10.63-5.15a76.87 76.87 0 0019.54 9.5 15.64 15.64 0 00-11.4 7.34c3.12-3.76 8-5.67 12.8-6.12a17 17 0 017.52.79 21.51 21.51 0 016.48 4c-2.63.18-2.69 4.15-2.34 6a21.67 21.67 0 001.08 3.43c.35.92.71 2.19 1.93 2a23.27 23.27 0 01-2.77 1.65c.85-1.19.54-3.23.27-4.55-.4-2-1.57-4.13-3.59-4.82a4 4 0 00-5 2.31c-.62 1.55 0 3.18.58 4.65s1.7 4.08 3.45 4.35a35 35 0 01-13.45 2.16 13.48 13.48 0 01-6.41-1.35 7.64 7.64 0 01-3.66-4.44 6.46 6.46 0 00.08 2.32c-4.19-2-7.56-5.49-10.41-9.07a26.77 26.77 0 01-4.83-8.78l-.11.34a27.11 27.11 0 004.26 9.28l-20.42 2c.4-7.73 1.44-15.84 4.33-23.07a34.3 34.3 0 018.07-12.36z"/>
      <path class="cls-20" d="M50.1 95.28a42.74 42.74 0 0010.53-1.83 14.86 14.86 0 00-.3 8 86.84 86.84 0 01-12.24-1.48 13.75 13.75 0 01-5.34-2 6.4 6.4 0 01-2.65-3.61 11.2 11.2 0 004.64 1 47.91 47.91 0 005.36-.08zM19.54 15.7c-1.31-.33-3.16-1.49-2.69-3.11.4-1.39 2.11-1.25 3.17-.86A11.58 11.58 0 0124.89 15c-.33.33-.64.67-.95 1a16.64 16.64 0 01-4.4-.3zM66 84.56a7.89 7.89 0 01.17-5.64A1.52 1.52 0 0168 78a8.42 8.42 0 012.48 4.74A6.31 6.31 0 0168.84 88c-1.84.72-2.39-2.14-2.84-3.44zM63.73 92.28c2.36-1.07 5-2.43 6.44-4.66a27.57 27.57 0 018.74 2.26 7.74 7.74 0 013 2.34 6.3 6.3 0 01.93 3.58 14.65 14.65 0 01-10.43 6 51.4 51.4 0 01-10.88-.16 13.43 13.43 0 01.25-8.63c.7-.2 1.34-.46 1.95-.73zM62.72 90.87c-1 .37-1.8.58-2.61-.24a10.13 10.13 0 01-2.58-6 3.35 3.35 0 013.4-3.47c2.46 0 3.68 2.84 4 4.9a8.94 8.94 0 01.07 2.32 3.08 3.08 0 01-2.28 2.49z"/>
      <path class="cls-20" d="M78.86 89.15a29.57 29.57 0 00-8.38-2.06 8.5 8.5 0 00.68-4.9 41.18 41.18 0 0110.92 4.26c1.53.94 3.57 2.27 3.83 4.22s-1.21 3.51-2.18 4.94c-.08-1.53-.12-2.84-1.21-4a10.63 10.63 0 00-3.66-2.46z"/>
      <path d="M124.25 102.72v.37l-.2-.15c0-.12.06-.24.09-.38zM123.57 105.5l.29.26-.08.67c-.2-.2-.41-.39-.62-.57a.6.6 0 00.41-.36zM0 85.2L.11 87l4.39-.44 1.27-.13 21.76-2.2c2.86 3.62 6.4 7.22 10.87 8.74l.11.12c-2.57.86-5.14 1.74-7.66 2.72a35.29 35.29 0 00-4.31 1.91c-.37.21-1.45.71-1.4 1.27.07.73 1.61 1.26 2.13 1.5A96 96 0 0040.63 105c11.47 3.3 23.07 6.15 34.68 8.92l6.68.06q-5.69-1.28-11.36-2.6c-10.88-2.55-21.77-5.13-32.49-8.29-2-.59-4-1.2-5.95-1.9a19.8 19.8 0 01-3.61-1.54c-.88-.53-.92-1 0-1.59a22.84 22.84 0 014-1.89c2.17-.86 4.37-1.63 6.57-2.37a4.43 4.43 0 00.42.29v.26A8.77 8.77 0 0040 99.8a5 5 0 002.37 2.4c3.47 2 7.84 2.46 11.72 3s7.68.72 11.53.83a64.08 64.08 0 0010-.27c3.79-.51 7.15-3 9.52-5.84.81 0 1.75-.06 2.4-.12a2.75 2.75 0 00-.46-.69 2.92 2.92 0 01-.85.12h-2.56a2.46 2.46 0 01-.61-1.23 2.49 2.49 0 00.39 2c-.31.34-.64.67-1 1a15.38 15.38 0 01-9.69 4 86.6 86.6 0 01-11.5-.27 105.85 105.85 0 01-12.68-1.59c-2.5-.49-6.84-1.22-7.74-4.09-.31-1-.57-1.8-.72-2.54 2.45 4.15 8.26 4.67 12.59 5.22 2.55.32 5.11.57 7.67.77 1 .08 2.1.16 3.15.21a8.35 8.35 0 002.23 0c3.48.2 7.15.27 10.51-.77a14 14 0 006.92-5v-.08a3.07 3.07 0 01.88-1.14 17.47 17.47 0 002.24-3.64 7.9 7.9 0 01-.18 3.33l-.47-.19-.14.07c.58.32 2 .95 2.16 1.7.07.45-1.08.67-1 1.31a.37.37 0 00.1.25c0-.26.28-.59 1-1.13a4.45 4.45 0 01.78-.43 4.49 4.49 0 00-1.27-1 8.3 8.3 0 00-.63-5.33c.07-1.29-.58-2.57-2.47-4 3.4-.26 7.55-1.22 10-3.74 6.87 1.07 14.07 2.43 18 3.2l.19-.18s-8.79-2.11-17.54-3.75a6.9 6.9 0 001.21-4.87l29.07-2.94.07-1.76-29.54 3a17.4 17.4 0 00-3.11-5.24 23.53 23.53 0 00-4.65-4.54c8.51-8.17 10.22-24.67 2.23-34.09 1.22-2.4 2.6-6 .25-8.16s-6-.89-8.48.64c-.37-2.35-1.2-5.2-3.46-6.42-3.26-1.75-7.67.91-10.08 3a43.16 43.16 0 00-10.28.56 15 15 0 00-4.48-6.66c1.73-1 4.8-4.08 2.43-6A6.51 6.51 0 0051 7.83a7.93 7.93 0 00-3.7 2 12.45 12.45 0 00-6.69-2.23A5.29 5.29 0 0042 6.08a5.2 5.2 0 002.15-3.4A5.72 5.72 0 0044.4 0c-.06-.17-.19.45-.2.48-.09.55-.15 1.1-.25 1.65-.17 1-.48 2.65-1.57 3A4.41 4.41 0 0041.22.77a3 3 0 00-3.85.41 3.69 3.69 0 00-.46 4.18 3.49 3.49 0 004.2 1.17 5.81 5.81 0 01-1.54 1.09 22.43 22.43 0 00-9.93 3.52 17.91 17.91 0 01-4.81-.88c-1.36-.46-2.67-1.07-4-1.53-2.36-.79-5.21-.94-6.52 1.58a4.22 4.22 0 002 5.73c.9.5 2 .62 2.85 1.11A4.54 4.54 0 0121 19.61c-3.14 3.94-6.18 8.05-7.09 13.13a19.75 19.75 0 003.45 15.45C8.22 58 4.59 71.58 4.48 84.75zM37.4 5.32a3.2 3.2 0 01.4-4 2.47 2.47 0 013.47.06 4.09 4.09 0 01.4 4.35c-1.25.83-3.32.92-4.27-.41zm15.74 9a10.31 10.31 0 00-2.62-1.63 18.67 18.67 0 00-2.93-2.63c2-1.2 4.62-2.28 6.4-1.32 2.92 1.56 1.53 4.46-.85 5.57zM57 21.57a45.58 45.58 0 00-15.55 6.78 20.38 20.38 0 01-1.34-2.16 18.23 18.23 0 01-2.62-7.54A7.8 7.8 0 0138.74 13c3.63-4.52 9.73.26 12 3.72a12.43 12.43 0 00-.84-1.67 14.2 14.2 0 00-1.2-1.6c1.94-.26 3.78 1 5.08 2.27A13.56 13.56 0 0157 21.57zm32.3 9.24a38.2 38.2 0 00-7.3-5.64.28.28 0 000-.09c2.51-1.69 5.77-2.75 7.76-.34 1.36 1.61.37 4.37-.46 6.07zm4 42.09l-.09-.14zm-2.92 8.3a11.64 11.64 0 01-.22-3.58 8 8 0 011.17-3.46 1.55 1.55 0 012.09-.63c1.19 2 1.83 4 1.13 6.31a5.15 5.15 0 01-1.83 2.57l-.56.39c-1.16.2-1.61-.57-1.83-1.6zm-8 4.27A46.75 46.75 0 0076.79 83a43.07 43.07 0 00-5.86-1.9A10.56 10.56 0 0068 76.81a23.34 23.34 0 00-4.57-3.53 41.17 41.17 0 0012.25-1.4c4-1.09 8.28-2.61 11.48-5.37A20.41 20.41 0 0193 72.57c-2.59-.82-3.6 3.12-3.66 4.89a19.09 19.09 0 00.4 4.13c.23 1.18.76 1.57 2 1.44a19.93 19.93 0 01-6 2 23.73 23.73 0 01-3.44.44zm-12.44-5.23a6.45 6.45 0 01.79 4.06 7.42 7.42 0 00-.79-4.06zM68.84 88c-1.89.74-2.39-2.12-2.81-3.42a7.89 7.89 0 01.17-5.64A1.52 1.52 0 0168 78a8.42 8.42 0 012.48 4.74A6.31 6.31 0 0168.84 88zm13.68 3.59a10.63 10.63 0 00-3.66-2.42 29.57 29.57 0 00-8.38-2.06 8.5 8.5 0 00.68-4.9 41.18 41.18 0 0110.92 4.26c1.53.94 3.57 2.27 3.83 4.22s-1.21 3.51-2.18 4.94c-.08-1.55-.12-2.86-1.21-4.06zm-20.69 1.46c.65-.24 1.29-.5 1.9-.77 2.36-1.07 5-2.43 6.44-4.66a27.57 27.57 0 018.74 2.26 7.74 7.74 0 013 2.34 6.3 6.3 0 01.93 3.58 14.65 14.65 0 01-10.43 6 51.4 51.4 0 01-10.88-.16 13.43 13.43 0 01.3-8.59zM65 88.38a3.08 3.08 0 01-2.26 2.49c-1 .37-1.8.58-2.61-.24a10.13 10.13 0 01-2.58-6 3.35 3.35 0 013.4-3.47c2.46 0 3.68 2.84 4 4.9a8.94 8.94 0 01.05 2.32zm-24.88 6a11.2 11.2 0 004.64 1 47.91 47.91 0 005.36 0 42.74 42.74 0 0010.53-1.83 14.86 14.86 0 00-.3 8 86.84 86.84 0 01-12.24-1.48 13.75 13.75 0 01-5.34-2 6.4 6.4 0 01-2.67-3.74zM5.85 84.61c.4-7.73 1.44-15.84 4.33-23.07a34.3 34.3 0 018.07-12.31c.4.53.82 1 1.25 1.54-.88-2-2.1-3.72-3-5.67a19.26 19.26 0 01-1.75-6.48c-1.07-8.82 4.73-17 10.62-23 .85 1.13 2 3.72 2.11 3.69a18.55 18.55 0 00-3.24-5.94c-2.17-2.12-4.92-3.3-7-2.34-1.91.87-1.48 3.1.85 4.49 1.53.91 3.72 1 5.45 1a20.22 20.22 0 00-1.92 2.34c-.06.1-.24.38-.26.24a3.07 3.07 0 00-2.07-2.44 12.09 12.09 0 01-3.07-1.09c-2-1.28-2.76-4.69-.46-6.09 2.75-1.68 5.89.29 8.46 1.33s5.85 1.52 8.51.15a11.29 11.29 0 01-1.63.18C34 9.48 37.59 8 40.94 8.12a12.34 12.34 0 018.36 4.25 2.82 2.82 0 00-1.5.23A8.83 8.83 0 0041 10a5.78 5.78 0 00-4.68 3.25c-1.87 4 0 9.22 2.1 12.77a20.57 20.57 0 002 3c-1.18.83-2.12 1.56-2.79 2.12 1.24-.61 2.37-1.42 3.56-2.12s2.29-1.25 3.46-1.82a61.45 61.45 0 016.85-2.79 47.91 47.91 0 0115.75-2.51 9.43 9.43 0 00-2.51 6.17 14.42 14.42 0 014.57-6.47c1.93-1.56 4.71-3.22 7.31-2.8 4.44.72 5.13 7.15 5.26 10.62l.3-.27a22.69 22.69 0 000-2.66c3.28 2.24 6.44 4.8 8.47 8.26a22.47 22.47 0 012.87 9c.77 7.11-1.31 14.87-6.19 20.22-3.17 3.46-7.51 5.29-11.91 6.68a36.74 36.74 0 01-13.49 1.77 17.66 17.66 0 00-8.2-1.42 69.25 69.25 0 01-10.85-4.18c-3.56-1.71-6.88-3.86-10.63-5.15a76.87 76.87 0 0019.54 9.5 15.64 15.64 0 00-11.4 7.34c3.12-3.76 8-5.67 12.8-6.12a17 17 0 017.52.79 21.51 21.51 0 016.48 4c-2.63.18-2.69 4.15-2.34 6a21.67 21.67 0 001.08 3.43c.35.92.71 2.19 1.93 2a23.27 23.27 0 01-2.77 1.65c.85-1.19.54-3.23.27-4.55-.4-2-1.57-4.13-3.59-4.82a4 4 0 00-5 2.31c-.62 1.55 0 3.18.58 4.65s1.7 4.08 3.45 4.35a35 35 0 01-13.45 2.16 13.48 13.48 0 01-6.41-1.35 7.64 7.64 0 01-3.66-4.44 6.46 6.46 0 00.08 2.32c-4.19-2-7.56-5.49-10.41-9.07a26.77 26.77 0 01-4.83-8.78l-.11.34a27.11 27.11 0 004.26 9.28zM19.54 15.7c-1.31-.33-3.16-1.49-2.69-3.11.4-1.39 2.11-1.25 3.17-.86A11.58 11.58 0 0124.89 15c-.33.33-.64.67-.95 1a16.64 16.64 0 01-4.4-.3z"/>
      <path class="cls-21" d="M87 99.07c-.16-.2-.28-.36-.26-.55.11.15.29.27.32.45s.01.03-.06.1z"/>
      <path class="cls-22" d="M106.35 103.15c-2 .85-3.81 1.94-5.73 2.89-1.65.81-3.63 1.66-5.45.92s-2.38-2.45-3.18-4A10.7 10.7 0 0087.77 99c-.33-.33-.52-.78.5-1.35a16.34 16.34 0 014.5 3.5c1.08 1.31 1.41 3 3 3.83 1.43.76 3.45-.51 4.71-1.17 1.49-.78 3-1.6 4.49-2.29 6.1-2.76 13.59-2.92 19 1.38a13.14 13.14 0 00-.42 2.44.5.5 0 010 .12 17 17 0 00-5.71-3.26 16.15 16.15 0 00-11.49.95z"/>
      <path d="M87.09 99c0-.18-.21-.3-.32-.45s.28-.59 1-1.13a4.45 4.45 0 01.78-.43 1.34 1.34 0 01.13.23c2.09 1.18 4.24 2.7 5.09 4.39a6.25 6.25 0 002.73 3.24c.56.27 1.27-.2 1.76-.44.67-.34 1.37-.65 2-1 2.89-1.41 5.58-3 8.75-3.78 4.93-1.18 11.2-.8 15 3 0 .14-.06.26-.09.38-5.44-4.3-12.93-4.14-19-1.38-1.54.69-3 1.51-4.49 2.29-1.26.66-3.28 1.93-4.71 1.17-1.6-.84-1.93-2.52-3-3.83a16.34 16.34 0 00-4.5-3.5c-1 .57-.83 1-.5 1.35a10.7 10.7 0 014.28 3.82c.8 1.58 1.4 3.3 3.18 4s3.8-.11 5.45-.92c1.92-1 3.76-2 5.73-2.89a16.15 16.15 0 0111.51-.91 17 17 0 015.71 3.26.6.6 0 01-.41.36 14.51 14.51 0 00-4.93-2.77 19 19 0 00-6.24-.71 16.26 16.26 0 00-6.53 1.88c-1.84.87-3.62 1.86-5.49 2.68-1.37.61-2.76 1.39-4.31 1-2.16-.49-3.1-2.59-4-4.36a9.62 9.62 0 00-4.18-3.85 2.75 2.75 0 00-.46-.69s.07-.01.06-.01zM55.71 63.88s-4.65-1-6.93-2.64-3.42-2.57-3.41-1.85 1.91 2 4.26 3 5.79 1.69 6.08 1.49zM49.59 65.78a6.2 6.2 0 01-2.92-.78c-1.5-.82-3.32-2.36-2-1.06a8.23 8.23 0 003.47 2.12c1.33.47 2.31.07 1.45-.28zM47 22.87a2.55 2.55 0 003.41 1.18 2.64 2.64 0 00.42-3.63 2.57 2.57 0 00-3.42-1.18 2.63 2.63 0 00-.41 3.63zm2.77-1.05a.34.34 0 01.47.15.37.37 0 01-.06.51.4.4 0 01-.41-.66zm-2.81-.35a.73.73 0 01.12-1 .72.72 0 011 .32.73.73 0 01-.13 1 .7.7 0 01-1.02-.32zM52.64 21.58a1.6 1.6 0 002.1.82 1.64 1.64 0 00.35-2.25 1.6 1.6 0 00-2.1-.82 1.64 1.64 0 00-.35 2.25zM54.4 21a.21.21 0 01.29.11.23.23 0 010 .31.21.21 0 01-.29-.11.22.22 0 010-.31zm-1.75-.28a.47.47 0 01.1-.63.45.45 0 01.59.22.46.46 0 01-.1.63.45.45 0 01-.59-.23z"/>
      <path class="cls-20" d="M18.92 50.07l.14-.22c.15.3.3.61.44.92-.19-.23-.39-.46-.58-.7zM40.39 78.48A14.81 14.81 0 0147 72.56c1.14 0 2.57 0 4.06.1a17.9 17.9 0 00-10.67 5.82zM74.46 21.66c2.23-.38 1.7 2.87 1.3 4.06-.58 1.75-1.62 3.74-3.29 4.65-1.07.58-2.68.84-3.38-.4-.88-1.56.29-3.63 1.22-4.87a6.89 6.89 0 01.57-.77C72.11 22.9 74 20.91 76 20.86a1.88 1.88 0 011.82 1.25 3.63 3.63 0 01.18 1.43 8.31 8.31 0 00-.26 1.38 6.4 6.4 0 01.07-1.15 3.77 3.77 0 00-.37-1.77c-.62-1.16-2.02-.83-2.98-.34zM32.56 61.76a1.81 1.81 0 01.33.26l.13.13-.77-.51z"/>
      <path class="cls-23" d="M44.6 72.59s-7.81-6.7-11.6-10.44a76.85 76.85 0 0018.77 9A17.29 17.29 0 0047 72.56c-1.44 0-2.4.03-2.4.03z"/>
      <path class="cls-2" d="M44.6 72.59s-7.81-6.7-11.6-10.44a76.85 76.85 0 0018.77 9A17.29 17.29 0 0047 72.56c-1.44 0-2.4.03-2.4.03z"/>
      <path class="cls-24" d="M19.06 49.85c-.82-1.6-1.8-3.11-2.54-4.75-.26-.58-.5-1.17-.71-1.76 2.72-1.34 6.29 1.49 3.25 6.51z"/>
      <path class="cls-25" d="M11.18 70.87c0 8 8 13.43 7.43 6.29s-.61-16 4.28-7.16S33.46 87.72 34 83.73s2.6-5.73 5.46.27 10.28 8.57 12.85 5.14S50 80 55.17 79.16s6.57-4 3.14-5.43a25.7 25.7 0 00-7.25-1.07q1.06-.19 2.13-.3a17 17 0 017.52.79 21.51 21.51 0 016.48 4c-2.63.18-2.69 4.15-2.34 6a21.67 21.67 0 001.08 3.43c.35.92.71 2.19 1.93 2a23.27 23.27 0 01-2.77 1.65c.85-1.19.54-3.23.27-4.55-.4-2-1.57-4.13-3.59-4.82a4 4 0 00-5 2.31c-.62 1.55 0 3.18.58 4.65s1.7 4.08 3.45 4.35a35 35 0 01-13.45 2.16 13.48 13.48 0 01-6.41-1.35 7.64 7.64 0 01-3.66-4.44 6.46 6.46 0 00.08 2.32c-4.19-2-7.56-5.49-10.41-9.07a26.77 26.77 0 01-4.83-8.78l-.11.34a27.11 27.11 0 004.26 9.28l-20.42 2c.4-7.73 1.44-15.84 4.33-23.07a34.3 34.3 0 018.07-12.31c.22.29.44.57.67.84l-.27.41c-4.04 5.8-7.47 12.37-7.47 20.37z"/>
      <path class="cls-2" d="M11.18 70.87c0 8 8 13.43 7.43 6.29s-.61-16 4.28-7.16S33.46 87.72 34 83.73s2.6-5.73 5.46.27 10.28 8.57 12.85 5.14S50 80 55.17 79.16s6.57-4 3.14-5.43a25.7 25.7 0 00-7.25-1.07q1.06-.19 2.13-.3a17 17 0 017.52.79 21.51 21.51 0 016.48 4c-2.63.18-2.69 4.15-2.34 6a21.67 21.67 0 001.08 3.43c.35.92.71 2.19 1.93 2a23.27 23.27 0 01-2.77 1.65c.85-1.19.54-3.23.27-4.55-.4-2-1.57-4.13-3.59-4.82a4 4 0 00-5 2.31c-.62 1.55 0 3.18.58 4.65s1.7 4.08 3.45 4.35a35 35 0 01-13.45 2.16 13.48 13.48 0 01-6.41-1.35 7.64 7.64 0 01-3.66-4.44 6.46 6.46 0 00.08 2.32c-4.19-2-7.56-5.49-10.41-9.07a26.77 26.77 0 01-4.83-8.78l-.11.34a27.11 27.11 0 004.26 9.28l-20.42 2c.4-7.73 1.44-15.84 4.33-23.07a34.3 34.3 0 018.07-12.31c.22.29.44.57.67.84l-.27.41c-4.04 5.8-7.47 12.37-7.47 20.37z"/>
      <path class="cls-20" d="M70.88 24.33C72.11 22.9 74 20.91 76 20.86a1.88 1.88 0 011.82 1.25 3.63 3.63 0 01.18 1.43 8.31 8.31 0 00-.26 1.38 6.4 6.4 0 01.07-1.15 3.77 3.77 0 00-.37-1.77c-.62-1.15-2-.82-3-.33 2.23-.38 1.7 2.87 1.3 4.06-.58 1.75-1.62 3.74-3.29 4.65-1.07.58-2.68.84-3.38-.4-.88-1.56.29-3.63 1.22-4.87a6.89 6.89 0 01.59-.78z"/>
      <path class="cls-26" d="M80.93 67.17c3.58-2.68 1-3.64 3.56-7.11 4.05-5.57 4.92-12.47 4.63-17.33s-4.47-9.65-1.9-7.93 2.22.08-3.49-5.63a7.71 7.71 0 01-1.55-2.09v-.56c3.28 2.24 6.44 4.8 8.47 8.26a22.47 22.47 0 012.87 9c.77 7.11-1.31 14.87-6.19 20.22-3.17 3.46-7.51 5.29-11.91 6.68-3.07.99 1.96-.84 5.51-3.51z"/>
      <path class="cls-27" d="M88.87 39.76a29.09 29.09 0 01-.51 12.33 23.22 23.22 0 01-4.45 8.84 30 30 0 004.15-8.46 36.64 36.64 0 00.81-12.71z"/>
      <path class="cls-27" d="M87.34 43.48a6.17 6.17 0 012 .65 6.41 6.41 0 011.56 1.1 17 17 0 00-1.5-.88 15.09 15.09 0 00-2.06-.87zM85.82 52.35a5.94 5.94 0 012.09.4 6.46 6.46 0 011.68.91A14.84 14.84 0 0088 53a13.72 13.72 0 00-2.18-.65z"/>
      <path class="cls-28" d="M30.85 38.25c-.8-5.76-4.21-10-7.62-9.57s-5.5 5.53-4.7 11.3 4.22 10.02 7.62 9.57 5.51-5.55 4.7-11.3z"/>
      <path class="cls-20" d="M37.62 31.17c.38-.32.85-.69 1.4-1.11l.2.21c-.52.32-1.05.63-1.6.9zM70.88 24.33C72.11 22.9 74 20.91 76 20.86a1.88 1.88 0 011.82 1.25 3.63 3.63 0 01.18 1.43 8.31 8.31 0 00-.26 1.38 6.4 6.4 0 01.07-1.15 3.77 3.77 0 00-.37-1.77c-.62-1.15-2-.82-3-.33 2.23-.38 1.7 2.87 1.3 4.06-.58 1.75-1.62 3.74-3.29 4.65-1.07.58-2.68.84-3.38-.4-.88-1.56.29-3.63 1.22-4.87a6.89 6.89 0 01.59-.78z"/>
      <path class="cls-29" d="M49.3 12.37a2.82 2.82 0 00-1.5.23A8.83 8.83 0 0041 10a5.78 5.78 0 00-4.68 3.25c-1.87 4 0 9.22 2.1 12.77a20.57 20.57 0 002 3c-.51.36-1 .7-1.39 1a30.8 30.8 0 01-4.93-6.69c-2.8-5.2-2-8.63.25-11.8a7.07 7.07 0 018.51-2.29c1.67.7 2.91 1 3.69.75a16.21 16.21 0 012.75 2.38z"/>
      <path class="cls-30" d="M49.3 12.37a2.82 2.82 0 00-1.5.23A8.83 8.83 0 0041 10a5.78 5.78 0 00-4.68 3.25c-1.87 4 0 9.22 2.1 12.77a20.57 20.57 0 002 3c-.51.36-1 .7-1.39 1a30.8 30.8 0 01-4.93-6.69c-2.8-5.2-2-8.63.25-11.8a7.07 7.07 0 018.51-2.29c1.67.7 2.91 1 3.69.75a16.21 16.21 0 012.75 2.38z"/>
      <path class="cls-20" d="M17.26 11.07a4.07 4.07 0 012.4-.27l-3.17 3.26a1.89 1.89 0 01.77-2.99zM19.28 50.3c.08.16.15.31.22.47l-.23-.27a1.27 1.27 0 00.01-.2zM27.5 19.35a2.78 2.78 0 01-.33-.57h.16c.13.35.2.56.17.57zM70.88 24.33C72.11 22.9 74 20.91 76 20.86a1.88 1.88 0 011.82 1.25 3.63 3.63 0 01.18 1.43 8.31 8.31 0 00-.26 1.38 6.4 6.4 0 01.07-1.15 3.77 3.77 0 00-.37-1.77c-.62-1.15-2-.82-3-.33 2.23-.38 1.7 2.87 1.3 4.06-.58 1.75-1.62 3.74-3.29 4.65-1.07.58-2.68.84-3.38-.4-.88-1.56.29-3.63 1.22-4.87a6.89 6.89 0 01.59-.78z"/>
      <path class="cls-31" d="M17.26 11.07a1.89 1.89 0 00-.77 3l-.92.94c-1.46-1.52-1.8-4.29.21-5.52 1.67-1 3.48-.7 5.22-.05l-1.34 1.36a4.07 4.07 0 00-2.4.27z"/>
      <path class="cls-32" d="M14.77 38.62c-1.07-8.82 4.73-17 10.62-23a28 28 0 011.78 3.12c-3-.27-8 5.46-9.46 10.3s-1.9 5.46-1.52 9.15a42.48 42.48 0 002.66 10.41 4.17 4.17 0 01.43 1.66c-.85-1.77-2-3.41-2.76-5.2a19.26 19.26 0 01-1.75-6.44z"/>
      <path class="cls-2" d="M14.77 38.62c-1.07-8.82 4.73-17 10.62-23a28 28 0 011.78 3.12c-3-.27-8 5.46-9.46 10.3s-1.9 5.46-1.52 9.15a42.48 42.48 0 002.66 10.41 4.17 4.17 0 01.43 1.66c-.85-1.77-2-3.41-2.76-5.2a19.26 19.26 0 01-1.75-6.44z"/>
      <path class="cls-33" d="M18.25 49.23c.33.43.67.85 1 1.27a.94.94 0 01-.29.68 3.1 3.1 0 01-3.12.6 28.83 28.83 0 012.41-2.55z"/>
      <path class="cls-2" d="M18.25 49.23c.33.43.67.85 1 1.27a.94.94 0 01-.29.68 3.1 3.1 0 01-3.12.6 28.83 28.83 0 012.41-2.55z"/>
      <path class="cls-34" d="M27.36 18.8a18.24 18.24 0 00-3.07-5.39 9.18 9.18 0 00-4.6-2.61L21 9.43c1.13.42 2.23 1 3.24 1.38a13.36 13.36 0 003.85 1c1.13 4.88 1.32 7.37-.73 6.99z"/>
      <path class="cls-35" d="M18.11 15.56c1.53.91 3.72 1 5.45 1a20.22 20.22 0 00-1.92 2.34c-.06.1-.24.38-.26.24a3.07 3.07 0 00-2.07-2.44 12.09 12.09 0 01-3.07-1.09 3.61 3.61 0 01-.67-.57l.92-.94a4.84 4.84 0 001.62 1.46z"/>
      <path class="cls-36" d="M81.44 86.72c-1.14-.59-4.19-2.35-5.07-2.94a30 30 0 015.71 2.67c1.53.94 3.57 2.27 3.83 4.22a4 4 0 01-.53 2.43c.25-2.82 0-4.35-3.94-6.38z"/>
    </g>
  </g>
</svg>
