<svg width="46" height="46" viewBox="0 0 46 46" fill="none" xmlns="http://www.w3.org/2000/svg">
<rect x="4" y="3" width="40" height="42" fill="white"/>
<path d="M41.887 0H4.86978C3.77894 0 2.73278 0.433335 1.96144 1.20468C1.19009 1.97602 0.75676 3.02218 0.75676 4.11302V41.1302C0.75676 42.2211 1.19009 43.2672 1.96144 44.0386C2.73278 44.8099 3.77894 45.2432 4.86978 45.2432H20.2936C20.5663 45.2432 20.8279 45.1349 21.0207 44.9421C21.2135 44.7492 21.3219 44.4877 21.3219 44.215V29.8194C21.3219 29.5467 21.2135 29.2852 21.0207 29.0923C20.8279 28.8995 20.5663 28.7911 20.2936 28.7911H18.2371C17.9644 28.7911 17.7029 28.6828 17.51 28.49C17.3172 28.2971 17.2088 28.0356 17.2088 27.7629V21.5934C17.2088 21.3207 17.3172 21.0591 17.51 20.8663C17.7029 20.6734 17.9644 20.5651 18.2371 20.5651H20.2936C20.5663 20.5651 20.8279 20.4568 21.0207 20.2639C21.2135 20.0711 21.3219 19.8096 21.3219 19.5368V17.4803C21.3219 15.0259 22.2969 12.6721 24.0324 10.9366C25.7679 9.20105 28.1218 8.22604 30.5762 8.22604H36.7457C37.0184 8.22604 37.28 8.33438 37.4728 8.52721C37.6656 8.72005 37.774 8.98159 37.774 9.2543V15.4238C37.774 15.6965 37.6656 15.9581 37.4728 16.1509C37.28 16.3438 37.0184 16.4521 36.7457 16.4521H30.5762C30.3035 16.4521 30.0419 16.5604 29.8491 16.7533C29.6562 16.9461 29.5479 17.2076 29.5479 17.4803V19.5368C29.5479 19.8096 29.6562 20.0711 29.8491 20.2639C30.0419 20.4568 30.3035 20.5651 30.5762 20.5651H36.7457C36.894 20.5662 37.0404 20.5993 37.1747 20.6622C37.309 20.7252 37.4281 20.8164 37.5239 20.9297C37.6196 21.0431 37.6897 21.1757 37.7293 21.3187C37.7689 21.4616 37.7771 21.6115 37.7534 21.7579L36.7251 27.9274C36.6863 28.1672 36.5638 28.3855 36.3793 28.5436C36.1949 28.7017 35.9604 28.7894 35.7174 28.7911H30.5762C30.3035 28.7911 30.0419 28.8995 29.8491 29.0923C29.6562 29.2852 29.5479 29.5467 29.5479 29.8194V44.215C29.5479 44.4877 29.6562 44.7492 29.8491 44.9421C30.0419 45.1349 30.3035 45.2432 30.5762 45.2432H41.887C42.9778 45.2432 44.024 44.8099 44.7953 44.0386C45.5667 43.2672 46 42.2211 46 41.1302V4.11302C46 3.02218 45.5667 1.97602 44.7953 1.20468C44.024 0.433335 42.9778 0 41.887 0Z" fill="#3B5998"/>
</svg>
