<svg xmlns="http://www.w3.org/2000/svg" viewBox="0 0 507.77 507.77" width="48" height="48"><g fill="#51a1ff"><path d="M314.08 419.51a433.65 433.65 0 0029.94-30.5c25.04-28.2 45-58.4 59.33-89.76 17.98-39.35 27.1-80.63 27.1-122.7C430.44 79.2 351.23 0 253.88 0S77.33 79.2 77.33 176.55c0 39.35 9.31 79.09 27.68 118.12a7.5 7.5 0 0013.57-6.38c-17.42-37.02-26.25-74.62-26.25-111.74C92.33 87.47 164.81 15 253.9 15s161.55 72.47 161.55 161.55c0 39.81-8.62 78.9-25.62 116.2-13.66 29.98-32.73 58.9-56.7 85.94-33.4 37.69-67.2 61.3-78.83 68.91-16.32-12.7-78.5-63.53-120.78-131.4a7.5 7.5 0 10-12.73 7.93c23.77 38.17 53.06 70.67 77.7 94.6-26.42 2.47-50.1 6.76-67.78 12.37-24.94 7.9-37.6 18.17-37.63 30.52-.04 14.4 16.95 25.99 50.5 34.44 29.51 7.44 68.65 11.6 110.2 11.71h1.68c40.92 0 79.42-3.94 108.57-11.13 33.6-8.28 50.65-19.77 50.69-34.17.07-28.04-64.51-39.02-100.63-42.96zm46.35 62.57c-28.4 7-66.24 10.8-106.62 10.7-40.36-.11-78.21-4.1-106.57-11.26-32.16-8.1-39.18-17.08-39.17-19.85.02-7.5 31.83-24.17 105.17-29.07 20.23 18.4 34.86 29.2 36.22 30.19a7.5 7.5 0 008.26.4c1.11-.66 18-10.81 40.93-30.07 77.1 6.11 101.08 23.6 101.06 29.31-.01 2.78-7.08 11.71-39.28 19.65z"/><path d="M253.89 115.1a58.13 58.13 0 0156.7 44.57 7.5 7.5 0 1014.57-3.52 73.1 73.1 0 00-71.27-56.05c-40.43 0-73.33 32.9-73.33 73.33s32.9 73.32 73.33 73.32c33.34 0 62.5-22.5 70.94-54.71a7.5 7.5 0 10-14.51-3.8 58.33 58.33 0 11-56.43-73.14z"/></g></svg>