<?xml version="1.0" encoding="iso-8859-1"?>
<!-- Generator: Adobe Illustrator 19.0.0, SVG Export Plug-In . SVG Version: 6.00 Build 0)  -->
<svg version="1.1" id="Capa_1" xmlns="http://www.w3.org/2000/svg" xmlns:xlink="http://www.w3.org/1999/xlink" x="0px" y="0px"
	 viewBox="0 0 512.224 512.224" style="enable-background:new 0 0 512.224 512.224;" xml:space="preserve">
<g>
	<g transform="translate(1)">
		<g>
			<path style="fill:#D4E1F4;" d="M175.139,54.983l-17.493-17.579c-4.87-4.171-6.992-10.72-5.492-16.954s6.367-11.102,12.602-12.602
				c6.234-1.5,12.783,0.622,16.954,5.492l14.251,14.251L175.139,54.983z"/>
			<path style="fill:#D4E1F4;" d="M314.062,27.591l14.251-14.251c6.771-5.799,16.865-5.409,23.169,0.895
				c6.304,6.304,6.694,16.398,0.895,23.169L335.31,54.983L314.062,27.591z"/>
			<path style="fill:#D4E1F4;" d="M340.344,85.106v46.08H169.678v-46.08c0-58.027,48.725-72.192,72.533-75.691
				c4.238-0.646,8.514-1.017,12.8-1.109C255.011,8.306,340.344,8.306,340.344,85.106z"/>
		</g>
		<path style="fill:#E7EBF4;" d="M314.744,85.106v46.08H169.678v-46.08c0-58.027,48.725-72.192,72.533-75.691
			C266.019,12.914,314.744,27.079,314.744,85.106z"/>
		<g>
			<path style="fill:#FFFFFF;" d="M203.811,133.661V76.573c0-4.713,3.821-8.533,8.533-8.533h17.067c4.713,0,8.533,3.82,8.533,8.533
				v51.2L203.811,133.661z"/>
			<path style="fill:#FFFFFF;" d="M272.078,130.418V76.573c0-4.713,3.821-8.533,8.533-8.533h17.067c4.713,0,8.533,3.82,8.533,8.533
				v59.733L272.078,130.418z"/>
		</g>
		<path style="fill:#D4E1F4;" d="M400.078,289.906v93.867H109.944v-93.867c0-56.554,45.846-102.4,102.4-102.4h85.333
			C354.232,187.506,400.078,233.352,400.078,289.906z"/>
		<path style="fill:#E7EBF4;" d="M374.478,289.906v93.867H109.944v-93.867c0-56.554,45.846-102.4,102.4-102.4h59.733
			C328.632,187.506,374.478,233.352,374.478,289.906z"/>
		<path style="fill:#D4E1F4;" d="M374.478,178.973c0,37.717-53.504,68.267-119.467,68.267c-4.352,0-8.533,0-12.8,0
			c-59.733-3.669-106.667-32.683-106.667-68.267s46.677-64.256,106.667-67.84c4.181,0,8.533-0.427,12.8-0.427
			C320.974,110.706,374.478,141.255,374.478,178.973z"/>
		<g>
			<path style="fill:#E7EBF4;" d="M348.878,178.973c0,35.243-46.677,64.256-106.667,68.267
				c-59.733-3.669-106.667-32.683-106.667-68.267s46.677-64.256,106.667-67.84C302.2,114.717,348.878,143.73,348.878,178.973z"/>
			<path style="fill:#E7EBF4;" d="M451.875,315.506c5.126,5.356,7.679,12.671,6.997,20.053
				c-9.643,124.501-97.28,167.68-203.861,167.68S60.792,460.061,51.15,335.815c-0.758-7.468,1.8-14.893,6.997-20.309l26.88-27.989
				c1.608-1.669,3.826-2.611,6.144-2.611c2.318,0,4.536,0.943,6.144,2.611l28.672,29.867c1.608,1.669,3.826,2.611,6.144,2.611
				c2.318,0,4.536-0.943,6.144-2.611l28.672-29.867c1.608-1.669,3.826-2.611,6.144-2.611c2.318,0,4.536,0.943,6.144,2.611
				l28.672,29.867c1.608,1.669,3.826,2.611,6.144,2.611c2.318,0,4.536-0.943,6.144-2.611l28.672-29.867
				c1.608-1.669,3.826-2.611,6.144-2.611c2.318,0,4.536,0.943,6.144,2.611l28.672,29.867c1.608,1.669,3.826,2.611,6.144,2.611
				s4.536-0.943,6.144-2.611l28.672-29.867c1.608-1.669,3.826-2.611,6.144-2.611s4.536,0.943,6.144,2.611l28.672,29.867
				c1.608,1.669,3.826,2.611,6.144,2.611c2.318,0,4.536-0.943,6.144-2.611l28.672-29.867c1.608-1.669,3.826-2.611,6.144-2.611
				c2.318,0,4.536,0.943,6.144,2.611L451.875,315.506z"/>
		</g>
		<path style="fill:#D4E1F4;" d="M458.872,335.815c-9.643,124.245-97.28,167.424-203.861,167.424h-12.373
			c100.949-3.499,182.187-48.043,191.573-167.424c0.736-7.481-1.854-14.908-7.083-20.309l-20.651-21.504l6.229-6.485
			c1.608-1.669,3.826-2.611,6.144-2.611c2.318,0,4.536,0.943,6.144,2.611l26.88,27.989
			C457.072,320.923,459.63,328.347,458.872,335.815z"/>
	</g>
	<g transform="translate(1 1)">
		<path style="fill:#FFFFFF;" d="M200.824,53.898l-17.579-17.493c-6.267-6.366-6.565-16.487-0.683-23.211l-0.853-0.853
			c-6.771-5.799-16.865-5.409-23.169,0.895s-6.694,16.398-0.895,23.169l17.493,17.579c-3.746,9.595-5.6,19.824-5.461,30.123v46.08
			c-21.163,12.288-34.133,29.184-34.133,47.787c0.315,11.58,4.94,22.627,12.971,30.976c-23.994,19.012-38.159,47.811-38.571,78.421
			l0.597-0.597c1.608-1.669,3.826-2.611,6.144-2.611s4.536,0.943,6.144,2.611l12.715,13.141v-11.008
			c0.035-31.13,14.229-60.553,38.571-79.957c-8.031-8.349-12.656-19.396-12.971-30.976c0-18.603,13.141-35.499,34.133-47.787v-46.08
			C195.155,73.773,197.038,63.514,200.824,53.898z"/>
		<path style="fill:#FFFFFF;" d="M76.75,334.815c-0.758-7.468,1.8-14.893,6.997-20.309l20.224-21.077l-6.656-6.912
			c-1.608-1.669-3.826-2.611-6.144-2.611c-2.318,0-4.536,0.943-6.144,2.611l-26.88,27.989c-5.126,5.356-7.679,12.671-6.997,20.053
			c9.301,120.32,91.563,164.523,193.28,167.68h-1.792h12.373c4.608,0,9.045,0,13.568,0
			C167.544,498.655,86.051,454.282,76.75,334.815z"/>
	</g>
	<g>
		<path style="fill:#FFFFFF;" d="M65.376,321.65c-2.152,2.229-3.656,5.002-4.352,8.021c-0.353,1.538-0.497,3.117-0.427,4.693
			c0,1.621,0.512,4.267,0.768,6.4c0.79,8.875,2.187,17.685,4.181,26.368c1.798,8.697,4.222,17.252,7.253,25.6
			c1.451,4.181,3.499,8.021,5.205,12.117l2.731,5.973l3.413,5.632c10.175,17.508,24.07,32.568,40.704,44.117
			c16.942,11.597,35.809,20.092,55.723,25.088c20.195,5.076,40.882,7.937,61.696,8.533c20.937,0.947,41.916-0.168,62.635-3.328
			c40.875-6.059,81.067-22.272,107.776-53.163c13.221-15.521,23.124-33.584,29.099-53.077c1.753-4.805,3.122-9.741,4.096-14.763
			c1.024-5.12,2.389-10.069,3.072-15.189l1.877-15.445l0.512-3.84c0-1.109,0-1.877,0-2.901c-0.144-1.812-0.546-3.593-1.195-5.291
			c-0.633-1.78-1.588-3.429-2.816-4.864c0-0.597-1.451-1.536-2.475-2.645l-2.901-3.072l-11.776-12.203l-10.325-10.752
			c0,0,0,0-0.597,0.512l-2.901,3.072l-23.808,24.576l-1.451,1.536c-0.937,0.953-1.966,1.81-3.072,2.56
			c-6.052,4.042-14.001,3.802-19.797-0.597c-0.906-0.739-1.761-1.537-2.56-2.389l-11.691-12.203l-11.435-12.288l-4.608-4.864
			l-21.077,21.931l-5.888,6.059l-1.451,1.536c-0.886,0.974-1.889,1.834-2.987,2.56c-4.792,3.37-10.977,4.046-16.384,1.792
			c-1.329-0.51-2.568-1.231-3.669-2.133c-0.918-0.693-1.775-1.463-2.56-2.304l-5.888-6.144l-22.016-23.211h-0.512l-2.901,3.072
			l-11.776,12.8l-11.691,12.203l-1.536,1.536c-0.883,0.919-1.854,1.748-2.901,2.475c-2.327,1.634-5.026,2.661-7.851,2.987
			c-2.899,0.288-5.825-0.121-8.533-1.195c-1.297-0.576-2.527-1.292-3.669-2.133c-0.988-0.67-1.879-1.474-2.645-2.389l-22.784-24.576
			l-4.693-4.949l-9.301,9.643l-12.117,12.373l-5.888,6.059l-1.451,1.536c-0.864,0.932-1.807,1.788-2.816,2.56
			c-2.336,1.604-5.034,2.601-7.851,2.901c-2.892,0.346-5.826-0.035-8.533-1.109c-1.31-0.513-2.545-1.202-3.669-2.048
			c-0.949-0.719-1.834-1.518-2.645-2.389l-5.888-6.144l-11.947-12.117L91.83,293.661l-0.427,0.427l-2.901,3.072L65.376,321.65
			l-12.373-11.861l23.808-24.405l2.987-3.072c0.825-0.888,1.74-1.689,2.731-2.389c1.125-0.846,2.359-1.535,3.669-2.048
			c5.348-2.135,11.413-1.429,16.128,1.877c1.003,0.749,1.944,1.577,2.816,2.475l1.451,1.536l2.987,3.072l5.888,6.059l18.005,18.859
			l19.371-20.224l5.888-6.144l2.901-3.072c0.848-0.865,1.761-1.663,2.731-2.389c1.113-0.863,2.35-1.554,3.669-2.048
			c5.334-2.16,11.398-1.486,16.128,1.792c1.029,0.749,1.999,1.577,2.901,2.475l1.451,1.536l2.901,3.072l23.467,24.491h0.512
			l1.451-1.536l11.776-12.203l11.776-12.203l2.901-3.072c0.799-0.852,1.654-1.651,2.56-2.389c1.154-0.824,2.382-1.538,3.669-2.133
			c5.344-2.216,11.448-1.574,16.213,1.707c1.054,0.75,2.026,1.608,2.901,2.56l1.451,1.536l2.987,3.072l5.888,6.059l11.691,12.288
			l5.888,6.059l0.512,0.512l1.451-1.536l5.888-6.144l11.691-12.203l5.888-6.144l2.901-3.072c0.806-0.819,1.661-1.588,2.56-2.304
			c1.142-0.842,2.373-1.557,3.669-2.133c5.316-2.266,11.417-1.688,16.213,1.536c1.024,0.768,2.389,2.048,2.987,2.56l1.451,1.536
			l2.901,3.072l12.288,12.288l11.776,12.203c0.683,0.683,0.512,0.597,0.512,0.597l1.451-1.536l23.552-24.405l2.901-3.072
			c0.749-0.846,1.578-1.617,2.475-2.304c1.101-0.903,2.34-1.623,3.669-2.133c5.302-2.291,11.403-1.745,16.213,1.451
			c1.101,0.723,2.104,1.583,2.987,2.56l1.451,1.536l2.987,3.072l5.888,6.059l11.691,12.288l2.987,3.072l3.243,3.499
			c2.432,2.903,4.364,6.191,5.717,9.728c1.854,4.954,2.554,10.265,2.048,15.531l-1.621,12.544
			c-0.597,4.096-0.853,8.533-1.707,12.288l-2.645,12.288c-1.892,8.18-4.257,16.243-7.083,24.149
			c-1.28,4.011-3.328,7.765-4.949,11.605c-1.624,3.916-3.476,7.735-5.547,11.435c-8.251,14.896-18.758,28.425-31.147,40.107
			c-12.784,11.357-27.158,20.787-42.667,27.989c-30.495,13.549-63.329,21.055-96.683,22.101
			c-33.009,2.012-66.135-0.864-98.304-8.533c-16.234-4.313-31.901-10.529-46.677-18.517c-3.84-1.877-7.168-4.437-10.837-6.656
			c-3.648-2.143-7.103-4.598-10.325-7.339l-9.899-8.021l-8.96-9.131c-3.12-2.99-5.975-6.245-8.533-9.728
			c-2.708-3.279-5.243-6.697-7.595-10.24l-4.779-7.936l-0.256-2.56c-1.195-1.81-2.277-3.69-3.243-5.632l-2.731-5.973l-2.56-5.973
			c-0.976-1.965-1.831-3.989-2.56-6.059l-2.048-6.144l-2.048-6.229l-1.877-6.144c-2.727-10.953-4.751-22.069-6.059-33.28
			l-1.024-8.533c-0.476-3.311-0.476-6.673,0-9.984c0.887-7.269,4.088-14.06,9.131-19.371L65.376,321.65z"/>
		<g>
			<path style="fill:#51A1FF;" d="M460.811,311.581l-3.243-3.499l-2.987-3.072l-11.691-12.288l-5.888-6.059l-2.987-3.072
				l-1.451-1.536c-0.882-0.977-1.886-1.837-2.987-2.56c-4.811-3.196-10.912-3.742-16.213-1.451c-1.329,0.51-2.568,1.231-3.669,2.133
				l-0.853,0.768c-4.608-40.021-24.064-60.501-36.352-69.461c7.347-9.256,11.4-20.696,11.52-32.512
				c0-20.565-12.885-38.912-34.133-52.565V85.106c0.055-9.44-1.385-18.829-4.267-27.819l13.739-13.824
				c4.882-4.749,7.624-11.28,7.595-18.091c-0.006-6.787-2.707-13.294-7.509-18.091c-10.106-9.709-26.075-9.709-36.181,0
				l-9.216,9.557c-35.473-22.292-80.58-22.292-116.053,0l-9.216-9.557c-10.077-9.699-26.019-9.699-36.096,0
				c-4.882,4.749-7.624,11.28-7.595,18.091c0.006,6.787,2.707,13.294,7.509,18.091l13.824,13.824
				c-2.882,8.99-4.322,18.379-4.267,27.819v41.301c-21.248,13.653-34.133,32-34.133,52.565c0.193,11.847,4.337,23.29,11.776,32.512
				c-12.288,8.96-31.744,29.44-36.267,69.461l-1.109-1.195c-4.715-3.307-10.78-4.013-16.128-1.877
				c-1.31,0.513-2.545,1.202-3.669,2.048c-0.99,0.7-1.905,1.501-2.731,2.389l-3.072,3.072l-23.808,24.405
				c-5.242,5.568-8.51,12.703-9.301,20.309c-0.171,1.873-0.171,3.759,0,5.632c0,1.792,0,2.987,0.512,4.523l1.024,8.533
				c0.62,4.624,4.839,7.893,9.472,7.339c4.659-0.578,7.976-4.81,7.424-9.472l-0.939-8.533c0-1.28,0-2.901-0.512-3.925
				c-0.512-1.024,0-1.963,0-2.901c0.36-3.846,2.015-7.456,4.693-10.24l23.467-24.491l2.901-3.072h0.427l10.24,11.264l11.776,12.203
				l5.888,6.144c0.812,0.871,1.697,1.67,2.645,2.389c1.125,0.846,2.359,1.535,3.669,2.048c2.708,1.075,5.641,1.456,8.533,1.109
				c2.817-0.301,5.515-1.298,7.851-2.901c1.009-0.772,1.952-1.628,2.816-2.56l1.451-1.536l5.888-6.059l11.691-12.288l9.301-9.643
				l5.291,4.779l23.467,24.405c0.767,0.915,1.657,1.719,2.645,2.389c1.142,0.842,2.373,1.557,3.669,2.133
				c2.708,1.073,5.634,1.483,8.533,1.195c2.825-0.326,5.523-1.353,7.851-2.987c1.047-0.727,2.019-1.556,2.901-2.475l1.536-1.536
				l11.691-12.203l11.776-12.288l2.901-3.072l0.512-0.512l22.272,23.211l5.888,6.144c0.785,0.841,1.642,1.611,2.56,2.304
				c1.101,0.903,2.34,1.623,3.669,2.133c5.306,2.21,11.368,1.6,16.128-1.621c1.098-0.726,2.101-1.586,2.987-2.56l1.451-1.536
				l5.888-6.059l21.077-22.016l4.608,4.864l11.776,12.203l11.691,12.203c0.799,0.852,1.654,1.651,2.56,2.389
				c5.797,4.4,13.746,4.639,19.797,0.597c1.106-0.75,2.135-1.607,3.072-2.56l1.451-1.536l23.467-24.491l2.901-3.072
				c0.683-0.683,0.597-0.597,0.597-0.512l10.411,10.837l11.776,12.203l2.901,3.072c1.024,1.109,2.048,2.048,2.475,2.645
				c1.228,1.435,2.183,3.084,2.816,4.864c1.093,2.703,1.474,5.641,1.109,8.533l-1.451,11.52c-0.512,3.84-0.683,7.765-1.536,11.52
				l-2.475,11.349c-1.901,7.545-4.295,14.956-7.168,22.187c-1.227,3.479-2.622,6.896-4.181,10.24
				c-1.454,3.547-3.135,6.996-5.035,10.325c-7.341,13.28-16.696,25.342-27.733,35.755c-11.347,10.154-24.11,18.605-37.888,25.088
				c-28.497,12.569-59.151,19.522-90.283,20.48c-31.344,1.95-62.803-0.753-93.355-8.021c-14.833-4.024-29.151-9.751-42.667-17.067
				c-3.351-1.809-6.599-3.803-9.728-5.973c-3.188-2.037-6.212-4.32-9.045-6.827l-8.533-7.168l-8.533-8.107
				c-2.689-2.627-5.144-5.482-7.339-8.533c-2.417-2.914-4.668-5.963-6.741-9.131l-4.267-7.083l-0.768-1.28
				c-0.939-1.707-2.133-3.328-2.901-5.12c-0.903-1.963-2.567-3.473-4.608-4.181c-2.086-0.81-4.399-0.81-6.485,0
				c-2.103,0.944-3.734,2.698-4.523,4.864c-0.713,2.249-0.561,4.684,0.427,6.827c0.965,1.942,2.048,3.822,3.243,5.632l0.853,1.451
				l4.779,7.936c2.351,3.543,4.886,6.961,7.595,10.24c2.558,3.483,5.413,6.738,8.533,9.728l8.96,9.131l9.899,8.021
				c3.223,2.741,6.678,5.196,10.325,7.339c3.669,2.219,6.997,4.779,10.837,6.656c14.776,7.989,30.443,14.204,46.677,18.517
				c32.169,7.67,65.295,10.545,98.304,8.533c33.353-1.046,66.187-8.552,96.683-22.101c15.509-7.203,29.883-16.632,42.667-27.989
				c12.389-11.682,22.896-25.211,31.147-40.107c1.794-3.579,3.39-7.254,4.779-11.008c1.621-3.84,3.669-7.595,4.949-11.605
				c2.826-7.906,5.191-15.969,7.083-24.149l2.645-12.288c0.853-4.096,1.109-8.533,1.707-12.288l1.451-12.459
				c0.506-5.265-0.194-10.577-2.048-15.531C464.973,317.622,463.128,314.424,460.811,311.581z M335.371,19.399
				c3.328-3.309,8.704-3.309,12.032,0c1.576,1.589,2.465,3.735,2.475,5.973c-0.032,2.251-0.952,4.398-2.56,5.973l-9.216,9.301
				c-3.033-4.858-6.612-9.353-10.667-13.397L335.371,19.399z M164.704,31.346c-1.608-1.576-2.528-3.723-2.56-5.973
				c0.032-2.251,0.952-4.398,2.56-5.973c3.318-3.252,8.629-3.252,11.947,0l7.936,7.851c-4.055,4.044-7.634,8.539-10.667,13.397
				L164.704,31.346z M179.211,85.106c0-67.243,73.643-68.267,76.8-68.267c3.157,0,76.8,0.768,76.8,68.267v32.171
				c-5.56-2.512-11.258-4.706-17.067-6.571V76.573c0-9.426-7.641-17.067-17.067-17.067h-17.067c-9.426,0-17.067,7.641-17.067,17.067
				v25.6c-2.816,0-5.632,0-8.533,0c-2.901,0-5.717,0-8.533,0v-25.6c0-9.426-7.641-17.067-17.067-17.067h-17.067
				c-9.426,0-17.067,7.641-17.067,17.067v34.133c-5.807,1.837-11.505,4.002-17.067,6.485V85.106z M298.678,106.439
				c-5.547-1.109-11.179-2.048-17.067-2.816V76.573h17.067V106.439z M230.411,103.623c-5.888,0.768-11.52,1.707-17.067,2.816V76.573
				h17.067V103.623z M256.011,119.239c59.733,0,110.933,27.392,110.933,59.733c-0.489,10.845-5.391,21.019-13.568,28.16
				c-19.2,18.688-56.064,31.573-97.365,31.573s-78.165-12.885-97.28-31.488c-8.213-7.159-13.146-17.362-13.653-28.245
				C145.078,146.631,196.278,119.239,256.011,119.239z M380.512,309.959l-1.451,1.536c0,0,0,0-0.512-0.512l-11.605-12.032
				l-11.776-12.288l-2.901-3.072l-1.451-1.536c-0.597-0.512-1.963-1.792-2.987-2.56c-4.796-3.224-10.897-3.802-16.213-1.536
				c-1.297,0.576-2.527,1.292-3.669,2.133c-0.899,0.716-1.754,1.485-2.56,2.304l-2.901,3.072l-5.888,6.144l-11.691,12.203
				l-5.888,6.144l-1.451,1.536l0,0l-0.512-0.512l-5.888-6.059l-11.691-12.288l-6.4-5.888l-2.987-3.072l-1.451-1.536
				c-0.875-0.952-1.847-1.81-2.901-2.56c-4.766-3.28-10.869-3.923-16.213-1.707c-1.287,0.595-2.515,1.31-3.669,2.133
				c-0.906,0.739-1.761,1.537-2.56,2.389l-2.901,3.072l-11.776,12.203l-11.861,12.203l-1.451,1.536l0,0h-0.512l-23.467-24.491
				l-2.901-3.072l-1.451-1.536c-0.902-0.898-1.872-1.725-2.901-2.475c-4.73-3.278-10.794-3.952-16.128-1.792
				c-1.319,0.494-2.556,1.185-3.669,2.048c-0.969,0.726-1.882,1.525-2.731,2.389l-2.901,3.072l-5.888,6.144l-19.627,20.053
				l-13.653-14.251c0-47.189,22.101-66.987,32.256-73.643c22.955,19.456,60.672,31.915,104.277,31.915s81.323-12.459,104.277-31.915
				c10.155,6.315,32.256,26.453,32.256,73.643L380.512,309.959z"/>
			<path style="fill:#51A1FF;" d="M68.278,385.309c0.785-2.002,0.785-4.227,0-6.229c-0.689-2.056-2.039-3.827-3.84-5.035
				l-1.451-0.683c-0.567-0.072-1.14-0.072-1.707,0h-1.621h-1.621c-2.249,0.527-4.189,1.943-5.376,3.925
				c-0.596,1.021-0.974,2.154-1.109,3.328c-0.172,3.525,1.683,6.838,4.779,8.533c1.008,0.526,2.11,0.845,3.243,0.939
				c1.071,0.207,2.172,0.207,3.243,0C65.204,389.291,67.171,387.569,68.278,385.309z"/>
			<path style="fill:#51A1FF;" d="M117.003,352.114c-3.346-3.346-8.771-3.346-12.117,0c-3.346,3.346-3.346,8.771,0,12.117
				l8.533,8.533c1.602,1.615,3.783,2.524,6.059,2.524c2.275,0,4.456-0.909,6.059-2.524c1.615-1.602,2.524-3.783,2.524-6.059
				s-0.909-4.456-2.524-6.059L117.003,352.114z"/>
			<path style="fill:#51A1FF;" d="M168.203,360.647c-3.346-3.346-8.771-3.346-12.117,0c-3.346,3.346-3.346,8.771,0,12.117
				l8.533,8.533c1.602,1.615,3.783,2.524,6.059,2.524c2.275,0,4.456-0.909,6.059-2.524c1.615-1.602,2.524-3.783,2.524-6.059
				s-0.909-4.456-2.524-6.059L168.203,360.647z"/>
			<path style="fill:#51A1FF;" d="M121.952,432.498c1.602,1.615,3.783,2.524,6.059,2.524c2.275,0,4.456-0.909,6.059-2.524
				l8.533-8.533c3.346-3.346,3.346-8.771,0-12.117c-3.346-3.346-8.771-3.346-12.117,0l-8.533,8.533
				c-1.615,1.602-2.524,3.783-2.524,6.059S120.337,430.896,121.952,432.498z"/>
			<path style="fill:#51A1FF;" d="M227.936,372.765l8.533-8.533c3.346-3.346,3.346-8.771,0-12.117s-8.771-3.346-12.117,0
				l-8.533,8.533c-1.615,1.602-2.524,3.783-2.524,6.059s0.909,4.456,2.524,6.059c1.602,1.615,3.783,2.524,6.059,2.524
				S226.334,374.38,227.936,372.765z"/>
			<path style="fill:#51A1FF;" d="M198.752,411.847c-1.615,1.602-2.524,3.783-2.524,6.059c0,2.275,0.909,4.456,2.524,6.059
				l8.533,8.533c1.602,1.615,3.783,2.524,6.059,2.524c2.275,0,4.456-0.909,6.059-2.524c1.615-1.602,2.524-3.783,2.524-6.059
				s-0.909-4.456-2.524-6.059l-8.533-8.533c-1.602-1.615-3.783-2.524-6.059-2.524C202.536,409.323,200.354,410.232,198.752,411.847z
				"/>
			<path style="fill:#51A1FF;" d="M264.544,477.639c2.268,0.013,4.448-0.877,6.059-2.475c1.615-1.602,2.524-3.783,2.524-6.059
				s-0.909-4.456-2.524-6.059l-8.533-8.533c-3.346-3.346-8.771-3.346-12.117,0c-3.346,3.346-3.346,8.771,0,12.117l8.533,8.533
				C260.096,476.762,262.276,477.653,264.544,477.639z"/>
			<path style="fill:#51A1FF;" d="M164.619,454.514c-1.615,1.602-2.524,3.783-2.524,6.059s0.909,4.456,2.524,6.059
				c1.602,1.615,3.783,2.524,6.059,2.524c2.275,0,4.456-0.909,6.059-2.524l8.533-8.533c3.346-3.346,3.346-8.771,0-12.117
				c-3.346-3.346-8.771-3.346-12.117,0L164.619,454.514z"/>
			<path style="fill:#51A1FF;" d="M398.603,372.765l8.533-8.533c2.165-2.165,3.01-5.319,2.218-8.276
				c-0.792-2.957-3.102-5.266-6.059-6.059c-2.957-0.792-6.112,0.053-8.276,2.218l-8.533,8.533c-1.615,1.602-2.524,3.783-2.524,6.059
				s0.909,4.456,2.524,6.059c1.602,1.615,3.783,2.524,6.059,2.524S397.001,374.38,398.603,372.765z"/>
			<path style="fill:#51A1FF;" d="M347.403,381.298l8.533-8.533c3.346-3.346,3.346-8.771,0-12.117
				c-3.346-3.346-8.771-3.346-12.117,0l-8.533,8.533c-1.615,1.602-2.524,3.783-2.524,6.059s0.909,4.456,2.524,6.059
				c1.602,1.615,3.783,2.524,6.059,2.524C343.619,383.822,345.801,382.914,347.403,381.298z"/>
			<path style="fill:#51A1FF;" d="M369.419,411.847c-1.615,1.602-2.524,3.783-2.524,6.059c0,2.275,0.909,4.456,2.524,6.059
				l8.533,8.533c1.602,1.615,3.783,2.524,6.059,2.524s4.456-0.909,6.059-2.524c1.615-1.602,2.524-3.783,2.524-6.059
				s-0.909-4.456-2.524-6.059l-8.533-8.533c-1.602-1.615-3.783-2.524-6.059-2.524C373.202,409.323,371.021,410.232,369.419,411.847z
				"/>
			<path style="fill:#51A1FF;" d="M287.67,352.114c-3.346-3.346-8.771-3.346-12.117,0s-3.346,8.771,0,12.117l8.533,8.533
				c1.602,1.615,3.783,2.524,6.059,2.524c2.275,0,4.456-0.909,6.059-2.524c1.615-1.602,2.524-3.783,2.524-6.059
				s-0.909-4.456-2.524-6.059L287.67,352.114z"/>
			<path style="fill:#51A1FF;" d="M292.619,432.498c1.602,1.615,3.783,2.524,6.059,2.524s4.456-0.909,6.059-2.524l8.533-8.533
				c3.346-3.346,3.346-8.771,0-12.117c-3.346-3.346-8.771-3.346-12.117,0l-8.533,8.533c-1.615,1.602-2.524,3.783-2.524,6.059
				S291.003,430.896,292.619,432.498z"/>
			<path style="fill:#51A1FF;" d="M326.752,445.981c-1.615,1.602-2.524,3.783-2.524,6.059c0,2.275,0.909,4.456,2.524,6.059
				l8.533,8.533c1.602,1.615,3.783,2.524,6.059,2.524c2.275,0,4.456-0.909,6.059-2.524c1.615-1.602,2.524-3.783,2.524-6.059
				s-0.909-4.456-2.524-6.059l-8.533-8.533c-1.602-1.615-3.783-2.524-6.059-2.524S328.354,444.365,326.752,445.981z"/>
			<path style="fill:#51A1FF;" d="M213.344,161.906c2.268,0.013,4.448-0.877,6.059-2.475c2.869-3.219,6.754-5.357,11.008-6.059
				c4.713,0,8.533-3.821,8.533-8.533s-3.821-8.533-8.533-8.533c-8.82,0.623-17.08,4.555-23.125,11.008
				c-1.615,1.602-2.524,3.783-2.524,6.059c0,2.275,0.909,4.456,2.524,6.059C208.896,161.029,211.076,161.919,213.344,161.906z"/>
			<path style="fill:#51A1FF;" d="M281.611,153.373c4.325,0.637,8.284,2.783,11.179,6.059c1.602,1.615,3.783,2.524,6.059,2.524
				c2.275,0,4.456-0.909,6.059-2.524c1.615-1.602,2.524-3.783,2.524-6.059c0-2.275-0.909-4.456-2.524-6.059
				c-6.087-6.492-14.415-10.427-23.296-11.008c-4.713,0-8.533,3.821-8.533,8.533S276.898,153.373,281.611,153.373z"/>
		</g>
	</g>
</g>
<g>
</g>
<g>
</g>
<g>
</g>
<g>
</g>
<g>
</g>
<g>
</g>
<g>
</g>
<g>
</g>
<g>
</g>
<g>
</g>
<g>
</g>
<g>
</g>
<g>
</g>
<g>
</g>
<g>
</g>
</svg>
