<svg width="46" height="46" viewBox="0 0 46 46" fill="none" xmlns="http://www.w3.org/2000/svg">
<path d="M45.6216 34.9133C45.6216 40.6217 41.0001 45.2432 35.2917 45.2432H10.7083C4.99991 45.2432 0.37838 40.6217 0.37838 34.9133V10.3388C0.37838 4.63036 5.00874 0 10.7172 0H35.1326C40.9294 0 45.6216 4.69222 45.6216 10.489V34.9133Z" fill="url(#paint0_radial)"/>
<path d="M29.2916 6.23877H16.7084C11.1325 6.23877 6.60816 10.7631 6.60816 16.339V28.9134C6.60816 34.4893 11.1237 39.0048 16.7084 39.0048H29.2828C34.8587 39.0048 39.3742 34.4893 39.3742 28.9134V16.339C39.383 10.7543 34.8675 6.23877 29.2916 6.23877ZM36.2372 27.7028C36.2372 32.2094 32.5877 35.859 28.081 35.859H17.919C13.4123 35.859 9.76282 32.2094 9.76282 27.7028V17.5407C9.76282 13.0341 13.4123 9.38459 17.919 9.38459H28.081C32.5877 9.38459 36.2372 13.0429 36.2372 17.5407V27.7028Z" fill="white"/>
<path d="M23.4418 14.05C18.6701 14.05 14.8085 17.9116 14.8085 22.6834C14.8085 27.4463 18.6701 31.3167 23.4418 31.3167C28.2047 31.3167 32.0751 27.4551 32.0751 22.6834C32.0663 17.9116 28.2047 14.05 23.4418 14.05ZM23.4418 27.8704C20.5699 27.8704 18.2459 25.5464 18.2459 22.6745C18.2459 19.8027 20.5699 17.4786 23.4418 17.4786C26.3049 17.4786 28.6377 19.8027 28.6377 22.6745C28.6289 25.5464 26.3049 27.8704 23.4418 27.8704Z" fill="white"/>
<defs>
<radialGradient id="paint0_radial" cx="0" cy="0" r="1" gradientUnits="userSpaceOnUse" gradientTransform="translate(13.6304 48.746) scale(59.954 59.9523)">
<stop offset="0.0969388" stop-color="#FFD87A"/>
<stop offset="0.1426" stop-color="#FCCE78"/>
<stop offset="0.2263" stop-color="#F5B471"/>
<stop offset="0.3378" stop-color="#EB8D65"/>
<stop offset="0.449" stop-color="#E36058"/>
<stop offset="0.6786" stop-color="#CD3694"/>
<stop offset="1" stop-color="#6668B0"/>
</radialGradient>
</defs>
</svg>
