<svg width="46" height="46" viewBox="0 0 46 46" fill="none" xmlns="http://www.w3.org/2000/svg">
<path d="M45.2432 35.09C45.2432 40.7012 40.6924 45.2432 35.09 45.2432H10.1532C4.55083 45.2432 0 40.6924 0 35.09V10.1532C0 4.55083 4.55083 0 10.1532 0H35.09C40.6924 0 45.2432 4.55083 45.2432 10.1532V35.09Z" fill="#678AAF"/>
<path d="M22.3123 30.8749H24.0532C24.0532 30.8749 24.5833 30.813 24.8484 30.5303C25.0959 30.2652 25.087 29.7615 25.087 29.7615C25.087 29.7615 25.0517 27.4198 26.1386 27.0752C27.2078 26.7305 28.5863 29.3373 30.0443 30.3358C31.1489 31.0958 31.9884 30.9279 31.9884 30.9279L35.8853 30.8749C35.8853 30.8749 37.9266 30.7512 36.9545 29.1429C36.875 29.0104 36.389 27.9588 34.0562 25.7939C31.6173 23.5317 31.9442 23.894 34.8868 19.9706C36.6806 17.5847 37.3964 16.1267 37.1755 15.4993C36.9634 14.9072 35.6467 15.0663 35.6467 15.0663L31.255 15.0928C31.255 15.0928 30.928 15.0486 30.6894 15.19C30.4508 15.3314 30.3006 15.6583 30.3006 15.6583C30.3006 15.6583 29.6025 17.5052 28.6747 19.0781C26.7218 22.4006 25.9442 22.5685 25.6172 22.3653C24.875 21.8793 25.0605 20.4389 25.0605 19.405C25.0605 16.1885 25.5465 14.8542 24.1062 14.5007C23.629 14.3858 23.2755 14.3063 22.0561 14.2975C20.492 14.2798 19.1665 14.3063 18.4154 14.6686C17.9206 14.916 17.5318 15.4551 17.7615 15.4904C18.0531 15.5258 18.707 15.6672 19.0605 16.1443C19.5112 16.754 19.4935 18.1326 19.4935 18.1326C19.4935 18.1326 19.7497 21.9146 18.8926 22.3918C18.3005 22.7187 17.4876 22.056 15.7468 19.0427C14.8543 17.5052 14.1827 15.7997 14.1827 15.7997C14.1827 15.7997 14.0502 15.4816 13.8204 15.3137C13.5376 15.1104 13.1488 15.0398 13.1488 15.0398L8.97796 15.0663C8.97796 15.0663 8.35057 15.0839 8.12082 15.3579C7.91757 15.5965 8.10314 16.1001 8.10314 16.1001C8.10314 16.1001 11.3638 23.7349 15.0664 27.5877C18.4596 31.1046 22.3123 30.8749 22.3123 30.8749Z" fill="white"/>
</svg>
