<svg xmlns="http://www.w3.org/2000/svg" width="56.69" height="56.69"><path d="M29.75 16.17A12.3 12.3 0 0019.34 35l.3.46L18.38 40l4.65-1.22.45.27a12.3 12.3 0 0014.95-19.26 12.2 12.2 0 00-8.69-3.6zm7.23 17.57c-.31.86-1.79 1.65-2.5 1.76-.63.1-1.44.13-2.32-.15-.54-.17-1.23-.4-2.1-.78-3.71-1.6-6.13-5.33-6.32-5.58-.18-.24-1.5-2-1.5-3.82 0-1.81.95-2.7 1.29-3.08.34-.37.74-.46.98-.46l.71.01c.23.02.53-.08.83.64.31.74 1.05 2.56 1.14 2.74.1.19.16.4.03.65-.12.24-.18.4-.37.61-.18.22-.39.49-.55.65-.19.18-.38.38-.16.75.21.37.95 1.58 2.05 2.56 1.41 1.26 2.6 1.65 2.97 1.84.37.18.59.15.8-.1.22-.24.92-1.07 1.17-1.44.25-.37.5-.31.83-.19a61.7 61.7 0 012.53 1.2c.37.19.61.28.7.43.1.16.1.9-.21 1.76z"/><path d="M29.2 4.37a24.62 24.62 0 100 49.25 24.62 24.62 0 000-49.25zm.55 38.88c-2.48 0-4.91-.62-7.07-1.8l-7.84 2.06 2.1-7.66A14.8 14.8 0 0140.2 18.02a14.8 14.8 0 01-10.46 25.24z"/></svg>